M48
; DRILL file {KiCad (5.1.5-0-10_14)} date 2020 June 29, Monday 21:31:53
; FORMAT={-:-/ absolute / inch / decimal}
; #@! TF.CreationDate,2020-06-29T21:31:53+02:00
; #@! TF.GenerationSoftware,Kicad,Pcbnew,(5.1.5-0-10_14)
FMAT,2
INCH
T1C0.0157
T2C0.0276
T3C0.0315
T4C0.0394
T5C0.0400
T6C0.1200
%
G90
G05
T1
X1.305Y-3.71
X1.3094Y-3.2653
X1.4064Y-3.3611
X1.4326Y-1.7073
X1.455Y-1.805
X1.555Y-4.19
X1.6087Y-2.5279
X1.7Y-3.715
X1.7392Y-2.6709
X1.822Y-3.988
X1.825Y-4.19
X1.9021Y-2.714
X2.0139Y-3.4321
X2.0355Y-2.9431
X2.21Y-4.195
X2.5686Y-3.3457
X2.68Y-3.415
X2.78Y-4.13
X2.91Y-3.315
X2.9692Y-2.3695
X3.0009Y-2.4037
X3.01Y-4.13
X3.12Y-3.405
X3.4154Y-2.3445
X3.587Y-2.622
X3.6071Y-2.2841
X3.6159Y-2.6858
X3.6276Y-2.6293
X3.881Y-2.0267
X3.8953Y-1.9486
X3.9489Y-2.4001
X3.9696Y-2.0234
X4.195Y-2.54
T2
X2.6217Y-4.137
X2.6217Y-4.237
X2.0705Y-4.137
X2.0705Y-4.237
X2.3559Y-4.137
X2.3559Y-4.237
X2.9071Y-4.137
X2.9071Y-4.237
X3.1925Y-4.137
X3.1925Y-4.237
T3
X2.6Y-0.75
X2.6Y-0.85
X2.6Y-0.95
X2.6Y-1.05
X2.6Y-1.15
X2.6Y-1.25
X2.6Y-1.35
X2.6Y-1.45
X2.6Y-1.55
X2.6Y-1.65
X2.6Y-1.75
X2.6Y-1.85
X2.6Y-1.95
X2.6Y-2.05
X2.9Y-0.75
X2.9Y-0.85
X2.9Y-0.95
X2.9Y-1.05
X2.9Y-1.15
X2.9Y-1.25
X2.9Y-1.35
X2.9Y-1.45
X2.9Y-1.55
X2.9Y-1.65
X2.9Y-1.75
X2.9Y-1.85
X2.9Y-1.95
X2.9Y-2.05
X3.07Y-2.58
X3.07Y-2.68
X3.07Y-2.78
X3.07Y-2.88
X3.07Y-2.98
X3.07Y-3.08
X3.07Y-3.18
X3.07Y-3.28
X3.37Y-2.58
X3.37Y-2.68
X3.37Y-2.78
X3.37Y-2.88
X3.37Y-2.98
X3.37Y-3.08
X3.37Y-3.18
X3.37Y-3.28
X2.48Y-2.69
X2.48Y-2.79
X2.48Y-2.89
X2.48Y-2.99
X2.48Y-3.09
X2.48Y-3.19
X2.48Y-3.29
X2.48Y-3.39
X2.78Y-2.69
X2.78Y-2.79
X2.78Y-2.89
X2.78Y-2.99
X2.78Y-3.09
X2.78Y-3.19
X2.78Y-3.29
X2.78Y-3.39
X1.4013Y-1.1465
X1.4013Y-1.4465
X1.5013Y-1.1465
X1.5013Y-1.4465
X1.6013Y-1.1465
X1.6013Y-1.4465
X1.7013Y-1.1465
X1.7013Y-1.4465
X1.8013Y-1.1465
X1.8013Y-1.4465
X1.9013Y-1.1465
X1.9013Y-1.4465
X2.0013Y-1.1465
X2.0013Y-1.4465
X2.1013Y-1.1465
X2.1013Y-1.4465
X2.2013Y-1.1465
X2.2013Y-1.4465
X1.3914Y-2.0126
X1.3914Y-2.3126
X1.4914Y-2.0126
X1.4914Y-2.3126
X1.5914Y-2.0126
X1.5914Y-2.3126
X1.6914Y-2.0126
X1.6914Y-2.3126
X1.7914Y-2.0126
X1.7914Y-2.3126
X1.8914Y-2.0126
X1.8914Y-2.3126
X1.9914Y-2.0126
X1.9914Y-2.3126
X2.0914Y-2.0126
X2.0914Y-2.3126
X2.1914Y-2.0126
X2.1914Y-2.3126
X1.3816Y-2.8591
X1.3816Y-3.1591
X1.4816Y-2.8591
X1.4816Y-3.1591
X1.5816Y-2.8591
X1.5816Y-3.1591
X1.6816Y-2.8591
X1.6816Y-3.1591
X1.7816Y-2.8591
X1.7816Y-3.1591
X1.8816Y-2.8591
X1.8816Y-3.1591
X1.9816Y-2.8591
X1.9816Y-3.1591
X2.0816Y-2.8591
X2.0816Y-3.1591
X2.1816Y-2.8591
X2.1816Y-3.1591
T4
X1.361Y-3.8624
X1.361Y-3.9624
X1.361Y-4.0624
X2.3559Y-3.7197
X2.3559Y-4.015
X1.505Y-3.8624
X1.505Y-3.9624
X1.505Y-4.0624
X2.6217Y-3.7197
X2.6217Y-4.015
X2.9071Y-3.7197
X2.9071Y-4.015
X1.65Y-3.8624
X1.65Y-3.9624
X1.65Y-4.0624
X3.1925Y-3.7197
X3.1925Y-4.015
X2.0705Y-3.7197
X2.0705Y-4.015
T5
X0.9055Y-1.0433
X0.9055Y-1.1433
X0.9055Y-1.2433
X0.9055Y-1.3433
X0.9055Y-1.4433
X0.9055Y-1.5433
X0.9055Y-1.6433
X0.9055Y-1.7433
X0.9055Y-1.8433
X0.9055Y-1.9433
X0.9055Y-2.0433
X0.9055Y-2.1433
X0.9055Y-2.2433
X0.9055Y-2.3433
X0.9055Y-2.4433
X0.9055Y-2.5433
X0.9055Y-2.6433
X0.9055Y-2.7433
X0.9055Y-2.8433
X0.9055Y-2.9433
X0.9055Y-3.0433
X0.9055Y-3.1433
X0.9055Y-3.2433
X0.9055Y-3.3433
X0.9055Y-3.4433
X0.9055Y-3.5433
X0.9055Y-3.6433
X0.9055Y-3.7433
X0.9055Y-3.8433
X0.9055Y-3.9433
X1.0055Y-1.0433
X1.0055Y-1.1433
X1.0055Y-1.2433
X1.0055Y-1.3433
X1.0055Y-1.4433
X1.0055Y-1.5433
X1.0055Y-1.6433
X1.0055Y-1.7433
X1.0055Y-1.8433
X1.0055Y-1.9433
X1.0055Y-2.0433
X1.0055Y-2.1433
X1.0055Y-2.2433
X1.0055Y-2.3433
X1.0055Y-2.4433
X1.0055Y-2.5433
X1.0055Y-2.6433
X1.0055Y-2.7433
X1.0055Y-2.8433
X1.0055Y-2.9433
X1.0055Y-3.0433
X1.0055Y-3.1433
X1.0055Y-3.2433
X1.0055Y-3.3433
X1.0055Y-3.4433
X1.0055Y-3.5433
X1.0055Y-3.6433
X1.0055Y-3.7433
X1.0055Y-3.8433
X1.0055Y-3.9433
X3.68Y-1.76
X3.68Y-1.86
X3.68Y-1.96
X3.68Y-2.06
X3.68Y-2.16
X3.68Y-2.26
X3.68Y-2.36
X3.68Y-2.46
X3.68Y-2.56
X3.68Y-2.66
X3.68Y-2.76
X3.68Y-2.86
X3.68Y-2.96
X3.68Y-3.06
X3.68Y-3.16
X3.68Y-3.26
X3.68Y-3.36
X3.68Y-3.46
X3.68Y-3.56
X3.68Y-3.66
X3.68Y-3.76
X3.68Y-3.86
X3.68Y-3.96
X3.68Y-4.06
X3.68Y-4.16
X3.78Y-1.76
X3.78Y-1.86
X3.78Y-1.96
X3.78Y-2.06
X3.78Y-2.16
X3.78Y-2.26
X3.78Y-2.36
X3.78Y-2.46
X3.78Y-2.56
X3.78Y-2.66
X3.78Y-2.76
X3.78Y-2.86
X3.78Y-2.96
X3.78Y-3.06
X3.78Y-3.16
X3.78Y-3.26
X3.78Y-3.36
X3.78Y-3.46
X3.78Y-3.56
X3.78Y-3.66
X3.78Y-3.76
X3.78Y-3.86
X3.78Y-3.96
X3.78Y-4.06
X3.78Y-4.16
X4.13Y-2.705
X4.13Y-2.805
X4.13Y-2.905
X4.13Y-3.005
X4.13Y-3.105
X4.13Y-3.205
X4.13Y-3.305
X4.13Y-3.405
X4.13Y-3.505
X4.13Y-3.605
X4.23Y-2.705
X4.23Y-2.805
X4.23Y-2.905
X4.23Y-3.005
X4.23Y-3.105
X4.23Y-3.205
X4.23Y-3.305
X4.23Y-3.405
X4.23Y-3.505
X4.23Y-3.605
T6
X4.252Y-0.7087
X0.7087Y-0.7087
X4.252Y-4.252
X0.7087Y-4.252
T0
M30
