M48
; DRILL file {KiCad (5.1.5-0-10_14)} date 2020 June 17, Wednesday 20:54:42
; FORMAT={-:-/ absolute / inch / decimal}
; #@! TF.CreationDate,2020-06-17T20:54:42+02:00
; #@! TF.GenerationSoftware,Kicad,Pcbnew,(5.1.5-0-10_14)
FMAT,2
INCH
T1C0.0157
T2C0.0276
T3C0.0315
T4C0.0394
T5C0.0400
T6C0.1200
%
G90
G05
T1
X1.1486Y-2.3983
X1.205Y-3.81
X1.268Y-2.4353
X1.3272Y-2.2199
X1.3598Y-2.6697
X1.4013Y-1.5287
X1.4467Y-2.4617
X1.4546Y-2.5188
X1.4698Y-2.98
X1.4736Y-2.4319
X1.5791Y-2.4168
X1.615Y-3.76
X1.925Y-4.2
X2.2803Y-2.8504
X2.3113Y-2.9533
X2.6Y-3.305
X2.775Y-4.05
X2.8121Y-2.3069
X3.07Y-3.415
X3.18Y-1.685
X3.205Y-0.67
X3.313Y-2.0235
X3.3407Y-2.0624
X3.3811Y-2.0129
X3.4478Y-2.3708
X3.4849Y-2.3423
X3.5162Y-2.3023
X3.6243Y-1.7966
X4.0Y-1.87
X4.165Y-1.065
X4.2221Y-1.7741
T2
X2.6217Y-4.202
X2.6217Y-4.302
X3.1925Y-4.202
X3.1925Y-4.302
X2.3559Y-4.202
X2.3559Y-4.302
X2.0705Y-4.202
X2.0705Y-4.302
X2.9071Y-4.202
X2.9071Y-4.302
T3
X1.4013Y-1.1465
X1.4013Y-1.4465
X1.5013Y-1.1465
X1.5013Y-1.4465
X1.6013Y-1.1465
X1.6013Y-1.4465
X1.7013Y-1.1465
X1.7013Y-1.4465
X1.8013Y-1.1465
X1.8013Y-1.4465
X1.9013Y-1.1465
X1.9013Y-1.4465
X2.0013Y-1.1465
X2.0013Y-1.4465
X2.1013Y-1.1465
X2.1013Y-1.4465
X2.2013Y-1.1465
X2.2013Y-1.4465
X1.3914Y-2.0126
X1.3914Y-2.3126
X1.4914Y-2.0126
X1.4914Y-2.3126
X1.5914Y-2.0126
X1.5914Y-2.3126
X1.6914Y-2.0126
X1.6914Y-2.3126
X1.7914Y-2.0126
X1.7914Y-2.3126
X1.8914Y-2.0126
X1.8914Y-2.3126
X1.9914Y-2.0126
X1.9914Y-2.3126
X2.0914Y-2.0126
X2.0914Y-2.3126
X2.1914Y-2.0126
X2.1914Y-2.3126
X3.07Y-2.58
X3.07Y-2.68
X3.07Y-2.78
X3.07Y-2.88
X3.07Y-2.98
X3.07Y-3.08
X3.07Y-3.18
X3.07Y-3.28
X3.37Y-2.58
X3.37Y-2.68
X3.37Y-2.78
X3.37Y-2.88
X3.37Y-2.98
X3.37Y-3.08
X3.37Y-3.18
X3.37Y-3.28
X2.48Y-2.69
X2.48Y-2.79
X2.48Y-2.89
X2.48Y-2.99
X2.48Y-3.09
X2.48Y-3.19
X2.48Y-3.29
X2.48Y-3.39
X2.78Y-2.69
X2.78Y-2.79
X2.78Y-2.89
X2.78Y-2.99
X2.78Y-3.09
X2.78Y-3.19
X2.78Y-3.29
X2.78Y-3.39
X1.3816Y-2.8591
X1.3816Y-3.1591
X1.4816Y-2.8591
X1.4816Y-3.1591
X1.5816Y-2.8591
X1.5816Y-3.1591
X1.6816Y-2.8591
X1.6816Y-3.1591
X1.7816Y-2.8591
X1.7816Y-3.1591
X1.8816Y-2.8591
X1.8816Y-3.1591
X1.9816Y-2.8591
X1.9816Y-3.1591
X2.0816Y-2.8591
X2.0816Y-3.1591
X2.1816Y-2.8591
X2.1816Y-3.1591
X2.6Y-0.75
X2.6Y-0.85
X2.6Y-0.95
X2.6Y-1.05
X2.6Y-1.15
X2.6Y-1.25
X2.6Y-1.35
X2.6Y-1.45
X2.6Y-1.55
X2.6Y-1.65
X2.6Y-1.75
X2.6Y-1.85
X2.6Y-1.95
X2.6Y-2.05
X2.9Y-0.75
X2.9Y-0.85
X2.9Y-0.95
X2.9Y-1.05
X2.9Y-1.15
X2.9Y-1.25
X2.9Y-1.35
X2.9Y-1.45
X2.9Y-1.55
X2.9Y-1.65
X2.9Y-1.75
X2.9Y-1.85
X2.9Y-1.95
X2.9Y-2.05
T4
X2.6217Y-3.7197
X2.6217Y-4.015
X2.3559Y-3.7197
X2.3559Y-4.015
X3.1925Y-3.7197
X3.1925Y-4.015
X2.9071Y-3.7197
X2.9071Y-4.015
X2.0705Y-3.7197
X2.0705Y-4.015
X1.361Y-3.8624
X1.361Y-3.9624
X1.361Y-4.0624
X1.7272Y-3.8624
X1.7272Y-3.9624
X1.7272Y-4.0624
X1.5441Y-3.8624
X1.5441Y-3.9624
X1.5441Y-4.0624
T5
X3.68Y-1.27
X3.68Y-1.37
X3.68Y-1.47
X3.68Y-1.57
X3.68Y-1.67
X3.68Y-1.77
X3.68Y-1.87
X3.68Y-1.97
X3.68Y-2.07
X3.68Y-2.17
X3.68Y-2.27
X3.68Y-2.37
X3.68Y-2.47
X3.68Y-2.57
X3.68Y-2.67
X3.68Y-2.77
X3.68Y-2.87
X3.68Y-2.97
X3.68Y-3.07
X3.68Y-3.17
X3.68Y-3.27
X3.68Y-3.37
X3.68Y-3.47
X3.68Y-3.57
X3.68Y-3.67
X3.78Y-1.27
X3.78Y-1.37
X3.78Y-1.47
X3.78Y-1.57
X3.78Y-1.67
X3.78Y-1.77
X3.78Y-1.87
X3.78Y-1.97
X3.78Y-2.07
X3.78Y-2.17
X3.78Y-2.27
X3.78Y-2.37
X3.78Y-2.47
X3.78Y-2.57
X3.78Y-2.67
X3.78Y-2.77
X3.78Y-2.87
X3.78Y-2.97
X3.78Y-3.07
X3.78Y-3.17
X3.78Y-3.27
X3.78Y-3.37
X3.78Y-3.47
X3.78Y-3.57
X3.78Y-3.67
X4.13Y-2.2069
X4.13Y-2.3069
X4.13Y-2.4069
X4.13Y-2.5069
X4.13Y-2.6069
X4.13Y-2.7069
X4.13Y-2.8069
X4.13Y-2.9069
X4.13Y-3.0069
X4.13Y-3.1069
X4.23Y-2.2069
X4.23Y-2.3069
X4.23Y-2.4069
X4.23Y-2.5069
X4.23Y-2.6069
X4.23Y-2.7069
X4.23Y-2.8069
X4.23Y-2.9069
X4.23Y-3.0069
X4.23Y-3.1069
X0.9055Y-1.0433
X0.9055Y-1.1433
X0.9055Y-1.2433
X0.9055Y-1.3433
X0.9055Y-1.4433
X0.9055Y-1.5433
X0.9055Y-1.6433
X0.9055Y-1.7433
X0.9055Y-1.8433
X0.9055Y-1.9433
X0.9055Y-2.0433
X0.9055Y-2.1433
X0.9055Y-2.2433
X0.9055Y-2.3433
X0.9055Y-2.4433
X0.9055Y-2.5433
X0.9055Y-2.6433
X0.9055Y-2.7433
X0.9055Y-2.8433
X0.9055Y-2.9433
X0.9055Y-3.0433
X0.9055Y-3.1433
X0.9055Y-3.2433
X0.9055Y-3.3433
X0.9055Y-3.4433
X0.9055Y-3.5433
X0.9055Y-3.6433
X0.9055Y-3.7433
X0.9055Y-3.8433
X0.9055Y-3.9433
X1.0055Y-1.0433
X1.0055Y-1.1433
X1.0055Y-1.2433
X1.0055Y-1.3433
X1.0055Y-1.4433
X1.0055Y-1.5433
X1.0055Y-1.6433
X1.0055Y-1.7433
X1.0055Y-1.8433
X1.0055Y-1.9433
X1.0055Y-2.0433
X1.0055Y-2.1433
X1.0055Y-2.2433
X1.0055Y-2.3433
X1.0055Y-2.4433
X1.0055Y-2.5433
X1.0055Y-2.6433
X1.0055Y-2.7433
X1.0055Y-2.8433
X1.0055Y-2.9433
X1.0055Y-3.0433
X1.0055Y-3.1433
X1.0055Y-3.2433
X1.0055Y-3.3433
X1.0055Y-3.4433
X1.0055Y-3.5433
X1.0055Y-3.6433
X1.0055Y-3.7433
X1.0055Y-3.8433
X1.0055Y-3.9433
T6
X0.7087Y-4.252
X4.252Y-0.7087
X0.7087Y-0.7087
X4.252Y-4.252
T0
M30
