G04 #@! TF.GenerationSoftware,KiCad,Pcbnew,(5.1.5-0-10_14)*
G04 #@! TF.CreationDate,2020-06-15T10:56:29+02:00*
G04 #@! TF.ProjectId,BROSE_LAWO_Adapter,42524f53-455f-44c4-9157-4f5f41646170,rev?*
G04 #@! TF.SameCoordinates,Original*
G04 #@! TF.FileFunction,Copper,L2,Bot*
G04 #@! TF.FilePolarity,Positive*
%FSLAX46Y46*%
G04 Gerber Fmt 4.6, Leading zero omitted, Abs format (unit mm)*
G04 Created by KiCad (PCBNEW (5.1.5-0-10_14)) date 2020-06-15 10:56:29*
%MOMM*%
%LPD*%
G04 APERTURE LIST*
%ADD10C,4.064000*%
%ADD11O,1.727200X1.727200*%
%ADD12R,1.727200X1.727200*%
%ADD13O,1.600000X1.600000*%
%ADD14R,1.600000X1.600000*%
%ADD15O,1.400000X1.400000*%
%ADD16C,1.400000*%
%ADD17C,2.000000*%
%ADD18O,1.700000X1.700000*%
%ADD19R,1.700000X1.700000*%
%ADD20C,0.800000*%
%ADD21C,0.250000*%
%ADD22C,0.500000*%
%ADD23C,0.254000*%
G04 APERTURE END LIST*
D10*
X108000000Y-18000000D03*
X108000000Y-108000000D03*
X18000000Y-108000000D03*
X18000000Y-18000000D03*
D11*
X107442000Y-73914000D03*
X104902000Y-73914000D03*
X107442000Y-71374000D03*
X104902000Y-71374000D03*
X107442000Y-68834000D03*
X104902000Y-68834000D03*
X107442000Y-66294000D03*
X104902000Y-66294000D03*
X107442000Y-63754000D03*
X104902000Y-63754000D03*
X107442000Y-61214000D03*
X104902000Y-61214000D03*
X107442000Y-58674000D03*
X104902000Y-58674000D03*
X107442000Y-56134000D03*
X104902000Y-56134000D03*
X107442000Y-53594000D03*
X104902000Y-53594000D03*
X107442000Y-51054000D03*
D12*
X104902000Y-51054000D03*
D13*
X85598000Y-65532000D03*
X77978000Y-83312000D03*
X85598000Y-68072000D03*
X77978000Y-80772000D03*
X85598000Y-70612000D03*
X77978000Y-78232000D03*
X85598000Y-73152000D03*
X77978000Y-75692000D03*
X85598000Y-75692000D03*
X77978000Y-73152000D03*
X85598000Y-78232000D03*
X77978000Y-70612000D03*
X85598000Y-80772000D03*
X77978000Y-68072000D03*
X85598000Y-83312000D03*
D14*
X77978000Y-65532000D03*
D13*
X70612000Y-68326000D03*
X62992000Y-86106000D03*
X70612000Y-70866000D03*
X62992000Y-83566000D03*
X70612000Y-73406000D03*
X62992000Y-81026000D03*
X70612000Y-75946000D03*
X62992000Y-78486000D03*
X70612000Y-78486000D03*
X62992000Y-75946000D03*
X70612000Y-81026000D03*
X62992000Y-73406000D03*
X70612000Y-83566000D03*
X62992000Y-70866000D03*
X70612000Y-86106000D03*
D14*
X62992000Y-68326000D03*
D13*
X73660000Y-19050000D03*
X66040000Y-52070000D03*
X73660000Y-21590000D03*
X66040000Y-49530000D03*
X73660000Y-24130000D03*
X66040000Y-46990000D03*
X73660000Y-26670000D03*
X66040000Y-44450000D03*
X73660000Y-29210000D03*
X66040000Y-41910000D03*
X73660000Y-31750000D03*
X66040000Y-39370000D03*
X73660000Y-34290000D03*
X66040000Y-36830000D03*
X73660000Y-36830000D03*
X66040000Y-34290000D03*
X73660000Y-39370000D03*
X66040000Y-31750000D03*
X73660000Y-41910000D03*
X66040000Y-29210000D03*
X73660000Y-44450000D03*
X66040000Y-26670000D03*
X73660000Y-46990000D03*
X66040000Y-24130000D03*
X73660000Y-49530000D03*
X66040000Y-21590000D03*
X73660000Y-52070000D03*
D14*
X66040000Y-19050000D03*
D15*
X52590000Y-109270000D03*
D16*
X52590000Y-106730000D03*
D15*
X59840000Y-109270000D03*
D16*
X59840000Y-106730000D03*
D15*
X66590000Y-109270000D03*
D16*
X66590000Y-106730000D03*
D15*
X73840000Y-109270000D03*
D16*
X73840000Y-106730000D03*
D15*
X81090000Y-109270000D03*
D16*
X81090000Y-106730000D03*
D17*
X52590000Y-94480000D03*
X52590000Y-101980000D03*
X59840000Y-94480000D03*
X59840000Y-101980000D03*
X66590000Y-94480000D03*
X66590000Y-101980000D03*
X73840000Y-94480000D03*
X73840000Y-101980000D03*
X81090000Y-94480000D03*
X81090000Y-101980000D03*
D13*
X55412000Y-80240000D03*
X35092000Y-72620000D03*
X52872000Y-80240000D03*
X37632000Y-72620000D03*
X50332000Y-80240000D03*
X40172000Y-72620000D03*
X47792000Y-80240000D03*
X42712000Y-72620000D03*
X45252000Y-80240000D03*
X45252000Y-72620000D03*
X42712000Y-80240000D03*
X47792000Y-72620000D03*
X40172000Y-80240000D03*
X50332000Y-72620000D03*
X37632000Y-80240000D03*
X52872000Y-72620000D03*
X35092000Y-80240000D03*
D14*
X55412000Y-72620000D03*
D13*
X55662000Y-58740000D03*
X35342000Y-51120000D03*
X53122000Y-58740000D03*
X37882000Y-51120000D03*
X50582000Y-58740000D03*
X40422000Y-51120000D03*
X48042000Y-58740000D03*
X42962000Y-51120000D03*
X45502000Y-58740000D03*
X45502000Y-51120000D03*
X42962000Y-58740000D03*
X48042000Y-51120000D03*
X40422000Y-58740000D03*
X50582000Y-51120000D03*
X37882000Y-58740000D03*
X53122000Y-51120000D03*
X35342000Y-58740000D03*
D14*
X55662000Y-51120000D03*
D13*
X55912000Y-36740000D03*
X35592000Y-29120000D03*
X53372000Y-36740000D03*
X38132000Y-29120000D03*
X50832000Y-36740000D03*
X40672000Y-29120000D03*
X48292000Y-36740000D03*
X43212000Y-29120000D03*
X45752000Y-36740000D03*
X45752000Y-29120000D03*
X43212000Y-36740000D03*
X48292000Y-29120000D03*
X40672000Y-36740000D03*
X50832000Y-29120000D03*
X38132000Y-36740000D03*
X53372000Y-29120000D03*
X35592000Y-36740000D03*
D14*
X55912000Y-29120000D03*
D18*
X43870000Y-103184000D03*
X43870000Y-100644000D03*
D19*
X43870000Y-98104000D03*
D18*
X39220000Y-103184000D03*
X39220000Y-100644000D03*
D19*
X39220000Y-98104000D03*
D18*
X34570000Y-103184000D03*
X34570000Y-100644000D03*
D19*
X34570000Y-98104000D03*
D11*
X96012000Y-93218000D03*
X93472000Y-93218000D03*
X96012000Y-90678000D03*
X93472000Y-90678000D03*
X96012000Y-88138000D03*
X93472000Y-88138000D03*
X96012000Y-85598000D03*
X93472000Y-85598000D03*
X96012000Y-83058000D03*
X93472000Y-83058000D03*
X96012000Y-80518000D03*
X93472000Y-80518000D03*
X96012000Y-77978000D03*
X93472000Y-77978000D03*
X96012000Y-75438000D03*
X93472000Y-75438000D03*
X96012000Y-72898000D03*
X93472000Y-72898000D03*
X96012000Y-70358000D03*
X93472000Y-70358000D03*
X96012000Y-67818000D03*
X93472000Y-67818000D03*
X96012000Y-65278000D03*
X93472000Y-65278000D03*
X96012000Y-62738000D03*
X93472000Y-62738000D03*
X96012000Y-60198000D03*
X93472000Y-60198000D03*
X96012000Y-57658000D03*
X93472000Y-57658000D03*
X96012000Y-55118000D03*
X93472000Y-55118000D03*
X96012000Y-52578000D03*
X93472000Y-52578000D03*
X96012000Y-50038000D03*
X93472000Y-50038000D03*
X96012000Y-47498000D03*
X93472000Y-47498000D03*
X96012000Y-44958000D03*
X93472000Y-44958000D03*
X96012000Y-42418000D03*
X93472000Y-42418000D03*
X96012000Y-39878000D03*
X93472000Y-39878000D03*
X96012000Y-37338000D03*
X93472000Y-37338000D03*
X96012000Y-34798000D03*
X93472000Y-34798000D03*
X96012000Y-32258000D03*
D12*
X93472000Y-32258000D03*
D11*
X25540000Y-100160000D03*
X23000000Y-100160000D03*
X25540000Y-97620000D03*
X23000000Y-97620000D03*
X25540000Y-95080000D03*
X23000000Y-95080000D03*
X25540000Y-92540000D03*
X23000000Y-92540000D03*
X25540000Y-90000000D03*
X23000000Y-90000000D03*
X25540000Y-87460000D03*
X23000000Y-87460000D03*
X25540000Y-84920000D03*
X23000000Y-84920000D03*
X25540000Y-82380000D03*
X23000000Y-82380000D03*
X25540000Y-79840000D03*
X23000000Y-79840000D03*
X25540000Y-77300000D03*
X23000000Y-77300000D03*
X25540000Y-74760000D03*
X23000000Y-74760000D03*
X25540000Y-72220000D03*
X23000000Y-72220000D03*
X25540000Y-69680000D03*
X23000000Y-69680000D03*
X25540000Y-67140000D03*
X23000000Y-67140000D03*
X25540000Y-64600000D03*
X23000000Y-64600000D03*
X25540000Y-62060000D03*
X23000000Y-62060000D03*
X25540000Y-59520000D03*
X23000000Y-59520000D03*
X25540000Y-56980000D03*
X23000000Y-56980000D03*
X25540000Y-54440000D03*
X23000000Y-54440000D03*
X25540000Y-51900000D03*
X23000000Y-51900000D03*
X25540000Y-49360000D03*
X23000000Y-49360000D03*
X25540000Y-46820000D03*
X23000000Y-46820000D03*
X25540000Y-44280000D03*
X23000000Y-44280000D03*
X25540000Y-41740000D03*
X23000000Y-41740000D03*
X25540000Y-39200000D03*
X23000000Y-39200000D03*
X25540000Y-36660000D03*
X23000000Y-36660000D03*
X25540000Y-34120000D03*
X23000000Y-34120000D03*
X25540000Y-31580000D03*
X23000000Y-31580000D03*
X25540000Y-29040000D03*
X23000000Y-29040000D03*
X25540000Y-26500000D03*
D12*
X23000000Y-26500000D03*
D20*
X38002400Y-89376300D03*
X29983700Y-84324100D03*
X77844500Y-59163100D03*
X71636850Y-58555850D03*
X81737200Y-43078400D03*
X62052200Y-51155600D03*
X36982400Y-110642400D03*
X41529000Y-110591600D03*
X46710600Y-110591600D03*
X30276800Y-98425000D03*
X37185600Y-99466400D03*
X47066200Y-100888800D03*
X77597000Y-110515400D03*
X68961000Y-103098600D03*
X74574400Y-89585800D03*
X61976000Y-89484200D03*
X34702300Y-61878100D03*
X29071200Y-60452200D03*
X33734600Y-62620100D03*
X31681500Y-63042400D03*
X86194000Y-95104300D03*
X54675100Y-68808700D03*
X38967300Y-47983200D03*
X39779700Y-46834200D03*
X41093400Y-46989000D03*
X64295400Y-94755800D03*
X48683600Y-52657100D03*
X99438800Y-41363700D03*
X99793400Y-44221000D03*
X85786400Y-59821900D03*
X99356200Y-42585200D03*
X87504200Y-58814500D03*
X98980500Y-40158800D03*
X98074700Y-52161800D03*
X83916800Y-48323700D03*
X84671500Y-50104200D03*
X87970700Y-47999800D03*
X90421700Y-45674300D03*
X58166300Y-88398800D03*
X55373300Y-70756200D03*
D21*
X104902000Y-61214000D02*
X104902000Y-62402900D01*
X85598000Y-78232000D02*
X84444400Y-77078400D01*
X84444400Y-77078400D02*
X84444400Y-75194500D01*
X84444400Y-75194500D02*
X85270100Y-74368800D01*
X85270100Y-74368800D02*
X89190900Y-74368800D01*
X89190900Y-74368800D02*
X89391700Y-74168000D01*
X89391700Y-74168000D02*
X96432700Y-74168000D01*
X96432700Y-74168000D02*
X103713100Y-66887600D01*
X103713100Y-66887600D02*
X103713100Y-63220200D01*
X103713100Y-63220200D02*
X104530400Y-62402900D01*
X104530400Y-62402900D02*
X104902000Y-62402900D01*
X104902000Y-66294000D02*
X104902000Y-67482900D01*
X66040000Y-46990000D02*
X67165300Y-46990000D01*
X67165300Y-46990000D02*
X67165300Y-46708700D01*
X67165300Y-46708700D02*
X73234000Y-40640000D01*
X73234000Y-40640000D02*
X75934500Y-40640000D01*
X75934500Y-40640000D02*
X85555500Y-31019000D01*
X85555500Y-31019000D02*
X96465400Y-31019000D01*
X96465400Y-31019000D02*
X109103400Y-43657000D01*
X109103400Y-43657000D02*
X109103400Y-74672700D01*
X109103400Y-74672700D02*
X108137400Y-75638700D01*
X108137400Y-75638700D02*
X104263100Y-75638700D01*
X104263100Y-75638700D02*
X103213800Y-74589400D01*
X103213800Y-74589400D02*
X103213800Y-68810800D01*
X103213800Y-68810800D02*
X104541700Y-67482900D01*
X104541700Y-67482900D02*
X104902000Y-67482900D01*
X67165300Y-49530000D02*
X67165300Y-49248700D01*
X67165300Y-49248700D02*
X73234000Y-43180000D01*
X73234000Y-43180000D02*
X76316400Y-43180000D01*
X76316400Y-43180000D02*
X85917300Y-33579100D01*
X85917300Y-33579100D02*
X96495700Y-33579100D01*
X96495700Y-33579100D02*
X108631800Y-45715200D01*
X108631800Y-45715200D02*
X108631800Y-74462000D01*
X108631800Y-74462000D02*
X107964700Y-75129100D01*
X107964700Y-75129100D02*
X104433200Y-75129100D01*
X104433200Y-75129100D02*
X103688600Y-74384500D01*
X103688600Y-74384500D02*
X103688600Y-70866800D01*
X103688600Y-70866800D02*
X104532500Y-70022900D01*
X104532500Y-70022900D02*
X104902000Y-70022900D01*
X104902000Y-68834000D02*
X104902000Y-70022900D01*
X66040000Y-49530000D02*
X67165300Y-49530000D01*
X43870000Y-100644000D02*
X42694700Y-100644000D01*
X25540000Y-100160000D02*
X26728900Y-100160000D01*
X26728900Y-100160000D02*
X30944800Y-104375900D01*
X30944800Y-104375900D02*
X39697400Y-104375900D01*
X39697400Y-104375900D02*
X42694700Y-101378600D01*
X42694700Y-101378600D02*
X42694700Y-100644000D01*
X23000000Y-97620000D02*
X23000000Y-96431100D01*
X23000000Y-96431100D02*
X23371600Y-96431100D01*
X23371600Y-96431100D02*
X24188900Y-95613800D01*
X24188900Y-95613800D02*
X24188900Y-92194200D01*
X24188900Y-92194200D02*
X25113100Y-91270000D01*
X25113100Y-91270000D02*
X25959000Y-91270000D01*
X25959000Y-91270000D02*
X30709100Y-86519900D01*
X30709100Y-86519900D02*
X30709100Y-74083500D01*
X30709100Y-74083500D02*
X40422000Y-64370600D01*
X40422000Y-64370600D02*
X40422000Y-58740000D01*
X25540000Y-93891100D02*
X25911500Y-93891100D01*
X25911500Y-93891100D02*
X32848400Y-86954200D01*
X32848400Y-86954200D02*
X32848400Y-72581100D01*
X32848400Y-72581100D02*
X42962000Y-62467500D01*
X42962000Y-62467500D02*
X42962000Y-58740000D01*
X25540000Y-95080000D02*
X25540000Y-93891100D01*
X44376700Y-58740000D02*
X44376700Y-58458600D01*
X44376700Y-58458600D02*
X43532800Y-57614700D01*
X43532800Y-57614700D02*
X39890000Y-57614700D01*
X39890000Y-57614700D02*
X39152000Y-58352700D01*
X39152000Y-58352700D02*
X39152000Y-64752700D01*
X39152000Y-64752700D02*
X29070200Y-74834500D01*
X29070200Y-74834500D02*
X29070200Y-83150000D01*
X29070200Y-83150000D02*
X26030200Y-86190000D01*
X26030200Y-86190000D02*
X25106700Y-86190000D01*
X25106700Y-86190000D02*
X24351000Y-86945700D01*
X24351000Y-86945700D02*
X24351000Y-90331400D01*
X24351000Y-90331400D02*
X23331300Y-91351100D01*
X23331300Y-91351100D02*
X22452600Y-91351100D01*
X22452600Y-91351100D02*
X21789900Y-92013800D01*
X21789900Y-92013800D02*
X21789900Y-93052500D01*
X21789900Y-93052500D02*
X22628500Y-93891100D01*
X22628500Y-93891100D02*
X23000000Y-93891100D01*
X45502000Y-58740000D02*
X44376700Y-58740000D01*
X23000000Y-95080000D02*
X23000000Y-93891100D01*
X37632000Y-80240000D02*
X37632000Y-81365300D01*
X38002400Y-89376300D02*
X38002400Y-81735700D01*
X38002400Y-81735700D02*
X37632000Y-81365300D01*
X25540000Y-90000000D02*
X25540000Y-88811100D01*
X25540000Y-88811100D02*
X25911500Y-88811100D01*
X25911500Y-88811100D02*
X29983700Y-84738900D01*
X29983700Y-84738900D02*
X29983700Y-84324100D01*
X107442000Y-53594000D02*
X107442000Y-52405100D01*
X96012000Y-37338000D02*
X97200900Y-37338000D01*
X97200900Y-37338000D02*
X106253100Y-46390200D01*
X106253100Y-46390200D02*
X106253100Y-51587800D01*
X106253100Y-51587800D02*
X107070400Y-52405100D01*
X107070400Y-52405100D02*
X107442000Y-52405100D01*
X62992000Y-67200700D02*
X71636850Y-58555850D01*
X71690300Y-58502400D02*
X71690300Y-58432300D01*
X105478300Y-72725100D02*
X104902000Y-72725100D01*
X107442000Y-57322900D02*
X107070400Y-57322900D01*
X107070400Y-57322900D02*
X106253100Y-58140200D01*
X106253100Y-58140200D02*
X106253100Y-71950300D01*
X106253100Y-71950300D02*
X105478300Y-72725100D01*
X106253100Y-73914000D02*
X106253100Y-73499900D01*
X106253100Y-73499900D02*
X105478300Y-72725100D01*
X107442000Y-73914000D02*
X106253100Y-73914000D01*
X107442000Y-56134000D02*
X107442000Y-57322900D01*
X107442000Y-53594000D02*
X107442000Y-56134000D01*
X104902000Y-73914000D02*
X104902000Y-72725100D01*
X77978000Y-64406700D02*
X77844500Y-64273200D01*
X77844500Y-64273200D02*
X77844500Y-59163100D01*
X77978000Y-65532000D02*
X77978000Y-64406700D01*
X93472000Y-37338000D02*
X92283100Y-37338000D01*
X92283100Y-37338000D02*
X92283100Y-37839500D01*
X92283100Y-37839500D02*
X71690300Y-58432300D01*
X62992000Y-68326000D02*
X62992000Y-67200700D01*
X71636850Y-58555850D02*
X71690300Y-58502400D01*
D22*
X35592000Y-30370300D02*
X36861900Y-31640200D01*
X36861900Y-31640200D02*
X36861900Y-46242800D01*
X36861900Y-46242800D02*
X36612100Y-46492600D01*
X36612100Y-46492600D02*
X36612100Y-56219600D01*
X36612100Y-56219600D02*
X35342000Y-57489700D01*
X35342000Y-59990300D02*
X35552600Y-60200900D01*
X35552600Y-60200900D02*
X35552600Y-67287400D01*
X35552600Y-67287400D02*
X25540000Y-77300000D01*
X36527700Y-102526600D02*
X37185000Y-103184000D01*
X37185000Y-103184000D02*
X39220000Y-103184000D01*
X35092000Y-81490300D02*
X35877500Y-82275800D01*
X35877500Y-82275800D02*
X35877500Y-101876500D01*
X35877500Y-101876500D02*
X36527700Y-102526600D01*
X36527700Y-102526600D02*
X35870300Y-103184000D01*
X34570000Y-103184000D02*
X35870300Y-103184000D01*
X25540000Y-77300000D02*
X25540000Y-78526100D01*
X25540000Y-79840000D02*
X25540000Y-78526100D01*
X35092000Y-80240000D02*
X35092000Y-81490300D01*
X35342000Y-58740000D02*
X35342000Y-59990300D01*
X35342000Y-58114800D02*
X35342000Y-58740000D01*
X35342000Y-58114800D02*
X35342000Y-57489700D01*
X35592000Y-29120000D02*
X35592000Y-30370300D01*
D21*
X23000000Y-76111100D02*
X23371600Y-76111100D01*
X23371600Y-76111100D02*
X24188900Y-75293800D01*
X24188900Y-75293800D02*
X24188900Y-69334200D01*
X24188900Y-69334200D02*
X25113100Y-68410000D01*
X25113100Y-68410000D02*
X27339700Y-68410000D01*
X27339700Y-68410000D02*
X33009200Y-62740500D01*
X33009200Y-62740500D02*
X33009200Y-54578100D01*
X33009200Y-54578100D02*
X35342000Y-52245300D01*
X34570000Y-98104000D02*
X34570000Y-96928700D01*
X35092000Y-72620000D02*
X35092000Y-73745300D01*
X35092000Y-73745300D02*
X33959300Y-74878000D01*
X33959300Y-74878000D02*
X33959300Y-96318000D01*
X33959300Y-96318000D02*
X34570000Y-96928700D01*
X52590000Y-109270000D02*
X52590000Y-108244700D01*
X43870000Y-98104000D02*
X43870000Y-99279300D01*
X43870000Y-99279300D02*
X44237400Y-99279300D01*
X44237400Y-99279300D02*
X51564700Y-106606600D01*
X51564700Y-106606600D02*
X51564700Y-107219400D01*
X51564700Y-107219400D02*
X52590000Y-108244700D01*
X76852700Y-83312000D02*
X75383200Y-84781500D01*
X75383200Y-84781500D02*
X70306700Y-84781500D01*
X70306700Y-84781500D02*
X67936700Y-87151500D01*
X67936700Y-87151500D02*
X67936700Y-87231300D01*
X35342000Y-51120000D02*
X35342000Y-52245300D01*
X23000000Y-77300000D02*
X23000000Y-76111100D01*
X104902000Y-51054000D02*
X104902000Y-53594000D01*
X66590000Y-108244700D02*
X67936700Y-106898000D01*
X67936700Y-106898000D02*
X67936700Y-87231300D01*
X67936700Y-87231300D02*
X62992000Y-87231300D01*
X77978000Y-83312000D02*
X76852700Y-83312000D01*
X62992000Y-86106000D02*
X62992000Y-87231300D01*
X66590000Y-109270000D02*
X66590000Y-108244700D01*
X35592000Y-36740000D02*
X35592000Y-37865300D01*
X35342000Y-51120000D02*
X35342000Y-38115300D01*
X35342000Y-38115300D02*
X35592000Y-37865300D01*
X25540000Y-73571100D02*
X25911500Y-73571100D01*
X25911500Y-73571100D02*
X34702300Y-64780300D01*
X34702300Y-64780300D02*
X34702300Y-61878100D01*
X25540000Y-74760000D02*
X25540000Y-73571100D01*
X23000000Y-74760000D02*
X23000000Y-73571100D01*
X23000000Y-73571100D02*
X22628500Y-73571100D01*
X22628500Y-73571100D02*
X21330100Y-72272700D01*
X21330100Y-72272700D02*
X21330100Y-67120500D01*
X21330100Y-67120500D02*
X22499500Y-65951100D01*
X22499500Y-65951100D02*
X23331300Y-65951100D01*
X23331300Y-65951100D02*
X24282100Y-65000300D01*
X24282100Y-65000300D02*
X24282100Y-64160800D01*
X24282100Y-64160800D02*
X25112900Y-63330000D01*
X25112900Y-63330000D02*
X26193400Y-63330000D01*
X26193400Y-63330000D02*
X29071200Y-60452200D01*
X25540000Y-71031100D02*
X25957700Y-71031100D01*
X25957700Y-71031100D02*
X33734600Y-63254200D01*
X33734600Y-63254200D02*
X33734600Y-62620100D01*
X25540000Y-72220000D02*
X25540000Y-71031100D01*
X23000000Y-71031100D02*
X22628500Y-71031100D01*
X22628500Y-71031100D02*
X21780500Y-70183100D01*
X21780500Y-70183100D02*
X21780500Y-69216800D01*
X21780500Y-69216800D02*
X22506200Y-68491100D01*
X22506200Y-68491100D02*
X23331300Y-68491100D01*
X23331300Y-68491100D02*
X24282600Y-67539800D01*
X24282600Y-67539800D02*
X24282600Y-66700500D01*
X24282600Y-66700500D02*
X25113100Y-65870000D01*
X25113100Y-65870000D02*
X28853900Y-65870000D01*
X28853900Y-65870000D02*
X31681500Y-63042400D01*
X23000000Y-72220000D02*
X23000000Y-71031100D01*
X92283100Y-93218000D02*
X90396800Y-95104300D01*
X90396800Y-95104300D02*
X86194000Y-95104300D01*
X93472000Y-93218000D02*
X92283100Y-93218000D01*
X54675100Y-68808700D02*
X56549000Y-70682600D01*
X56549000Y-70682600D02*
X56549000Y-85329400D01*
X56549000Y-85329400D02*
X56487200Y-85391200D01*
X56487200Y-85391200D02*
X56487200Y-93276500D01*
X56487200Y-93276500D02*
X64838200Y-101627500D01*
X64838200Y-101627500D02*
X64838200Y-109024300D01*
X64838200Y-109024300D02*
X66153700Y-110339800D01*
X66153700Y-110339800D02*
X66997700Y-110339800D01*
X66997700Y-110339800D02*
X70177400Y-107160100D01*
X70177400Y-107160100D02*
X70177400Y-103122100D01*
X70177400Y-103122100D02*
X73145300Y-100154200D01*
X73145300Y-100154200D02*
X77296600Y-100154200D01*
X77296600Y-100154200D02*
X89312800Y-88138000D01*
X89312800Y-88138000D02*
X93472000Y-88138000D01*
X48292000Y-36740000D02*
X48292000Y-37865300D01*
X38967300Y-47983200D02*
X38967300Y-46583000D01*
X38967300Y-46583000D02*
X47685000Y-37865300D01*
X47685000Y-37865300D02*
X48292000Y-37865300D01*
X50832000Y-36740000D02*
X49706700Y-36740000D01*
X39779700Y-46834200D02*
X40019200Y-46834200D01*
X40019200Y-46834200D02*
X49706700Y-37146700D01*
X49706700Y-37146700D02*
X49706700Y-36740000D01*
X53372000Y-36740000D02*
X52246700Y-36740000D01*
X25540000Y-46820000D02*
X25540000Y-45631100D01*
X25540000Y-45631100D02*
X25911600Y-45631100D01*
X25911600Y-45631100D02*
X26728900Y-44813800D01*
X26728900Y-44813800D02*
X26728900Y-36382600D01*
X26728900Y-36382600D02*
X35152500Y-27959000D01*
X35152500Y-27959000D02*
X36055400Y-27959000D01*
X36055400Y-27959000D02*
X36862000Y-28765600D01*
X36862000Y-28765600D02*
X36862000Y-29475100D01*
X36862000Y-29475100D02*
X43001600Y-35614700D01*
X43001600Y-35614700D02*
X51402800Y-35614700D01*
X51402800Y-35614700D02*
X52246700Y-36458600D01*
X52246700Y-36458600D02*
X52246700Y-36740000D01*
X54786700Y-36740000D02*
X54786700Y-37021300D01*
X54786700Y-37021300D02*
X44819000Y-46989000D01*
X44819000Y-46989000D02*
X41093400Y-46989000D01*
X55912000Y-36740000D02*
X54786700Y-36740000D01*
X24351100Y-44280000D02*
X24351100Y-43908500D01*
X24351100Y-43908500D02*
X23522000Y-43079400D01*
X23522000Y-43079400D02*
X22519100Y-43079400D01*
X22519100Y-43079400D02*
X20391100Y-45207400D01*
X20391100Y-45207400D02*
X20391100Y-99931900D01*
X20391100Y-99931900D02*
X32600200Y-112141000D01*
X32600200Y-112141000D02*
X79725000Y-112141000D01*
X79725000Y-112141000D02*
X96012000Y-95854000D01*
X96012000Y-95854000D02*
X96012000Y-93218000D01*
X25540000Y-44280000D02*
X24351100Y-44280000D01*
X23000000Y-45468900D02*
X22628500Y-45468900D01*
X22628500Y-45468900D02*
X20841500Y-47255900D01*
X20841500Y-47255900D02*
X20841500Y-99739200D01*
X20841500Y-99739200D02*
X32793000Y-111690700D01*
X32793000Y-111690700D02*
X67557500Y-111690700D01*
X67557500Y-111690700D02*
X71248200Y-108000000D01*
X71248200Y-108000000D02*
X81279300Y-108000000D01*
X81279300Y-108000000D02*
X94823100Y-94456200D01*
X94823100Y-94456200D02*
X94823100Y-92684200D01*
X94823100Y-92684200D02*
X95640400Y-91866900D01*
X95640400Y-91866900D02*
X96012000Y-91866900D01*
X96012000Y-90678000D02*
X96012000Y-91866900D01*
X23000000Y-44280000D02*
X23000000Y-45468900D01*
X48683600Y-52657100D02*
X54392000Y-58365500D01*
X54392000Y-58365500D02*
X54392000Y-65136300D01*
X54392000Y-65136300D02*
X57504300Y-68248600D01*
X57504300Y-68248600D02*
X57504300Y-88035000D01*
X57504300Y-88035000D02*
X57440900Y-88098400D01*
X57440900Y-88098400D02*
X57440900Y-88732800D01*
X57440900Y-88732800D02*
X63463900Y-94755800D01*
X63463900Y-94755800D02*
X64295400Y-94755800D01*
X97200900Y-80518000D02*
X103945300Y-80518000D01*
X103945300Y-80518000D02*
X109575000Y-74888300D01*
X109575000Y-74888300D02*
X109575000Y-43491700D01*
X109575000Y-43491700D02*
X94129900Y-28046600D01*
X94129900Y-28046600D02*
X71493900Y-28046600D01*
X71493900Y-28046600D02*
X69060500Y-30480000D01*
X69060500Y-30480000D02*
X64452400Y-30480000D01*
X64452400Y-30480000D02*
X63684900Y-31247500D01*
X63684900Y-31247500D02*
X41136500Y-31247500D01*
X41136500Y-31247500D02*
X39402000Y-29513000D01*
X39402000Y-29513000D02*
X39402000Y-28780400D01*
X39402000Y-28780400D02*
X38130300Y-27508700D01*
X38130300Y-27508700D02*
X34618200Y-27508700D01*
X34618200Y-27508700D02*
X26817900Y-35309000D01*
X26817900Y-35309000D02*
X22560400Y-35309000D01*
X22560400Y-35309000D02*
X21797000Y-36072400D01*
X21797000Y-36072400D02*
X21797000Y-37179600D01*
X21797000Y-37179600D02*
X22628500Y-38011100D01*
X22628500Y-38011100D02*
X23000000Y-38011100D01*
X96012000Y-80518000D02*
X97200900Y-80518000D01*
X23000000Y-39200000D02*
X23000000Y-38011100D01*
X25540000Y-37848900D02*
X25168400Y-37848900D01*
X25168400Y-37848900D02*
X24351100Y-38666200D01*
X24351100Y-38666200D02*
X24351100Y-39552200D01*
X24351100Y-39552200D02*
X23433300Y-40470000D01*
X23433300Y-40470000D02*
X22531200Y-40470000D01*
X22531200Y-40470000D02*
X19903700Y-43097500D01*
X19903700Y-43097500D02*
X19903700Y-100164100D01*
X19903700Y-100164100D02*
X32330900Y-112591300D01*
X32330900Y-112591300D02*
X79911600Y-112591300D01*
X79911600Y-112591300D02*
X97201000Y-95301900D01*
X97201000Y-95301900D02*
X97201000Y-87644600D01*
X97201000Y-87644600D02*
X96343400Y-86787000D01*
X96343400Y-86787000D02*
X95442600Y-86787000D01*
X95442600Y-86787000D02*
X94795700Y-86140100D01*
X94795700Y-86140100D02*
X94795700Y-80013700D01*
X94795700Y-80013700D02*
X95642500Y-79166900D01*
X95642500Y-79166900D02*
X96012000Y-79166900D01*
X96012000Y-77978000D02*
X96012000Y-79166900D01*
X25540000Y-36660000D02*
X25540000Y-37848900D01*
X96012000Y-71709100D02*
X96383500Y-71709100D01*
X96383500Y-71709100D02*
X100518700Y-67573900D01*
X100518700Y-67573900D02*
X100518700Y-42443600D01*
X100518700Y-42443600D02*
X99438800Y-41363700D01*
X96012000Y-72898000D02*
X96012000Y-71709100D01*
X96012000Y-69169100D02*
X96383600Y-69169100D01*
X96383600Y-69169100D02*
X99793400Y-65759300D01*
X99793400Y-65759300D02*
X99793400Y-44221000D01*
X96012000Y-70358000D02*
X96012000Y-69169100D01*
X85786400Y-59821900D02*
X92593600Y-66629100D01*
X92593600Y-66629100D02*
X94005800Y-66629100D01*
X94005800Y-66629100D02*
X94823100Y-67446400D01*
X94823100Y-67446400D02*
X94823100Y-67818000D01*
X96012000Y-67818000D02*
X94823100Y-67818000D01*
X96012000Y-64089100D02*
X96383500Y-64089100D01*
X96383500Y-64089100D02*
X99250300Y-61222300D01*
X99250300Y-61222300D02*
X99250300Y-51674700D01*
X99250300Y-51674700D02*
X99068100Y-51492500D01*
X99068100Y-51492500D02*
X99068100Y-42873300D01*
X99068100Y-42873300D02*
X99356200Y-42585200D01*
X96012000Y-65278000D02*
X96012000Y-64089100D01*
X94823100Y-62738000D02*
X94823100Y-62366400D01*
X94823100Y-62366400D02*
X94005800Y-61549100D01*
X94005800Y-61549100D02*
X90238800Y-61549100D01*
X90238800Y-61549100D02*
X87504200Y-58814500D01*
X96012000Y-62738000D02*
X94823100Y-62738000D01*
X96012000Y-59009100D02*
X96383500Y-59009100D01*
X96383500Y-59009100D02*
X98800000Y-56592600D01*
X98800000Y-56592600D02*
X98800000Y-51861300D01*
X98800000Y-51861300D02*
X98588600Y-51649900D01*
X98588600Y-51649900D02*
X98588600Y-40550700D01*
X98588600Y-40550700D02*
X98980500Y-40158800D01*
X96012000Y-60198000D02*
X96012000Y-59009100D01*
X96012000Y-57658000D02*
X96012000Y-56469100D01*
X98074700Y-52161800D02*
X98074700Y-54777900D01*
X98074700Y-54777900D02*
X96383500Y-56469100D01*
X96383500Y-56469100D02*
X96012000Y-56469100D01*
X62992000Y-73406000D02*
X62992000Y-72280700D01*
X83916800Y-48323700D02*
X64117300Y-68123200D01*
X64117300Y-68123200D02*
X64117300Y-71436800D01*
X64117300Y-71436800D02*
X63273400Y-72280700D01*
X63273400Y-72280700D02*
X62992000Y-72280700D01*
X84671500Y-50104200D02*
X69486600Y-65289100D01*
X69486600Y-65289100D02*
X69486600Y-71991400D01*
X69486600Y-71991400D02*
X62992000Y-78486000D01*
X96012000Y-47498000D02*
X97237300Y-46272700D01*
X97237300Y-46272700D02*
X97237300Y-44410800D01*
X97237300Y-44410800D02*
X96433500Y-43607000D01*
X96433500Y-43607000D02*
X95482000Y-43607000D01*
X95482000Y-43607000D02*
X94661000Y-42786000D01*
X94661000Y-42786000D02*
X94661000Y-39363700D01*
X94661000Y-39363700D02*
X93905300Y-38608000D01*
X93905300Y-38608000D02*
X93043400Y-38608000D01*
X93043400Y-38608000D02*
X84889600Y-46761800D01*
X84889600Y-46761800D02*
X84889600Y-48395100D01*
X84889600Y-48395100D02*
X64615900Y-68668800D01*
X64615900Y-68668800D02*
X64615900Y-75919800D01*
X64615900Y-75919800D02*
X63319700Y-77216000D01*
X63319700Y-77216000D02*
X62642400Y-77216000D01*
X62642400Y-77216000D02*
X61866700Y-77991700D01*
X61866700Y-77991700D02*
X61866700Y-81596800D01*
X61866700Y-81596800D02*
X62710600Y-82440700D01*
X62710600Y-82440700D02*
X62992000Y-82440700D01*
X62992000Y-83566000D02*
X62992000Y-82440700D01*
X70612000Y-73406000D02*
X70612000Y-72280700D01*
X87970700Y-47999800D02*
X71737300Y-64233200D01*
X71737300Y-64233200D02*
X71737300Y-71436800D01*
X71737300Y-71436800D02*
X70893400Y-72280700D01*
X70893400Y-72280700D02*
X70612000Y-72280700D01*
X96012000Y-44958000D02*
X96012000Y-46146900D01*
X96012000Y-46146900D02*
X95640400Y-46146900D01*
X95640400Y-46146900D02*
X94823100Y-46964200D01*
X94823100Y-46964200D02*
X94823100Y-47850200D01*
X94823100Y-47850200D02*
X93905300Y-48768000D01*
X93905300Y-48768000D02*
X93044000Y-48768000D01*
X93044000Y-48768000D02*
X83543600Y-58268400D01*
X83543600Y-58268400D02*
X83543600Y-79405300D01*
X83543600Y-79405300D02*
X76842900Y-86106000D01*
X76842900Y-86106000D02*
X70612000Y-86106000D01*
X93472000Y-46146900D02*
X93113200Y-46146900D01*
X93113200Y-46146900D02*
X91610900Y-47649200D01*
X91610900Y-47649200D02*
X91610900Y-48153000D01*
X91610900Y-48153000D02*
X81632900Y-58131000D01*
X81632900Y-58131000D02*
X81632900Y-78784500D01*
X81632900Y-78784500D02*
X78502500Y-81914900D01*
X78502500Y-81914900D02*
X72626200Y-81914900D01*
X72626200Y-81914900D02*
X71737300Y-81026000D01*
X70612000Y-81026000D02*
X71737300Y-81026000D01*
X93472000Y-44958000D02*
X93472000Y-46146900D01*
X77978000Y-75692000D02*
X77978000Y-74566700D01*
X90421700Y-45674300D02*
X90421700Y-47351400D01*
X90421700Y-47351400D02*
X79913300Y-57859800D01*
X79913300Y-57859800D02*
X79913300Y-72912700D01*
X79913300Y-72912700D02*
X78259300Y-74566700D01*
X78259300Y-74566700D02*
X77978000Y-74566700D01*
X93472000Y-43606900D02*
X93100500Y-43606900D01*
X93100500Y-43606900D02*
X91147000Y-45560400D01*
X91147000Y-45560400D02*
X91147000Y-47980000D01*
X91147000Y-47980000D02*
X80918900Y-58208100D01*
X80918900Y-58208100D02*
X80918900Y-76910100D01*
X80918900Y-76910100D02*
X78182300Y-79646700D01*
X78182300Y-79646700D02*
X77978000Y-79646700D01*
X77978000Y-80772000D02*
X77978000Y-79646700D01*
X93472000Y-42418000D02*
X93472000Y-43606900D01*
X85598000Y-82186700D02*
X85316700Y-82186700D01*
X85316700Y-82186700D02*
X83994000Y-80864000D01*
X83994000Y-80864000D02*
X83994000Y-60373200D01*
X83994000Y-60373200D02*
X93059200Y-51308000D01*
X93059200Y-51308000D02*
X96430100Y-51308000D01*
X96430100Y-51308000D02*
X97731900Y-50006200D01*
X97731900Y-50006200D02*
X97731900Y-42415300D01*
X97731900Y-42415300D02*
X96383500Y-41066900D01*
X96383500Y-41066900D02*
X96012000Y-41066900D01*
X85598000Y-83312000D02*
X85598000Y-82186700D01*
X96012000Y-39878000D02*
X96012000Y-41066900D01*
X93472000Y-41066900D02*
X93100500Y-41066900D01*
X93100500Y-41066900D02*
X88744000Y-45423400D01*
X88744000Y-45423400D02*
X88744000Y-48392200D01*
X88744000Y-48392200D02*
X79103300Y-58032900D01*
X79103300Y-58032900D02*
X79103300Y-68642800D01*
X79103300Y-68642800D02*
X78259400Y-69486700D01*
X78259400Y-69486700D02*
X77978000Y-69486700D01*
X77978000Y-70612000D02*
X77978000Y-69486700D01*
X93472000Y-39878000D02*
X93472000Y-41066900D01*
X66040000Y-26670000D02*
X64914700Y-26670000D01*
X48292000Y-29120000D02*
X49417300Y-29120000D01*
X49417300Y-29120000D02*
X49417300Y-29401300D01*
X49417300Y-29401300D02*
X50760700Y-30744700D01*
X50760700Y-30744700D02*
X60840000Y-30744700D01*
X60840000Y-30744700D02*
X64914700Y-26670000D01*
X53372000Y-29120000D02*
X54497300Y-29120000D01*
X54497300Y-29120000D02*
X54497300Y-29768900D01*
X54497300Y-29768900D02*
X54973800Y-30245400D01*
X54973800Y-30245400D02*
X57384600Y-30245400D01*
X57384600Y-30245400D02*
X66040000Y-21590000D01*
X66040000Y-19050000D02*
X66040000Y-20175300D01*
X55912000Y-29120000D02*
X57037300Y-29120000D01*
X57037300Y-29120000D02*
X57037300Y-28986600D01*
X57037300Y-28986600D02*
X65848600Y-20175300D01*
X65848600Y-20175300D02*
X66040000Y-20175300D01*
X73660000Y-29210000D02*
X72534700Y-29210000D01*
X48042000Y-51120000D02*
X49167300Y-51120000D01*
X49167300Y-51120000D02*
X49167300Y-50838700D01*
X49167300Y-50838700D02*
X64446000Y-35560000D01*
X64446000Y-35560000D02*
X66466000Y-35560000D01*
X66466000Y-35560000D02*
X72534700Y-29491300D01*
X72534700Y-29491300D02*
X72534700Y-29210000D01*
X73660000Y-31750000D02*
X72534700Y-31750000D01*
X50582000Y-51120000D02*
X51707300Y-51120000D01*
X51707300Y-51120000D02*
X51707300Y-50838700D01*
X51707300Y-50838700D02*
X64446000Y-38100000D01*
X64446000Y-38100000D02*
X66466000Y-38100000D01*
X66466000Y-38100000D02*
X72534700Y-32031300D01*
X72534700Y-32031300D02*
X72534700Y-31750000D01*
X73660000Y-34290000D02*
X72534700Y-34290000D01*
X53122000Y-51120000D02*
X54247300Y-51120000D01*
X54247300Y-51120000D02*
X54247300Y-50416700D01*
X54247300Y-50416700D02*
X64024000Y-40640000D01*
X64024000Y-40640000D02*
X66466000Y-40640000D01*
X66466000Y-40640000D02*
X72534700Y-34571300D01*
X72534700Y-34571300D02*
X72534700Y-34290000D01*
X73660000Y-36830000D02*
X72534700Y-36830000D01*
X55662000Y-51120000D02*
X56787300Y-51120000D01*
X56787300Y-51120000D02*
X64623600Y-43283700D01*
X64623600Y-43283700D02*
X66306900Y-43283700D01*
X66306900Y-43283700D02*
X72534700Y-37055900D01*
X72534700Y-37055900D02*
X72534700Y-36830000D01*
X52590000Y-101980000D02*
X52590000Y-106730000D01*
X40172000Y-73745300D02*
X41297300Y-74870600D01*
X41297300Y-74870600D02*
X41297300Y-90687300D01*
X41297300Y-90687300D02*
X52590000Y-101980000D01*
X40172000Y-72620000D02*
X40172000Y-73745300D01*
X37632000Y-72620000D02*
X38757300Y-72620000D01*
X38757300Y-72620000D02*
X38757300Y-72338700D01*
X38757300Y-72338700D02*
X39638100Y-71457900D01*
X39638100Y-71457900D02*
X40612400Y-71457900D01*
X40612400Y-71457900D02*
X41317300Y-72162800D01*
X41317300Y-72162800D02*
X41317300Y-73314900D01*
X41317300Y-73314900D02*
X43982000Y-75979600D01*
X43982000Y-75979600D02*
X43982000Y-83284600D01*
X43982000Y-83284600D02*
X59840000Y-99142600D01*
X59840000Y-99142600D02*
X59840000Y-101980000D01*
X59840000Y-101980000D02*
X59840000Y-106730000D01*
X45502000Y-52245300D02*
X45783300Y-52245300D01*
X45783300Y-52245300D02*
X51852000Y-58314000D01*
X51852000Y-58314000D02*
X51852000Y-63870000D01*
X51852000Y-63870000D02*
X57002300Y-69020300D01*
X57002300Y-69020300D02*
X57002300Y-87738200D01*
X57002300Y-87738200D02*
X56943100Y-87797400D01*
X56943100Y-87797400D02*
X56943100Y-89256000D01*
X56943100Y-89256000D02*
X66590000Y-98902900D01*
X66590000Y-98902900D02*
X66590000Y-101980000D01*
X45502000Y-51120000D02*
X45502000Y-52245300D01*
X66590000Y-106730000D02*
X66590000Y-101980000D01*
X73840000Y-106730000D02*
X71881300Y-106730000D01*
X71881300Y-106730000D02*
X67370900Y-111240400D01*
X67370900Y-111240400D02*
X65780500Y-111240400D01*
X65780500Y-111240400D02*
X63712600Y-109172500D01*
X63712600Y-109172500D02*
X63712600Y-102116100D01*
X63712600Y-102116100D02*
X49062000Y-87465500D01*
X49062000Y-87465500D02*
X49062000Y-71121700D01*
X49062000Y-71121700D02*
X46772000Y-68831700D01*
X46772000Y-68831700D02*
X46772000Y-56055300D01*
X46772000Y-56055300D02*
X42962000Y-52245300D01*
X42962000Y-51120000D02*
X42962000Y-52245300D01*
X73840000Y-101980000D02*
X73840000Y-106730000D01*
X40422000Y-51120000D02*
X41547300Y-51120000D01*
X41547300Y-51120000D02*
X41547300Y-50838700D01*
X41547300Y-50838700D02*
X42427600Y-49958400D01*
X42427600Y-49958400D02*
X43461000Y-49958400D01*
X43461000Y-49958400D02*
X44305900Y-50803300D01*
X44305900Y-50803300D02*
X44305900Y-52194100D01*
X44305900Y-52194100D02*
X49174100Y-57062300D01*
X49174100Y-57062300D02*
X49174100Y-68494600D01*
X49174100Y-68494600D02*
X51457400Y-70777900D01*
X51457400Y-70777900D02*
X51457400Y-88960400D01*
X51457400Y-88960400D02*
X64162900Y-101665900D01*
X64162900Y-101665900D02*
X64162900Y-108985900D01*
X64162900Y-108985900D02*
X65967100Y-110790100D01*
X65967100Y-110790100D02*
X67184300Y-110790100D01*
X67184300Y-110790100D02*
X70796300Y-107178100D01*
X70796300Y-107178100D02*
X70796300Y-103140100D01*
X70796300Y-103140100D02*
X73281800Y-100654600D01*
X73281800Y-100654600D02*
X79764600Y-100654600D01*
X79764600Y-100654600D02*
X81090000Y-101980000D01*
X81090000Y-101980000D02*
X81090000Y-106730000D01*
X58166300Y-88398800D02*
X61729100Y-84836000D01*
X61729100Y-84836000D02*
X63319400Y-84836000D01*
X63319400Y-84836000D02*
X69113700Y-79041700D01*
X69113700Y-79041700D02*
X69113700Y-78327600D01*
X69113700Y-78327600D02*
X70225300Y-77216000D01*
X70225300Y-77216000D02*
X70981300Y-77216000D01*
X70981300Y-77216000D02*
X75800200Y-72397100D01*
X75800200Y-72397100D02*
X75800200Y-70249800D01*
X75800200Y-70249800D02*
X77978000Y-68072000D01*
X85598000Y-75692000D02*
X85598000Y-76817300D01*
X81090000Y-94480000D02*
X86723300Y-88846700D01*
X86723300Y-88846700D02*
X86723300Y-77661200D01*
X86723300Y-77661200D02*
X85879400Y-76817300D01*
X85879400Y-76817300D02*
X85598000Y-76817300D01*
X55412000Y-71494700D02*
X55412000Y-70794900D01*
X55412000Y-70794900D02*
X55373300Y-70756200D01*
X55412000Y-72620000D02*
X55412000Y-71494700D01*
D23*
G36*
X72547278Y-108936670D02*
G01*
X72669799Y-109143000D01*
X73713000Y-109143000D01*
X73713000Y-109123000D01*
X73967000Y-109123000D01*
X73967000Y-109143000D01*
X75010201Y-109143000D01*
X75132722Y-108936670D01*
X75068126Y-108760000D01*
X79861874Y-108760000D01*
X79797278Y-108936670D01*
X79919799Y-109143000D01*
X80963000Y-109143000D01*
X80963000Y-109123000D01*
X81217000Y-109123000D01*
X81217000Y-109143000D01*
X81237000Y-109143000D01*
X81237000Y-109397000D01*
X81217000Y-109397000D01*
X81217000Y-109417000D01*
X80963000Y-109417000D01*
X80963000Y-109397000D01*
X79919799Y-109397000D01*
X79797278Y-109603330D01*
X79887147Y-109849123D01*
X80023241Y-110072660D01*
X80200330Y-110265351D01*
X80388384Y-110402815D01*
X79410199Y-111381000D01*
X68942001Y-111381000D01*
X70719671Y-109603330D01*
X72547278Y-109603330D01*
X72637147Y-109849123D01*
X72773241Y-110072660D01*
X72950330Y-110265351D01*
X73161608Y-110419792D01*
X73398956Y-110530047D01*
X73506671Y-110562716D01*
X73713000Y-110439374D01*
X73713000Y-109397000D01*
X73967000Y-109397000D01*
X73967000Y-110439374D01*
X74173329Y-110562716D01*
X74281044Y-110530047D01*
X74518392Y-110419792D01*
X74729670Y-110265351D01*
X74906759Y-110072660D01*
X75042853Y-109849123D01*
X75132722Y-109603330D01*
X75010201Y-109397000D01*
X73967000Y-109397000D01*
X73713000Y-109397000D01*
X72669799Y-109397000D01*
X72547278Y-109603330D01*
X70719671Y-109603330D01*
X71563002Y-108760000D01*
X72611874Y-108760000D01*
X72547278Y-108936670D01*
G37*
X72547278Y-108936670D02*
X72669799Y-109143000D01*
X73713000Y-109143000D01*
X73713000Y-109123000D01*
X73967000Y-109123000D01*
X73967000Y-109143000D01*
X75010201Y-109143000D01*
X75132722Y-108936670D01*
X75068126Y-108760000D01*
X79861874Y-108760000D01*
X79797278Y-108936670D01*
X79919799Y-109143000D01*
X80963000Y-109143000D01*
X80963000Y-109123000D01*
X81217000Y-109123000D01*
X81217000Y-109143000D01*
X81237000Y-109143000D01*
X81237000Y-109397000D01*
X81217000Y-109397000D01*
X81217000Y-109417000D01*
X80963000Y-109417000D01*
X80963000Y-109397000D01*
X79919799Y-109397000D01*
X79797278Y-109603330D01*
X79887147Y-109849123D01*
X80023241Y-110072660D01*
X80200330Y-110265351D01*
X80388384Y-110402815D01*
X79410199Y-111381000D01*
X68942001Y-111381000D01*
X70719671Y-109603330D01*
X72547278Y-109603330D01*
X72637147Y-109849123D01*
X72773241Y-110072660D01*
X72950330Y-110265351D01*
X73161608Y-110419792D01*
X73398956Y-110530047D01*
X73506671Y-110562716D01*
X73713000Y-110439374D01*
X73713000Y-109397000D01*
X73967000Y-109397000D01*
X73967000Y-110439374D01*
X74173329Y-110562716D01*
X74281044Y-110530047D01*
X74518392Y-110419792D01*
X74729670Y-110265351D01*
X74906759Y-110072660D01*
X75042853Y-109849123D01*
X75132722Y-109603330D01*
X75010201Y-109397000D01*
X73967000Y-109397000D01*
X73713000Y-109397000D01*
X72669799Y-109397000D01*
X72547278Y-109603330D01*
X70719671Y-109603330D01*
X71563002Y-108760000D01*
X72611874Y-108760000D01*
X72547278Y-108936670D01*
G36*
X39057363Y-81154759D02*
G01*
X39257241Y-81354637D01*
X39492273Y-81511680D01*
X39753426Y-81619853D01*
X40030665Y-81675000D01*
X40313335Y-81675000D01*
X40537300Y-81630450D01*
X40537301Y-90649967D01*
X40533624Y-90687300D01*
X40537301Y-90724633D01*
X40548298Y-90836286D01*
X40550154Y-90842403D01*
X40591754Y-90979546D01*
X40662326Y-91111576D01*
X40705382Y-91164039D01*
X40757300Y-91227301D01*
X40786298Y-91251099D01*
X51023823Y-101488625D01*
X51017832Y-101503088D01*
X50955000Y-101818967D01*
X50955000Y-102141033D01*
X51017832Y-102456912D01*
X51141082Y-102754463D01*
X51320013Y-103022252D01*
X51547748Y-103249987D01*
X51815537Y-103428918D01*
X51830000Y-103434909D01*
X51830001Y-105632225D01*
X51738987Y-105693038D01*
X51553038Y-105878987D01*
X51406939Y-106097641D01*
X51306304Y-106340595D01*
X51255000Y-106598514D01*
X51255000Y-106861486D01*
X51306304Y-107119405D01*
X51406939Y-107362359D01*
X51553038Y-107581013D01*
X51738987Y-107766962D01*
X51957641Y-107913061D01*
X52173550Y-108002494D01*
X52148956Y-108009953D01*
X51911608Y-108120208D01*
X51700330Y-108274649D01*
X51523241Y-108467340D01*
X51387147Y-108690877D01*
X51297278Y-108936670D01*
X51419799Y-109143000D01*
X52463000Y-109143000D01*
X52463000Y-109123000D01*
X52717000Y-109123000D01*
X52717000Y-109143000D01*
X53760201Y-109143000D01*
X53882722Y-108936670D01*
X53792853Y-108690877D01*
X53656759Y-108467340D01*
X53479670Y-108274649D01*
X53268392Y-108120208D01*
X53031044Y-108009953D01*
X53006450Y-108002494D01*
X53222359Y-107913061D01*
X53441013Y-107766962D01*
X53626962Y-107581013D01*
X53773061Y-107362359D01*
X53873696Y-107119405D01*
X53925000Y-106861486D01*
X53925000Y-106598514D01*
X53873696Y-106340595D01*
X53773061Y-106097641D01*
X53626962Y-105878987D01*
X53441013Y-105693038D01*
X53350000Y-105632225D01*
X53350000Y-103434909D01*
X53364463Y-103428918D01*
X53632252Y-103249987D01*
X53859987Y-103022252D01*
X54038918Y-102754463D01*
X54162168Y-102456912D01*
X54225000Y-102141033D01*
X54225000Y-101818967D01*
X54162168Y-101503088D01*
X54038918Y-101205537D01*
X53859987Y-100937748D01*
X53632252Y-100710013D01*
X53364463Y-100531082D01*
X53066912Y-100407832D01*
X52751033Y-100345000D01*
X52428967Y-100345000D01*
X52113088Y-100407832D01*
X52098625Y-100413823D01*
X42057300Y-90372499D01*
X42057300Y-81522047D01*
X42293426Y-81619853D01*
X42570665Y-81675000D01*
X42853335Y-81675000D01*
X43130574Y-81619853D01*
X43222001Y-81581983D01*
X43222001Y-83247268D01*
X43218324Y-83284600D01*
X43222001Y-83321933D01*
X43232998Y-83433586D01*
X43235625Y-83442247D01*
X43276454Y-83576846D01*
X43347026Y-83708876D01*
X43395428Y-83767853D01*
X43442000Y-83824601D01*
X43470998Y-83848399D01*
X52467598Y-92845000D01*
X52428967Y-92845000D01*
X52113088Y-92907832D01*
X51815537Y-93031082D01*
X51547748Y-93210013D01*
X51320013Y-93437748D01*
X51141082Y-93705537D01*
X51017832Y-94003088D01*
X50955000Y-94318967D01*
X50955000Y-94641033D01*
X51017832Y-94956912D01*
X51141082Y-95254463D01*
X51320013Y-95522252D01*
X51547748Y-95749987D01*
X51815537Y-95928918D01*
X52113088Y-96052168D01*
X52428967Y-96115000D01*
X52751033Y-96115000D01*
X53066912Y-96052168D01*
X53364463Y-95928918D01*
X53632252Y-95749987D01*
X53859987Y-95522252D01*
X54038918Y-95254463D01*
X54162168Y-94956912D01*
X54225000Y-94641033D01*
X54225000Y-94602402D01*
X59080000Y-99457402D01*
X59080000Y-100525091D01*
X59065537Y-100531082D01*
X58797748Y-100710013D01*
X58570013Y-100937748D01*
X58391082Y-101205537D01*
X58267832Y-101503088D01*
X58205000Y-101818967D01*
X58205000Y-102141033D01*
X58267832Y-102456912D01*
X58391082Y-102754463D01*
X58570013Y-103022252D01*
X58797748Y-103249987D01*
X59065537Y-103428918D01*
X59080000Y-103434909D01*
X59080001Y-105632225D01*
X58988987Y-105693038D01*
X58803038Y-105878987D01*
X58656939Y-106097641D01*
X58556304Y-106340595D01*
X58505000Y-106598514D01*
X58505000Y-106861486D01*
X58556304Y-107119405D01*
X58656939Y-107362359D01*
X58803038Y-107581013D01*
X58988987Y-107766962D01*
X59207641Y-107913061D01*
X59423550Y-108002494D01*
X59398956Y-108009953D01*
X59161608Y-108120208D01*
X58950330Y-108274649D01*
X58773241Y-108467340D01*
X58637147Y-108690877D01*
X58547278Y-108936670D01*
X58669799Y-109143000D01*
X59713000Y-109143000D01*
X59713000Y-109123000D01*
X59967000Y-109123000D01*
X59967000Y-109143000D01*
X61010201Y-109143000D01*
X61132722Y-108936670D01*
X61042853Y-108690877D01*
X60906759Y-108467340D01*
X60729670Y-108274649D01*
X60518392Y-108120208D01*
X60281044Y-108009953D01*
X60256450Y-108002494D01*
X60472359Y-107913061D01*
X60691013Y-107766962D01*
X60876962Y-107581013D01*
X61023061Y-107362359D01*
X61123696Y-107119405D01*
X61175000Y-106861486D01*
X61175000Y-106598514D01*
X61123696Y-106340595D01*
X61023061Y-106097641D01*
X60876962Y-105878987D01*
X60691013Y-105693038D01*
X60600000Y-105632225D01*
X60600000Y-103434909D01*
X60614463Y-103428918D01*
X60882252Y-103249987D01*
X61109987Y-103022252D01*
X61288918Y-102754463D01*
X61412168Y-102456912D01*
X61475000Y-102141033D01*
X61475000Y-101818967D01*
X61412168Y-101503088D01*
X61288918Y-101205537D01*
X61109987Y-100937748D01*
X60882252Y-100710013D01*
X60614463Y-100531082D01*
X60600000Y-100525091D01*
X60600000Y-100078302D01*
X62952601Y-102430903D01*
X62952600Y-109135177D01*
X62948924Y-109172500D01*
X62952600Y-109209822D01*
X62952600Y-109209832D01*
X62963597Y-109321485D01*
X62986504Y-109397000D01*
X63007054Y-109464746D01*
X63077626Y-109596776D01*
X63083005Y-109603330D01*
X63172599Y-109712501D01*
X63201603Y-109736304D01*
X64395998Y-110930700D01*
X33107803Y-110930700D01*
X31780433Y-109603330D01*
X51297278Y-109603330D01*
X51387147Y-109849123D01*
X51523241Y-110072660D01*
X51700330Y-110265351D01*
X51911608Y-110419792D01*
X52148956Y-110530047D01*
X52256671Y-110562716D01*
X52463000Y-110439374D01*
X52463000Y-109397000D01*
X52717000Y-109397000D01*
X52717000Y-110439374D01*
X52923329Y-110562716D01*
X53031044Y-110530047D01*
X53268392Y-110419792D01*
X53479670Y-110265351D01*
X53656759Y-110072660D01*
X53792853Y-109849123D01*
X53882722Y-109603330D01*
X58547278Y-109603330D01*
X58637147Y-109849123D01*
X58773241Y-110072660D01*
X58950330Y-110265351D01*
X59161608Y-110419792D01*
X59398956Y-110530047D01*
X59506671Y-110562716D01*
X59713000Y-110439374D01*
X59713000Y-109397000D01*
X59967000Y-109397000D01*
X59967000Y-110439374D01*
X60173329Y-110562716D01*
X60281044Y-110530047D01*
X60518392Y-110419792D01*
X60729670Y-110265351D01*
X60906759Y-110072660D01*
X61042853Y-109849123D01*
X61132722Y-109603330D01*
X61010201Y-109397000D01*
X59967000Y-109397000D01*
X59713000Y-109397000D01*
X58669799Y-109397000D01*
X58547278Y-109603330D01*
X53882722Y-109603330D01*
X53760201Y-109397000D01*
X52717000Y-109397000D01*
X52463000Y-109397000D01*
X51419799Y-109397000D01*
X51297278Y-109603330D01*
X31780433Y-109603330D01*
X23678239Y-101501137D01*
X23709853Y-101488042D01*
X23955302Y-101324039D01*
X24164039Y-101115302D01*
X24270000Y-100956719D01*
X24375961Y-101115302D01*
X24584698Y-101324039D01*
X24830147Y-101488042D01*
X25102875Y-101601010D01*
X25392401Y-101658600D01*
X25687599Y-101658600D01*
X25977125Y-101601010D01*
X26249853Y-101488042D01*
X26495302Y-101324039D01*
X26656720Y-101162621D01*
X30381001Y-104886903D01*
X30404799Y-104915901D01*
X30433797Y-104939699D01*
X30520523Y-105010874D01*
X30652553Y-105081446D01*
X30795814Y-105124903D01*
X30907467Y-105135900D01*
X30907477Y-105135900D01*
X30944800Y-105139576D01*
X30982123Y-105135900D01*
X39660078Y-105135900D01*
X39697400Y-105139576D01*
X39734722Y-105135900D01*
X39734733Y-105135900D01*
X39846386Y-105124903D01*
X39989647Y-105081446D01*
X40121676Y-105010874D01*
X40237401Y-104915901D01*
X40261204Y-104886897D01*
X42473752Y-102674350D01*
X42442068Y-102750842D01*
X42385000Y-103037740D01*
X42385000Y-103330260D01*
X42442068Y-103617158D01*
X42554010Y-103887411D01*
X42716525Y-104130632D01*
X42923368Y-104337475D01*
X43166589Y-104499990D01*
X43436842Y-104611932D01*
X43723740Y-104669000D01*
X44016260Y-104669000D01*
X44303158Y-104611932D01*
X44573411Y-104499990D01*
X44816632Y-104337475D01*
X45023475Y-104130632D01*
X45185990Y-103887411D01*
X45297932Y-103617158D01*
X45355000Y-103330260D01*
X45355000Y-103037740D01*
X45297932Y-102750842D01*
X45185990Y-102480589D01*
X45023475Y-102237368D01*
X44816632Y-102030525D01*
X44642240Y-101914000D01*
X44816632Y-101797475D01*
X45023475Y-101590632D01*
X45185990Y-101347411D01*
X45297932Y-101077158D01*
X45355000Y-100790260D01*
X45355000Y-100497740D01*
X45297932Y-100210842D01*
X45185990Y-99940589D01*
X45023475Y-99697368D01*
X44891620Y-99565513D01*
X44964180Y-99543502D01*
X45074494Y-99484537D01*
X45171185Y-99405185D01*
X45250537Y-99308494D01*
X45309502Y-99198180D01*
X45345812Y-99078482D01*
X45358072Y-98954000D01*
X45355000Y-98389750D01*
X45196250Y-98231000D01*
X43997000Y-98231000D01*
X43997000Y-98251000D01*
X43743000Y-98251000D01*
X43743000Y-98231000D01*
X42543750Y-98231000D01*
X42385000Y-98389750D01*
X42381928Y-98954000D01*
X42394188Y-99078482D01*
X42430498Y-99198180D01*
X42489463Y-99308494D01*
X42568815Y-99405185D01*
X42665506Y-99484537D01*
X42775820Y-99543502D01*
X42848380Y-99565513D01*
X42716525Y-99697368D01*
X42587204Y-99890911D01*
X42545714Y-99894997D01*
X42402453Y-99938454D01*
X42270424Y-100009026D01*
X42154699Y-100103999D01*
X42059726Y-100219724D01*
X41989154Y-100351753D01*
X41945697Y-100495014D01*
X41931023Y-100644000D01*
X41934700Y-100681333D01*
X41934700Y-101063798D01*
X40528748Y-102469751D01*
X40373475Y-102237368D01*
X40166632Y-102030525D01*
X39992240Y-101914000D01*
X40166632Y-101797475D01*
X40373475Y-101590632D01*
X40535990Y-101347411D01*
X40647932Y-101077158D01*
X40705000Y-100790260D01*
X40705000Y-100497740D01*
X40647932Y-100210842D01*
X40535990Y-99940589D01*
X40373475Y-99697368D01*
X40241620Y-99565513D01*
X40314180Y-99543502D01*
X40424494Y-99484537D01*
X40521185Y-99405185D01*
X40600537Y-99308494D01*
X40659502Y-99198180D01*
X40695812Y-99078482D01*
X40708072Y-98954000D01*
X40705000Y-98389750D01*
X40546250Y-98231000D01*
X39347000Y-98231000D01*
X39347000Y-98251000D01*
X39093000Y-98251000D01*
X39093000Y-98231000D01*
X37893750Y-98231000D01*
X37735000Y-98389750D01*
X37731928Y-98954000D01*
X37744188Y-99078482D01*
X37780498Y-99198180D01*
X37839463Y-99308494D01*
X37918815Y-99405185D01*
X38015506Y-99484537D01*
X38125820Y-99543502D01*
X38198380Y-99565513D01*
X38066525Y-99697368D01*
X37904010Y-99940589D01*
X37792068Y-100210842D01*
X37735000Y-100497740D01*
X37735000Y-100790260D01*
X37792068Y-101077158D01*
X37904010Y-101347411D01*
X38066525Y-101590632D01*
X38273368Y-101797475D01*
X38447760Y-101914000D01*
X38273368Y-102030525D01*
X38066525Y-102237368D01*
X38025344Y-102299000D01*
X37551618Y-102299000D01*
X37184253Y-101931579D01*
X37156517Y-101897783D01*
X37122726Y-101870051D01*
X36762500Y-101509881D01*
X36762500Y-97254000D01*
X37731928Y-97254000D01*
X37735000Y-97818250D01*
X37893750Y-97977000D01*
X39093000Y-97977000D01*
X39093000Y-96777750D01*
X39347000Y-96777750D01*
X39347000Y-97977000D01*
X40546250Y-97977000D01*
X40705000Y-97818250D01*
X40708072Y-97254000D01*
X42381928Y-97254000D01*
X42385000Y-97818250D01*
X42543750Y-97977000D01*
X43743000Y-97977000D01*
X43743000Y-96777750D01*
X43997000Y-96777750D01*
X43997000Y-97977000D01*
X45196250Y-97977000D01*
X45355000Y-97818250D01*
X45358072Y-97254000D01*
X45345812Y-97129518D01*
X45309502Y-97009820D01*
X45250537Y-96899506D01*
X45171185Y-96802815D01*
X45074494Y-96723463D01*
X44964180Y-96664498D01*
X44844482Y-96628188D01*
X44720000Y-96615928D01*
X44155750Y-96619000D01*
X43997000Y-96777750D01*
X43743000Y-96777750D01*
X43584250Y-96619000D01*
X43020000Y-96615928D01*
X42895518Y-96628188D01*
X42775820Y-96664498D01*
X42665506Y-96723463D01*
X42568815Y-96802815D01*
X42489463Y-96899506D01*
X42430498Y-97009820D01*
X42394188Y-97129518D01*
X42381928Y-97254000D01*
X40708072Y-97254000D01*
X40695812Y-97129518D01*
X40659502Y-97009820D01*
X40600537Y-96899506D01*
X40521185Y-96802815D01*
X40424494Y-96723463D01*
X40314180Y-96664498D01*
X40194482Y-96628188D01*
X40070000Y-96615928D01*
X39505750Y-96619000D01*
X39347000Y-96777750D01*
X39093000Y-96777750D01*
X38934250Y-96619000D01*
X38370000Y-96615928D01*
X38245518Y-96628188D01*
X38125820Y-96664498D01*
X38015506Y-96723463D01*
X37918815Y-96802815D01*
X37839463Y-96899506D01*
X37780498Y-97009820D01*
X37744188Y-97129518D01*
X37731928Y-97254000D01*
X36762500Y-97254000D01*
X36762500Y-82319269D01*
X36766781Y-82275800D01*
X36762500Y-82232331D01*
X36762500Y-82232323D01*
X36749695Y-82102310D01*
X36699089Y-81935487D01*
X36616911Y-81781741D01*
X36587403Y-81745786D01*
X36534032Y-81680753D01*
X36534030Y-81680751D01*
X36506317Y-81646983D01*
X36472550Y-81619271D01*
X36107337Y-81254059D01*
X36206637Y-81154759D01*
X36362000Y-80922241D01*
X36517363Y-81154759D01*
X36717241Y-81354637D01*
X36877843Y-81461948D01*
X36882998Y-81514286D01*
X36889487Y-81535677D01*
X36926454Y-81657546D01*
X36997026Y-81789576D01*
X37030705Y-81830613D01*
X37092000Y-81905301D01*
X37120998Y-81929099D01*
X37242401Y-82050502D01*
X37242400Y-88672589D01*
X37198463Y-88716526D01*
X37085195Y-88886044D01*
X37007174Y-89074402D01*
X36967400Y-89274361D01*
X36967400Y-89478239D01*
X37007174Y-89678198D01*
X37085195Y-89866556D01*
X37198463Y-90036074D01*
X37342626Y-90180237D01*
X37512144Y-90293505D01*
X37700502Y-90371526D01*
X37900461Y-90411300D01*
X38104339Y-90411300D01*
X38304298Y-90371526D01*
X38492656Y-90293505D01*
X38662174Y-90180237D01*
X38806337Y-90036074D01*
X38919605Y-89866556D01*
X38997626Y-89678198D01*
X39037400Y-89478239D01*
X39037400Y-89274361D01*
X38997626Y-89074402D01*
X38919605Y-88886044D01*
X38806337Y-88716526D01*
X38762400Y-88672589D01*
X38762400Y-81773025D01*
X38766076Y-81735700D01*
X38762400Y-81698375D01*
X38762400Y-81698367D01*
X38751403Y-81586714D01*
X38707946Y-81443453D01*
X38637374Y-81311424D01*
X38616007Y-81285389D01*
X38746637Y-81154759D01*
X38902000Y-80922241D01*
X39057363Y-81154759D01*
G37*
X39057363Y-81154759D02*
X39257241Y-81354637D01*
X39492273Y-81511680D01*
X39753426Y-81619853D01*
X40030665Y-81675000D01*
X40313335Y-81675000D01*
X40537300Y-81630450D01*
X40537301Y-90649967D01*
X40533624Y-90687300D01*
X40537301Y-90724633D01*
X40548298Y-90836286D01*
X40550154Y-90842403D01*
X40591754Y-90979546D01*
X40662326Y-91111576D01*
X40705382Y-91164039D01*
X40757300Y-91227301D01*
X40786298Y-91251099D01*
X51023823Y-101488625D01*
X51017832Y-101503088D01*
X50955000Y-101818967D01*
X50955000Y-102141033D01*
X51017832Y-102456912D01*
X51141082Y-102754463D01*
X51320013Y-103022252D01*
X51547748Y-103249987D01*
X51815537Y-103428918D01*
X51830000Y-103434909D01*
X51830001Y-105632225D01*
X51738987Y-105693038D01*
X51553038Y-105878987D01*
X51406939Y-106097641D01*
X51306304Y-106340595D01*
X51255000Y-106598514D01*
X51255000Y-106861486D01*
X51306304Y-107119405D01*
X51406939Y-107362359D01*
X51553038Y-107581013D01*
X51738987Y-107766962D01*
X51957641Y-107913061D01*
X52173550Y-108002494D01*
X52148956Y-108009953D01*
X51911608Y-108120208D01*
X51700330Y-108274649D01*
X51523241Y-108467340D01*
X51387147Y-108690877D01*
X51297278Y-108936670D01*
X51419799Y-109143000D01*
X52463000Y-109143000D01*
X52463000Y-109123000D01*
X52717000Y-109123000D01*
X52717000Y-109143000D01*
X53760201Y-109143000D01*
X53882722Y-108936670D01*
X53792853Y-108690877D01*
X53656759Y-108467340D01*
X53479670Y-108274649D01*
X53268392Y-108120208D01*
X53031044Y-108009953D01*
X53006450Y-108002494D01*
X53222359Y-107913061D01*
X53441013Y-107766962D01*
X53626962Y-107581013D01*
X53773061Y-107362359D01*
X53873696Y-107119405D01*
X53925000Y-106861486D01*
X53925000Y-106598514D01*
X53873696Y-106340595D01*
X53773061Y-106097641D01*
X53626962Y-105878987D01*
X53441013Y-105693038D01*
X53350000Y-105632225D01*
X53350000Y-103434909D01*
X53364463Y-103428918D01*
X53632252Y-103249987D01*
X53859987Y-103022252D01*
X54038918Y-102754463D01*
X54162168Y-102456912D01*
X54225000Y-102141033D01*
X54225000Y-101818967D01*
X54162168Y-101503088D01*
X54038918Y-101205537D01*
X53859987Y-100937748D01*
X53632252Y-100710013D01*
X53364463Y-100531082D01*
X53066912Y-100407832D01*
X52751033Y-100345000D01*
X52428967Y-100345000D01*
X52113088Y-100407832D01*
X52098625Y-100413823D01*
X42057300Y-90372499D01*
X42057300Y-81522047D01*
X42293426Y-81619853D01*
X42570665Y-81675000D01*
X42853335Y-81675000D01*
X43130574Y-81619853D01*
X43222001Y-81581983D01*
X43222001Y-83247268D01*
X43218324Y-83284600D01*
X43222001Y-83321933D01*
X43232998Y-83433586D01*
X43235625Y-83442247D01*
X43276454Y-83576846D01*
X43347026Y-83708876D01*
X43395428Y-83767853D01*
X43442000Y-83824601D01*
X43470998Y-83848399D01*
X52467598Y-92845000D01*
X52428967Y-92845000D01*
X52113088Y-92907832D01*
X51815537Y-93031082D01*
X51547748Y-93210013D01*
X51320013Y-93437748D01*
X51141082Y-93705537D01*
X51017832Y-94003088D01*
X50955000Y-94318967D01*
X50955000Y-94641033D01*
X51017832Y-94956912D01*
X51141082Y-95254463D01*
X51320013Y-95522252D01*
X51547748Y-95749987D01*
X51815537Y-95928918D01*
X52113088Y-96052168D01*
X52428967Y-96115000D01*
X52751033Y-96115000D01*
X53066912Y-96052168D01*
X53364463Y-95928918D01*
X53632252Y-95749987D01*
X53859987Y-95522252D01*
X54038918Y-95254463D01*
X54162168Y-94956912D01*
X54225000Y-94641033D01*
X54225000Y-94602402D01*
X59080000Y-99457402D01*
X59080000Y-100525091D01*
X59065537Y-100531082D01*
X58797748Y-100710013D01*
X58570013Y-100937748D01*
X58391082Y-101205537D01*
X58267832Y-101503088D01*
X58205000Y-101818967D01*
X58205000Y-102141033D01*
X58267832Y-102456912D01*
X58391082Y-102754463D01*
X58570013Y-103022252D01*
X58797748Y-103249987D01*
X59065537Y-103428918D01*
X59080000Y-103434909D01*
X59080001Y-105632225D01*
X58988987Y-105693038D01*
X58803038Y-105878987D01*
X58656939Y-106097641D01*
X58556304Y-106340595D01*
X58505000Y-106598514D01*
X58505000Y-106861486D01*
X58556304Y-107119405D01*
X58656939Y-107362359D01*
X58803038Y-107581013D01*
X58988987Y-107766962D01*
X59207641Y-107913061D01*
X59423550Y-108002494D01*
X59398956Y-108009953D01*
X59161608Y-108120208D01*
X58950330Y-108274649D01*
X58773241Y-108467340D01*
X58637147Y-108690877D01*
X58547278Y-108936670D01*
X58669799Y-109143000D01*
X59713000Y-109143000D01*
X59713000Y-109123000D01*
X59967000Y-109123000D01*
X59967000Y-109143000D01*
X61010201Y-109143000D01*
X61132722Y-108936670D01*
X61042853Y-108690877D01*
X60906759Y-108467340D01*
X60729670Y-108274649D01*
X60518392Y-108120208D01*
X60281044Y-108009953D01*
X60256450Y-108002494D01*
X60472359Y-107913061D01*
X60691013Y-107766962D01*
X60876962Y-107581013D01*
X61023061Y-107362359D01*
X61123696Y-107119405D01*
X61175000Y-106861486D01*
X61175000Y-106598514D01*
X61123696Y-106340595D01*
X61023061Y-106097641D01*
X60876962Y-105878987D01*
X60691013Y-105693038D01*
X60600000Y-105632225D01*
X60600000Y-103434909D01*
X60614463Y-103428918D01*
X60882252Y-103249987D01*
X61109987Y-103022252D01*
X61288918Y-102754463D01*
X61412168Y-102456912D01*
X61475000Y-102141033D01*
X61475000Y-101818967D01*
X61412168Y-101503088D01*
X61288918Y-101205537D01*
X61109987Y-100937748D01*
X60882252Y-100710013D01*
X60614463Y-100531082D01*
X60600000Y-100525091D01*
X60600000Y-100078302D01*
X62952601Y-102430903D01*
X62952600Y-109135177D01*
X62948924Y-109172500D01*
X62952600Y-109209822D01*
X62952600Y-109209832D01*
X62963597Y-109321485D01*
X62986504Y-109397000D01*
X63007054Y-109464746D01*
X63077626Y-109596776D01*
X63083005Y-109603330D01*
X63172599Y-109712501D01*
X63201603Y-109736304D01*
X64395998Y-110930700D01*
X33107803Y-110930700D01*
X31780433Y-109603330D01*
X51297278Y-109603330D01*
X51387147Y-109849123D01*
X51523241Y-110072660D01*
X51700330Y-110265351D01*
X51911608Y-110419792D01*
X52148956Y-110530047D01*
X52256671Y-110562716D01*
X52463000Y-110439374D01*
X52463000Y-109397000D01*
X52717000Y-109397000D01*
X52717000Y-110439374D01*
X52923329Y-110562716D01*
X53031044Y-110530047D01*
X53268392Y-110419792D01*
X53479670Y-110265351D01*
X53656759Y-110072660D01*
X53792853Y-109849123D01*
X53882722Y-109603330D01*
X58547278Y-109603330D01*
X58637147Y-109849123D01*
X58773241Y-110072660D01*
X58950330Y-110265351D01*
X59161608Y-110419792D01*
X59398956Y-110530047D01*
X59506671Y-110562716D01*
X59713000Y-110439374D01*
X59713000Y-109397000D01*
X59967000Y-109397000D01*
X59967000Y-110439374D01*
X60173329Y-110562716D01*
X60281044Y-110530047D01*
X60518392Y-110419792D01*
X60729670Y-110265351D01*
X60906759Y-110072660D01*
X61042853Y-109849123D01*
X61132722Y-109603330D01*
X61010201Y-109397000D01*
X59967000Y-109397000D01*
X59713000Y-109397000D01*
X58669799Y-109397000D01*
X58547278Y-109603330D01*
X53882722Y-109603330D01*
X53760201Y-109397000D01*
X52717000Y-109397000D01*
X52463000Y-109397000D01*
X51419799Y-109397000D01*
X51297278Y-109603330D01*
X31780433Y-109603330D01*
X23678239Y-101501137D01*
X23709853Y-101488042D01*
X23955302Y-101324039D01*
X24164039Y-101115302D01*
X24270000Y-100956719D01*
X24375961Y-101115302D01*
X24584698Y-101324039D01*
X24830147Y-101488042D01*
X25102875Y-101601010D01*
X25392401Y-101658600D01*
X25687599Y-101658600D01*
X25977125Y-101601010D01*
X26249853Y-101488042D01*
X26495302Y-101324039D01*
X26656720Y-101162621D01*
X30381001Y-104886903D01*
X30404799Y-104915901D01*
X30433797Y-104939699D01*
X30520523Y-105010874D01*
X30652553Y-105081446D01*
X30795814Y-105124903D01*
X30907467Y-105135900D01*
X30907477Y-105135900D01*
X30944800Y-105139576D01*
X30982123Y-105135900D01*
X39660078Y-105135900D01*
X39697400Y-105139576D01*
X39734722Y-105135900D01*
X39734733Y-105135900D01*
X39846386Y-105124903D01*
X39989647Y-105081446D01*
X40121676Y-105010874D01*
X40237401Y-104915901D01*
X40261204Y-104886897D01*
X42473752Y-102674350D01*
X42442068Y-102750842D01*
X42385000Y-103037740D01*
X42385000Y-103330260D01*
X42442068Y-103617158D01*
X42554010Y-103887411D01*
X42716525Y-104130632D01*
X42923368Y-104337475D01*
X43166589Y-104499990D01*
X43436842Y-104611932D01*
X43723740Y-104669000D01*
X44016260Y-104669000D01*
X44303158Y-104611932D01*
X44573411Y-104499990D01*
X44816632Y-104337475D01*
X45023475Y-104130632D01*
X45185990Y-103887411D01*
X45297932Y-103617158D01*
X45355000Y-103330260D01*
X45355000Y-103037740D01*
X45297932Y-102750842D01*
X45185990Y-102480589D01*
X45023475Y-102237368D01*
X44816632Y-102030525D01*
X44642240Y-101914000D01*
X44816632Y-101797475D01*
X45023475Y-101590632D01*
X45185990Y-101347411D01*
X45297932Y-101077158D01*
X45355000Y-100790260D01*
X45355000Y-100497740D01*
X45297932Y-100210842D01*
X45185990Y-99940589D01*
X45023475Y-99697368D01*
X44891620Y-99565513D01*
X44964180Y-99543502D01*
X45074494Y-99484537D01*
X45171185Y-99405185D01*
X45250537Y-99308494D01*
X45309502Y-99198180D01*
X45345812Y-99078482D01*
X45358072Y-98954000D01*
X45355000Y-98389750D01*
X45196250Y-98231000D01*
X43997000Y-98231000D01*
X43997000Y-98251000D01*
X43743000Y-98251000D01*
X43743000Y-98231000D01*
X42543750Y-98231000D01*
X42385000Y-98389750D01*
X42381928Y-98954000D01*
X42394188Y-99078482D01*
X42430498Y-99198180D01*
X42489463Y-99308494D01*
X42568815Y-99405185D01*
X42665506Y-99484537D01*
X42775820Y-99543502D01*
X42848380Y-99565513D01*
X42716525Y-99697368D01*
X42587204Y-99890911D01*
X42545714Y-99894997D01*
X42402453Y-99938454D01*
X42270424Y-100009026D01*
X42154699Y-100103999D01*
X42059726Y-100219724D01*
X41989154Y-100351753D01*
X41945697Y-100495014D01*
X41931023Y-100644000D01*
X41934700Y-100681333D01*
X41934700Y-101063798D01*
X40528748Y-102469751D01*
X40373475Y-102237368D01*
X40166632Y-102030525D01*
X39992240Y-101914000D01*
X40166632Y-101797475D01*
X40373475Y-101590632D01*
X40535990Y-101347411D01*
X40647932Y-101077158D01*
X40705000Y-100790260D01*
X40705000Y-100497740D01*
X40647932Y-100210842D01*
X40535990Y-99940589D01*
X40373475Y-99697368D01*
X40241620Y-99565513D01*
X40314180Y-99543502D01*
X40424494Y-99484537D01*
X40521185Y-99405185D01*
X40600537Y-99308494D01*
X40659502Y-99198180D01*
X40695812Y-99078482D01*
X40708072Y-98954000D01*
X40705000Y-98389750D01*
X40546250Y-98231000D01*
X39347000Y-98231000D01*
X39347000Y-98251000D01*
X39093000Y-98251000D01*
X39093000Y-98231000D01*
X37893750Y-98231000D01*
X37735000Y-98389750D01*
X37731928Y-98954000D01*
X37744188Y-99078482D01*
X37780498Y-99198180D01*
X37839463Y-99308494D01*
X37918815Y-99405185D01*
X38015506Y-99484537D01*
X38125820Y-99543502D01*
X38198380Y-99565513D01*
X38066525Y-99697368D01*
X37904010Y-99940589D01*
X37792068Y-100210842D01*
X37735000Y-100497740D01*
X37735000Y-100790260D01*
X37792068Y-101077158D01*
X37904010Y-101347411D01*
X38066525Y-101590632D01*
X38273368Y-101797475D01*
X38447760Y-101914000D01*
X38273368Y-102030525D01*
X38066525Y-102237368D01*
X38025344Y-102299000D01*
X37551618Y-102299000D01*
X37184253Y-101931579D01*
X37156517Y-101897783D01*
X37122726Y-101870051D01*
X36762500Y-101509881D01*
X36762500Y-97254000D01*
X37731928Y-97254000D01*
X37735000Y-97818250D01*
X37893750Y-97977000D01*
X39093000Y-97977000D01*
X39093000Y-96777750D01*
X39347000Y-96777750D01*
X39347000Y-97977000D01*
X40546250Y-97977000D01*
X40705000Y-97818250D01*
X40708072Y-97254000D01*
X42381928Y-97254000D01*
X42385000Y-97818250D01*
X42543750Y-97977000D01*
X43743000Y-97977000D01*
X43743000Y-96777750D01*
X43997000Y-96777750D01*
X43997000Y-97977000D01*
X45196250Y-97977000D01*
X45355000Y-97818250D01*
X45358072Y-97254000D01*
X45345812Y-97129518D01*
X45309502Y-97009820D01*
X45250537Y-96899506D01*
X45171185Y-96802815D01*
X45074494Y-96723463D01*
X44964180Y-96664498D01*
X44844482Y-96628188D01*
X44720000Y-96615928D01*
X44155750Y-96619000D01*
X43997000Y-96777750D01*
X43743000Y-96777750D01*
X43584250Y-96619000D01*
X43020000Y-96615928D01*
X42895518Y-96628188D01*
X42775820Y-96664498D01*
X42665506Y-96723463D01*
X42568815Y-96802815D01*
X42489463Y-96899506D01*
X42430498Y-97009820D01*
X42394188Y-97129518D01*
X42381928Y-97254000D01*
X40708072Y-97254000D01*
X40695812Y-97129518D01*
X40659502Y-97009820D01*
X40600537Y-96899506D01*
X40521185Y-96802815D01*
X40424494Y-96723463D01*
X40314180Y-96664498D01*
X40194482Y-96628188D01*
X40070000Y-96615928D01*
X39505750Y-96619000D01*
X39347000Y-96777750D01*
X39093000Y-96777750D01*
X38934250Y-96619000D01*
X38370000Y-96615928D01*
X38245518Y-96628188D01*
X38125820Y-96664498D01*
X38015506Y-96723463D01*
X37918815Y-96802815D01*
X37839463Y-96899506D01*
X37780498Y-97009820D01*
X37744188Y-97129518D01*
X37731928Y-97254000D01*
X36762500Y-97254000D01*
X36762500Y-82319269D01*
X36766781Y-82275800D01*
X36762500Y-82232331D01*
X36762500Y-82232323D01*
X36749695Y-82102310D01*
X36699089Y-81935487D01*
X36616911Y-81781741D01*
X36587403Y-81745786D01*
X36534032Y-81680753D01*
X36534030Y-81680751D01*
X36506317Y-81646983D01*
X36472550Y-81619271D01*
X36107337Y-81254059D01*
X36206637Y-81154759D01*
X36362000Y-80922241D01*
X36517363Y-81154759D01*
X36717241Y-81354637D01*
X36877843Y-81461948D01*
X36882998Y-81514286D01*
X36889487Y-81535677D01*
X36926454Y-81657546D01*
X36997026Y-81789576D01*
X37030705Y-81830613D01*
X37092000Y-81905301D01*
X37120998Y-81929099D01*
X37242401Y-82050502D01*
X37242400Y-88672589D01*
X37198463Y-88716526D01*
X37085195Y-88886044D01*
X37007174Y-89074402D01*
X36967400Y-89274361D01*
X36967400Y-89478239D01*
X37007174Y-89678198D01*
X37085195Y-89866556D01*
X37198463Y-90036074D01*
X37342626Y-90180237D01*
X37512144Y-90293505D01*
X37700502Y-90371526D01*
X37900461Y-90411300D01*
X38104339Y-90411300D01*
X38304298Y-90371526D01*
X38492656Y-90293505D01*
X38662174Y-90180237D01*
X38806337Y-90036074D01*
X38919605Y-89866556D01*
X38997626Y-89678198D01*
X39037400Y-89478239D01*
X39037400Y-89274361D01*
X38997626Y-89074402D01*
X38919605Y-88886044D01*
X38806337Y-88716526D01*
X38762400Y-88672589D01*
X38762400Y-81773025D01*
X38766076Y-81735700D01*
X38762400Y-81698375D01*
X38762400Y-81698367D01*
X38751403Y-81586714D01*
X38707946Y-81443453D01*
X38637374Y-81311424D01*
X38616007Y-81285389D01*
X38746637Y-81154759D01*
X38902000Y-80922241D01*
X39057363Y-81154759D01*
G36*
X66717000Y-109143000D02*
G01*
X66737000Y-109143000D01*
X66737000Y-109397000D01*
X66717000Y-109397000D01*
X66717000Y-109417000D01*
X66463000Y-109417000D01*
X66463000Y-109397000D01*
X66443000Y-109397000D01*
X66443000Y-109143000D01*
X66463000Y-109143000D01*
X66463000Y-109123000D01*
X66717000Y-109123000D01*
X66717000Y-109143000D01*
G37*
X66717000Y-109143000D02*
X66737000Y-109143000D01*
X66737000Y-109397000D01*
X66717000Y-109397000D01*
X66717000Y-109417000D01*
X66463000Y-109417000D01*
X66463000Y-109397000D01*
X66443000Y-109397000D01*
X66443000Y-109143000D01*
X66463000Y-109143000D01*
X66463000Y-109123000D01*
X66717000Y-109123000D01*
X66717000Y-109143000D01*
G36*
X69697241Y-79600637D02*
G01*
X69929759Y-79756000D01*
X69697241Y-79911363D01*
X69497363Y-80111241D01*
X69340320Y-80346273D01*
X69232147Y-80607426D01*
X69177000Y-80884665D01*
X69177000Y-81167335D01*
X69232147Y-81444574D01*
X69340320Y-81705727D01*
X69497363Y-81940759D01*
X69697241Y-82140637D01*
X69929759Y-82296000D01*
X69697241Y-82451363D01*
X69497363Y-82651241D01*
X69340320Y-82886273D01*
X69232147Y-83147426D01*
X69177000Y-83424665D01*
X69177000Y-83707335D01*
X69232147Y-83984574D01*
X69340320Y-84245727D01*
X69497363Y-84480759D01*
X69697241Y-84680637D01*
X69929759Y-84836000D01*
X69697241Y-84991363D01*
X69497363Y-85191241D01*
X69340320Y-85426273D01*
X69232147Y-85687426D01*
X69177000Y-85964665D01*
X69177000Y-86247335D01*
X69232147Y-86524574D01*
X69340320Y-86785727D01*
X69497363Y-87020759D01*
X69697241Y-87220637D01*
X69932273Y-87377680D01*
X70193426Y-87485853D01*
X70470665Y-87541000D01*
X70753335Y-87541000D01*
X71030574Y-87485853D01*
X71291727Y-87377680D01*
X71526759Y-87220637D01*
X71726637Y-87020759D01*
X71830043Y-86866000D01*
X76805578Y-86866000D01*
X76842900Y-86869676D01*
X76880222Y-86866000D01*
X76880233Y-86866000D01*
X76991886Y-86855003D01*
X77135147Y-86811546D01*
X77267176Y-86740974D01*
X77382901Y-86646001D01*
X77406704Y-86616997D01*
X83234000Y-80789702D01*
X83234000Y-80826678D01*
X83230324Y-80864000D01*
X83234000Y-80901322D01*
X83234000Y-80901332D01*
X83244997Y-81012985D01*
X83286555Y-81149987D01*
X83288454Y-81156246D01*
X83359026Y-81288276D01*
X83378497Y-81312001D01*
X83453999Y-81404001D01*
X83483003Y-81427804D01*
X84470977Y-82415778D01*
X84326320Y-82632273D01*
X84218147Y-82893426D01*
X84163000Y-83170665D01*
X84163000Y-83453335D01*
X84218147Y-83730574D01*
X84326320Y-83991727D01*
X84483363Y-84226759D01*
X84683241Y-84426637D01*
X84918273Y-84583680D01*
X85179426Y-84691853D01*
X85456665Y-84747000D01*
X85739335Y-84747000D01*
X85963300Y-84702450D01*
X85963300Y-88531898D01*
X81581376Y-92913823D01*
X81566912Y-92907832D01*
X81251033Y-92845000D01*
X80928967Y-92845000D01*
X80613088Y-92907832D01*
X80315537Y-93031082D01*
X80047748Y-93210013D01*
X79820013Y-93437748D01*
X79641082Y-93705537D01*
X79517832Y-94003088D01*
X79455000Y-94318967D01*
X79455000Y-94641033D01*
X79517832Y-94956912D01*
X79641082Y-95254463D01*
X79820013Y-95522252D01*
X80047748Y-95749987D01*
X80315537Y-95928918D01*
X80408552Y-95967446D01*
X76981799Y-99394200D01*
X73182622Y-99394200D01*
X73145299Y-99390524D01*
X73107976Y-99394200D01*
X73107967Y-99394200D01*
X72996314Y-99405197D01*
X72853053Y-99448654D01*
X72721024Y-99519226D01*
X72721022Y-99519227D01*
X72721023Y-99519227D01*
X72634296Y-99590401D01*
X72634292Y-99590405D01*
X72605299Y-99614199D01*
X72581505Y-99643192D01*
X69666398Y-102558301D01*
X69637400Y-102582099D01*
X69613602Y-102611097D01*
X69613601Y-102611098D01*
X69542426Y-102697824D01*
X69471854Y-102829854D01*
X69428398Y-102973115D01*
X69413724Y-103122100D01*
X69417401Y-103159432D01*
X69417400Y-106845298D01*
X67709209Y-108553490D01*
X67656759Y-108467340D01*
X67479670Y-108274649D01*
X67268392Y-108120208D01*
X67031044Y-108009953D01*
X67006450Y-108002494D01*
X67222359Y-107913061D01*
X67441013Y-107766962D01*
X67626962Y-107581013D01*
X67773061Y-107362359D01*
X67873696Y-107119405D01*
X67925000Y-106861486D01*
X67925000Y-106598514D01*
X67873696Y-106340595D01*
X67773061Y-106097641D01*
X67626962Y-105878987D01*
X67441013Y-105693038D01*
X67350000Y-105632225D01*
X67350000Y-103434909D01*
X67364463Y-103428918D01*
X67632252Y-103249987D01*
X67859987Y-103022252D01*
X68038918Y-102754463D01*
X68162168Y-102456912D01*
X68225000Y-102141033D01*
X68225000Y-101818967D01*
X68162168Y-101503088D01*
X68038918Y-101205537D01*
X67859987Y-100937748D01*
X67632252Y-100710013D01*
X67364463Y-100531082D01*
X67350000Y-100525091D01*
X67350000Y-98940223D01*
X67353676Y-98902900D01*
X67350000Y-98865577D01*
X67350000Y-98865567D01*
X67339003Y-98753914D01*
X67295546Y-98610653D01*
X67224974Y-98478624D01*
X67130001Y-98362899D01*
X67101004Y-98339102D01*
X64526926Y-95765024D01*
X64597298Y-95751026D01*
X64785656Y-95673005D01*
X64955174Y-95559737D01*
X65099337Y-95415574D01*
X65174035Y-95303780D01*
X65320013Y-95522252D01*
X65547748Y-95749987D01*
X65815537Y-95928918D01*
X66113088Y-96052168D01*
X66428967Y-96115000D01*
X66751033Y-96115000D01*
X67066912Y-96052168D01*
X67364463Y-95928918D01*
X67632252Y-95749987D01*
X67859987Y-95522252D01*
X68038918Y-95254463D01*
X68162168Y-94956912D01*
X68225000Y-94641033D01*
X68225000Y-94318967D01*
X72205000Y-94318967D01*
X72205000Y-94641033D01*
X72267832Y-94956912D01*
X72391082Y-95254463D01*
X72570013Y-95522252D01*
X72797748Y-95749987D01*
X73065537Y-95928918D01*
X73363088Y-96052168D01*
X73678967Y-96115000D01*
X74001033Y-96115000D01*
X74316912Y-96052168D01*
X74614463Y-95928918D01*
X74882252Y-95749987D01*
X75109987Y-95522252D01*
X75288918Y-95254463D01*
X75412168Y-94956912D01*
X75475000Y-94641033D01*
X75475000Y-94318967D01*
X75412168Y-94003088D01*
X75288918Y-93705537D01*
X75109987Y-93437748D01*
X74882252Y-93210013D01*
X74614463Y-93031082D01*
X74316912Y-92907832D01*
X74001033Y-92845000D01*
X73678967Y-92845000D01*
X73363088Y-92907832D01*
X73065537Y-93031082D01*
X72797748Y-93210013D01*
X72570013Y-93437748D01*
X72391082Y-93705537D01*
X72267832Y-94003088D01*
X72205000Y-94318967D01*
X68225000Y-94318967D01*
X68162168Y-94003088D01*
X68038918Y-93705537D01*
X67859987Y-93437748D01*
X67632252Y-93210013D01*
X67364463Y-93031082D01*
X67066912Y-92907832D01*
X66751033Y-92845000D01*
X66428967Y-92845000D01*
X66113088Y-92907832D01*
X65815537Y-93031082D01*
X65547748Y-93210013D01*
X65320013Y-93437748D01*
X65141082Y-93705537D01*
X65017832Y-94003088D01*
X65015935Y-94012624D01*
X64955174Y-93951863D01*
X64785656Y-93838595D01*
X64597298Y-93760574D01*
X64397339Y-93720800D01*
X64193461Y-93720800D01*
X63993502Y-93760574D01*
X63805144Y-93838595D01*
X63695056Y-93912154D01*
X58905856Y-89122955D01*
X58970237Y-89058574D01*
X59083505Y-88889056D01*
X59161526Y-88700698D01*
X59201300Y-88500739D01*
X59201300Y-88438601D01*
X61184862Y-86455039D01*
X61600096Y-86455039D01*
X61640754Y-86589087D01*
X61760963Y-86843420D01*
X61928481Y-87069414D01*
X62136869Y-87258385D01*
X62378119Y-87403070D01*
X62642960Y-87497909D01*
X62865000Y-87376624D01*
X62865000Y-86233000D01*
X63119000Y-86233000D01*
X63119000Y-87376624D01*
X63341040Y-87497909D01*
X63605881Y-87403070D01*
X63847131Y-87258385D01*
X64055519Y-87069414D01*
X64223037Y-86843420D01*
X64343246Y-86589087D01*
X64383904Y-86455039D01*
X64261915Y-86233000D01*
X63119000Y-86233000D01*
X62865000Y-86233000D01*
X61722085Y-86233000D01*
X61600096Y-86455039D01*
X61184862Y-86455039D01*
X61700390Y-85939512D01*
X61722085Y-85979000D01*
X62865000Y-85979000D01*
X62865000Y-85959000D01*
X63119000Y-85959000D01*
X63119000Y-85979000D01*
X64261915Y-85979000D01*
X64383904Y-85756961D01*
X64343246Y-85622913D01*
X64223037Y-85368580D01*
X64069182Y-85161019D01*
X69624704Y-79605498D01*
X69653701Y-79581701D01*
X69664791Y-79568187D01*
X69697241Y-79600637D01*
G37*
X69697241Y-79600637D02*
X69929759Y-79756000D01*
X69697241Y-79911363D01*
X69497363Y-80111241D01*
X69340320Y-80346273D01*
X69232147Y-80607426D01*
X69177000Y-80884665D01*
X69177000Y-81167335D01*
X69232147Y-81444574D01*
X69340320Y-81705727D01*
X69497363Y-81940759D01*
X69697241Y-82140637D01*
X69929759Y-82296000D01*
X69697241Y-82451363D01*
X69497363Y-82651241D01*
X69340320Y-82886273D01*
X69232147Y-83147426D01*
X69177000Y-83424665D01*
X69177000Y-83707335D01*
X69232147Y-83984574D01*
X69340320Y-84245727D01*
X69497363Y-84480759D01*
X69697241Y-84680637D01*
X69929759Y-84836000D01*
X69697241Y-84991363D01*
X69497363Y-85191241D01*
X69340320Y-85426273D01*
X69232147Y-85687426D01*
X69177000Y-85964665D01*
X69177000Y-86247335D01*
X69232147Y-86524574D01*
X69340320Y-86785727D01*
X69497363Y-87020759D01*
X69697241Y-87220637D01*
X69932273Y-87377680D01*
X70193426Y-87485853D01*
X70470665Y-87541000D01*
X70753335Y-87541000D01*
X71030574Y-87485853D01*
X71291727Y-87377680D01*
X71526759Y-87220637D01*
X71726637Y-87020759D01*
X71830043Y-86866000D01*
X76805578Y-86866000D01*
X76842900Y-86869676D01*
X76880222Y-86866000D01*
X76880233Y-86866000D01*
X76991886Y-86855003D01*
X77135147Y-86811546D01*
X77267176Y-86740974D01*
X77382901Y-86646001D01*
X77406704Y-86616997D01*
X83234000Y-80789702D01*
X83234000Y-80826678D01*
X83230324Y-80864000D01*
X83234000Y-80901322D01*
X83234000Y-80901332D01*
X83244997Y-81012985D01*
X83286555Y-81149987D01*
X83288454Y-81156246D01*
X83359026Y-81288276D01*
X83378497Y-81312001D01*
X83453999Y-81404001D01*
X83483003Y-81427804D01*
X84470977Y-82415778D01*
X84326320Y-82632273D01*
X84218147Y-82893426D01*
X84163000Y-83170665D01*
X84163000Y-83453335D01*
X84218147Y-83730574D01*
X84326320Y-83991727D01*
X84483363Y-84226759D01*
X84683241Y-84426637D01*
X84918273Y-84583680D01*
X85179426Y-84691853D01*
X85456665Y-84747000D01*
X85739335Y-84747000D01*
X85963300Y-84702450D01*
X85963300Y-88531898D01*
X81581376Y-92913823D01*
X81566912Y-92907832D01*
X81251033Y-92845000D01*
X80928967Y-92845000D01*
X80613088Y-92907832D01*
X80315537Y-93031082D01*
X80047748Y-93210013D01*
X79820013Y-93437748D01*
X79641082Y-93705537D01*
X79517832Y-94003088D01*
X79455000Y-94318967D01*
X79455000Y-94641033D01*
X79517832Y-94956912D01*
X79641082Y-95254463D01*
X79820013Y-95522252D01*
X80047748Y-95749987D01*
X80315537Y-95928918D01*
X80408552Y-95967446D01*
X76981799Y-99394200D01*
X73182622Y-99394200D01*
X73145299Y-99390524D01*
X73107976Y-99394200D01*
X73107967Y-99394200D01*
X72996314Y-99405197D01*
X72853053Y-99448654D01*
X72721024Y-99519226D01*
X72721022Y-99519227D01*
X72721023Y-99519227D01*
X72634296Y-99590401D01*
X72634292Y-99590405D01*
X72605299Y-99614199D01*
X72581505Y-99643192D01*
X69666398Y-102558301D01*
X69637400Y-102582099D01*
X69613602Y-102611097D01*
X69613601Y-102611098D01*
X69542426Y-102697824D01*
X69471854Y-102829854D01*
X69428398Y-102973115D01*
X69413724Y-103122100D01*
X69417401Y-103159432D01*
X69417400Y-106845298D01*
X67709209Y-108553490D01*
X67656759Y-108467340D01*
X67479670Y-108274649D01*
X67268392Y-108120208D01*
X67031044Y-108009953D01*
X67006450Y-108002494D01*
X67222359Y-107913061D01*
X67441013Y-107766962D01*
X67626962Y-107581013D01*
X67773061Y-107362359D01*
X67873696Y-107119405D01*
X67925000Y-106861486D01*
X67925000Y-106598514D01*
X67873696Y-106340595D01*
X67773061Y-106097641D01*
X67626962Y-105878987D01*
X67441013Y-105693038D01*
X67350000Y-105632225D01*
X67350000Y-103434909D01*
X67364463Y-103428918D01*
X67632252Y-103249987D01*
X67859987Y-103022252D01*
X68038918Y-102754463D01*
X68162168Y-102456912D01*
X68225000Y-102141033D01*
X68225000Y-101818967D01*
X68162168Y-101503088D01*
X68038918Y-101205537D01*
X67859987Y-100937748D01*
X67632252Y-100710013D01*
X67364463Y-100531082D01*
X67350000Y-100525091D01*
X67350000Y-98940223D01*
X67353676Y-98902900D01*
X67350000Y-98865577D01*
X67350000Y-98865567D01*
X67339003Y-98753914D01*
X67295546Y-98610653D01*
X67224974Y-98478624D01*
X67130001Y-98362899D01*
X67101004Y-98339102D01*
X64526926Y-95765024D01*
X64597298Y-95751026D01*
X64785656Y-95673005D01*
X64955174Y-95559737D01*
X65099337Y-95415574D01*
X65174035Y-95303780D01*
X65320013Y-95522252D01*
X65547748Y-95749987D01*
X65815537Y-95928918D01*
X66113088Y-96052168D01*
X66428967Y-96115000D01*
X66751033Y-96115000D01*
X67066912Y-96052168D01*
X67364463Y-95928918D01*
X67632252Y-95749987D01*
X67859987Y-95522252D01*
X68038918Y-95254463D01*
X68162168Y-94956912D01*
X68225000Y-94641033D01*
X68225000Y-94318967D01*
X72205000Y-94318967D01*
X72205000Y-94641033D01*
X72267832Y-94956912D01*
X72391082Y-95254463D01*
X72570013Y-95522252D01*
X72797748Y-95749987D01*
X73065537Y-95928918D01*
X73363088Y-96052168D01*
X73678967Y-96115000D01*
X74001033Y-96115000D01*
X74316912Y-96052168D01*
X74614463Y-95928918D01*
X74882252Y-95749987D01*
X75109987Y-95522252D01*
X75288918Y-95254463D01*
X75412168Y-94956912D01*
X75475000Y-94641033D01*
X75475000Y-94318967D01*
X75412168Y-94003088D01*
X75288918Y-93705537D01*
X75109987Y-93437748D01*
X74882252Y-93210013D01*
X74614463Y-93031082D01*
X74316912Y-92907832D01*
X74001033Y-92845000D01*
X73678967Y-92845000D01*
X73363088Y-92907832D01*
X73065537Y-93031082D01*
X72797748Y-93210013D01*
X72570013Y-93437748D01*
X72391082Y-93705537D01*
X72267832Y-94003088D01*
X72205000Y-94318967D01*
X68225000Y-94318967D01*
X68162168Y-94003088D01*
X68038918Y-93705537D01*
X67859987Y-93437748D01*
X67632252Y-93210013D01*
X67364463Y-93031082D01*
X67066912Y-92907832D01*
X66751033Y-92845000D01*
X66428967Y-92845000D01*
X66113088Y-92907832D01*
X65815537Y-93031082D01*
X65547748Y-93210013D01*
X65320013Y-93437748D01*
X65141082Y-93705537D01*
X65017832Y-94003088D01*
X65015935Y-94012624D01*
X64955174Y-93951863D01*
X64785656Y-93838595D01*
X64597298Y-93760574D01*
X64397339Y-93720800D01*
X64193461Y-93720800D01*
X63993502Y-93760574D01*
X63805144Y-93838595D01*
X63695056Y-93912154D01*
X58905856Y-89122955D01*
X58970237Y-89058574D01*
X59083505Y-88889056D01*
X59161526Y-88700698D01*
X59201300Y-88500739D01*
X59201300Y-88438601D01*
X61184862Y-86455039D01*
X61600096Y-86455039D01*
X61640754Y-86589087D01*
X61760963Y-86843420D01*
X61928481Y-87069414D01*
X62136869Y-87258385D01*
X62378119Y-87403070D01*
X62642960Y-87497909D01*
X62865000Y-87376624D01*
X62865000Y-86233000D01*
X63119000Y-86233000D01*
X63119000Y-87376624D01*
X63341040Y-87497909D01*
X63605881Y-87403070D01*
X63847131Y-87258385D01*
X64055519Y-87069414D01*
X64223037Y-86843420D01*
X64343246Y-86589087D01*
X64383904Y-86455039D01*
X64261915Y-86233000D01*
X63119000Y-86233000D01*
X62865000Y-86233000D01*
X61722085Y-86233000D01*
X61600096Y-86455039D01*
X61184862Y-86455039D01*
X61700390Y-85939512D01*
X61722085Y-85979000D01*
X62865000Y-85979000D01*
X62865000Y-85959000D01*
X63119000Y-85959000D01*
X63119000Y-85979000D01*
X64261915Y-85979000D01*
X64383904Y-85756961D01*
X64343246Y-85622913D01*
X64223037Y-85368580D01*
X64069182Y-85161019D01*
X69624704Y-79605498D01*
X69653701Y-79581701D01*
X69664791Y-79568187D01*
X69697241Y-79600637D01*
G36*
X35219000Y-72493000D02*
G01*
X35239000Y-72493000D01*
X35239000Y-72747000D01*
X35219000Y-72747000D01*
X35219000Y-73889915D01*
X35441039Y-74011904D01*
X35575087Y-73971246D01*
X35829420Y-73851037D01*
X36055414Y-73683519D01*
X36244385Y-73475131D01*
X36355933Y-73289135D01*
X36360320Y-73299727D01*
X36517363Y-73534759D01*
X36717241Y-73734637D01*
X36952273Y-73891680D01*
X37213426Y-73999853D01*
X37490665Y-74055000D01*
X37773335Y-74055000D01*
X38050574Y-73999853D01*
X38311727Y-73891680D01*
X38546759Y-73734637D01*
X38746637Y-73534759D01*
X38853947Y-73374158D01*
X38906286Y-73369003D01*
X38939813Y-73358833D01*
X39057363Y-73534759D01*
X39257241Y-73734637D01*
X39417843Y-73841948D01*
X39422568Y-73889915D01*
X39422998Y-73894285D01*
X39466454Y-74037546D01*
X39537026Y-74169576D01*
X39602129Y-74248903D01*
X39632000Y-74285301D01*
X39660998Y-74309099D01*
X40537300Y-75185402D01*
X40537300Y-78849550D01*
X40313335Y-78805000D01*
X40030665Y-78805000D01*
X39753426Y-78860147D01*
X39492273Y-78968320D01*
X39257241Y-79125363D01*
X39057363Y-79325241D01*
X38902000Y-79557759D01*
X38746637Y-79325241D01*
X38546759Y-79125363D01*
X38311727Y-78968320D01*
X38050574Y-78860147D01*
X37773335Y-78805000D01*
X37490665Y-78805000D01*
X37213426Y-78860147D01*
X36952273Y-78968320D01*
X36717241Y-79125363D01*
X36517363Y-79325241D01*
X36362000Y-79557759D01*
X36206637Y-79325241D01*
X36006759Y-79125363D01*
X35771727Y-78968320D01*
X35510574Y-78860147D01*
X35233335Y-78805000D01*
X34950665Y-78805000D01*
X34673426Y-78860147D01*
X34412273Y-78968320D01*
X34177241Y-79125363D01*
X33977363Y-79325241D01*
X33820320Y-79560273D01*
X33712147Y-79821426D01*
X33657000Y-80098665D01*
X33657000Y-80381335D01*
X33712147Y-80658574D01*
X33820320Y-80919727D01*
X33977363Y-81154759D01*
X34177241Y-81354637D01*
X34207001Y-81374522D01*
X34207001Y-81446822D01*
X34202719Y-81490300D01*
X34219805Y-81663790D01*
X34270412Y-81830613D01*
X34352590Y-81984359D01*
X34435468Y-82085346D01*
X34435471Y-82085349D01*
X34463184Y-82119117D01*
X34496951Y-82146829D01*
X34992500Y-82642379D01*
X34992501Y-96618255D01*
X34855750Y-96619000D01*
X34697000Y-96777750D01*
X34697000Y-97977000D01*
X34717000Y-97977000D01*
X34717000Y-98231000D01*
X34697000Y-98231000D01*
X34697000Y-98251000D01*
X34443000Y-98251000D01*
X34443000Y-98231000D01*
X33243750Y-98231000D01*
X33085000Y-98389750D01*
X33081928Y-98954000D01*
X33094188Y-99078482D01*
X33130498Y-99198180D01*
X33189463Y-99308494D01*
X33268815Y-99405185D01*
X33365506Y-99484537D01*
X33475820Y-99543502D01*
X33548380Y-99565513D01*
X33416525Y-99697368D01*
X33254010Y-99940589D01*
X33142068Y-100210842D01*
X33085000Y-100497740D01*
X33085000Y-100790260D01*
X33142068Y-101077158D01*
X33254010Y-101347411D01*
X33416525Y-101590632D01*
X33623368Y-101797475D01*
X33797760Y-101914000D01*
X33623368Y-102030525D01*
X33416525Y-102237368D01*
X33254010Y-102480589D01*
X33142068Y-102750842D01*
X33085000Y-103037740D01*
X33085000Y-103330260D01*
X33141818Y-103615900D01*
X31259602Y-103615900D01*
X27292704Y-99649003D01*
X27268901Y-99619999D01*
X27153176Y-99525026D01*
X27021147Y-99454454D01*
X26877886Y-99410997D01*
X26839347Y-99407201D01*
X26704039Y-99204698D01*
X26495302Y-98995961D01*
X26336719Y-98890000D01*
X26495302Y-98784039D01*
X26704039Y-98575302D01*
X26868042Y-98329853D01*
X26981010Y-98057125D01*
X27038600Y-97767599D01*
X27038600Y-97472401D01*
X26995158Y-97254000D01*
X33081928Y-97254000D01*
X33085000Y-97818250D01*
X33243750Y-97977000D01*
X34443000Y-97977000D01*
X34443000Y-96777750D01*
X34284250Y-96619000D01*
X33720000Y-96615928D01*
X33595518Y-96628188D01*
X33475820Y-96664498D01*
X33365506Y-96723463D01*
X33268815Y-96802815D01*
X33189463Y-96899506D01*
X33130498Y-97009820D01*
X33094188Y-97129518D01*
X33081928Y-97254000D01*
X26995158Y-97254000D01*
X26981010Y-97182875D01*
X26868042Y-96910147D01*
X26704039Y-96664698D01*
X26495302Y-96455961D01*
X26336719Y-96350000D01*
X26495302Y-96244039D01*
X26704039Y-96035302D01*
X26868042Y-95789853D01*
X26981010Y-95517125D01*
X27038600Y-95227599D01*
X27038600Y-94932401D01*
X26981010Y-94642875D01*
X26868042Y-94370147D01*
X26723531Y-94153870D01*
X33359404Y-87517998D01*
X33388401Y-87494201D01*
X33427996Y-87445954D01*
X33483374Y-87378477D01*
X33553946Y-87246447D01*
X33568581Y-87198200D01*
X33597403Y-87103186D01*
X33608400Y-86991533D01*
X33608400Y-86991524D01*
X33612076Y-86954201D01*
X33608400Y-86916878D01*
X33608400Y-72895901D01*
X33757299Y-72747002D01*
X33821375Y-72747002D01*
X33700091Y-72969040D01*
X33794930Y-73233881D01*
X33939615Y-73475131D01*
X34128586Y-73683519D01*
X34354580Y-73851037D01*
X34608913Y-73971246D01*
X34742961Y-74011904D01*
X34965000Y-73889915D01*
X34965000Y-72747000D01*
X34945000Y-72747000D01*
X34945000Y-72493000D01*
X34965000Y-72493000D01*
X34965000Y-72473000D01*
X35219000Y-72473000D01*
X35219000Y-72493000D01*
G37*
X35219000Y-72493000D02*
X35239000Y-72493000D01*
X35239000Y-72747000D01*
X35219000Y-72747000D01*
X35219000Y-73889915D01*
X35441039Y-74011904D01*
X35575087Y-73971246D01*
X35829420Y-73851037D01*
X36055414Y-73683519D01*
X36244385Y-73475131D01*
X36355933Y-73289135D01*
X36360320Y-73299727D01*
X36517363Y-73534759D01*
X36717241Y-73734637D01*
X36952273Y-73891680D01*
X37213426Y-73999853D01*
X37490665Y-74055000D01*
X37773335Y-74055000D01*
X38050574Y-73999853D01*
X38311727Y-73891680D01*
X38546759Y-73734637D01*
X38746637Y-73534759D01*
X38853947Y-73374158D01*
X38906286Y-73369003D01*
X38939813Y-73358833D01*
X39057363Y-73534759D01*
X39257241Y-73734637D01*
X39417843Y-73841948D01*
X39422568Y-73889915D01*
X39422998Y-73894285D01*
X39466454Y-74037546D01*
X39537026Y-74169576D01*
X39602129Y-74248903D01*
X39632000Y-74285301D01*
X39660998Y-74309099D01*
X40537300Y-75185402D01*
X40537300Y-78849550D01*
X40313335Y-78805000D01*
X40030665Y-78805000D01*
X39753426Y-78860147D01*
X39492273Y-78968320D01*
X39257241Y-79125363D01*
X39057363Y-79325241D01*
X38902000Y-79557759D01*
X38746637Y-79325241D01*
X38546759Y-79125363D01*
X38311727Y-78968320D01*
X38050574Y-78860147D01*
X37773335Y-78805000D01*
X37490665Y-78805000D01*
X37213426Y-78860147D01*
X36952273Y-78968320D01*
X36717241Y-79125363D01*
X36517363Y-79325241D01*
X36362000Y-79557759D01*
X36206637Y-79325241D01*
X36006759Y-79125363D01*
X35771727Y-78968320D01*
X35510574Y-78860147D01*
X35233335Y-78805000D01*
X34950665Y-78805000D01*
X34673426Y-78860147D01*
X34412273Y-78968320D01*
X34177241Y-79125363D01*
X33977363Y-79325241D01*
X33820320Y-79560273D01*
X33712147Y-79821426D01*
X33657000Y-80098665D01*
X33657000Y-80381335D01*
X33712147Y-80658574D01*
X33820320Y-80919727D01*
X33977363Y-81154759D01*
X34177241Y-81354637D01*
X34207001Y-81374522D01*
X34207001Y-81446822D01*
X34202719Y-81490300D01*
X34219805Y-81663790D01*
X34270412Y-81830613D01*
X34352590Y-81984359D01*
X34435468Y-82085346D01*
X34435471Y-82085349D01*
X34463184Y-82119117D01*
X34496951Y-82146829D01*
X34992500Y-82642379D01*
X34992501Y-96618255D01*
X34855750Y-96619000D01*
X34697000Y-96777750D01*
X34697000Y-97977000D01*
X34717000Y-97977000D01*
X34717000Y-98231000D01*
X34697000Y-98231000D01*
X34697000Y-98251000D01*
X34443000Y-98251000D01*
X34443000Y-98231000D01*
X33243750Y-98231000D01*
X33085000Y-98389750D01*
X33081928Y-98954000D01*
X33094188Y-99078482D01*
X33130498Y-99198180D01*
X33189463Y-99308494D01*
X33268815Y-99405185D01*
X33365506Y-99484537D01*
X33475820Y-99543502D01*
X33548380Y-99565513D01*
X33416525Y-99697368D01*
X33254010Y-99940589D01*
X33142068Y-100210842D01*
X33085000Y-100497740D01*
X33085000Y-100790260D01*
X33142068Y-101077158D01*
X33254010Y-101347411D01*
X33416525Y-101590632D01*
X33623368Y-101797475D01*
X33797760Y-101914000D01*
X33623368Y-102030525D01*
X33416525Y-102237368D01*
X33254010Y-102480589D01*
X33142068Y-102750842D01*
X33085000Y-103037740D01*
X33085000Y-103330260D01*
X33141818Y-103615900D01*
X31259602Y-103615900D01*
X27292704Y-99649003D01*
X27268901Y-99619999D01*
X27153176Y-99525026D01*
X27021147Y-99454454D01*
X26877886Y-99410997D01*
X26839347Y-99407201D01*
X26704039Y-99204698D01*
X26495302Y-98995961D01*
X26336719Y-98890000D01*
X26495302Y-98784039D01*
X26704039Y-98575302D01*
X26868042Y-98329853D01*
X26981010Y-98057125D01*
X27038600Y-97767599D01*
X27038600Y-97472401D01*
X26995158Y-97254000D01*
X33081928Y-97254000D01*
X33085000Y-97818250D01*
X33243750Y-97977000D01*
X34443000Y-97977000D01*
X34443000Y-96777750D01*
X34284250Y-96619000D01*
X33720000Y-96615928D01*
X33595518Y-96628188D01*
X33475820Y-96664498D01*
X33365506Y-96723463D01*
X33268815Y-96802815D01*
X33189463Y-96899506D01*
X33130498Y-97009820D01*
X33094188Y-97129518D01*
X33081928Y-97254000D01*
X26995158Y-97254000D01*
X26981010Y-97182875D01*
X26868042Y-96910147D01*
X26704039Y-96664698D01*
X26495302Y-96455961D01*
X26336719Y-96350000D01*
X26495302Y-96244039D01*
X26704039Y-96035302D01*
X26868042Y-95789853D01*
X26981010Y-95517125D01*
X27038600Y-95227599D01*
X27038600Y-94932401D01*
X26981010Y-94642875D01*
X26868042Y-94370147D01*
X26723531Y-94153870D01*
X33359404Y-87517998D01*
X33388401Y-87494201D01*
X33427996Y-87445954D01*
X33483374Y-87378477D01*
X33553946Y-87246447D01*
X33568581Y-87198200D01*
X33597403Y-87103186D01*
X33608400Y-86991533D01*
X33608400Y-86991524D01*
X33612076Y-86954201D01*
X33608400Y-86916878D01*
X33608400Y-72895901D01*
X33757299Y-72747002D01*
X33821375Y-72747002D01*
X33700091Y-72969040D01*
X33794930Y-73233881D01*
X33939615Y-73475131D01*
X34128586Y-73683519D01*
X34354580Y-73851037D01*
X34608913Y-73971246D01*
X34742961Y-74011904D01*
X34965000Y-73889915D01*
X34965000Y-72747000D01*
X34945000Y-72747000D01*
X34945000Y-72493000D01*
X34965000Y-72493000D01*
X34965000Y-72473000D01*
X35219000Y-72473000D01*
X35219000Y-72493000D01*
G36*
X92017042Y-34438974D02*
G01*
X92138183Y-34671000D01*
X93345000Y-34671000D01*
X93345000Y-34651000D01*
X93599000Y-34651000D01*
X93599000Y-34671000D01*
X95885000Y-34671000D01*
X95885000Y-34651000D01*
X96139000Y-34651000D01*
X96139000Y-34671000D01*
X96159000Y-34671000D01*
X96159000Y-34925000D01*
X96139000Y-34925000D01*
X96139000Y-34945000D01*
X95885000Y-34945000D01*
X95885000Y-34925000D01*
X93599000Y-34925000D01*
X93599000Y-34945000D01*
X93345000Y-34945000D01*
X93345000Y-34925000D01*
X92138183Y-34925000D01*
X92017042Y-35157026D01*
X92062778Y-35307814D01*
X92189316Y-35572944D01*
X92365146Y-35808293D01*
X92583512Y-36004817D01*
X92682103Y-36063441D01*
X92516698Y-36173961D01*
X92307961Y-36382698D01*
X92172653Y-36585201D01*
X92134114Y-36588997D01*
X91990853Y-36632454D01*
X91858824Y-36703026D01*
X91743099Y-36797999D01*
X91648126Y-36913724D01*
X91577554Y-37045753D01*
X91534097Y-37189014D01*
X91519423Y-37338000D01*
X91523100Y-37375333D01*
X91523100Y-37524698D01*
X71524972Y-57522827D01*
X71334952Y-57560624D01*
X71146594Y-57638645D01*
X70977076Y-57751913D01*
X70832913Y-57896076D01*
X70719645Y-58065594D01*
X70641624Y-58253952D01*
X70601850Y-58453911D01*
X70601850Y-58516048D01*
X62480998Y-66636901D01*
X62452000Y-66660699D01*
X62428202Y-66689697D01*
X62428201Y-66689698D01*
X62357026Y-66776424D01*
X62297425Y-66887928D01*
X62192000Y-66887928D01*
X62067518Y-66900188D01*
X61947820Y-66936498D01*
X61837506Y-66995463D01*
X61740815Y-67074815D01*
X61661463Y-67171506D01*
X61602498Y-67281820D01*
X61566188Y-67401518D01*
X61553928Y-67526000D01*
X61553928Y-69126000D01*
X61566188Y-69250482D01*
X61602498Y-69370180D01*
X61661463Y-69480494D01*
X61740815Y-69577185D01*
X61837506Y-69656537D01*
X61947820Y-69715502D01*
X62067518Y-69751812D01*
X62075961Y-69752643D01*
X61877363Y-69951241D01*
X61720320Y-70186273D01*
X61612147Y-70447426D01*
X61557000Y-70724665D01*
X61557000Y-71007335D01*
X61612147Y-71284574D01*
X61720320Y-71545727D01*
X61877363Y-71780759D01*
X62077241Y-71980637D01*
X62253167Y-72098187D01*
X62242997Y-72131714D01*
X62237842Y-72184053D01*
X62077241Y-72291363D01*
X61877363Y-72491241D01*
X61720320Y-72726273D01*
X61612147Y-72987426D01*
X61557000Y-73264665D01*
X61557000Y-73547335D01*
X61612147Y-73824574D01*
X61720320Y-74085727D01*
X61877363Y-74320759D01*
X62077241Y-74520637D01*
X62309759Y-74676000D01*
X62077241Y-74831363D01*
X61877363Y-75031241D01*
X61720320Y-75266273D01*
X61612147Y-75527426D01*
X61557000Y-75804665D01*
X61557000Y-76087335D01*
X61612147Y-76364574D01*
X61720320Y-76625727D01*
X61877363Y-76860759D01*
X61900101Y-76883497D01*
X61355702Y-77427897D01*
X61326699Y-77451699D01*
X61284864Y-77502676D01*
X61231726Y-77567424D01*
X61182722Y-77659103D01*
X61161154Y-77699454D01*
X61117697Y-77842715D01*
X61106700Y-77954368D01*
X61106700Y-77954378D01*
X61103024Y-77991700D01*
X61106700Y-78029023D01*
X61106701Y-81559468D01*
X61103024Y-81596800D01*
X61106701Y-81634133D01*
X61117698Y-81745786D01*
X61123804Y-81765914D01*
X61161154Y-81889046D01*
X61231726Y-82021076D01*
X61266859Y-82063885D01*
X61326700Y-82136801D01*
X61355698Y-82160599D01*
X61864937Y-82669838D01*
X61720320Y-82886273D01*
X61612147Y-83147426D01*
X61557000Y-83424665D01*
X61557000Y-83707335D01*
X61612147Y-83984574D01*
X61651653Y-84079951D01*
X61580114Y-84086997D01*
X61436853Y-84130454D01*
X61304823Y-84201026D01*
X61221183Y-84269668D01*
X61189099Y-84295999D01*
X61165301Y-84324997D01*
X58264300Y-87225999D01*
X58264300Y-68285923D01*
X58267976Y-68248600D01*
X58264300Y-68211277D01*
X58264300Y-68211267D01*
X58253303Y-68099614D01*
X58209846Y-67956353D01*
X58139274Y-67824324D01*
X58044301Y-67708599D01*
X58015304Y-67684802D01*
X55152000Y-64821499D01*
X55152000Y-60081983D01*
X55243426Y-60119853D01*
X55520665Y-60175000D01*
X55803335Y-60175000D01*
X56080574Y-60119853D01*
X56341727Y-60011680D01*
X56576759Y-59854637D01*
X56776637Y-59654759D01*
X56933680Y-59419727D01*
X57041853Y-59158574D01*
X57097000Y-58881335D01*
X57097000Y-58598665D01*
X57041853Y-58321426D01*
X56933680Y-58060273D01*
X56776637Y-57825241D01*
X56576759Y-57625363D01*
X56341727Y-57468320D01*
X56080574Y-57360147D01*
X55803335Y-57305000D01*
X55520665Y-57305000D01*
X55243426Y-57360147D01*
X54982273Y-57468320D01*
X54747241Y-57625363D01*
X54736953Y-57635651D01*
X49718600Y-52617299D01*
X49718600Y-52555161D01*
X49678826Y-52355202D01*
X49601765Y-52169161D01*
X49667241Y-52234637D01*
X49902273Y-52391680D01*
X50163426Y-52499853D01*
X50440665Y-52555000D01*
X50723335Y-52555000D01*
X51000574Y-52499853D01*
X51261727Y-52391680D01*
X51496759Y-52234637D01*
X51696637Y-52034759D01*
X51803947Y-51874158D01*
X51856286Y-51869003D01*
X51889813Y-51858833D01*
X52007363Y-52034759D01*
X52207241Y-52234637D01*
X52442273Y-52391680D01*
X52703426Y-52499853D01*
X52980665Y-52555000D01*
X53263335Y-52555000D01*
X53540574Y-52499853D01*
X53801727Y-52391680D01*
X54036759Y-52234637D01*
X54235357Y-52036039D01*
X54236188Y-52044482D01*
X54272498Y-52164180D01*
X54331463Y-52274494D01*
X54410815Y-52371185D01*
X54507506Y-52450537D01*
X54617820Y-52509502D01*
X54737518Y-52545812D01*
X54862000Y-52558072D01*
X56462000Y-52558072D01*
X56586482Y-52545812D01*
X56706180Y-52509502D01*
X56816494Y-52450537D01*
X56913185Y-52371185D01*
X56992537Y-52274494D01*
X57051502Y-52164180D01*
X57087812Y-52044482D01*
X57100072Y-51920000D01*
X57100072Y-51814575D01*
X57211576Y-51754974D01*
X57327301Y-51660001D01*
X57351104Y-51630997D01*
X64605000Y-44377102D01*
X64605000Y-44591335D01*
X64660147Y-44868574D01*
X64768320Y-45129727D01*
X64925363Y-45364759D01*
X65125241Y-45564637D01*
X65357759Y-45720000D01*
X65125241Y-45875363D01*
X64925363Y-46075241D01*
X64768320Y-46310273D01*
X64660147Y-46571426D01*
X64605000Y-46848665D01*
X64605000Y-47131335D01*
X64660147Y-47408574D01*
X64768320Y-47669727D01*
X64925363Y-47904759D01*
X65125241Y-48104637D01*
X65357759Y-48260000D01*
X65125241Y-48415363D01*
X64925363Y-48615241D01*
X64768320Y-48850273D01*
X64660147Y-49111426D01*
X64605000Y-49388665D01*
X64605000Y-49671335D01*
X64660147Y-49948574D01*
X64768320Y-50209727D01*
X64925363Y-50444759D01*
X65125241Y-50644637D01*
X65357759Y-50800000D01*
X65125241Y-50955363D01*
X64925363Y-51155241D01*
X64768320Y-51390273D01*
X64660147Y-51651426D01*
X64605000Y-51928665D01*
X64605000Y-52211335D01*
X64660147Y-52488574D01*
X64768320Y-52749727D01*
X64925363Y-52984759D01*
X65125241Y-53184637D01*
X65360273Y-53341680D01*
X65621426Y-53449853D01*
X65898665Y-53505000D01*
X66181335Y-53505000D01*
X66458574Y-53449853D01*
X66719727Y-53341680D01*
X66954759Y-53184637D01*
X67154637Y-52984759D01*
X67311680Y-52749727D01*
X67419853Y-52488574D01*
X67475000Y-52211335D01*
X67475000Y-51928665D01*
X67419853Y-51651426D01*
X67311680Y-51390273D01*
X67154637Y-51155241D01*
X66954759Y-50955363D01*
X66722241Y-50800000D01*
X66954759Y-50644637D01*
X67154637Y-50444759D01*
X67261947Y-50284158D01*
X67314286Y-50279003D01*
X67457547Y-50235546D01*
X67589576Y-50164974D01*
X67705301Y-50070001D01*
X67800274Y-49954276D01*
X67870846Y-49822247D01*
X67914303Y-49678986D01*
X67925719Y-49563082D01*
X72379754Y-45109047D01*
X72388320Y-45129727D01*
X72545363Y-45364759D01*
X72745241Y-45564637D01*
X72977759Y-45720000D01*
X72745241Y-45875363D01*
X72545363Y-46075241D01*
X72388320Y-46310273D01*
X72280147Y-46571426D01*
X72225000Y-46848665D01*
X72225000Y-47131335D01*
X72280147Y-47408574D01*
X72388320Y-47669727D01*
X72545363Y-47904759D01*
X72745241Y-48104637D01*
X72977759Y-48260000D01*
X72745241Y-48415363D01*
X72545363Y-48615241D01*
X72388320Y-48850273D01*
X72280147Y-49111426D01*
X72225000Y-49388665D01*
X72225000Y-49671335D01*
X72280147Y-49948574D01*
X72388320Y-50209727D01*
X72545363Y-50444759D01*
X72745241Y-50644637D01*
X72977759Y-50800000D01*
X72745241Y-50955363D01*
X72545363Y-51155241D01*
X72388320Y-51390273D01*
X72280147Y-51651426D01*
X72225000Y-51928665D01*
X72225000Y-52211335D01*
X72280147Y-52488574D01*
X72388320Y-52749727D01*
X72545363Y-52984759D01*
X72745241Y-53184637D01*
X72980273Y-53341680D01*
X73241426Y-53449853D01*
X73518665Y-53505000D01*
X73801335Y-53505000D01*
X74078574Y-53449853D01*
X74339727Y-53341680D01*
X74574759Y-53184637D01*
X74774637Y-52984759D01*
X74931680Y-52749727D01*
X75039853Y-52488574D01*
X75095000Y-52211335D01*
X75095000Y-51928665D01*
X75039853Y-51651426D01*
X74931680Y-51390273D01*
X74774637Y-51155241D01*
X74574759Y-50955363D01*
X74342241Y-50800000D01*
X74574759Y-50644637D01*
X74774637Y-50444759D01*
X74931680Y-50209727D01*
X75039853Y-49948574D01*
X75095000Y-49671335D01*
X75095000Y-49388665D01*
X75039853Y-49111426D01*
X74931680Y-48850273D01*
X74774637Y-48615241D01*
X74574759Y-48415363D01*
X74342241Y-48260000D01*
X74574759Y-48104637D01*
X74774637Y-47904759D01*
X74931680Y-47669727D01*
X75039853Y-47408574D01*
X75095000Y-47131335D01*
X75095000Y-46848665D01*
X75039853Y-46571426D01*
X74931680Y-46310273D01*
X74774637Y-46075241D01*
X74574759Y-45875363D01*
X74342241Y-45720000D01*
X74574759Y-45564637D01*
X74774637Y-45364759D01*
X74931680Y-45129727D01*
X75039853Y-44868574D01*
X75095000Y-44591335D01*
X75095000Y-44308665D01*
X75039853Y-44031426D01*
X75001983Y-43940000D01*
X76279078Y-43940000D01*
X76316400Y-43943676D01*
X76353722Y-43940000D01*
X76353733Y-43940000D01*
X76465386Y-43929003D01*
X76608647Y-43885546D01*
X76740676Y-43814974D01*
X76856401Y-43720001D01*
X76880204Y-43690997D01*
X86232102Y-34339100D01*
X92047335Y-34339100D01*
X92017042Y-34438974D01*
G37*
X92017042Y-34438974D02*
X92138183Y-34671000D01*
X93345000Y-34671000D01*
X93345000Y-34651000D01*
X93599000Y-34651000D01*
X93599000Y-34671000D01*
X95885000Y-34671000D01*
X95885000Y-34651000D01*
X96139000Y-34651000D01*
X96139000Y-34671000D01*
X96159000Y-34671000D01*
X96159000Y-34925000D01*
X96139000Y-34925000D01*
X96139000Y-34945000D01*
X95885000Y-34945000D01*
X95885000Y-34925000D01*
X93599000Y-34925000D01*
X93599000Y-34945000D01*
X93345000Y-34945000D01*
X93345000Y-34925000D01*
X92138183Y-34925000D01*
X92017042Y-35157026D01*
X92062778Y-35307814D01*
X92189316Y-35572944D01*
X92365146Y-35808293D01*
X92583512Y-36004817D01*
X92682103Y-36063441D01*
X92516698Y-36173961D01*
X92307961Y-36382698D01*
X92172653Y-36585201D01*
X92134114Y-36588997D01*
X91990853Y-36632454D01*
X91858824Y-36703026D01*
X91743099Y-36797999D01*
X91648126Y-36913724D01*
X91577554Y-37045753D01*
X91534097Y-37189014D01*
X91519423Y-37338000D01*
X91523100Y-37375333D01*
X91523100Y-37524698D01*
X71524972Y-57522827D01*
X71334952Y-57560624D01*
X71146594Y-57638645D01*
X70977076Y-57751913D01*
X70832913Y-57896076D01*
X70719645Y-58065594D01*
X70641624Y-58253952D01*
X70601850Y-58453911D01*
X70601850Y-58516048D01*
X62480998Y-66636901D01*
X62452000Y-66660699D01*
X62428202Y-66689697D01*
X62428201Y-66689698D01*
X62357026Y-66776424D01*
X62297425Y-66887928D01*
X62192000Y-66887928D01*
X62067518Y-66900188D01*
X61947820Y-66936498D01*
X61837506Y-66995463D01*
X61740815Y-67074815D01*
X61661463Y-67171506D01*
X61602498Y-67281820D01*
X61566188Y-67401518D01*
X61553928Y-67526000D01*
X61553928Y-69126000D01*
X61566188Y-69250482D01*
X61602498Y-69370180D01*
X61661463Y-69480494D01*
X61740815Y-69577185D01*
X61837506Y-69656537D01*
X61947820Y-69715502D01*
X62067518Y-69751812D01*
X62075961Y-69752643D01*
X61877363Y-69951241D01*
X61720320Y-70186273D01*
X61612147Y-70447426D01*
X61557000Y-70724665D01*
X61557000Y-71007335D01*
X61612147Y-71284574D01*
X61720320Y-71545727D01*
X61877363Y-71780759D01*
X62077241Y-71980637D01*
X62253167Y-72098187D01*
X62242997Y-72131714D01*
X62237842Y-72184053D01*
X62077241Y-72291363D01*
X61877363Y-72491241D01*
X61720320Y-72726273D01*
X61612147Y-72987426D01*
X61557000Y-73264665D01*
X61557000Y-73547335D01*
X61612147Y-73824574D01*
X61720320Y-74085727D01*
X61877363Y-74320759D01*
X62077241Y-74520637D01*
X62309759Y-74676000D01*
X62077241Y-74831363D01*
X61877363Y-75031241D01*
X61720320Y-75266273D01*
X61612147Y-75527426D01*
X61557000Y-75804665D01*
X61557000Y-76087335D01*
X61612147Y-76364574D01*
X61720320Y-76625727D01*
X61877363Y-76860759D01*
X61900101Y-76883497D01*
X61355702Y-77427897D01*
X61326699Y-77451699D01*
X61284864Y-77502676D01*
X61231726Y-77567424D01*
X61182722Y-77659103D01*
X61161154Y-77699454D01*
X61117697Y-77842715D01*
X61106700Y-77954368D01*
X61106700Y-77954378D01*
X61103024Y-77991700D01*
X61106700Y-78029023D01*
X61106701Y-81559468D01*
X61103024Y-81596800D01*
X61106701Y-81634133D01*
X61117698Y-81745786D01*
X61123804Y-81765914D01*
X61161154Y-81889046D01*
X61231726Y-82021076D01*
X61266859Y-82063885D01*
X61326700Y-82136801D01*
X61355698Y-82160599D01*
X61864937Y-82669838D01*
X61720320Y-82886273D01*
X61612147Y-83147426D01*
X61557000Y-83424665D01*
X61557000Y-83707335D01*
X61612147Y-83984574D01*
X61651653Y-84079951D01*
X61580114Y-84086997D01*
X61436853Y-84130454D01*
X61304823Y-84201026D01*
X61221183Y-84269668D01*
X61189099Y-84295999D01*
X61165301Y-84324997D01*
X58264300Y-87225999D01*
X58264300Y-68285923D01*
X58267976Y-68248600D01*
X58264300Y-68211277D01*
X58264300Y-68211267D01*
X58253303Y-68099614D01*
X58209846Y-67956353D01*
X58139274Y-67824324D01*
X58044301Y-67708599D01*
X58015304Y-67684802D01*
X55152000Y-64821499D01*
X55152000Y-60081983D01*
X55243426Y-60119853D01*
X55520665Y-60175000D01*
X55803335Y-60175000D01*
X56080574Y-60119853D01*
X56341727Y-60011680D01*
X56576759Y-59854637D01*
X56776637Y-59654759D01*
X56933680Y-59419727D01*
X57041853Y-59158574D01*
X57097000Y-58881335D01*
X57097000Y-58598665D01*
X57041853Y-58321426D01*
X56933680Y-58060273D01*
X56776637Y-57825241D01*
X56576759Y-57625363D01*
X56341727Y-57468320D01*
X56080574Y-57360147D01*
X55803335Y-57305000D01*
X55520665Y-57305000D01*
X55243426Y-57360147D01*
X54982273Y-57468320D01*
X54747241Y-57625363D01*
X54736953Y-57635651D01*
X49718600Y-52617299D01*
X49718600Y-52555161D01*
X49678826Y-52355202D01*
X49601765Y-52169161D01*
X49667241Y-52234637D01*
X49902273Y-52391680D01*
X50163426Y-52499853D01*
X50440665Y-52555000D01*
X50723335Y-52555000D01*
X51000574Y-52499853D01*
X51261727Y-52391680D01*
X51496759Y-52234637D01*
X51696637Y-52034759D01*
X51803947Y-51874158D01*
X51856286Y-51869003D01*
X51889813Y-51858833D01*
X52007363Y-52034759D01*
X52207241Y-52234637D01*
X52442273Y-52391680D01*
X52703426Y-52499853D01*
X52980665Y-52555000D01*
X53263335Y-52555000D01*
X53540574Y-52499853D01*
X53801727Y-52391680D01*
X54036759Y-52234637D01*
X54235357Y-52036039D01*
X54236188Y-52044482D01*
X54272498Y-52164180D01*
X54331463Y-52274494D01*
X54410815Y-52371185D01*
X54507506Y-52450537D01*
X54617820Y-52509502D01*
X54737518Y-52545812D01*
X54862000Y-52558072D01*
X56462000Y-52558072D01*
X56586482Y-52545812D01*
X56706180Y-52509502D01*
X56816494Y-52450537D01*
X56913185Y-52371185D01*
X56992537Y-52274494D01*
X57051502Y-52164180D01*
X57087812Y-52044482D01*
X57100072Y-51920000D01*
X57100072Y-51814575D01*
X57211576Y-51754974D01*
X57327301Y-51660001D01*
X57351104Y-51630997D01*
X64605000Y-44377102D01*
X64605000Y-44591335D01*
X64660147Y-44868574D01*
X64768320Y-45129727D01*
X64925363Y-45364759D01*
X65125241Y-45564637D01*
X65357759Y-45720000D01*
X65125241Y-45875363D01*
X64925363Y-46075241D01*
X64768320Y-46310273D01*
X64660147Y-46571426D01*
X64605000Y-46848665D01*
X64605000Y-47131335D01*
X64660147Y-47408574D01*
X64768320Y-47669727D01*
X64925363Y-47904759D01*
X65125241Y-48104637D01*
X65357759Y-48260000D01*
X65125241Y-48415363D01*
X64925363Y-48615241D01*
X64768320Y-48850273D01*
X64660147Y-49111426D01*
X64605000Y-49388665D01*
X64605000Y-49671335D01*
X64660147Y-49948574D01*
X64768320Y-50209727D01*
X64925363Y-50444759D01*
X65125241Y-50644637D01*
X65357759Y-50800000D01*
X65125241Y-50955363D01*
X64925363Y-51155241D01*
X64768320Y-51390273D01*
X64660147Y-51651426D01*
X64605000Y-51928665D01*
X64605000Y-52211335D01*
X64660147Y-52488574D01*
X64768320Y-52749727D01*
X64925363Y-52984759D01*
X65125241Y-53184637D01*
X65360273Y-53341680D01*
X65621426Y-53449853D01*
X65898665Y-53505000D01*
X66181335Y-53505000D01*
X66458574Y-53449853D01*
X66719727Y-53341680D01*
X66954759Y-53184637D01*
X67154637Y-52984759D01*
X67311680Y-52749727D01*
X67419853Y-52488574D01*
X67475000Y-52211335D01*
X67475000Y-51928665D01*
X67419853Y-51651426D01*
X67311680Y-51390273D01*
X67154637Y-51155241D01*
X66954759Y-50955363D01*
X66722241Y-50800000D01*
X66954759Y-50644637D01*
X67154637Y-50444759D01*
X67261947Y-50284158D01*
X67314286Y-50279003D01*
X67457547Y-50235546D01*
X67589576Y-50164974D01*
X67705301Y-50070001D01*
X67800274Y-49954276D01*
X67870846Y-49822247D01*
X67914303Y-49678986D01*
X67925719Y-49563082D01*
X72379754Y-45109047D01*
X72388320Y-45129727D01*
X72545363Y-45364759D01*
X72745241Y-45564637D01*
X72977759Y-45720000D01*
X72745241Y-45875363D01*
X72545363Y-46075241D01*
X72388320Y-46310273D01*
X72280147Y-46571426D01*
X72225000Y-46848665D01*
X72225000Y-47131335D01*
X72280147Y-47408574D01*
X72388320Y-47669727D01*
X72545363Y-47904759D01*
X72745241Y-48104637D01*
X72977759Y-48260000D01*
X72745241Y-48415363D01*
X72545363Y-48615241D01*
X72388320Y-48850273D01*
X72280147Y-49111426D01*
X72225000Y-49388665D01*
X72225000Y-49671335D01*
X72280147Y-49948574D01*
X72388320Y-50209727D01*
X72545363Y-50444759D01*
X72745241Y-50644637D01*
X72977759Y-50800000D01*
X72745241Y-50955363D01*
X72545363Y-51155241D01*
X72388320Y-51390273D01*
X72280147Y-51651426D01*
X72225000Y-51928665D01*
X72225000Y-52211335D01*
X72280147Y-52488574D01*
X72388320Y-52749727D01*
X72545363Y-52984759D01*
X72745241Y-53184637D01*
X72980273Y-53341680D01*
X73241426Y-53449853D01*
X73518665Y-53505000D01*
X73801335Y-53505000D01*
X74078574Y-53449853D01*
X74339727Y-53341680D01*
X74574759Y-53184637D01*
X74774637Y-52984759D01*
X74931680Y-52749727D01*
X75039853Y-52488574D01*
X75095000Y-52211335D01*
X75095000Y-51928665D01*
X75039853Y-51651426D01*
X74931680Y-51390273D01*
X74774637Y-51155241D01*
X74574759Y-50955363D01*
X74342241Y-50800000D01*
X74574759Y-50644637D01*
X74774637Y-50444759D01*
X74931680Y-50209727D01*
X75039853Y-49948574D01*
X75095000Y-49671335D01*
X75095000Y-49388665D01*
X75039853Y-49111426D01*
X74931680Y-48850273D01*
X74774637Y-48615241D01*
X74574759Y-48415363D01*
X74342241Y-48260000D01*
X74574759Y-48104637D01*
X74774637Y-47904759D01*
X74931680Y-47669727D01*
X75039853Y-47408574D01*
X75095000Y-47131335D01*
X75095000Y-46848665D01*
X75039853Y-46571426D01*
X74931680Y-46310273D01*
X74774637Y-46075241D01*
X74574759Y-45875363D01*
X74342241Y-45720000D01*
X74574759Y-45564637D01*
X74774637Y-45364759D01*
X74931680Y-45129727D01*
X75039853Y-44868574D01*
X75095000Y-44591335D01*
X75095000Y-44308665D01*
X75039853Y-44031426D01*
X75001983Y-43940000D01*
X76279078Y-43940000D01*
X76316400Y-43943676D01*
X76353722Y-43940000D01*
X76353733Y-43940000D01*
X76465386Y-43929003D01*
X76608647Y-43885546D01*
X76740676Y-43814974D01*
X76856401Y-43720001D01*
X76880204Y-43690997D01*
X86232102Y-34339100D01*
X92047335Y-34339100D01*
X92017042Y-34438974D01*
G36*
X72062405Y-82425908D02*
G01*
X72086199Y-82454901D01*
X72115192Y-82478695D01*
X72115196Y-82478699D01*
X72166648Y-82520924D01*
X72201924Y-82549874D01*
X72333953Y-82620446D01*
X72477214Y-82663903D01*
X72588867Y-82674900D01*
X72588876Y-82674900D01*
X72626199Y-82678576D01*
X72663522Y-82674900D01*
X76699547Y-82674900D01*
X76626754Y-82828913D01*
X76586096Y-82962961D01*
X76708085Y-83185000D01*
X77851000Y-83185000D01*
X77851000Y-83165000D01*
X78105000Y-83165000D01*
X78105000Y-83185000D01*
X78125000Y-83185000D01*
X78125000Y-83439000D01*
X78105000Y-83439000D01*
X78105000Y-83459000D01*
X77851000Y-83459000D01*
X77851000Y-83439000D01*
X76708085Y-83439000D01*
X76586096Y-83661039D01*
X76626754Y-83795087D01*
X76746963Y-84049420D01*
X76914481Y-84275414D01*
X77122869Y-84464385D01*
X77302177Y-84571922D01*
X76528099Y-85346000D01*
X71830043Y-85346000D01*
X71726637Y-85191241D01*
X71526759Y-84991363D01*
X71294241Y-84836000D01*
X71526759Y-84680637D01*
X71726637Y-84480759D01*
X71883680Y-84245727D01*
X71991853Y-83984574D01*
X72047000Y-83707335D01*
X72047000Y-83424665D01*
X71991853Y-83147426D01*
X71883680Y-82886273D01*
X71726637Y-82651241D01*
X71526759Y-82451363D01*
X71294241Y-82296000D01*
X71526759Y-82140637D01*
X71651947Y-82015449D01*
X72062405Y-82425908D01*
G37*
X72062405Y-82425908D02*
X72086199Y-82454901D01*
X72115192Y-82478695D01*
X72115196Y-82478699D01*
X72166648Y-82520924D01*
X72201924Y-82549874D01*
X72333953Y-82620446D01*
X72477214Y-82663903D01*
X72588867Y-82674900D01*
X72588876Y-82674900D01*
X72626199Y-82678576D01*
X72663522Y-82674900D01*
X76699547Y-82674900D01*
X76626754Y-82828913D01*
X76586096Y-82962961D01*
X76708085Y-83185000D01*
X77851000Y-83185000D01*
X77851000Y-83165000D01*
X78105000Y-83165000D01*
X78105000Y-83185000D01*
X78125000Y-83185000D01*
X78125000Y-83439000D01*
X78105000Y-83439000D01*
X78105000Y-83459000D01*
X77851000Y-83459000D01*
X77851000Y-83439000D01*
X76708085Y-83439000D01*
X76586096Y-83661039D01*
X76626754Y-83795087D01*
X76746963Y-84049420D01*
X76914481Y-84275414D01*
X77122869Y-84464385D01*
X77302177Y-84571922D01*
X76528099Y-85346000D01*
X71830043Y-85346000D01*
X71726637Y-85191241D01*
X71526759Y-84991363D01*
X71294241Y-84836000D01*
X71526759Y-84680637D01*
X71726637Y-84480759D01*
X71883680Y-84245727D01*
X71991853Y-83984574D01*
X72047000Y-83707335D01*
X72047000Y-83424665D01*
X71991853Y-83147426D01*
X71883680Y-82886273D01*
X71726637Y-82651241D01*
X71526759Y-82451363D01*
X71294241Y-82296000D01*
X71526759Y-82140637D01*
X71651947Y-82015449D01*
X72062405Y-82425908D01*
G36*
X23127000Y-77173000D02*
G01*
X23147000Y-77173000D01*
X23147000Y-77427000D01*
X23127000Y-77427000D01*
X23127000Y-77447000D01*
X22873000Y-77447000D01*
X22873000Y-77427000D01*
X22853000Y-77427000D01*
X22853000Y-77173000D01*
X22873000Y-77173000D01*
X22873000Y-77153000D01*
X23127000Y-77153000D01*
X23127000Y-77173000D01*
G37*
X23127000Y-77173000D02*
X23147000Y-77173000D01*
X23147000Y-77427000D01*
X23127000Y-77427000D01*
X23127000Y-77447000D01*
X22873000Y-77447000D01*
X22873000Y-77427000D01*
X22853000Y-77427000D01*
X22853000Y-77173000D01*
X22873000Y-77173000D01*
X22873000Y-77153000D01*
X23127000Y-77153000D01*
X23127000Y-77173000D01*
G36*
X105493100Y-46705002D02*
G01*
X105493101Y-49553777D01*
X105187750Y-49555400D01*
X105029000Y-49714150D01*
X105029000Y-50927000D01*
X105049000Y-50927000D01*
X105049000Y-51181000D01*
X105029000Y-51181000D01*
X105029000Y-53467000D01*
X105049000Y-53467000D01*
X105049000Y-53721000D01*
X105029000Y-53721000D01*
X105029000Y-56007000D01*
X105049000Y-56007000D01*
X105049000Y-56261000D01*
X105029000Y-56261000D01*
X105029000Y-56281000D01*
X104775000Y-56281000D01*
X104775000Y-56261000D01*
X103568183Y-56261000D01*
X103447042Y-56493026D01*
X103492778Y-56643814D01*
X103619316Y-56908944D01*
X103795146Y-57144293D01*
X104013512Y-57340817D01*
X104112103Y-57399441D01*
X103946698Y-57509961D01*
X103737961Y-57718698D01*
X103573958Y-57964147D01*
X103460990Y-58236875D01*
X103403400Y-58526401D01*
X103403400Y-58821599D01*
X103460990Y-59111125D01*
X103573958Y-59383853D01*
X103737961Y-59629302D01*
X103946698Y-59838039D01*
X104105281Y-59944000D01*
X103946698Y-60049961D01*
X103737961Y-60258698D01*
X103573958Y-60504147D01*
X103460990Y-60776875D01*
X103403400Y-61066401D01*
X103403400Y-61361599D01*
X103460990Y-61651125D01*
X103573958Y-61923853D01*
X103718429Y-62140070D01*
X103202098Y-62656401D01*
X103173100Y-62680199D01*
X103149302Y-62709197D01*
X103149301Y-62709198D01*
X103078126Y-62795924D01*
X103007554Y-62927954D01*
X102964098Y-63071215D01*
X102949424Y-63220200D01*
X102953101Y-63257532D01*
X102953100Y-66572797D01*
X97339125Y-72186774D01*
X97195531Y-71971870D01*
X101029704Y-68137698D01*
X101058701Y-68113901D01*
X101087343Y-68079001D01*
X101153674Y-67998177D01*
X101224246Y-67866147D01*
X101236932Y-67824325D01*
X101267703Y-67722886D01*
X101278700Y-67611233D01*
X101278700Y-67611223D01*
X101282376Y-67573900D01*
X101278700Y-67536577D01*
X101278700Y-53953026D01*
X103447042Y-53953026D01*
X103492778Y-54103814D01*
X103619316Y-54368944D01*
X103795146Y-54604293D01*
X104013512Y-54800817D01*
X104119770Y-54864000D01*
X104013512Y-54927183D01*
X103795146Y-55123707D01*
X103619316Y-55359056D01*
X103492778Y-55624186D01*
X103447042Y-55774974D01*
X103568183Y-56007000D01*
X104775000Y-56007000D01*
X104775000Y-53721000D01*
X103568183Y-53721000D01*
X103447042Y-53953026D01*
X101278700Y-53953026D01*
X101278700Y-51917600D01*
X103400328Y-51917600D01*
X103412588Y-52042082D01*
X103448898Y-52161780D01*
X103507863Y-52272094D01*
X103587215Y-52368785D01*
X103683906Y-52448137D01*
X103794220Y-52507102D01*
X103858574Y-52526624D01*
X103795146Y-52583707D01*
X103619316Y-52819056D01*
X103492778Y-53084186D01*
X103447042Y-53234974D01*
X103568183Y-53467000D01*
X104775000Y-53467000D01*
X104775000Y-51181000D01*
X103562150Y-51181000D01*
X103403400Y-51339750D01*
X103400328Y-51917600D01*
X101278700Y-51917600D01*
X101278700Y-50190400D01*
X103400328Y-50190400D01*
X103403400Y-50768250D01*
X103562150Y-50927000D01*
X104775000Y-50927000D01*
X104775000Y-49714150D01*
X104616250Y-49555400D01*
X104038400Y-49552328D01*
X103913918Y-49564588D01*
X103794220Y-49600898D01*
X103683906Y-49659863D01*
X103587215Y-49739215D01*
X103507863Y-49835906D01*
X103448898Y-49946220D01*
X103412588Y-50065918D01*
X103400328Y-50190400D01*
X101278700Y-50190400D01*
X101278700Y-42490602D01*
X105493100Y-46705002D01*
G37*
X105493100Y-46705002D02*
X105493101Y-49553777D01*
X105187750Y-49555400D01*
X105029000Y-49714150D01*
X105029000Y-50927000D01*
X105049000Y-50927000D01*
X105049000Y-51181000D01*
X105029000Y-51181000D01*
X105029000Y-53467000D01*
X105049000Y-53467000D01*
X105049000Y-53721000D01*
X105029000Y-53721000D01*
X105029000Y-56007000D01*
X105049000Y-56007000D01*
X105049000Y-56261000D01*
X105029000Y-56261000D01*
X105029000Y-56281000D01*
X104775000Y-56281000D01*
X104775000Y-56261000D01*
X103568183Y-56261000D01*
X103447042Y-56493026D01*
X103492778Y-56643814D01*
X103619316Y-56908944D01*
X103795146Y-57144293D01*
X104013512Y-57340817D01*
X104112103Y-57399441D01*
X103946698Y-57509961D01*
X103737961Y-57718698D01*
X103573958Y-57964147D01*
X103460990Y-58236875D01*
X103403400Y-58526401D01*
X103403400Y-58821599D01*
X103460990Y-59111125D01*
X103573958Y-59383853D01*
X103737961Y-59629302D01*
X103946698Y-59838039D01*
X104105281Y-59944000D01*
X103946698Y-60049961D01*
X103737961Y-60258698D01*
X103573958Y-60504147D01*
X103460990Y-60776875D01*
X103403400Y-61066401D01*
X103403400Y-61361599D01*
X103460990Y-61651125D01*
X103573958Y-61923853D01*
X103718429Y-62140070D01*
X103202098Y-62656401D01*
X103173100Y-62680199D01*
X103149302Y-62709197D01*
X103149301Y-62709198D01*
X103078126Y-62795924D01*
X103007554Y-62927954D01*
X102964098Y-63071215D01*
X102949424Y-63220200D01*
X102953101Y-63257532D01*
X102953100Y-66572797D01*
X97339125Y-72186774D01*
X97195531Y-71971870D01*
X101029704Y-68137698D01*
X101058701Y-68113901D01*
X101087343Y-68079001D01*
X101153674Y-67998177D01*
X101224246Y-67866147D01*
X101236932Y-67824325D01*
X101267703Y-67722886D01*
X101278700Y-67611233D01*
X101278700Y-67611223D01*
X101282376Y-67573900D01*
X101278700Y-67536577D01*
X101278700Y-53953026D01*
X103447042Y-53953026D01*
X103492778Y-54103814D01*
X103619316Y-54368944D01*
X103795146Y-54604293D01*
X104013512Y-54800817D01*
X104119770Y-54864000D01*
X104013512Y-54927183D01*
X103795146Y-55123707D01*
X103619316Y-55359056D01*
X103492778Y-55624186D01*
X103447042Y-55774974D01*
X103568183Y-56007000D01*
X104775000Y-56007000D01*
X104775000Y-53721000D01*
X103568183Y-53721000D01*
X103447042Y-53953026D01*
X101278700Y-53953026D01*
X101278700Y-51917600D01*
X103400328Y-51917600D01*
X103412588Y-52042082D01*
X103448898Y-52161780D01*
X103507863Y-52272094D01*
X103587215Y-52368785D01*
X103683906Y-52448137D01*
X103794220Y-52507102D01*
X103858574Y-52526624D01*
X103795146Y-52583707D01*
X103619316Y-52819056D01*
X103492778Y-53084186D01*
X103447042Y-53234974D01*
X103568183Y-53467000D01*
X104775000Y-53467000D01*
X104775000Y-51181000D01*
X103562150Y-51181000D01*
X103403400Y-51339750D01*
X103400328Y-51917600D01*
X101278700Y-51917600D01*
X101278700Y-50190400D01*
X103400328Y-50190400D01*
X103403400Y-50768250D01*
X103562150Y-50927000D01*
X104775000Y-50927000D01*
X104775000Y-49714150D01*
X104616250Y-49555400D01*
X104038400Y-49552328D01*
X103913918Y-49564588D01*
X103794220Y-49600898D01*
X103683906Y-49659863D01*
X103587215Y-49739215D01*
X103507863Y-49835906D01*
X103448898Y-49946220D01*
X103412588Y-50065918D01*
X103400328Y-50190400D01*
X101278700Y-50190400D01*
X101278700Y-42490602D01*
X105493100Y-46705002D01*
G36*
X26890246Y-69023752D02*
G01*
X26868042Y-68970147D01*
X26704039Y-68724698D01*
X26495302Y-68515961D01*
X26336719Y-68410000D01*
X26495302Y-68304039D01*
X26704039Y-68095302D01*
X26868042Y-67849853D01*
X26981010Y-67577125D01*
X27038600Y-67287599D01*
X27038600Y-66992401D01*
X26981010Y-66702875D01*
X26950824Y-66630000D01*
X28816578Y-66630000D01*
X28853900Y-66633676D01*
X28891222Y-66630000D01*
X28891233Y-66630000D01*
X29002886Y-66619003D01*
X29146147Y-66575546D01*
X29278176Y-66504974D01*
X29393901Y-66410001D01*
X29417704Y-66380997D01*
X31721302Y-64077400D01*
X31783439Y-64077400D01*
X31849797Y-64064201D01*
X26890246Y-69023752D01*
G37*
X26890246Y-69023752D02*
X26868042Y-68970147D01*
X26704039Y-68724698D01*
X26495302Y-68515961D01*
X26336719Y-68410000D01*
X26495302Y-68304039D01*
X26704039Y-68095302D01*
X26868042Y-67849853D01*
X26981010Y-67577125D01*
X27038600Y-67287599D01*
X27038600Y-66992401D01*
X26981010Y-66702875D01*
X26950824Y-66630000D01*
X28816578Y-66630000D01*
X28853900Y-66633676D01*
X28891222Y-66630000D01*
X28891233Y-66630000D01*
X29002886Y-66619003D01*
X29146147Y-66575546D01*
X29278176Y-66504974D01*
X29393901Y-66410001D01*
X29417704Y-66380997D01*
X31721302Y-64077400D01*
X31783439Y-64077400D01*
X31849797Y-64064201D01*
X26890246Y-69023752D01*
G36*
X34477363Y-30034759D02*
G01*
X34677241Y-30234637D01*
X34707001Y-30254522D01*
X34707001Y-30326822D01*
X34702719Y-30370300D01*
X34719805Y-30543790D01*
X34770412Y-30710613D01*
X34852590Y-30864359D01*
X34935468Y-30965346D01*
X34935471Y-30965349D01*
X34963184Y-30999117D01*
X34996951Y-31026829D01*
X35976900Y-32006779D01*
X35976900Y-35358973D01*
X35941039Y-35348096D01*
X35719000Y-35470085D01*
X35719000Y-36613000D01*
X35739000Y-36613000D01*
X35739000Y-36867000D01*
X35719000Y-36867000D01*
X35719000Y-38009915D01*
X35941039Y-38131904D01*
X35976900Y-38121027D01*
X35976901Y-45871560D01*
X35872689Y-45998542D01*
X35790511Y-46152288D01*
X35763601Y-46240997D01*
X35749937Y-46286042D01*
X35739905Y-46319111D01*
X35727100Y-46449124D01*
X35727100Y-46449131D01*
X35722819Y-46492600D01*
X35727100Y-46536069D01*
X35727100Y-49739034D01*
X35691039Y-49728096D01*
X35469000Y-49850085D01*
X35469000Y-50993000D01*
X35489000Y-50993000D01*
X35489000Y-51247000D01*
X35469000Y-51247000D01*
X35469000Y-52389915D01*
X35691039Y-52511904D01*
X35727101Y-52500966D01*
X35727101Y-55853020D01*
X34746951Y-56833171D01*
X34713184Y-56860883D01*
X34685471Y-56894651D01*
X34685468Y-56894654D01*
X34632652Y-56959011D01*
X34602590Y-56995641D01*
X34520412Y-57149387D01*
X34469805Y-57316210D01*
X34457000Y-57446223D01*
X34457000Y-57446231D01*
X34452719Y-57489700D01*
X34457000Y-57533169D01*
X34457000Y-57605479D01*
X34427241Y-57625363D01*
X34227363Y-57825241D01*
X34070320Y-58060273D01*
X33962147Y-58321426D01*
X33907000Y-58598665D01*
X33907000Y-58881335D01*
X33962147Y-59158574D01*
X34070320Y-59419727D01*
X34227363Y-59654759D01*
X34427241Y-59854637D01*
X34457001Y-59874522D01*
X34457001Y-59946822D01*
X34452719Y-59990300D01*
X34469805Y-60163790D01*
X34520412Y-60330613D01*
X34602590Y-60484359D01*
X34667600Y-60563574D01*
X34667600Y-60843100D01*
X34600361Y-60843100D01*
X34400402Y-60882874D01*
X34212044Y-60960895D01*
X34042526Y-61074163D01*
X33898363Y-61218326D01*
X33785095Y-61387844D01*
X33707074Y-61576202D01*
X33705304Y-61585100D01*
X33632661Y-61585100D01*
X33432702Y-61624874D01*
X33244344Y-61702895D01*
X33074826Y-61816163D01*
X32930663Y-61960326D01*
X32817395Y-62129844D01*
X32739374Y-62318202D01*
X32699600Y-62518161D01*
X32699600Y-62722039D01*
X32739374Y-62921998D01*
X32813367Y-63100631D01*
X32703301Y-63210696D01*
X32716500Y-63144339D01*
X32716500Y-62940461D01*
X32676726Y-62740502D01*
X32598705Y-62552144D01*
X32485437Y-62382626D01*
X32341274Y-62238463D01*
X32171756Y-62125195D01*
X31983398Y-62047174D01*
X31783439Y-62007400D01*
X31579561Y-62007400D01*
X31379602Y-62047174D01*
X31191244Y-62125195D01*
X31021726Y-62238463D01*
X30877563Y-62382626D01*
X30764295Y-62552144D01*
X30686274Y-62740502D01*
X30646500Y-62940461D01*
X30646500Y-63002598D01*
X28539099Y-65110000D01*
X26950824Y-65110000D01*
X26981010Y-65037125D01*
X27038600Y-64747599D01*
X27038600Y-64452401D01*
X26981010Y-64162875D01*
X26868042Y-63890147D01*
X26803960Y-63794241D01*
X29111002Y-61487200D01*
X29173139Y-61487200D01*
X29373098Y-61447426D01*
X29561456Y-61369405D01*
X29730974Y-61256137D01*
X29875137Y-61111974D01*
X29988405Y-60942456D01*
X30066426Y-60754098D01*
X30106200Y-60554139D01*
X30106200Y-60350261D01*
X30066426Y-60150302D01*
X29988405Y-59961944D01*
X29875137Y-59792426D01*
X29730974Y-59648263D01*
X29561456Y-59534995D01*
X29373098Y-59456974D01*
X29173139Y-59417200D01*
X28969261Y-59417200D01*
X28769302Y-59456974D01*
X28580944Y-59534995D01*
X28411426Y-59648263D01*
X28267263Y-59792426D01*
X28153995Y-59961944D01*
X28075974Y-60150302D01*
X28036200Y-60350261D01*
X28036200Y-60412398D01*
X26935528Y-61513071D01*
X26868042Y-61350147D01*
X26704039Y-61104698D01*
X26495302Y-60895961D01*
X26336719Y-60790000D01*
X26495302Y-60684039D01*
X26704039Y-60475302D01*
X26868042Y-60229853D01*
X26981010Y-59957125D01*
X27038600Y-59667599D01*
X27038600Y-59372401D01*
X26981010Y-59082875D01*
X26868042Y-58810147D01*
X26704039Y-58564698D01*
X26495302Y-58355961D01*
X26336719Y-58250000D01*
X26495302Y-58144039D01*
X26704039Y-57935302D01*
X26868042Y-57689853D01*
X26981010Y-57417125D01*
X27038600Y-57127599D01*
X27038600Y-56832401D01*
X26981010Y-56542875D01*
X26868042Y-56270147D01*
X26704039Y-56024698D01*
X26495302Y-55815961D01*
X26336719Y-55710000D01*
X26495302Y-55604039D01*
X26704039Y-55395302D01*
X26868042Y-55149853D01*
X26981010Y-54877125D01*
X27038600Y-54587599D01*
X27038600Y-54292401D01*
X26981010Y-54002875D01*
X26868042Y-53730147D01*
X26704039Y-53484698D01*
X26495302Y-53275961D01*
X26336719Y-53170000D01*
X26495302Y-53064039D01*
X26704039Y-52855302D01*
X26868042Y-52609853D01*
X26981010Y-52337125D01*
X27038600Y-52047599D01*
X27038600Y-51752401D01*
X26982237Y-51469040D01*
X33950091Y-51469040D01*
X34044930Y-51733881D01*
X34189615Y-51975131D01*
X34378586Y-52183519D01*
X34604580Y-52351037D01*
X34858913Y-52471246D01*
X34992961Y-52511904D01*
X35215000Y-52389915D01*
X35215000Y-51247000D01*
X34071376Y-51247000D01*
X33950091Y-51469040D01*
X26982237Y-51469040D01*
X26981010Y-51462875D01*
X26868042Y-51190147D01*
X26704039Y-50944698D01*
X26530301Y-50770960D01*
X33950091Y-50770960D01*
X34071376Y-50993000D01*
X35215000Y-50993000D01*
X35215000Y-49850085D01*
X34992961Y-49728096D01*
X34858913Y-49768754D01*
X34604580Y-49888963D01*
X34378586Y-50056481D01*
X34189615Y-50264869D01*
X34044930Y-50506119D01*
X33950091Y-50770960D01*
X26530301Y-50770960D01*
X26495302Y-50735961D01*
X26336719Y-50630000D01*
X26495302Y-50524039D01*
X26704039Y-50315302D01*
X26868042Y-50069853D01*
X26981010Y-49797125D01*
X27038600Y-49507599D01*
X27038600Y-49212401D01*
X26981010Y-48922875D01*
X26868042Y-48650147D01*
X26704039Y-48404698D01*
X26495302Y-48195961D01*
X26336719Y-48090000D01*
X26495302Y-47984039D01*
X26704039Y-47775302D01*
X26868042Y-47529853D01*
X26981010Y-47257125D01*
X27038600Y-46967599D01*
X27038600Y-46672401D01*
X26981010Y-46382875D01*
X26868042Y-46110147D01*
X26723571Y-45893930D01*
X27239904Y-45377598D01*
X27268901Y-45353801D01*
X27363874Y-45238076D01*
X27434446Y-45106047D01*
X27477903Y-44962786D01*
X27488900Y-44851133D01*
X27488900Y-44851125D01*
X27492576Y-44813800D01*
X27488900Y-44776475D01*
X27488900Y-37089040D01*
X34200091Y-37089040D01*
X34294930Y-37353881D01*
X34439615Y-37595131D01*
X34628586Y-37803519D01*
X34854580Y-37971037D01*
X35108913Y-38091246D01*
X35242961Y-38131904D01*
X35465000Y-38009915D01*
X35465000Y-36867000D01*
X34321376Y-36867000D01*
X34200091Y-37089040D01*
X27488900Y-37089040D01*
X27488900Y-36697401D01*
X27795341Y-36390960D01*
X34200091Y-36390960D01*
X34321376Y-36613000D01*
X35465000Y-36613000D01*
X35465000Y-35470085D01*
X35242961Y-35348096D01*
X35108913Y-35388754D01*
X34854580Y-35508963D01*
X34628586Y-35676481D01*
X34439615Y-35884869D01*
X34294930Y-36126119D01*
X34200091Y-36390960D01*
X27795341Y-36390960D01*
X34346858Y-29839444D01*
X34477363Y-30034759D01*
G37*
X34477363Y-30034759D02*
X34677241Y-30234637D01*
X34707001Y-30254522D01*
X34707001Y-30326822D01*
X34702719Y-30370300D01*
X34719805Y-30543790D01*
X34770412Y-30710613D01*
X34852590Y-30864359D01*
X34935468Y-30965346D01*
X34935471Y-30965349D01*
X34963184Y-30999117D01*
X34996951Y-31026829D01*
X35976900Y-32006779D01*
X35976900Y-35358973D01*
X35941039Y-35348096D01*
X35719000Y-35470085D01*
X35719000Y-36613000D01*
X35739000Y-36613000D01*
X35739000Y-36867000D01*
X35719000Y-36867000D01*
X35719000Y-38009915D01*
X35941039Y-38131904D01*
X35976900Y-38121027D01*
X35976901Y-45871560D01*
X35872689Y-45998542D01*
X35790511Y-46152288D01*
X35763601Y-46240997D01*
X35749937Y-46286042D01*
X35739905Y-46319111D01*
X35727100Y-46449124D01*
X35727100Y-46449131D01*
X35722819Y-46492600D01*
X35727100Y-46536069D01*
X35727100Y-49739034D01*
X35691039Y-49728096D01*
X35469000Y-49850085D01*
X35469000Y-50993000D01*
X35489000Y-50993000D01*
X35489000Y-51247000D01*
X35469000Y-51247000D01*
X35469000Y-52389915D01*
X35691039Y-52511904D01*
X35727101Y-52500966D01*
X35727101Y-55853020D01*
X34746951Y-56833171D01*
X34713184Y-56860883D01*
X34685471Y-56894651D01*
X34685468Y-56894654D01*
X34632652Y-56959011D01*
X34602590Y-56995641D01*
X34520412Y-57149387D01*
X34469805Y-57316210D01*
X34457000Y-57446223D01*
X34457000Y-57446231D01*
X34452719Y-57489700D01*
X34457000Y-57533169D01*
X34457000Y-57605479D01*
X34427241Y-57625363D01*
X34227363Y-57825241D01*
X34070320Y-58060273D01*
X33962147Y-58321426D01*
X33907000Y-58598665D01*
X33907000Y-58881335D01*
X33962147Y-59158574D01*
X34070320Y-59419727D01*
X34227363Y-59654759D01*
X34427241Y-59854637D01*
X34457001Y-59874522D01*
X34457001Y-59946822D01*
X34452719Y-59990300D01*
X34469805Y-60163790D01*
X34520412Y-60330613D01*
X34602590Y-60484359D01*
X34667600Y-60563574D01*
X34667600Y-60843100D01*
X34600361Y-60843100D01*
X34400402Y-60882874D01*
X34212044Y-60960895D01*
X34042526Y-61074163D01*
X33898363Y-61218326D01*
X33785095Y-61387844D01*
X33707074Y-61576202D01*
X33705304Y-61585100D01*
X33632661Y-61585100D01*
X33432702Y-61624874D01*
X33244344Y-61702895D01*
X33074826Y-61816163D01*
X32930663Y-61960326D01*
X32817395Y-62129844D01*
X32739374Y-62318202D01*
X32699600Y-62518161D01*
X32699600Y-62722039D01*
X32739374Y-62921998D01*
X32813367Y-63100631D01*
X32703301Y-63210696D01*
X32716500Y-63144339D01*
X32716500Y-62940461D01*
X32676726Y-62740502D01*
X32598705Y-62552144D01*
X32485437Y-62382626D01*
X32341274Y-62238463D01*
X32171756Y-62125195D01*
X31983398Y-62047174D01*
X31783439Y-62007400D01*
X31579561Y-62007400D01*
X31379602Y-62047174D01*
X31191244Y-62125195D01*
X31021726Y-62238463D01*
X30877563Y-62382626D01*
X30764295Y-62552144D01*
X30686274Y-62740502D01*
X30646500Y-62940461D01*
X30646500Y-63002598D01*
X28539099Y-65110000D01*
X26950824Y-65110000D01*
X26981010Y-65037125D01*
X27038600Y-64747599D01*
X27038600Y-64452401D01*
X26981010Y-64162875D01*
X26868042Y-63890147D01*
X26803960Y-63794241D01*
X29111002Y-61487200D01*
X29173139Y-61487200D01*
X29373098Y-61447426D01*
X29561456Y-61369405D01*
X29730974Y-61256137D01*
X29875137Y-61111974D01*
X29988405Y-60942456D01*
X30066426Y-60754098D01*
X30106200Y-60554139D01*
X30106200Y-60350261D01*
X30066426Y-60150302D01*
X29988405Y-59961944D01*
X29875137Y-59792426D01*
X29730974Y-59648263D01*
X29561456Y-59534995D01*
X29373098Y-59456974D01*
X29173139Y-59417200D01*
X28969261Y-59417200D01*
X28769302Y-59456974D01*
X28580944Y-59534995D01*
X28411426Y-59648263D01*
X28267263Y-59792426D01*
X28153995Y-59961944D01*
X28075974Y-60150302D01*
X28036200Y-60350261D01*
X28036200Y-60412398D01*
X26935528Y-61513071D01*
X26868042Y-61350147D01*
X26704039Y-61104698D01*
X26495302Y-60895961D01*
X26336719Y-60790000D01*
X26495302Y-60684039D01*
X26704039Y-60475302D01*
X26868042Y-60229853D01*
X26981010Y-59957125D01*
X27038600Y-59667599D01*
X27038600Y-59372401D01*
X26981010Y-59082875D01*
X26868042Y-58810147D01*
X26704039Y-58564698D01*
X26495302Y-58355961D01*
X26336719Y-58250000D01*
X26495302Y-58144039D01*
X26704039Y-57935302D01*
X26868042Y-57689853D01*
X26981010Y-57417125D01*
X27038600Y-57127599D01*
X27038600Y-56832401D01*
X26981010Y-56542875D01*
X26868042Y-56270147D01*
X26704039Y-56024698D01*
X26495302Y-55815961D01*
X26336719Y-55710000D01*
X26495302Y-55604039D01*
X26704039Y-55395302D01*
X26868042Y-55149853D01*
X26981010Y-54877125D01*
X27038600Y-54587599D01*
X27038600Y-54292401D01*
X26981010Y-54002875D01*
X26868042Y-53730147D01*
X26704039Y-53484698D01*
X26495302Y-53275961D01*
X26336719Y-53170000D01*
X26495302Y-53064039D01*
X26704039Y-52855302D01*
X26868042Y-52609853D01*
X26981010Y-52337125D01*
X27038600Y-52047599D01*
X27038600Y-51752401D01*
X26982237Y-51469040D01*
X33950091Y-51469040D01*
X34044930Y-51733881D01*
X34189615Y-51975131D01*
X34378586Y-52183519D01*
X34604580Y-52351037D01*
X34858913Y-52471246D01*
X34992961Y-52511904D01*
X35215000Y-52389915D01*
X35215000Y-51247000D01*
X34071376Y-51247000D01*
X33950091Y-51469040D01*
X26982237Y-51469040D01*
X26981010Y-51462875D01*
X26868042Y-51190147D01*
X26704039Y-50944698D01*
X26530301Y-50770960D01*
X33950091Y-50770960D01*
X34071376Y-50993000D01*
X35215000Y-50993000D01*
X35215000Y-49850085D01*
X34992961Y-49728096D01*
X34858913Y-49768754D01*
X34604580Y-49888963D01*
X34378586Y-50056481D01*
X34189615Y-50264869D01*
X34044930Y-50506119D01*
X33950091Y-50770960D01*
X26530301Y-50770960D01*
X26495302Y-50735961D01*
X26336719Y-50630000D01*
X26495302Y-50524039D01*
X26704039Y-50315302D01*
X26868042Y-50069853D01*
X26981010Y-49797125D01*
X27038600Y-49507599D01*
X27038600Y-49212401D01*
X26981010Y-48922875D01*
X26868042Y-48650147D01*
X26704039Y-48404698D01*
X26495302Y-48195961D01*
X26336719Y-48090000D01*
X26495302Y-47984039D01*
X26704039Y-47775302D01*
X26868042Y-47529853D01*
X26981010Y-47257125D01*
X27038600Y-46967599D01*
X27038600Y-46672401D01*
X26981010Y-46382875D01*
X26868042Y-46110147D01*
X26723571Y-45893930D01*
X27239904Y-45377598D01*
X27268901Y-45353801D01*
X27363874Y-45238076D01*
X27434446Y-45106047D01*
X27477903Y-44962786D01*
X27488900Y-44851133D01*
X27488900Y-44851125D01*
X27492576Y-44813800D01*
X27488900Y-44776475D01*
X27488900Y-37089040D01*
X34200091Y-37089040D01*
X34294930Y-37353881D01*
X34439615Y-37595131D01*
X34628586Y-37803519D01*
X34854580Y-37971037D01*
X35108913Y-38091246D01*
X35242961Y-38131904D01*
X35465000Y-38009915D01*
X35465000Y-36867000D01*
X34321376Y-36867000D01*
X34200091Y-37089040D01*
X27488900Y-37089040D01*
X27488900Y-36697401D01*
X27795341Y-36390960D01*
X34200091Y-36390960D01*
X34321376Y-36613000D01*
X35465000Y-36613000D01*
X35465000Y-35470085D01*
X35242961Y-35348096D01*
X35108913Y-35388754D01*
X34854580Y-35508963D01*
X34628586Y-35676481D01*
X34439615Y-35884869D01*
X34294930Y-36126119D01*
X34200091Y-36390960D01*
X27795341Y-36390960D01*
X34346858Y-29839444D01*
X34477363Y-30034759D01*
G36*
X93599000Y-52451000D02*
G01*
X95885000Y-52451000D01*
X95885000Y-52431000D01*
X96139000Y-52431000D01*
X96139000Y-52451000D01*
X96159000Y-52451000D01*
X96159000Y-52705000D01*
X96139000Y-52705000D01*
X96139000Y-52725000D01*
X95885000Y-52725000D01*
X95885000Y-52705000D01*
X93599000Y-52705000D01*
X93599000Y-52725000D01*
X93345000Y-52725000D01*
X93345000Y-52705000D01*
X93325000Y-52705000D01*
X93325000Y-52451000D01*
X93345000Y-52451000D01*
X93345000Y-52431000D01*
X93599000Y-52431000D01*
X93599000Y-52451000D01*
G37*
X93599000Y-52451000D02*
X95885000Y-52451000D01*
X95885000Y-52431000D01*
X96139000Y-52431000D01*
X96139000Y-52451000D01*
X96159000Y-52451000D01*
X96159000Y-52705000D01*
X96139000Y-52705000D01*
X96139000Y-52725000D01*
X95885000Y-52725000D01*
X95885000Y-52705000D01*
X93599000Y-52705000D01*
X93599000Y-52725000D01*
X93345000Y-52725000D01*
X93345000Y-52705000D01*
X93325000Y-52705000D01*
X93325000Y-52451000D01*
X93345000Y-52451000D01*
X93345000Y-52431000D01*
X93599000Y-52431000D01*
X93599000Y-52451000D01*
G36*
X107871800Y-46030002D02*
G01*
X107871800Y-49624080D01*
X107801027Y-49599037D01*
X107569000Y-49719536D01*
X107569000Y-50927000D01*
X107589000Y-50927000D01*
X107589000Y-51181000D01*
X107569000Y-51181000D01*
X107569000Y-51201000D01*
X107315000Y-51201000D01*
X107315000Y-51181000D01*
X107295000Y-51181000D01*
X107295000Y-50927000D01*
X107315000Y-50927000D01*
X107315000Y-49719536D01*
X107082973Y-49599037D01*
X107013100Y-49623762D01*
X107013100Y-46427522D01*
X107016776Y-46390199D01*
X107013100Y-46352877D01*
X107013100Y-46352867D01*
X107002103Y-46241214D01*
X106958646Y-46097953D01*
X106929272Y-46042999D01*
X106888074Y-45965923D01*
X106816899Y-45879197D01*
X106793101Y-45850199D01*
X106764104Y-45826402D01*
X97764704Y-36827003D01*
X97740901Y-36797999D01*
X97625176Y-36703026D01*
X97493147Y-36632454D01*
X97349886Y-36588997D01*
X97311347Y-36585201D01*
X97176039Y-36382698D01*
X96967302Y-36173961D01*
X96801897Y-36063441D01*
X96900488Y-36004817D01*
X97118854Y-35808293D01*
X97294684Y-35572944D01*
X97333472Y-35491673D01*
X107871800Y-46030002D01*
G37*
X107871800Y-46030002D02*
X107871800Y-49624080D01*
X107801027Y-49599037D01*
X107569000Y-49719536D01*
X107569000Y-50927000D01*
X107589000Y-50927000D01*
X107589000Y-51181000D01*
X107569000Y-51181000D01*
X107569000Y-51201000D01*
X107315000Y-51201000D01*
X107315000Y-51181000D01*
X107295000Y-51181000D01*
X107295000Y-50927000D01*
X107315000Y-50927000D01*
X107315000Y-49719536D01*
X107082973Y-49599037D01*
X107013100Y-49623762D01*
X107013100Y-46427522D01*
X107016776Y-46390199D01*
X107013100Y-46352877D01*
X107013100Y-46352867D01*
X107002103Y-46241214D01*
X106958646Y-46097953D01*
X106929272Y-46042999D01*
X106888074Y-45965923D01*
X106816899Y-45879197D01*
X106793101Y-45850199D01*
X106764104Y-45826402D01*
X97764704Y-36827003D01*
X97740901Y-36797999D01*
X97625176Y-36703026D01*
X97493147Y-36632454D01*
X97349886Y-36588997D01*
X97311347Y-36585201D01*
X97176039Y-36382698D01*
X96967302Y-36173961D01*
X96801897Y-36063441D01*
X96900488Y-36004817D01*
X97118854Y-35808293D01*
X97294684Y-35572944D01*
X97333472Y-35491673D01*
X107871800Y-46030002D01*
G36*
X64688754Y-41426913D02*
G01*
X64648096Y-41560961D01*
X64770085Y-41783000D01*
X65913000Y-41783000D01*
X65913000Y-41763000D01*
X66167000Y-41763000D01*
X66167000Y-41783000D01*
X66187000Y-41783000D01*
X66187000Y-42037000D01*
X66167000Y-42037000D01*
X66167000Y-42057000D01*
X65913000Y-42057000D01*
X65913000Y-42037000D01*
X64770085Y-42037000D01*
X64648096Y-42259039D01*
X64688754Y-42393087D01*
X64750487Y-42523700D01*
X64660925Y-42523700D01*
X64623600Y-42520024D01*
X64586275Y-42523700D01*
X64586267Y-42523700D01*
X64474614Y-42534697D01*
X64331353Y-42578154D01*
X64199324Y-42648726D01*
X64083599Y-42743699D01*
X64059801Y-42772697D01*
X56935948Y-49896551D01*
X56913185Y-49868815D01*
X56816494Y-49789463D01*
X56706180Y-49730498D01*
X56586482Y-49694188D01*
X56462000Y-49681928D01*
X56056873Y-49681928D01*
X64338802Y-41400000D01*
X64701474Y-41400000D01*
X64688754Y-41426913D01*
G37*
X64688754Y-41426913D02*
X64648096Y-41560961D01*
X64770085Y-41783000D01*
X65913000Y-41783000D01*
X65913000Y-41763000D01*
X66167000Y-41763000D01*
X66167000Y-41783000D01*
X66187000Y-41783000D01*
X66187000Y-42037000D01*
X66167000Y-42037000D01*
X66167000Y-42057000D01*
X65913000Y-42057000D01*
X65913000Y-42037000D01*
X64770085Y-42037000D01*
X64648096Y-42259039D01*
X64688754Y-42393087D01*
X64750487Y-42523700D01*
X64660925Y-42523700D01*
X64623600Y-42520024D01*
X64586275Y-42523700D01*
X64586267Y-42523700D01*
X64474614Y-42534697D01*
X64331353Y-42578154D01*
X64199324Y-42648726D01*
X64083599Y-42743699D01*
X64059801Y-42772697D01*
X56935948Y-49896551D01*
X56913185Y-49868815D01*
X56816494Y-49789463D01*
X56706180Y-49730498D01*
X56586482Y-49694188D01*
X56462000Y-49681928D01*
X56056873Y-49681928D01*
X64338802Y-41400000D01*
X64701474Y-41400000D01*
X64688754Y-41426913D01*
M02*
