G04 #@! TF.GenerationSoftware,KiCad,Pcbnew,(5.1.5-0-10_14)*
G04 #@! TF.CreationDate,2020-06-17T20:54:46+02:00*
G04 #@! TF.ProjectId,BROSE_LAWO_Adapter,42524f53-455f-44c4-9157-4f5f41646170,rev?*
G04 #@! TF.SameCoordinates,Original*
G04 #@! TF.FileFunction,Copper,L2,Bot*
G04 #@! TF.FilePolarity,Positive*
%FSLAX46Y46*%
G04 Gerber Fmt 4.6, Leading zero omitted, Abs format (unit mm)*
G04 Created by KiCad (PCBNEW (5.1.5-0-10_14)) date 2020-06-17 20:54:46*
%MOMM*%
%LPD*%
G04 APERTURE LIST*
%ADD10C,4.064000*%
%ADD11O,1.727200X1.727200*%
%ADD12R,1.727200X1.727200*%
%ADD13O,1.600000X1.600000*%
%ADD14R,1.600000X1.600000*%
%ADD15O,1.400000X1.400000*%
%ADD16C,1.400000*%
%ADD17C,2.000000*%
%ADD18O,1.700000X1.700000*%
%ADD19R,1.700000X1.700000*%
%ADD20C,0.800000*%
%ADD21C,0.250000*%
%ADD22C,0.500000*%
%ADD23C,0.254000*%
G04 APERTURE END LIST*
D10*
X108000000Y-18000000D03*
X108000000Y-108000000D03*
X18000000Y-108000000D03*
X18000000Y-18000000D03*
D11*
X107442000Y-78914000D03*
X104902000Y-78914000D03*
X107442000Y-76374000D03*
X104902000Y-76374000D03*
X107442000Y-73834000D03*
X104902000Y-73834000D03*
X107442000Y-71294000D03*
X104902000Y-71294000D03*
X107442000Y-68754000D03*
X104902000Y-68754000D03*
X107442000Y-66214000D03*
X104902000Y-66214000D03*
X107442000Y-63674000D03*
X104902000Y-63674000D03*
X107442000Y-61134000D03*
X104902000Y-61134000D03*
X107442000Y-58594000D03*
X104902000Y-58594000D03*
X107442000Y-56054000D03*
D12*
X104902000Y-56054000D03*
D13*
X85598000Y-65532000D03*
X77978000Y-83312000D03*
X85598000Y-68072000D03*
X77978000Y-80772000D03*
X85598000Y-70612000D03*
X77978000Y-78232000D03*
X85598000Y-73152000D03*
X77978000Y-75692000D03*
X85598000Y-75692000D03*
X77978000Y-73152000D03*
X85598000Y-78232000D03*
X77978000Y-70612000D03*
X85598000Y-80772000D03*
X77978000Y-68072000D03*
X85598000Y-83312000D03*
D14*
X77978000Y-65532000D03*
D13*
X70612000Y-68326000D03*
X62992000Y-86106000D03*
X70612000Y-70866000D03*
X62992000Y-83566000D03*
X70612000Y-73406000D03*
X62992000Y-81026000D03*
X70612000Y-75946000D03*
X62992000Y-78486000D03*
X70612000Y-78486000D03*
X62992000Y-75946000D03*
X70612000Y-81026000D03*
X62992000Y-73406000D03*
X70612000Y-83566000D03*
X62992000Y-70866000D03*
X70612000Y-86106000D03*
D14*
X62992000Y-68326000D03*
D13*
X73660000Y-19050000D03*
X66040000Y-52070000D03*
X73660000Y-21590000D03*
X66040000Y-49530000D03*
X73660000Y-24130000D03*
X66040000Y-46990000D03*
X73660000Y-26670000D03*
X66040000Y-44450000D03*
X73660000Y-29210000D03*
X66040000Y-41910000D03*
X73660000Y-31750000D03*
X66040000Y-39370000D03*
X73660000Y-34290000D03*
X66040000Y-36830000D03*
X73660000Y-36830000D03*
X66040000Y-34290000D03*
X73660000Y-39370000D03*
X66040000Y-31750000D03*
X73660000Y-41910000D03*
X66040000Y-29210000D03*
X73660000Y-44450000D03*
X66040000Y-26670000D03*
X73660000Y-46990000D03*
X66040000Y-24130000D03*
X73660000Y-49530000D03*
X66040000Y-21590000D03*
X73660000Y-52070000D03*
D14*
X66040000Y-19050000D03*
D15*
X52590000Y-109270000D03*
D16*
X52590000Y-106730000D03*
D15*
X59840000Y-109270000D03*
D16*
X59840000Y-106730000D03*
D15*
X66590000Y-109270000D03*
D16*
X66590000Y-106730000D03*
D15*
X73840000Y-109270000D03*
D16*
X73840000Y-106730000D03*
D15*
X81090000Y-109270000D03*
D16*
X81090000Y-106730000D03*
D17*
X52590000Y-94480000D03*
X52590000Y-101980000D03*
X59840000Y-94480000D03*
X59840000Y-101980000D03*
X66590000Y-94480000D03*
X66590000Y-101980000D03*
X73840000Y-94480000D03*
X73840000Y-101980000D03*
X81090000Y-94480000D03*
X81090000Y-101980000D03*
D13*
X55412000Y-80240000D03*
X35092000Y-72620000D03*
X52872000Y-80240000D03*
X37632000Y-72620000D03*
X50332000Y-80240000D03*
X40172000Y-72620000D03*
X47792000Y-80240000D03*
X42712000Y-72620000D03*
X45252000Y-80240000D03*
X45252000Y-72620000D03*
X42712000Y-80240000D03*
X47792000Y-72620000D03*
X40172000Y-80240000D03*
X50332000Y-72620000D03*
X37632000Y-80240000D03*
X52872000Y-72620000D03*
X35092000Y-80240000D03*
D14*
X55412000Y-72620000D03*
D13*
X55662000Y-58740000D03*
X35342000Y-51120000D03*
X53122000Y-58740000D03*
X37882000Y-51120000D03*
X50582000Y-58740000D03*
X40422000Y-51120000D03*
X48042000Y-58740000D03*
X42962000Y-51120000D03*
X45502000Y-58740000D03*
X45502000Y-51120000D03*
X42962000Y-58740000D03*
X48042000Y-51120000D03*
X40422000Y-58740000D03*
X50582000Y-51120000D03*
X37882000Y-58740000D03*
X53122000Y-51120000D03*
X35342000Y-58740000D03*
D14*
X55662000Y-51120000D03*
D13*
X55912000Y-36740000D03*
X35592000Y-29120000D03*
X53372000Y-36740000D03*
X38132000Y-29120000D03*
X50832000Y-36740000D03*
X40672000Y-29120000D03*
X48292000Y-36740000D03*
X43212000Y-29120000D03*
X45752000Y-36740000D03*
X45752000Y-29120000D03*
X43212000Y-36740000D03*
X48292000Y-29120000D03*
X40672000Y-36740000D03*
X50832000Y-29120000D03*
X38132000Y-36740000D03*
X53372000Y-29120000D03*
X35592000Y-36740000D03*
D14*
X55912000Y-29120000D03*
D18*
X43870000Y-103184000D03*
X43870000Y-100644000D03*
D19*
X43870000Y-98104000D03*
D18*
X39220000Y-103184000D03*
X39220000Y-100644000D03*
D19*
X39220000Y-98104000D03*
D18*
X34570000Y-103184000D03*
X34570000Y-100644000D03*
D19*
X34570000Y-98104000D03*
D11*
X96012000Y-93218000D03*
X93472000Y-93218000D03*
X96012000Y-90678000D03*
X93472000Y-90678000D03*
X96012000Y-88138000D03*
X93472000Y-88138000D03*
X96012000Y-85598000D03*
X93472000Y-85598000D03*
X96012000Y-83058000D03*
X93472000Y-83058000D03*
X96012000Y-80518000D03*
X93472000Y-80518000D03*
X96012000Y-77978000D03*
X93472000Y-77978000D03*
X96012000Y-75438000D03*
X93472000Y-75438000D03*
X96012000Y-72898000D03*
X93472000Y-72898000D03*
X96012000Y-70358000D03*
X93472000Y-70358000D03*
X96012000Y-67818000D03*
X93472000Y-67818000D03*
X96012000Y-65278000D03*
X93472000Y-65278000D03*
X96012000Y-62738000D03*
X93472000Y-62738000D03*
X96012000Y-60198000D03*
X93472000Y-60198000D03*
X96012000Y-57658000D03*
X93472000Y-57658000D03*
X96012000Y-55118000D03*
X93472000Y-55118000D03*
X96012000Y-52578000D03*
X93472000Y-52578000D03*
X96012000Y-50038000D03*
X93472000Y-50038000D03*
X96012000Y-47498000D03*
X93472000Y-47498000D03*
X96012000Y-44958000D03*
X93472000Y-44958000D03*
X96012000Y-42418000D03*
X93472000Y-42418000D03*
X96012000Y-39878000D03*
X93472000Y-39878000D03*
X96012000Y-37338000D03*
X93472000Y-37338000D03*
X96012000Y-34798000D03*
X93472000Y-34798000D03*
X96012000Y-32258000D03*
D12*
X93472000Y-32258000D03*
D11*
X25540000Y-100160000D03*
X23000000Y-100160000D03*
X25540000Y-97620000D03*
X23000000Y-97620000D03*
X25540000Y-95080000D03*
X23000000Y-95080000D03*
X25540000Y-92540000D03*
X23000000Y-92540000D03*
X25540000Y-90000000D03*
X23000000Y-90000000D03*
X25540000Y-87460000D03*
X23000000Y-87460000D03*
X25540000Y-84920000D03*
X23000000Y-84920000D03*
X25540000Y-82380000D03*
X23000000Y-82380000D03*
X25540000Y-79840000D03*
X23000000Y-79840000D03*
X25540000Y-77300000D03*
X23000000Y-77300000D03*
X25540000Y-74760000D03*
X23000000Y-74760000D03*
X25540000Y-72220000D03*
X23000000Y-72220000D03*
X25540000Y-69680000D03*
X23000000Y-69680000D03*
X25540000Y-67140000D03*
X23000000Y-67140000D03*
X25540000Y-64600000D03*
X23000000Y-64600000D03*
X25540000Y-62060000D03*
X23000000Y-62060000D03*
X25540000Y-59520000D03*
X23000000Y-59520000D03*
X25540000Y-56980000D03*
X23000000Y-56980000D03*
X25540000Y-54440000D03*
X23000000Y-54440000D03*
X25540000Y-51900000D03*
X23000000Y-51900000D03*
X25540000Y-49360000D03*
X23000000Y-49360000D03*
X25540000Y-46820000D03*
X23000000Y-46820000D03*
X25540000Y-44280000D03*
X23000000Y-44280000D03*
X25540000Y-41740000D03*
X23000000Y-41740000D03*
X25540000Y-39200000D03*
X23000000Y-39200000D03*
X25540000Y-36660000D03*
X23000000Y-36660000D03*
X25540000Y-34120000D03*
X23000000Y-34120000D03*
X25540000Y-31580000D03*
X23000000Y-31580000D03*
X25540000Y-29040000D03*
X23000000Y-29040000D03*
X25540000Y-26500000D03*
D12*
X23000000Y-26500000D03*
D20*
X89311000Y-58478300D03*
X88517000Y-59494200D03*
X71427200Y-58596000D03*
X34539200Y-67810600D03*
X36946700Y-63978300D03*
X37331700Y-75691700D03*
X80772000Y-42799000D03*
X101600000Y-47498000D03*
X105791000Y-27051000D03*
X81407000Y-17018000D03*
X35592000Y-38830000D03*
X30607000Y-96774000D03*
X41021000Y-95504000D03*
X70485000Y-102870000D03*
X48895000Y-106680000D03*
X66040000Y-83947000D03*
X77978000Y-86741000D03*
X40110400Y-61385800D03*
X37429400Y-61769500D03*
X36745200Y-62527600D03*
X29174000Y-60917500D03*
X87573500Y-60219500D03*
X32206800Y-61857100D03*
X33711900Y-56385500D03*
X84150600Y-51395700D03*
X84853700Y-52384500D03*
X85879500Y-51126700D03*
X92057000Y-45633300D03*
X107241900Y-45062600D03*
X57919600Y-72401000D03*
X58706400Y-75013400D03*
D21*
X89311000Y-58478300D02*
X89311000Y-60346900D01*
X89311000Y-60346900D02*
X92972100Y-64008000D01*
X92972100Y-64008000D02*
X96427100Y-64008000D01*
X96427100Y-64008000D02*
X103713100Y-71294000D01*
X104902000Y-71294000D02*
X103713100Y-71294000D01*
X103713100Y-73834000D02*
X101502000Y-71622900D01*
X101502000Y-71622900D02*
X92991000Y-71622900D01*
X92991000Y-71622900D02*
X88517000Y-67148900D01*
X88517000Y-67148900D02*
X88517000Y-59494200D01*
X104902000Y-73834000D02*
X103713100Y-73834000D01*
X42694700Y-100644000D02*
X42694700Y-101378600D01*
X42694700Y-101378600D02*
X39697800Y-104375500D01*
X39697800Y-104375500D02*
X30944400Y-104375500D01*
X30944400Y-104375500D02*
X26728900Y-100160000D01*
X43870000Y-100644000D02*
X42694700Y-100644000D01*
X25540000Y-100160000D02*
X26728900Y-100160000D01*
X39296700Y-58740000D02*
X39296700Y-59021400D01*
X39296700Y-59021400D02*
X38452800Y-59865300D01*
X38452800Y-59865300D02*
X36470900Y-59865300D01*
X36470900Y-59865300D02*
X30466200Y-65870000D01*
X30466200Y-65870000D02*
X25115400Y-65870000D01*
X25115400Y-65870000D02*
X24287200Y-66698200D01*
X24287200Y-66698200D02*
X24287200Y-67535200D01*
X24287200Y-67535200D02*
X23384700Y-68437700D01*
X23384700Y-68437700D02*
X22534500Y-68437700D01*
X22534500Y-68437700D02*
X20860200Y-70112000D01*
X20860200Y-70112000D02*
X20860200Y-95480200D01*
X20860200Y-95480200D02*
X23000000Y-97620000D01*
X40422000Y-58740000D02*
X39296700Y-58740000D01*
X42962000Y-58740000D02*
X41836700Y-58740000D01*
X25540000Y-95080000D02*
X24351100Y-95080000D01*
X24351100Y-95080000D02*
X24351100Y-95451500D01*
X24351100Y-95451500D02*
X23508800Y-96293800D01*
X23508800Y-96293800D02*
X22504600Y-96293800D01*
X22504600Y-96293800D02*
X21310500Y-95099700D01*
X21310500Y-95099700D02*
X21310500Y-72225100D01*
X21310500Y-72225100D02*
X22504500Y-71031100D01*
X22504500Y-71031100D02*
X23331300Y-71031100D01*
X23331300Y-71031100D02*
X24282600Y-70079800D01*
X24282600Y-70079800D02*
X24282600Y-69240500D01*
X24282600Y-69240500D02*
X25113100Y-68410000D01*
X25113100Y-68410000D02*
X28782200Y-68410000D01*
X28782200Y-68410000D02*
X36552600Y-60639600D01*
X36552600Y-60639600D02*
X40218400Y-60639600D01*
X40218400Y-60639600D02*
X41836700Y-59021300D01*
X41836700Y-59021300D02*
X41836700Y-58740000D01*
X23000000Y-95080000D02*
X23000000Y-93891100D01*
X23000000Y-93891100D02*
X23371600Y-93891100D01*
X23371600Y-93891100D02*
X24188900Y-93073800D01*
X24188900Y-93073800D02*
X24188900Y-87107800D01*
X24188900Y-87107800D02*
X25106700Y-86190000D01*
X25106700Y-86190000D02*
X25954200Y-86190000D01*
X25954200Y-86190000D02*
X29176400Y-82967800D01*
X29176400Y-82967800D02*
X29176400Y-81381100D01*
X29176400Y-81381100D02*
X36362000Y-74195500D01*
X36362000Y-74195500D02*
X36362000Y-71494600D01*
X36362000Y-71494600D02*
X45502000Y-62354600D01*
X45502000Y-62354600D02*
X45502000Y-58740000D01*
X37632000Y-80240000D02*
X36506700Y-80240000D01*
X25540000Y-92540000D02*
X25540000Y-91351100D01*
X25540000Y-91351100D02*
X25911500Y-91351100D01*
X25911500Y-91351100D02*
X33874900Y-83387700D01*
X33874900Y-83387700D02*
X33874900Y-79832100D01*
X33874900Y-79832100D02*
X34592300Y-79114700D01*
X34592300Y-79114700D02*
X35662800Y-79114700D01*
X35662800Y-79114700D02*
X36506700Y-79958600D01*
X36506700Y-79958600D02*
X36506700Y-80240000D01*
X45252000Y-79114700D02*
X41747700Y-75610400D01*
X41747700Y-75610400D02*
X41747700Y-73745400D01*
X41747700Y-73745400D02*
X41317300Y-73315000D01*
X41317300Y-73315000D02*
X41317300Y-72090500D01*
X41317300Y-72090500D02*
X40715000Y-71488200D01*
X40715000Y-71488200D02*
X39695500Y-71488200D01*
X39695500Y-71488200D02*
X38902000Y-72281700D01*
X38902000Y-72281700D02*
X38902000Y-73095700D01*
X38902000Y-73095700D02*
X32392800Y-79604900D01*
X32392800Y-79604900D02*
X32392800Y-82329800D01*
X32392800Y-82329800D02*
X25911500Y-88811100D01*
X25911500Y-88811100D02*
X25540000Y-88811100D01*
X45252000Y-80240000D02*
X45252000Y-79114700D01*
X25540000Y-90000000D02*
X25540000Y-88811100D01*
X86180000Y-50401400D02*
X79621800Y-50401400D01*
X79621800Y-50401400D02*
X71427200Y-58596000D01*
X77978000Y-65532000D02*
X77978000Y-61143900D01*
X77978000Y-61143900D02*
X86604800Y-52517100D01*
X86604800Y-52517100D02*
X86604800Y-50826200D01*
X86604800Y-50826200D02*
X86180000Y-50401400D01*
X86180000Y-50401400D02*
X86180000Y-45451700D01*
X86180000Y-45451700D02*
X93104800Y-38526900D01*
X93104800Y-38526900D02*
X93472000Y-38526900D01*
X62992000Y-67200700D02*
X62992000Y-67031200D01*
X62992000Y-67031200D02*
X71427200Y-58596000D01*
X62992000Y-68326000D02*
X62992000Y-67200700D01*
X93472000Y-37338000D02*
X93472000Y-38526900D01*
X107442000Y-58594000D02*
X107442000Y-57405100D01*
X96012000Y-37338000D02*
X96012000Y-38526900D01*
X96012000Y-38526900D02*
X96383500Y-38526900D01*
X96383500Y-38526900D02*
X106253100Y-48396500D01*
X106253100Y-48396500D02*
X106253100Y-56587800D01*
X106253100Y-56587800D02*
X107070400Y-57405100D01*
X107070400Y-57405100D02*
X107442000Y-57405100D01*
X23000000Y-82380000D02*
X23000000Y-81191100D01*
X23000000Y-81191100D02*
X22628500Y-81191100D01*
X22628500Y-81191100D02*
X21760900Y-80323500D01*
X21760900Y-80323500D02*
X21760900Y-76845200D01*
X21760900Y-76845200D02*
X22576100Y-76030000D01*
X22576100Y-76030000D02*
X26319800Y-76030000D01*
X26319800Y-76030000D02*
X34539200Y-67810600D01*
X107442000Y-78914000D02*
X107442000Y-77725100D01*
X107442000Y-61134000D02*
X107442000Y-62322900D01*
X107442000Y-62322900D02*
X107813500Y-62322900D01*
X107813500Y-62322900D02*
X108630900Y-63140300D01*
X108630900Y-63140300D02*
X108630900Y-76907800D01*
X108630900Y-76907800D02*
X107813600Y-77725100D01*
X107813600Y-77725100D02*
X107442000Y-77725100D01*
D22*
X35342000Y-57489700D02*
X35342000Y-54559100D01*
X35342000Y-54559100D02*
X34090300Y-53307400D01*
X34090300Y-53307400D02*
X34090300Y-31872000D01*
X34090300Y-31872000D02*
X35592000Y-30370300D01*
X26853900Y-77300000D02*
X36946700Y-67207200D01*
X36946700Y-67207200D02*
X36946700Y-63978300D01*
X36527700Y-102526600D02*
X37185000Y-103184000D01*
X37185000Y-103184000D02*
X39220000Y-103184000D01*
X35092000Y-81490300D02*
X35877500Y-82275800D01*
X35877500Y-82275800D02*
X35877500Y-101876500D01*
X35877500Y-101876500D02*
X36527700Y-102526600D01*
X36527700Y-102526600D02*
X35870300Y-103184000D01*
X34570000Y-103184000D02*
X35870300Y-103184000D01*
X35092000Y-80240000D02*
X35092000Y-81490300D01*
X35592000Y-29120000D02*
X35592000Y-30370300D01*
X35342000Y-58740000D02*
X35342000Y-57489700D01*
X25540000Y-77300000D02*
X26853900Y-77300000D01*
X25540000Y-77300000D02*
X25540000Y-79840000D01*
D21*
X96012000Y-34798000D02*
X96012000Y-35986900D01*
X107442000Y-56054000D02*
X107442000Y-47086500D01*
X107442000Y-47086500D02*
X96342400Y-35986900D01*
X96342400Y-35986900D02*
X96012000Y-35986900D01*
X103713100Y-56054000D02*
X100237100Y-52578000D01*
X100237100Y-52578000D02*
X97200900Y-52578000D01*
X77978000Y-83312000D02*
X77978000Y-84437300D01*
X73840000Y-109270000D02*
X73840000Y-108244700D01*
X73840000Y-108244700D02*
X75185600Y-106899100D01*
X75185600Y-106899100D02*
X75185600Y-101174400D01*
X75185600Y-101174400D02*
X72506000Y-98494800D01*
X72506000Y-98494800D02*
X72506000Y-89909300D01*
X72506000Y-89909300D02*
X77978000Y-84437300D01*
X93472000Y-52578000D02*
X92283100Y-52578000D01*
X92283100Y-52578000D02*
X84472600Y-60388500D01*
X84472600Y-60388500D02*
X84472600Y-76817400D01*
X84472600Y-76817400D02*
X77978000Y-83312000D01*
X37311200Y-49994700D02*
X40914900Y-49994700D01*
X40914900Y-49994700D02*
X41692000Y-50771800D01*
X41692000Y-50771800D02*
X41692000Y-54944600D01*
X41692000Y-54944600D02*
X44133900Y-57386500D01*
X44133900Y-57386500D02*
X44133900Y-62452800D01*
X44133900Y-62452800D02*
X35092000Y-71494700D01*
X43870000Y-98104000D02*
X42694700Y-98104000D01*
X39220000Y-97516300D02*
X42107000Y-97516300D01*
X42107000Y-97516300D02*
X42694700Y-98104000D01*
X39220000Y-97516300D02*
X39220000Y-96928700D01*
X39220000Y-98104000D02*
X39220000Y-97516300D01*
X37331700Y-75691700D02*
X38775800Y-77135800D01*
X38775800Y-77135800D02*
X38775800Y-96484500D01*
X38775800Y-96484500D02*
X39220000Y-96928700D01*
X33966700Y-72620000D02*
X33966700Y-73137900D01*
X33966700Y-73137900D02*
X26068500Y-81036100D01*
X26068500Y-81036100D02*
X25032800Y-81036100D01*
X25032800Y-81036100D02*
X24188900Y-80192200D01*
X24188900Y-80192200D02*
X24188900Y-79306200D01*
X24188900Y-79306200D02*
X23371600Y-78488900D01*
X23371600Y-78488900D02*
X23000000Y-78488900D01*
X35092000Y-72620000D02*
X35092000Y-71494700D01*
X23000000Y-77300000D02*
X23000000Y-78488900D01*
X35092000Y-72620000D02*
X33966700Y-72620000D01*
X37311200Y-49994700D02*
X36467300Y-50838600D01*
X36467300Y-50838600D02*
X36467300Y-51120000D01*
X35592000Y-36740000D02*
X35592000Y-38830000D01*
X35592000Y-48275500D02*
X37311200Y-49994700D01*
X35342000Y-51120000D02*
X36467300Y-51120000D01*
X59840000Y-109270000D02*
X58814700Y-109270000D01*
X52590000Y-108757300D02*
X58302000Y-108757300D01*
X58302000Y-108757300D02*
X58814700Y-109270000D01*
X52590000Y-108757300D02*
X52590000Y-108244700D01*
X52590000Y-109270000D02*
X52590000Y-108757300D01*
X104902000Y-56054000D02*
X103713100Y-56054000D01*
X96012000Y-52578000D02*
X97200900Y-52578000D01*
X93472000Y-34798000D02*
X96012000Y-34798000D01*
X43870000Y-98104000D02*
X43870000Y-99279300D01*
X43870000Y-99279300D02*
X44237400Y-99279300D01*
X44237400Y-99279300D02*
X51564700Y-106606600D01*
X51564700Y-106606600D02*
X51564700Y-107219400D01*
X51564700Y-107219400D02*
X52590000Y-108244700D01*
X104902000Y-58594000D02*
X104902000Y-61134000D01*
X104902000Y-56054000D02*
X104902000Y-58594000D01*
X35592000Y-38830000D02*
X35592000Y-48275500D01*
X25540000Y-74760000D02*
X25540000Y-73571100D01*
X25540000Y-73571100D02*
X26304500Y-73571100D01*
X26304500Y-73571100D02*
X36622600Y-63253000D01*
X36622600Y-63253000D02*
X38243200Y-63253000D01*
X38243200Y-63253000D02*
X40110400Y-61385800D01*
X23000000Y-73571100D02*
X23371600Y-73571100D01*
X23371600Y-73571100D02*
X24188900Y-72753800D01*
X24188900Y-72753800D02*
X24188900Y-71874200D01*
X24188900Y-71874200D02*
X25113100Y-70950000D01*
X25113100Y-70950000D02*
X27296800Y-70950000D01*
X27296800Y-70950000D02*
X36477300Y-61769500D01*
X36477300Y-61769500D02*
X37429400Y-61769500D01*
X23000000Y-74760000D02*
X23000000Y-73571100D01*
X26728900Y-72220000D02*
X36421300Y-62527600D01*
X36421300Y-62527600D02*
X36745200Y-62527600D01*
X25540000Y-72220000D02*
X26728900Y-72220000D01*
X23000000Y-67140000D02*
X20401200Y-69738800D01*
X20401200Y-69738800D02*
X20401200Y-96766800D01*
X20401200Y-96766800D02*
X22605400Y-98971000D01*
X22605400Y-98971000D02*
X23514300Y-98971000D01*
X23514300Y-98971000D02*
X24270000Y-99726700D01*
X24270000Y-99726700D02*
X24270000Y-100639200D01*
X24270000Y-100639200D02*
X33929800Y-110299000D01*
X33929800Y-110299000D02*
X74335400Y-110299000D01*
X74335400Y-110299000D02*
X78255900Y-106378500D01*
X78255900Y-106378500D02*
X78255900Y-100814100D01*
X78255900Y-100814100D02*
X93472000Y-85598000D01*
X24188900Y-59520000D02*
X24188900Y-59891500D01*
X24188900Y-59891500D02*
X25095300Y-60797900D01*
X25095300Y-60797900D02*
X29054400Y-60797900D01*
X29054400Y-60797900D02*
X29174000Y-60917500D01*
X23000000Y-59520000D02*
X24188900Y-59520000D01*
X23000000Y-42928900D02*
X22628500Y-42928900D01*
X22628500Y-42928900D02*
X19500600Y-46056800D01*
X19500600Y-46056800D02*
X19500600Y-98979600D01*
X19500600Y-98979600D02*
X31720700Y-111199700D01*
X31720700Y-111199700D02*
X76287000Y-111199700D01*
X76287000Y-111199700D02*
X79242100Y-108244600D01*
X79242100Y-108244600D02*
X81089300Y-108244600D01*
X81089300Y-108244600D02*
X91802300Y-97531600D01*
X91802300Y-97531600D02*
X91802300Y-88038500D01*
X91802300Y-88038500D02*
X93053900Y-86786900D01*
X93053900Y-86786900D02*
X94005800Y-86786900D01*
X94005800Y-86786900D02*
X94823100Y-85969600D01*
X94823100Y-85969600D02*
X94823100Y-85598000D01*
X96012000Y-85598000D02*
X94823100Y-85598000D01*
X23000000Y-41740000D02*
X23000000Y-42928900D01*
X24351100Y-39200000D02*
X24351100Y-38828400D01*
X24351100Y-38828400D02*
X23533800Y-38011100D01*
X23533800Y-38011100D02*
X22660500Y-38011100D01*
X22660500Y-38011100D02*
X21811000Y-37161600D01*
X21811000Y-37161600D02*
X21811000Y-28521600D01*
X21811000Y-28521600D02*
X22503000Y-27829600D01*
X22503000Y-27829600D02*
X33374600Y-27829600D01*
X33374600Y-27829600D02*
X33748200Y-27456000D01*
X33748200Y-27456000D02*
X50808700Y-27456000D01*
X50808700Y-27456000D02*
X52109000Y-28756300D01*
X52109000Y-28756300D02*
X52109000Y-29485100D01*
X52109000Y-29485100D02*
X53375900Y-30752000D01*
X53375900Y-30752000D02*
X58286300Y-30752000D01*
X58286300Y-30752000D02*
X63508700Y-25529600D01*
X63508700Y-25529600D02*
X91616700Y-25529600D01*
X91616700Y-25529600D02*
X109133800Y-43046700D01*
X109133800Y-43046700D02*
X109133800Y-78913800D01*
X109133800Y-78913800D02*
X104989600Y-83058000D01*
X104989600Y-83058000D02*
X96012000Y-83058000D01*
X25540000Y-39200000D02*
X24351100Y-39200000D01*
X96012000Y-76789100D02*
X95640400Y-76789100D01*
X95640400Y-76789100D02*
X94823100Y-75971800D01*
X94823100Y-75971800D02*
X94823100Y-75054500D01*
X94823100Y-75054500D02*
X93936600Y-74168000D01*
X93936600Y-74168000D02*
X93005100Y-74168000D01*
X93005100Y-74168000D02*
X87573500Y-68736400D01*
X87573500Y-68736400D02*
X87573500Y-60219500D01*
X96012000Y-77978000D02*
X96012000Y-76789100D01*
X25540000Y-35308900D02*
X25903100Y-35308900D01*
X25903100Y-35308900D02*
X32206800Y-41612600D01*
X32206800Y-41612600D02*
X32206800Y-61857100D01*
X25540000Y-34120000D02*
X25540000Y-35308900D01*
X25540000Y-31580000D02*
X25540000Y-32768900D01*
X25540000Y-32768900D02*
X25911500Y-32768900D01*
X25911500Y-32768900D02*
X32926800Y-39784200D01*
X32926800Y-39784200D02*
X32926800Y-55600400D01*
X32926800Y-55600400D02*
X33711900Y-56385500D01*
X96012000Y-62738000D02*
X97200900Y-62738000D01*
X25540000Y-29040000D02*
X33215400Y-29040000D01*
X33215400Y-29040000D02*
X34276700Y-27978700D01*
X34276700Y-27978700D02*
X36115000Y-27978700D01*
X36115000Y-27978700D02*
X36862000Y-28725700D01*
X36862000Y-28725700D02*
X36862000Y-29485600D01*
X36862000Y-29485600D02*
X39063500Y-31687100D01*
X39063500Y-31687100D02*
X64302700Y-31687100D01*
X64302700Y-31687100D02*
X65509800Y-30480000D01*
X65509800Y-30480000D02*
X69060500Y-30480000D01*
X69060500Y-30480000D02*
X71482400Y-28058100D01*
X71482400Y-28058100D02*
X93508300Y-28058100D01*
X93508300Y-28058100D02*
X108632000Y-43181800D01*
X108632000Y-43181800D02*
X108632000Y-59092900D01*
X108632000Y-59092900D02*
X107860900Y-59864000D01*
X107860900Y-59864000D02*
X107009000Y-59864000D01*
X107009000Y-59864000D02*
X106091000Y-60782000D01*
X106091000Y-60782000D02*
X106091000Y-61648300D01*
X106091000Y-61648300D02*
X105335300Y-62404000D01*
X105335300Y-62404000D02*
X97534900Y-62404000D01*
X97534900Y-62404000D02*
X97200900Y-62738000D01*
X62992000Y-72280700D02*
X63265600Y-72280700D01*
X63265600Y-72280700D02*
X84150600Y-51395700D01*
X62992000Y-73406000D02*
X62992000Y-72280700D01*
X62992000Y-77360700D02*
X63273400Y-77360700D01*
X63273400Y-77360700D02*
X64117300Y-76516800D01*
X64117300Y-76516800D02*
X64117300Y-73120900D01*
X64117300Y-73120900D02*
X84853700Y-52384500D01*
X62992000Y-78486000D02*
X62992000Y-77360700D01*
X62992000Y-83566000D02*
X62992000Y-82440700D01*
X96012000Y-47498000D02*
X97236800Y-46273200D01*
X97236800Y-46273200D02*
X97236800Y-44473400D01*
X97236800Y-44473400D02*
X96418700Y-43655300D01*
X96418700Y-43655300D02*
X95521100Y-43655300D01*
X95521100Y-43655300D02*
X94661000Y-42795200D01*
X94661000Y-42795200D02*
X94661000Y-36823700D01*
X94661000Y-36823700D02*
X93905300Y-36068000D01*
X93905300Y-36068000D02*
X92283000Y-36068000D01*
X92283000Y-36068000D02*
X57340200Y-71010800D01*
X57340200Y-71010800D02*
X54948000Y-71010800D01*
X54948000Y-71010800D02*
X54286600Y-71672200D01*
X54286600Y-71672200D02*
X54286600Y-73946300D01*
X54286600Y-73946300D02*
X62781000Y-82440700D01*
X62781000Y-82440700D02*
X62992000Y-82440700D01*
X70612000Y-73406000D02*
X75447500Y-68570500D01*
X75447500Y-68570500D02*
X75447500Y-62883800D01*
X75447500Y-62883800D02*
X85879500Y-52451800D01*
X85879500Y-52451800D02*
X85879500Y-51126700D01*
X71737300Y-86106000D02*
X75801300Y-82042000D01*
X75801300Y-82042000D02*
X78301000Y-82042000D01*
X78301000Y-82042000D02*
X83506200Y-76836800D01*
X83506200Y-76836800D02*
X83506200Y-59532600D01*
X83506200Y-59532600D02*
X89917900Y-53120900D01*
X89917900Y-53120900D02*
X89917900Y-51865200D01*
X89917900Y-51865200D02*
X93015100Y-48768000D01*
X93015100Y-48768000D02*
X93884500Y-48768000D01*
X93884500Y-48768000D02*
X94823100Y-47829400D01*
X94823100Y-47829400D02*
X94823100Y-46964200D01*
X94823100Y-46964200D02*
X95640400Y-46146900D01*
X95640400Y-46146900D02*
X96012000Y-46146900D01*
X70612000Y-86106000D02*
X71737300Y-86106000D01*
X96012000Y-44958000D02*
X96012000Y-46146900D01*
X70612000Y-79900700D02*
X70893400Y-79900700D01*
X70893400Y-79900700D02*
X71737300Y-79056800D01*
X71737300Y-79056800D02*
X71737300Y-77722300D01*
X71737300Y-77722300D02*
X77577600Y-71882000D01*
X77577600Y-71882000D02*
X78302600Y-71882000D01*
X78302600Y-71882000D02*
X79673300Y-70511300D01*
X79673300Y-70511300D02*
X79673300Y-60799100D01*
X79673300Y-60799100D02*
X88171000Y-52301400D01*
X88171000Y-52301400D02*
X88171000Y-48493600D01*
X88171000Y-48493600D02*
X91756600Y-44908000D01*
X91756600Y-44908000D02*
X93422000Y-44908000D01*
X93422000Y-44908000D02*
X93472000Y-44958000D01*
X70612000Y-81026000D02*
X70612000Y-79900700D01*
X92057000Y-45633300D02*
X88792000Y-48898300D01*
X88792000Y-48898300D02*
X88792000Y-52462600D01*
X88792000Y-52462600D02*
X80408000Y-60846600D01*
X80408000Y-60846600D02*
X80408000Y-72418000D01*
X80408000Y-72418000D02*
X78259300Y-74566700D01*
X78259300Y-74566700D02*
X77978000Y-74566700D01*
X77978000Y-75692000D02*
X77978000Y-74566700D01*
X77978000Y-80772000D02*
X77978000Y-79646700D01*
X93472000Y-42418000D02*
X93472000Y-43606900D01*
X93472000Y-43606900D02*
X93843500Y-43606900D01*
X93843500Y-43606900D02*
X94709300Y-44472700D01*
X94709300Y-44472700D02*
X94709300Y-45407500D01*
X94709300Y-45407500D02*
X93888800Y-46228000D01*
X93888800Y-46228000D02*
X93045500Y-46228000D01*
X93045500Y-46228000D02*
X89467600Y-49805900D01*
X89467600Y-49805900D02*
X89467600Y-52585800D01*
X89467600Y-52585800D02*
X82116400Y-59937000D01*
X82116400Y-59937000D02*
X82116400Y-75789600D01*
X82116400Y-75789600D02*
X78259300Y-79646700D01*
X78259300Y-79646700D02*
X77978000Y-79646700D01*
X96012000Y-39878000D02*
X96012000Y-41066900D01*
X96012000Y-41066900D02*
X96383500Y-41066900D01*
X96383500Y-41066900D02*
X97721800Y-42405200D01*
X97721800Y-42405200D02*
X97721800Y-50034900D01*
X97721800Y-50034900D02*
X96367700Y-51389000D01*
X96367700Y-51389000D02*
X95497700Y-51389000D01*
X95497700Y-51389000D02*
X94661000Y-52225700D01*
X94661000Y-52225700D02*
X94661000Y-53092300D01*
X94661000Y-53092300D02*
X93905300Y-53848000D01*
X93905300Y-53848000D02*
X92913100Y-53848000D01*
X92913100Y-53848000D02*
X86826300Y-59934800D01*
X86826300Y-59934800D02*
X86826300Y-82083700D01*
X86826300Y-82083700D02*
X85598000Y-83312000D01*
X77978000Y-69486700D02*
X78259400Y-69486700D01*
X78259400Y-69486700D02*
X79103300Y-68642800D01*
X79103300Y-68642800D02*
X79103300Y-60668700D01*
X79103300Y-60668700D02*
X87666200Y-52105800D01*
X87666200Y-52105800D02*
X87666200Y-46501200D01*
X87666200Y-46501200D02*
X93100500Y-41066900D01*
X93100500Y-41066900D02*
X93472000Y-41066900D01*
X77978000Y-70612000D02*
X77978000Y-69486700D01*
X93472000Y-39878000D02*
X93472000Y-41066900D01*
X49417300Y-29120000D02*
X49417300Y-29301800D01*
X49417300Y-29301800D02*
X51345500Y-31230000D01*
X51345500Y-31230000D02*
X60354700Y-31230000D01*
X60354700Y-31230000D02*
X64914700Y-26670000D01*
X66040000Y-26670000D02*
X64914700Y-26670000D01*
X48292000Y-29120000D02*
X49417300Y-29120000D01*
X53372000Y-29120000D02*
X54497300Y-29120000D01*
X54497300Y-29120000D02*
X54497300Y-29823300D01*
X54497300Y-29823300D02*
X54919400Y-30245400D01*
X54919400Y-30245400D02*
X57384600Y-30245400D01*
X57384600Y-30245400D02*
X66040000Y-21590000D01*
X66040000Y-19050000D02*
X66040000Y-20175300D01*
X55912000Y-29120000D02*
X57037300Y-29120000D01*
X57037300Y-29120000D02*
X57037300Y-28986600D01*
X57037300Y-28986600D02*
X65848600Y-20175300D01*
X65848600Y-20175300D02*
X66040000Y-20175300D01*
X73660000Y-29210000D02*
X72534700Y-29210000D01*
X48042000Y-51120000D02*
X49167300Y-51120000D01*
X49167300Y-51120000D02*
X49167300Y-50935900D01*
X49167300Y-50935900D02*
X64543200Y-35560000D01*
X64543200Y-35560000D02*
X66466000Y-35560000D01*
X66466000Y-35560000D02*
X72534700Y-29491300D01*
X72534700Y-29491300D02*
X72534700Y-29210000D01*
X73660000Y-31750000D02*
X72534700Y-31750000D01*
X50582000Y-51120000D02*
X51707300Y-51120000D01*
X51707300Y-51120000D02*
X51707300Y-50838700D01*
X51707300Y-50838700D02*
X64446000Y-38100000D01*
X64446000Y-38100000D02*
X66466000Y-38100000D01*
X66466000Y-38100000D02*
X72534700Y-32031300D01*
X72534700Y-32031300D02*
X72534700Y-31750000D01*
X73660000Y-34290000D02*
X72534700Y-34290000D01*
X53122000Y-51120000D02*
X54247300Y-51120000D01*
X54247300Y-51120000D02*
X54247300Y-50416700D01*
X54247300Y-50416700D02*
X64024000Y-40640000D01*
X64024000Y-40640000D02*
X66466000Y-40640000D01*
X66466000Y-40640000D02*
X72534700Y-34571300D01*
X72534700Y-34571300D02*
X72534700Y-34290000D01*
X73660000Y-36830000D02*
X72534700Y-36830000D01*
X55662000Y-51120000D02*
X56787300Y-51120000D01*
X56787300Y-51120000D02*
X64727300Y-43180000D01*
X64727300Y-43180000D02*
X66466000Y-43180000D01*
X66466000Y-43180000D02*
X72534700Y-37111300D01*
X72534700Y-37111300D02*
X72534700Y-36830000D01*
X40172000Y-72620000D02*
X40172000Y-73745300D01*
X40172000Y-73745300D02*
X41297300Y-74870600D01*
X41297300Y-74870600D02*
X41297300Y-90687300D01*
X41297300Y-90687300D02*
X52590000Y-101980000D01*
X52590000Y-106730000D02*
X52590000Y-101980000D01*
X37632000Y-72620000D02*
X39219300Y-71032700D01*
X39219300Y-71032700D02*
X42751100Y-71032700D01*
X42751100Y-71032700D02*
X43982000Y-72263600D01*
X43982000Y-72263600D02*
X43982000Y-77169800D01*
X43982000Y-77169800D02*
X46522000Y-79709800D01*
X46522000Y-79709800D02*
X46522000Y-91562600D01*
X46522000Y-91562600D02*
X56939400Y-101980000D01*
X56939400Y-101980000D02*
X59840000Y-101980000D01*
X59840000Y-101980000D02*
X59840000Y-106730000D01*
X45502000Y-51120000D02*
X45502000Y-52245300D01*
X45502000Y-52245300D02*
X45783300Y-52245300D01*
X45783300Y-52245300D02*
X51746600Y-58208600D01*
X51746600Y-58208600D02*
X51746600Y-92476200D01*
X51746600Y-92476200D02*
X51248600Y-92974200D01*
X51248600Y-92974200D02*
X51248600Y-95015400D01*
X51248600Y-95015400D02*
X53687200Y-97454000D01*
X53687200Y-97454000D02*
X62064000Y-97454000D01*
X62064000Y-97454000D02*
X66590000Y-101980000D01*
X66590000Y-101980000D02*
X66590000Y-106730000D01*
X42962000Y-52245300D02*
X46772000Y-56055300D01*
X46772000Y-56055300D02*
X46772000Y-67804100D01*
X46772000Y-67804100D02*
X49062000Y-70094100D01*
X49062000Y-70094100D02*
X49062000Y-93465700D01*
X49062000Y-93465700D02*
X55476000Y-99879700D01*
X55476000Y-99879700D02*
X59614200Y-99879700D01*
X59614200Y-99879700D02*
X64399100Y-104664600D01*
X64399100Y-104664600D02*
X64399100Y-106046200D01*
X64399100Y-106046200D02*
X66114800Y-107761900D01*
X66114800Y-107761900D02*
X72808100Y-107761900D01*
X72808100Y-107761900D02*
X73840000Y-106730000D01*
X42962000Y-51120000D02*
X42962000Y-52245300D01*
X73840000Y-101980000D02*
X73840000Y-106730000D01*
X40422000Y-51120000D02*
X40422000Y-52245300D01*
X40422000Y-52245300D02*
X36756600Y-55910700D01*
X36756600Y-55910700D02*
X36756600Y-58942700D01*
X36756600Y-58942700D02*
X32288300Y-63411000D01*
X32288300Y-63411000D02*
X25025700Y-63411000D01*
X25025700Y-63411000D02*
X24251300Y-64185400D01*
X24251300Y-64185400D02*
X24251300Y-65042500D01*
X24251300Y-65042500D02*
X23389500Y-65904300D01*
X23389500Y-65904300D02*
X22531200Y-65904300D01*
X22531200Y-65904300D02*
X19950900Y-68484600D01*
X19950900Y-68484600D02*
X19950900Y-98793000D01*
X19950900Y-98793000D02*
X31907300Y-110749400D01*
X31907300Y-110749400D02*
X74521900Y-110749400D01*
X74521900Y-110749400D02*
X78541300Y-106730000D01*
X78541300Y-106730000D02*
X81090000Y-106730000D01*
X81090000Y-106730000D02*
X81090000Y-101980000D01*
X73660000Y-44450000D02*
X74785300Y-44450000D01*
X107241900Y-45062600D02*
X107241900Y-44295400D01*
X107241900Y-44295400D02*
X96539800Y-33593300D01*
X96539800Y-33593300D02*
X85642000Y-33593300D01*
X85642000Y-33593300D02*
X74785300Y-44450000D01*
X77978000Y-68072000D02*
X76852700Y-68072000D01*
X52590000Y-94480000D02*
X62234000Y-84836000D01*
X62234000Y-84836000D02*
X63319500Y-84836000D01*
X63319500Y-84836000D02*
X69475300Y-78680200D01*
X69475300Y-78680200D02*
X69475300Y-75473000D01*
X69475300Y-75473000D02*
X70272300Y-74676000D01*
X70272300Y-74676000D02*
X70960900Y-74676000D01*
X70960900Y-74676000D02*
X76852700Y-68784200D01*
X76852700Y-68784200D02*
X76852700Y-68072000D01*
X59840000Y-94480000D02*
X59840000Y-92715800D01*
X59840000Y-92715800D02*
X70259800Y-82296000D01*
X70259800Y-82296000D02*
X70998600Y-82296000D01*
X70998600Y-82296000D02*
X76662000Y-76632600D01*
X76662000Y-76632600D02*
X76662000Y-74468000D01*
X76662000Y-74468000D02*
X77978000Y-73152000D01*
X77978000Y-78232000D02*
X76852700Y-78232000D01*
X66590000Y-94480000D02*
X66590000Y-88534700D01*
X66590000Y-88534700D02*
X70288700Y-84836000D01*
X70288700Y-84836000D02*
X70967000Y-84836000D01*
X70967000Y-84836000D02*
X76852700Y-78950300D01*
X76852700Y-78950300D02*
X76852700Y-78232000D01*
X85598000Y-80772000D02*
X85598000Y-81897300D01*
X73840000Y-94480000D02*
X75199600Y-95839600D01*
X75199600Y-95839600D02*
X81643400Y-95839600D01*
X81643400Y-95839600D02*
X84472700Y-93010300D01*
X84472700Y-93010300D02*
X84472700Y-82741200D01*
X84472700Y-82741200D02*
X85316600Y-81897300D01*
X85316600Y-81897300D02*
X85598000Y-81897300D01*
X85598000Y-75692000D02*
X85598000Y-76817300D01*
X81090000Y-94480000D02*
X81090000Y-81148400D01*
X81090000Y-81148400D02*
X85421100Y-76817300D01*
X85421100Y-76817300D02*
X85598000Y-76817300D01*
X70612000Y-71991300D02*
X70330600Y-71991300D01*
X70330600Y-71991300D02*
X69486700Y-72835200D01*
X69486700Y-72835200D02*
X69486700Y-73663200D01*
X69486700Y-73663200D02*
X63506500Y-79643400D01*
X63506500Y-79643400D02*
X62269700Y-79643400D01*
X62269700Y-79643400D02*
X57919600Y-75293300D01*
X57919600Y-75293300D02*
X57919600Y-72401000D01*
X70612000Y-70866000D02*
X70612000Y-71991300D01*
X62992000Y-75946000D02*
X61866700Y-75946000D01*
X61866700Y-75946000D02*
X60934100Y-75013400D01*
X60934100Y-75013400D02*
X58706400Y-75013400D01*
X55412000Y-72620000D02*
X56537300Y-72620000D01*
X61866700Y-70866000D02*
X58291300Y-70866000D01*
X58291300Y-70866000D02*
X56537300Y-72620000D01*
X62992000Y-70866000D02*
X61866700Y-70866000D01*
D23*
G36*
X112340001Y-112340000D02*
G01*
X13660000Y-112340000D01*
X13660000Y-107737323D01*
X15333000Y-107737323D01*
X15333000Y-108262677D01*
X15435492Y-108777935D01*
X15636536Y-109263298D01*
X15928406Y-109700113D01*
X16299887Y-110071594D01*
X16736702Y-110363464D01*
X17222065Y-110564508D01*
X17737323Y-110667000D01*
X18262677Y-110667000D01*
X18777935Y-110564508D01*
X19263298Y-110363464D01*
X19700113Y-110071594D01*
X20071594Y-109700113D01*
X20363464Y-109263298D01*
X20564508Y-108777935D01*
X20667000Y-108262677D01*
X20667000Y-107737323D01*
X20564508Y-107222065D01*
X20363464Y-106736702D01*
X20071594Y-106299887D01*
X19700113Y-105928406D01*
X19263298Y-105636536D01*
X18777935Y-105435492D01*
X18262677Y-105333000D01*
X17737323Y-105333000D01*
X17222065Y-105435492D01*
X16736702Y-105636536D01*
X16299887Y-105928406D01*
X15928406Y-106299887D01*
X15636536Y-106736702D01*
X15435492Y-107222065D01*
X15333000Y-107737323D01*
X13660000Y-107737323D01*
X13660000Y-46056800D01*
X18736924Y-46056800D01*
X18740600Y-46094122D01*
X18740601Y-98942267D01*
X18736924Y-98979600D01*
X18740601Y-99016933D01*
X18751598Y-99128586D01*
X18752239Y-99130698D01*
X18795054Y-99271846D01*
X18865626Y-99403876D01*
X18907135Y-99454454D01*
X18960600Y-99519601D01*
X18989598Y-99543399D01*
X31156901Y-111710703D01*
X31180699Y-111739701D01*
X31209697Y-111763499D01*
X31296423Y-111834674D01*
X31428453Y-111905246D01*
X31571714Y-111948703D01*
X31683367Y-111959700D01*
X31683376Y-111959700D01*
X31720699Y-111963376D01*
X31758022Y-111959700D01*
X76249678Y-111959700D01*
X76287000Y-111963376D01*
X76324322Y-111959700D01*
X76324333Y-111959700D01*
X76435986Y-111948703D01*
X76579247Y-111905246D01*
X76711276Y-111834674D01*
X76827001Y-111739701D01*
X76850804Y-111710697D01*
X78958172Y-109603330D01*
X79797278Y-109603330D01*
X79887147Y-109849123D01*
X80023241Y-110072660D01*
X80200330Y-110265351D01*
X80411608Y-110419792D01*
X80648956Y-110530047D01*
X80756671Y-110562716D01*
X80963000Y-110439374D01*
X80963000Y-109397000D01*
X81217000Y-109397000D01*
X81217000Y-110439374D01*
X81423329Y-110562716D01*
X81531044Y-110530047D01*
X81768392Y-110419792D01*
X81979670Y-110265351D01*
X82156759Y-110072660D01*
X82292853Y-109849123D01*
X82382722Y-109603330D01*
X82260201Y-109397000D01*
X81217000Y-109397000D01*
X80963000Y-109397000D01*
X79919799Y-109397000D01*
X79797278Y-109603330D01*
X78958172Y-109603330D01*
X79556903Y-109004600D01*
X79837616Y-109004600D01*
X79919799Y-109143000D01*
X80963000Y-109143000D01*
X80963000Y-109123000D01*
X81217000Y-109123000D01*
X81217000Y-109143000D01*
X82260201Y-109143000D01*
X82382722Y-108936670D01*
X82292853Y-108690877D01*
X82156759Y-108467340D01*
X82053604Y-108355097D01*
X82671378Y-107737323D01*
X105333000Y-107737323D01*
X105333000Y-108262677D01*
X105435492Y-108777935D01*
X105636536Y-109263298D01*
X105928406Y-109700113D01*
X106299887Y-110071594D01*
X106736702Y-110363464D01*
X107222065Y-110564508D01*
X107737323Y-110667000D01*
X108262677Y-110667000D01*
X108777935Y-110564508D01*
X109263298Y-110363464D01*
X109700113Y-110071594D01*
X110071594Y-109700113D01*
X110363464Y-109263298D01*
X110564508Y-108777935D01*
X110667000Y-108262677D01*
X110667000Y-107737323D01*
X110564508Y-107222065D01*
X110363464Y-106736702D01*
X110071594Y-106299887D01*
X109700113Y-105928406D01*
X109263298Y-105636536D01*
X108777935Y-105435492D01*
X108262677Y-105333000D01*
X107737323Y-105333000D01*
X107222065Y-105435492D01*
X106736702Y-105636536D01*
X106299887Y-105928406D01*
X105928406Y-106299887D01*
X105636536Y-106736702D01*
X105435492Y-107222065D01*
X105333000Y-107737323D01*
X82671378Y-107737323D01*
X92313304Y-98095398D01*
X92342301Y-98071601D01*
X92405986Y-97994001D01*
X92437274Y-97955877D01*
X92507846Y-97823847D01*
X92531385Y-97746247D01*
X92551303Y-97680586D01*
X92562300Y-97568933D01*
X92562300Y-97568923D01*
X92565976Y-97531600D01*
X92562300Y-97494277D01*
X92562300Y-94412509D01*
X92762147Y-94546042D01*
X93034875Y-94659010D01*
X93324401Y-94716600D01*
X93619599Y-94716600D01*
X93909125Y-94659010D01*
X94181853Y-94546042D01*
X94427302Y-94382039D01*
X94636039Y-94173302D01*
X94742000Y-94014719D01*
X94847961Y-94173302D01*
X95056698Y-94382039D01*
X95302147Y-94546042D01*
X95574875Y-94659010D01*
X95864401Y-94716600D01*
X96159599Y-94716600D01*
X96449125Y-94659010D01*
X96721853Y-94546042D01*
X96967302Y-94382039D01*
X97176039Y-94173302D01*
X97340042Y-93927853D01*
X97453010Y-93655125D01*
X97510600Y-93365599D01*
X97510600Y-93070401D01*
X97453010Y-92780875D01*
X97340042Y-92508147D01*
X97176039Y-92262698D01*
X96967302Y-92053961D01*
X96808719Y-91948000D01*
X96967302Y-91842039D01*
X97176039Y-91633302D01*
X97340042Y-91387853D01*
X97453010Y-91115125D01*
X97510600Y-90825599D01*
X97510600Y-90530401D01*
X97453010Y-90240875D01*
X97340042Y-89968147D01*
X97176039Y-89722698D01*
X96967302Y-89513961D01*
X96808719Y-89408000D01*
X96967302Y-89302039D01*
X97176039Y-89093302D01*
X97340042Y-88847853D01*
X97453010Y-88575125D01*
X97510600Y-88285599D01*
X97510600Y-87990401D01*
X97453010Y-87700875D01*
X97340042Y-87428147D01*
X97176039Y-87182698D01*
X96967302Y-86973961D01*
X96808719Y-86868000D01*
X96967302Y-86762039D01*
X97176039Y-86553302D01*
X97340042Y-86307853D01*
X97453010Y-86035125D01*
X97510600Y-85745599D01*
X97510600Y-85450401D01*
X97453010Y-85160875D01*
X97340042Y-84888147D01*
X97176039Y-84642698D01*
X96967302Y-84433961D01*
X96808719Y-84328000D01*
X96967302Y-84222039D01*
X97176039Y-84013302D01*
X97306535Y-83818000D01*
X104952278Y-83818000D01*
X104989600Y-83821676D01*
X105026922Y-83818000D01*
X105026933Y-83818000D01*
X105138586Y-83807003D01*
X105281847Y-83763546D01*
X105413876Y-83692974D01*
X105529601Y-83598001D01*
X105553404Y-83568997D01*
X109644803Y-79477599D01*
X109673801Y-79453801D01*
X109768774Y-79338076D01*
X109839346Y-79206047D01*
X109882803Y-79062786D01*
X109893800Y-78951133D01*
X109893800Y-78951123D01*
X109897476Y-78913800D01*
X109893800Y-78876477D01*
X109893800Y-43084022D01*
X109897476Y-43046699D01*
X109893800Y-43009376D01*
X109893800Y-43009367D01*
X109882803Y-42897714D01*
X109839346Y-42754453D01*
X109768774Y-42622424D01*
X109712772Y-42554185D01*
X109697599Y-42535696D01*
X109697595Y-42535692D01*
X109673801Y-42506699D01*
X109644810Y-42482907D01*
X92180504Y-25018603D01*
X92156701Y-24989599D01*
X92040976Y-24894626D01*
X91908947Y-24824054D01*
X91765686Y-24780597D01*
X91654033Y-24769600D01*
X91654022Y-24769600D01*
X91616700Y-24765924D01*
X91579378Y-24769600D01*
X74948301Y-24769600D01*
X75039853Y-24548574D01*
X75095000Y-24271335D01*
X75095000Y-23988665D01*
X75039853Y-23711426D01*
X74931680Y-23450273D01*
X74774637Y-23215241D01*
X74574759Y-23015363D01*
X74342241Y-22860000D01*
X74574759Y-22704637D01*
X74774637Y-22504759D01*
X74931680Y-22269727D01*
X75039853Y-22008574D01*
X75095000Y-21731335D01*
X75095000Y-21448665D01*
X75039853Y-21171426D01*
X74931680Y-20910273D01*
X74774637Y-20675241D01*
X74574759Y-20475363D01*
X74342241Y-20320000D01*
X74574759Y-20164637D01*
X74774637Y-19964759D01*
X74931680Y-19729727D01*
X75039853Y-19468574D01*
X75095000Y-19191335D01*
X75095000Y-18908665D01*
X75039853Y-18631426D01*
X74931680Y-18370273D01*
X74774637Y-18135241D01*
X74574759Y-17935363D01*
X74339727Y-17778320D01*
X74240752Y-17737323D01*
X105333000Y-17737323D01*
X105333000Y-18262677D01*
X105435492Y-18777935D01*
X105636536Y-19263298D01*
X105928406Y-19700113D01*
X106299887Y-20071594D01*
X106736702Y-20363464D01*
X107222065Y-20564508D01*
X107737323Y-20667000D01*
X108262677Y-20667000D01*
X108777935Y-20564508D01*
X109263298Y-20363464D01*
X109700113Y-20071594D01*
X110071594Y-19700113D01*
X110363464Y-19263298D01*
X110564508Y-18777935D01*
X110667000Y-18262677D01*
X110667000Y-17737323D01*
X110564508Y-17222065D01*
X110363464Y-16736702D01*
X110071594Y-16299887D01*
X109700113Y-15928406D01*
X109263298Y-15636536D01*
X108777935Y-15435492D01*
X108262677Y-15333000D01*
X107737323Y-15333000D01*
X107222065Y-15435492D01*
X106736702Y-15636536D01*
X106299887Y-15928406D01*
X105928406Y-16299887D01*
X105636536Y-16736702D01*
X105435492Y-17222065D01*
X105333000Y-17737323D01*
X74240752Y-17737323D01*
X74078574Y-17670147D01*
X73801335Y-17615000D01*
X73518665Y-17615000D01*
X73241426Y-17670147D01*
X72980273Y-17778320D01*
X72745241Y-17935363D01*
X72545363Y-18135241D01*
X72388320Y-18370273D01*
X72280147Y-18631426D01*
X72225000Y-18908665D01*
X72225000Y-19191335D01*
X72280147Y-19468574D01*
X72388320Y-19729727D01*
X72545363Y-19964759D01*
X72745241Y-20164637D01*
X72977759Y-20320000D01*
X72745241Y-20475363D01*
X72545363Y-20675241D01*
X72388320Y-20910273D01*
X72280147Y-21171426D01*
X72225000Y-21448665D01*
X72225000Y-21731335D01*
X72280147Y-22008574D01*
X72388320Y-22269727D01*
X72545363Y-22504759D01*
X72745241Y-22704637D01*
X72977759Y-22860000D01*
X72745241Y-23015363D01*
X72545363Y-23215241D01*
X72388320Y-23450273D01*
X72280147Y-23711426D01*
X72225000Y-23988665D01*
X72225000Y-24271335D01*
X72280147Y-24548574D01*
X72371699Y-24769600D01*
X67328301Y-24769600D01*
X67419853Y-24548574D01*
X67475000Y-24271335D01*
X67475000Y-23988665D01*
X67419853Y-23711426D01*
X67311680Y-23450273D01*
X67154637Y-23215241D01*
X66954759Y-23015363D01*
X66722241Y-22860000D01*
X66954759Y-22704637D01*
X67154637Y-22504759D01*
X67311680Y-22269727D01*
X67419853Y-22008574D01*
X67475000Y-21731335D01*
X67475000Y-21448665D01*
X67419853Y-21171426D01*
X67311680Y-20910273D01*
X67154637Y-20675241D01*
X66956039Y-20476643D01*
X66964482Y-20475812D01*
X67084180Y-20439502D01*
X67194494Y-20380537D01*
X67291185Y-20301185D01*
X67370537Y-20204494D01*
X67429502Y-20094180D01*
X67465812Y-19974482D01*
X67478072Y-19850000D01*
X67478072Y-18250000D01*
X67465812Y-18125518D01*
X67429502Y-18005820D01*
X67370537Y-17895506D01*
X67291185Y-17798815D01*
X67194494Y-17719463D01*
X67084180Y-17660498D01*
X66964482Y-17624188D01*
X66840000Y-17611928D01*
X65240000Y-17611928D01*
X65115518Y-17624188D01*
X64995820Y-17660498D01*
X64885506Y-17719463D01*
X64788815Y-17798815D01*
X64709463Y-17895506D01*
X64650498Y-18005820D01*
X64614188Y-18125518D01*
X64601928Y-18250000D01*
X64601928Y-19850000D01*
X64614188Y-19974482D01*
X64650498Y-20094180D01*
X64709463Y-20204494D01*
X64725303Y-20223795D01*
X57117652Y-27831447D01*
X57066494Y-27789463D01*
X56956180Y-27730498D01*
X56836482Y-27694188D01*
X56712000Y-27681928D01*
X55112000Y-27681928D01*
X54987518Y-27694188D01*
X54867820Y-27730498D01*
X54757506Y-27789463D01*
X54660815Y-27868815D01*
X54581463Y-27965506D01*
X54522498Y-28075820D01*
X54486188Y-28195518D01*
X54485357Y-28203961D01*
X54286759Y-28005363D01*
X54051727Y-27848320D01*
X53790574Y-27740147D01*
X53513335Y-27685000D01*
X53230665Y-27685000D01*
X52953426Y-27740147D01*
X52692273Y-27848320D01*
X52457241Y-28005363D01*
X52445053Y-28017551D01*
X51372504Y-26945003D01*
X51348701Y-26915999D01*
X51232976Y-26821026D01*
X51100947Y-26750454D01*
X50957686Y-26706997D01*
X50846033Y-26696000D01*
X50846022Y-26696000D01*
X50808700Y-26692324D01*
X50771378Y-26696000D01*
X33785522Y-26696000D01*
X33748199Y-26692324D01*
X33710876Y-26696000D01*
X33710867Y-26696000D01*
X33599214Y-26706997D01*
X33455953Y-26750454D01*
X33323924Y-26821026D01*
X33208199Y-26915999D01*
X33184396Y-26945003D01*
X33059799Y-27069600D01*
X26926137Y-27069600D01*
X26981010Y-26937125D01*
X27038600Y-26647599D01*
X27038600Y-26352401D01*
X26981010Y-26062875D01*
X26868042Y-25790147D01*
X26704039Y-25544698D01*
X26495302Y-25335961D01*
X26249853Y-25171958D01*
X25977125Y-25058990D01*
X25687599Y-25001400D01*
X25392401Y-25001400D01*
X25102875Y-25058990D01*
X24830147Y-25171958D01*
X24584698Y-25335961D01*
X24470636Y-25450023D01*
X24453102Y-25392220D01*
X24394137Y-25281906D01*
X24314785Y-25185215D01*
X24218094Y-25105863D01*
X24107780Y-25046898D01*
X23988082Y-25010588D01*
X23863600Y-24998328D01*
X22136400Y-24998328D01*
X22011918Y-25010588D01*
X21892220Y-25046898D01*
X21781906Y-25105863D01*
X21685215Y-25185215D01*
X21605863Y-25281906D01*
X21546898Y-25392220D01*
X21510588Y-25511918D01*
X21498328Y-25636400D01*
X21498328Y-27363600D01*
X21510588Y-27488082D01*
X21546898Y-27607780D01*
X21582818Y-27674981D01*
X21299998Y-27957801D01*
X21271000Y-27981599D01*
X21247202Y-28010597D01*
X21247201Y-28010598D01*
X21176026Y-28097324D01*
X21105454Y-28229354D01*
X21077958Y-28320000D01*
X21065825Y-28360000D01*
X21061998Y-28372615D01*
X21047324Y-28521600D01*
X21051001Y-28558932D01*
X21051000Y-37124278D01*
X21047324Y-37161600D01*
X21051000Y-37198922D01*
X21051000Y-37198932D01*
X21061997Y-37310585D01*
X21103469Y-37447301D01*
X21105454Y-37453846D01*
X21176026Y-37585876D01*
X21200176Y-37615302D01*
X21270999Y-37701601D01*
X21300002Y-37725403D01*
X21829286Y-38254688D01*
X21671958Y-38490147D01*
X21558990Y-38762875D01*
X21501400Y-39052401D01*
X21501400Y-39347599D01*
X21558990Y-39637125D01*
X21671958Y-39909853D01*
X21835961Y-40155302D01*
X22044698Y-40364039D01*
X22203281Y-40470000D01*
X22044698Y-40575961D01*
X21835961Y-40784698D01*
X21671958Y-41030147D01*
X21558990Y-41302875D01*
X21501400Y-41592401D01*
X21501400Y-41887599D01*
X21558990Y-42177125D01*
X21671958Y-42449853D01*
X21816469Y-42666129D01*
X18989603Y-45492996D01*
X18960599Y-45516799D01*
X18921340Y-45564637D01*
X18865626Y-45632524D01*
X18806069Y-45743946D01*
X18795054Y-45764554D01*
X18751597Y-45907815D01*
X18740600Y-46019468D01*
X18740600Y-46019478D01*
X18736924Y-46056800D01*
X13660000Y-46056800D01*
X13660000Y-17737323D01*
X15333000Y-17737323D01*
X15333000Y-18262677D01*
X15435492Y-18777935D01*
X15636536Y-19263298D01*
X15928406Y-19700113D01*
X16299887Y-20071594D01*
X16736702Y-20363464D01*
X17222065Y-20564508D01*
X17737323Y-20667000D01*
X18262677Y-20667000D01*
X18777935Y-20564508D01*
X19263298Y-20363464D01*
X19700113Y-20071594D01*
X20071594Y-19700113D01*
X20363464Y-19263298D01*
X20564508Y-18777935D01*
X20667000Y-18262677D01*
X20667000Y-17737323D01*
X20564508Y-17222065D01*
X20363464Y-16736702D01*
X20071594Y-16299887D01*
X19700113Y-15928406D01*
X19263298Y-15636536D01*
X18777935Y-15435492D01*
X18262677Y-15333000D01*
X17737323Y-15333000D01*
X17222065Y-15435492D01*
X16736702Y-15636536D01*
X16299887Y-15928406D01*
X15928406Y-16299887D01*
X15636536Y-16736702D01*
X15435492Y-17222065D01*
X15333000Y-17737323D01*
X13660000Y-17737323D01*
X13660000Y-13660000D01*
X112340000Y-13660000D01*
X112340001Y-112340000D01*
G37*
X112340001Y-112340000D02*
X13660000Y-112340000D01*
X13660000Y-107737323D01*
X15333000Y-107737323D01*
X15333000Y-108262677D01*
X15435492Y-108777935D01*
X15636536Y-109263298D01*
X15928406Y-109700113D01*
X16299887Y-110071594D01*
X16736702Y-110363464D01*
X17222065Y-110564508D01*
X17737323Y-110667000D01*
X18262677Y-110667000D01*
X18777935Y-110564508D01*
X19263298Y-110363464D01*
X19700113Y-110071594D01*
X20071594Y-109700113D01*
X20363464Y-109263298D01*
X20564508Y-108777935D01*
X20667000Y-108262677D01*
X20667000Y-107737323D01*
X20564508Y-107222065D01*
X20363464Y-106736702D01*
X20071594Y-106299887D01*
X19700113Y-105928406D01*
X19263298Y-105636536D01*
X18777935Y-105435492D01*
X18262677Y-105333000D01*
X17737323Y-105333000D01*
X17222065Y-105435492D01*
X16736702Y-105636536D01*
X16299887Y-105928406D01*
X15928406Y-106299887D01*
X15636536Y-106736702D01*
X15435492Y-107222065D01*
X15333000Y-107737323D01*
X13660000Y-107737323D01*
X13660000Y-46056800D01*
X18736924Y-46056800D01*
X18740600Y-46094122D01*
X18740601Y-98942267D01*
X18736924Y-98979600D01*
X18740601Y-99016933D01*
X18751598Y-99128586D01*
X18752239Y-99130698D01*
X18795054Y-99271846D01*
X18865626Y-99403876D01*
X18907135Y-99454454D01*
X18960600Y-99519601D01*
X18989598Y-99543399D01*
X31156901Y-111710703D01*
X31180699Y-111739701D01*
X31209697Y-111763499D01*
X31296423Y-111834674D01*
X31428453Y-111905246D01*
X31571714Y-111948703D01*
X31683367Y-111959700D01*
X31683376Y-111959700D01*
X31720699Y-111963376D01*
X31758022Y-111959700D01*
X76249678Y-111959700D01*
X76287000Y-111963376D01*
X76324322Y-111959700D01*
X76324333Y-111959700D01*
X76435986Y-111948703D01*
X76579247Y-111905246D01*
X76711276Y-111834674D01*
X76827001Y-111739701D01*
X76850804Y-111710697D01*
X78958172Y-109603330D01*
X79797278Y-109603330D01*
X79887147Y-109849123D01*
X80023241Y-110072660D01*
X80200330Y-110265351D01*
X80411608Y-110419792D01*
X80648956Y-110530047D01*
X80756671Y-110562716D01*
X80963000Y-110439374D01*
X80963000Y-109397000D01*
X81217000Y-109397000D01*
X81217000Y-110439374D01*
X81423329Y-110562716D01*
X81531044Y-110530047D01*
X81768392Y-110419792D01*
X81979670Y-110265351D01*
X82156759Y-110072660D01*
X82292853Y-109849123D01*
X82382722Y-109603330D01*
X82260201Y-109397000D01*
X81217000Y-109397000D01*
X80963000Y-109397000D01*
X79919799Y-109397000D01*
X79797278Y-109603330D01*
X78958172Y-109603330D01*
X79556903Y-109004600D01*
X79837616Y-109004600D01*
X79919799Y-109143000D01*
X80963000Y-109143000D01*
X80963000Y-109123000D01*
X81217000Y-109123000D01*
X81217000Y-109143000D01*
X82260201Y-109143000D01*
X82382722Y-108936670D01*
X82292853Y-108690877D01*
X82156759Y-108467340D01*
X82053604Y-108355097D01*
X82671378Y-107737323D01*
X105333000Y-107737323D01*
X105333000Y-108262677D01*
X105435492Y-108777935D01*
X105636536Y-109263298D01*
X105928406Y-109700113D01*
X106299887Y-110071594D01*
X106736702Y-110363464D01*
X107222065Y-110564508D01*
X107737323Y-110667000D01*
X108262677Y-110667000D01*
X108777935Y-110564508D01*
X109263298Y-110363464D01*
X109700113Y-110071594D01*
X110071594Y-109700113D01*
X110363464Y-109263298D01*
X110564508Y-108777935D01*
X110667000Y-108262677D01*
X110667000Y-107737323D01*
X110564508Y-107222065D01*
X110363464Y-106736702D01*
X110071594Y-106299887D01*
X109700113Y-105928406D01*
X109263298Y-105636536D01*
X108777935Y-105435492D01*
X108262677Y-105333000D01*
X107737323Y-105333000D01*
X107222065Y-105435492D01*
X106736702Y-105636536D01*
X106299887Y-105928406D01*
X105928406Y-106299887D01*
X105636536Y-106736702D01*
X105435492Y-107222065D01*
X105333000Y-107737323D01*
X82671378Y-107737323D01*
X92313304Y-98095398D01*
X92342301Y-98071601D01*
X92405986Y-97994001D01*
X92437274Y-97955877D01*
X92507846Y-97823847D01*
X92531385Y-97746247D01*
X92551303Y-97680586D01*
X92562300Y-97568933D01*
X92562300Y-97568923D01*
X92565976Y-97531600D01*
X92562300Y-97494277D01*
X92562300Y-94412509D01*
X92762147Y-94546042D01*
X93034875Y-94659010D01*
X93324401Y-94716600D01*
X93619599Y-94716600D01*
X93909125Y-94659010D01*
X94181853Y-94546042D01*
X94427302Y-94382039D01*
X94636039Y-94173302D01*
X94742000Y-94014719D01*
X94847961Y-94173302D01*
X95056698Y-94382039D01*
X95302147Y-94546042D01*
X95574875Y-94659010D01*
X95864401Y-94716600D01*
X96159599Y-94716600D01*
X96449125Y-94659010D01*
X96721853Y-94546042D01*
X96967302Y-94382039D01*
X97176039Y-94173302D01*
X97340042Y-93927853D01*
X97453010Y-93655125D01*
X97510600Y-93365599D01*
X97510600Y-93070401D01*
X97453010Y-92780875D01*
X97340042Y-92508147D01*
X97176039Y-92262698D01*
X96967302Y-92053961D01*
X96808719Y-91948000D01*
X96967302Y-91842039D01*
X97176039Y-91633302D01*
X97340042Y-91387853D01*
X97453010Y-91115125D01*
X97510600Y-90825599D01*
X97510600Y-90530401D01*
X97453010Y-90240875D01*
X97340042Y-89968147D01*
X97176039Y-89722698D01*
X96967302Y-89513961D01*
X96808719Y-89408000D01*
X96967302Y-89302039D01*
X97176039Y-89093302D01*
X97340042Y-88847853D01*
X97453010Y-88575125D01*
X97510600Y-88285599D01*
X97510600Y-87990401D01*
X97453010Y-87700875D01*
X97340042Y-87428147D01*
X97176039Y-87182698D01*
X96967302Y-86973961D01*
X96808719Y-86868000D01*
X96967302Y-86762039D01*
X97176039Y-86553302D01*
X97340042Y-86307853D01*
X97453010Y-86035125D01*
X97510600Y-85745599D01*
X97510600Y-85450401D01*
X97453010Y-85160875D01*
X97340042Y-84888147D01*
X97176039Y-84642698D01*
X96967302Y-84433961D01*
X96808719Y-84328000D01*
X96967302Y-84222039D01*
X97176039Y-84013302D01*
X97306535Y-83818000D01*
X104952278Y-83818000D01*
X104989600Y-83821676D01*
X105026922Y-83818000D01*
X105026933Y-83818000D01*
X105138586Y-83807003D01*
X105281847Y-83763546D01*
X105413876Y-83692974D01*
X105529601Y-83598001D01*
X105553404Y-83568997D01*
X109644803Y-79477599D01*
X109673801Y-79453801D01*
X109768774Y-79338076D01*
X109839346Y-79206047D01*
X109882803Y-79062786D01*
X109893800Y-78951133D01*
X109893800Y-78951123D01*
X109897476Y-78913800D01*
X109893800Y-78876477D01*
X109893800Y-43084022D01*
X109897476Y-43046699D01*
X109893800Y-43009376D01*
X109893800Y-43009367D01*
X109882803Y-42897714D01*
X109839346Y-42754453D01*
X109768774Y-42622424D01*
X109712772Y-42554185D01*
X109697599Y-42535696D01*
X109697595Y-42535692D01*
X109673801Y-42506699D01*
X109644810Y-42482907D01*
X92180504Y-25018603D01*
X92156701Y-24989599D01*
X92040976Y-24894626D01*
X91908947Y-24824054D01*
X91765686Y-24780597D01*
X91654033Y-24769600D01*
X91654022Y-24769600D01*
X91616700Y-24765924D01*
X91579378Y-24769600D01*
X74948301Y-24769600D01*
X75039853Y-24548574D01*
X75095000Y-24271335D01*
X75095000Y-23988665D01*
X75039853Y-23711426D01*
X74931680Y-23450273D01*
X74774637Y-23215241D01*
X74574759Y-23015363D01*
X74342241Y-22860000D01*
X74574759Y-22704637D01*
X74774637Y-22504759D01*
X74931680Y-22269727D01*
X75039853Y-22008574D01*
X75095000Y-21731335D01*
X75095000Y-21448665D01*
X75039853Y-21171426D01*
X74931680Y-20910273D01*
X74774637Y-20675241D01*
X74574759Y-20475363D01*
X74342241Y-20320000D01*
X74574759Y-20164637D01*
X74774637Y-19964759D01*
X74931680Y-19729727D01*
X75039853Y-19468574D01*
X75095000Y-19191335D01*
X75095000Y-18908665D01*
X75039853Y-18631426D01*
X74931680Y-18370273D01*
X74774637Y-18135241D01*
X74574759Y-17935363D01*
X74339727Y-17778320D01*
X74240752Y-17737323D01*
X105333000Y-17737323D01*
X105333000Y-18262677D01*
X105435492Y-18777935D01*
X105636536Y-19263298D01*
X105928406Y-19700113D01*
X106299887Y-20071594D01*
X106736702Y-20363464D01*
X107222065Y-20564508D01*
X107737323Y-20667000D01*
X108262677Y-20667000D01*
X108777935Y-20564508D01*
X109263298Y-20363464D01*
X109700113Y-20071594D01*
X110071594Y-19700113D01*
X110363464Y-19263298D01*
X110564508Y-18777935D01*
X110667000Y-18262677D01*
X110667000Y-17737323D01*
X110564508Y-17222065D01*
X110363464Y-16736702D01*
X110071594Y-16299887D01*
X109700113Y-15928406D01*
X109263298Y-15636536D01*
X108777935Y-15435492D01*
X108262677Y-15333000D01*
X107737323Y-15333000D01*
X107222065Y-15435492D01*
X106736702Y-15636536D01*
X106299887Y-15928406D01*
X105928406Y-16299887D01*
X105636536Y-16736702D01*
X105435492Y-17222065D01*
X105333000Y-17737323D01*
X74240752Y-17737323D01*
X74078574Y-17670147D01*
X73801335Y-17615000D01*
X73518665Y-17615000D01*
X73241426Y-17670147D01*
X72980273Y-17778320D01*
X72745241Y-17935363D01*
X72545363Y-18135241D01*
X72388320Y-18370273D01*
X72280147Y-18631426D01*
X72225000Y-18908665D01*
X72225000Y-19191335D01*
X72280147Y-19468574D01*
X72388320Y-19729727D01*
X72545363Y-19964759D01*
X72745241Y-20164637D01*
X72977759Y-20320000D01*
X72745241Y-20475363D01*
X72545363Y-20675241D01*
X72388320Y-20910273D01*
X72280147Y-21171426D01*
X72225000Y-21448665D01*
X72225000Y-21731335D01*
X72280147Y-22008574D01*
X72388320Y-22269727D01*
X72545363Y-22504759D01*
X72745241Y-22704637D01*
X72977759Y-22860000D01*
X72745241Y-23015363D01*
X72545363Y-23215241D01*
X72388320Y-23450273D01*
X72280147Y-23711426D01*
X72225000Y-23988665D01*
X72225000Y-24271335D01*
X72280147Y-24548574D01*
X72371699Y-24769600D01*
X67328301Y-24769600D01*
X67419853Y-24548574D01*
X67475000Y-24271335D01*
X67475000Y-23988665D01*
X67419853Y-23711426D01*
X67311680Y-23450273D01*
X67154637Y-23215241D01*
X66954759Y-23015363D01*
X66722241Y-22860000D01*
X66954759Y-22704637D01*
X67154637Y-22504759D01*
X67311680Y-22269727D01*
X67419853Y-22008574D01*
X67475000Y-21731335D01*
X67475000Y-21448665D01*
X67419853Y-21171426D01*
X67311680Y-20910273D01*
X67154637Y-20675241D01*
X66956039Y-20476643D01*
X66964482Y-20475812D01*
X67084180Y-20439502D01*
X67194494Y-20380537D01*
X67291185Y-20301185D01*
X67370537Y-20204494D01*
X67429502Y-20094180D01*
X67465812Y-19974482D01*
X67478072Y-19850000D01*
X67478072Y-18250000D01*
X67465812Y-18125518D01*
X67429502Y-18005820D01*
X67370537Y-17895506D01*
X67291185Y-17798815D01*
X67194494Y-17719463D01*
X67084180Y-17660498D01*
X66964482Y-17624188D01*
X66840000Y-17611928D01*
X65240000Y-17611928D01*
X65115518Y-17624188D01*
X64995820Y-17660498D01*
X64885506Y-17719463D01*
X64788815Y-17798815D01*
X64709463Y-17895506D01*
X64650498Y-18005820D01*
X64614188Y-18125518D01*
X64601928Y-18250000D01*
X64601928Y-19850000D01*
X64614188Y-19974482D01*
X64650498Y-20094180D01*
X64709463Y-20204494D01*
X64725303Y-20223795D01*
X57117652Y-27831447D01*
X57066494Y-27789463D01*
X56956180Y-27730498D01*
X56836482Y-27694188D01*
X56712000Y-27681928D01*
X55112000Y-27681928D01*
X54987518Y-27694188D01*
X54867820Y-27730498D01*
X54757506Y-27789463D01*
X54660815Y-27868815D01*
X54581463Y-27965506D01*
X54522498Y-28075820D01*
X54486188Y-28195518D01*
X54485357Y-28203961D01*
X54286759Y-28005363D01*
X54051727Y-27848320D01*
X53790574Y-27740147D01*
X53513335Y-27685000D01*
X53230665Y-27685000D01*
X52953426Y-27740147D01*
X52692273Y-27848320D01*
X52457241Y-28005363D01*
X52445053Y-28017551D01*
X51372504Y-26945003D01*
X51348701Y-26915999D01*
X51232976Y-26821026D01*
X51100947Y-26750454D01*
X50957686Y-26706997D01*
X50846033Y-26696000D01*
X50846022Y-26696000D01*
X50808700Y-26692324D01*
X50771378Y-26696000D01*
X33785522Y-26696000D01*
X33748199Y-26692324D01*
X33710876Y-26696000D01*
X33710867Y-26696000D01*
X33599214Y-26706997D01*
X33455953Y-26750454D01*
X33323924Y-26821026D01*
X33208199Y-26915999D01*
X33184396Y-26945003D01*
X33059799Y-27069600D01*
X26926137Y-27069600D01*
X26981010Y-26937125D01*
X27038600Y-26647599D01*
X27038600Y-26352401D01*
X26981010Y-26062875D01*
X26868042Y-25790147D01*
X26704039Y-25544698D01*
X26495302Y-25335961D01*
X26249853Y-25171958D01*
X25977125Y-25058990D01*
X25687599Y-25001400D01*
X25392401Y-25001400D01*
X25102875Y-25058990D01*
X24830147Y-25171958D01*
X24584698Y-25335961D01*
X24470636Y-25450023D01*
X24453102Y-25392220D01*
X24394137Y-25281906D01*
X24314785Y-25185215D01*
X24218094Y-25105863D01*
X24107780Y-25046898D01*
X23988082Y-25010588D01*
X23863600Y-24998328D01*
X22136400Y-24998328D01*
X22011918Y-25010588D01*
X21892220Y-25046898D01*
X21781906Y-25105863D01*
X21685215Y-25185215D01*
X21605863Y-25281906D01*
X21546898Y-25392220D01*
X21510588Y-25511918D01*
X21498328Y-25636400D01*
X21498328Y-27363600D01*
X21510588Y-27488082D01*
X21546898Y-27607780D01*
X21582818Y-27674981D01*
X21299998Y-27957801D01*
X21271000Y-27981599D01*
X21247202Y-28010597D01*
X21247201Y-28010598D01*
X21176026Y-28097324D01*
X21105454Y-28229354D01*
X21077958Y-28320000D01*
X21065825Y-28360000D01*
X21061998Y-28372615D01*
X21047324Y-28521600D01*
X21051001Y-28558932D01*
X21051000Y-37124278D01*
X21047324Y-37161600D01*
X21051000Y-37198922D01*
X21051000Y-37198932D01*
X21061997Y-37310585D01*
X21103469Y-37447301D01*
X21105454Y-37453846D01*
X21176026Y-37585876D01*
X21200176Y-37615302D01*
X21270999Y-37701601D01*
X21300002Y-37725403D01*
X21829286Y-38254688D01*
X21671958Y-38490147D01*
X21558990Y-38762875D01*
X21501400Y-39052401D01*
X21501400Y-39347599D01*
X21558990Y-39637125D01*
X21671958Y-39909853D01*
X21835961Y-40155302D01*
X22044698Y-40364039D01*
X22203281Y-40470000D01*
X22044698Y-40575961D01*
X21835961Y-40784698D01*
X21671958Y-41030147D01*
X21558990Y-41302875D01*
X21501400Y-41592401D01*
X21501400Y-41887599D01*
X21558990Y-42177125D01*
X21671958Y-42449853D01*
X21816469Y-42666129D01*
X18989603Y-45492996D01*
X18960599Y-45516799D01*
X18921340Y-45564637D01*
X18865626Y-45632524D01*
X18806069Y-45743946D01*
X18795054Y-45764554D01*
X18751597Y-45907815D01*
X18740600Y-46019468D01*
X18740600Y-46019478D01*
X18736924Y-46056800D01*
X13660000Y-46056800D01*
X13660000Y-17737323D01*
X15333000Y-17737323D01*
X15333000Y-18262677D01*
X15435492Y-18777935D01*
X15636536Y-19263298D01*
X15928406Y-19700113D01*
X16299887Y-20071594D01*
X16736702Y-20363464D01*
X17222065Y-20564508D01*
X17737323Y-20667000D01*
X18262677Y-20667000D01*
X18777935Y-20564508D01*
X19263298Y-20363464D01*
X19700113Y-20071594D01*
X20071594Y-19700113D01*
X20363464Y-19263298D01*
X20564508Y-18777935D01*
X20667000Y-18262677D01*
X20667000Y-17737323D01*
X20564508Y-17222065D01*
X20363464Y-16736702D01*
X20071594Y-16299887D01*
X19700113Y-15928406D01*
X19263298Y-15636536D01*
X18777935Y-15435492D01*
X18262677Y-15333000D01*
X17737323Y-15333000D01*
X17222065Y-15435492D01*
X16736702Y-15636536D01*
X16299887Y-15928406D01*
X15928406Y-16299887D01*
X15636536Y-16736702D01*
X15435492Y-17222065D01*
X15333000Y-17737323D01*
X13660000Y-17737323D01*
X13660000Y-13660000D01*
X112340000Y-13660000D01*
X112340001Y-112340000D01*
G36*
X44137363Y-81154759D02*
G01*
X44337241Y-81354637D01*
X44572273Y-81511680D01*
X44833426Y-81619853D01*
X45110665Y-81675000D01*
X45393335Y-81675000D01*
X45670574Y-81619853D01*
X45762000Y-81581983D01*
X45762001Y-91525268D01*
X45758324Y-91562600D01*
X45762001Y-91599933D01*
X45772998Y-91711586D01*
X45777734Y-91727198D01*
X45816454Y-91854846D01*
X45887026Y-91986876D01*
X45958201Y-92073602D01*
X45982000Y-92102601D01*
X46010998Y-92126399D01*
X56375601Y-102491003D01*
X56399399Y-102520001D01*
X56515124Y-102614974D01*
X56647153Y-102685546D01*
X56790414Y-102729003D01*
X56902067Y-102740000D01*
X56902076Y-102740000D01*
X56939399Y-102743676D01*
X56976722Y-102740000D01*
X58385091Y-102740000D01*
X58391082Y-102754463D01*
X58570013Y-103022252D01*
X58797748Y-103249987D01*
X59065537Y-103428918D01*
X59080000Y-103434909D01*
X59080001Y-105632225D01*
X58988987Y-105693038D01*
X58803038Y-105878987D01*
X58656939Y-106097641D01*
X58556304Y-106340595D01*
X58505000Y-106598514D01*
X58505000Y-106861486D01*
X58556304Y-107119405D01*
X58656939Y-107362359D01*
X58803038Y-107581013D01*
X58988987Y-107766962D01*
X59207641Y-107913061D01*
X59423550Y-108002494D01*
X59398956Y-108009953D01*
X59161608Y-108120208D01*
X58950330Y-108274649D01*
X58773241Y-108467340D01*
X58637147Y-108690877D01*
X58547278Y-108936670D01*
X58669799Y-109143000D01*
X59713000Y-109143000D01*
X59713000Y-109123000D01*
X59967000Y-109123000D01*
X59967000Y-109143000D01*
X61010201Y-109143000D01*
X61132722Y-108936670D01*
X61042853Y-108690877D01*
X60906759Y-108467340D01*
X60729670Y-108274649D01*
X60518392Y-108120208D01*
X60281044Y-108009953D01*
X60256450Y-108002494D01*
X60472359Y-107913061D01*
X60691013Y-107766962D01*
X60876962Y-107581013D01*
X61023061Y-107362359D01*
X61123696Y-107119405D01*
X61175000Y-106861486D01*
X61175000Y-106598514D01*
X61123696Y-106340595D01*
X61023061Y-106097641D01*
X60876962Y-105878987D01*
X60691013Y-105693038D01*
X60600000Y-105632225D01*
X60600000Y-103434909D01*
X60614463Y-103428918D01*
X60882252Y-103249987D01*
X61109987Y-103022252D01*
X61288918Y-102754463D01*
X61325601Y-102665903D01*
X63639100Y-104979403D01*
X63639101Y-106008868D01*
X63635424Y-106046200D01*
X63650098Y-106195185D01*
X63693554Y-106338446D01*
X63764126Y-106470476D01*
X63835301Y-106557202D01*
X63859100Y-106586201D01*
X63888098Y-106609999D01*
X65551001Y-108272903D01*
X65574799Y-108301901D01*
X65632081Y-108348911D01*
X65523241Y-108467340D01*
X65387147Y-108690877D01*
X65297278Y-108936670D01*
X65419799Y-109143000D01*
X66463000Y-109143000D01*
X66463000Y-109123000D01*
X66717000Y-109123000D01*
X66717000Y-109143000D01*
X67760201Y-109143000D01*
X67882722Y-108936670D01*
X67792853Y-108690877D01*
X67689976Y-108521900D01*
X72740024Y-108521900D01*
X72637147Y-108690877D01*
X72547278Y-108936670D01*
X72669799Y-109143000D01*
X73713000Y-109143000D01*
X73713000Y-109123000D01*
X73967000Y-109123000D01*
X73967000Y-109143000D01*
X73987000Y-109143000D01*
X73987000Y-109397000D01*
X73967000Y-109397000D01*
X73967000Y-109417000D01*
X73713000Y-109417000D01*
X73713000Y-109397000D01*
X72669799Y-109397000D01*
X72585478Y-109539000D01*
X67844522Y-109539000D01*
X67760201Y-109397000D01*
X66717000Y-109397000D01*
X66717000Y-109417000D01*
X66463000Y-109417000D01*
X66463000Y-109397000D01*
X65419799Y-109397000D01*
X65335478Y-109539000D01*
X61094522Y-109539000D01*
X61010201Y-109397000D01*
X59967000Y-109397000D01*
X59967000Y-109417000D01*
X59713000Y-109417000D01*
X59713000Y-109397000D01*
X58669799Y-109397000D01*
X58585478Y-109539000D01*
X53844522Y-109539000D01*
X53760201Y-109397000D01*
X52717000Y-109397000D01*
X52717000Y-109417000D01*
X52463000Y-109417000D01*
X52463000Y-109397000D01*
X51419799Y-109397000D01*
X51335478Y-109539000D01*
X34244602Y-109539000D01*
X26210107Y-101504506D01*
X26249853Y-101488042D01*
X26495302Y-101324039D01*
X26656720Y-101162621D01*
X30380601Y-104886503D01*
X30404399Y-104915501D01*
X30520124Y-105010474D01*
X30652153Y-105081046D01*
X30795414Y-105124503D01*
X30907067Y-105135500D01*
X30907076Y-105135500D01*
X30944399Y-105139176D01*
X30981722Y-105135500D01*
X39660478Y-105135500D01*
X39697800Y-105139176D01*
X39735122Y-105135500D01*
X39735133Y-105135500D01*
X39846786Y-105124503D01*
X39990047Y-105081046D01*
X40122076Y-105010474D01*
X40237801Y-104915501D01*
X40261604Y-104886497D01*
X42473752Y-102674350D01*
X42442068Y-102750842D01*
X42385000Y-103037740D01*
X42385000Y-103330260D01*
X42442068Y-103617158D01*
X42554010Y-103887411D01*
X42716525Y-104130632D01*
X42923368Y-104337475D01*
X43166589Y-104499990D01*
X43436842Y-104611932D01*
X43723740Y-104669000D01*
X44016260Y-104669000D01*
X44303158Y-104611932D01*
X44573411Y-104499990D01*
X44816632Y-104337475D01*
X45023475Y-104130632D01*
X45185990Y-103887411D01*
X45297932Y-103617158D01*
X45355000Y-103330260D01*
X45355000Y-103037740D01*
X45297932Y-102750842D01*
X45185990Y-102480589D01*
X45023475Y-102237368D01*
X44816632Y-102030525D01*
X44642240Y-101914000D01*
X44816632Y-101797475D01*
X45023475Y-101590632D01*
X45185990Y-101347411D01*
X45297932Y-101077158D01*
X45355000Y-100790260D01*
X45355000Y-100497740D01*
X45297932Y-100210842D01*
X45185990Y-99940589D01*
X45023475Y-99697368D01*
X44891620Y-99565513D01*
X44964180Y-99543502D01*
X45074494Y-99484537D01*
X45171185Y-99405185D01*
X45250537Y-99308494D01*
X45309502Y-99198180D01*
X45345812Y-99078482D01*
X45358072Y-98954000D01*
X45355000Y-98389750D01*
X45196250Y-98231000D01*
X43997000Y-98231000D01*
X43997000Y-98251000D01*
X43743000Y-98251000D01*
X43743000Y-98231000D01*
X42543750Y-98231000D01*
X42385000Y-98389750D01*
X42381928Y-98954000D01*
X42394188Y-99078482D01*
X42430498Y-99198180D01*
X42489463Y-99308494D01*
X42568815Y-99405185D01*
X42665506Y-99484537D01*
X42775820Y-99543502D01*
X42848380Y-99565513D01*
X42716525Y-99697368D01*
X42587204Y-99890911D01*
X42545714Y-99894997D01*
X42402453Y-99938454D01*
X42270424Y-100009026D01*
X42154699Y-100103999D01*
X42059726Y-100219724D01*
X41989154Y-100351753D01*
X41945697Y-100495014D01*
X41931023Y-100644000D01*
X41934700Y-100681333D01*
X41934700Y-101063798D01*
X40528748Y-102469751D01*
X40373475Y-102237368D01*
X40166632Y-102030525D01*
X39992240Y-101914000D01*
X40166632Y-101797475D01*
X40373475Y-101590632D01*
X40535990Y-101347411D01*
X40647932Y-101077158D01*
X40705000Y-100790260D01*
X40705000Y-100497740D01*
X40647932Y-100210842D01*
X40535990Y-99940589D01*
X40373475Y-99697368D01*
X40241620Y-99565513D01*
X40314180Y-99543502D01*
X40424494Y-99484537D01*
X40521185Y-99405185D01*
X40600537Y-99308494D01*
X40659502Y-99198180D01*
X40695812Y-99078482D01*
X40708072Y-98954000D01*
X40705000Y-98389750D01*
X40546250Y-98231000D01*
X39347000Y-98231000D01*
X39347000Y-98251000D01*
X39093000Y-98251000D01*
X39093000Y-98231000D01*
X37893750Y-98231000D01*
X37735000Y-98389750D01*
X37731928Y-98954000D01*
X37744188Y-99078482D01*
X37780498Y-99198180D01*
X37839463Y-99308494D01*
X37918815Y-99405185D01*
X38015506Y-99484537D01*
X38125820Y-99543502D01*
X38198380Y-99565513D01*
X38066525Y-99697368D01*
X37904010Y-99940589D01*
X37792068Y-100210842D01*
X37735000Y-100497740D01*
X37735000Y-100790260D01*
X37792068Y-101077158D01*
X37904010Y-101347411D01*
X38066525Y-101590632D01*
X38273368Y-101797475D01*
X38447760Y-101914000D01*
X38273368Y-102030525D01*
X38066525Y-102237368D01*
X38025344Y-102299000D01*
X37551618Y-102299000D01*
X37184253Y-101931579D01*
X37156517Y-101897783D01*
X37122726Y-101870051D01*
X36762500Y-101509881D01*
X36762500Y-97254000D01*
X37731928Y-97254000D01*
X37735000Y-97818250D01*
X37893750Y-97977000D01*
X39093000Y-97977000D01*
X39093000Y-96777750D01*
X39347000Y-96777750D01*
X39347000Y-97977000D01*
X40546250Y-97977000D01*
X40705000Y-97818250D01*
X40708072Y-97254000D01*
X42381928Y-97254000D01*
X42385000Y-97818250D01*
X42543750Y-97977000D01*
X43743000Y-97977000D01*
X43743000Y-96777750D01*
X43997000Y-96777750D01*
X43997000Y-97977000D01*
X45196250Y-97977000D01*
X45355000Y-97818250D01*
X45358072Y-97254000D01*
X45345812Y-97129518D01*
X45309502Y-97009820D01*
X45250537Y-96899506D01*
X45171185Y-96802815D01*
X45074494Y-96723463D01*
X44964180Y-96664498D01*
X44844482Y-96628188D01*
X44720000Y-96615928D01*
X44155750Y-96619000D01*
X43997000Y-96777750D01*
X43743000Y-96777750D01*
X43584250Y-96619000D01*
X43020000Y-96615928D01*
X42895518Y-96628188D01*
X42775820Y-96664498D01*
X42665506Y-96723463D01*
X42568815Y-96802815D01*
X42489463Y-96899506D01*
X42430498Y-97009820D01*
X42394188Y-97129518D01*
X42381928Y-97254000D01*
X40708072Y-97254000D01*
X40695812Y-97129518D01*
X40659502Y-97009820D01*
X40600537Y-96899506D01*
X40521185Y-96802815D01*
X40424494Y-96723463D01*
X40314180Y-96664498D01*
X40194482Y-96628188D01*
X40070000Y-96615928D01*
X39505750Y-96619000D01*
X39347000Y-96777750D01*
X39093000Y-96777750D01*
X38934250Y-96619000D01*
X38370000Y-96615928D01*
X38245518Y-96628188D01*
X38125820Y-96664498D01*
X38015506Y-96723463D01*
X37918815Y-96802815D01*
X37839463Y-96899506D01*
X37780498Y-97009820D01*
X37744188Y-97129518D01*
X37731928Y-97254000D01*
X36762500Y-97254000D01*
X36762500Y-82319269D01*
X36766781Y-82275800D01*
X36762500Y-82232331D01*
X36762500Y-82232323D01*
X36749695Y-82102310D01*
X36699089Y-81935487D01*
X36616911Y-81781741D01*
X36575717Y-81731546D01*
X36534032Y-81680753D01*
X36534030Y-81680751D01*
X36506317Y-81646983D01*
X36472550Y-81619271D01*
X36107337Y-81254059D01*
X36206637Y-81154759D01*
X36324187Y-80978833D01*
X36357714Y-80989003D01*
X36410053Y-80994158D01*
X36517363Y-81154759D01*
X36717241Y-81354637D01*
X36952273Y-81511680D01*
X37213426Y-81619853D01*
X37490665Y-81675000D01*
X37773335Y-81675000D01*
X38050574Y-81619853D01*
X38311727Y-81511680D01*
X38546759Y-81354637D01*
X38746637Y-81154759D01*
X38902000Y-80922241D01*
X39057363Y-81154759D01*
X39257241Y-81354637D01*
X39492273Y-81511680D01*
X39753426Y-81619853D01*
X40030665Y-81675000D01*
X40313335Y-81675000D01*
X40537300Y-81630450D01*
X40537301Y-90649967D01*
X40533624Y-90687300D01*
X40537301Y-90724633D01*
X40548298Y-90836286D01*
X40554598Y-90857054D01*
X40591754Y-90979546D01*
X40662326Y-91111576D01*
X40705382Y-91164039D01*
X40757300Y-91227301D01*
X40786298Y-91251099D01*
X51023823Y-101488625D01*
X51017832Y-101503088D01*
X50955000Y-101818967D01*
X50955000Y-102141033D01*
X51017832Y-102456912D01*
X51141082Y-102754463D01*
X51320013Y-103022252D01*
X51547748Y-103249987D01*
X51815537Y-103428918D01*
X51830001Y-103434909D01*
X51830000Y-105632225D01*
X51738987Y-105693038D01*
X51553038Y-105878987D01*
X51406939Y-106097641D01*
X51306304Y-106340595D01*
X51255000Y-106598514D01*
X51255000Y-106861486D01*
X51306304Y-107119405D01*
X51406939Y-107362359D01*
X51553038Y-107581013D01*
X51738987Y-107766962D01*
X51957641Y-107913061D01*
X52173550Y-108002494D01*
X52148956Y-108009953D01*
X51911608Y-108120208D01*
X51700330Y-108274649D01*
X51523241Y-108467340D01*
X51387147Y-108690877D01*
X51297278Y-108936670D01*
X51419799Y-109143000D01*
X52463000Y-109143000D01*
X52463000Y-109123000D01*
X52717000Y-109123000D01*
X52717000Y-109143000D01*
X53760201Y-109143000D01*
X53882722Y-108936670D01*
X53792853Y-108690877D01*
X53656759Y-108467340D01*
X53479670Y-108274649D01*
X53268392Y-108120208D01*
X53031044Y-108009953D01*
X53006450Y-108002494D01*
X53222359Y-107913061D01*
X53441013Y-107766962D01*
X53626962Y-107581013D01*
X53773061Y-107362359D01*
X53873696Y-107119405D01*
X53925000Y-106861486D01*
X53925000Y-106598514D01*
X53873696Y-106340595D01*
X53773061Y-106097641D01*
X53626962Y-105878987D01*
X53441013Y-105693038D01*
X53350000Y-105632225D01*
X53350000Y-103434909D01*
X53364463Y-103428918D01*
X53632252Y-103249987D01*
X53859987Y-103022252D01*
X54038918Y-102754463D01*
X54162168Y-102456912D01*
X54225000Y-102141033D01*
X54225000Y-101818967D01*
X54162168Y-101503088D01*
X54038918Y-101205537D01*
X53859987Y-100937748D01*
X53632252Y-100710013D01*
X53364463Y-100531082D01*
X53066912Y-100407832D01*
X52751033Y-100345000D01*
X52428967Y-100345000D01*
X52113088Y-100407832D01*
X52098625Y-100413823D01*
X42057300Y-90372499D01*
X42057300Y-81522047D01*
X42293426Y-81619853D01*
X42570665Y-81675000D01*
X42853335Y-81675000D01*
X43130574Y-81619853D01*
X43391727Y-81511680D01*
X43626759Y-81354637D01*
X43826637Y-81154759D01*
X43982000Y-80922241D01*
X44137363Y-81154759D01*
G37*
X44137363Y-81154759D02*
X44337241Y-81354637D01*
X44572273Y-81511680D01*
X44833426Y-81619853D01*
X45110665Y-81675000D01*
X45393335Y-81675000D01*
X45670574Y-81619853D01*
X45762000Y-81581983D01*
X45762001Y-91525268D01*
X45758324Y-91562600D01*
X45762001Y-91599933D01*
X45772998Y-91711586D01*
X45777734Y-91727198D01*
X45816454Y-91854846D01*
X45887026Y-91986876D01*
X45958201Y-92073602D01*
X45982000Y-92102601D01*
X46010998Y-92126399D01*
X56375601Y-102491003D01*
X56399399Y-102520001D01*
X56515124Y-102614974D01*
X56647153Y-102685546D01*
X56790414Y-102729003D01*
X56902067Y-102740000D01*
X56902076Y-102740000D01*
X56939399Y-102743676D01*
X56976722Y-102740000D01*
X58385091Y-102740000D01*
X58391082Y-102754463D01*
X58570013Y-103022252D01*
X58797748Y-103249987D01*
X59065537Y-103428918D01*
X59080000Y-103434909D01*
X59080001Y-105632225D01*
X58988987Y-105693038D01*
X58803038Y-105878987D01*
X58656939Y-106097641D01*
X58556304Y-106340595D01*
X58505000Y-106598514D01*
X58505000Y-106861486D01*
X58556304Y-107119405D01*
X58656939Y-107362359D01*
X58803038Y-107581013D01*
X58988987Y-107766962D01*
X59207641Y-107913061D01*
X59423550Y-108002494D01*
X59398956Y-108009953D01*
X59161608Y-108120208D01*
X58950330Y-108274649D01*
X58773241Y-108467340D01*
X58637147Y-108690877D01*
X58547278Y-108936670D01*
X58669799Y-109143000D01*
X59713000Y-109143000D01*
X59713000Y-109123000D01*
X59967000Y-109123000D01*
X59967000Y-109143000D01*
X61010201Y-109143000D01*
X61132722Y-108936670D01*
X61042853Y-108690877D01*
X60906759Y-108467340D01*
X60729670Y-108274649D01*
X60518392Y-108120208D01*
X60281044Y-108009953D01*
X60256450Y-108002494D01*
X60472359Y-107913061D01*
X60691013Y-107766962D01*
X60876962Y-107581013D01*
X61023061Y-107362359D01*
X61123696Y-107119405D01*
X61175000Y-106861486D01*
X61175000Y-106598514D01*
X61123696Y-106340595D01*
X61023061Y-106097641D01*
X60876962Y-105878987D01*
X60691013Y-105693038D01*
X60600000Y-105632225D01*
X60600000Y-103434909D01*
X60614463Y-103428918D01*
X60882252Y-103249987D01*
X61109987Y-103022252D01*
X61288918Y-102754463D01*
X61325601Y-102665903D01*
X63639100Y-104979403D01*
X63639101Y-106008868D01*
X63635424Y-106046200D01*
X63650098Y-106195185D01*
X63693554Y-106338446D01*
X63764126Y-106470476D01*
X63835301Y-106557202D01*
X63859100Y-106586201D01*
X63888098Y-106609999D01*
X65551001Y-108272903D01*
X65574799Y-108301901D01*
X65632081Y-108348911D01*
X65523241Y-108467340D01*
X65387147Y-108690877D01*
X65297278Y-108936670D01*
X65419799Y-109143000D01*
X66463000Y-109143000D01*
X66463000Y-109123000D01*
X66717000Y-109123000D01*
X66717000Y-109143000D01*
X67760201Y-109143000D01*
X67882722Y-108936670D01*
X67792853Y-108690877D01*
X67689976Y-108521900D01*
X72740024Y-108521900D01*
X72637147Y-108690877D01*
X72547278Y-108936670D01*
X72669799Y-109143000D01*
X73713000Y-109143000D01*
X73713000Y-109123000D01*
X73967000Y-109123000D01*
X73967000Y-109143000D01*
X73987000Y-109143000D01*
X73987000Y-109397000D01*
X73967000Y-109397000D01*
X73967000Y-109417000D01*
X73713000Y-109417000D01*
X73713000Y-109397000D01*
X72669799Y-109397000D01*
X72585478Y-109539000D01*
X67844522Y-109539000D01*
X67760201Y-109397000D01*
X66717000Y-109397000D01*
X66717000Y-109417000D01*
X66463000Y-109417000D01*
X66463000Y-109397000D01*
X65419799Y-109397000D01*
X65335478Y-109539000D01*
X61094522Y-109539000D01*
X61010201Y-109397000D01*
X59967000Y-109397000D01*
X59967000Y-109417000D01*
X59713000Y-109417000D01*
X59713000Y-109397000D01*
X58669799Y-109397000D01*
X58585478Y-109539000D01*
X53844522Y-109539000D01*
X53760201Y-109397000D01*
X52717000Y-109397000D01*
X52717000Y-109417000D01*
X52463000Y-109417000D01*
X52463000Y-109397000D01*
X51419799Y-109397000D01*
X51335478Y-109539000D01*
X34244602Y-109539000D01*
X26210107Y-101504506D01*
X26249853Y-101488042D01*
X26495302Y-101324039D01*
X26656720Y-101162621D01*
X30380601Y-104886503D01*
X30404399Y-104915501D01*
X30520124Y-105010474D01*
X30652153Y-105081046D01*
X30795414Y-105124503D01*
X30907067Y-105135500D01*
X30907076Y-105135500D01*
X30944399Y-105139176D01*
X30981722Y-105135500D01*
X39660478Y-105135500D01*
X39697800Y-105139176D01*
X39735122Y-105135500D01*
X39735133Y-105135500D01*
X39846786Y-105124503D01*
X39990047Y-105081046D01*
X40122076Y-105010474D01*
X40237801Y-104915501D01*
X40261604Y-104886497D01*
X42473752Y-102674350D01*
X42442068Y-102750842D01*
X42385000Y-103037740D01*
X42385000Y-103330260D01*
X42442068Y-103617158D01*
X42554010Y-103887411D01*
X42716525Y-104130632D01*
X42923368Y-104337475D01*
X43166589Y-104499990D01*
X43436842Y-104611932D01*
X43723740Y-104669000D01*
X44016260Y-104669000D01*
X44303158Y-104611932D01*
X44573411Y-104499990D01*
X44816632Y-104337475D01*
X45023475Y-104130632D01*
X45185990Y-103887411D01*
X45297932Y-103617158D01*
X45355000Y-103330260D01*
X45355000Y-103037740D01*
X45297932Y-102750842D01*
X45185990Y-102480589D01*
X45023475Y-102237368D01*
X44816632Y-102030525D01*
X44642240Y-101914000D01*
X44816632Y-101797475D01*
X45023475Y-101590632D01*
X45185990Y-101347411D01*
X45297932Y-101077158D01*
X45355000Y-100790260D01*
X45355000Y-100497740D01*
X45297932Y-100210842D01*
X45185990Y-99940589D01*
X45023475Y-99697368D01*
X44891620Y-99565513D01*
X44964180Y-99543502D01*
X45074494Y-99484537D01*
X45171185Y-99405185D01*
X45250537Y-99308494D01*
X45309502Y-99198180D01*
X45345812Y-99078482D01*
X45358072Y-98954000D01*
X45355000Y-98389750D01*
X45196250Y-98231000D01*
X43997000Y-98231000D01*
X43997000Y-98251000D01*
X43743000Y-98251000D01*
X43743000Y-98231000D01*
X42543750Y-98231000D01*
X42385000Y-98389750D01*
X42381928Y-98954000D01*
X42394188Y-99078482D01*
X42430498Y-99198180D01*
X42489463Y-99308494D01*
X42568815Y-99405185D01*
X42665506Y-99484537D01*
X42775820Y-99543502D01*
X42848380Y-99565513D01*
X42716525Y-99697368D01*
X42587204Y-99890911D01*
X42545714Y-99894997D01*
X42402453Y-99938454D01*
X42270424Y-100009026D01*
X42154699Y-100103999D01*
X42059726Y-100219724D01*
X41989154Y-100351753D01*
X41945697Y-100495014D01*
X41931023Y-100644000D01*
X41934700Y-100681333D01*
X41934700Y-101063798D01*
X40528748Y-102469751D01*
X40373475Y-102237368D01*
X40166632Y-102030525D01*
X39992240Y-101914000D01*
X40166632Y-101797475D01*
X40373475Y-101590632D01*
X40535990Y-101347411D01*
X40647932Y-101077158D01*
X40705000Y-100790260D01*
X40705000Y-100497740D01*
X40647932Y-100210842D01*
X40535990Y-99940589D01*
X40373475Y-99697368D01*
X40241620Y-99565513D01*
X40314180Y-99543502D01*
X40424494Y-99484537D01*
X40521185Y-99405185D01*
X40600537Y-99308494D01*
X40659502Y-99198180D01*
X40695812Y-99078482D01*
X40708072Y-98954000D01*
X40705000Y-98389750D01*
X40546250Y-98231000D01*
X39347000Y-98231000D01*
X39347000Y-98251000D01*
X39093000Y-98251000D01*
X39093000Y-98231000D01*
X37893750Y-98231000D01*
X37735000Y-98389750D01*
X37731928Y-98954000D01*
X37744188Y-99078482D01*
X37780498Y-99198180D01*
X37839463Y-99308494D01*
X37918815Y-99405185D01*
X38015506Y-99484537D01*
X38125820Y-99543502D01*
X38198380Y-99565513D01*
X38066525Y-99697368D01*
X37904010Y-99940589D01*
X37792068Y-100210842D01*
X37735000Y-100497740D01*
X37735000Y-100790260D01*
X37792068Y-101077158D01*
X37904010Y-101347411D01*
X38066525Y-101590632D01*
X38273368Y-101797475D01*
X38447760Y-101914000D01*
X38273368Y-102030525D01*
X38066525Y-102237368D01*
X38025344Y-102299000D01*
X37551618Y-102299000D01*
X37184253Y-101931579D01*
X37156517Y-101897783D01*
X37122726Y-101870051D01*
X36762500Y-101509881D01*
X36762500Y-97254000D01*
X37731928Y-97254000D01*
X37735000Y-97818250D01*
X37893750Y-97977000D01*
X39093000Y-97977000D01*
X39093000Y-96777750D01*
X39347000Y-96777750D01*
X39347000Y-97977000D01*
X40546250Y-97977000D01*
X40705000Y-97818250D01*
X40708072Y-97254000D01*
X42381928Y-97254000D01*
X42385000Y-97818250D01*
X42543750Y-97977000D01*
X43743000Y-97977000D01*
X43743000Y-96777750D01*
X43997000Y-96777750D01*
X43997000Y-97977000D01*
X45196250Y-97977000D01*
X45355000Y-97818250D01*
X45358072Y-97254000D01*
X45345812Y-97129518D01*
X45309502Y-97009820D01*
X45250537Y-96899506D01*
X45171185Y-96802815D01*
X45074494Y-96723463D01*
X44964180Y-96664498D01*
X44844482Y-96628188D01*
X44720000Y-96615928D01*
X44155750Y-96619000D01*
X43997000Y-96777750D01*
X43743000Y-96777750D01*
X43584250Y-96619000D01*
X43020000Y-96615928D01*
X42895518Y-96628188D01*
X42775820Y-96664498D01*
X42665506Y-96723463D01*
X42568815Y-96802815D01*
X42489463Y-96899506D01*
X42430498Y-97009820D01*
X42394188Y-97129518D01*
X42381928Y-97254000D01*
X40708072Y-97254000D01*
X40695812Y-97129518D01*
X40659502Y-97009820D01*
X40600537Y-96899506D01*
X40521185Y-96802815D01*
X40424494Y-96723463D01*
X40314180Y-96664498D01*
X40194482Y-96628188D01*
X40070000Y-96615928D01*
X39505750Y-96619000D01*
X39347000Y-96777750D01*
X39093000Y-96777750D01*
X38934250Y-96619000D01*
X38370000Y-96615928D01*
X38245518Y-96628188D01*
X38125820Y-96664498D01*
X38015506Y-96723463D01*
X37918815Y-96802815D01*
X37839463Y-96899506D01*
X37780498Y-97009820D01*
X37744188Y-97129518D01*
X37731928Y-97254000D01*
X36762500Y-97254000D01*
X36762500Y-82319269D01*
X36766781Y-82275800D01*
X36762500Y-82232331D01*
X36762500Y-82232323D01*
X36749695Y-82102310D01*
X36699089Y-81935487D01*
X36616911Y-81781741D01*
X36575717Y-81731546D01*
X36534032Y-81680753D01*
X36534030Y-81680751D01*
X36506317Y-81646983D01*
X36472550Y-81619271D01*
X36107337Y-81254059D01*
X36206637Y-81154759D01*
X36324187Y-80978833D01*
X36357714Y-80989003D01*
X36410053Y-80994158D01*
X36517363Y-81154759D01*
X36717241Y-81354637D01*
X36952273Y-81511680D01*
X37213426Y-81619853D01*
X37490665Y-81675000D01*
X37773335Y-81675000D01*
X38050574Y-81619853D01*
X38311727Y-81511680D01*
X38546759Y-81354637D01*
X38746637Y-81154759D01*
X38902000Y-80922241D01*
X39057363Y-81154759D01*
X39257241Y-81354637D01*
X39492273Y-81511680D01*
X39753426Y-81619853D01*
X40030665Y-81675000D01*
X40313335Y-81675000D01*
X40537300Y-81630450D01*
X40537301Y-90649967D01*
X40533624Y-90687300D01*
X40537301Y-90724633D01*
X40548298Y-90836286D01*
X40554598Y-90857054D01*
X40591754Y-90979546D01*
X40662326Y-91111576D01*
X40705382Y-91164039D01*
X40757300Y-91227301D01*
X40786298Y-91251099D01*
X51023823Y-101488625D01*
X51017832Y-101503088D01*
X50955000Y-101818967D01*
X50955000Y-102141033D01*
X51017832Y-102456912D01*
X51141082Y-102754463D01*
X51320013Y-103022252D01*
X51547748Y-103249987D01*
X51815537Y-103428918D01*
X51830001Y-103434909D01*
X51830000Y-105632225D01*
X51738987Y-105693038D01*
X51553038Y-105878987D01*
X51406939Y-106097641D01*
X51306304Y-106340595D01*
X51255000Y-106598514D01*
X51255000Y-106861486D01*
X51306304Y-107119405D01*
X51406939Y-107362359D01*
X51553038Y-107581013D01*
X51738987Y-107766962D01*
X51957641Y-107913061D01*
X52173550Y-108002494D01*
X52148956Y-108009953D01*
X51911608Y-108120208D01*
X51700330Y-108274649D01*
X51523241Y-108467340D01*
X51387147Y-108690877D01*
X51297278Y-108936670D01*
X51419799Y-109143000D01*
X52463000Y-109143000D01*
X52463000Y-109123000D01*
X52717000Y-109123000D01*
X52717000Y-109143000D01*
X53760201Y-109143000D01*
X53882722Y-108936670D01*
X53792853Y-108690877D01*
X53656759Y-108467340D01*
X53479670Y-108274649D01*
X53268392Y-108120208D01*
X53031044Y-108009953D01*
X53006450Y-108002494D01*
X53222359Y-107913061D01*
X53441013Y-107766962D01*
X53626962Y-107581013D01*
X53773061Y-107362359D01*
X53873696Y-107119405D01*
X53925000Y-106861486D01*
X53925000Y-106598514D01*
X53873696Y-106340595D01*
X53773061Y-106097641D01*
X53626962Y-105878987D01*
X53441013Y-105693038D01*
X53350000Y-105632225D01*
X53350000Y-103434909D01*
X53364463Y-103428918D01*
X53632252Y-103249987D01*
X53859987Y-103022252D01*
X54038918Y-102754463D01*
X54162168Y-102456912D01*
X54225000Y-102141033D01*
X54225000Y-101818967D01*
X54162168Y-101503088D01*
X54038918Y-101205537D01*
X53859987Y-100937748D01*
X53632252Y-100710013D01*
X53364463Y-100531082D01*
X53066912Y-100407832D01*
X52751033Y-100345000D01*
X52428967Y-100345000D01*
X52113088Y-100407832D01*
X52098625Y-100413823D01*
X42057300Y-90372499D01*
X42057300Y-81522047D01*
X42293426Y-81619853D01*
X42570665Y-81675000D01*
X42853335Y-81675000D01*
X43130574Y-81619853D01*
X43391727Y-81511680D01*
X43626759Y-81354637D01*
X43826637Y-81154759D01*
X43982000Y-80922241D01*
X44137363Y-81154759D01*
G36*
X69697241Y-79600637D02*
G01*
X69873167Y-79718187D01*
X69862997Y-79751714D01*
X69857842Y-79804053D01*
X69697241Y-79911363D01*
X69497363Y-80111241D01*
X69340320Y-80346273D01*
X69232147Y-80607426D01*
X69177000Y-80884665D01*
X69177000Y-81167335D01*
X69232147Y-81444574D01*
X69340320Y-81705727D01*
X69497363Y-81940759D01*
X69518801Y-81962197D01*
X59328998Y-92152001D01*
X59300000Y-92175799D01*
X59276202Y-92204797D01*
X59276201Y-92204798D01*
X59205026Y-92291524D01*
X59134454Y-92423554D01*
X59108794Y-92508147D01*
X59096122Y-92549924D01*
X59090998Y-92566815D01*
X59076324Y-92715800D01*
X59080001Y-92753132D01*
X59080001Y-93025091D01*
X59065537Y-93031082D01*
X58797748Y-93210013D01*
X58570013Y-93437748D01*
X58391082Y-93705537D01*
X58267832Y-94003088D01*
X58205000Y-94318967D01*
X58205000Y-94641033D01*
X58267832Y-94956912D01*
X58391082Y-95254463D01*
X58570013Y-95522252D01*
X58797748Y-95749987D01*
X59065537Y-95928918D01*
X59363088Y-96052168D01*
X59678967Y-96115000D01*
X60001033Y-96115000D01*
X60316912Y-96052168D01*
X60614463Y-95928918D01*
X60882252Y-95749987D01*
X61109987Y-95522252D01*
X61288918Y-95254463D01*
X61412168Y-94956912D01*
X61475000Y-94641033D01*
X61475000Y-94318967D01*
X61412168Y-94003088D01*
X61288918Y-93705537D01*
X61109987Y-93437748D01*
X60882252Y-93210013D01*
X60614463Y-93031082D01*
X60603896Y-93026705D01*
X69358166Y-84272436D01*
X69497363Y-84480759D01*
X69533251Y-84516647D01*
X66078998Y-87970901D01*
X66050000Y-87994699D01*
X66026202Y-88023697D01*
X66026201Y-88023698D01*
X65955026Y-88110424D01*
X65884454Y-88242454D01*
X65840998Y-88385715D01*
X65826324Y-88534700D01*
X65830001Y-88572032D01*
X65830000Y-93025091D01*
X65815537Y-93031082D01*
X65547748Y-93210013D01*
X65320013Y-93437748D01*
X65141082Y-93705537D01*
X65017832Y-94003088D01*
X64955000Y-94318967D01*
X64955000Y-94641033D01*
X65017832Y-94956912D01*
X65141082Y-95254463D01*
X65320013Y-95522252D01*
X65547748Y-95749987D01*
X65815537Y-95928918D01*
X66113088Y-96052168D01*
X66428967Y-96115000D01*
X66751033Y-96115000D01*
X67066912Y-96052168D01*
X67364463Y-95928918D01*
X67632252Y-95749987D01*
X67859987Y-95522252D01*
X68038918Y-95254463D01*
X68162168Y-94956912D01*
X68225000Y-94641033D01*
X68225000Y-94318967D01*
X68162168Y-94003088D01*
X68038918Y-93705537D01*
X67859987Y-93437748D01*
X67632252Y-93210013D01*
X67364463Y-93031082D01*
X67350000Y-93025091D01*
X67350000Y-88849501D01*
X69369742Y-86829760D01*
X69497363Y-87020759D01*
X69697241Y-87220637D01*
X69932273Y-87377680D01*
X70193426Y-87485853D01*
X70470665Y-87541000D01*
X70753335Y-87541000D01*
X71030574Y-87485853D01*
X71291727Y-87377680D01*
X71526759Y-87220637D01*
X71726637Y-87020759D01*
X71833947Y-86860158D01*
X71886286Y-86855003D01*
X72029547Y-86811546D01*
X72161576Y-86740974D01*
X72277301Y-86646001D01*
X72301104Y-86616997D01*
X75257062Y-83661039D01*
X76586096Y-83661039D01*
X76626754Y-83795087D01*
X76746963Y-84049420D01*
X76914481Y-84275414D01*
X77122869Y-84464385D01*
X77364119Y-84609070D01*
X77628960Y-84703909D01*
X77851000Y-84582624D01*
X77851000Y-83439000D01*
X78105000Y-83439000D01*
X78105000Y-84582624D01*
X78327040Y-84703909D01*
X78591881Y-84609070D01*
X78833131Y-84464385D01*
X79041519Y-84275414D01*
X79209037Y-84049420D01*
X79329246Y-83795087D01*
X79369904Y-83661039D01*
X79247915Y-83439000D01*
X78105000Y-83439000D01*
X77851000Y-83439000D01*
X76708085Y-83439000D01*
X76586096Y-83661039D01*
X75257062Y-83661039D01*
X76116102Y-82802000D01*
X76639474Y-82802000D01*
X76626754Y-82828913D01*
X76586096Y-82962961D01*
X76708085Y-83185000D01*
X77851000Y-83185000D01*
X77851000Y-83165000D01*
X78105000Y-83165000D01*
X78105000Y-83185000D01*
X79247915Y-83185000D01*
X79369904Y-82962961D01*
X79329246Y-82828913D01*
X79209037Y-82574580D01*
X79053309Y-82364492D01*
X80332543Y-81085259D01*
X80326324Y-81148400D01*
X80330001Y-81185732D01*
X80330000Y-93025091D01*
X80315537Y-93031082D01*
X80047748Y-93210013D01*
X79820013Y-93437748D01*
X79641082Y-93705537D01*
X79517832Y-94003088D01*
X79455000Y-94318967D01*
X79455000Y-94641033D01*
X79517832Y-94956912D01*
X79568651Y-95079600D01*
X75514402Y-95079600D01*
X75406177Y-94971375D01*
X75412168Y-94956912D01*
X75475000Y-94641033D01*
X75475000Y-94318967D01*
X75412168Y-94003088D01*
X75288918Y-93705537D01*
X75109987Y-93437748D01*
X74882252Y-93210013D01*
X74614463Y-93031082D01*
X74316912Y-92907832D01*
X74001033Y-92845000D01*
X73678967Y-92845000D01*
X73363088Y-92907832D01*
X73065537Y-93031082D01*
X72797748Y-93210013D01*
X72570013Y-93437748D01*
X72391082Y-93705537D01*
X72267832Y-94003088D01*
X72205000Y-94318967D01*
X72205000Y-94641033D01*
X72267832Y-94956912D01*
X72391082Y-95254463D01*
X72570013Y-95522252D01*
X72797748Y-95749987D01*
X73065537Y-95928918D01*
X73363088Y-96052168D01*
X73678967Y-96115000D01*
X74001033Y-96115000D01*
X74316912Y-96052168D01*
X74331375Y-96046177D01*
X74635801Y-96350603D01*
X74659599Y-96379601D01*
X74775324Y-96474574D01*
X74907353Y-96545146D01*
X75050614Y-96588603D01*
X75162267Y-96599600D01*
X75162275Y-96599600D01*
X75199600Y-96603276D01*
X75236925Y-96599600D01*
X81395599Y-96599600D01*
X77744898Y-100250301D01*
X77715900Y-100274099D01*
X77692102Y-100303097D01*
X77692101Y-100303098D01*
X77620926Y-100389824D01*
X77550354Y-100521854D01*
X77506898Y-100665115D01*
X77492224Y-100814100D01*
X77495901Y-100851432D01*
X77495900Y-106063698D01*
X74976957Y-108582642D01*
X74906759Y-108467340D01*
X74729670Y-108274649D01*
X74518392Y-108120208D01*
X74281044Y-108009953D01*
X74256450Y-108002494D01*
X74472359Y-107913061D01*
X74691013Y-107766962D01*
X74876962Y-107581013D01*
X75023061Y-107362359D01*
X75123696Y-107119405D01*
X75175000Y-106861486D01*
X75175000Y-106598514D01*
X75123696Y-106340595D01*
X75023061Y-106097641D01*
X74876962Y-105878987D01*
X74691013Y-105693038D01*
X74600000Y-105632225D01*
X74600000Y-103434909D01*
X74614463Y-103428918D01*
X74882252Y-103249987D01*
X75109987Y-103022252D01*
X75288918Y-102754463D01*
X75412168Y-102456912D01*
X75475000Y-102141033D01*
X75475000Y-101818967D01*
X75412168Y-101503088D01*
X75288918Y-101205537D01*
X75109987Y-100937748D01*
X74882252Y-100710013D01*
X74614463Y-100531082D01*
X74316912Y-100407832D01*
X74001033Y-100345000D01*
X73678967Y-100345000D01*
X73363088Y-100407832D01*
X73065537Y-100531082D01*
X72797748Y-100710013D01*
X72570013Y-100937748D01*
X72391082Y-101205537D01*
X72267832Y-101503088D01*
X72205000Y-101818967D01*
X72205000Y-102141033D01*
X72267832Y-102456912D01*
X72391082Y-102754463D01*
X72570013Y-103022252D01*
X72797748Y-103249987D01*
X73065537Y-103428918D01*
X73080000Y-103434909D01*
X73080001Y-105632225D01*
X72988987Y-105693038D01*
X72803038Y-105878987D01*
X72656939Y-106097641D01*
X72556304Y-106340595D01*
X72505000Y-106598514D01*
X72505000Y-106861486D01*
X72526355Y-106968844D01*
X72493299Y-107001900D01*
X67897070Y-107001900D01*
X67925000Y-106861486D01*
X67925000Y-106598514D01*
X67873696Y-106340595D01*
X67773061Y-106097641D01*
X67626962Y-105878987D01*
X67441013Y-105693038D01*
X67350000Y-105632225D01*
X67350000Y-103434909D01*
X67364463Y-103428918D01*
X67632252Y-103249987D01*
X67859987Y-103022252D01*
X68038918Y-102754463D01*
X68162168Y-102456912D01*
X68225000Y-102141033D01*
X68225000Y-101818967D01*
X68162168Y-101503088D01*
X68038918Y-101205537D01*
X67859987Y-100937748D01*
X67632252Y-100710013D01*
X67364463Y-100531082D01*
X67066912Y-100407832D01*
X66751033Y-100345000D01*
X66428967Y-100345000D01*
X66113088Y-100407832D01*
X66098625Y-100413823D01*
X62627804Y-96943003D01*
X62604001Y-96913999D01*
X62488276Y-96819026D01*
X62356247Y-96748454D01*
X62212986Y-96704997D01*
X62101333Y-96694000D01*
X62101322Y-96694000D01*
X62064000Y-96690324D01*
X62026678Y-96694000D01*
X54002002Y-96694000D01*
X53274276Y-95966275D01*
X53364463Y-95928918D01*
X53632252Y-95749987D01*
X53859987Y-95522252D01*
X54038918Y-95254463D01*
X54162168Y-94956912D01*
X54225000Y-94641033D01*
X54225000Y-94318967D01*
X54162168Y-94003088D01*
X54156177Y-93988624D01*
X61620963Y-86523838D01*
X61640754Y-86589087D01*
X61760963Y-86843420D01*
X61928481Y-87069414D01*
X62136869Y-87258385D01*
X62378119Y-87403070D01*
X62642960Y-87497909D01*
X62865000Y-87376624D01*
X62865000Y-86233000D01*
X63119000Y-86233000D01*
X63119000Y-87376624D01*
X63341040Y-87497909D01*
X63605881Y-87403070D01*
X63847131Y-87258385D01*
X64055519Y-87069414D01*
X64223037Y-86843420D01*
X64343246Y-86589087D01*
X64383904Y-86455039D01*
X64261915Y-86233000D01*
X63119000Y-86233000D01*
X62865000Y-86233000D01*
X62845000Y-86233000D01*
X62845000Y-85979000D01*
X62865000Y-85979000D01*
X62865000Y-85959000D01*
X63119000Y-85959000D01*
X63119000Y-85979000D01*
X64261915Y-85979000D01*
X64383904Y-85756961D01*
X64343246Y-85622913D01*
X64223037Y-85368580D01*
X64069225Y-85161076D01*
X69663453Y-79566849D01*
X69697241Y-79600637D01*
G37*
X69697241Y-79600637D02*
X69873167Y-79718187D01*
X69862997Y-79751714D01*
X69857842Y-79804053D01*
X69697241Y-79911363D01*
X69497363Y-80111241D01*
X69340320Y-80346273D01*
X69232147Y-80607426D01*
X69177000Y-80884665D01*
X69177000Y-81167335D01*
X69232147Y-81444574D01*
X69340320Y-81705727D01*
X69497363Y-81940759D01*
X69518801Y-81962197D01*
X59328998Y-92152001D01*
X59300000Y-92175799D01*
X59276202Y-92204797D01*
X59276201Y-92204798D01*
X59205026Y-92291524D01*
X59134454Y-92423554D01*
X59108794Y-92508147D01*
X59096122Y-92549924D01*
X59090998Y-92566815D01*
X59076324Y-92715800D01*
X59080001Y-92753132D01*
X59080001Y-93025091D01*
X59065537Y-93031082D01*
X58797748Y-93210013D01*
X58570013Y-93437748D01*
X58391082Y-93705537D01*
X58267832Y-94003088D01*
X58205000Y-94318967D01*
X58205000Y-94641033D01*
X58267832Y-94956912D01*
X58391082Y-95254463D01*
X58570013Y-95522252D01*
X58797748Y-95749987D01*
X59065537Y-95928918D01*
X59363088Y-96052168D01*
X59678967Y-96115000D01*
X60001033Y-96115000D01*
X60316912Y-96052168D01*
X60614463Y-95928918D01*
X60882252Y-95749987D01*
X61109987Y-95522252D01*
X61288918Y-95254463D01*
X61412168Y-94956912D01*
X61475000Y-94641033D01*
X61475000Y-94318967D01*
X61412168Y-94003088D01*
X61288918Y-93705537D01*
X61109987Y-93437748D01*
X60882252Y-93210013D01*
X60614463Y-93031082D01*
X60603896Y-93026705D01*
X69358166Y-84272436D01*
X69497363Y-84480759D01*
X69533251Y-84516647D01*
X66078998Y-87970901D01*
X66050000Y-87994699D01*
X66026202Y-88023697D01*
X66026201Y-88023698D01*
X65955026Y-88110424D01*
X65884454Y-88242454D01*
X65840998Y-88385715D01*
X65826324Y-88534700D01*
X65830001Y-88572032D01*
X65830000Y-93025091D01*
X65815537Y-93031082D01*
X65547748Y-93210013D01*
X65320013Y-93437748D01*
X65141082Y-93705537D01*
X65017832Y-94003088D01*
X64955000Y-94318967D01*
X64955000Y-94641033D01*
X65017832Y-94956912D01*
X65141082Y-95254463D01*
X65320013Y-95522252D01*
X65547748Y-95749987D01*
X65815537Y-95928918D01*
X66113088Y-96052168D01*
X66428967Y-96115000D01*
X66751033Y-96115000D01*
X67066912Y-96052168D01*
X67364463Y-95928918D01*
X67632252Y-95749987D01*
X67859987Y-95522252D01*
X68038918Y-95254463D01*
X68162168Y-94956912D01*
X68225000Y-94641033D01*
X68225000Y-94318967D01*
X68162168Y-94003088D01*
X68038918Y-93705537D01*
X67859987Y-93437748D01*
X67632252Y-93210013D01*
X67364463Y-93031082D01*
X67350000Y-93025091D01*
X67350000Y-88849501D01*
X69369742Y-86829760D01*
X69497363Y-87020759D01*
X69697241Y-87220637D01*
X69932273Y-87377680D01*
X70193426Y-87485853D01*
X70470665Y-87541000D01*
X70753335Y-87541000D01*
X71030574Y-87485853D01*
X71291727Y-87377680D01*
X71526759Y-87220637D01*
X71726637Y-87020759D01*
X71833947Y-86860158D01*
X71886286Y-86855003D01*
X72029547Y-86811546D01*
X72161576Y-86740974D01*
X72277301Y-86646001D01*
X72301104Y-86616997D01*
X75257062Y-83661039D01*
X76586096Y-83661039D01*
X76626754Y-83795087D01*
X76746963Y-84049420D01*
X76914481Y-84275414D01*
X77122869Y-84464385D01*
X77364119Y-84609070D01*
X77628960Y-84703909D01*
X77851000Y-84582624D01*
X77851000Y-83439000D01*
X78105000Y-83439000D01*
X78105000Y-84582624D01*
X78327040Y-84703909D01*
X78591881Y-84609070D01*
X78833131Y-84464385D01*
X79041519Y-84275414D01*
X79209037Y-84049420D01*
X79329246Y-83795087D01*
X79369904Y-83661039D01*
X79247915Y-83439000D01*
X78105000Y-83439000D01*
X77851000Y-83439000D01*
X76708085Y-83439000D01*
X76586096Y-83661039D01*
X75257062Y-83661039D01*
X76116102Y-82802000D01*
X76639474Y-82802000D01*
X76626754Y-82828913D01*
X76586096Y-82962961D01*
X76708085Y-83185000D01*
X77851000Y-83185000D01*
X77851000Y-83165000D01*
X78105000Y-83165000D01*
X78105000Y-83185000D01*
X79247915Y-83185000D01*
X79369904Y-82962961D01*
X79329246Y-82828913D01*
X79209037Y-82574580D01*
X79053309Y-82364492D01*
X80332543Y-81085259D01*
X80326324Y-81148400D01*
X80330001Y-81185732D01*
X80330000Y-93025091D01*
X80315537Y-93031082D01*
X80047748Y-93210013D01*
X79820013Y-93437748D01*
X79641082Y-93705537D01*
X79517832Y-94003088D01*
X79455000Y-94318967D01*
X79455000Y-94641033D01*
X79517832Y-94956912D01*
X79568651Y-95079600D01*
X75514402Y-95079600D01*
X75406177Y-94971375D01*
X75412168Y-94956912D01*
X75475000Y-94641033D01*
X75475000Y-94318967D01*
X75412168Y-94003088D01*
X75288918Y-93705537D01*
X75109987Y-93437748D01*
X74882252Y-93210013D01*
X74614463Y-93031082D01*
X74316912Y-92907832D01*
X74001033Y-92845000D01*
X73678967Y-92845000D01*
X73363088Y-92907832D01*
X73065537Y-93031082D01*
X72797748Y-93210013D01*
X72570013Y-93437748D01*
X72391082Y-93705537D01*
X72267832Y-94003088D01*
X72205000Y-94318967D01*
X72205000Y-94641033D01*
X72267832Y-94956912D01*
X72391082Y-95254463D01*
X72570013Y-95522252D01*
X72797748Y-95749987D01*
X73065537Y-95928918D01*
X73363088Y-96052168D01*
X73678967Y-96115000D01*
X74001033Y-96115000D01*
X74316912Y-96052168D01*
X74331375Y-96046177D01*
X74635801Y-96350603D01*
X74659599Y-96379601D01*
X74775324Y-96474574D01*
X74907353Y-96545146D01*
X75050614Y-96588603D01*
X75162267Y-96599600D01*
X75162275Y-96599600D01*
X75199600Y-96603276D01*
X75236925Y-96599600D01*
X81395599Y-96599600D01*
X77744898Y-100250301D01*
X77715900Y-100274099D01*
X77692102Y-100303097D01*
X77692101Y-100303098D01*
X77620926Y-100389824D01*
X77550354Y-100521854D01*
X77506898Y-100665115D01*
X77492224Y-100814100D01*
X77495901Y-100851432D01*
X77495900Y-106063698D01*
X74976957Y-108582642D01*
X74906759Y-108467340D01*
X74729670Y-108274649D01*
X74518392Y-108120208D01*
X74281044Y-108009953D01*
X74256450Y-108002494D01*
X74472359Y-107913061D01*
X74691013Y-107766962D01*
X74876962Y-107581013D01*
X75023061Y-107362359D01*
X75123696Y-107119405D01*
X75175000Y-106861486D01*
X75175000Y-106598514D01*
X75123696Y-106340595D01*
X75023061Y-106097641D01*
X74876962Y-105878987D01*
X74691013Y-105693038D01*
X74600000Y-105632225D01*
X74600000Y-103434909D01*
X74614463Y-103428918D01*
X74882252Y-103249987D01*
X75109987Y-103022252D01*
X75288918Y-102754463D01*
X75412168Y-102456912D01*
X75475000Y-102141033D01*
X75475000Y-101818967D01*
X75412168Y-101503088D01*
X75288918Y-101205537D01*
X75109987Y-100937748D01*
X74882252Y-100710013D01*
X74614463Y-100531082D01*
X74316912Y-100407832D01*
X74001033Y-100345000D01*
X73678967Y-100345000D01*
X73363088Y-100407832D01*
X73065537Y-100531082D01*
X72797748Y-100710013D01*
X72570013Y-100937748D01*
X72391082Y-101205537D01*
X72267832Y-101503088D01*
X72205000Y-101818967D01*
X72205000Y-102141033D01*
X72267832Y-102456912D01*
X72391082Y-102754463D01*
X72570013Y-103022252D01*
X72797748Y-103249987D01*
X73065537Y-103428918D01*
X73080000Y-103434909D01*
X73080001Y-105632225D01*
X72988987Y-105693038D01*
X72803038Y-105878987D01*
X72656939Y-106097641D01*
X72556304Y-106340595D01*
X72505000Y-106598514D01*
X72505000Y-106861486D01*
X72526355Y-106968844D01*
X72493299Y-107001900D01*
X67897070Y-107001900D01*
X67925000Y-106861486D01*
X67925000Y-106598514D01*
X67873696Y-106340595D01*
X67773061Y-106097641D01*
X67626962Y-105878987D01*
X67441013Y-105693038D01*
X67350000Y-105632225D01*
X67350000Y-103434909D01*
X67364463Y-103428918D01*
X67632252Y-103249987D01*
X67859987Y-103022252D01*
X68038918Y-102754463D01*
X68162168Y-102456912D01*
X68225000Y-102141033D01*
X68225000Y-101818967D01*
X68162168Y-101503088D01*
X68038918Y-101205537D01*
X67859987Y-100937748D01*
X67632252Y-100710013D01*
X67364463Y-100531082D01*
X67066912Y-100407832D01*
X66751033Y-100345000D01*
X66428967Y-100345000D01*
X66113088Y-100407832D01*
X66098625Y-100413823D01*
X62627804Y-96943003D01*
X62604001Y-96913999D01*
X62488276Y-96819026D01*
X62356247Y-96748454D01*
X62212986Y-96704997D01*
X62101333Y-96694000D01*
X62101322Y-96694000D01*
X62064000Y-96690324D01*
X62026678Y-96694000D01*
X54002002Y-96694000D01*
X53274276Y-95966275D01*
X53364463Y-95928918D01*
X53632252Y-95749987D01*
X53859987Y-95522252D01*
X54038918Y-95254463D01*
X54162168Y-94956912D01*
X54225000Y-94641033D01*
X54225000Y-94318967D01*
X54162168Y-94003088D01*
X54156177Y-93988624D01*
X61620963Y-86523838D01*
X61640754Y-86589087D01*
X61760963Y-86843420D01*
X61928481Y-87069414D01*
X62136869Y-87258385D01*
X62378119Y-87403070D01*
X62642960Y-87497909D01*
X62865000Y-87376624D01*
X62865000Y-86233000D01*
X63119000Y-86233000D01*
X63119000Y-87376624D01*
X63341040Y-87497909D01*
X63605881Y-87403070D01*
X63847131Y-87258385D01*
X64055519Y-87069414D01*
X64223037Y-86843420D01*
X64343246Y-86589087D01*
X64383904Y-86455039D01*
X64261915Y-86233000D01*
X63119000Y-86233000D01*
X62865000Y-86233000D01*
X62845000Y-86233000D01*
X62845000Y-85979000D01*
X62865000Y-85979000D01*
X62865000Y-85959000D01*
X63119000Y-85959000D01*
X63119000Y-85979000D01*
X64261915Y-85979000D01*
X64383904Y-85756961D01*
X64343246Y-85622913D01*
X64223037Y-85368580D01*
X64069225Y-85161076D01*
X69663453Y-79566849D01*
X69697241Y-79600637D01*
G36*
X34992500Y-82642379D02*
G01*
X34992501Y-96618255D01*
X34855750Y-96619000D01*
X34697000Y-96777750D01*
X34697000Y-97977000D01*
X34717000Y-97977000D01*
X34717000Y-98231000D01*
X34697000Y-98231000D01*
X34697000Y-98251000D01*
X34443000Y-98251000D01*
X34443000Y-98231000D01*
X33243750Y-98231000D01*
X33085000Y-98389750D01*
X33081928Y-98954000D01*
X33094188Y-99078482D01*
X33130498Y-99198180D01*
X33189463Y-99308494D01*
X33268815Y-99405185D01*
X33365506Y-99484537D01*
X33475820Y-99543502D01*
X33548380Y-99565513D01*
X33416525Y-99697368D01*
X33254010Y-99940589D01*
X33142068Y-100210842D01*
X33085000Y-100497740D01*
X33085000Y-100790260D01*
X33142068Y-101077158D01*
X33254010Y-101347411D01*
X33416525Y-101590632D01*
X33623368Y-101797475D01*
X33797760Y-101914000D01*
X33623368Y-102030525D01*
X33416525Y-102237368D01*
X33254010Y-102480589D01*
X33142068Y-102750842D01*
X33085000Y-103037740D01*
X33085000Y-103330260D01*
X33141738Y-103615500D01*
X31259202Y-103615500D01*
X27292704Y-99649003D01*
X27268901Y-99619999D01*
X27153176Y-99525026D01*
X27021147Y-99454454D01*
X26877886Y-99410997D01*
X26839347Y-99407201D01*
X26704039Y-99204698D01*
X26495302Y-98995961D01*
X26336719Y-98890000D01*
X26495302Y-98784039D01*
X26704039Y-98575302D01*
X26868042Y-98329853D01*
X26981010Y-98057125D01*
X27038600Y-97767599D01*
X27038600Y-97472401D01*
X26995158Y-97254000D01*
X33081928Y-97254000D01*
X33085000Y-97818250D01*
X33243750Y-97977000D01*
X34443000Y-97977000D01*
X34443000Y-96777750D01*
X34284250Y-96619000D01*
X33720000Y-96615928D01*
X33595518Y-96628188D01*
X33475820Y-96664498D01*
X33365506Y-96723463D01*
X33268815Y-96802815D01*
X33189463Y-96899506D01*
X33130498Y-97009820D01*
X33094188Y-97129518D01*
X33081928Y-97254000D01*
X26995158Y-97254000D01*
X26981010Y-97182875D01*
X26868042Y-96910147D01*
X26704039Y-96664698D01*
X26495302Y-96455961D01*
X26336719Y-96350000D01*
X26495302Y-96244039D01*
X26704039Y-96035302D01*
X26868042Y-95789853D01*
X26981010Y-95517125D01*
X27038600Y-95227599D01*
X27038600Y-94932401D01*
X26981010Y-94642875D01*
X26868042Y-94370147D01*
X26704039Y-94124698D01*
X26495302Y-93915961D01*
X26336719Y-93810000D01*
X26495302Y-93704039D01*
X26704039Y-93495302D01*
X26868042Y-93249853D01*
X26981010Y-92977125D01*
X27038600Y-92687599D01*
X27038600Y-92392401D01*
X26981010Y-92102875D01*
X26868042Y-91830147D01*
X26723531Y-91613870D01*
X34385904Y-83951498D01*
X34414901Y-83927701D01*
X34509874Y-83811976D01*
X34580446Y-83679947D01*
X34623903Y-83536686D01*
X34634900Y-83425033D01*
X34634900Y-83425024D01*
X34638576Y-83387701D01*
X34634900Y-83350378D01*
X34634900Y-82284778D01*
X34992500Y-82642379D01*
G37*
X34992500Y-82642379D02*
X34992501Y-96618255D01*
X34855750Y-96619000D01*
X34697000Y-96777750D01*
X34697000Y-97977000D01*
X34717000Y-97977000D01*
X34717000Y-98231000D01*
X34697000Y-98231000D01*
X34697000Y-98251000D01*
X34443000Y-98251000D01*
X34443000Y-98231000D01*
X33243750Y-98231000D01*
X33085000Y-98389750D01*
X33081928Y-98954000D01*
X33094188Y-99078482D01*
X33130498Y-99198180D01*
X33189463Y-99308494D01*
X33268815Y-99405185D01*
X33365506Y-99484537D01*
X33475820Y-99543502D01*
X33548380Y-99565513D01*
X33416525Y-99697368D01*
X33254010Y-99940589D01*
X33142068Y-100210842D01*
X33085000Y-100497740D01*
X33085000Y-100790260D01*
X33142068Y-101077158D01*
X33254010Y-101347411D01*
X33416525Y-101590632D01*
X33623368Y-101797475D01*
X33797760Y-101914000D01*
X33623368Y-102030525D01*
X33416525Y-102237368D01*
X33254010Y-102480589D01*
X33142068Y-102750842D01*
X33085000Y-103037740D01*
X33085000Y-103330260D01*
X33141738Y-103615500D01*
X31259202Y-103615500D01*
X27292704Y-99649003D01*
X27268901Y-99619999D01*
X27153176Y-99525026D01*
X27021147Y-99454454D01*
X26877886Y-99410997D01*
X26839347Y-99407201D01*
X26704039Y-99204698D01*
X26495302Y-98995961D01*
X26336719Y-98890000D01*
X26495302Y-98784039D01*
X26704039Y-98575302D01*
X26868042Y-98329853D01*
X26981010Y-98057125D01*
X27038600Y-97767599D01*
X27038600Y-97472401D01*
X26995158Y-97254000D01*
X33081928Y-97254000D01*
X33085000Y-97818250D01*
X33243750Y-97977000D01*
X34443000Y-97977000D01*
X34443000Y-96777750D01*
X34284250Y-96619000D01*
X33720000Y-96615928D01*
X33595518Y-96628188D01*
X33475820Y-96664498D01*
X33365506Y-96723463D01*
X33268815Y-96802815D01*
X33189463Y-96899506D01*
X33130498Y-97009820D01*
X33094188Y-97129518D01*
X33081928Y-97254000D01*
X26995158Y-97254000D01*
X26981010Y-97182875D01*
X26868042Y-96910147D01*
X26704039Y-96664698D01*
X26495302Y-96455961D01*
X26336719Y-96350000D01*
X26495302Y-96244039D01*
X26704039Y-96035302D01*
X26868042Y-95789853D01*
X26981010Y-95517125D01*
X27038600Y-95227599D01*
X27038600Y-94932401D01*
X26981010Y-94642875D01*
X26868042Y-94370147D01*
X26704039Y-94124698D01*
X26495302Y-93915961D01*
X26336719Y-93810000D01*
X26495302Y-93704039D01*
X26704039Y-93495302D01*
X26868042Y-93249853D01*
X26981010Y-92977125D01*
X27038600Y-92687599D01*
X27038600Y-92392401D01*
X26981010Y-92102875D01*
X26868042Y-91830147D01*
X26723531Y-91613870D01*
X34385904Y-83951498D01*
X34414901Y-83927701D01*
X34509874Y-83811976D01*
X34580446Y-83679947D01*
X34623903Y-83536686D01*
X34634900Y-83425033D01*
X34634900Y-83425024D01*
X34638576Y-83387701D01*
X34634900Y-83350378D01*
X34634900Y-82284778D01*
X34992500Y-82642379D01*
G36*
X44387363Y-59654759D02*
G01*
X44587241Y-59854637D01*
X44742001Y-59958044D01*
X44742000Y-62039798D01*
X35850998Y-70930801D01*
X35822000Y-70954599D01*
X35798202Y-70983597D01*
X35798201Y-70983598D01*
X35727026Y-71070324D01*
X35656454Y-71202354D01*
X35642631Y-71247924D01*
X35628635Y-71294063D01*
X35575087Y-71268754D01*
X35441039Y-71228096D01*
X35219000Y-71350085D01*
X35219000Y-72493000D01*
X35239000Y-72493000D01*
X35239000Y-72747000D01*
X35219000Y-72747000D01*
X35219000Y-73889915D01*
X35441039Y-74011904D01*
X35483748Y-73998950D01*
X28665398Y-80817301D01*
X28636400Y-80841099D01*
X28612602Y-80870097D01*
X28612601Y-80870098D01*
X28541426Y-80956824D01*
X28470854Y-81088854D01*
X28444727Y-81174986D01*
X28427398Y-81232114D01*
X28421401Y-81292998D01*
X28412724Y-81381100D01*
X28416401Y-81418432D01*
X28416400Y-82652998D01*
X26864521Y-84204878D01*
X26704039Y-83964698D01*
X26495302Y-83755961D01*
X26336719Y-83650000D01*
X26495302Y-83544039D01*
X26704039Y-83335302D01*
X26868042Y-83089853D01*
X26981010Y-82817125D01*
X27038600Y-82527599D01*
X27038600Y-82232401D01*
X26981010Y-81942875D01*
X26868042Y-81670147D01*
X26704039Y-81424698D01*
X26495302Y-81215961D01*
X26336719Y-81110000D01*
X26495302Y-81004039D01*
X26704039Y-80795302D01*
X26868042Y-80549853D01*
X26981010Y-80277125D01*
X27038600Y-79987599D01*
X27038600Y-79692401D01*
X26981010Y-79402875D01*
X26868042Y-79130147D01*
X26704039Y-78884698D01*
X26495302Y-78675961D01*
X26425000Y-78628987D01*
X26425000Y-78511013D01*
X26495302Y-78464039D01*
X26704039Y-78255302D01*
X26751013Y-78185000D01*
X26810431Y-78185000D01*
X26853900Y-78189281D01*
X26897369Y-78185000D01*
X26897377Y-78185000D01*
X27027390Y-78172195D01*
X27194213Y-78121589D01*
X27347959Y-78039411D01*
X27482717Y-77928817D01*
X27510434Y-77895044D01*
X32436438Y-72969040D01*
X33700091Y-72969040D01*
X33794930Y-73233881D01*
X33939615Y-73475131D01*
X34128586Y-73683519D01*
X34354580Y-73851037D01*
X34608913Y-73971246D01*
X34742961Y-74011904D01*
X34965000Y-73889915D01*
X34965000Y-72747000D01*
X33821376Y-72747000D01*
X33700091Y-72969040D01*
X32436438Y-72969040D01*
X33134518Y-72270960D01*
X33700091Y-72270960D01*
X33821376Y-72493000D01*
X34965000Y-72493000D01*
X34965000Y-71350085D01*
X34742961Y-71228096D01*
X34608913Y-71268754D01*
X34354580Y-71388963D01*
X34128586Y-71556481D01*
X33939615Y-71764869D01*
X33794930Y-72006119D01*
X33700091Y-72270960D01*
X33134518Y-72270960D01*
X37541751Y-67863728D01*
X37575517Y-67836017D01*
X37606145Y-67798698D01*
X37686111Y-67701259D01*
X37768289Y-67547514D01*
X37818895Y-67380690D01*
X37820297Y-67366454D01*
X37831700Y-67250677D01*
X37831700Y-67250669D01*
X37835981Y-67207200D01*
X37831700Y-67163731D01*
X37831700Y-64516754D01*
X37863905Y-64468556D01*
X37941926Y-64280198D01*
X37981700Y-64080239D01*
X37981700Y-64013000D01*
X38205878Y-64013000D01*
X38243200Y-64016676D01*
X38280522Y-64013000D01*
X38280533Y-64013000D01*
X38392186Y-64002003D01*
X38535447Y-63958546D01*
X38667476Y-63887974D01*
X38783201Y-63793001D01*
X38807004Y-63763997D01*
X40150202Y-62420800D01*
X40212339Y-62420800D01*
X40412298Y-62381026D01*
X40600656Y-62303005D01*
X40770174Y-62189737D01*
X40914337Y-62045574D01*
X41027605Y-61876056D01*
X41105626Y-61687698D01*
X41145400Y-61487739D01*
X41145400Y-61283861D01*
X41105626Y-61083902D01*
X41030432Y-60902369D01*
X42065778Y-59867023D01*
X42282273Y-60011680D01*
X42543426Y-60119853D01*
X42820665Y-60175000D01*
X43103335Y-60175000D01*
X43380574Y-60119853D01*
X43641727Y-60011680D01*
X43876759Y-59854637D01*
X44076637Y-59654759D01*
X44232000Y-59422241D01*
X44387363Y-59654759D01*
G37*
X44387363Y-59654759D02*
X44587241Y-59854637D01*
X44742001Y-59958044D01*
X44742000Y-62039798D01*
X35850998Y-70930801D01*
X35822000Y-70954599D01*
X35798202Y-70983597D01*
X35798201Y-70983598D01*
X35727026Y-71070324D01*
X35656454Y-71202354D01*
X35642631Y-71247924D01*
X35628635Y-71294063D01*
X35575087Y-71268754D01*
X35441039Y-71228096D01*
X35219000Y-71350085D01*
X35219000Y-72493000D01*
X35239000Y-72493000D01*
X35239000Y-72747000D01*
X35219000Y-72747000D01*
X35219000Y-73889915D01*
X35441039Y-74011904D01*
X35483748Y-73998950D01*
X28665398Y-80817301D01*
X28636400Y-80841099D01*
X28612602Y-80870097D01*
X28612601Y-80870098D01*
X28541426Y-80956824D01*
X28470854Y-81088854D01*
X28444727Y-81174986D01*
X28427398Y-81232114D01*
X28421401Y-81292998D01*
X28412724Y-81381100D01*
X28416401Y-81418432D01*
X28416400Y-82652998D01*
X26864521Y-84204878D01*
X26704039Y-83964698D01*
X26495302Y-83755961D01*
X26336719Y-83650000D01*
X26495302Y-83544039D01*
X26704039Y-83335302D01*
X26868042Y-83089853D01*
X26981010Y-82817125D01*
X27038600Y-82527599D01*
X27038600Y-82232401D01*
X26981010Y-81942875D01*
X26868042Y-81670147D01*
X26704039Y-81424698D01*
X26495302Y-81215961D01*
X26336719Y-81110000D01*
X26495302Y-81004039D01*
X26704039Y-80795302D01*
X26868042Y-80549853D01*
X26981010Y-80277125D01*
X27038600Y-79987599D01*
X27038600Y-79692401D01*
X26981010Y-79402875D01*
X26868042Y-79130147D01*
X26704039Y-78884698D01*
X26495302Y-78675961D01*
X26425000Y-78628987D01*
X26425000Y-78511013D01*
X26495302Y-78464039D01*
X26704039Y-78255302D01*
X26751013Y-78185000D01*
X26810431Y-78185000D01*
X26853900Y-78189281D01*
X26897369Y-78185000D01*
X26897377Y-78185000D01*
X27027390Y-78172195D01*
X27194213Y-78121589D01*
X27347959Y-78039411D01*
X27482717Y-77928817D01*
X27510434Y-77895044D01*
X32436438Y-72969040D01*
X33700091Y-72969040D01*
X33794930Y-73233881D01*
X33939615Y-73475131D01*
X34128586Y-73683519D01*
X34354580Y-73851037D01*
X34608913Y-73971246D01*
X34742961Y-74011904D01*
X34965000Y-73889915D01*
X34965000Y-72747000D01*
X33821376Y-72747000D01*
X33700091Y-72969040D01*
X32436438Y-72969040D01*
X33134518Y-72270960D01*
X33700091Y-72270960D01*
X33821376Y-72493000D01*
X34965000Y-72493000D01*
X34965000Y-71350085D01*
X34742961Y-71228096D01*
X34608913Y-71268754D01*
X34354580Y-71388963D01*
X34128586Y-71556481D01*
X33939615Y-71764869D01*
X33794930Y-72006119D01*
X33700091Y-72270960D01*
X33134518Y-72270960D01*
X37541751Y-67863728D01*
X37575517Y-67836017D01*
X37606145Y-67798698D01*
X37686111Y-67701259D01*
X37768289Y-67547514D01*
X37818895Y-67380690D01*
X37820297Y-67366454D01*
X37831700Y-67250677D01*
X37831700Y-67250669D01*
X37835981Y-67207200D01*
X37831700Y-67163731D01*
X37831700Y-64516754D01*
X37863905Y-64468556D01*
X37941926Y-64280198D01*
X37981700Y-64080239D01*
X37981700Y-64013000D01*
X38205878Y-64013000D01*
X38243200Y-64016676D01*
X38280522Y-64013000D01*
X38280533Y-64013000D01*
X38392186Y-64002003D01*
X38535447Y-63958546D01*
X38667476Y-63887974D01*
X38783201Y-63793001D01*
X38807004Y-63763997D01*
X40150202Y-62420800D01*
X40212339Y-62420800D01*
X40412298Y-62381026D01*
X40600656Y-62303005D01*
X40770174Y-62189737D01*
X40914337Y-62045574D01*
X41027605Y-61876056D01*
X41105626Y-61687698D01*
X41145400Y-61487739D01*
X41145400Y-61283861D01*
X41105626Y-61083902D01*
X41030432Y-60902369D01*
X42065778Y-59867023D01*
X42282273Y-60011680D01*
X42543426Y-60119853D01*
X42820665Y-60175000D01*
X43103335Y-60175000D01*
X43380574Y-60119853D01*
X43641727Y-60011680D01*
X43876759Y-59854637D01*
X44076637Y-59654759D01*
X44232000Y-59422241D01*
X44387363Y-59654759D01*
G36*
X39417843Y-73841948D02*
G01*
X39422998Y-73894286D01*
X39428470Y-73912324D01*
X39466454Y-74037546D01*
X39537026Y-74169576D01*
X39608201Y-74256302D01*
X39632000Y-74285301D01*
X39660998Y-74309099D01*
X40537300Y-75185402D01*
X40537300Y-78849550D01*
X40313335Y-78805000D01*
X40030665Y-78805000D01*
X39753426Y-78860147D01*
X39492273Y-78968320D01*
X39257241Y-79125363D01*
X39057363Y-79325241D01*
X38902000Y-79557759D01*
X38746637Y-79325241D01*
X38546759Y-79125363D01*
X38311727Y-78968320D01*
X38050574Y-78860147D01*
X37773335Y-78805000D01*
X37490665Y-78805000D01*
X37213426Y-78860147D01*
X36952273Y-78968320D01*
X36735838Y-79112937D01*
X36226603Y-78603702D01*
X36202801Y-78574699D01*
X36087076Y-78479726D01*
X35955047Y-78409154D01*
X35811786Y-78365697D01*
X35700133Y-78354700D01*
X35700122Y-78354700D01*
X35662800Y-78351024D01*
X35625478Y-78354700D01*
X34717801Y-78354700D01*
X39305572Y-73766930D01*
X39417843Y-73841948D01*
G37*
X39417843Y-73841948D02*
X39422998Y-73894286D01*
X39428470Y-73912324D01*
X39466454Y-74037546D01*
X39537026Y-74169576D01*
X39608201Y-74256302D01*
X39632000Y-74285301D01*
X39660998Y-74309099D01*
X40537300Y-75185402D01*
X40537300Y-78849550D01*
X40313335Y-78805000D01*
X40030665Y-78805000D01*
X39753426Y-78860147D01*
X39492273Y-78968320D01*
X39257241Y-79125363D01*
X39057363Y-79325241D01*
X38902000Y-79557759D01*
X38746637Y-79325241D01*
X38546759Y-79125363D01*
X38311727Y-78968320D01*
X38050574Y-78860147D01*
X37773335Y-78805000D01*
X37490665Y-78805000D01*
X37213426Y-78860147D01*
X36952273Y-78968320D01*
X36735838Y-79112937D01*
X36226603Y-78603702D01*
X36202801Y-78574699D01*
X36087076Y-78479726D01*
X35955047Y-78409154D01*
X35811786Y-78365697D01*
X35700133Y-78354700D01*
X35700122Y-78354700D01*
X35662800Y-78351024D01*
X35625478Y-78354700D01*
X34717801Y-78354700D01*
X39305572Y-73766930D01*
X39417843Y-73841948D01*
G36*
X23127000Y-77173000D02*
G01*
X23147000Y-77173000D01*
X23147000Y-77427000D01*
X23127000Y-77427000D01*
X23127000Y-77447000D01*
X22873000Y-77447000D01*
X22873000Y-77427000D01*
X22853000Y-77427000D01*
X22853000Y-77173000D01*
X22873000Y-77173000D01*
X22873000Y-77153000D01*
X23127000Y-77153000D01*
X23127000Y-77173000D01*
G37*
X23127000Y-77173000D02*
X23147000Y-77173000D01*
X23147000Y-77427000D01*
X23127000Y-77427000D01*
X23127000Y-77447000D01*
X22873000Y-77447000D01*
X22873000Y-77427000D01*
X22853000Y-77427000D01*
X22853000Y-77173000D01*
X22873000Y-77173000D01*
X22873000Y-77153000D01*
X23127000Y-77153000D01*
X23127000Y-77173000D01*
G36*
X84326320Y-76371727D02*
G01*
X84483363Y-76606759D01*
X84520101Y-76643497D01*
X84263658Y-76899940D01*
X84266200Y-76874133D01*
X84266200Y-76874124D01*
X84269876Y-76836801D01*
X84266200Y-76799478D01*
X84266200Y-76226584D01*
X84326320Y-76371727D01*
G37*
X84326320Y-76371727D02*
X84483363Y-76606759D01*
X84520101Y-76643497D01*
X84263658Y-76899940D01*
X84266200Y-76874133D01*
X84266200Y-76874124D01*
X84269876Y-76836801D01*
X84266200Y-76799478D01*
X84266200Y-76226584D01*
X84326320Y-76371727D01*
G36*
X92143958Y-50747853D02*
G01*
X92307961Y-50993302D01*
X92516698Y-51202039D01*
X92682103Y-51312559D01*
X92583512Y-51371183D01*
X92365146Y-51567707D01*
X92189316Y-51803056D01*
X92062778Y-52068186D01*
X92017042Y-52218974D01*
X92138183Y-52451000D01*
X93345000Y-52451000D01*
X93345000Y-52431000D01*
X93599000Y-52431000D01*
X93599000Y-52451000D01*
X93619000Y-52451000D01*
X93619000Y-52705000D01*
X93599000Y-52705000D01*
X93599000Y-52725000D01*
X93345000Y-52725000D01*
X93345000Y-52705000D01*
X92138183Y-52705000D01*
X92017042Y-52937026D01*
X92062778Y-53087814D01*
X92189316Y-53352944D01*
X92250910Y-53435388D01*
X86315303Y-59370996D01*
X86286299Y-59394799D01*
X86236218Y-59455823D01*
X86191326Y-59510524D01*
X86141414Y-59603903D01*
X86120754Y-59642554D01*
X86077297Y-59785815D01*
X86066300Y-59897468D01*
X86066300Y-59897478D01*
X86062624Y-59934800D01*
X86066300Y-59972122D01*
X86066300Y-64172744D01*
X86016574Y-64152147D01*
X85739335Y-64097000D01*
X85456665Y-64097000D01*
X85179426Y-64152147D01*
X84918273Y-64260320D01*
X84683241Y-64417363D01*
X84483363Y-64617241D01*
X84326320Y-64852273D01*
X84266200Y-64997416D01*
X84266200Y-59847401D01*
X90428904Y-53684698D01*
X90457901Y-53660901D01*
X90491960Y-53619400D01*
X90552874Y-53545177D01*
X90623446Y-53413147D01*
X90627859Y-53398600D01*
X90666903Y-53269886D01*
X90677900Y-53158233D01*
X90677900Y-53158224D01*
X90681576Y-53120901D01*
X90677900Y-53083578D01*
X90677900Y-52180001D01*
X92134026Y-50723875D01*
X92143958Y-50747853D01*
G37*
X92143958Y-50747853D02*
X92307961Y-50993302D01*
X92516698Y-51202039D01*
X92682103Y-51312559D01*
X92583512Y-51371183D01*
X92365146Y-51567707D01*
X92189316Y-51803056D01*
X92062778Y-52068186D01*
X92017042Y-52218974D01*
X92138183Y-52451000D01*
X93345000Y-52451000D01*
X93345000Y-52431000D01*
X93599000Y-52431000D01*
X93599000Y-52451000D01*
X93619000Y-52451000D01*
X93619000Y-52705000D01*
X93599000Y-52705000D01*
X93599000Y-52725000D01*
X93345000Y-52725000D01*
X93345000Y-52705000D01*
X92138183Y-52705000D01*
X92017042Y-52937026D01*
X92062778Y-53087814D01*
X92189316Y-53352944D01*
X92250910Y-53435388D01*
X86315303Y-59370996D01*
X86286299Y-59394799D01*
X86236218Y-59455823D01*
X86191326Y-59510524D01*
X86141414Y-59603903D01*
X86120754Y-59642554D01*
X86077297Y-59785815D01*
X86066300Y-59897468D01*
X86066300Y-59897478D01*
X86062624Y-59934800D01*
X86066300Y-59972122D01*
X86066300Y-64172744D01*
X86016574Y-64152147D01*
X85739335Y-64097000D01*
X85456665Y-64097000D01*
X85179426Y-64152147D01*
X84918273Y-64260320D01*
X84683241Y-64417363D01*
X84483363Y-64617241D01*
X84326320Y-64852273D01*
X84266200Y-64997416D01*
X84266200Y-59847401D01*
X90428904Y-53684698D01*
X90457901Y-53660901D01*
X90491960Y-53619400D01*
X90552874Y-53545177D01*
X90623446Y-53413147D01*
X90627859Y-53398600D01*
X90666903Y-53269886D01*
X90677900Y-53158233D01*
X90677900Y-53158224D01*
X90681576Y-53120901D01*
X90677900Y-53083578D01*
X90677900Y-52180001D01*
X92134026Y-50723875D01*
X92143958Y-50747853D01*
G36*
X105493100Y-48711302D02*
G01*
X105493101Y-54553777D01*
X105187750Y-54555400D01*
X105029000Y-54714150D01*
X105029000Y-55927000D01*
X105049000Y-55927000D01*
X105049000Y-56181000D01*
X105029000Y-56181000D01*
X105029000Y-58467000D01*
X105049000Y-58467000D01*
X105049000Y-58721000D01*
X105029000Y-58721000D01*
X105029000Y-61007000D01*
X105049000Y-61007000D01*
X105049000Y-61261000D01*
X105029000Y-61261000D01*
X105029000Y-61281000D01*
X104775000Y-61281000D01*
X104775000Y-61261000D01*
X103568183Y-61261000D01*
X103447042Y-61493026D01*
X103492778Y-61643814D01*
X103492867Y-61644000D01*
X97572222Y-61644000D01*
X97534899Y-61640324D01*
X97497576Y-61644000D01*
X97497567Y-61644000D01*
X97385914Y-61654997D01*
X97242653Y-61698454D01*
X97144343Y-61751002D01*
X96967302Y-61573961D01*
X96808719Y-61468000D01*
X96967302Y-61362039D01*
X97176039Y-61153302D01*
X97340042Y-60907853D01*
X97453010Y-60635125D01*
X97510600Y-60345599D01*
X97510600Y-60050401D01*
X97453010Y-59760875D01*
X97340042Y-59488147D01*
X97176039Y-59242698D01*
X96967302Y-59033961D01*
X96846174Y-58953026D01*
X103447042Y-58953026D01*
X103492778Y-59103814D01*
X103619316Y-59368944D01*
X103795146Y-59604293D01*
X104013512Y-59800817D01*
X104119770Y-59864000D01*
X104013512Y-59927183D01*
X103795146Y-60123707D01*
X103619316Y-60359056D01*
X103492778Y-60624186D01*
X103447042Y-60774974D01*
X103568183Y-61007000D01*
X104775000Y-61007000D01*
X104775000Y-58721000D01*
X103568183Y-58721000D01*
X103447042Y-58953026D01*
X96846174Y-58953026D01*
X96808719Y-58928000D01*
X96967302Y-58822039D01*
X97176039Y-58613302D01*
X97340042Y-58367853D01*
X97453010Y-58095125D01*
X97510600Y-57805599D01*
X97510600Y-57510401D01*
X97453010Y-57220875D01*
X97340042Y-56948147D01*
X97319632Y-56917600D01*
X103400328Y-56917600D01*
X103412588Y-57042082D01*
X103448898Y-57161780D01*
X103507863Y-57272094D01*
X103587215Y-57368785D01*
X103683906Y-57448137D01*
X103794220Y-57507102D01*
X103858574Y-57526624D01*
X103795146Y-57583707D01*
X103619316Y-57819056D01*
X103492778Y-58084186D01*
X103447042Y-58234974D01*
X103568183Y-58467000D01*
X104775000Y-58467000D01*
X104775000Y-56181000D01*
X103562150Y-56181000D01*
X103403400Y-56339750D01*
X103400328Y-56917600D01*
X97319632Y-56917600D01*
X97176039Y-56702698D01*
X96967302Y-56493961D01*
X96808719Y-56388000D01*
X96967302Y-56282039D01*
X97176039Y-56073302D01*
X97340042Y-55827853D01*
X97453010Y-55555125D01*
X97510600Y-55265599D01*
X97510600Y-55190400D01*
X103400328Y-55190400D01*
X103403400Y-55768250D01*
X103562150Y-55927000D01*
X104775000Y-55927000D01*
X104775000Y-54714150D01*
X104616250Y-54555400D01*
X104038400Y-54552328D01*
X103913918Y-54564588D01*
X103794220Y-54600898D01*
X103683906Y-54659863D01*
X103587215Y-54739215D01*
X103507863Y-54835906D01*
X103448898Y-54946220D01*
X103412588Y-55065918D01*
X103400328Y-55190400D01*
X97510600Y-55190400D01*
X97510600Y-54970401D01*
X97453010Y-54680875D01*
X97340042Y-54408147D01*
X97176039Y-54162698D01*
X96967302Y-53953961D01*
X96801897Y-53843441D01*
X96900488Y-53784817D01*
X97118854Y-53588293D01*
X97294684Y-53352944D01*
X97421222Y-53087814D01*
X97466958Y-52937026D01*
X97345817Y-52705000D01*
X96139000Y-52705000D01*
X96139000Y-52725000D01*
X95885000Y-52725000D01*
X95885000Y-52705000D01*
X95865000Y-52705000D01*
X95865000Y-52451000D01*
X95885000Y-52451000D01*
X95885000Y-52431000D01*
X96139000Y-52431000D01*
X96139000Y-52451000D01*
X97345817Y-52451000D01*
X97466958Y-52218974D01*
X97421222Y-52068186D01*
X97294684Y-51803056D01*
X97180834Y-51650667D01*
X98232803Y-50598699D01*
X98261801Y-50574901D01*
X98356774Y-50459176D01*
X98427346Y-50327147D01*
X98470803Y-50183886D01*
X98481800Y-50072233D01*
X98485477Y-50034900D01*
X98481800Y-49997567D01*
X98481800Y-42442522D01*
X98485476Y-42405199D01*
X98481800Y-42367877D01*
X98481800Y-42367867D01*
X98470803Y-42256214D01*
X98427346Y-42112953D01*
X98386748Y-42037000D01*
X98356774Y-41980923D01*
X98285599Y-41894197D01*
X98261801Y-41865199D01*
X98232804Y-41841402D01*
X97195531Y-40804130D01*
X97340042Y-40587853D01*
X97348715Y-40566916D01*
X105493100Y-48711302D01*
G37*
X105493100Y-48711302D02*
X105493101Y-54553777D01*
X105187750Y-54555400D01*
X105029000Y-54714150D01*
X105029000Y-55927000D01*
X105049000Y-55927000D01*
X105049000Y-56181000D01*
X105029000Y-56181000D01*
X105029000Y-58467000D01*
X105049000Y-58467000D01*
X105049000Y-58721000D01*
X105029000Y-58721000D01*
X105029000Y-61007000D01*
X105049000Y-61007000D01*
X105049000Y-61261000D01*
X105029000Y-61261000D01*
X105029000Y-61281000D01*
X104775000Y-61281000D01*
X104775000Y-61261000D01*
X103568183Y-61261000D01*
X103447042Y-61493026D01*
X103492778Y-61643814D01*
X103492867Y-61644000D01*
X97572222Y-61644000D01*
X97534899Y-61640324D01*
X97497576Y-61644000D01*
X97497567Y-61644000D01*
X97385914Y-61654997D01*
X97242653Y-61698454D01*
X97144343Y-61751002D01*
X96967302Y-61573961D01*
X96808719Y-61468000D01*
X96967302Y-61362039D01*
X97176039Y-61153302D01*
X97340042Y-60907853D01*
X97453010Y-60635125D01*
X97510600Y-60345599D01*
X97510600Y-60050401D01*
X97453010Y-59760875D01*
X97340042Y-59488147D01*
X97176039Y-59242698D01*
X96967302Y-59033961D01*
X96846174Y-58953026D01*
X103447042Y-58953026D01*
X103492778Y-59103814D01*
X103619316Y-59368944D01*
X103795146Y-59604293D01*
X104013512Y-59800817D01*
X104119770Y-59864000D01*
X104013512Y-59927183D01*
X103795146Y-60123707D01*
X103619316Y-60359056D01*
X103492778Y-60624186D01*
X103447042Y-60774974D01*
X103568183Y-61007000D01*
X104775000Y-61007000D01*
X104775000Y-58721000D01*
X103568183Y-58721000D01*
X103447042Y-58953026D01*
X96846174Y-58953026D01*
X96808719Y-58928000D01*
X96967302Y-58822039D01*
X97176039Y-58613302D01*
X97340042Y-58367853D01*
X97453010Y-58095125D01*
X97510600Y-57805599D01*
X97510600Y-57510401D01*
X97453010Y-57220875D01*
X97340042Y-56948147D01*
X97319632Y-56917600D01*
X103400328Y-56917600D01*
X103412588Y-57042082D01*
X103448898Y-57161780D01*
X103507863Y-57272094D01*
X103587215Y-57368785D01*
X103683906Y-57448137D01*
X103794220Y-57507102D01*
X103858574Y-57526624D01*
X103795146Y-57583707D01*
X103619316Y-57819056D01*
X103492778Y-58084186D01*
X103447042Y-58234974D01*
X103568183Y-58467000D01*
X104775000Y-58467000D01*
X104775000Y-56181000D01*
X103562150Y-56181000D01*
X103403400Y-56339750D01*
X103400328Y-56917600D01*
X97319632Y-56917600D01*
X97176039Y-56702698D01*
X96967302Y-56493961D01*
X96808719Y-56388000D01*
X96967302Y-56282039D01*
X97176039Y-56073302D01*
X97340042Y-55827853D01*
X97453010Y-55555125D01*
X97510600Y-55265599D01*
X97510600Y-55190400D01*
X103400328Y-55190400D01*
X103403400Y-55768250D01*
X103562150Y-55927000D01*
X104775000Y-55927000D01*
X104775000Y-54714150D01*
X104616250Y-54555400D01*
X104038400Y-54552328D01*
X103913918Y-54564588D01*
X103794220Y-54600898D01*
X103683906Y-54659863D01*
X103587215Y-54739215D01*
X103507863Y-54835906D01*
X103448898Y-54946220D01*
X103412588Y-55065918D01*
X103400328Y-55190400D01*
X97510600Y-55190400D01*
X97510600Y-54970401D01*
X97453010Y-54680875D01*
X97340042Y-54408147D01*
X97176039Y-54162698D01*
X96967302Y-53953961D01*
X96801897Y-53843441D01*
X96900488Y-53784817D01*
X97118854Y-53588293D01*
X97294684Y-53352944D01*
X97421222Y-53087814D01*
X97466958Y-52937026D01*
X97345817Y-52705000D01*
X96139000Y-52705000D01*
X96139000Y-52725000D01*
X95885000Y-52725000D01*
X95885000Y-52705000D01*
X95865000Y-52705000D01*
X95865000Y-52451000D01*
X95885000Y-52451000D01*
X95885000Y-52431000D01*
X96139000Y-52431000D01*
X96139000Y-52451000D01*
X97345817Y-52451000D01*
X97466958Y-52218974D01*
X97421222Y-52068186D01*
X97294684Y-51803056D01*
X97180834Y-51650667D01*
X98232803Y-50598699D01*
X98261801Y-50574901D01*
X98356774Y-50459176D01*
X98427346Y-50327147D01*
X98470803Y-50183886D01*
X98481800Y-50072233D01*
X98485477Y-50034900D01*
X98481800Y-49997567D01*
X98481800Y-42442522D01*
X98485476Y-42405199D01*
X98481800Y-42367877D01*
X98481800Y-42367867D01*
X98470803Y-42256214D01*
X98427346Y-42112953D01*
X98386748Y-42037000D01*
X98356774Y-41980923D01*
X98285599Y-41894197D01*
X98261801Y-41865199D01*
X98232804Y-41841402D01*
X97195531Y-40804130D01*
X97340042Y-40587853D01*
X97348715Y-40566916D01*
X105493100Y-48711302D01*
G36*
X41847363Y-52034759D02*
G01*
X42047241Y-52234637D01*
X42207843Y-52341948D01*
X42212998Y-52394286D01*
X42214139Y-52398046D01*
X42256454Y-52537546D01*
X42327026Y-52669576D01*
X42392805Y-52749727D01*
X42422000Y-52785301D01*
X42450998Y-52809099D01*
X46012000Y-56370102D01*
X46012000Y-57398017D01*
X45920574Y-57360147D01*
X45643335Y-57305000D01*
X45360665Y-57305000D01*
X45083426Y-57360147D01*
X44822273Y-57468320D01*
X44587241Y-57625363D01*
X44387363Y-57825241D01*
X44232000Y-58057759D01*
X44076637Y-57825241D01*
X43876759Y-57625363D01*
X43641727Y-57468320D01*
X43380574Y-57360147D01*
X43103335Y-57305000D01*
X42820665Y-57305000D01*
X42543426Y-57360147D01*
X42282273Y-57468320D01*
X42047241Y-57625363D01*
X41847363Y-57825241D01*
X41740053Y-57985842D01*
X41687714Y-57990997D01*
X41654187Y-58001167D01*
X41536637Y-57825241D01*
X41336759Y-57625363D01*
X41101727Y-57468320D01*
X40840574Y-57360147D01*
X40563335Y-57305000D01*
X40280665Y-57305000D01*
X40003426Y-57360147D01*
X39742273Y-57468320D01*
X39507241Y-57625363D01*
X39307363Y-57825241D01*
X39200053Y-57985842D01*
X39147714Y-57990997D01*
X39114187Y-58001167D01*
X38996637Y-57825241D01*
X38796759Y-57625363D01*
X38561727Y-57468320D01*
X38300574Y-57360147D01*
X38023335Y-57305000D01*
X37740665Y-57305000D01*
X37516600Y-57349570D01*
X37516600Y-56225501D01*
X40933008Y-52809095D01*
X40962001Y-52785301D01*
X40985795Y-52756308D01*
X40985799Y-52756304D01*
X41056973Y-52669577D01*
X41058840Y-52666085D01*
X41127546Y-52537547D01*
X41171003Y-52394286D01*
X41176158Y-52341947D01*
X41336759Y-52234637D01*
X41536637Y-52034759D01*
X41692000Y-51802241D01*
X41847363Y-52034759D01*
G37*
X41847363Y-52034759D02*
X42047241Y-52234637D01*
X42207843Y-52341948D01*
X42212998Y-52394286D01*
X42214139Y-52398046D01*
X42256454Y-52537546D01*
X42327026Y-52669576D01*
X42392805Y-52749727D01*
X42422000Y-52785301D01*
X42450998Y-52809099D01*
X46012000Y-56370102D01*
X46012000Y-57398017D01*
X45920574Y-57360147D01*
X45643335Y-57305000D01*
X45360665Y-57305000D01*
X45083426Y-57360147D01*
X44822273Y-57468320D01*
X44587241Y-57625363D01*
X44387363Y-57825241D01*
X44232000Y-58057759D01*
X44076637Y-57825241D01*
X43876759Y-57625363D01*
X43641727Y-57468320D01*
X43380574Y-57360147D01*
X43103335Y-57305000D01*
X42820665Y-57305000D01*
X42543426Y-57360147D01*
X42282273Y-57468320D01*
X42047241Y-57625363D01*
X41847363Y-57825241D01*
X41740053Y-57985842D01*
X41687714Y-57990997D01*
X41654187Y-58001167D01*
X41536637Y-57825241D01*
X41336759Y-57625363D01*
X41101727Y-57468320D01*
X40840574Y-57360147D01*
X40563335Y-57305000D01*
X40280665Y-57305000D01*
X40003426Y-57360147D01*
X39742273Y-57468320D01*
X39507241Y-57625363D01*
X39307363Y-57825241D01*
X39200053Y-57985842D01*
X39147714Y-57990997D01*
X39114187Y-58001167D01*
X38996637Y-57825241D01*
X38796759Y-57625363D01*
X38561727Y-57468320D01*
X38300574Y-57360147D01*
X38023335Y-57305000D01*
X37740665Y-57305000D01*
X37516600Y-57349570D01*
X37516600Y-56225501D01*
X40933008Y-52809095D01*
X40962001Y-52785301D01*
X40985795Y-52756308D01*
X40985799Y-52756304D01*
X41056973Y-52669577D01*
X41058840Y-52666085D01*
X41127546Y-52537547D01*
X41171003Y-52394286D01*
X41176158Y-52341947D01*
X41336759Y-52234637D01*
X41536637Y-52034759D01*
X41692000Y-51802241D01*
X41847363Y-52034759D01*
G36*
X106372499Y-44500801D02*
G01*
X106324695Y-44572344D01*
X106246674Y-44760702D01*
X106206900Y-44960661D01*
X106206900Y-45164539D01*
X106246674Y-45364498D01*
X106324695Y-45552856D01*
X106437963Y-45722374D01*
X106582126Y-45866537D01*
X106751644Y-45979805D01*
X106940002Y-46057826D01*
X107139961Y-46097600D01*
X107343839Y-46097600D01*
X107543798Y-46057826D01*
X107732156Y-45979805D01*
X107872000Y-45886364D01*
X107872001Y-54624151D01*
X107801027Y-54599037D01*
X107569000Y-54719536D01*
X107569000Y-55927000D01*
X107589000Y-55927000D01*
X107589000Y-56181000D01*
X107569000Y-56181000D01*
X107569000Y-56201000D01*
X107315000Y-56201000D01*
X107315000Y-56181000D01*
X107295000Y-56181000D01*
X107295000Y-55927000D01*
X107315000Y-55927000D01*
X107315000Y-54719536D01*
X107082973Y-54599037D01*
X107013100Y-54623762D01*
X107013100Y-48433822D01*
X107016776Y-48396499D01*
X107013100Y-48359176D01*
X107013100Y-48359167D01*
X107002103Y-48247514D01*
X106958646Y-48104253D01*
X106888074Y-47972224D01*
X106793101Y-47856499D01*
X106764104Y-47832702D01*
X97195531Y-38264130D01*
X97340042Y-38047853D01*
X97453010Y-37775125D01*
X97510600Y-37485599D01*
X97510600Y-37190401D01*
X97453010Y-36900875D01*
X97340042Y-36628147D01*
X97176039Y-36382698D01*
X96967302Y-36173961D01*
X96801897Y-36063441D01*
X96900488Y-36004817D01*
X97118854Y-35808293D01*
X97294684Y-35572944D01*
X97343132Y-35471433D01*
X106372499Y-44500801D01*
G37*
X106372499Y-44500801D02*
X106324695Y-44572344D01*
X106246674Y-44760702D01*
X106206900Y-44960661D01*
X106206900Y-45164539D01*
X106246674Y-45364498D01*
X106324695Y-45552856D01*
X106437963Y-45722374D01*
X106582126Y-45866537D01*
X106751644Y-45979805D01*
X106940002Y-46057826D01*
X107139961Y-46097600D01*
X107343839Y-46097600D01*
X107543798Y-46057826D01*
X107732156Y-45979805D01*
X107872000Y-45886364D01*
X107872001Y-54624151D01*
X107801027Y-54599037D01*
X107569000Y-54719536D01*
X107569000Y-55927000D01*
X107589000Y-55927000D01*
X107589000Y-56181000D01*
X107569000Y-56181000D01*
X107569000Y-56201000D01*
X107315000Y-56201000D01*
X107315000Y-56181000D01*
X107295000Y-56181000D01*
X107295000Y-55927000D01*
X107315000Y-55927000D01*
X107315000Y-54719536D01*
X107082973Y-54599037D01*
X107013100Y-54623762D01*
X107013100Y-48433822D01*
X107016776Y-48396499D01*
X107013100Y-48359176D01*
X107013100Y-48359167D01*
X107002103Y-48247514D01*
X106958646Y-48104253D01*
X106888074Y-47972224D01*
X106793101Y-47856499D01*
X106764104Y-47832702D01*
X97195531Y-38264130D01*
X97340042Y-38047853D01*
X97453010Y-37775125D01*
X97510600Y-37485599D01*
X97510600Y-37190401D01*
X97453010Y-36900875D01*
X97340042Y-36628147D01*
X97176039Y-36382698D01*
X96967302Y-36173961D01*
X96801897Y-36063441D01*
X96900488Y-36004817D01*
X97118854Y-35808293D01*
X97294684Y-35572944D01*
X97343132Y-35471433D01*
X106372499Y-44500801D01*
G36*
X38499701Y-32198103D02*
G01*
X38523499Y-32227101D01*
X38639224Y-32322074D01*
X38771253Y-32392646D01*
X38914514Y-32436103D01*
X39026167Y-32447100D01*
X39026176Y-32447100D01*
X39063499Y-32450776D01*
X39100822Y-32447100D01*
X64265378Y-32447100D01*
X64302700Y-32450776D01*
X64340022Y-32447100D01*
X64340033Y-32447100D01*
X64451686Y-32436103D01*
X64594947Y-32392646D01*
X64724317Y-32323495D01*
X64768320Y-32429727D01*
X64925363Y-32664759D01*
X65125241Y-32864637D01*
X65357759Y-33020000D01*
X65125241Y-33175363D01*
X64925363Y-33375241D01*
X64768320Y-33610273D01*
X64660147Y-33871426D01*
X64605000Y-34148665D01*
X64605000Y-34431335D01*
X64660147Y-34708574D01*
X64698017Y-34800000D01*
X64580522Y-34800000D01*
X64543199Y-34796324D01*
X64505876Y-34800000D01*
X64505867Y-34800000D01*
X64394214Y-34810997D01*
X64250953Y-34854454D01*
X64118924Y-34925026D01*
X64003199Y-35019999D01*
X63979401Y-35048997D01*
X48989897Y-50038501D01*
X48956759Y-50005363D01*
X48721727Y-49848320D01*
X48460574Y-49740147D01*
X48183335Y-49685000D01*
X47900665Y-49685000D01*
X47623426Y-49740147D01*
X47362273Y-49848320D01*
X47127241Y-50005363D01*
X46927363Y-50205241D01*
X46772000Y-50437759D01*
X46616637Y-50205241D01*
X46416759Y-50005363D01*
X46181727Y-49848320D01*
X45920574Y-49740147D01*
X45643335Y-49685000D01*
X45360665Y-49685000D01*
X45083426Y-49740147D01*
X44822273Y-49848320D01*
X44587241Y-50005363D01*
X44387363Y-50205241D01*
X44232000Y-50437759D01*
X44076637Y-50205241D01*
X43876759Y-50005363D01*
X43641727Y-49848320D01*
X43380574Y-49740147D01*
X43103335Y-49685000D01*
X42820665Y-49685000D01*
X42543426Y-49740147D01*
X42282273Y-49848320D01*
X42047241Y-50005363D01*
X41847363Y-50205241D01*
X41692000Y-50437759D01*
X41536637Y-50205241D01*
X41336759Y-50005363D01*
X41101727Y-49848320D01*
X40840574Y-49740147D01*
X40563335Y-49685000D01*
X40280665Y-49685000D01*
X40003426Y-49740147D01*
X39742273Y-49848320D01*
X39507241Y-50005363D01*
X39307363Y-50205241D01*
X39152000Y-50437759D01*
X38996637Y-50205241D01*
X38796759Y-50005363D01*
X38561727Y-49848320D01*
X38300574Y-49740147D01*
X38023335Y-49685000D01*
X37740665Y-49685000D01*
X37463426Y-49740147D01*
X37202273Y-49848320D01*
X36967241Y-50005363D01*
X36767363Y-50205241D01*
X36610320Y-50440273D01*
X36605933Y-50450865D01*
X36494385Y-50264869D01*
X36305414Y-50056481D01*
X36079420Y-49888963D01*
X35825087Y-49768754D01*
X35691039Y-49728096D01*
X35469000Y-49850085D01*
X35469000Y-50993000D01*
X35489000Y-50993000D01*
X35489000Y-51247000D01*
X35469000Y-51247000D01*
X35469000Y-52389915D01*
X35691039Y-52511904D01*
X35825087Y-52471246D01*
X36079420Y-52351037D01*
X36305414Y-52183519D01*
X36494385Y-51975131D01*
X36605933Y-51789135D01*
X36610320Y-51799727D01*
X36767363Y-52034759D01*
X36967241Y-52234637D01*
X37202273Y-52391680D01*
X37463426Y-52499853D01*
X37740665Y-52555000D01*
X38023335Y-52555000D01*
X38300574Y-52499853D01*
X38561727Y-52391680D01*
X38796759Y-52234637D01*
X38996637Y-52034759D01*
X39152000Y-51802241D01*
X39307363Y-52034759D01*
X39432551Y-52159947D01*
X36245603Y-55346896D01*
X36227000Y-55362163D01*
X36227000Y-54602565D01*
X36231281Y-54559099D01*
X36227000Y-54515633D01*
X36227000Y-54515623D01*
X36214195Y-54385610D01*
X36163589Y-54218787D01*
X36081411Y-54065041D01*
X36025559Y-53996986D01*
X35998532Y-53964053D01*
X35998530Y-53964051D01*
X35970817Y-53930283D01*
X35937049Y-53902570D01*
X34975300Y-52940822D01*
X34975300Y-52506547D01*
X34992961Y-52511904D01*
X35215000Y-52389915D01*
X35215000Y-51247000D01*
X35195000Y-51247000D01*
X35195000Y-50993000D01*
X35215000Y-50993000D01*
X35215000Y-49850085D01*
X34992961Y-49728096D01*
X34975300Y-49733453D01*
X34975300Y-38028095D01*
X35108913Y-38091246D01*
X35242961Y-38131904D01*
X35465000Y-38009915D01*
X35465000Y-36867000D01*
X35445000Y-36867000D01*
X35445000Y-36613000D01*
X35465000Y-36613000D01*
X35465000Y-35470085D01*
X35719000Y-35470085D01*
X35719000Y-36613000D01*
X35739000Y-36613000D01*
X35739000Y-36867000D01*
X35719000Y-36867000D01*
X35719000Y-38009915D01*
X35941039Y-38131904D01*
X36075087Y-38091246D01*
X36329420Y-37971037D01*
X36555414Y-37803519D01*
X36744385Y-37595131D01*
X36855933Y-37409135D01*
X36860320Y-37419727D01*
X37017363Y-37654759D01*
X37217241Y-37854637D01*
X37452273Y-38011680D01*
X37713426Y-38119853D01*
X37990665Y-38175000D01*
X38273335Y-38175000D01*
X38550574Y-38119853D01*
X38811727Y-38011680D01*
X39046759Y-37854637D01*
X39246637Y-37654759D01*
X39402000Y-37422241D01*
X39557363Y-37654759D01*
X39757241Y-37854637D01*
X39992273Y-38011680D01*
X40253426Y-38119853D01*
X40530665Y-38175000D01*
X40813335Y-38175000D01*
X41090574Y-38119853D01*
X41351727Y-38011680D01*
X41586759Y-37854637D01*
X41786637Y-37654759D01*
X41942000Y-37422241D01*
X42097363Y-37654759D01*
X42297241Y-37854637D01*
X42532273Y-38011680D01*
X42793426Y-38119853D01*
X43070665Y-38175000D01*
X43353335Y-38175000D01*
X43630574Y-38119853D01*
X43891727Y-38011680D01*
X44126759Y-37854637D01*
X44326637Y-37654759D01*
X44482000Y-37422241D01*
X44637363Y-37654759D01*
X44837241Y-37854637D01*
X45072273Y-38011680D01*
X45333426Y-38119853D01*
X45610665Y-38175000D01*
X45893335Y-38175000D01*
X46170574Y-38119853D01*
X46431727Y-38011680D01*
X46666759Y-37854637D01*
X46866637Y-37654759D01*
X47022000Y-37422241D01*
X47177363Y-37654759D01*
X47377241Y-37854637D01*
X47612273Y-38011680D01*
X47873426Y-38119853D01*
X48150665Y-38175000D01*
X48433335Y-38175000D01*
X48710574Y-38119853D01*
X48971727Y-38011680D01*
X49206759Y-37854637D01*
X49406637Y-37654759D01*
X49562000Y-37422241D01*
X49717363Y-37654759D01*
X49917241Y-37854637D01*
X50152273Y-38011680D01*
X50413426Y-38119853D01*
X50690665Y-38175000D01*
X50973335Y-38175000D01*
X51250574Y-38119853D01*
X51511727Y-38011680D01*
X51746759Y-37854637D01*
X51946637Y-37654759D01*
X52102000Y-37422241D01*
X52257363Y-37654759D01*
X52457241Y-37854637D01*
X52692273Y-38011680D01*
X52953426Y-38119853D01*
X53230665Y-38175000D01*
X53513335Y-38175000D01*
X53790574Y-38119853D01*
X54051727Y-38011680D01*
X54286759Y-37854637D01*
X54486637Y-37654759D01*
X54642000Y-37422241D01*
X54797363Y-37654759D01*
X54997241Y-37854637D01*
X55232273Y-38011680D01*
X55493426Y-38119853D01*
X55770665Y-38175000D01*
X56053335Y-38175000D01*
X56330574Y-38119853D01*
X56591727Y-38011680D01*
X56826759Y-37854637D01*
X57026637Y-37654759D01*
X57183680Y-37419727D01*
X57291853Y-37158574D01*
X57347000Y-36881335D01*
X57347000Y-36598665D01*
X57291853Y-36321426D01*
X57183680Y-36060273D01*
X57026637Y-35825241D01*
X56826759Y-35625363D01*
X56591727Y-35468320D01*
X56330574Y-35360147D01*
X56053335Y-35305000D01*
X55770665Y-35305000D01*
X55493426Y-35360147D01*
X55232273Y-35468320D01*
X54997241Y-35625363D01*
X54797363Y-35825241D01*
X54642000Y-36057759D01*
X54486637Y-35825241D01*
X54286759Y-35625363D01*
X54051727Y-35468320D01*
X53790574Y-35360147D01*
X53513335Y-35305000D01*
X53230665Y-35305000D01*
X52953426Y-35360147D01*
X52692273Y-35468320D01*
X52457241Y-35625363D01*
X52257363Y-35825241D01*
X52102000Y-36057759D01*
X51946637Y-35825241D01*
X51746759Y-35625363D01*
X51511727Y-35468320D01*
X51250574Y-35360147D01*
X50973335Y-35305000D01*
X50690665Y-35305000D01*
X50413426Y-35360147D01*
X50152273Y-35468320D01*
X49917241Y-35625363D01*
X49717363Y-35825241D01*
X49562000Y-36057759D01*
X49406637Y-35825241D01*
X49206759Y-35625363D01*
X48971727Y-35468320D01*
X48710574Y-35360147D01*
X48433335Y-35305000D01*
X48150665Y-35305000D01*
X47873426Y-35360147D01*
X47612273Y-35468320D01*
X47377241Y-35625363D01*
X47177363Y-35825241D01*
X47022000Y-36057759D01*
X46866637Y-35825241D01*
X46666759Y-35625363D01*
X46431727Y-35468320D01*
X46170574Y-35360147D01*
X45893335Y-35305000D01*
X45610665Y-35305000D01*
X45333426Y-35360147D01*
X45072273Y-35468320D01*
X44837241Y-35625363D01*
X44637363Y-35825241D01*
X44482000Y-36057759D01*
X44326637Y-35825241D01*
X44126759Y-35625363D01*
X43891727Y-35468320D01*
X43630574Y-35360147D01*
X43353335Y-35305000D01*
X43070665Y-35305000D01*
X42793426Y-35360147D01*
X42532273Y-35468320D01*
X42297241Y-35625363D01*
X42097363Y-35825241D01*
X41942000Y-36057759D01*
X41786637Y-35825241D01*
X41586759Y-35625363D01*
X41351727Y-35468320D01*
X41090574Y-35360147D01*
X40813335Y-35305000D01*
X40530665Y-35305000D01*
X40253426Y-35360147D01*
X39992273Y-35468320D01*
X39757241Y-35625363D01*
X39557363Y-35825241D01*
X39402000Y-36057759D01*
X39246637Y-35825241D01*
X39046759Y-35625363D01*
X38811727Y-35468320D01*
X38550574Y-35360147D01*
X38273335Y-35305000D01*
X37990665Y-35305000D01*
X37713426Y-35360147D01*
X37452273Y-35468320D01*
X37217241Y-35625363D01*
X37017363Y-35825241D01*
X36860320Y-36060273D01*
X36855933Y-36070865D01*
X36744385Y-35884869D01*
X36555414Y-35676481D01*
X36329420Y-35508963D01*
X36075087Y-35388754D01*
X35941039Y-35348096D01*
X35719000Y-35470085D01*
X35465000Y-35470085D01*
X35242961Y-35348096D01*
X35108913Y-35388754D01*
X34975300Y-35451905D01*
X34975300Y-32238578D01*
X36187049Y-31026830D01*
X36220817Y-30999117D01*
X36260351Y-30950946D01*
X36331411Y-30864359D01*
X36413589Y-30710614D01*
X36464195Y-30543790D01*
X36470379Y-30480997D01*
X36477000Y-30413777D01*
X36477000Y-30413769D01*
X36481281Y-30370300D01*
X36477000Y-30326831D01*
X36477000Y-30254521D01*
X36506759Y-30234637D01*
X36521497Y-30219899D01*
X38499701Y-32198103D01*
G37*
X38499701Y-32198103D02*
X38523499Y-32227101D01*
X38639224Y-32322074D01*
X38771253Y-32392646D01*
X38914514Y-32436103D01*
X39026167Y-32447100D01*
X39026176Y-32447100D01*
X39063499Y-32450776D01*
X39100822Y-32447100D01*
X64265378Y-32447100D01*
X64302700Y-32450776D01*
X64340022Y-32447100D01*
X64340033Y-32447100D01*
X64451686Y-32436103D01*
X64594947Y-32392646D01*
X64724317Y-32323495D01*
X64768320Y-32429727D01*
X64925363Y-32664759D01*
X65125241Y-32864637D01*
X65357759Y-33020000D01*
X65125241Y-33175363D01*
X64925363Y-33375241D01*
X64768320Y-33610273D01*
X64660147Y-33871426D01*
X64605000Y-34148665D01*
X64605000Y-34431335D01*
X64660147Y-34708574D01*
X64698017Y-34800000D01*
X64580522Y-34800000D01*
X64543199Y-34796324D01*
X64505876Y-34800000D01*
X64505867Y-34800000D01*
X64394214Y-34810997D01*
X64250953Y-34854454D01*
X64118924Y-34925026D01*
X64003199Y-35019999D01*
X63979401Y-35048997D01*
X48989897Y-50038501D01*
X48956759Y-50005363D01*
X48721727Y-49848320D01*
X48460574Y-49740147D01*
X48183335Y-49685000D01*
X47900665Y-49685000D01*
X47623426Y-49740147D01*
X47362273Y-49848320D01*
X47127241Y-50005363D01*
X46927363Y-50205241D01*
X46772000Y-50437759D01*
X46616637Y-50205241D01*
X46416759Y-50005363D01*
X46181727Y-49848320D01*
X45920574Y-49740147D01*
X45643335Y-49685000D01*
X45360665Y-49685000D01*
X45083426Y-49740147D01*
X44822273Y-49848320D01*
X44587241Y-50005363D01*
X44387363Y-50205241D01*
X44232000Y-50437759D01*
X44076637Y-50205241D01*
X43876759Y-50005363D01*
X43641727Y-49848320D01*
X43380574Y-49740147D01*
X43103335Y-49685000D01*
X42820665Y-49685000D01*
X42543426Y-49740147D01*
X42282273Y-49848320D01*
X42047241Y-50005363D01*
X41847363Y-50205241D01*
X41692000Y-50437759D01*
X41536637Y-50205241D01*
X41336759Y-50005363D01*
X41101727Y-49848320D01*
X40840574Y-49740147D01*
X40563335Y-49685000D01*
X40280665Y-49685000D01*
X40003426Y-49740147D01*
X39742273Y-49848320D01*
X39507241Y-50005363D01*
X39307363Y-50205241D01*
X39152000Y-50437759D01*
X38996637Y-50205241D01*
X38796759Y-50005363D01*
X38561727Y-49848320D01*
X38300574Y-49740147D01*
X38023335Y-49685000D01*
X37740665Y-49685000D01*
X37463426Y-49740147D01*
X37202273Y-49848320D01*
X36967241Y-50005363D01*
X36767363Y-50205241D01*
X36610320Y-50440273D01*
X36605933Y-50450865D01*
X36494385Y-50264869D01*
X36305414Y-50056481D01*
X36079420Y-49888963D01*
X35825087Y-49768754D01*
X35691039Y-49728096D01*
X35469000Y-49850085D01*
X35469000Y-50993000D01*
X35489000Y-50993000D01*
X35489000Y-51247000D01*
X35469000Y-51247000D01*
X35469000Y-52389915D01*
X35691039Y-52511904D01*
X35825087Y-52471246D01*
X36079420Y-52351037D01*
X36305414Y-52183519D01*
X36494385Y-51975131D01*
X36605933Y-51789135D01*
X36610320Y-51799727D01*
X36767363Y-52034759D01*
X36967241Y-52234637D01*
X37202273Y-52391680D01*
X37463426Y-52499853D01*
X37740665Y-52555000D01*
X38023335Y-52555000D01*
X38300574Y-52499853D01*
X38561727Y-52391680D01*
X38796759Y-52234637D01*
X38996637Y-52034759D01*
X39152000Y-51802241D01*
X39307363Y-52034759D01*
X39432551Y-52159947D01*
X36245603Y-55346896D01*
X36227000Y-55362163D01*
X36227000Y-54602565D01*
X36231281Y-54559099D01*
X36227000Y-54515633D01*
X36227000Y-54515623D01*
X36214195Y-54385610D01*
X36163589Y-54218787D01*
X36081411Y-54065041D01*
X36025559Y-53996986D01*
X35998532Y-53964053D01*
X35998530Y-53964051D01*
X35970817Y-53930283D01*
X35937049Y-53902570D01*
X34975300Y-52940822D01*
X34975300Y-52506547D01*
X34992961Y-52511904D01*
X35215000Y-52389915D01*
X35215000Y-51247000D01*
X35195000Y-51247000D01*
X35195000Y-50993000D01*
X35215000Y-50993000D01*
X35215000Y-49850085D01*
X34992961Y-49728096D01*
X34975300Y-49733453D01*
X34975300Y-38028095D01*
X35108913Y-38091246D01*
X35242961Y-38131904D01*
X35465000Y-38009915D01*
X35465000Y-36867000D01*
X35445000Y-36867000D01*
X35445000Y-36613000D01*
X35465000Y-36613000D01*
X35465000Y-35470085D01*
X35719000Y-35470085D01*
X35719000Y-36613000D01*
X35739000Y-36613000D01*
X35739000Y-36867000D01*
X35719000Y-36867000D01*
X35719000Y-38009915D01*
X35941039Y-38131904D01*
X36075087Y-38091246D01*
X36329420Y-37971037D01*
X36555414Y-37803519D01*
X36744385Y-37595131D01*
X36855933Y-37409135D01*
X36860320Y-37419727D01*
X37017363Y-37654759D01*
X37217241Y-37854637D01*
X37452273Y-38011680D01*
X37713426Y-38119853D01*
X37990665Y-38175000D01*
X38273335Y-38175000D01*
X38550574Y-38119853D01*
X38811727Y-38011680D01*
X39046759Y-37854637D01*
X39246637Y-37654759D01*
X39402000Y-37422241D01*
X39557363Y-37654759D01*
X39757241Y-37854637D01*
X39992273Y-38011680D01*
X40253426Y-38119853D01*
X40530665Y-38175000D01*
X40813335Y-38175000D01*
X41090574Y-38119853D01*
X41351727Y-38011680D01*
X41586759Y-37854637D01*
X41786637Y-37654759D01*
X41942000Y-37422241D01*
X42097363Y-37654759D01*
X42297241Y-37854637D01*
X42532273Y-38011680D01*
X42793426Y-38119853D01*
X43070665Y-38175000D01*
X43353335Y-38175000D01*
X43630574Y-38119853D01*
X43891727Y-38011680D01*
X44126759Y-37854637D01*
X44326637Y-37654759D01*
X44482000Y-37422241D01*
X44637363Y-37654759D01*
X44837241Y-37854637D01*
X45072273Y-38011680D01*
X45333426Y-38119853D01*
X45610665Y-38175000D01*
X45893335Y-38175000D01*
X46170574Y-38119853D01*
X46431727Y-38011680D01*
X46666759Y-37854637D01*
X46866637Y-37654759D01*
X47022000Y-37422241D01*
X47177363Y-37654759D01*
X47377241Y-37854637D01*
X47612273Y-38011680D01*
X47873426Y-38119853D01*
X48150665Y-38175000D01*
X48433335Y-38175000D01*
X48710574Y-38119853D01*
X48971727Y-38011680D01*
X49206759Y-37854637D01*
X49406637Y-37654759D01*
X49562000Y-37422241D01*
X49717363Y-37654759D01*
X49917241Y-37854637D01*
X50152273Y-38011680D01*
X50413426Y-38119853D01*
X50690665Y-38175000D01*
X50973335Y-38175000D01*
X51250574Y-38119853D01*
X51511727Y-38011680D01*
X51746759Y-37854637D01*
X51946637Y-37654759D01*
X52102000Y-37422241D01*
X52257363Y-37654759D01*
X52457241Y-37854637D01*
X52692273Y-38011680D01*
X52953426Y-38119853D01*
X53230665Y-38175000D01*
X53513335Y-38175000D01*
X53790574Y-38119853D01*
X54051727Y-38011680D01*
X54286759Y-37854637D01*
X54486637Y-37654759D01*
X54642000Y-37422241D01*
X54797363Y-37654759D01*
X54997241Y-37854637D01*
X55232273Y-38011680D01*
X55493426Y-38119853D01*
X55770665Y-38175000D01*
X56053335Y-38175000D01*
X56330574Y-38119853D01*
X56591727Y-38011680D01*
X56826759Y-37854637D01*
X57026637Y-37654759D01*
X57183680Y-37419727D01*
X57291853Y-37158574D01*
X57347000Y-36881335D01*
X57347000Y-36598665D01*
X57291853Y-36321426D01*
X57183680Y-36060273D01*
X57026637Y-35825241D01*
X56826759Y-35625363D01*
X56591727Y-35468320D01*
X56330574Y-35360147D01*
X56053335Y-35305000D01*
X55770665Y-35305000D01*
X55493426Y-35360147D01*
X55232273Y-35468320D01*
X54997241Y-35625363D01*
X54797363Y-35825241D01*
X54642000Y-36057759D01*
X54486637Y-35825241D01*
X54286759Y-35625363D01*
X54051727Y-35468320D01*
X53790574Y-35360147D01*
X53513335Y-35305000D01*
X53230665Y-35305000D01*
X52953426Y-35360147D01*
X52692273Y-35468320D01*
X52457241Y-35625363D01*
X52257363Y-35825241D01*
X52102000Y-36057759D01*
X51946637Y-35825241D01*
X51746759Y-35625363D01*
X51511727Y-35468320D01*
X51250574Y-35360147D01*
X50973335Y-35305000D01*
X50690665Y-35305000D01*
X50413426Y-35360147D01*
X50152273Y-35468320D01*
X49917241Y-35625363D01*
X49717363Y-35825241D01*
X49562000Y-36057759D01*
X49406637Y-35825241D01*
X49206759Y-35625363D01*
X48971727Y-35468320D01*
X48710574Y-35360147D01*
X48433335Y-35305000D01*
X48150665Y-35305000D01*
X47873426Y-35360147D01*
X47612273Y-35468320D01*
X47377241Y-35625363D01*
X47177363Y-35825241D01*
X47022000Y-36057759D01*
X46866637Y-35825241D01*
X46666759Y-35625363D01*
X46431727Y-35468320D01*
X46170574Y-35360147D01*
X45893335Y-35305000D01*
X45610665Y-35305000D01*
X45333426Y-35360147D01*
X45072273Y-35468320D01*
X44837241Y-35625363D01*
X44637363Y-35825241D01*
X44482000Y-36057759D01*
X44326637Y-35825241D01*
X44126759Y-35625363D01*
X43891727Y-35468320D01*
X43630574Y-35360147D01*
X43353335Y-35305000D01*
X43070665Y-35305000D01*
X42793426Y-35360147D01*
X42532273Y-35468320D01*
X42297241Y-35625363D01*
X42097363Y-35825241D01*
X41942000Y-36057759D01*
X41786637Y-35825241D01*
X41586759Y-35625363D01*
X41351727Y-35468320D01*
X41090574Y-35360147D01*
X40813335Y-35305000D01*
X40530665Y-35305000D01*
X40253426Y-35360147D01*
X39992273Y-35468320D01*
X39757241Y-35625363D01*
X39557363Y-35825241D01*
X39402000Y-36057759D01*
X39246637Y-35825241D01*
X39046759Y-35625363D01*
X38811727Y-35468320D01*
X38550574Y-35360147D01*
X38273335Y-35305000D01*
X37990665Y-35305000D01*
X37713426Y-35360147D01*
X37452273Y-35468320D01*
X37217241Y-35625363D01*
X37017363Y-35825241D01*
X36860320Y-36060273D01*
X36855933Y-36070865D01*
X36744385Y-35884869D01*
X36555414Y-35676481D01*
X36329420Y-35508963D01*
X36075087Y-35388754D01*
X35941039Y-35348096D01*
X35719000Y-35470085D01*
X35465000Y-35470085D01*
X35242961Y-35348096D01*
X35108913Y-35388754D01*
X34975300Y-35451905D01*
X34975300Y-32238578D01*
X36187049Y-31026830D01*
X36220817Y-30999117D01*
X36260351Y-30950946D01*
X36331411Y-30864359D01*
X36413589Y-30710614D01*
X36464195Y-30543790D01*
X36470379Y-30480997D01*
X36477000Y-30413777D01*
X36477000Y-30413769D01*
X36481281Y-30370300D01*
X36477000Y-30326831D01*
X36477000Y-30254521D01*
X36506759Y-30234637D01*
X36521497Y-30219899D01*
X38499701Y-32198103D01*
G36*
X92017042Y-34438974D02*
G01*
X92138183Y-34671000D01*
X93345000Y-34671000D01*
X93345000Y-34651000D01*
X93599000Y-34651000D01*
X93599000Y-34671000D01*
X95885000Y-34671000D01*
X95885000Y-34651000D01*
X96139000Y-34651000D01*
X96139000Y-34671000D01*
X96159000Y-34671000D01*
X96159000Y-34925000D01*
X96139000Y-34925000D01*
X96139000Y-34945000D01*
X95885000Y-34945000D01*
X95885000Y-34925000D01*
X93599000Y-34925000D01*
X93599000Y-34945000D01*
X93345000Y-34945000D01*
X93345000Y-34925000D01*
X92138183Y-34925000D01*
X92017042Y-35157026D01*
X92062778Y-35307814D01*
X92076449Y-35336459D01*
X91990753Y-35362454D01*
X91858724Y-35433026D01*
X91742999Y-35527999D01*
X91719201Y-35556997D01*
X75095000Y-52181198D01*
X75095000Y-51928665D01*
X75039853Y-51651426D01*
X74931680Y-51390273D01*
X74774637Y-51155241D01*
X74574759Y-50955363D01*
X74342241Y-50800000D01*
X74574759Y-50644637D01*
X74774637Y-50444759D01*
X74931680Y-50209727D01*
X75039853Y-49948574D01*
X75095000Y-49671335D01*
X75095000Y-49388665D01*
X75039853Y-49111426D01*
X74931680Y-48850273D01*
X74774637Y-48615241D01*
X74574759Y-48415363D01*
X74342241Y-48260000D01*
X74574759Y-48104637D01*
X74774637Y-47904759D01*
X74931680Y-47669727D01*
X75039853Y-47408574D01*
X75095000Y-47131335D01*
X75095000Y-46848665D01*
X75039853Y-46571426D01*
X74931680Y-46310273D01*
X74774637Y-46075241D01*
X74574759Y-45875363D01*
X74342241Y-45720000D01*
X74574759Y-45564637D01*
X74774637Y-45364759D01*
X74881947Y-45204158D01*
X74934286Y-45199003D01*
X75077547Y-45155546D01*
X75209576Y-45084974D01*
X75325301Y-44990001D01*
X75349104Y-44960997D01*
X85956803Y-34353300D01*
X92043028Y-34353300D01*
X92017042Y-34438974D01*
G37*
X92017042Y-34438974D02*
X92138183Y-34671000D01*
X93345000Y-34671000D01*
X93345000Y-34651000D01*
X93599000Y-34651000D01*
X93599000Y-34671000D01*
X95885000Y-34671000D01*
X95885000Y-34651000D01*
X96139000Y-34651000D01*
X96139000Y-34671000D01*
X96159000Y-34671000D01*
X96159000Y-34925000D01*
X96139000Y-34925000D01*
X96139000Y-34945000D01*
X95885000Y-34945000D01*
X95885000Y-34925000D01*
X93599000Y-34925000D01*
X93599000Y-34945000D01*
X93345000Y-34945000D01*
X93345000Y-34925000D01*
X92138183Y-34925000D01*
X92017042Y-35157026D01*
X92062778Y-35307814D01*
X92076449Y-35336459D01*
X91990753Y-35362454D01*
X91858724Y-35433026D01*
X91742999Y-35527999D01*
X91719201Y-35556997D01*
X75095000Y-52181198D01*
X75095000Y-51928665D01*
X75039853Y-51651426D01*
X74931680Y-51390273D01*
X74774637Y-51155241D01*
X74574759Y-50955363D01*
X74342241Y-50800000D01*
X74574759Y-50644637D01*
X74774637Y-50444759D01*
X74931680Y-50209727D01*
X75039853Y-49948574D01*
X75095000Y-49671335D01*
X75095000Y-49388665D01*
X75039853Y-49111426D01*
X74931680Y-48850273D01*
X74774637Y-48615241D01*
X74574759Y-48415363D01*
X74342241Y-48260000D01*
X74574759Y-48104637D01*
X74774637Y-47904759D01*
X74931680Y-47669727D01*
X75039853Y-47408574D01*
X75095000Y-47131335D01*
X75095000Y-46848665D01*
X75039853Y-46571426D01*
X74931680Y-46310273D01*
X74774637Y-46075241D01*
X74574759Y-45875363D01*
X74342241Y-45720000D01*
X74574759Y-45564637D01*
X74774637Y-45364759D01*
X74881947Y-45204158D01*
X74934286Y-45199003D01*
X75077547Y-45155546D01*
X75209576Y-45084974D01*
X75325301Y-44990001D01*
X75349104Y-44960997D01*
X85956803Y-34353300D01*
X92043028Y-34353300D01*
X92017042Y-34438974D01*
G36*
X64688754Y-41426913D02*
G01*
X64648096Y-41560961D01*
X64770085Y-41783000D01*
X65913000Y-41783000D01*
X65913000Y-41763000D01*
X66167000Y-41763000D01*
X66167000Y-41783000D01*
X66187000Y-41783000D01*
X66187000Y-42037000D01*
X66167000Y-42037000D01*
X66167000Y-42057000D01*
X65913000Y-42057000D01*
X65913000Y-42037000D01*
X64770085Y-42037000D01*
X64648096Y-42259039D01*
X64688754Y-42393087D01*
X64700963Y-42418918D01*
X64689975Y-42420000D01*
X64689967Y-42420000D01*
X64578314Y-42430997D01*
X64435053Y-42474454D01*
X64303024Y-42545026D01*
X64187299Y-42639999D01*
X64163501Y-42668997D01*
X56935948Y-49896551D01*
X56913185Y-49868815D01*
X56816494Y-49789463D01*
X56706180Y-49730498D01*
X56586482Y-49694188D01*
X56462000Y-49681928D01*
X56056873Y-49681928D01*
X64338802Y-41400000D01*
X64701474Y-41400000D01*
X64688754Y-41426913D01*
G37*
X64688754Y-41426913D02*
X64648096Y-41560961D01*
X64770085Y-41783000D01*
X65913000Y-41783000D01*
X65913000Y-41763000D01*
X66167000Y-41763000D01*
X66167000Y-41783000D01*
X66187000Y-41783000D01*
X66187000Y-42037000D01*
X66167000Y-42037000D01*
X66167000Y-42057000D01*
X65913000Y-42057000D01*
X65913000Y-42037000D01*
X64770085Y-42037000D01*
X64648096Y-42259039D01*
X64688754Y-42393087D01*
X64700963Y-42418918D01*
X64689975Y-42420000D01*
X64689967Y-42420000D01*
X64578314Y-42430997D01*
X64435053Y-42474454D01*
X64303024Y-42545026D01*
X64187299Y-42639999D01*
X64163501Y-42668997D01*
X56935948Y-49896551D01*
X56913185Y-49868815D01*
X56816494Y-49789463D01*
X56706180Y-49730498D01*
X56586482Y-49694188D01*
X56462000Y-49681928D01*
X56056873Y-49681928D01*
X64338802Y-41400000D01*
X64701474Y-41400000D01*
X64688754Y-41426913D01*
M02*
