G04 #@! TF.GenerationSoftware,KiCad,Pcbnew,(5.1.5-0-10_14)*
G04 #@! TF.CreationDate,2020-06-29T21:31:51+02:00*
G04 #@! TF.ProjectId,BROSE_LAWO_Adapter,42524f53-455f-44c4-9157-4f5f41646170,rev?*
G04 #@! TF.SameCoordinates,Original*
G04 #@! TF.FileFunction,Legend,Top*
G04 #@! TF.FilePolarity,Positive*
%FSLAX46Y46*%
G04 Gerber Fmt 4.6, Leading zero omitted, Abs format (unit mm)*
G04 Created by KiCad (PCBNEW (5.1.5-0-10_14)) date 2020-06-29 21:31:51*
%MOMM*%
%LPD*%
G04 APERTURE LIST*
%ADD10C,0.150000*%
%ADD11C,0.120000*%
G04 APERTURE END LIST*
D10*
X36775523Y-38822380D02*
X36775523Y-39631904D01*
X36823142Y-39727142D01*
X36870761Y-39774761D01*
X36965999Y-39822380D01*
X37156476Y-39822380D01*
X37251714Y-39774761D01*
X37299333Y-39727142D01*
X37346952Y-39631904D01*
X37346952Y-38822380D01*
X37823142Y-39822380D02*
X37823142Y-38822380D01*
X38061238Y-38822380D01*
X38204095Y-38870000D01*
X38299333Y-38965238D01*
X38346952Y-39060476D01*
X38394571Y-39250952D01*
X38394571Y-39393809D01*
X38346952Y-39584285D01*
X38299333Y-39679523D01*
X38204095Y-39774761D01*
X38061238Y-39822380D01*
X37823142Y-39822380D01*
X38823142Y-39822380D02*
X38823142Y-38822380D01*
X39394571Y-39822380D01*
X39394571Y-38822380D01*
X39823142Y-38917619D02*
X39870761Y-38870000D01*
X39965999Y-38822380D01*
X40204095Y-38822380D01*
X40299333Y-38870000D01*
X40346952Y-38917619D01*
X40394571Y-39012857D01*
X40394571Y-39108095D01*
X40346952Y-39250952D01*
X39775523Y-39822380D01*
X40394571Y-39822380D01*
X40870761Y-39822380D02*
X41061238Y-39822380D01*
X41156476Y-39774761D01*
X41204095Y-39727142D01*
X41299333Y-39584285D01*
X41346952Y-39393809D01*
X41346952Y-39012857D01*
X41299333Y-38917619D01*
X41251714Y-38870000D01*
X41156476Y-38822380D01*
X40965999Y-38822380D01*
X40870761Y-38870000D01*
X40823142Y-38917619D01*
X40775523Y-39012857D01*
X40775523Y-39250952D01*
X40823142Y-39346190D01*
X40870761Y-39393809D01*
X40965999Y-39441428D01*
X41156476Y-39441428D01*
X41251714Y-39393809D01*
X41299333Y-39346190D01*
X41346952Y-39250952D01*
X41918380Y-39250952D02*
X41823142Y-39203333D01*
X41775523Y-39155714D01*
X41727904Y-39060476D01*
X41727904Y-39012857D01*
X41775523Y-38917619D01*
X41823142Y-38870000D01*
X41918380Y-38822380D01*
X42108857Y-38822380D01*
X42204095Y-38870000D01*
X42251714Y-38917619D01*
X42299333Y-39012857D01*
X42299333Y-39060476D01*
X42251714Y-39155714D01*
X42204095Y-39203333D01*
X42108857Y-39250952D01*
X41918380Y-39250952D01*
X41823142Y-39298571D01*
X41775523Y-39346190D01*
X41727904Y-39441428D01*
X41727904Y-39631904D01*
X41775523Y-39727142D01*
X41823142Y-39774761D01*
X41918380Y-39822380D01*
X42108857Y-39822380D01*
X42204095Y-39774761D01*
X42251714Y-39727142D01*
X42299333Y-39631904D01*
X42299333Y-39441428D01*
X42251714Y-39346190D01*
X42204095Y-39298571D01*
X42108857Y-39250952D01*
X43251714Y-39822380D02*
X42680285Y-39822380D01*
X42965999Y-39822380D02*
X42965999Y-38822380D01*
X42870761Y-38965238D01*
X42775523Y-39060476D01*
X42680285Y-39108095D01*
X43632666Y-39536666D02*
X44108857Y-39536666D01*
X43537428Y-39822380D02*
X43870761Y-38822380D01*
X44204095Y-39822380D01*
X46013619Y-38774761D02*
X45156476Y-40060476D01*
X46965999Y-38822380D02*
X47537428Y-38822380D01*
X47251714Y-39822380D02*
X47251714Y-38822380D01*
X48204095Y-39298571D02*
X48346952Y-39346190D01*
X48394571Y-39393809D01*
X48442190Y-39489047D01*
X48442190Y-39631904D01*
X48394571Y-39727142D01*
X48346952Y-39774761D01*
X48251714Y-39822380D01*
X47870761Y-39822380D01*
X47870761Y-38822380D01*
X48204095Y-38822380D01*
X48299333Y-38870000D01*
X48346952Y-38917619D01*
X48394571Y-39012857D01*
X48394571Y-39108095D01*
X48346952Y-39203333D01*
X48299333Y-39250952D01*
X48204095Y-39298571D01*
X47870761Y-39298571D01*
X48870761Y-39822380D02*
X48870761Y-38822380D01*
X49108857Y-38822380D01*
X49251714Y-38870000D01*
X49346952Y-38965238D01*
X49394571Y-39060476D01*
X49442190Y-39250952D01*
X49442190Y-39393809D01*
X49394571Y-39584285D01*
X49346952Y-39679523D01*
X49251714Y-39774761D01*
X49108857Y-39822380D01*
X48870761Y-39822380D01*
X50299333Y-38822380D02*
X50108857Y-38822380D01*
X50013619Y-38870000D01*
X49965999Y-38917619D01*
X49870761Y-39060476D01*
X49823142Y-39250952D01*
X49823142Y-39631904D01*
X49870761Y-39727142D01*
X49918380Y-39774761D01*
X50013619Y-39822380D01*
X50204095Y-39822380D01*
X50299333Y-39774761D01*
X50346952Y-39727142D01*
X50394571Y-39631904D01*
X50394571Y-39393809D01*
X50346952Y-39298571D01*
X50299333Y-39250952D01*
X50204095Y-39203333D01*
X50013619Y-39203333D01*
X49918380Y-39250952D01*
X49870761Y-39298571D01*
X49823142Y-39393809D01*
X50775523Y-38917619D02*
X50823142Y-38870000D01*
X50918380Y-38822380D01*
X51156476Y-38822380D01*
X51251714Y-38870000D01*
X51299333Y-38917619D01*
X51346952Y-39012857D01*
X51346952Y-39108095D01*
X51299333Y-39250952D01*
X50727904Y-39822380D01*
X51346952Y-39822380D01*
X51680285Y-38822380D02*
X52346952Y-38822380D01*
X51918380Y-39822380D01*
X52870761Y-39250952D02*
X52775523Y-39203333D01*
X52727904Y-39155714D01*
X52680285Y-39060476D01*
X52680285Y-39012857D01*
X52727904Y-38917619D01*
X52775523Y-38870000D01*
X52870761Y-38822380D01*
X53061238Y-38822380D01*
X53156476Y-38870000D01*
X53204095Y-38917619D01*
X53251714Y-39012857D01*
X53251714Y-39060476D01*
X53204095Y-39155714D01*
X53156476Y-39203333D01*
X53061238Y-39250952D01*
X52870761Y-39250952D01*
X52775523Y-39298571D01*
X52727904Y-39346190D01*
X52680285Y-39441428D01*
X52680285Y-39631904D01*
X52727904Y-39727142D01*
X52775523Y-39774761D01*
X52870761Y-39822380D01*
X53061238Y-39822380D01*
X53156476Y-39774761D01*
X53204095Y-39727142D01*
X53251714Y-39631904D01*
X53251714Y-39441428D01*
X53204095Y-39346190D01*
X53156476Y-39298571D01*
X53061238Y-39250952D01*
X53585047Y-38822380D02*
X54204095Y-38822380D01*
X53870761Y-39203333D01*
X54013619Y-39203333D01*
X54108857Y-39250952D01*
X54156476Y-39298571D01*
X54204095Y-39393809D01*
X54204095Y-39631904D01*
X54156476Y-39727142D01*
X54108857Y-39774761D01*
X54013619Y-39822380D01*
X53727904Y-39822380D01*
X53632666Y-39774761D01*
X53585047Y-39727142D01*
X41664380Y-60666380D02*
X41664380Y-61475904D01*
X41712000Y-61571142D01*
X41759619Y-61618761D01*
X41854857Y-61666380D01*
X42045333Y-61666380D01*
X42140571Y-61618761D01*
X42188190Y-61571142D01*
X42235809Y-61475904D01*
X42235809Y-60666380D01*
X43188190Y-61666380D02*
X42712000Y-61666380D01*
X42712000Y-60666380D01*
X43521523Y-61666380D02*
X43521523Y-60666380D01*
X44092952Y-61666380D01*
X44092952Y-60666380D01*
X44521523Y-60761619D02*
X44569142Y-60714000D01*
X44664380Y-60666380D01*
X44902476Y-60666380D01*
X44997714Y-60714000D01*
X45045333Y-60761619D01*
X45092952Y-60856857D01*
X45092952Y-60952095D01*
X45045333Y-61094952D01*
X44473904Y-61666380D01*
X45092952Y-61666380D01*
X45664380Y-61094952D02*
X45569142Y-61047333D01*
X45521523Y-60999714D01*
X45473904Y-60904476D01*
X45473904Y-60856857D01*
X45521523Y-60761619D01*
X45569142Y-60714000D01*
X45664380Y-60666380D01*
X45854857Y-60666380D01*
X45950095Y-60714000D01*
X45997714Y-60761619D01*
X46045333Y-60856857D01*
X46045333Y-60904476D01*
X45997714Y-60999714D01*
X45950095Y-61047333D01*
X45854857Y-61094952D01*
X45664380Y-61094952D01*
X45569142Y-61142571D01*
X45521523Y-61190190D01*
X45473904Y-61285428D01*
X45473904Y-61475904D01*
X45521523Y-61571142D01*
X45569142Y-61618761D01*
X45664380Y-61666380D01*
X45854857Y-61666380D01*
X45950095Y-61618761D01*
X45997714Y-61571142D01*
X46045333Y-61475904D01*
X46045333Y-61285428D01*
X45997714Y-61190190D01*
X45950095Y-61142571D01*
X45854857Y-61094952D01*
X46664380Y-60666380D02*
X46759619Y-60666380D01*
X46854857Y-60714000D01*
X46902476Y-60761619D01*
X46950095Y-60856857D01*
X46997714Y-61047333D01*
X46997714Y-61285428D01*
X46950095Y-61475904D01*
X46902476Y-61571142D01*
X46854857Y-61618761D01*
X46759619Y-61666380D01*
X46664380Y-61666380D01*
X46569142Y-61618761D01*
X46521523Y-61571142D01*
X46473904Y-61475904D01*
X46426285Y-61285428D01*
X46426285Y-61047333D01*
X46473904Y-60856857D01*
X46521523Y-60761619D01*
X46569142Y-60714000D01*
X46664380Y-60666380D01*
X47331047Y-60666380D02*
X47950095Y-60666380D01*
X47616761Y-61047333D01*
X47759619Y-61047333D01*
X47854857Y-61094952D01*
X47902476Y-61142571D01*
X47950095Y-61237809D01*
X47950095Y-61475904D01*
X47902476Y-61571142D01*
X47854857Y-61618761D01*
X47759619Y-61666380D01*
X47473904Y-61666380D01*
X47378666Y-61618761D01*
X47331047Y-61571142D01*
X48331047Y-61380666D02*
X48807238Y-61380666D01*
X48235809Y-61666380D02*
X48569142Y-60666380D01*
X48902476Y-61666380D01*
X41664380Y-82129380D02*
X41664380Y-82938904D01*
X41712000Y-83034142D01*
X41759619Y-83081761D01*
X41854857Y-83129380D01*
X42045333Y-83129380D01*
X42140571Y-83081761D01*
X42188190Y-83034142D01*
X42235809Y-82938904D01*
X42235809Y-82129380D01*
X43188190Y-83129380D02*
X42712000Y-83129380D01*
X42712000Y-82129380D01*
X43521523Y-83129380D02*
X43521523Y-82129380D01*
X44092952Y-83129380D01*
X44092952Y-82129380D01*
X44521523Y-82224619D02*
X44569142Y-82177000D01*
X44664380Y-82129380D01*
X44902476Y-82129380D01*
X44997714Y-82177000D01*
X45045333Y-82224619D01*
X45092952Y-82319857D01*
X45092952Y-82415095D01*
X45045333Y-82557952D01*
X44473904Y-83129380D01*
X45092952Y-83129380D01*
X45664380Y-82557952D02*
X45569142Y-82510333D01*
X45521523Y-82462714D01*
X45473904Y-82367476D01*
X45473904Y-82319857D01*
X45521523Y-82224619D01*
X45569142Y-82177000D01*
X45664380Y-82129380D01*
X45854857Y-82129380D01*
X45950095Y-82177000D01*
X45997714Y-82224619D01*
X46045333Y-82319857D01*
X46045333Y-82367476D01*
X45997714Y-82462714D01*
X45950095Y-82510333D01*
X45854857Y-82557952D01*
X45664380Y-82557952D01*
X45569142Y-82605571D01*
X45521523Y-82653190D01*
X45473904Y-82748428D01*
X45473904Y-82938904D01*
X45521523Y-83034142D01*
X45569142Y-83081761D01*
X45664380Y-83129380D01*
X45854857Y-83129380D01*
X45950095Y-83081761D01*
X45997714Y-83034142D01*
X46045333Y-82938904D01*
X46045333Y-82748428D01*
X45997714Y-82653190D01*
X45950095Y-82605571D01*
X45854857Y-82557952D01*
X46664380Y-82129380D02*
X46759619Y-82129380D01*
X46854857Y-82177000D01*
X46902476Y-82224619D01*
X46950095Y-82319857D01*
X46997714Y-82510333D01*
X46997714Y-82748428D01*
X46950095Y-82938904D01*
X46902476Y-83034142D01*
X46854857Y-83081761D01*
X46759619Y-83129380D01*
X46664380Y-83129380D01*
X46569142Y-83081761D01*
X46521523Y-83034142D01*
X46473904Y-82938904D01*
X46426285Y-82748428D01*
X46426285Y-82510333D01*
X46473904Y-82319857D01*
X46521523Y-82224619D01*
X46569142Y-82177000D01*
X46664380Y-82129380D01*
X47331047Y-82129380D02*
X47950095Y-82129380D01*
X47616761Y-82510333D01*
X47759619Y-82510333D01*
X47854857Y-82557952D01*
X47902476Y-82605571D01*
X47950095Y-82700809D01*
X47950095Y-82938904D01*
X47902476Y-83034142D01*
X47854857Y-83081761D01*
X47759619Y-83129380D01*
X47473904Y-83129380D01*
X47378666Y-83081761D01*
X47331047Y-83034142D01*
X48331047Y-82843666D02*
X48807238Y-82843666D01*
X48235809Y-83129380D02*
X48569142Y-82129380D01*
X48902476Y-83129380D01*
D11*
X53340000Y-90297000D02*
X80010000Y-90297000D01*
D10*
X80335523Y-90225571D02*
X80668857Y-90225571D01*
X80811714Y-90749380D02*
X80335523Y-90749380D01*
X80335523Y-89749380D01*
X80811714Y-89749380D01*
X81716476Y-89749380D02*
X81240285Y-89749380D01*
X81192666Y-90225571D01*
X81240285Y-90177952D01*
X81335523Y-90130333D01*
X81573619Y-90130333D01*
X81668857Y-90177952D01*
X81716476Y-90225571D01*
X81764095Y-90320809D01*
X81764095Y-90558904D01*
X81716476Y-90654142D01*
X81668857Y-90701761D01*
X81573619Y-90749380D01*
X81335523Y-90749380D01*
X81240285Y-90701761D01*
X81192666Y-90654142D01*
X51887523Y-90225571D02*
X52220857Y-90225571D01*
X52363714Y-90749380D02*
X51887523Y-90749380D01*
X51887523Y-89749380D01*
X52363714Y-89749380D01*
X53316095Y-90749380D02*
X52744666Y-90749380D01*
X53030380Y-90749380D02*
X53030380Y-89749380D01*
X52935142Y-89892238D01*
X52839904Y-89987476D01*
X52744666Y-90035095D01*
D11*
X31670000Y-105754000D02*
X31670000Y-94254000D01*
X46101000Y-105791000D02*
X31670000Y-105754000D01*
X46101000Y-94234000D02*
X46101000Y-105791000D01*
X31670000Y-94254000D02*
X46101000Y-94234000D01*
D10*
X44948428Y-98546857D02*
X44377000Y-98546857D01*
X44377000Y-97346857D01*
X44234142Y-103666857D02*
X44234142Y-102466857D01*
X44234142Y-103038285D02*
X44919857Y-103038285D01*
X44919857Y-103666857D02*
X44919857Y-102466857D01*
X110286000Y-18000000D02*
G75*
G03X110286000Y-18000000I-2286000J0D01*
G01*
X110286000Y-108000000D02*
G75*
G03X110286000Y-108000000I-2286000J0D01*
G01*
X20286000Y-108000000D02*
G75*
G03X20286000Y-108000000I-2286000J0D01*
G01*
X20286000Y-18000000D02*
G75*
G03X20286000Y-18000000I-2286000J0D01*
G01*
D11*
X101247000Y-63107000D02*
X103787000Y-63107000D01*
X101247000Y-63107000D02*
X101247000Y-65647000D01*
X101497000Y-63357000D02*
X110847000Y-63357000D01*
X101497000Y-96917000D02*
X101497000Y-63357000D01*
X110847000Y-96917000D02*
X101497000Y-96917000D01*
X110847000Y-63357000D02*
X110847000Y-96917000D01*
X86928000Y-64142000D02*
X76648000Y-64142000D01*
X86928000Y-84702000D02*
X86928000Y-64142000D01*
X76648000Y-84702000D02*
X86928000Y-84702000D01*
X76648000Y-64142000D02*
X76648000Y-84702000D01*
X84438000Y-64202000D02*
X82788000Y-64202000D01*
X84438000Y-84642000D02*
X84438000Y-64202000D01*
X79138000Y-84642000D02*
X84438000Y-84642000D01*
X79138000Y-64202000D02*
X79138000Y-84642000D01*
X80788000Y-64202000D02*
X79138000Y-64202000D01*
X82788000Y-64202000D02*
G75*
G02X80788000Y-64202000I-1000000J0D01*
G01*
X71942000Y-66936000D02*
X61662000Y-66936000D01*
X71942000Y-87496000D02*
X71942000Y-66936000D01*
X61662000Y-87496000D02*
X71942000Y-87496000D01*
X61662000Y-66936000D02*
X61662000Y-87496000D01*
X69452000Y-66996000D02*
X67802000Y-66996000D01*
X69452000Y-87436000D02*
X69452000Y-66996000D01*
X64152000Y-87436000D02*
X69452000Y-87436000D01*
X64152000Y-66996000D02*
X64152000Y-87436000D01*
X65802000Y-66996000D02*
X64152000Y-66996000D01*
X67802000Y-66996000D02*
G75*
G02X65802000Y-66996000I-1000000J0D01*
G01*
X74990000Y-17660000D02*
X64710000Y-17660000D01*
X74990000Y-53460000D02*
X74990000Y-17660000D01*
X64710000Y-53460000D02*
X74990000Y-53460000D01*
X64710000Y-17660000D02*
X64710000Y-53460000D01*
X72500000Y-17720000D02*
X70850000Y-17720000D01*
X72500000Y-53400000D02*
X72500000Y-17720000D01*
X67200000Y-53400000D02*
X72500000Y-53400000D01*
X67200000Y-17720000D02*
X67200000Y-53400000D01*
X68850000Y-17720000D02*
X67200000Y-17720000D01*
X70850000Y-17720000D02*
G75*
G02X68850000Y-17720000I-1000000J0D01*
G01*
X107367000Y-58967748D02*
X107367000Y-59490252D01*
X108787000Y-58967748D02*
X108787000Y-59490252D01*
X105231000Y-59490252D02*
X105231000Y-58967748D01*
X103811000Y-59490252D02*
X103811000Y-58967748D01*
X52590000Y-105999000D02*
X52590000Y-106619000D01*
X53510000Y-105079000D02*
G75*
G03X53510000Y-105079000I-920000J0D01*
G01*
X59840000Y-105999000D02*
X59840000Y-106619000D01*
X60760000Y-105079000D02*
G75*
G03X60760000Y-105079000I-920000J0D01*
G01*
X66590000Y-105999000D02*
X66590000Y-106619000D01*
X67510000Y-105079000D02*
G75*
G03X67510000Y-105079000I-920000J0D01*
G01*
X73840000Y-105999000D02*
X73840000Y-106619000D01*
X74760000Y-105079000D02*
G75*
G03X74760000Y-105079000I-920000J0D01*
G01*
X81090000Y-105999000D02*
X81090000Y-106619000D01*
X82010000Y-105079000D02*
G75*
G03X82010000Y-105079000I-920000J0D01*
G01*
X81560048Y-47889300D02*
X82082552Y-47889300D01*
X81560048Y-46469300D02*
X82082552Y-46469300D01*
X81560048Y-50389300D02*
X82082552Y-50389300D01*
X81560048Y-48969300D02*
X82082552Y-48969300D01*
X81560048Y-52889300D02*
X82082552Y-52889300D01*
X81560048Y-51469300D02*
X82082552Y-51469300D01*
X50470000Y-93110000D02*
X54710000Y-93110000D01*
X50470000Y-103350000D02*
X54710000Y-103350000D01*
X54710000Y-103350000D02*
X54710000Y-93110000D01*
X50470000Y-103350000D02*
X50470000Y-93110000D01*
X57720000Y-93110000D02*
X61960000Y-93110000D01*
X57720000Y-103350000D02*
X61960000Y-103350000D01*
X61960000Y-103350000D02*
X61960000Y-93110000D01*
X57720000Y-103350000D02*
X57720000Y-93110000D01*
X64470000Y-93110000D02*
X68710000Y-93110000D01*
X64470000Y-103350000D02*
X68710000Y-103350000D01*
X68710000Y-103350000D02*
X68710000Y-93110000D01*
X64470000Y-103350000D02*
X64470000Y-93110000D01*
X71720000Y-93110000D02*
X75960000Y-93110000D01*
X71720000Y-103350000D02*
X75960000Y-103350000D01*
X75960000Y-103350000D02*
X75960000Y-93110000D01*
X71720000Y-103350000D02*
X71720000Y-93110000D01*
X78970000Y-93110000D02*
X83210000Y-93110000D01*
X78970000Y-103350000D02*
X83210000Y-103350000D01*
X83210000Y-103350000D02*
X83210000Y-93110000D01*
X78970000Y-103350000D02*
X78970000Y-93110000D01*
X56802000Y-81570000D02*
X56802000Y-71290000D01*
X33702000Y-81570000D02*
X56802000Y-81570000D01*
X33702000Y-71290000D02*
X33702000Y-81570000D01*
X56802000Y-71290000D02*
X33702000Y-71290000D01*
X56742000Y-79080000D02*
X56742000Y-77430000D01*
X33762000Y-79080000D02*
X56742000Y-79080000D01*
X33762000Y-73780000D02*
X33762000Y-79080000D01*
X56742000Y-73780000D02*
X33762000Y-73780000D01*
X56742000Y-75430000D02*
X56742000Y-73780000D01*
X56742000Y-77430000D02*
G75*
G02X56742000Y-75430000I0J1000000D01*
G01*
X57052000Y-60070000D02*
X57052000Y-49790000D01*
X33952000Y-60070000D02*
X57052000Y-60070000D01*
X33952000Y-49790000D02*
X33952000Y-60070000D01*
X57052000Y-49790000D02*
X33952000Y-49790000D01*
X56992000Y-57580000D02*
X56992000Y-55930000D01*
X34012000Y-57580000D02*
X56992000Y-57580000D01*
X34012000Y-52280000D02*
X34012000Y-57580000D01*
X56992000Y-52280000D02*
X34012000Y-52280000D01*
X56992000Y-53930000D02*
X56992000Y-52280000D01*
X56992000Y-55930000D02*
G75*
G02X56992000Y-53930000I0J1000000D01*
G01*
X57302000Y-38070000D02*
X57302000Y-27790000D01*
X34202000Y-38070000D02*
X57302000Y-38070000D01*
X34202000Y-27790000D02*
X34202000Y-38070000D01*
X57302000Y-27790000D02*
X34202000Y-27790000D01*
X57242000Y-35580000D02*
X57242000Y-33930000D01*
X34262000Y-35580000D02*
X57242000Y-35580000D01*
X34262000Y-30280000D02*
X34262000Y-35580000D01*
X57242000Y-30280000D02*
X34262000Y-30280000D01*
X57242000Y-31930000D02*
X57242000Y-30280000D01*
X57242000Y-33930000D02*
G75*
G02X57242000Y-31930000I0J1000000D01*
G01*
X67549000Y-57246000D02*
X67549000Y-58646000D01*
X66849000Y-59346000D02*
X66249000Y-59346000D01*
X65549000Y-58646000D02*
X65549000Y-57246000D01*
X66249000Y-56546000D02*
X66849000Y-56546000D01*
X66849000Y-56546000D02*
G75*
G02X67549000Y-57246000I0J-700000D01*
G01*
X65549000Y-57246000D02*
G75*
G02X66249000Y-56546000I700000J0D01*
G01*
X66249000Y-59346000D02*
G75*
G02X65549000Y-58646000I0J700000D01*
G01*
X67549000Y-58646000D02*
G75*
G02X66849000Y-59346000I-700000J0D01*
G01*
X71049000Y-57246000D02*
X71049000Y-58646000D01*
X70349000Y-59346000D02*
X69749000Y-59346000D01*
X69049000Y-58646000D02*
X69049000Y-57246000D01*
X69749000Y-56546000D02*
X70349000Y-56546000D01*
X70349000Y-56546000D02*
G75*
G02X71049000Y-57246000I0J-700000D01*
G01*
X69049000Y-57246000D02*
G75*
G02X69749000Y-56546000I700000J0D01*
G01*
X69749000Y-59346000D02*
G75*
G02X69049000Y-58646000I0J700000D01*
G01*
X71049000Y-58646000D02*
G75*
G02X70349000Y-59346000I-700000J0D01*
G01*
X74660000Y-57246000D02*
X74660000Y-58646000D01*
X73960000Y-59346000D02*
X73360000Y-59346000D01*
X72660000Y-58646000D02*
X72660000Y-57246000D01*
X73360000Y-56546000D02*
X73960000Y-56546000D01*
X73960000Y-56546000D02*
G75*
G02X74660000Y-57246000I0J-700000D01*
G01*
X72660000Y-57246000D02*
G75*
G02X73360000Y-56546000I700000J0D01*
G01*
X73360000Y-59346000D02*
G75*
G02X72660000Y-58646000I0J700000D01*
G01*
X74660000Y-58646000D02*
G75*
G02X73960000Y-59346000I-700000J0D01*
G01*
X40580000Y-96774000D02*
X41910000Y-96774000D01*
X40580000Y-98104000D02*
X40580000Y-96774000D01*
X40580000Y-99374000D02*
X43240000Y-99374000D01*
X43240000Y-99374000D02*
X43240000Y-104514000D01*
X40580000Y-99374000D02*
X40580000Y-104514000D01*
X40580000Y-104514000D02*
X43240000Y-104514000D01*
X36897000Y-96774000D02*
X38227000Y-96774000D01*
X36897000Y-98104000D02*
X36897000Y-96774000D01*
X36897000Y-99374000D02*
X39557000Y-99374000D01*
X39557000Y-99374000D02*
X39557000Y-104514000D01*
X36897000Y-99374000D02*
X36897000Y-104514000D01*
X36897000Y-104514000D02*
X39557000Y-104514000D01*
X33240000Y-96774000D02*
X34570000Y-96774000D01*
X33240000Y-98104000D02*
X33240000Y-96774000D01*
X33240000Y-99374000D02*
X35900000Y-99374000D01*
X35900000Y-99374000D02*
X35900000Y-104514000D01*
X33240000Y-99374000D02*
X33240000Y-104514000D01*
X33240000Y-104514000D02*
X35900000Y-104514000D01*
X89817000Y-39104000D02*
X92357000Y-39104000D01*
X89817000Y-39104000D02*
X89817000Y-41644000D01*
X90067000Y-39354000D02*
X99417000Y-39354000D01*
X90067000Y-111014000D02*
X90067000Y-39354000D01*
X99417000Y-111014000D02*
X90067000Y-111014000D01*
X99417000Y-39354000D02*
X99417000Y-111014000D01*
X19345000Y-20900000D02*
X21885000Y-20900000D01*
X19345000Y-20900000D02*
X19345000Y-23440000D01*
X19595000Y-21150000D02*
X28945000Y-21150000D01*
X19595000Y-105510000D02*
X19595000Y-21150000D01*
X28945000Y-105510000D02*
X19595000Y-105510000D01*
X28945000Y-21150000D02*
X28945000Y-105510000D01*
D10*
X105838666Y-61555380D02*
X105838666Y-62269666D01*
X105791047Y-62412523D01*
X105695809Y-62507761D01*
X105552952Y-62555380D01*
X105457714Y-62555380D01*
X106267238Y-61650619D02*
X106314857Y-61603000D01*
X106410095Y-61555380D01*
X106648190Y-61555380D01*
X106743428Y-61603000D01*
X106791047Y-61650619D01*
X106838666Y-61745857D01*
X106838666Y-61841095D01*
X106791047Y-61983952D01*
X106219619Y-62555380D01*
X106838666Y-62555380D01*
X81026095Y-62654380D02*
X81026095Y-63463904D01*
X81073714Y-63559142D01*
X81121333Y-63606761D01*
X81216571Y-63654380D01*
X81407047Y-63654380D01*
X81502285Y-63606761D01*
X81549904Y-63559142D01*
X81597523Y-63463904D01*
X81597523Y-62654380D01*
X82502285Y-62654380D02*
X82311809Y-62654380D01*
X82216571Y-62702000D01*
X82168952Y-62749619D01*
X82073714Y-62892476D01*
X82026095Y-63082952D01*
X82026095Y-63463904D01*
X82073714Y-63559142D01*
X82121333Y-63606761D01*
X82216571Y-63654380D01*
X82407047Y-63654380D01*
X82502285Y-63606761D01*
X82549904Y-63559142D01*
X82597523Y-63463904D01*
X82597523Y-63225809D01*
X82549904Y-63130571D01*
X82502285Y-63082952D01*
X82407047Y-63035333D01*
X82216571Y-63035333D01*
X82121333Y-63082952D01*
X82073714Y-63130571D01*
X82026095Y-63225809D01*
X80549904Y-85427714D02*
X80549904Y-86094380D01*
X80311809Y-85046761D02*
X80073714Y-85761047D01*
X80692761Y-85761047D01*
X81264190Y-85094380D02*
X81359428Y-85094380D01*
X81454666Y-85142000D01*
X81502285Y-85189619D01*
X81549904Y-85284857D01*
X81597523Y-85475333D01*
X81597523Y-85713428D01*
X81549904Y-85903904D01*
X81502285Y-85999142D01*
X81454666Y-86046761D01*
X81359428Y-86094380D01*
X81264190Y-86094380D01*
X81168952Y-86046761D01*
X81121333Y-85999142D01*
X81073714Y-85903904D01*
X81026095Y-85713428D01*
X81026095Y-85475333D01*
X81073714Y-85284857D01*
X81121333Y-85189619D01*
X81168952Y-85142000D01*
X81264190Y-85094380D01*
X82454666Y-85427714D02*
X82454666Y-86094380D01*
X82216571Y-85046761D02*
X81978476Y-85761047D01*
X82597523Y-85761047D01*
X83026095Y-86094380D02*
X83216571Y-86094380D01*
X83311809Y-86046761D01*
X83359428Y-85999142D01*
X83454666Y-85856285D01*
X83502285Y-85665809D01*
X83502285Y-85284857D01*
X83454666Y-85189619D01*
X83407047Y-85142000D01*
X83311809Y-85094380D01*
X83121333Y-85094380D01*
X83026095Y-85142000D01*
X82978476Y-85189619D01*
X82930857Y-85284857D01*
X82930857Y-85522952D01*
X82978476Y-85618190D01*
X83026095Y-85665809D01*
X83121333Y-85713428D01*
X83311809Y-85713428D01*
X83407047Y-85665809D01*
X83454666Y-85618190D01*
X83502285Y-85522952D01*
X66040095Y-65448380D02*
X66040095Y-66257904D01*
X66087714Y-66353142D01*
X66135333Y-66400761D01*
X66230571Y-66448380D01*
X66421047Y-66448380D01*
X66516285Y-66400761D01*
X66563904Y-66353142D01*
X66611523Y-66257904D01*
X66611523Y-65448380D01*
X67563904Y-65448380D02*
X67087714Y-65448380D01*
X67040095Y-65924571D01*
X67087714Y-65876952D01*
X67182952Y-65829333D01*
X67421047Y-65829333D01*
X67516285Y-65876952D01*
X67563904Y-65924571D01*
X67611523Y-66019809D01*
X67611523Y-66257904D01*
X67563904Y-66353142D01*
X67516285Y-66400761D01*
X67421047Y-66448380D01*
X67182952Y-66448380D01*
X67087714Y-66400761D01*
X67040095Y-66353142D01*
X65563904Y-88221714D02*
X65563904Y-88888380D01*
X65325809Y-87840761D02*
X65087714Y-88555047D01*
X65706761Y-88555047D01*
X66278190Y-87888380D02*
X66373428Y-87888380D01*
X66468666Y-87936000D01*
X66516285Y-87983619D01*
X66563904Y-88078857D01*
X66611523Y-88269333D01*
X66611523Y-88507428D01*
X66563904Y-88697904D01*
X66516285Y-88793142D01*
X66468666Y-88840761D01*
X66373428Y-88888380D01*
X66278190Y-88888380D01*
X66182952Y-88840761D01*
X66135333Y-88793142D01*
X66087714Y-88697904D01*
X66040095Y-88507428D01*
X66040095Y-88269333D01*
X66087714Y-88078857D01*
X66135333Y-87983619D01*
X66182952Y-87936000D01*
X66278190Y-87888380D01*
X67468666Y-88221714D02*
X67468666Y-88888380D01*
X67230571Y-87840761D02*
X66992476Y-88555047D01*
X67611523Y-88555047D01*
X68040095Y-88888380D02*
X68230571Y-88888380D01*
X68325809Y-88840761D01*
X68373428Y-88793142D01*
X68468666Y-88650285D01*
X68516285Y-88459809D01*
X68516285Y-88078857D01*
X68468666Y-87983619D01*
X68421047Y-87936000D01*
X68325809Y-87888380D01*
X68135333Y-87888380D01*
X68040095Y-87936000D01*
X67992476Y-87983619D01*
X67944857Y-88078857D01*
X67944857Y-88316952D01*
X67992476Y-88412190D01*
X68040095Y-88459809D01*
X68135333Y-88507428D01*
X68325809Y-88507428D01*
X68421047Y-88459809D01*
X68468666Y-88412190D01*
X68516285Y-88316952D01*
X69088095Y-16172380D02*
X69088095Y-16981904D01*
X69135714Y-17077142D01*
X69183333Y-17124761D01*
X69278571Y-17172380D01*
X69469047Y-17172380D01*
X69564285Y-17124761D01*
X69611904Y-17077142D01*
X69659523Y-16981904D01*
X69659523Y-16172380D01*
X70564285Y-16505714D02*
X70564285Y-17172380D01*
X70326190Y-16124761D02*
X70088095Y-16839047D01*
X70707142Y-16839047D01*
X76652380Y-40544285D02*
X75652380Y-40544285D01*
X76366666Y-40210952D01*
X75652380Y-39877619D01*
X76652380Y-39877619D01*
X76557142Y-38830000D02*
X76604761Y-38877619D01*
X76652380Y-39020476D01*
X76652380Y-39115714D01*
X76604761Y-39258571D01*
X76509523Y-39353809D01*
X76414285Y-39401428D01*
X76223809Y-39449047D01*
X76080952Y-39449047D01*
X75890476Y-39401428D01*
X75795238Y-39353809D01*
X75700000Y-39258571D01*
X75652380Y-39115714D01*
X75652380Y-39020476D01*
X75700000Y-38877619D01*
X75747619Y-38830000D01*
X76652380Y-38401428D02*
X75652380Y-38401428D01*
X75652380Y-38020476D01*
X75700000Y-37925238D01*
X75747619Y-37877619D01*
X75842857Y-37830000D01*
X75985714Y-37830000D01*
X76080952Y-37877619D01*
X76128571Y-37925238D01*
X76176190Y-38020476D01*
X76176190Y-38401428D01*
X75747619Y-37449047D02*
X75700000Y-37401428D01*
X75652380Y-37306190D01*
X75652380Y-37068095D01*
X75700000Y-36972857D01*
X75747619Y-36925238D01*
X75842857Y-36877619D01*
X75938095Y-36877619D01*
X76080952Y-36925238D01*
X76652380Y-37496666D01*
X76652380Y-36877619D01*
X75652380Y-36544285D02*
X75652380Y-35925238D01*
X76033333Y-36258571D01*
X76033333Y-36115714D01*
X76080952Y-36020476D01*
X76128571Y-35972857D01*
X76223809Y-35925238D01*
X76461904Y-35925238D01*
X76557142Y-35972857D01*
X76604761Y-36020476D01*
X76652380Y-36115714D01*
X76652380Y-36401428D01*
X76604761Y-36496666D01*
X76557142Y-36544285D01*
X75652380Y-35306190D02*
X75652380Y-35210952D01*
X75700000Y-35115714D01*
X75747619Y-35068095D01*
X75842857Y-35020476D01*
X76033333Y-34972857D01*
X76271428Y-34972857D01*
X76461904Y-35020476D01*
X76557142Y-35068095D01*
X76604761Y-35115714D01*
X76652380Y-35210952D01*
X76652380Y-35306190D01*
X76604761Y-35401428D01*
X76557142Y-35449047D01*
X76461904Y-35496666D01*
X76271428Y-35544285D01*
X76033333Y-35544285D01*
X75842857Y-35496666D01*
X75747619Y-35449047D01*
X75700000Y-35401428D01*
X75652380Y-35306190D01*
X76652380Y-34020476D02*
X76652380Y-34591904D01*
X76652380Y-34306190D02*
X75652380Y-34306190D01*
X75795238Y-34401428D01*
X75890476Y-34496666D01*
X75938095Y-34591904D01*
X75652380Y-33687142D02*
X75652380Y-33020476D01*
X76652380Y-33449047D01*
X110179380Y-59395666D02*
X109703190Y-59729000D01*
X110179380Y-59967095D02*
X109179380Y-59967095D01*
X109179380Y-59586142D01*
X109227000Y-59490904D01*
X109274619Y-59443285D01*
X109369857Y-59395666D01*
X109512714Y-59395666D01*
X109607952Y-59443285D01*
X109655571Y-59490904D01*
X109703190Y-59586142D01*
X109703190Y-59967095D01*
X110179380Y-58919476D02*
X110179380Y-58729000D01*
X110131761Y-58633761D01*
X110084142Y-58586142D01*
X109941285Y-58490904D01*
X109750809Y-58443285D01*
X109369857Y-58443285D01*
X109274619Y-58490904D01*
X109227000Y-58538523D01*
X109179380Y-58633761D01*
X109179380Y-58824238D01*
X109227000Y-58919476D01*
X109274619Y-58967095D01*
X109369857Y-59014714D01*
X109607952Y-59014714D01*
X109703190Y-58967095D01*
X109750809Y-58919476D01*
X109798428Y-58824238D01*
X109798428Y-58633761D01*
X109750809Y-58538523D01*
X109703190Y-58490904D01*
X109607952Y-58443285D01*
X103228142Y-59395666D02*
X103275761Y-59443285D01*
X103323380Y-59586142D01*
X103323380Y-59681380D01*
X103275761Y-59824238D01*
X103180523Y-59919476D01*
X103085285Y-59967095D01*
X102894809Y-60014714D01*
X102751952Y-60014714D01*
X102561476Y-59967095D01*
X102466238Y-59919476D01*
X102371000Y-59824238D01*
X102323380Y-59681380D01*
X102323380Y-59586142D01*
X102371000Y-59443285D01*
X102418619Y-59395666D01*
X102323380Y-58538523D02*
X102323380Y-58729000D01*
X102371000Y-58824238D01*
X102418619Y-58871857D01*
X102561476Y-58967095D01*
X102751952Y-59014714D01*
X103132904Y-59014714D01*
X103228142Y-58967095D01*
X103275761Y-58919476D01*
X103323380Y-58824238D01*
X103323380Y-58633761D01*
X103275761Y-58538523D01*
X103228142Y-58490904D01*
X103132904Y-58443285D01*
X102894809Y-58443285D01*
X102799571Y-58490904D01*
X102751952Y-58538523D01*
X102704333Y-58633761D01*
X102704333Y-58824238D01*
X102751952Y-58919476D01*
X102799571Y-58967095D01*
X102894809Y-59014714D01*
X52284333Y-109799380D02*
X51951000Y-109323190D01*
X51712904Y-109799380D02*
X51712904Y-108799380D01*
X52093857Y-108799380D01*
X52189095Y-108847000D01*
X52236714Y-108894619D01*
X52284333Y-108989857D01*
X52284333Y-109132714D01*
X52236714Y-109227952D01*
X52189095Y-109275571D01*
X52093857Y-109323190D01*
X51712904Y-109323190D01*
X52855761Y-109227952D02*
X52760523Y-109180333D01*
X52712904Y-109132714D01*
X52665285Y-109037476D01*
X52665285Y-108989857D01*
X52712904Y-108894619D01*
X52760523Y-108847000D01*
X52855761Y-108799380D01*
X53046238Y-108799380D01*
X53141476Y-108847000D01*
X53189095Y-108894619D01*
X53236714Y-108989857D01*
X53236714Y-109037476D01*
X53189095Y-109132714D01*
X53141476Y-109180333D01*
X53046238Y-109227952D01*
X52855761Y-109227952D01*
X52760523Y-109275571D01*
X52712904Y-109323190D01*
X52665285Y-109418428D01*
X52665285Y-109608904D01*
X52712904Y-109704142D01*
X52760523Y-109751761D01*
X52855761Y-109799380D01*
X53046238Y-109799380D01*
X53141476Y-109751761D01*
X53189095Y-109704142D01*
X53236714Y-109608904D01*
X53236714Y-109418428D01*
X53189095Y-109323190D01*
X53141476Y-109275571D01*
X53046238Y-109227952D01*
X59777333Y-109799380D02*
X59444000Y-109323190D01*
X59205904Y-109799380D02*
X59205904Y-108799380D01*
X59586857Y-108799380D01*
X59682095Y-108847000D01*
X59729714Y-108894619D01*
X59777333Y-108989857D01*
X59777333Y-109132714D01*
X59729714Y-109227952D01*
X59682095Y-109275571D01*
X59586857Y-109323190D01*
X59205904Y-109323190D01*
X60110666Y-108799380D02*
X60777333Y-108799380D01*
X60348761Y-109799380D01*
X66508333Y-109799380D02*
X66175000Y-109323190D01*
X65936904Y-109799380D02*
X65936904Y-108799380D01*
X66317857Y-108799380D01*
X66413095Y-108847000D01*
X66460714Y-108894619D01*
X66508333Y-108989857D01*
X66508333Y-109132714D01*
X66460714Y-109227952D01*
X66413095Y-109275571D01*
X66317857Y-109323190D01*
X65936904Y-109323190D01*
X67365476Y-108799380D02*
X67175000Y-108799380D01*
X67079761Y-108847000D01*
X67032142Y-108894619D01*
X66936904Y-109037476D01*
X66889285Y-109227952D01*
X66889285Y-109608904D01*
X66936904Y-109704142D01*
X66984523Y-109751761D01*
X67079761Y-109799380D01*
X67270238Y-109799380D01*
X67365476Y-109751761D01*
X67413095Y-109704142D01*
X67460714Y-109608904D01*
X67460714Y-109370809D01*
X67413095Y-109275571D01*
X67365476Y-109227952D01*
X67270238Y-109180333D01*
X67079761Y-109180333D01*
X66984523Y-109227952D01*
X66936904Y-109275571D01*
X66889285Y-109370809D01*
X73747333Y-109799380D02*
X73414000Y-109323190D01*
X73175904Y-109799380D02*
X73175904Y-108799380D01*
X73556857Y-108799380D01*
X73652095Y-108847000D01*
X73699714Y-108894619D01*
X73747333Y-108989857D01*
X73747333Y-109132714D01*
X73699714Y-109227952D01*
X73652095Y-109275571D01*
X73556857Y-109323190D01*
X73175904Y-109323190D01*
X74652095Y-108799380D02*
X74175904Y-108799380D01*
X74128285Y-109275571D01*
X74175904Y-109227952D01*
X74271142Y-109180333D01*
X74509238Y-109180333D01*
X74604476Y-109227952D01*
X74652095Y-109275571D01*
X74699714Y-109370809D01*
X74699714Y-109608904D01*
X74652095Y-109704142D01*
X74604476Y-109751761D01*
X74509238Y-109799380D01*
X74271142Y-109799380D01*
X74175904Y-109751761D01*
X74128285Y-109704142D01*
X81113333Y-109799380D02*
X80780000Y-109323190D01*
X80541904Y-109799380D02*
X80541904Y-108799380D01*
X80922857Y-108799380D01*
X81018095Y-108847000D01*
X81065714Y-108894619D01*
X81113333Y-108989857D01*
X81113333Y-109132714D01*
X81065714Y-109227952D01*
X81018095Y-109275571D01*
X80922857Y-109323190D01*
X80541904Y-109323190D01*
X81970476Y-109132714D02*
X81970476Y-109799380D01*
X81732380Y-108751761D02*
X81494285Y-109466047D01*
X82113333Y-109466047D01*
X78827333Y-47658280D02*
X78494000Y-47182090D01*
X78255904Y-47658280D02*
X78255904Y-46658280D01*
X78636857Y-46658280D01*
X78732095Y-46705900D01*
X78779714Y-46753519D01*
X78827333Y-46848757D01*
X78827333Y-46991614D01*
X78779714Y-47086852D01*
X78732095Y-47134471D01*
X78636857Y-47182090D01*
X78255904Y-47182090D01*
X79160666Y-46658280D02*
X79779714Y-46658280D01*
X79446380Y-47039233D01*
X79589238Y-47039233D01*
X79684476Y-47086852D01*
X79732095Y-47134471D01*
X79779714Y-47229709D01*
X79779714Y-47467804D01*
X79732095Y-47563042D01*
X79684476Y-47610661D01*
X79589238Y-47658280D01*
X79303523Y-47658280D01*
X79208285Y-47610661D01*
X79160666Y-47563042D01*
X78827333Y-50109380D02*
X78494000Y-49633190D01*
X78255904Y-50109380D02*
X78255904Y-49109380D01*
X78636857Y-49109380D01*
X78732095Y-49157000D01*
X78779714Y-49204619D01*
X78827333Y-49299857D01*
X78827333Y-49442714D01*
X78779714Y-49537952D01*
X78732095Y-49585571D01*
X78636857Y-49633190D01*
X78255904Y-49633190D01*
X79208285Y-49204619D02*
X79255904Y-49157000D01*
X79351142Y-49109380D01*
X79589238Y-49109380D01*
X79684476Y-49157000D01*
X79732095Y-49204619D01*
X79779714Y-49299857D01*
X79779714Y-49395095D01*
X79732095Y-49537952D01*
X79160666Y-50109380D01*
X79779714Y-50109380D01*
X78827333Y-52649380D02*
X78494000Y-52173190D01*
X78255904Y-52649380D02*
X78255904Y-51649380D01*
X78636857Y-51649380D01*
X78732095Y-51697000D01*
X78779714Y-51744619D01*
X78827333Y-51839857D01*
X78827333Y-51982714D01*
X78779714Y-52077952D01*
X78732095Y-52125571D01*
X78636857Y-52173190D01*
X78255904Y-52173190D01*
X79779714Y-52649380D02*
X79208285Y-52649380D01*
X79494000Y-52649380D02*
X79494000Y-51649380D01*
X79398761Y-51792238D01*
X79303523Y-51887476D01*
X79208285Y-51935095D01*
X52411333Y-92559142D02*
X52363714Y-92606761D01*
X52220857Y-92654380D01*
X52125619Y-92654380D01*
X51982761Y-92606761D01*
X51887523Y-92511523D01*
X51839904Y-92416285D01*
X51792285Y-92225809D01*
X51792285Y-92082952D01*
X51839904Y-91892476D01*
X51887523Y-91797238D01*
X51982761Y-91702000D01*
X52125619Y-91654380D01*
X52220857Y-91654380D01*
X52363714Y-91702000D01*
X52411333Y-91749619D01*
X53363714Y-92654380D02*
X52792285Y-92654380D01*
X53078000Y-92654380D02*
X53078000Y-91654380D01*
X52982761Y-91797238D01*
X52887523Y-91892476D01*
X52792285Y-91940095D01*
X59523333Y-92559142D02*
X59475714Y-92606761D01*
X59332857Y-92654380D01*
X59237619Y-92654380D01*
X59094761Y-92606761D01*
X58999523Y-92511523D01*
X58951904Y-92416285D01*
X58904285Y-92225809D01*
X58904285Y-92082952D01*
X58951904Y-91892476D01*
X58999523Y-91797238D01*
X59094761Y-91702000D01*
X59237619Y-91654380D01*
X59332857Y-91654380D01*
X59475714Y-91702000D01*
X59523333Y-91749619D01*
X59904285Y-91749619D02*
X59951904Y-91702000D01*
X60047142Y-91654380D01*
X60285238Y-91654380D01*
X60380476Y-91702000D01*
X60428095Y-91749619D01*
X60475714Y-91844857D01*
X60475714Y-91940095D01*
X60428095Y-92082952D01*
X59856666Y-92654380D01*
X60475714Y-92654380D01*
X66381333Y-92559142D02*
X66333714Y-92606761D01*
X66190857Y-92654380D01*
X66095619Y-92654380D01*
X65952761Y-92606761D01*
X65857523Y-92511523D01*
X65809904Y-92416285D01*
X65762285Y-92225809D01*
X65762285Y-92082952D01*
X65809904Y-91892476D01*
X65857523Y-91797238D01*
X65952761Y-91702000D01*
X66095619Y-91654380D01*
X66190857Y-91654380D01*
X66333714Y-91702000D01*
X66381333Y-91749619D01*
X66714666Y-91654380D02*
X67333714Y-91654380D01*
X67000380Y-92035333D01*
X67143238Y-92035333D01*
X67238476Y-92082952D01*
X67286095Y-92130571D01*
X67333714Y-92225809D01*
X67333714Y-92463904D01*
X67286095Y-92559142D01*
X67238476Y-92606761D01*
X67143238Y-92654380D01*
X66857523Y-92654380D01*
X66762285Y-92606761D01*
X66714666Y-92559142D01*
X73493333Y-92686142D02*
X73445714Y-92733761D01*
X73302857Y-92781380D01*
X73207619Y-92781380D01*
X73064761Y-92733761D01*
X72969523Y-92638523D01*
X72921904Y-92543285D01*
X72874285Y-92352809D01*
X72874285Y-92209952D01*
X72921904Y-92019476D01*
X72969523Y-91924238D01*
X73064761Y-91829000D01*
X73207619Y-91781380D01*
X73302857Y-91781380D01*
X73445714Y-91829000D01*
X73493333Y-91876619D01*
X74350476Y-92114714D02*
X74350476Y-92781380D01*
X74112380Y-91733761D02*
X73874285Y-92448047D01*
X74493333Y-92448047D01*
X80859333Y-92686142D02*
X80811714Y-92733761D01*
X80668857Y-92781380D01*
X80573619Y-92781380D01*
X80430761Y-92733761D01*
X80335523Y-92638523D01*
X80287904Y-92543285D01*
X80240285Y-92352809D01*
X80240285Y-92209952D01*
X80287904Y-92019476D01*
X80335523Y-91924238D01*
X80430761Y-91829000D01*
X80573619Y-91781380D01*
X80668857Y-91781380D01*
X80811714Y-91829000D01*
X80859333Y-91876619D01*
X81764095Y-91781380D02*
X81287904Y-91781380D01*
X81240285Y-92257571D01*
X81287904Y-92209952D01*
X81383142Y-92162333D01*
X81621238Y-92162333D01*
X81716476Y-92209952D01*
X81764095Y-92257571D01*
X81811714Y-92352809D01*
X81811714Y-92590904D01*
X81764095Y-92686142D01*
X81716476Y-92733761D01*
X81621238Y-92781380D01*
X81383142Y-92781380D01*
X81287904Y-92733761D01*
X81240285Y-92686142D01*
X57194380Y-77191904D02*
X58003904Y-77191904D01*
X58099142Y-77144285D01*
X58146761Y-77096666D01*
X58194380Y-77001428D01*
X58194380Y-76810952D01*
X58146761Y-76715714D01*
X58099142Y-76668095D01*
X58003904Y-76620476D01*
X57194380Y-76620476D01*
X57194380Y-76239523D02*
X57194380Y-75620476D01*
X57575333Y-75953809D01*
X57575333Y-75810952D01*
X57622952Y-75715714D01*
X57670571Y-75668095D01*
X57765809Y-75620476D01*
X58003904Y-75620476D01*
X58099142Y-75668095D01*
X58146761Y-75715714D01*
X58194380Y-75810952D01*
X58194380Y-76096666D01*
X58146761Y-76191904D01*
X58099142Y-76239523D01*
X57444380Y-55691904D02*
X58253904Y-55691904D01*
X58349142Y-55644285D01*
X58396761Y-55596666D01*
X58444380Y-55501428D01*
X58444380Y-55310952D01*
X58396761Y-55215714D01*
X58349142Y-55168095D01*
X58253904Y-55120476D01*
X57444380Y-55120476D01*
X57539619Y-54691904D02*
X57492000Y-54644285D01*
X57444380Y-54549047D01*
X57444380Y-54310952D01*
X57492000Y-54215714D01*
X57539619Y-54168095D01*
X57634857Y-54120476D01*
X57730095Y-54120476D01*
X57872952Y-54168095D01*
X58444380Y-54739523D01*
X58444380Y-54120476D01*
X57694380Y-33691904D02*
X58503904Y-33691904D01*
X58599142Y-33644285D01*
X58646761Y-33596666D01*
X58694380Y-33501428D01*
X58694380Y-33310952D01*
X58646761Y-33215714D01*
X58599142Y-33168095D01*
X58503904Y-33120476D01*
X57694380Y-33120476D01*
X58694380Y-32120476D02*
X58694380Y-32691904D01*
X58694380Y-32406190D02*
X57694380Y-32406190D01*
X57837238Y-32501428D01*
X57932476Y-32596666D01*
X57980095Y-32691904D01*
X65834714Y-60612666D02*
X66310904Y-60612666D01*
X65739476Y-60898380D02*
X66072809Y-59898380D01*
X66406142Y-60898380D01*
X66691857Y-59993619D02*
X66739476Y-59946000D01*
X66834714Y-59898380D01*
X67072809Y-59898380D01*
X67168047Y-59946000D01*
X67215666Y-59993619D01*
X67263285Y-60088857D01*
X67263285Y-60184095D01*
X67215666Y-60326952D01*
X66644238Y-60898380D01*
X67263285Y-60898380D01*
X69334714Y-60612666D02*
X69810904Y-60612666D01*
X69239476Y-60898380D02*
X69572809Y-59898380D01*
X69906142Y-60898380D01*
X70763285Y-60898380D02*
X70191857Y-60898380D01*
X70477571Y-60898380D02*
X70477571Y-59898380D01*
X70382333Y-60041238D01*
X70287095Y-60136476D01*
X70191857Y-60184095D01*
X72945714Y-60612666D02*
X73421904Y-60612666D01*
X72850476Y-60898380D02*
X73183809Y-59898380D01*
X73517142Y-60898380D01*
X74040952Y-59898380D02*
X74136190Y-59898380D01*
X74231428Y-59946000D01*
X74279047Y-59993619D01*
X74326666Y-60088857D01*
X74374285Y-60279333D01*
X74374285Y-60517428D01*
X74326666Y-60707904D01*
X74279047Y-60803142D01*
X74231428Y-60850761D01*
X74136190Y-60898380D01*
X74040952Y-60898380D01*
X73945714Y-60850761D01*
X73898095Y-60803142D01*
X73850476Y-60707904D01*
X73802857Y-60517428D01*
X73802857Y-60279333D01*
X73850476Y-60088857D01*
X73898095Y-59993619D01*
X73945714Y-59946000D01*
X74040952Y-59898380D01*
X41219523Y-95432571D02*
X41552857Y-95432571D01*
X41695714Y-95956380D02*
X41219523Y-95956380D01*
X41219523Y-94956380D01*
X41695714Y-94956380D01*
X42267142Y-95384952D02*
X42171904Y-95337333D01*
X42124285Y-95289714D01*
X42076666Y-95194476D01*
X42076666Y-95146857D01*
X42124285Y-95051619D01*
X42171904Y-95004000D01*
X42267142Y-94956380D01*
X42457619Y-94956380D01*
X42552857Y-95004000D01*
X42600476Y-95051619D01*
X42648095Y-95146857D01*
X42648095Y-95194476D01*
X42600476Y-95289714D01*
X42552857Y-95337333D01*
X42457619Y-95384952D01*
X42267142Y-95384952D01*
X42171904Y-95432571D01*
X42124285Y-95480190D01*
X42076666Y-95575428D01*
X42076666Y-95765904D01*
X42124285Y-95861142D01*
X42171904Y-95908761D01*
X42267142Y-95956380D01*
X42457619Y-95956380D01*
X42552857Y-95908761D01*
X42600476Y-95861142D01*
X42648095Y-95765904D01*
X42648095Y-95575428D01*
X42600476Y-95480190D01*
X42552857Y-95432571D01*
X42457619Y-95384952D01*
X37536523Y-95432571D02*
X37869857Y-95432571D01*
X38012714Y-95956380D02*
X37536523Y-95956380D01*
X37536523Y-94956380D01*
X38012714Y-94956380D01*
X38346047Y-94956380D02*
X39012714Y-94956380D01*
X38584142Y-95956380D01*
X33879523Y-95432571D02*
X34212857Y-95432571D01*
X34355714Y-95956380D02*
X33879523Y-95956380D01*
X33879523Y-94956380D01*
X34355714Y-94956380D01*
X35212857Y-94956380D02*
X35022380Y-94956380D01*
X34927142Y-95004000D01*
X34879523Y-95051619D01*
X34784285Y-95194476D01*
X34736666Y-95384952D01*
X34736666Y-95765904D01*
X34784285Y-95861142D01*
X34831904Y-95908761D01*
X34927142Y-95956380D01*
X35117619Y-95956380D01*
X35212857Y-95908761D01*
X35260476Y-95861142D01*
X35308095Y-95765904D01*
X35308095Y-95527809D01*
X35260476Y-95432571D01*
X35212857Y-95384952D01*
X35117619Y-95337333D01*
X34927142Y-95337333D01*
X34831904Y-95384952D01*
X34784285Y-95432571D01*
X34736666Y-95527809D01*
X86956285Y-112053714D02*
X87480095Y-112053714D01*
X86956285Y-112720380D01*
X87480095Y-112720380D01*
X88289619Y-112053714D02*
X88289619Y-112720380D01*
X87861047Y-112053714D02*
X87861047Y-112577523D01*
X87908666Y-112672761D01*
X88003904Y-112720380D01*
X88146761Y-112720380D01*
X88242000Y-112672761D01*
X88289619Y-112625142D01*
X88765809Y-112720380D02*
X88765809Y-112053714D01*
X88765809Y-112148952D02*
X88813428Y-112101333D01*
X88908666Y-112053714D01*
X89051523Y-112053714D01*
X89146761Y-112101333D01*
X89194380Y-112196571D01*
X89194380Y-112720380D01*
X89194380Y-112196571D02*
X89242000Y-112101333D01*
X89337238Y-112053714D01*
X89480095Y-112053714D01*
X89575333Y-112101333D01*
X89622952Y-112196571D01*
X89622952Y-112720380D01*
X91337238Y-112720380D02*
X90861047Y-112720380D01*
X90861047Y-111720380D01*
X91622952Y-112434666D02*
X92099142Y-112434666D01*
X91527714Y-112720380D02*
X91861047Y-111720380D01*
X92194380Y-112720380D01*
X92432476Y-111720380D02*
X92670571Y-112720380D01*
X92861047Y-112006095D01*
X93051523Y-112720380D01*
X93289619Y-111720380D01*
X93861047Y-111720380D02*
X94051523Y-111720380D01*
X94146761Y-111768000D01*
X94242000Y-111863238D01*
X94289619Y-112053714D01*
X94289619Y-112387047D01*
X94242000Y-112577523D01*
X94146761Y-112672761D01*
X94051523Y-112720380D01*
X93861047Y-112720380D01*
X93765809Y-112672761D01*
X93670571Y-112577523D01*
X93622952Y-112387047D01*
X93622952Y-112053714D01*
X93670571Y-111863238D01*
X93765809Y-111768000D01*
X93861047Y-111720380D01*
X96051523Y-112625142D02*
X96003904Y-112672761D01*
X95861047Y-112720380D01*
X95765809Y-112720380D01*
X95622952Y-112672761D01*
X95527714Y-112577523D01*
X95480095Y-112482285D01*
X95432476Y-112291809D01*
X95432476Y-112148952D01*
X95480095Y-111958476D01*
X95527714Y-111863238D01*
X95622952Y-111768000D01*
X95765809Y-111720380D01*
X95861047Y-111720380D01*
X96003904Y-111768000D01*
X96051523Y-111815619D01*
X96622952Y-112720380D02*
X96527714Y-112672761D01*
X96480095Y-112625142D01*
X96432476Y-112529904D01*
X96432476Y-112244190D01*
X96480095Y-112148952D01*
X96527714Y-112101333D01*
X96622952Y-112053714D01*
X96765809Y-112053714D01*
X96861047Y-112101333D01*
X96908666Y-112148952D01*
X96956285Y-112244190D01*
X96956285Y-112529904D01*
X96908666Y-112625142D01*
X96861047Y-112672761D01*
X96765809Y-112720380D01*
X96622952Y-112720380D01*
X97384857Y-112053714D02*
X97384857Y-112720380D01*
X97384857Y-112148952D02*
X97432476Y-112101333D01*
X97527714Y-112053714D01*
X97670571Y-112053714D01*
X97765809Y-112101333D01*
X97813428Y-112196571D01*
X97813428Y-112720380D01*
X98146761Y-112053714D02*
X98527714Y-112053714D01*
X98289619Y-111720380D02*
X98289619Y-112577523D01*
X98337238Y-112672761D01*
X98432476Y-112720380D01*
X98527714Y-112720380D01*
X98861047Y-112720380D02*
X98861047Y-112053714D01*
X98861047Y-112244190D02*
X98908666Y-112148952D01*
X98956285Y-112101333D01*
X99051523Y-112053714D01*
X99146761Y-112053714D01*
X99622952Y-112720380D02*
X99527714Y-112672761D01*
X99480095Y-112625142D01*
X99432476Y-112529904D01*
X99432476Y-112244190D01*
X99480095Y-112148952D01*
X99527714Y-112101333D01*
X99622952Y-112053714D01*
X99765809Y-112053714D01*
X99861047Y-112101333D01*
X99908666Y-112148952D01*
X99956285Y-112244190D01*
X99956285Y-112529904D01*
X99908666Y-112625142D01*
X99861047Y-112672761D01*
X99765809Y-112720380D01*
X99622952Y-112720380D01*
X100527714Y-112720380D02*
X100432476Y-112672761D01*
X100384857Y-112577523D01*
X100384857Y-111720380D01*
X101051523Y-112720380D02*
X100956285Y-112672761D01*
X100908666Y-112577523D01*
X100908666Y-111720380D01*
X101813428Y-112672761D02*
X101718190Y-112720380D01*
X101527714Y-112720380D01*
X101432476Y-112672761D01*
X101384857Y-112577523D01*
X101384857Y-112196571D01*
X101432476Y-112101333D01*
X101527714Y-112053714D01*
X101718190Y-112053714D01*
X101813428Y-112101333D01*
X101861047Y-112196571D01*
X101861047Y-112291809D01*
X101384857Y-112387047D01*
X102289619Y-112720380D02*
X102289619Y-112053714D01*
X102289619Y-112244190D02*
X102337238Y-112148952D01*
X102384857Y-112101333D01*
X102480095Y-112053714D01*
X102575333Y-112053714D01*
X23936666Y-19348380D02*
X23936666Y-20062666D01*
X23889047Y-20205523D01*
X23793809Y-20300761D01*
X23650952Y-20348380D01*
X23555714Y-20348380D01*
X24317619Y-19348380D02*
X24936666Y-19348380D01*
X24603333Y-19729333D01*
X24746190Y-19729333D01*
X24841428Y-19776952D01*
X24889047Y-19824571D01*
X24936666Y-19919809D01*
X24936666Y-20157904D01*
X24889047Y-20253142D01*
X24841428Y-20300761D01*
X24746190Y-20348380D01*
X24460476Y-20348380D01*
X24365238Y-20300761D01*
X24317619Y-20253142D01*
X20915857Y-106354571D02*
X21058714Y-106402190D01*
X21106333Y-106449809D01*
X21153952Y-106545047D01*
X21153952Y-106687904D01*
X21106333Y-106783142D01*
X21058714Y-106830761D01*
X20963476Y-106878380D01*
X20582523Y-106878380D01*
X20582523Y-105878380D01*
X20915857Y-105878380D01*
X21011095Y-105926000D01*
X21058714Y-105973619D01*
X21106333Y-106068857D01*
X21106333Y-106164095D01*
X21058714Y-106259333D01*
X21011095Y-106306952D01*
X20915857Y-106354571D01*
X20582523Y-106354571D01*
X22153952Y-106878380D02*
X21820619Y-106402190D01*
X21582523Y-106878380D02*
X21582523Y-105878380D01*
X21963476Y-105878380D01*
X22058714Y-105926000D01*
X22106333Y-105973619D01*
X22153952Y-106068857D01*
X22153952Y-106211714D01*
X22106333Y-106306952D01*
X22058714Y-106354571D01*
X21963476Y-106402190D01*
X21582523Y-106402190D01*
X22773000Y-105878380D02*
X22963476Y-105878380D01*
X23058714Y-105926000D01*
X23153952Y-106021238D01*
X23201571Y-106211714D01*
X23201571Y-106545047D01*
X23153952Y-106735523D01*
X23058714Y-106830761D01*
X22963476Y-106878380D01*
X22773000Y-106878380D01*
X22677761Y-106830761D01*
X22582523Y-106735523D01*
X22534904Y-106545047D01*
X22534904Y-106211714D01*
X22582523Y-106021238D01*
X22677761Y-105926000D01*
X22773000Y-105878380D01*
X23582523Y-106830761D02*
X23725380Y-106878380D01*
X23963476Y-106878380D01*
X24058714Y-106830761D01*
X24106333Y-106783142D01*
X24153952Y-106687904D01*
X24153952Y-106592666D01*
X24106333Y-106497428D01*
X24058714Y-106449809D01*
X23963476Y-106402190D01*
X23773000Y-106354571D01*
X23677761Y-106306952D01*
X23630142Y-106259333D01*
X23582523Y-106164095D01*
X23582523Y-106068857D01*
X23630142Y-105973619D01*
X23677761Y-105926000D01*
X23773000Y-105878380D01*
X24011095Y-105878380D01*
X24153952Y-105926000D01*
X24582523Y-106354571D02*
X24915857Y-106354571D01*
X25058714Y-106878380D02*
X24582523Y-106878380D01*
X24582523Y-105878380D01*
X25058714Y-105878380D01*
X26249190Y-106878380D02*
X26249190Y-105878380D01*
X26630142Y-105878380D01*
X26725380Y-105926000D01*
X26773000Y-105973619D01*
X26820619Y-106068857D01*
X26820619Y-106211714D01*
X26773000Y-106306952D01*
X26725380Y-106354571D01*
X26630142Y-106402190D01*
X26249190Y-106402190D01*
X27677761Y-106878380D02*
X27677761Y-106354571D01*
X27630142Y-106259333D01*
X27534904Y-106211714D01*
X27344428Y-106211714D01*
X27249190Y-106259333D01*
X27677761Y-106830761D02*
X27582523Y-106878380D01*
X27344428Y-106878380D01*
X27249190Y-106830761D01*
X27201571Y-106735523D01*
X27201571Y-106640285D01*
X27249190Y-106545047D01*
X27344428Y-106497428D01*
X27582523Y-106497428D01*
X27677761Y-106449809D01*
X28153952Y-106211714D02*
X28153952Y-106878380D01*
X28153952Y-106306952D02*
X28201571Y-106259333D01*
X28296809Y-106211714D01*
X28439666Y-106211714D01*
X28534904Y-106259333D01*
X28582523Y-106354571D01*
X28582523Y-106878380D01*
X29439666Y-106830761D02*
X29344428Y-106878380D01*
X29153952Y-106878380D01*
X29058714Y-106830761D01*
X29011095Y-106735523D01*
X29011095Y-106354571D01*
X29058714Y-106259333D01*
X29153952Y-106211714D01*
X29344428Y-106211714D01*
X29439666Y-106259333D01*
X29487285Y-106354571D01*
X29487285Y-106449809D01*
X29011095Y-106545047D01*
X30058714Y-106878380D02*
X29963476Y-106830761D01*
X29915857Y-106735523D01*
X29915857Y-105878380D01*
M02*
