G04 #@! TF.GenerationSoftware,KiCad,Pcbnew,(5.1.5-0-10_14)*
G04 #@! TF.CreationDate,2020-06-29T21:31:51+02:00*
G04 #@! TF.ProjectId,BROSE_LAWO_Adapter,42524f53-455f-44c4-9157-4f5f41646170,rev?*
G04 #@! TF.SameCoordinates,Original*
G04 #@! TF.FileFunction,Copper,L2,Bot*
G04 #@! TF.FilePolarity,Positive*
%FSLAX46Y46*%
G04 Gerber Fmt 4.6, Leading zero omitted, Abs format (unit mm)*
G04 Created by KiCad (PCBNEW (5.1.5-0-10_14)) date 2020-06-29 21:31:51*
%MOMM*%
%LPD*%
G04 APERTURE LIST*
%ADD10C,4.064000*%
%ADD11O,1.727200X1.727200*%
%ADD12R,1.727200X1.727200*%
%ADD13O,1.600000X1.600000*%
%ADD14R,1.600000X1.600000*%
%ADD15O,1.400000X1.400000*%
%ADD16C,1.400000*%
%ADD17C,2.000000*%
%ADD18O,1.700000X1.700000*%
%ADD19R,1.700000X1.700000*%
%ADD20C,0.800000*%
%ADD21C,0.250000*%
%ADD22C,0.500000*%
%ADD23C,0.254000*%
G04 APERTURE END LIST*
D10*
X108000000Y-18000000D03*
X108000000Y-108000000D03*
X18000000Y-108000000D03*
X18000000Y-18000000D03*
D11*
X107442000Y-91567000D03*
X104902000Y-91567000D03*
X107442000Y-89027000D03*
X104902000Y-89027000D03*
X107442000Y-86487000D03*
X104902000Y-86487000D03*
X107442000Y-83947000D03*
X104902000Y-83947000D03*
X107442000Y-81407000D03*
X104902000Y-81407000D03*
X107442000Y-78867000D03*
X104902000Y-78867000D03*
X107442000Y-76327000D03*
X104902000Y-76327000D03*
X107442000Y-73787000D03*
X104902000Y-73787000D03*
X107442000Y-71247000D03*
X104902000Y-71247000D03*
X107442000Y-68707000D03*
D12*
X104902000Y-68707000D03*
D13*
X85598000Y-65532000D03*
X77978000Y-83312000D03*
X85598000Y-68072000D03*
X77978000Y-80772000D03*
X85598000Y-70612000D03*
X77978000Y-78232000D03*
X85598000Y-73152000D03*
X77978000Y-75692000D03*
X85598000Y-75692000D03*
X77978000Y-73152000D03*
X85598000Y-78232000D03*
X77978000Y-70612000D03*
X85598000Y-80772000D03*
X77978000Y-68072000D03*
X85598000Y-83312000D03*
D14*
X77978000Y-65532000D03*
D13*
X70612000Y-68326000D03*
X62992000Y-86106000D03*
X70612000Y-70866000D03*
X62992000Y-83566000D03*
X70612000Y-73406000D03*
X62992000Y-81026000D03*
X70612000Y-75946000D03*
X62992000Y-78486000D03*
X70612000Y-78486000D03*
X62992000Y-75946000D03*
X70612000Y-81026000D03*
X62992000Y-73406000D03*
X70612000Y-83566000D03*
X62992000Y-70866000D03*
X70612000Y-86106000D03*
D14*
X62992000Y-68326000D03*
D13*
X73660000Y-19050000D03*
X66040000Y-52070000D03*
X73660000Y-21590000D03*
X66040000Y-49530000D03*
X73660000Y-24130000D03*
X66040000Y-46990000D03*
X73660000Y-26670000D03*
X66040000Y-44450000D03*
X73660000Y-29210000D03*
X66040000Y-41910000D03*
X73660000Y-31750000D03*
X66040000Y-39370000D03*
X73660000Y-34290000D03*
X66040000Y-36830000D03*
X73660000Y-36830000D03*
X66040000Y-34290000D03*
X73660000Y-39370000D03*
X66040000Y-31750000D03*
X73660000Y-41910000D03*
X66040000Y-29210000D03*
X73660000Y-44450000D03*
X66040000Y-26670000D03*
X73660000Y-46990000D03*
X66040000Y-24130000D03*
X73660000Y-49530000D03*
X66040000Y-21590000D03*
X73660000Y-52070000D03*
D14*
X66040000Y-19050000D03*
D15*
X52590000Y-107619000D03*
D16*
X52590000Y-105079000D03*
D15*
X59840000Y-107619000D03*
D16*
X59840000Y-105079000D03*
D15*
X66590000Y-107619000D03*
D16*
X66590000Y-105079000D03*
D15*
X73840000Y-107619000D03*
D16*
X73840000Y-105079000D03*
D15*
X81090000Y-107619000D03*
D16*
X81090000Y-105079000D03*
D17*
X52590000Y-94480000D03*
X52590000Y-101980000D03*
X59840000Y-94480000D03*
X59840000Y-101980000D03*
X66590000Y-94480000D03*
X66590000Y-101980000D03*
X73840000Y-94480000D03*
X73840000Y-101980000D03*
X81090000Y-94480000D03*
X81090000Y-101980000D03*
D13*
X55412000Y-80240000D03*
X35092000Y-72620000D03*
X52872000Y-80240000D03*
X37632000Y-72620000D03*
X50332000Y-80240000D03*
X40172000Y-72620000D03*
X47792000Y-80240000D03*
X42712000Y-72620000D03*
X45252000Y-80240000D03*
X45252000Y-72620000D03*
X42712000Y-80240000D03*
X47792000Y-72620000D03*
X40172000Y-80240000D03*
X50332000Y-72620000D03*
X37632000Y-80240000D03*
X52872000Y-72620000D03*
X35092000Y-80240000D03*
D14*
X55412000Y-72620000D03*
D13*
X55662000Y-58740000D03*
X35342000Y-51120000D03*
X53122000Y-58740000D03*
X37882000Y-51120000D03*
X50582000Y-58740000D03*
X40422000Y-51120000D03*
X48042000Y-58740000D03*
X42962000Y-51120000D03*
X45502000Y-58740000D03*
X45502000Y-51120000D03*
X42962000Y-58740000D03*
X48042000Y-51120000D03*
X40422000Y-58740000D03*
X50582000Y-51120000D03*
X37882000Y-58740000D03*
X53122000Y-51120000D03*
X35342000Y-58740000D03*
D14*
X55662000Y-51120000D03*
D13*
X55912000Y-36740000D03*
X35592000Y-29120000D03*
X53372000Y-36740000D03*
X38132000Y-29120000D03*
X50832000Y-36740000D03*
X40672000Y-29120000D03*
X48292000Y-36740000D03*
X43212000Y-29120000D03*
X45752000Y-36740000D03*
X45752000Y-29120000D03*
X43212000Y-36740000D03*
X48292000Y-29120000D03*
X40672000Y-36740000D03*
X50832000Y-29120000D03*
X38132000Y-36740000D03*
X53372000Y-29120000D03*
X35592000Y-36740000D03*
D14*
X55912000Y-29120000D03*
D18*
X41910000Y-103184000D03*
X41910000Y-100644000D03*
D19*
X41910000Y-98104000D03*
D18*
X38227000Y-103184000D03*
X38227000Y-100644000D03*
D19*
X38227000Y-98104000D03*
D18*
X34570000Y-103184000D03*
X34570000Y-100644000D03*
D19*
X34570000Y-98104000D03*
D11*
X96012000Y-105664000D03*
X93472000Y-105664000D03*
X96012000Y-103124000D03*
X93472000Y-103124000D03*
X96012000Y-100584000D03*
X93472000Y-100584000D03*
X96012000Y-98044000D03*
X93472000Y-98044000D03*
X96012000Y-95504000D03*
X93472000Y-95504000D03*
X96012000Y-92964000D03*
X93472000Y-92964000D03*
X96012000Y-90424000D03*
X93472000Y-90424000D03*
X96012000Y-87884000D03*
X93472000Y-87884000D03*
X96012000Y-85344000D03*
X93472000Y-85344000D03*
X96012000Y-82804000D03*
X93472000Y-82804000D03*
X96012000Y-80264000D03*
X93472000Y-80264000D03*
X96012000Y-77724000D03*
X93472000Y-77724000D03*
X96012000Y-75184000D03*
X93472000Y-75184000D03*
X96012000Y-72644000D03*
X93472000Y-72644000D03*
X96012000Y-70104000D03*
X93472000Y-70104000D03*
X96012000Y-67564000D03*
X93472000Y-67564000D03*
X96012000Y-65024000D03*
X93472000Y-65024000D03*
X96012000Y-62484000D03*
X93472000Y-62484000D03*
X96012000Y-59944000D03*
X93472000Y-59944000D03*
X96012000Y-57404000D03*
X93472000Y-57404000D03*
X96012000Y-54864000D03*
X93472000Y-54864000D03*
X96012000Y-52324000D03*
X93472000Y-52324000D03*
X96012000Y-49784000D03*
X93472000Y-49784000D03*
X96012000Y-47244000D03*
X93472000Y-47244000D03*
X96012000Y-44704000D03*
D12*
X93472000Y-44704000D03*
D11*
X25540000Y-100160000D03*
X23000000Y-100160000D03*
X25540000Y-97620000D03*
X23000000Y-97620000D03*
X25540000Y-95080000D03*
X23000000Y-95080000D03*
X25540000Y-92540000D03*
X23000000Y-92540000D03*
X25540000Y-90000000D03*
X23000000Y-90000000D03*
X25540000Y-87460000D03*
X23000000Y-87460000D03*
X25540000Y-84920000D03*
X23000000Y-84920000D03*
X25540000Y-82380000D03*
X23000000Y-82380000D03*
X25540000Y-79840000D03*
X23000000Y-79840000D03*
X25540000Y-77300000D03*
X23000000Y-77300000D03*
X25540000Y-74760000D03*
X23000000Y-74760000D03*
X25540000Y-72220000D03*
X23000000Y-72220000D03*
X25540000Y-69680000D03*
X23000000Y-69680000D03*
X25540000Y-67140000D03*
X23000000Y-67140000D03*
X25540000Y-64600000D03*
X23000000Y-64600000D03*
X25540000Y-62060000D03*
X23000000Y-62060000D03*
X25540000Y-59520000D03*
X23000000Y-59520000D03*
X25540000Y-56980000D03*
X23000000Y-56980000D03*
X25540000Y-54440000D03*
X23000000Y-54440000D03*
X25540000Y-51900000D03*
X23000000Y-51900000D03*
X25540000Y-49360000D03*
X23000000Y-49360000D03*
X25540000Y-46820000D03*
X23000000Y-46820000D03*
X25540000Y-44280000D03*
X23000000Y-44280000D03*
X25540000Y-41740000D03*
X23000000Y-41740000D03*
X25540000Y-39200000D03*
X23000000Y-39200000D03*
X25540000Y-36660000D03*
X23000000Y-36660000D03*
X25540000Y-34120000D03*
X23000000Y-34120000D03*
X25540000Y-31580000D03*
X23000000Y-31580000D03*
X25540000Y-29040000D03*
X23000000Y-29040000D03*
X25540000Y-26500000D03*
D12*
X23000000Y-26500000D03*
D20*
X33258800Y-82937400D03*
X35722000Y-85371300D03*
X44174700Y-67842100D03*
X40860400Y-64208000D03*
X43180000Y-94361000D03*
X33147000Y-94234000D03*
X36957000Y-45847000D03*
X106553000Y-64516000D03*
X79248000Y-86487000D03*
X73914000Y-84201000D03*
X68072000Y-86741000D03*
X65242600Y-84980700D03*
X70612000Y-104902000D03*
X76454000Y-104902000D03*
X56134000Y-106553000D03*
X46277650Y-101296350D03*
X46355000Y-106426000D03*
X39497000Y-106426000D03*
X36386800Y-43366400D03*
X91109100Y-66599700D03*
X100827700Y-51394900D03*
X92139800Y-66784500D03*
X91843500Y-68219500D03*
X100301300Y-60962900D03*
X98940600Y-49495400D03*
X98578000Y-51478700D03*
X75418000Y-60184900D03*
X76223600Y-61054600D03*
X86751200Y-59551000D03*
X91620200Y-58017200D03*
X51151900Y-87176100D03*
X48314000Y-68935000D03*
X51702200Y-74754200D03*
D21*
X104902000Y-83947000D02*
X104902000Y-82758100D01*
X66040000Y-46990000D02*
X67165300Y-46990000D01*
X67165300Y-46990000D02*
X70856200Y-43299100D01*
X70856200Y-43299100D02*
X96291100Y-43299100D01*
X96291100Y-43299100D02*
X103713100Y-50721100D01*
X103713100Y-50721100D02*
X103713100Y-81940800D01*
X103713100Y-81940800D02*
X104530400Y-82758100D01*
X104530400Y-82758100D02*
X104902000Y-82758100D01*
X67165300Y-49530000D02*
X68290600Y-48404700D01*
X68290600Y-48404700D02*
X90077400Y-48404700D01*
X90077400Y-48404700D02*
X92436700Y-46045400D01*
X92436700Y-46045400D02*
X96529600Y-46045400D01*
X96529600Y-46045400D02*
X103262800Y-52778600D01*
X103262800Y-52778600D02*
X103262800Y-84030500D01*
X103262800Y-84030500D02*
X104530400Y-85298100D01*
X104530400Y-85298100D02*
X104902000Y-85298100D01*
X104902000Y-86487000D02*
X104902000Y-85298100D01*
X66040000Y-49530000D02*
X67165300Y-49530000D01*
X41910000Y-100644000D02*
X40734700Y-100644000D01*
X25540000Y-100160000D02*
X26728900Y-100160000D01*
X26728900Y-100160000D02*
X27420200Y-99468700D01*
X27420200Y-99468700D02*
X39559400Y-99468700D01*
X39559400Y-99468700D02*
X40734700Y-100644000D01*
X38227000Y-100644000D02*
X37051700Y-100644000D01*
X23000000Y-100160000D02*
X24188900Y-100160000D01*
X24188900Y-100160000D02*
X24188900Y-100531500D01*
X24188900Y-100531500D02*
X25476700Y-101819300D01*
X25476700Y-101819300D02*
X35876400Y-101819300D01*
X35876400Y-101819300D02*
X37051700Y-100644000D01*
X40422000Y-58740000D02*
X33292000Y-65870000D01*
X33292000Y-65870000D02*
X22586500Y-65870000D01*
X22586500Y-65870000D02*
X20858300Y-67598200D01*
X20858300Y-67598200D02*
X20858300Y-95478300D01*
X20858300Y-95478300D02*
X23000000Y-97620000D01*
X41836700Y-58740000D02*
X41836700Y-58932800D01*
X41836700Y-58932800D02*
X32359500Y-68410000D01*
X32359500Y-68410000D02*
X22587400Y-68410000D01*
X22587400Y-68410000D02*
X21349600Y-69647800D01*
X21349600Y-69647800D02*
X21349600Y-92591100D01*
X21349600Y-92591100D02*
X22649600Y-93891100D01*
X22649600Y-93891100D02*
X23533800Y-93891100D01*
X23533800Y-93891100D02*
X24351100Y-94708400D01*
X24351100Y-94708400D02*
X24351100Y-95080000D01*
X42962000Y-58740000D02*
X41836700Y-58740000D01*
X25540000Y-95080000D02*
X24351100Y-95080000D01*
X44376700Y-58740000D02*
X44376700Y-58458600D01*
X44376700Y-58458600D02*
X43532800Y-57614700D01*
X43532800Y-57614700D02*
X39949800Y-57614700D01*
X39949800Y-57614700D02*
X39152000Y-58412500D01*
X39152000Y-58412500D02*
X39152000Y-59084400D01*
X39152000Y-59084400D02*
X34900900Y-63335500D01*
X34900900Y-63335500D02*
X22561700Y-63335500D01*
X22561700Y-63335500D02*
X20383400Y-65513800D01*
X20383400Y-65513800D02*
X20383400Y-96752700D01*
X20383400Y-96752700D02*
X22520700Y-98890000D01*
X22520700Y-98890000D02*
X23433300Y-98890000D01*
X23433300Y-98890000D02*
X24189000Y-98134300D01*
X24189000Y-98134300D02*
X24189000Y-97086400D01*
X24189000Y-97086400D02*
X23371500Y-96268900D01*
X23371500Y-96268900D02*
X23000000Y-96268900D01*
X45502000Y-58740000D02*
X44376700Y-58740000D01*
X23000000Y-95080000D02*
X23000000Y-96268900D01*
X33258800Y-82937400D02*
X34934600Y-82937400D01*
X34934600Y-82937400D02*
X37632000Y-80240000D01*
X23000000Y-92540000D02*
X24188900Y-92540000D01*
X24188900Y-92540000D02*
X24188900Y-92168400D01*
X24188900Y-92168400D02*
X25006200Y-91351100D01*
X25006200Y-91351100D02*
X41553800Y-91351100D01*
X41553800Y-91351100D02*
X50835500Y-82069400D01*
X50835500Y-82069400D02*
X55232800Y-82069400D01*
X55232800Y-82069400D02*
X56543600Y-80758600D01*
X56543600Y-80758600D02*
X56543600Y-79742200D01*
X56543600Y-79742200D02*
X55465700Y-78664300D01*
X55465700Y-78664300D02*
X41747700Y-78664300D01*
X41747700Y-78664300D02*
X40172000Y-80240000D01*
X35722000Y-85371300D02*
X40120700Y-85371300D01*
X40120700Y-85371300D02*
X45252000Y-80240000D01*
X47792000Y-80240000D02*
X46666700Y-80240000D01*
X23000000Y-90000000D02*
X23000000Y-88811100D01*
X23000000Y-88811100D02*
X22628500Y-88811100D01*
X22628500Y-88811100D02*
X21811000Y-87993600D01*
X21811000Y-87993600D02*
X21811000Y-86923300D01*
X21811000Y-86923300D02*
X22478900Y-86255400D01*
X22478900Y-86255400D02*
X40932600Y-86255400D01*
X40932600Y-86255400D02*
X46666700Y-80521300D01*
X46666700Y-80521300D02*
X46666700Y-80240000D01*
X49206700Y-80240000D02*
X49206700Y-80444500D01*
X49206700Y-80444500D02*
X42191200Y-87460000D01*
X42191200Y-87460000D02*
X26728900Y-87460000D01*
X25540000Y-87460000D02*
X26728900Y-87460000D01*
X50332000Y-80240000D02*
X49206700Y-80240000D01*
X52872000Y-80240000D02*
X51746700Y-80240000D01*
X23000000Y-87460000D02*
X24188900Y-87460000D01*
X24188900Y-87460000D02*
X24188900Y-87831500D01*
X24188900Y-87831500D02*
X25022100Y-88664700D01*
X25022100Y-88664700D02*
X43498900Y-88664700D01*
X43498900Y-88664700D02*
X51746700Y-80416900D01*
X51746700Y-80416900D02*
X51746700Y-80240000D01*
X55412000Y-80240000D02*
X54286700Y-80240000D01*
X25540000Y-84920000D02*
X26728900Y-84920000D01*
X26728900Y-84920000D02*
X27018000Y-84630900D01*
X27018000Y-84630900D02*
X39914200Y-84630900D01*
X39914200Y-84630900D02*
X43982000Y-80563100D01*
X43982000Y-80563100D02*
X43982000Y-79875000D01*
X43982000Y-79875000D02*
X44742300Y-79114700D01*
X44742300Y-79114700D02*
X53442800Y-79114700D01*
X53442800Y-79114700D02*
X54286700Y-79958600D01*
X54286700Y-79958600D02*
X54286700Y-80240000D01*
X42712000Y-80240000D02*
X41586700Y-80240000D01*
X23000000Y-84920000D02*
X24188900Y-84920000D01*
X24188900Y-84920000D02*
X24188900Y-84548400D01*
X24188900Y-84548400D02*
X25006200Y-83731100D01*
X25006200Y-83731100D02*
X38376900Y-83731100D01*
X38376900Y-83731100D02*
X41586700Y-80521300D01*
X41586700Y-80521300D02*
X41586700Y-80240000D01*
X24188900Y-82380000D02*
X24188900Y-82008500D01*
X24188900Y-82008500D02*
X25023600Y-81173800D01*
X25023600Y-81173800D02*
X33926400Y-81173800D01*
X33926400Y-81173800D02*
X34154400Y-81401800D01*
X34154400Y-81401800D02*
X35531800Y-81401800D01*
X35531800Y-81401800D02*
X36480300Y-80453300D01*
X36480300Y-80453300D02*
X36480300Y-79327500D01*
X36480300Y-79327500D02*
X38902000Y-76905800D01*
X38902000Y-76905800D02*
X38902000Y-72287900D01*
X38902000Y-72287900D02*
X43347800Y-67842100D01*
X43347800Y-67842100D02*
X44174700Y-67842100D01*
X78117800Y-61835400D02*
X77978000Y-61975200D01*
X77978000Y-61975200D02*
X77978000Y-64406700D01*
X92283100Y-49784000D02*
X80837200Y-61229900D01*
X80837200Y-61229900D02*
X78723300Y-61229900D01*
X78723300Y-61229900D02*
X78117800Y-61835400D01*
X64117300Y-68326000D02*
X73003800Y-59439500D01*
X73003800Y-59439500D02*
X75721800Y-59439500D01*
X75721800Y-59439500D02*
X78117800Y-61835400D01*
X62992000Y-68326000D02*
X64117300Y-68326000D01*
X23000000Y-82380000D02*
X24188900Y-82380000D01*
X93472000Y-49784000D02*
X92283100Y-49784000D01*
X77978000Y-65532000D02*
X77978000Y-64406700D01*
X107070400Y-90378100D02*
X107442000Y-90378100D01*
X107442000Y-74975900D02*
X107070400Y-74975900D01*
X107070400Y-74975900D02*
X106253100Y-75793200D01*
X106253100Y-75793200D02*
X106253100Y-89560800D01*
X106253100Y-89560800D02*
X107070400Y-90378100D01*
X107070400Y-90378100D02*
X106090900Y-91357600D01*
X106090900Y-91357600D02*
X106090900Y-91567000D01*
X104902000Y-91567000D02*
X106090900Y-91567000D01*
X107442000Y-73787000D02*
X107442000Y-74975900D01*
X107442000Y-71247000D02*
X107442000Y-73787000D01*
X107442000Y-91567000D02*
X107442000Y-90378100D01*
D22*
X35092000Y-78989700D02*
X36362000Y-77719700D01*
X36362000Y-77719700D02*
X36362000Y-68706400D01*
X36362000Y-68706400D02*
X40860400Y-64208000D01*
X35342000Y-58740000D02*
X35342000Y-57489700D01*
X35592000Y-30370300D02*
X34265900Y-31696400D01*
X34265900Y-31696400D02*
X34265900Y-45296600D01*
X34265900Y-45296600D02*
X34047200Y-45515300D01*
X34047200Y-45515300D02*
X34047200Y-56194900D01*
X34047200Y-56194900D02*
X35342000Y-57489700D01*
X35592000Y-29120000D02*
X35592000Y-30370300D01*
X35092000Y-80240000D02*
X35092000Y-78989700D01*
X35092000Y-80240000D02*
X33841700Y-80240000D01*
X25540000Y-79840000D02*
X33441700Y-79840000D01*
X33441700Y-79840000D02*
X33841700Y-80240000D01*
X25540000Y-77300000D02*
X25540000Y-79840000D01*
D21*
X35092000Y-72620000D02*
X33966700Y-72620000D01*
X23000000Y-77300000D02*
X24188900Y-77300000D01*
X24188900Y-77300000D02*
X24188900Y-76928400D01*
X24188900Y-76928400D02*
X25006200Y-76111100D01*
X25006200Y-76111100D02*
X30475600Y-76111100D01*
X30475600Y-76111100D02*
X33966700Y-72620000D01*
X96012000Y-47838400D02*
X97852700Y-49679100D01*
X97852700Y-49679100D02*
X97852700Y-51779100D01*
X97852700Y-51779100D02*
X98124300Y-52050700D01*
X98124300Y-52050700D02*
X98124300Y-62911700D01*
X98124300Y-62911700D02*
X96012000Y-65024000D01*
X77978000Y-82186700D02*
X78259400Y-82186700D01*
X78259400Y-82186700D02*
X79824300Y-80621800D01*
X79824300Y-80621800D02*
X79824300Y-79874100D01*
X79824300Y-79874100D02*
X85276400Y-74422000D01*
X85276400Y-74422000D02*
X85923000Y-74422000D01*
X85923000Y-74422000D02*
X88408500Y-71936500D01*
X88408500Y-71936500D02*
X88408500Y-67552000D01*
X88408500Y-67552000D02*
X90936500Y-65024000D01*
X90936500Y-65024000D02*
X92283100Y-65024000D01*
X104902000Y-68707000D02*
X106253100Y-68707000D01*
X107442000Y-68707000D02*
X106253100Y-68707000D01*
X38227000Y-98104000D02*
X34570000Y-98104000D01*
X93472000Y-47244000D02*
X94660900Y-47244000D01*
X96012000Y-47838400D02*
X95255300Y-47838400D01*
X95255300Y-47838400D02*
X94660900Y-47244000D01*
X96012000Y-47244000D02*
X96012000Y-47838400D01*
X35592000Y-37865300D02*
X35342000Y-38115300D01*
X35342000Y-38115300D02*
X35342000Y-49994700D01*
X35592000Y-36740000D02*
X35592000Y-37865300D01*
X35342000Y-51120000D02*
X35342000Y-49994700D01*
X73840000Y-107619000D02*
X73840000Y-106593700D01*
X73840000Y-106593700D02*
X75169700Y-105264000D01*
X75169700Y-105264000D02*
X75169700Y-99115300D01*
X75169700Y-99115300D02*
X72460800Y-96406400D01*
X72460800Y-96406400D02*
X72460800Y-93981100D01*
X72460800Y-93981100D02*
X77978000Y-88463900D01*
X77978000Y-88463900D02*
X77978000Y-83312000D01*
X104902000Y-68707000D02*
X104902000Y-71247000D01*
X93472000Y-65024000D02*
X92283100Y-65024000D01*
X104902000Y-71247000D02*
X104902000Y-73787000D01*
X77978000Y-83312000D02*
X77978000Y-82186700D01*
X25540000Y-74760000D02*
X28860300Y-74760000D01*
X28860300Y-74760000D02*
X40529000Y-63091300D01*
X40529000Y-63091300D02*
X52915500Y-63091300D01*
X52915500Y-63091300D02*
X56842300Y-59164500D01*
X56842300Y-59164500D02*
X56842300Y-58263300D01*
X56842300Y-58263300D02*
X56141400Y-57562400D01*
X56141400Y-57562400D02*
X49219600Y-57562400D01*
X49219600Y-57562400D02*
X48042000Y-58740000D01*
X23000000Y-73571100D02*
X22628500Y-73571100D01*
X22628500Y-73571100D02*
X21805200Y-72747800D01*
X21805200Y-72747800D02*
X21805200Y-71662100D01*
X21805200Y-71662100D02*
X22460900Y-71006400D01*
X22460900Y-71006400D02*
X30703200Y-71006400D01*
X30703200Y-71006400D02*
X41844300Y-59865300D01*
X41844300Y-59865300D02*
X48612800Y-59865300D01*
X48612800Y-59865300D02*
X49456700Y-59021400D01*
X49456700Y-59021400D02*
X49456700Y-58740000D01*
X50582000Y-58740000D02*
X49456700Y-58740000D01*
X23000000Y-74760000D02*
X23000000Y-73571100D01*
X51996700Y-58740000D02*
X51996700Y-58944600D01*
X51996700Y-58944600D02*
X48946900Y-61994400D01*
X48946900Y-61994400D02*
X40352100Y-61994400D01*
X40352100Y-61994400D02*
X30126500Y-72220000D01*
X30126500Y-72220000D02*
X26728900Y-72220000D01*
X25540000Y-72220000D02*
X26728900Y-72220000D01*
X53122000Y-58740000D02*
X51996700Y-58740000D01*
X54536700Y-58740000D02*
X54536700Y-58944500D01*
X54536700Y-58944500D02*
X50913000Y-62568200D01*
X50913000Y-62568200D02*
X40415200Y-62568200D01*
X40415200Y-62568200D02*
X29558700Y-73424700D01*
X29558700Y-73424700D02*
X25022100Y-73424700D01*
X25022100Y-73424700D02*
X24188900Y-72591500D01*
X24188900Y-72591500D02*
X24188900Y-72220000D01*
X55662000Y-58740000D02*
X54536700Y-58740000D01*
X23000000Y-72220000D02*
X24188900Y-72220000D01*
X48292000Y-36740000D02*
X47166700Y-36740000D01*
X36386800Y-43366400D02*
X40821600Y-43366400D01*
X40821600Y-43366400D02*
X47166700Y-37021300D01*
X47166700Y-37021300D02*
X47166700Y-36740000D01*
X50832000Y-37865300D02*
X39152000Y-49545300D01*
X39152000Y-49545300D02*
X39152000Y-52167900D01*
X39152000Y-52167900D02*
X36467400Y-54852500D01*
X36467400Y-54852500D02*
X36467400Y-59230200D01*
X36467400Y-59230200D02*
X35822300Y-59875300D01*
X35822300Y-59875300D02*
X34875900Y-59875300D01*
X34875900Y-59875300D02*
X27355200Y-52354600D01*
X27355200Y-52354600D02*
X27355200Y-52015900D01*
X27355200Y-52015900D02*
X25888200Y-50548900D01*
X25888200Y-50548900D02*
X25006200Y-50548900D01*
X25006200Y-50548900D02*
X24188900Y-49731600D01*
X24188900Y-49731600D02*
X24188900Y-49360000D01*
X50832000Y-36740000D02*
X50832000Y-37865300D01*
X23000000Y-49360000D02*
X24188900Y-49360000D01*
X53372000Y-36740000D02*
X52246700Y-36740000D01*
X25540000Y-46820000D02*
X25540000Y-45631100D01*
X25540000Y-45631100D02*
X25911500Y-45631100D01*
X25911500Y-45631100D02*
X33690500Y-37852100D01*
X33690500Y-37852100D02*
X33690500Y-29393900D01*
X33690500Y-29393900D02*
X35090200Y-27994200D01*
X35090200Y-27994200D02*
X36122700Y-27994200D01*
X36122700Y-27994200D02*
X36862000Y-28733500D01*
X36862000Y-28733500D02*
X36862000Y-29452800D01*
X36862000Y-29452800D02*
X43023900Y-35614700D01*
X43023900Y-35614700D02*
X51402800Y-35614700D01*
X51402800Y-35614700D02*
X52246700Y-36458600D01*
X52246700Y-36458600D02*
X52246700Y-36740000D01*
X55912000Y-36740000D02*
X54786700Y-36740000D01*
X23000000Y-46820000D02*
X23000000Y-45631100D01*
X23000000Y-45631100D02*
X23371600Y-45631100D01*
X23371600Y-45631100D02*
X24188900Y-44813800D01*
X24188900Y-44813800D02*
X24188900Y-43927800D01*
X24188900Y-43927800D02*
X25106700Y-43010000D01*
X25106700Y-43010000D02*
X25957500Y-43010000D01*
X25957500Y-43010000D02*
X32017900Y-36949600D01*
X32017900Y-36949600D02*
X32017900Y-30429600D01*
X32017900Y-30429600D02*
X34976000Y-27471500D01*
X34976000Y-27471500D02*
X38103000Y-27471500D01*
X38103000Y-27471500D02*
X39402000Y-28770500D01*
X39402000Y-28770500D02*
X39402000Y-29511500D01*
X39402000Y-29511500D02*
X44235100Y-34344600D01*
X44235100Y-34344600D02*
X52672600Y-34344600D01*
X52672600Y-34344600D02*
X54786700Y-36458700D01*
X54786700Y-36458700D02*
X54786700Y-36740000D01*
X25540000Y-40551100D02*
X25911500Y-40551100D01*
X25911500Y-40551100D02*
X26780300Y-39682300D01*
X26780300Y-39682300D02*
X26780300Y-38729900D01*
X26780300Y-38729900D02*
X26035700Y-37985300D01*
X26035700Y-37985300D02*
X25182900Y-37985300D01*
X25182900Y-37985300D02*
X24189000Y-36991400D01*
X24189000Y-36991400D02*
X24189000Y-36145700D01*
X24189000Y-36145700D02*
X23433300Y-35390000D01*
X23433300Y-35390000D02*
X22520800Y-35390000D01*
X22520800Y-35390000D02*
X18946400Y-38964400D01*
X18946400Y-38964400D02*
X18946400Y-99202500D01*
X18946400Y-99202500D02*
X29867700Y-110123800D01*
X29867700Y-110123800D02*
X84013200Y-110123800D01*
X84013200Y-110123800D02*
X92364100Y-101772900D01*
X92364100Y-101772900D02*
X94005800Y-101772900D01*
X94005800Y-101772900D02*
X94823100Y-100955600D01*
X94823100Y-100955600D02*
X94823100Y-100584000D01*
X96012000Y-100584000D02*
X94823100Y-100584000D01*
X25540000Y-41740000D02*
X25540000Y-40551100D01*
X24351100Y-39200000D02*
X24351100Y-38828500D01*
X24351100Y-38828500D02*
X23507700Y-37985100D01*
X23507700Y-37985100D02*
X22478500Y-37985100D01*
X22478500Y-37985100D02*
X19416700Y-41046900D01*
X19416700Y-41046900D02*
X19416700Y-98964800D01*
X19416700Y-98964800D02*
X30123900Y-109672000D01*
X30123900Y-109672000D02*
X80528700Y-109672000D01*
X80528700Y-109672000D02*
X91877700Y-98323000D01*
X91877700Y-98323000D02*
X91877700Y-97935600D01*
X91877700Y-97935600D02*
X93120400Y-96692900D01*
X93120400Y-96692900D02*
X94005800Y-96692900D01*
X94005800Y-96692900D02*
X94823100Y-95875600D01*
X94823100Y-95875600D02*
X94823100Y-95504000D01*
X96012000Y-95504000D02*
X94823100Y-95504000D01*
X25540000Y-39200000D02*
X24351100Y-39200000D01*
X23000000Y-40388900D02*
X22628500Y-40388900D01*
X22628500Y-40388900D02*
X19903000Y-43114400D01*
X19903000Y-43114400D02*
X19903000Y-98750100D01*
X19903000Y-98750100D02*
X30312600Y-109159700D01*
X30312600Y-109159700D02*
X76626400Y-109159700D01*
X76626400Y-109159700D02*
X79342400Y-106443700D01*
X79342400Y-106443700D02*
X81228900Y-106443700D01*
X81228900Y-106443700D02*
X82415400Y-105257200D01*
X82415400Y-105257200D02*
X82415400Y-104867200D01*
X82415400Y-104867200D02*
X93129700Y-94152900D01*
X93129700Y-94152900D02*
X94005800Y-94152900D01*
X94005800Y-94152900D02*
X94823100Y-93335600D01*
X94823100Y-93335600D02*
X94823100Y-92964000D01*
X96012000Y-92964000D02*
X94823100Y-92964000D01*
X23000000Y-39200000D02*
X23000000Y-40388900D01*
X94823100Y-90424000D02*
X94823100Y-90052400D01*
X94823100Y-90052400D02*
X94005800Y-89235100D01*
X94005800Y-89235100D02*
X93134600Y-89235100D01*
X93134600Y-89235100D02*
X90659600Y-86760100D01*
X90659600Y-86760100D02*
X90659600Y-67049200D01*
X90659600Y-67049200D02*
X91109100Y-66599700D01*
X96012000Y-90424000D02*
X94823100Y-90424000D01*
X97200900Y-85344000D02*
X97200900Y-85566900D01*
X97200900Y-85566900D02*
X104431300Y-92797300D01*
X104431300Y-92797300D02*
X107904700Y-92797300D01*
X107904700Y-92797300D02*
X108642500Y-92059500D01*
X108642500Y-92059500D02*
X108642500Y-55013500D01*
X108642500Y-55013500D02*
X79137500Y-25508500D01*
X79137500Y-25508500D02*
X35340400Y-25508500D01*
X35340400Y-25508500D02*
X26728900Y-34120000D01*
X96012000Y-85344000D02*
X97200900Y-85344000D01*
X25540000Y-34120000D02*
X26728900Y-34120000D01*
X96012000Y-81615100D02*
X96383500Y-81615100D01*
X96383500Y-81615100D02*
X101026600Y-76972000D01*
X101026600Y-76972000D02*
X101026600Y-51593800D01*
X101026600Y-51593800D02*
X100827700Y-51394900D01*
X96012000Y-82804000D02*
X96012000Y-81615100D01*
X94823100Y-80264000D02*
X94823100Y-79892400D01*
X94823100Y-79892400D02*
X94005800Y-79075100D01*
X94005800Y-79075100D02*
X93133300Y-79075100D01*
X93133300Y-79075100D02*
X91109900Y-77051700D01*
X91109900Y-77051700D02*
X91109900Y-67814400D01*
X91109900Y-67814400D02*
X92139800Y-66784500D01*
X96012000Y-80264000D02*
X94823100Y-80264000D01*
X96012000Y-77724000D02*
X94823100Y-77724000D01*
X91843500Y-68219500D02*
X91843500Y-75287600D01*
X91843500Y-75287600D02*
X93091000Y-76535100D01*
X93091000Y-76535100D02*
X94005800Y-76535100D01*
X94005800Y-76535100D02*
X94823100Y-77352400D01*
X94823100Y-77352400D02*
X94823100Y-77724000D01*
X96012000Y-75184000D02*
X96012000Y-73995100D01*
X100301300Y-60962900D02*
X100301300Y-70077300D01*
X100301300Y-70077300D02*
X96383500Y-73995100D01*
X96383500Y-73995100D02*
X96012000Y-73995100D01*
X96012000Y-68915100D02*
X96383500Y-68915100D01*
X96383500Y-68915100D02*
X99303300Y-65995300D01*
X99303300Y-65995300D02*
X99303300Y-49858100D01*
X99303300Y-49858100D02*
X98940600Y-49495400D01*
X96012000Y-70104000D02*
X96012000Y-68915100D01*
X96012000Y-67564000D02*
X96012000Y-66375100D01*
X98578000Y-51478700D02*
X98578000Y-64165500D01*
X98578000Y-64165500D02*
X96368400Y-66375100D01*
X96368400Y-66375100D02*
X96012000Y-66375100D01*
X62992000Y-72280700D02*
X63322200Y-72280700D01*
X63322200Y-72280700D02*
X75418000Y-60184900D01*
X62992000Y-73406000D02*
X62992000Y-72280700D01*
X62992000Y-77360700D02*
X63273400Y-77360700D01*
X63273400Y-77360700D02*
X64117300Y-76516800D01*
X64117300Y-76516800D02*
X64117300Y-73160900D01*
X64117300Y-73160900D02*
X76223600Y-61054600D01*
X62992000Y-78486000D02*
X62992000Y-77360700D01*
X86751200Y-59551000D02*
X79644800Y-66657400D01*
X79644800Y-66657400D02*
X77782600Y-66657400D01*
X77782600Y-66657400D02*
X71737300Y-72702700D01*
X71737300Y-72702700D02*
X71737300Y-73406000D01*
X70612000Y-73406000D02*
X71737300Y-73406000D01*
X94823100Y-57404000D02*
X94823100Y-57775600D01*
X94823100Y-57775600D02*
X94005800Y-58592900D01*
X94005800Y-58592900D02*
X93115100Y-58592900D01*
X93115100Y-58592900D02*
X87127500Y-64580500D01*
X87127500Y-64580500D02*
X87127500Y-65670900D01*
X87127500Y-65670900D02*
X85996400Y-66802000D01*
X85996400Y-66802000D02*
X85263000Y-66802000D01*
X85263000Y-66802000D02*
X83025800Y-69039200D01*
X83025800Y-69039200D02*
X83025800Y-72249900D01*
X83025800Y-72249900D02*
X78209600Y-77066100D01*
X78209600Y-77066100D02*
X77531100Y-77066100D01*
X77531100Y-77066100D02*
X71737300Y-82859900D01*
X71737300Y-82859900D02*
X71737300Y-84136800D01*
X71737300Y-84136800D02*
X70893400Y-84980700D01*
X70893400Y-84980700D02*
X70612000Y-84980700D01*
X70612000Y-86106000D02*
X70612000Y-84980700D01*
X96012000Y-57404000D02*
X94823100Y-57404000D01*
X70612000Y-81026000D02*
X70612000Y-79900700D01*
X93472000Y-57404000D02*
X92283100Y-57404000D01*
X92283100Y-57404000D02*
X92120900Y-57241800D01*
X92120900Y-57241800D02*
X91360200Y-57241800D01*
X91360200Y-57241800D02*
X79528700Y-69073300D01*
X79528700Y-69073300D02*
X79528700Y-70656000D01*
X79528700Y-70656000D02*
X78302700Y-71882000D01*
X78302700Y-71882000D02*
X77577700Y-71882000D01*
X77577700Y-71882000D02*
X71737300Y-77722400D01*
X71737300Y-77722400D02*
X71737300Y-79056800D01*
X71737300Y-79056800D02*
X70893400Y-79900700D01*
X70893400Y-79900700D02*
X70612000Y-79900700D01*
X77978000Y-74566700D02*
X78259300Y-74566700D01*
X78259300Y-74566700D02*
X82563800Y-70262200D01*
X82563800Y-70262200D02*
X82563800Y-66964300D01*
X82563800Y-66964300D02*
X91510900Y-58017200D01*
X91510900Y-58017200D02*
X91620200Y-58017200D01*
X77978000Y-75692000D02*
X77978000Y-74566700D01*
X93472000Y-54864000D02*
X94660900Y-54864000D01*
X94660900Y-54864000D02*
X94660900Y-55235600D01*
X94660900Y-55235600D02*
X95478200Y-56052900D01*
X95478200Y-56052900D02*
X96396600Y-56052900D01*
X96396600Y-56052900D02*
X97223700Y-56880000D01*
X97223700Y-56880000D02*
X97223700Y-60461200D01*
X97223700Y-60461200D02*
X96470900Y-61214000D01*
X96470900Y-61214000D02*
X93055000Y-61214000D01*
X93055000Y-61214000D02*
X87813500Y-66455500D01*
X87813500Y-66455500D02*
X87813500Y-67470200D01*
X87813500Y-67470200D02*
X85941700Y-69342000D01*
X85941700Y-69342000D02*
X85209700Y-69342000D01*
X85209700Y-69342000D02*
X83701200Y-70850500D01*
X83701200Y-70850500D02*
X83701200Y-75048800D01*
X83701200Y-75048800D02*
X77978000Y-80772000D01*
X85598000Y-83312000D02*
X89568000Y-79342000D01*
X89568000Y-79342000D02*
X89568000Y-67109100D01*
X89568000Y-67109100D02*
X90832900Y-65844200D01*
X90832900Y-65844200D02*
X92392200Y-65844200D01*
X92392200Y-65844200D02*
X92770400Y-66222400D01*
X92770400Y-66222400D02*
X93976900Y-66222400D01*
X93976900Y-66222400D02*
X94661000Y-65538300D01*
X94661000Y-65538300D02*
X94661000Y-64671700D01*
X94661000Y-64671700D02*
X95497700Y-63835000D01*
X95497700Y-63835000D02*
X96407000Y-63835000D01*
X96407000Y-63835000D02*
X97674000Y-62568000D01*
X97674000Y-62568000D02*
X97674000Y-54803400D01*
X97674000Y-54803400D02*
X96383500Y-53512900D01*
X96383500Y-53512900D02*
X96012000Y-53512900D01*
X96012000Y-52324000D02*
X96012000Y-53512900D01*
X93472000Y-53512900D02*
X93100400Y-53512900D01*
X93100400Y-53512900D02*
X87647000Y-58966300D01*
X87647000Y-58966300D02*
X87647000Y-60067900D01*
X87647000Y-60067900D02*
X78228200Y-69486700D01*
X78228200Y-69486700D02*
X77978000Y-69486700D01*
X77978000Y-70612000D02*
X77978000Y-69486700D01*
X93472000Y-52324000D02*
X93472000Y-53512900D01*
X66040000Y-26670000D02*
X64914700Y-26670000D01*
X48292000Y-29120000D02*
X49417300Y-29120000D01*
X49417300Y-29120000D02*
X49417300Y-28838700D01*
X49417300Y-28838700D02*
X51586000Y-26670000D01*
X51586000Y-26670000D02*
X64914700Y-26670000D01*
X73660000Y-29210000D02*
X72534700Y-29210000D01*
X48042000Y-51120000D02*
X49167300Y-51120000D01*
X49167300Y-51120000D02*
X49167300Y-50838700D01*
X49167300Y-50838700D02*
X64446000Y-35560000D01*
X64446000Y-35560000D02*
X66466000Y-35560000D01*
X66466000Y-35560000D02*
X72534700Y-29491300D01*
X72534700Y-29491300D02*
X72534700Y-29210000D01*
X73660000Y-31750000D02*
X72534700Y-31750000D01*
X50582000Y-51120000D02*
X51707300Y-51120000D01*
X51707300Y-51120000D02*
X51707300Y-50838700D01*
X51707300Y-50838700D02*
X64446000Y-38100000D01*
X64446000Y-38100000D02*
X66466000Y-38100000D01*
X66466000Y-38100000D02*
X72534700Y-32031300D01*
X72534700Y-32031300D02*
X72534700Y-31750000D01*
X73660000Y-34290000D02*
X72534700Y-34290000D01*
X53122000Y-51120000D02*
X54247300Y-51120000D01*
X54247300Y-51120000D02*
X54247300Y-50416700D01*
X54247300Y-50416700D02*
X64024000Y-40640000D01*
X64024000Y-40640000D02*
X66466000Y-40640000D01*
X66466000Y-40640000D02*
X72534700Y-34571300D01*
X72534700Y-34571300D02*
X72534700Y-34290000D01*
X73660000Y-36830000D02*
X72534700Y-36830000D01*
X55662000Y-51120000D02*
X56787300Y-51120000D01*
X56787300Y-51120000D02*
X64727300Y-43180000D01*
X64727300Y-43180000D02*
X66466000Y-43180000D01*
X66466000Y-43180000D02*
X72534700Y-37111300D01*
X72534700Y-37111300D02*
X72534700Y-36830000D01*
X52590000Y-101980000D02*
X49428000Y-98818000D01*
X49428000Y-98818000D02*
X49428000Y-87874200D01*
X49428000Y-87874200D02*
X54623500Y-82678700D01*
X54623500Y-82678700D02*
X55260400Y-82678700D01*
X55260400Y-82678700D02*
X56993900Y-80945200D01*
X56993900Y-80945200D02*
X56993900Y-79555600D01*
X56993900Y-79555600D02*
X55618000Y-78179700D01*
X55618000Y-78179700D02*
X46575700Y-78179700D01*
X46575700Y-78179700D02*
X41297300Y-72901300D01*
X41297300Y-72901300D02*
X41297300Y-72620000D01*
X40172000Y-72620000D02*
X41297300Y-72620000D01*
X52590000Y-105079000D02*
X52590000Y-101980000D01*
X59840000Y-101980000D02*
X56251400Y-101980000D01*
X56251400Y-101980000D02*
X49881900Y-95610500D01*
X49881900Y-95610500D02*
X49881900Y-88446100D01*
X49881900Y-88446100D02*
X51151900Y-87176100D01*
X59840000Y-101980000D02*
X59840000Y-105079000D01*
X66590000Y-101980000D02*
X61186100Y-96576100D01*
X61186100Y-96576100D02*
X52809300Y-96576100D01*
X52809300Y-96576100D02*
X51256700Y-95023500D01*
X51256700Y-95023500D02*
X51256700Y-92860700D01*
X51256700Y-92860700D02*
X58344800Y-85772600D01*
X58344800Y-85772600D02*
X58344800Y-78995800D01*
X58344800Y-78995800D02*
X54286600Y-74937600D01*
X54286600Y-74937600D02*
X54286600Y-64338000D01*
X54286600Y-64338000D02*
X58213600Y-60411000D01*
X58213600Y-60411000D02*
X58213600Y-57691100D01*
X58213600Y-57691100D02*
X56277200Y-55754700D01*
X56277200Y-55754700D02*
X50980600Y-55754700D01*
X50980600Y-55754700D02*
X46627300Y-51401400D01*
X46627300Y-51401400D02*
X46627300Y-51120000D01*
X66590000Y-101980000D02*
X66590000Y-105079000D01*
X45502000Y-51120000D02*
X46627300Y-51120000D01*
X73840000Y-105079000D02*
X72808100Y-106110900D01*
X72808100Y-106110900D02*
X66163900Y-106110900D01*
X66163900Y-106110900D02*
X62111400Y-102058400D01*
X62111400Y-102058400D02*
X62111400Y-101740000D01*
X62111400Y-101740000D02*
X60066800Y-99695400D01*
X60066800Y-99695400D02*
X55240600Y-99695400D01*
X55240600Y-99695400D02*
X50782500Y-95237300D01*
X50782500Y-95237300D02*
X50782500Y-91993700D01*
X50782500Y-91993700D02*
X57894500Y-84881700D01*
X57894500Y-84881700D02*
X57894500Y-79182400D01*
X57894500Y-79182400D02*
X55991200Y-77279100D01*
X55991200Y-77279100D02*
X55889800Y-77279100D01*
X55889800Y-77279100D02*
X51745000Y-73134300D01*
X51745000Y-73134300D02*
X51745000Y-66242700D01*
X51745000Y-66242700D02*
X57759900Y-60227800D01*
X57759900Y-60227800D02*
X57759900Y-57898700D01*
X57759900Y-57898700D02*
X56066200Y-56205000D01*
X56066200Y-56205000D02*
X48891000Y-56205000D01*
X48891000Y-56205000D02*
X44087300Y-51401300D01*
X44087300Y-51401300D02*
X44087300Y-51120000D01*
X42962000Y-51120000D02*
X44087300Y-51120000D01*
X73840000Y-101980000D02*
X73840000Y-105079000D01*
X81090000Y-105079000D02*
X78495700Y-105079000D01*
X78495700Y-105079000D02*
X74865400Y-108709300D01*
X74865400Y-108709300D02*
X72602800Y-108709300D01*
X72602800Y-108709300D02*
X70454800Y-106561300D01*
X70454800Y-106561300D02*
X65948500Y-106561300D01*
X65948500Y-106561300D02*
X61501800Y-102114600D01*
X61501800Y-102114600D02*
X61501800Y-101767300D01*
X61501800Y-101767300D02*
X60039100Y-100304600D01*
X60039100Y-100304600D02*
X55212900Y-100304600D01*
X55212900Y-100304600D02*
X50332200Y-95423900D01*
X50332200Y-95423900D02*
X50332200Y-91059900D01*
X50332200Y-91059900D02*
X57444200Y-83947900D01*
X57444200Y-83947900D02*
X57444200Y-79369000D01*
X57444200Y-79369000D02*
X55804600Y-77729400D01*
X55804600Y-77729400D02*
X55703200Y-77729400D01*
X55703200Y-77729400D02*
X51825000Y-73851200D01*
X51825000Y-73851200D02*
X49929900Y-73851200D01*
X49929900Y-73851200D02*
X49167900Y-73089200D01*
X49167900Y-73089200D02*
X49167900Y-68182900D01*
X49167900Y-68182900D02*
X57292700Y-60058100D01*
X57292700Y-60058100D02*
X57292700Y-58076800D01*
X57292700Y-58076800D02*
X55871200Y-56655300D01*
X55871200Y-56655300D02*
X46801300Y-56655300D01*
X46801300Y-56655300D02*
X41547300Y-51401300D01*
X41547300Y-51401300D02*
X41547300Y-51120000D01*
X40422000Y-51120000D02*
X41547300Y-51120000D01*
X81090000Y-105079000D02*
X81090000Y-101980000D01*
X52590000Y-94480000D02*
X52590000Y-92353800D01*
X52590000Y-92353800D02*
X62647800Y-82296000D01*
X62647800Y-82296000D02*
X63319400Y-82296000D01*
X63319400Y-82296000D02*
X68343000Y-77272400D01*
X68343000Y-77272400D02*
X68343000Y-76587900D01*
X68343000Y-76587900D02*
X70328800Y-74602100D01*
X70328800Y-74602100D02*
X71447900Y-74602100D01*
X71447900Y-74602100D02*
X77978000Y-68072000D01*
X77978000Y-73152000D02*
X76210300Y-74919700D01*
X76210300Y-74919700D02*
X76210300Y-77071500D01*
X76210300Y-77071500D02*
X70985800Y-82296000D01*
X70985800Y-82296000D02*
X70234200Y-82296000D01*
X70234200Y-82296000D02*
X59840000Y-92690200D01*
X59840000Y-92690200D02*
X59840000Y-94480000D01*
X77978000Y-78232000D02*
X77978000Y-79357300D01*
X66590000Y-94480000D02*
X76852700Y-84217300D01*
X76852700Y-84217300D02*
X76852700Y-80201200D01*
X76852700Y-80201200D02*
X77696600Y-79357300D01*
X77696600Y-79357300D02*
X77978000Y-79357300D01*
X85598000Y-80772000D02*
X85598000Y-81897300D01*
X73840000Y-94480000D02*
X75182000Y-95822000D01*
X75182000Y-95822000D02*
X81638800Y-95822000D01*
X81638800Y-95822000D02*
X84472700Y-92988100D01*
X84472700Y-92988100D02*
X84472700Y-82741200D01*
X84472700Y-82741200D02*
X85316600Y-81897300D01*
X85316600Y-81897300D02*
X85598000Y-81897300D01*
X85598000Y-76817300D02*
X85365700Y-76817300D01*
X85365700Y-76817300D02*
X81090000Y-81093000D01*
X81090000Y-81093000D02*
X81090000Y-94480000D01*
X85598000Y-75692000D02*
X85598000Y-76817300D01*
X42712000Y-72620000D02*
X43837300Y-72620000D01*
X43837300Y-72620000D02*
X43837300Y-72338700D01*
X43837300Y-72338700D02*
X47241000Y-68935000D01*
X47241000Y-68935000D02*
X48314000Y-68935000D01*
X46377300Y-72620000D02*
X46377300Y-72901300D01*
X46377300Y-72901300D02*
X48230200Y-74754200D01*
X48230200Y-74754200D02*
X51702200Y-74754200D01*
X45252000Y-72620000D02*
X46377300Y-72620000D01*
X61866700Y-70866000D02*
X58291300Y-70866000D01*
X58291300Y-70866000D02*
X56537300Y-72620000D01*
X62992000Y-70866000D02*
X61866700Y-70866000D01*
X55412000Y-72620000D02*
X56537300Y-72620000D01*
D23*
G36*
X79797278Y-107285670D02*
G01*
X79919799Y-107492000D01*
X80963000Y-107492000D01*
X80963000Y-107472000D01*
X81217000Y-107472000D01*
X81217000Y-107492000D01*
X81237000Y-107492000D01*
X81237000Y-107746000D01*
X81217000Y-107746000D01*
X81217000Y-107766000D01*
X80963000Y-107766000D01*
X80963000Y-107746000D01*
X79919799Y-107746000D01*
X79797278Y-107952330D01*
X79887147Y-108198123D01*
X80023241Y-108421660D01*
X80200330Y-108614351D01*
X80380122Y-108745777D01*
X80213899Y-108912000D01*
X77948901Y-108912000D01*
X79657202Y-107203700D01*
X79827249Y-107203700D01*
X79797278Y-107285670D01*
G37*
X79797278Y-107285670D02*
X79919799Y-107492000D01*
X80963000Y-107492000D01*
X80963000Y-107472000D01*
X81217000Y-107472000D01*
X81217000Y-107492000D01*
X81237000Y-107492000D01*
X81237000Y-107746000D01*
X81217000Y-107746000D01*
X81217000Y-107766000D01*
X80963000Y-107766000D01*
X80963000Y-107746000D01*
X79919799Y-107746000D01*
X79797278Y-107952330D01*
X79887147Y-108198123D01*
X80023241Y-108421660D01*
X80200330Y-108614351D01*
X80380122Y-108745777D01*
X80213899Y-108912000D01*
X77948901Y-108912000D01*
X79657202Y-107203700D01*
X79827249Y-107203700D01*
X79797278Y-107285670D01*
G36*
X48916998Y-87310401D02*
G01*
X48888000Y-87334199D01*
X48864202Y-87363197D01*
X48864201Y-87363198D01*
X48793026Y-87449924D01*
X48722454Y-87581954D01*
X48708230Y-87628846D01*
X48678998Y-87725214D01*
X48670536Y-87811126D01*
X48664324Y-87874200D01*
X48668001Y-87911532D01*
X48668000Y-98780678D01*
X48664324Y-98818000D01*
X48668000Y-98855322D01*
X48668000Y-98855332D01*
X48678997Y-98966985D01*
X48712819Y-99078482D01*
X48722454Y-99110246D01*
X48793026Y-99242276D01*
X48832275Y-99290101D01*
X48887999Y-99358001D01*
X48917003Y-99381804D01*
X51023823Y-101488625D01*
X51017832Y-101503088D01*
X50955000Y-101818967D01*
X50955000Y-102141033D01*
X51017832Y-102456912D01*
X51141082Y-102754463D01*
X51320013Y-103022252D01*
X51547748Y-103249987D01*
X51815537Y-103428918D01*
X51830001Y-103434909D01*
X51830000Y-103981225D01*
X51738987Y-104042038D01*
X51553038Y-104227987D01*
X51406939Y-104446641D01*
X51306304Y-104689595D01*
X51255000Y-104947514D01*
X51255000Y-105210486D01*
X51306304Y-105468405D01*
X51406939Y-105711359D01*
X51553038Y-105930013D01*
X51738987Y-106115962D01*
X51957641Y-106262061D01*
X52173550Y-106351494D01*
X52148956Y-106358953D01*
X51911608Y-106469208D01*
X51700330Y-106623649D01*
X51523241Y-106816340D01*
X51387147Y-107039877D01*
X51297278Y-107285670D01*
X51419799Y-107492000D01*
X52463000Y-107492000D01*
X52463000Y-107472000D01*
X52717000Y-107472000D01*
X52717000Y-107492000D01*
X53760201Y-107492000D01*
X53882722Y-107285670D01*
X53792853Y-107039877D01*
X53656759Y-106816340D01*
X53479670Y-106623649D01*
X53268392Y-106469208D01*
X53031044Y-106358953D01*
X53006450Y-106351494D01*
X53222359Y-106262061D01*
X53441013Y-106115962D01*
X53626962Y-105930013D01*
X53773061Y-105711359D01*
X53873696Y-105468405D01*
X53925000Y-105210486D01*
X53925000Y-104947514D01*
X53873696Y-104689595D01*
X53773061Y-104446641D01*
X53626962Y-104227987D01*
X53441013Y-104042038D01*
X53350000Y-103981225D01*
X53350000Y-103434909D01*
X53364463Y-103428918D01*
X53632252Y-103249987D01*
X53859987Y-103022252D01*
X54038918Y-102754463D01*
X54162168Y-102456912D01*
X54225000Y-102141033D01*
X54225000Y-101818967D01*
X54162168Y-101503088D01*
X54038918Y-101205537D01*
X53859987Y-100937748D01*
X53632252Y-100710013D01*
X53364463Y-100531082D01*
X53066912Y-100407832D01*
X52751033Y-100345000D01*
X52428967Y-100345000D01*
X52113088Y-100407832D01*
X52098625Y-100413823D01*
X50188000Y-98503199D01*
X50188000Y-96991401D01*
X55687601Y-102491003D01*
X55711399Y-102520001D01*
X55827124Y-102614974D01*
X55959153Y-102685546D01*
X56102414Y-102729003D01*
X56214067Y-102740000D01*
X56214076Y-102740000D01*
X56251399Y-102743676D01*
X56288722Y-102740000D01*
X58385091Y-102740000D01*
X58391082Y-102754463D01*
X58570013Y-103022252D01*
X58797748Y-103249987D01*
X59065537Y-103428918D01*
X59080000Y-103434909D01*
X59080001Y-103981225D01*
X58988987Y-104042038D01*
X58803038Y-104227987D01*
X58656939Y-104446641D01*
X58556304Y-104689595D01*
X58505000Y-104947514D01*
X58505000Y-105210486D01*
X58556304Y-105468405D01*
X58656939Y-105711359D01*
X58803038Y-105930013D01*
X58988987Y-106115962D01*
X59207641Y-106262061D01*
X59423550Y-106351494D01*
X59398956Y-106358953D01*
X59161608Y-106469208D01*
X58950330Y-106623649D01*
X58773241Y-106816340D01*
X58637147Y-107039877D01*
X58547278Y-107285670D01*
X58669799Y-107492000D01*
X59713000Y-107492000D01*
X59713000Y-107472000D01*
X59967000Y-107472000D01*
X59967000Y-107492000D01*
X61010201Y-107492000D01*
X61132722Y-107285670D01*
X61042853Y-107039877D01*
X60906759Y-106816340D01*
X60729670Y-106623649D01*
X60518392Y-106469208D01*
X60281044Y-106358953D01*
X60256450Y-106351494D01*
X60472359Y-106262061D01*
X60691013Y-106115962D01*
X60876962Y-105930013D01*
X61023061Y-105711359D01*
X61123696Y-105468405D01*
X61175000Y-105210486D01*
X61175000Y-104947514D01*
X61123696Y-104689595D01*
X61023061Y-104446641D01*
X60876962Y-104227987D01*
X60691013Y-104042038D01*
X60600000Y-103981225D01*
X60600000Y-103434909D01*
X60614463Y-103428918D01*
X60882252Y-103249987D01*
X61109987Y-103022252D01*
X61199975Y-102887576D01*
X65377810Y-107065413D01*
X65297278Y-107285670D01*
X65419799Y-107492000D01*
X66463000Y-107492000D01*
X66463000Y-107472000D01*
X66717000Y-107472000D01*
X66717000Y-107492000D01*
X67760201Y-107492000D01*
X67861565Y-107321300D01*
X70139999Y-107321300D01*
X71218398Y-108399700D01*
X67670129Y-108399700D01*
X67792853Y-108198123D01*
X67882722Y-107952330D01*
X67760201Y-107746000D01*
X66717000Y-107746000D01*
X66717000Y-107766000D01*
X66463000Y-107766000D01*
X66463000Y-107746000D01*
X65419799Y-107746000D01*
X65297278Y-107952330D01*
X65387147Y-108198123D01*
X65509871Y-108399700D01*
X60920129Y-108399700D01*
X61042853Y-108198123D01*
X61132722Y-107952330D01*
X61010201Y-107746000D01*
X59967000Y-107746000D01*
X59967000Y-107766000D01*
X59713000Y-107766000D01*
X59713000Y-107746000D01*
X58669799Y-107746000D01*
X58547278Y-107952330D01*
X58637147Y-108198123D01*
X58759871Y-108399700D01*
X53670129Y-108399700D01*
X53792853Y-108198123D01*
X53882722Y-107952330D01*
X53760201Y-107746000D01*
X52717000Y-107746000D01*
X52717000Y-107766000D01*
X52463000Y-107766000D01*
X52463000Y-107746000D01*
X51419799Y-107746000D01*
X51297278Y-107952330D01*
X51387147Y-108198123D01*
X51509871Y-108399700D01*
X30627403Y-108399700D01*
X23713384Y-101485683D01*
X23926130Y-101343531D01*
X24912901Y-102330303D01*
X24936699Y-102359301D01*
X25052424Y-102454274D01*
X25184453Y-102524846D01*
X25327714Y-102568303D01*
X25439367Y-102579300D01*
X25439376Y-102579300D01*
X25476699Y-102582976D01*
X25514022Y-102579300D01*
X33213123Y-102579300D01*
X33142068Y-102750842D01*
X33085000Y-103037740D01*
X33085000Y-103330260D01*
X33142068Y-103617158D01*
X33254010Y-103887411D01*
X33416525Y-104130632D01*
X33623368Y-104337475D01*
X33866589Y-104499990D01*
X34136842Y-104611932D01*
X34423740Y-104669000D01*
X34716260Y-104669000D01*
X35003158Y-104611932D01*
X35273411Y-104499990D01*
X35516632Y-104337475D01*
X35723475Y-104130632D01*
X35885990Y-103887411D01*
X35997932Y-103617158D01*
X36055000Y-103330260D01*
X36055000Y-103037740D01*
X35997932Y-102750842D01*
X35926362Y-102578056D01*
X36025386Y-102568303D01*
X36168647Y-102524846D01*
X36300676Y-102454274D01*
X36416401Y-102359301D01*
X36440204Y-102330297D01*
X37126697Y-101643804D01*
X37280368Y-101797475D01*
X37454760Y-101914000D01*
X37280368Y-102030525D01*
X37073525Y-102237368D01*
X36911010Y-102480589D01*
X36799068Y-102750842D01*
X36742000Y-103037740D01*
X36742000Y-103330260D01*
X36799068Y-103617158D01*
X36911010Y-103887411D01*
X37073525Y-104130632D01*
X37280368Y-104337475D01*
X37523589Y-104499990D01*
X37793842Y-104611932D01*
X38080740Y-104669000D01*
X38373260Y-104669000D01*
X38660158Y-104611932D01*
X38930411Y-104499990D01*
X39173632Y-104337475D01*
X39380475Y-104130632D01*
X39542990Y-103887411D01*
X39654932Y-103617158D01*
X39712000Y-103330260D01*
X39712000Y-103037740D01*
X39654932Y-102750842D01*
X39542990Y-102480589D01*
X39380475Y-102237368D01*
X39173632Y-102030525D01*
X38999240Y-101914000D01*
X39173632Y-101797475D01*
X39380475Y-101590632D01*
X39542990Y-101347411D01*
X39654932Y-101077158D01*
X39712000Y-100790260D01*
X39712000Y-100696102D01*
X40170901Y-101155003D01*
X40194699Y-101184001D01*
X40310424Y-101278974D01*
X40442453Y-101349546D01*
X40585714Y-101393003D01*
X40627204Y-101397089D01*
X40756525Y-101590632D01*
X40963368Y-101797475D01*
X41137760Y-101914000D01*
X40963368Y-102030525D01*
X40756525Y-102237368D01*
X40594010Y-102480589D01*
X40482068Y-102750842D01*
X40425000Y-103037740D01*
X40425000Y-103330260D01*
X40482068Y-103617158D01*
X40594010Y-103887411D01*
X40756525Y-104130632D01*
X40963368Y-104337475D01*
X41206589Y-104499990D01*
X41476842Y-104611932D01*
X41763740Y-104669000D01*
X42056260Y-104669000D01*
X42343158Y-104611932D01*
X42613411Y-104499990D01*
X42856632Y-104337475D01*
X43063475Y-104130632D01*
X43225990Y-103887411D01*
X43337932Y-103617158D01*
X43395000Y-103330260D01*
X43395000Y-103037740D01*
X43337932Y-102750842D01*
X43225990Y-102480589D01*
X43063475Y-102237368D01*
X42856632Y-102030525D01*
X42682240Y-101914000D01*
X42856632Y-101797475D01*
X43063475Y-101590632D01*
X43225990Y-101347411D01*
X43337932Y-101077158D01*
X43395000Y-100790260D01*
X43395000Y-100497740D01*
X43337932Y-100210842D01*
X43225990Y-99940589D01*
X43063475Y-99697368D01*
X42931620Y-99565513D01*
X43004180Y-99543502D01*
X43114494Y-99484537D01*
X43211185Y-99405185D01*
X43290537Y-99308494D01*
X43349502Y-99198180D01*
X43385812Y-99078482D01*
X43398072Y-98954000D01*
X43395000Y-98389750D01*
X43236250Y-98231000D01*
X42037000Y-98231000D01*
X42037000Y-98251000D01*
X41783000Y-98251000D01*
X41783000Y-98231000D01*
X40583750Y-98231000D01*
X40425000Y-98389750D01*
X40421928Y-98954000D01*
X40434188Y-99078482D01*
X40470498Y-99198180D01*
X40529463Y-99308494D01*
X40608815Y-99405185D01*
X40705506Y-99484537D01*
X40815820Y-99543502D01*
X40888380Y-99565513D01*
X40809697Y-99644196D01*
X40123204Y-98957703D01*
X40099401Y-98928699D01*
X39983676Y-98833726D01*
X39851647Y-98763154D01*
X39713805Y-98721341D01*
X39712000Y-98389750D01*
X39553250Y-98231000D01*
X38354000Y-98231000D01*
X38354000Y-98251000D01*
X38100000Y-98251000D01*
X38100000Y-98231000D01*
X36900750Y-98231000D01*
X36742000Y-98389750D01*
X36740264Y-98708700D01*
X36056736Y-98708700D01*
X36055000Y-98389750D01*
X35896250Y-98231000D01*
X34697000Y-98231000D01*
X34697000Y-98251000D01*
X34443000Y-98251000D01*
X34443000Y-98231000D01*
X33243750Y-98231000D01*
X33085000Y-98389750D01*
X33083264Y-98708700D01*
X27457523Y-98708700D01*
X27420200Y-98705024D01*
X27382877Y-98708700D01*
X27382867Y-98708700D01*
X27271214Y-98719697D01*
X27127953Y-98763154D01*
X26995924Y-98833726D01*
X26880199Y-98928699D01*
X26856401Y-98957698D01*
X26656720Y-99157379D01*
X26495302Y-98995961D01*
X26336719Y-98890000D01*
X26495302Y-98784039D01*
X26704039Y-98575302D01*
X26868042Y-98329853D01*
X26981010Y-98057125D01*
X27038600Y-97767599D01*
X27038600Y-97472401D01*
X26995158Y-97254000D01*
X33081928Y-97254000D01*
X33085000Y-97818250D01*
X33243750Y-97977000D01*
X34443000Y-97977000D01*
X34443000Y-96777750D01*
X34697000Y-96777750D01*
X34697000Y-97977000D01*
X35896250Y-97977000D01*
X36055000Y-97818250D01*
X36058072Y-97254000D01*
X36738928Y-97254000D01*
X36742000Y-97818250D01*
X36900750Y-97977000D01*
X38100000Y-97977000D01*
X38100000Y-96777750D01*
X38354000Y-96777750D01*
X38354000Y-97977000D01*
X39553250Y-97977000D01*
X39712000Y-97818250D01*
X39715072Y-97254000D01*
X40421928Y-97254000D01*
X40425000Y-97818250D01*
X40583750Y-97977000D01*
X41783000Y-97977000D01*
X41783000Y-96777750D01*
X42037000Y-96777750D01*
X42037000Y-97977000D01*
X43236250Y-97977000D01*
X43395000Y-97818250D01*
X43398072Y-97254000D01*
X43385812Y-97129518D01*
X43349502Y-97009820D01*
X43290537Y-96899506D01*
X43211185Y-96802815D01*
X43114494Y-96723463D01*
X43004180Y-96664498D01*
X42884482Y-96628188D01*
X42760000Y-96615928D01*
X42195750Y-96619000D01*
X42037000Y-96777750D01*
X41783000Y-96777750D01*
X41624250Y-96619000D01*
X41060000Y-96615928D01*
X40935518Y-96628188D01*
X40815820Y-96664498D01*
X40705506Y-96723463D01*
X40608815Y-96802815D01*
X40529463Y-96899506D01*
X40470498Y-97009820D01*
X40434188Y-97129518D01*
X40421928Y-97254000D01*
X39715072Y-97254000D01*
X39702812Y-97129518D01*
X39666502Y-97009820D01*
X39607537Y-96899506D01*
X39528185Y-96802815D01*
X39431494Y-96723463D01*
X39321180Y-96664498D01*
X39201482Y-96628188D01*
X39077000Y-96615928D01*
X38512750Y-96619000D01*
X38354000Y-96777750D01*
X38100000Y-96777750D01*
X37941250Y-96619000D01*
X37377000Y-96615928D01*
X37252518Y-96628188D01*
X37132820Y-96664498D01*
X37022506Y-96723463D01*
X36925815Y-96802815D01*
X36846463Y-96899506D01*
X36787498Y-97009820D01*
X36751188Y-97129518D01*
X36738928Y-97254000D01*
X36058072Y-97254000D01*
X36045812Y-97129518D01*
X36009502Y-97009820D01*
X35950537Y-96899506D01*
X35871185Y-96802815D01*
X35774494Y-96723463D01*
X35664180Y-96664498D01*
X35544482Y-96628188D01*
X35420000Y-96615928D01*
X34855750Y-96619000D01*
X34697000Y-96777750D01*
X34443000Y-96777750D01*
X34284250Y-96619000D01*
X33720000Y-96615928D01*
X33595518Y-96628188D01*
X33475820Y-96664498D01*
X33365506Y-96723463D01*
X33268815Y-96802815D01*
X33189463Y-96899506D01*
X33130498Y-97009820D01*
X33094188Y-97129518D01*
X33081928Y-97254000D01*
X26995158Y-97254000D01*
X26981010Y-97182875D01*
X26868042Y-96910147D01*
X26704039Y-96664698D01*
X26495302Y-96455961D01*
X26336719Y-96350000D01*
X26495302Y-96244039D01*
X26704039Y-96035302D01*
X26868042Y-95789853D01*
X26981010Y-95517125D01*
X27038600Y-95227599D01*
X27038600Y-94932401D01*
X26981010Y-94642875D01*
X26868042Y-94370147D01*
X26704039Y-94124698D01*
X26495302Y-93915961D01*
X26336719Y-93810000D01*
X26495302Y-93704039D01*
X26704039Y-93495302D01*
X26868042Y-93249853D01*
X26981010Y-92977125D01*
X27038600Y-92687599D01*
X27038600Y-92392401D01*
X26982646Y-92111100D01*
X41516478Y-92111100D01*
X41553800Y-92114776D01*
X41591122Y-92111100D01*
X41591133Y-92111100D01*
X41702786Y-92100103D01*
X41846047Y-92056646D01*
X41978076Y-91986074D01*
X42093801Y-91891101D01*
X42117604Y-91862097D01*
X51150302Y-82829400D01*
X53397998Y-82829400D01*
X48916998Y-87310401D01*
G37*
X48916998Y-87310401D02*
X48888000Y-87334199D01*
X48864202Y-87363197D01*
X48864201Y-87363198D01*
X48793026Y-87449924D01*
X48722454Y-87581954D01*
X48708230Y-87628846D01*
X48678998Y-87725214D01*
X48670536Y-87811126D01*
X48664324Y-87874200D01*
X48668001Y-87911532D01*
X48668000Y-98780678D01*
X48664324Y-98818000D01*
X48668000Y-98855322D01*
X48668000Y-98855332D01*
X48678997Y-98966985D01*
X48712819Y-99078482D01*
X48722454Y-99110246D01*
X48793026Y-99242276D01*
X48832275Y-99290101D01*
X48887999Y-99358001D01*
X48917003Y-99381804D01*
X51023823Y-101488625D01*
X51017832Y-101503088D01*
X50955000Y-101818967D01*
X50955000Y-102141033D01*
X51017832Y-102456912D01*
X51141082Y-102754463D01*
X51320013Y-103022252D01*
X51547748Y-103249987D01*
X51815537Y-103428918D01*
X51830001Y-103434909D01*
X51830000Y-103981225D01*
X51738987Y-104042038D01*
X51553038Y-104227987D01*
X51406939Y-104446641D01*
X51306304Y-104689595D01*
X51255000Y-104947514D01*
X51255000Y-105210486D01*
X51306304Y-105468405D01*
X51406939Y-105711359D01*
X51553038Y-105930013D01*
X51738987Y-106115962D01*
X51957641Y-106262061D01*
X52173550Y-106351494D01*
X52148956Y-106358953D01*
X51911608Y-106469208D01*
X51700330Y-106623649D01*
X51523241Y-106816340D01*
X51387147Y-107039877D01*
X51297278Y-107285670D01*
X51419799Y-107492000D01*
X52463000Y-107492000D01*
X52463000Y-107472000D01*
X52717000Y-107472000D01*
X52717000Y-107492000D01*
X53760201Y-107492000D01*
X53882722Y-107285670D01*
X53792853Y-107039877D01*
X53656759Y-106816340D01*
X53479670Y-106623649D01*
X53268392Y-106469208D01*
X53031044Y-106358953D01*
X53006450Y-106351494D01*
X53222359Y-106262061D01*
X53441013Y-106115962D01*
X53626962Y-105930013D01*
X53773061Y-105711359D01*
X53873696Y-105468405D01*
X53925000Y-105210486D01*
X53925000Y-104947514D01*
X53873696Y-104689595D01*
X53773061Y-104446641D01*
X53626962Y-104227987D01*
X53441013Y-104042038D01*
X53350000Y-103981225D01*
X53350000Y-103434909D01*
X53364463Y-103428918D01*
X53632252Y-103249987D01*
X53859987Y-103022252D01*
X54038918Y-102754463D01*
X54162168Y-102456912D01*
X54225000Y-102141033D01*
X54225000Y-101818967D01*
X54162168Y-101503088D01*
X54038918Y-101205537D01*
X53859987Y-100937748D01*
X53632252Y-100710013D01*
X53364463Y-100531082D01*
X53066912Y-100407832D01*
X52751033Y-100345000D01*
X52428967Y-100345000D01*
X52113088Y-100407832D01*
X52098625Y-100413823D01*
X50188000Y-98503199D01*
X50188000Y-96991401D01*
X55687601Y-102491003D01*
X55711399Y-102520001D01*
X55827124Y-102614974D01*
X55959153Y-102685546D01*
X56102414Y-102729003D01*
X56214067Y-102740000D01*
X56214076Y-102740000D01*
X56251399Y-102743676D01*
X56288722Y-102740000D01*
X58385091Y-102740000D01*
X58391082Y-102754463D01*
X58570013Y-103022252D01*
X58797748Y-103249987D01*
X59065537Y-103428918D01*
X59080000Y-103434909D01*
X59080001Y-103981225D01*
X58988987Y-104042038D01*
X58803038Y-104227987D01*
X58656939Y-104446641D01*
X58556304Y-104689595D01*
X58505000Y-104947514D01*
X58505000Y-105210486D01*
X58556304Y-105468405D01*
X58656939Y-105711359D01*
X58803038Y-105930013D01*
X58988987Y-106115962D01*
X59207641Y-106262061D01*
X59423550Y-106351494D01*
X59398956Y-106358953D01*
X59161608Y-106469208D01*
X58950330Y-106623649D01*
X58773241Y-106816340D01*
X58637147Y-107039877D01*
X58547278Y-107285670D01*
X58669799Y-107492000D01*
X59713000Y-107492000D01*
X59713000Y-107472000D01*
X59967000Y-107472000D01*
X59967000Y-107492000D01*
X61010201Y-107492000D01*
X61132722Y-107285670D01*
X61042853Y-107039877D01*
X60906759Y-106816340D01*
X60729670Y-106623649D01*
X60518392Y-106469208D01*
X60281044Y-106358953D01*
X60256450Y-106351494D01*
X60472359Y-106262061D01*
X60691013Y-106115962D01*
X60876962Y-105930013D01*
X61023061Y-105711359D01*
X61123696Y-105468405D01*
X61175000Y-105210486D01*
X61175000Y-104947514D01*
X61123696Y-104689595D01*
X61023061Y-104446641D01*
X60876962Y-104227987D01*
X60691013Y-104042038D01*
X60600000Y-103981225D01*
X60600000Y-103434909D01*
X60614463Y-103428918D01*
X60882252Y-103249987D01*
X61109987Y-103022252D01*
X61199975Y-102887576D01*
X65377810Y-107065413D01*
X65297278Y-107285670D01*
X65419799Y-107492000D01*
X66463000Y-107492000D01*
X66463000Y-107472000D01*
X66717000Y-107472000D01*
X66717000Y-107492000D01*
X67760201Y-107492000D01*
X67861565Y-107321300D01*
X70139999Y-107321300D01*
X71218398Y-108399700D01*
X67670129Y-108399700D01*
X67792853Y-108198123D01*
X67882722Y-107952330D01*
X67760201Y-107746000D01*
X66717000Y-107746000D01*
X66717000Y-107766000D01*
X66463000Y-107766000D01*
X66463000Y-107746000D01*
X65419799Y-107746000D01*
X65297278Y-107952330D01*
X65387147Y-108198123D01*
X65509871Y-108399700D01*
X60920129Y-108399700D01*
X61042853Y-108198123D01*
X61132722Y-107952330D01*
X61010201Y-107746000D01*
X59967000Y-107746000D01*
X59967000Y-107766000D01*
X59713000Y-107766000D01*
X59713000Y-107746000D01*
X58669799Y-107746000D01*
X58547278Y-107952330D01*
X58637147Y-108198123D01*
X58759871Y-108399700D01*
X53670129Y-108399700D01*
X53792853Y-108198123D01*
X53882722Y-107952330D01*
X53760201Y-107746000D01*
X52717000Y-107746000D01*
X52717000Y-107766000D01*
X52463000Y-107766000D01*
X52463000Y-107746000D01*
X51419799Y-107746000D01*
X51297278Y-107952330D01*
X51387147Y-108198123D01*
X51509871Y-108399700D01*
X30627403Y-108399700D01*
X23713384Y-101485683D01*
X23926130Y-101343531D01*
X24912901Y-102330303D01*
X24936699Y-102359301D01*
X25052424Y-102454274D01*
X25184453Y-102524846D01*
X25327714Y-102568303D01*
X25439367Y-102579300D01*
X25439376Y-102579300D01*
X25476699Y-102582976D01*
X25514022Y-102579300D01*
X33213123Y-102579300D01*
X33142068Y-102750842D01*
X33085000Y-103037740D01*
X33085000Y-103330260D01*
X33142068Y-103617158D01*
X33254010Y-103887411D01*
X33416525Y-104130632D01*
X33623368Y-104337475D01*
X33866589Y-104499990D01*
X34136842Y-104611932D01*
X34423740Y-104669000D01*
X34716260Y-104669000D01*
X35003158Y-104611932D01*
X35273411Y-104499990D01*
X35516632Y-104337475D01*
X35723475Y-104130632D01*
X35885990Y-103887411D01*
X35997932Y-103617158D01*
X36055000Y-103330260D01*
X36055000Y-103037740D01*
X35997932Y-102750842D01*
X35926362Y-102578056D01*
X36025386Y-102568303D01*
X36168647Y-102524846D01*
X36300676Y-102454274D01*
X36416401Y-102359301D01*
X36440204Y-102330297D01*
X37126697Y-101643804D01*
X37280368Y-101797475D01*
X37454760Y-101914000D01*
X37280368Y-102030525D01*
X37073525Y-102237368D01*
X36911010Y-102480589D01*
X36799068Y-102750842D01*
X36742000Y-103037740D01*
X36742000Y-103330260D01*
X36799068Y-103617158D01*
X36911010Y-103887411D01*
X37073525Y-104130632D01*
X37280368Y-104337475D01*
X37523589Y-104499990D01*
X37793842Y-104611932D01*
X38080740Y-104669000D01*
X38373260Y-104669000D01*
X38660158Y-104611932D01*
X38930411Y-104499990D01*
X39173632Y-104337475D01*
X39380475Y-104130632D01*
X39542990Y-103887411D01*
X39654932Y-103617158D01*
X39712000Y-103330260D01*
X39712000Y-103037740D01*
X39654932Y-102750842D01*
X39542990Y-102480589D01*
X39380475Y-102237368D01*
X39173632Y-102030525D01*
X38999240Y-101914000D01*
X39173632Y-101797475D01*
X39380475Y-101590632D01*
X39542990Y-101347411D01*
X39654932Y-101077158D01*
X39712000Y-100790260D01*
X39712000Y-100696102D01*
X40170901Y-101155003D01*
X40194699Y-101184001D01*
X40310424Y-101278974D01*
X40442453Y-101349546D01*
X40585714Y-101393003D01*
X40627204Y-101397089D01*
X40756525Y-101590632D01*
X40963368Y-101797475D01*
X41137760Y-101914000D01*
X40963368Y-102030525D01*
X40756525Y-102237368D01*
X40594010Y-102480589D01*
X40482068Y-102750842D01*
X40425000Y-103037740D01*
X40425000Y-103330260D01*
X40482068Y-103617158D01*
X40594010Y-103887411D01*
X40756525Y-104130632D01*
X40963368Y-104337475D01*
X41206589Y-104499990D01*
X41476842Y-104611932D01*
X41763740Y-104669000D01*
X42056260Y-104669000D01*
X42343158Y-104611932D01*
X42613411Y-104499990D01*
X42856632Y-104337475D01*
X43063475Y-104130632D01*
X43225990Y-103887411D01*
X43337932Y-103617158D01*
X43395000Y-103330260D01*
X43395000Y-103037740D01*
X43337932Y-102750842D01*
X43225990Y-102480589D01*
X43063475Y-102237368D01*
X42856632Y-102030525D01*
X42682240Y-101914000D01*
X42856632Y-101797475D01*
X43063475Y-101590632D01*
X43225990Y-101347411D01*
X43337932Y-101077158D01*
X43395000Y-100790260D01*
X43395000Y-100497740D01*
X43337932Y-100210842D01*
X43225990Y-99940589D01*
X43063475Y-99697368D01*
X42931620Y-99565513D01*
X43004180Y-99543502D01*
X43114494Y-99484537D01*
X43211185Y-99405185D01*
X43290537Y-99308494D01*
X43349502Y-99198180D01*
X43385812Y-99078482D01*
X43398072Y-98954000D01*
X43395000Y-98389750D01*
X43236250Y-98231000D01*
X42037000Y-98231000D01*
X42037000Y-98251000D01*
X41783000Y-98251000D01*
X41783000Y-98231000D01*
X40583750Y-98231000D01*
X40425000Y-98389750D01*
X40421928Y-98954000D01*
X40434188Y-99078482D01*
X40470498Y-99198180D01*
X40529463Y-99308494D01*
X40608815Y-99405185D01*
X40705506Y-99484537D01*
X40815820Y-99543502D01*
X40888380Y-99565513D01*
X40809697Y-99644196D01*
X40123204Y-98957703D01*
X40099401Y-98928699D01*
X39983676Y-98833726D01*
X39851647Y-98763154D01*
X39713805Y-98721341D01*
X39712000Y-98389750D01*
X39553250Y-98231000D01*
X38354000Y-98231000D01*
X38354000Y-98251000D01*
X38100000Y-98251000D01*
X38100000Y-98231000D01*
X36900750Y-98231000D01*
X36742000Y-98389750D01*
X36740264Y-98708700D01*
X36056736Y-98708700D01*
X36055000Y-98389750D01*
X35896250Y-98231000D01*
X34697000Y-98231000D01*
X34697000Y-98251000D01*
X34443000Y-98251000D01*
X34443000Y-98231000D01*
X33243750Y-98231000D01*
X33085000Y-98389750D01*
X33083264Y-98708700D01*
X27457523Y-98708700D01*
X27420200Y-98705024D01*
X27382877Y-98708700D01*
X27382867Y-98708700D01*
X27271214Y-98719697D01*
X27127953Y-98763154D01*
X26995924Y-98833726D01*
X26880199Y-98928699D01*
X26856401Y-98957698D01*
X26656720Y-99157379D01*
X26495302Y-98995961D01*
X26336719Y-98890000D01*
X26495302Y-98784039D01*
X26704039Y-98575302D01*
X26868042Y-98329853D01*
X26981010Y-98057125D01*
X27038600Y-97767599D01*
X27038600Y-97472401D01*
X26995158Y-97254000D01*
X33081928Y-97254000D01*
X33085000Y-97818250D01*
X33243750Y-97977000D01*
X34443000Y-97977000D01*
X34443000Y-96777750D01*
X34697000Y-96777750D01*
X34697000Y-97977000D01*
X35896250Y-97977000D01*
X36055000Y-97818250D01*
X36058072Y-97254000D01*
X36738928Y-97254000D01*
X36742000Y-97818250D01*
X36900750Y-97977000D01*
X38100000Y-97977000D01*
X38100000Y-96777750D01*
X38354000Y-96777750D01*
X38354000Y-97977000D01*
X39553250Y-97977000D01*
X39712000Y-97818250D01*
X39715072Y-97254000D01*
X40421928Y-97254000D01*
X40425000Y-97818250D01*
X40583750Y-97977000D01*
X41783000Y-97977000D01*
X41783000Y-96777750D01*
X42037000Y-96777750D01*
X42037000Y-97977000D01*
X43236250Y-97977000D01*
X43395000Y-97818250D01*
X43398072Y-97254000D01*
X43385812Y-97129518D01*
X43349502Y-97009820D01*
X43290537Y-96899506D01*
X43211185Y-96802815D01*
X43114494Y-96723463D01*
X43004180Y-96664498D01*
X42884482Y-96628188D01*
X42760000Y-96615928D01*
X42195750Y-96619000D01*
X42037000Y-96777750D01*
X41783000Y-96777750D01*
X41624250Y-96619000D01*
X41060000Y-96615928D01*
X40935518Y-96628188D01*
X40815820Y-96664498D01*
X40705506Y-96723463D01*
X40608815Y-96802815D01*
X40529463Y-96899506D01*
X40470498Y-97009820D01*
X40434188Y-97129518D01*
X40421928Y-97254000D01*
X39715072Y-97254000D01*
X39702812Y-97129518D01*
X39666502Y-97009820D01*
X39607537Y-96899506D01*
X39528185Y-96802815D01*
X39431494Y-96723463D01*
X39321180Y-96664498D01*
X39201482Y-96628188D01*
X39077000Y-96615928D01*
X38512750Y-96619000D01*
X38354000Y-96777750D01*
X38100000Y-96777750D01*
X37941250Y-96619000D01*
X37377000Y-96615928D01*
X37252518Y-96628188D01*
X37132820Y-96664498D01*
X37022506Y-96723463D01*
X36925815Y-96802815D01*
X36846463Y-96899506D01*
X36787498Y-97009820D01*
X36751188Y-97129518D01*
X36738928Y-97254000D01*
X36058072Y-97254000D01*
X36045812Y-97129518D01*
X36009502Y-97009820D01*
X35950537Y-96899506D01*
X35871185Y-96802815D01*
X35774494Y-96723463D01*
X35664180Y-96664498D01*
X35544482Y-96628188D01*
X35420000Y-96615928D01*
X34855750Y-96619000D01*
X34697000Y-96777750D01*
X34443000Y-96777750D01*
X34284250Y-96619000D01*
X33720000Y-96615928D01*
X33595518Y-96628188D01*
X33475820Y-96664498D01*
X33365506Y-96723463D01*
X33268815Y-96802815D01*
X33189463Y-96899506D01*
X33130498Y-97009820D01*
X33094188Y-97129518D01*
X33081928Y-97254000D01*
X26995158Y-97254000D01*
X26981010Y-97182875D01*
X26868042Y-96910147D01*
X26704039Y-96664698D01*
X26495302Y-96455961D01*
X26336719Y-96350000D01*
X26495302Y-96244039D01*
X26704039Y-96035302D01*
X26868042Y-95789853D01*
X26981010Y-95517125D01*
X27038600Y-95227599D01*
X27038600Y-94932401D01*
X26981010Y-94642875D01*
X26868042Y-94370147D01*
X26704039Y-94124698D01*
X26495302Y-93915961D01*
X26336719Y-93810000D01*
X26495302Y-93704039D01*
X26704039Y-93495302D01*
X26868042Y-93249853D01*
X26981010Y-92977125D01*
X27038600Y-92687599D01*
X27038600Y-92392401D01*
X26982646Y-92111100D01*
X41516478Y-92111100D01*
X41553800Y-92114776D01*
X41591122Y-92111100D01*
X41591133Y-92111100D01*
X41702786Y-92100103D01*
X41846047Y-92056646D01*
X41978076Y-91986074D01*
X42093801Y-91891101D01*
X42117604Y-91862097D01*
X51150302Y-82829400D01*
X53397998Y-82829400D01*
X48916998Y-87310401D01*
G36*
X73967000Y-107492000D02*
G01*
X73987000Y-107492000D01*
X73987000Y-107746000D01*
X73967000Y-107746000D01*
X73967000Y-107766000D01*
X73713000Y-107766000D01*
X73713000Y-107746000D01*
X73693000Y-107746000D01*
X73693000Y-107492000D01*
X73713000Y-107492000D01*
X73713000Y-107472000D01*
X73967000Y-107472000D01*
X73967000Y-107492000D01*
G37*
X73967000Y-107492000D02*
X73987000Y-107492000D01*
X73987000Y-107746000D01*
X73967000Y-107746000D01*
X73967000Y-107766000D01*
X73713000Y-107766000D01*
X73713000Y-107746000D01*
X73693000Y-107746000D01*
X73693000Y-107492000D01*
X73713000Y-107492000D01*
X73713000Y-107472000D01*
X73967000Y-107472000D01*
X73967000Y-107492000D01*
G36*
X84163000Y-75833335D02*
G01*
X84218147Y-76110574D01*
X84326320Y-76371727D01*
X84483363Y-76606759D01*
X84492401Y-76615797D01*
X80579003Y-80529196D01*
X80549999Y-80552999D01*
X80503536Y-80609615D01*
X80455026Y-80668724D01*
X80395547Y-80780001D01*
X80384454Y-80800754D01*
X80340997Y-80944015D01*
X80330000Y-81055668D01*
X80330000Y-81055678D01*
X80326324Y-81093000D01*
X80330000Y-81130322D01*
X80330001Y-93025091D01*
X80315537Y-93031082D01*
X80047748Y-93210013D01*
X79820013Y-93437748D01*
X79641082Y-93705537D01*
X79517832Y-94003088D01*
X79455000Y-94318967D01*
X79455000Y-94641033D01*
X79517832Y-94956912D01*
X79561361Y-95062000D01*
X75496802Y-95062000D01*
X75406177Y-94971375D01*
X75412168Y-94956912D01*
X75475000Y-94641033D01*
X75475000Y-94318967D01*
X75412168Y-94003088D01*
X75288918Y-93705537D01*
X75109987Y-93437748D01*
X74882252Y-93210013D01*
X74614463Y-93031082D01*
X74316912Y-92907832D01*
X74001033Y-92845000D01*
X73678967Y-92845000D01*
X73363088Y-92907832D01*
X73065537Y-93031082D01*
X72797748Y-93210013D01*
X72570013Y-93437748D01*
X72391082Y-93705537D01*
X72267832Y-94003088D01*
X72205000Y-94318967D01*
X72205000Y-94641033D01*
X72267832Y-94956912D01*
X72391082Y-95254463D01*
X72570013Y-95522252D01*
X72797748Y-95749987D01*
X73065537Y-95928918D01*
X73363088Y-96052168D01*
X73678967Y-96115000D01*
X74001033Y-96115000D01*
X74316912Y-96052168D01*
X74331375Y-96046177D01*
X74618201Y-96333003D01*
X74641999Y-96362001D01*
X74757724Y-96456974D01*
X74889753Y-96527546D01*
X75033014Y-96571003D01*
X75077627Y-96575397D01*
X75182000Y-96585677D01*
X75219333Y-96582000D01*
X81601478Y-96582000D01*
X81638800Y-96585676D01*
X81676122Y-96582000D01*
X81676133Y-96582000D01*
X81787786Y-96571003D01*
X81931047Y-96527546D01*
X82063076Y-96456974D01*
X82178801Y-96362001D01*
X82202604Y-96332997D01*
X84983704Y-93551898D01*
X85012701Y-93528101D01*
X85107674Y-93412376D01*
X85178246Y-93280347D01*
X85221703Y-93137086D01*
X85232700Y-93025433D01*
X85232700Y-93025423D01*
X85236376Y-92988100D01*
X85232700Y-92950777D01*
X85232700Y-84702450D01*
X85456665Y-84747000D01*
X85739335Y-84747000D01*
X86016574Y-84691853D01*
X86277727Y-84583680D01*
X86512759Y-84426637D01*
X86712637Y-84226759D01*
X86869680Y-83991727D01*
X86977853Y-83730574D01*
X87033000Y-83453335D01*
X87033000Y-83170665D01*
X86996688Y-82988113D01*
X89899600Y-80085202D01*
X89899600Y-86722778D01*
X89895924Y-86760100D01*
X89899600Y-86797422D01*
X89899600Y-86797432D01*
X89910597Y-86909085D01*
X89949012Y-87035724D01*
X89954054Y-87052346D01*
X90024626Y-87184376D01*
X90034866Y-87196853D01*
X90119599Y-87300101D01*
X90148603Y-87323904D01*
X92302127Y-89477429D01*
X92143958Y-89714147D01*
X92030990Y-89986875D01*
X91973400Y-90276401D01*
X91973400Y-90571599D01*
X92030990Y-90861125D01*
X92143958Y-91133853D01*
X92307961Y-91379302D01*
X92516698Y-91588039D01*
X92675281Y-91694000D01*
X92516698Y-91799961D01*
X92307961Y-92008698D01*
X92143958Y-92254147D01*
X92030990Y-92526875D01*
X91973400Y-92816401D01*
X91973400Y-93111599D01*
X92030990Y-93401125D01*
X92143958Y-93673853D01*
X92300164Y-93907634D01*
X82053387Y-104154412D01*
X81941013Y-104042038D01*
X81850000Y-103981225D01*
X81850000Y-103434909D01*
X81864463Y-103428918D01*
X82132252Y-103249987D01*
X82359987Y-103022252D01*
X82538918Y-102754463D01*
X82662168Y-102456912D01*
X82725000Y-102141033D01*
X82725000Y-101818967D01*
X82662168Y-101503088D01*
X82538918Y-101205537D01*
X82359987Y-100937748D01*
X82132252Y-100710013D01*
X81864463Y-100531082D01*
X81566912Y-100407832D01*
X81251033Y-100345000D01*
X80928967Y-100345000D01*
X80613088Y-100407832D01*
X80315537Y-100531082D01*
X80047748Y-100710013D01*
X79820013Y-100937748D01*
X79641082Y-101205537D01*
X79517832Y-101503088D01*
X79455000Y-101818967D01*
X79455000Y-102141033D01*
X79517832Y-102456912D01*
X79641082Y-102754463D01*
X79820013Y-103022252D01*
X80047748Y-103249987D01*
X80315537Y-103428918D01*
X80330001Y-103434909D01*
X80330000Y-103981225D01*
X80238987Y-104042038D01*
X80053038Y-104227987D01*
X79992225Y-104319000D01*
X78533022Y-104319000D01*
X78495699Y-104315324D01*
X78458376Y-104319000D01*
X78458367Y-104319000D01*
X78346714Y-104329997D01*
X78203453Y-104373454D01*
X78071424Y-104444026D01*
X78055385Y-104457189D01*
X77984696Y-104515201D01*
X77984692Y-104515205D01*
X77955699Y-104538999D01*
X77931905Y-104567992D01*
X75013567Y-107486332D01*
X75132722Y-107285670D01*
X75042853Y-107039877D01*
X74906759Y-106816340D01*
X74729670Y-106623649D01*
X74518392Y-106469208D01*
X74281044Y-106358953D01*
X74256450Y-106351494D01*
X74472359Y-106262061D01*
X74691013Y-106115962D01*
X74876962Y-105930013D01*
X75023061Y-105711359D01*
X75123696Y-105468405D01*
X75175000Y-105210486D01*
X75175000Y-104947514D01*
X75123696Y-104689595D01*
X75023061Y-104446641D01*
X74876962Y-104227987D01*
X74691013Y-104042038D01*
X74600000Y-103981225D01*
X74600000Y-103434909D01*
X74614463Y-103428918D01*
X74882252Y-103249987D01*
X75109987Y-103022252D01*
X75288918Y-102754463D01*
X75412168Y-102456912D01*
X75475000Y-102141033D01*
X75475000Y-101818967D01*
X75412168Y-101503088D01*
X75288918Y-101205537D01*
X75109987Y-100937748D01*
X74882252Y-100710013D01*
X74614463Y-100531082D01*
X74316912Y-100407832D01*
X74001033Y-100345000D01*
X73678967Y-100345000D01*
X73363088Y-100407832D01*
X73065537Y-100531082D01*
X72797748Y-100710013D01*
X72570013Y-100937748D01*
X72391082Y-101205537D01*
X72267832Y-101503088D01*
X72205000Y-101818967D01*
X72205000Y-102141033D01*
X72267832Y-102456912D01*
X72391082Y-102754463D01*
X72570013Y-103022252D01*
X72797748Y-103249987D01*
X73065537Y-103428918D01*
X73080000Y-103434909D01*
X73080001Y-103981225D01*
X72988987Y-104042038D01*
X72803038Y-104227987D01*
X72656939Y-104446641D01*
X72556304Y-104689595D01*
X72505000Y-104947514D01*
X72505000Y-105210486D01*
X72526355Y-105317844D01*
X72493299Y-105350900D01*
X67897070Y-105350900D01*
X67925000Y-105210486D01*
X67925000Y-104947514D01*
X67873696Y-104689595D01*
X67773061Y-104446641D01*
X67626962Y-104227987D01*
X67441013Y-104042038D01*
X67350000Y-103981225D01*
X67350000Y-103434909D01*
X67364463Y-103428918D01*
X67632252Y-103249987D01*
X67859987Y-103022252D01*
X68038918Y-102754463D01*
X68162168Y-102456912D01*
X68225000Y-102141033D01*
X68225000Y-101818967D01*
X68162168Y-101503088D01*
X68038918Y-101205537D01*
X67859987Y-100937748D01*
X67632252Y-100710013D01*
X67364463Y-100531082D01*
X67066912Y-100407832D01*
X66751033Y-100345000D01*
X66428967Y-100345000D01*
X66113088Y-100407832D01*
X66098625Y-100413823D01*
X61749904Y-96065103D01*
X61726101Y-96036099D01*
X61610376Y-95941126D01*
X61478347Y-95870554D01*
X61335086Y-95827097D01*
X61223433Y-95816100D01*
X61223422Y-95816100D01*
X61186100Y-95812424D01*
X61148778Y-95816100D01*
X60783307Y-95816100D01*
X60882252Y-95749987D01*
X61109987Y-95522252D01*
X61288918Y-95254463D01*
X61412168Y-94956912D01*
X61475000Y-94641033D01*
X61475000Y-94318967D01*
X61412168Y-94003088D01*
X61288918Y-93705537D01*
X61109987Y-93437748D01*
X60882252Y-93210013D01*
X60614463Y-93031082D01*
X60600000Y-93025091D01*
X60600000Y-93005001D01*
X69347912Y-84257090D01*
X69497363Y-84480759D01*
X69697241Y-84680637D01*
X69873167Y-84798187D01*
X69862997Y-84831714D01*
X69857842Y-84884053D01*
X69697241Y-84991363D01*
X69497363Y-85191241D01*
X69340320Y-85426273D01*
X69232147Y-85687426D01*
X69177000Y-85964665D01*
X69177000Y-86247335D01*
X69232147Y-86524574D01*
X69340320Y-86785727D01*
X69497363Y-87020759D01*
X69697241Y-87220637D01*
X69932273Y-87377680D01*
X70193426Y-87485853D01*
X70470665Y-87541000D01*
X70753335Y-87541000D01*
X71030574Y-87485853D01*
X71291727Y-87377680D01*
X71526759Y-87220637D01*
X71726637Y-87020759D01*
X71883680Y-86785727D01*
X71991853Y-86524574D01*
X72047000Y-86247335D01*
X72047000Y-85964665D01*
X71991853Y-85687426D01*
X71883680Y-85426273D01*
X71739063Y-85209838D01*
X72248303Y-84700599D01*
X72277301Y-84676801D01*
X72372274Y-84561076D01*
X72442846Y-84429047D01*
X72486303Y-84285786D01*
X72497300Y-84174133D01*
X72497300Y-84174123D01*
X72500976Y-84136800D01*
X72497300Y-84099477D01*
X72497300Y-83174701D01*
X76727931Y-78944071D01*
X76850937Y-79128162D01*
X76341698Y-79637401D01*
X76312700Y-79661199D01*
X76288902Y-79690197D01*
X76288901Y-79690198D01*
X76217726Y-79776924D01*
X76147154Y-79908954D01*
X76135894Y-79946076D01*
X76103698Y-80052214D01*
X76096563Y-80124654D01*
X76089024Y-80201200D01*
X76092701Y-80238532D01*
X76092700Y-83902498D01*
X67081376Y-92913823D01*
X67066912Y-92907832D01*
X66751033Y-92845000D01*
X66428967Y-92845000D01*
X66113088Y-92907832D01*
X65815537Y-93031082D01*
X65547748Y-93210013D01*
X65320013Y-93437748D01*
X65141082Y-93705537D01*
X65017832Y-94003088D01*
X64955000Y-94318967D01*
X64955000Y-94641033D01*
X65017832Y-94956912D01*
X65141082Y-95254463D01*
X65320013Y-95522252D01*
X65547748Y-95749987D01*
X65815537Y-95928918D01*
X66113088Y-96052168D01*
X66428967Y-96115000D01*
X66751033Y-96115000D01*
X67066912Y-96052168D01*
X67364463Y-95928918D01*
X67632252Y-95749987D01*
X67859987Y-95522252D01*
X68038918Y-95254463D01*
X68162168Y-94956912D01*
X68225000Y-94641033D01*
X68225000Y-94318967D01*
X68162168Y-94003088D01*
X68156177Y-93988624D01*
X77363704Y-84781098D01*
X77392701Y-84757301D01*
X77480228Y-84650649D01*
X77628960Y-84703909D01*
X77851000Y-84582624D01*
X77851000Y-83439000D01*
X78105000Y-83439000D01*
X78105000Y-84582624D01*
X78327040Y-84703909D01*
X78591881Y-84609070D01*
X78833131Y-84464385D01*
X79041519Y-84275414D01*
X79209037Y-84049420D01*
X79329246Y-83795087D01*
X79369904Y-83661039D01*
X79247915Y-83439000D01*
X78105000Y-83439000D01*
X77851000Y-83439000D01*
X77831000Y-83439000D01*
X77831000Y-83185000D01*
X77851000Y-83185000D01*
X77851000Y-83165000D01*
X78105000Y-83165000D01*
X78105000Y-83185000D01*
X79247915Y-83185000D01*
X79369904Y-82962961D01*
X79329246Y-82828913D01*
X79209037Y-82574580D01*
X79041519Y-82348586D01*
X78833131Y-82159615D01*
X78647135Y-82048067D01*
X78657727Y-82043680D01*
X78892759Y-81886637D01*
X79092637Y-81686759D01*
X79249680Y-81451727D01*
X79357853Y-81190574D01*
X79413000Y-80913335D01*
X79413000Y-80630665D01*
X79376688Y-80448113D01*
X84163000Y-75661802D01*
X84163000Y-75833335D01*
G37*
X84163000Y-75833335D02*
X84218147Y-76110574D01*
X84326320Y-76371727D01*
X84483363Y-76606759D01*
X84492401Y-76615797D01*
X80579003Y-80529196D01*
X80549999Y-80552999D01*
X80503536Y-80609615D01*
X80455026Y-80668724D01*
X80395547Y-80780001D01*
X80384454Y-80800754D01*
X80340997Y-80944015D01*
X80330000Y-81055668D01*
X80330000Y-81055678D01*
X80326324Y-81093000D01*
X80330000Y-81130322D01*
X80330001Y-93025091D01*
X80315537Y-93031082D01*
X80047748Y-93210013D01*
X79820013Y-93437748D01*
X79641082Y-93705537D01*
X79517832Y-94003088D01*
X79455000Y-94318967D01*
X79455000Y-94641033D01*
X79517832Y-94956912D01*
X79561361Y-95062000D01*
X75496802Y-95062000D01*
X75406177Y-94971375D01*
X75412168Y-94956912D01*
X75475000Y-94641033D01*
X75475000Y-94318967D01*
X75412168Y-94003088D01*
X75288918Y-93705537D01*
X75109987Y-93437748D01*
X74882252Y-93210013D01*
X74614463Y-93031082D01*
X74316912Y-92907832D01*
X74001033Y-92845000D01*
X73678967Y-92845000D01*
X73363088Y-92907832D01*
X73065537Y-93031082D01*
X72797748Y-93210013D01*
X72570013Y-93437748D01*
X72391082Y-93705537D01*
X72267832Y-94003088D01*
X72205000Y-94318967D01*
X72205000Y-94641033D01*
X72267832Y-94956912D01*
X72391082Y-95254463D01*
X72570013Y-95522252D01*
X72797748Y-95749987D01*
X73065537Y-95928918D01*
X73363088Y-96052168D01*
X73678967Y-96115000D01*
X74001033Y-96115000D01*
X74316912Y-96052168D01*
X74331375Y-96046177D01*
X74618201Y-96333003D01*
X74641999Y-96362001D01*
X74757724Y-96456974D01*
X74889753Y-96527546D01*
X75033014Y-96571003D01*
X75077627Y-96575397D01*
X75182000Y-96585677D01*
X75219333Y-96582000D01*
X81601478Y-96582000D01*
X81638800Y-96585676D01*
X81676122Y-96582000D01*
X81676133Y-96582000D01*
X81787786Y-96571003D01*
X81931047Y-96527546D01*
X82063076Y-96456974D01*
X82178801Y-96362001D01*
X82202604Y-96332997D01*
X84983704Y-93551898D01*
X85012701Y-93528101D01*
X85107674Y-93412376D01*
X85178246Y-93280347D01*
X85221703Y-93137086D01*
X85232700Y-93025433D01*
X85232700Y-93025423D01*
X85236376Y-92988100D01*
X85232700Y-92950777D01*
X85232700Y-84702450D01*
X85456665Y-84747000D01*
X85739335Y-84747000D01*
X86016574Y-84691853D01*
X86277727Y-84583680D01*
X86512759Y-84426637D01*
X86712637Y-84226759D01*
X86869680Y-83991727D01*
X86977853Y-83730574D01*
X87033000Y-83453335D01*
X87033000Y-83170665D01*
X86996688Y-82988113D01*
X89899600Y-80085202D01*
X89899600Y-86722778D01*
X89895924Y-86760100D01*
X89899600Y-86797422D01*
X89899600Y-86797432D01*
X89910597Y-86909085D01*
X89949012Y-87035724D01*
X89954054Y-87052346D01*
X90024626Y-87184376D01*
X90034866Y-87196853D01*
X90119599Y-87300101D01*
X90148603Y-87323904D01*
X92302127Y-89477429D01*
X92143958Y-89714147D01*
X92030990Y-89986875D01*
X91973400Y-90276401D01*
X91973400Y-90571599D01*
X92030990Y-90861125D01*
X92143958Y-91133853D01*
X92307961Y-91379302D01*
X92516698Y-91588039D01*
X92675281Y-91694000D01*
X92516698Y-91799961D01*
X92307961Y-92008698D01*
X92143958Y-92254147D01*
X92030990Y-92526875D01*
X91973400Y-92816401D01*
X91973400Y-93111599D01*
X92030990Y-93401125D01*
X92143958Y-93673853D01*
X92300164Y-93907634D01*
X82053387Y-104154412D01*
X81941013Y-104042038D01*
X81850000Y-103981225D01*
X81850000Y-103434909D01*
X81864463Y-103428918D01*
X82132252Y-103249987D01*
X82359987Y-103022252D01*
X82538918Y-102754463D01*
X82662168Y-102456912D01*
X82725000Y-102141033D01*
X82725000Y-101818967D01*
X82662168Y-101503088D01*
X82538918Y-101205537D01*
X82359987Y-100937748D01*
X82132252Y-100710013D01*
X81864463Y-100531082D01*
X81566912Y-100407832D01*
X81251033Y-100345000D01*
X80928967Y-100345000D01*
X80613088Y-100407832D01*
X80315537Y-100531082D01*
X80047748Y-100710013D01*
X79820013Y-100937748D01*
X79641082Y-101205537D01*
X79517832Y-101503088D01*
X79455000Y-101818967D01*
X79455000Y-102141033D01*
X79517832Y-102456912D01*
X79641082Y-102754463D01*
X79820013Y-103022252D01*
X80047748Y-103249987D01*
X80315537Y-103428918D01*
X80330001Y-103434909D01*
X80330000Y-103981225D01*
X80238987Y-104042038D01*
X80053038Y-104227987D01*
X79992225Y-104319000D01*
X78533022Y-104319000D01*
X78495699Y-104315324D01*
X78458376Y-104319000D01*
X78458367Y-104319000D01*
X78346714Y-104329997D01*
X78203453Y-104373454D01*
X78071424Y-104444026D01*
X78055385Y-104457189D01*
X77984696Y-104515201D01*
X77984692Y-104515205D01*
X77955699Y-104538999D01*
X77931905Y-104567992D01*
X75013567Y-107486332D01*
X75132722Y-107285670D01*
X75042853Y-107039877D01*
X74906759Y-106816340D01*
X74729670Y-106623649D01*
X74518392Y-106469208D01*
X74281044Y-106358953D01*
X74256450Y-106351494D01*
X74472359Y-106262061D01*
X74691013Y-106115962D01*
X74876962Y-105930013D01*
X75023061Y-105711359D01*
X75123696Y-105468405D01*
X75175000Y-105210486D01*
X75175000Y-104947514D01*
X75123696Y-104689595D01*
X75023061Y-104446641D01*
X74876962Y-104227987D01*
X74691013Y-104042038D01*
X74600000Y-103981225D01*
X74600000Y-103434909D01*
X74614463Y-103428918D01*
X74882252Y-103249987D01*
X75109987Y-103022252D01*
X75288918Y-102754463D01*
X75412168Y-102456912D01*
X75475000Y-102141033D01*
X75475000Y-101818967D01*
X75412168Y-101503088D01*
X75288918Y-101205537D01*
X75109987Y-100937748D01*
X74882252Y-100710013D01*
X74614463Y-100531082D01*
X74316912Y-100407832D01*
X74001033Y-100345000D01*
X73678967Y-100345000D01*
X73363088Y-100407832D01*
X73065537Y-100531082D01*
X72797748Y-100710013D01*
X72570013Y-100937748D01*
X72391082Y-101205537D01*
X72267832Y-101503088D01*
X72205000Y-101818967D01*
X72205000Y-102141033D01*
X72267832Y-102456912D01*
X72391082Y-102754463D01*
X72570013Y-103022252D01*
X72797748Y-103249987D01*
X73065537Y-103428918D01*
X73080000Y-103434909D01*
X73080001Y-103981225D01*
X72988987Y-104042038D01*
X72803038Y-104227987D01*
X72656939Y-104446641D01*
X72556304Y-104689595D01*
X72505000Y-104947514D01*
X72505000Y-105210486D01*
X72526355Y-105317844D01*
X72493299Y-105350900D01*
X67897070Y-105350900D01*
X67925000Y-105210486D01*
X67925000Y-104947514D01*
X67873696Y-104689595D01*
X67773061Y-104446641D01*
X67626962Y-104227987D01*
X67441013Y-104042038D01*
X67350000Y-103981225D01*
X67350000Y-103434909D01*
X67364463Y-103428918D01*
X67632252Y-103249987D01*
X67859987Y-103022252D01*
X68038918Y-102754463D01*
X68162168Y-102456912D01*
X68225000Y-102141033D01*
X68225000Y-101818967D01*
X68162168Y-101503088D01*
X68038918Y-101205537D01*
X67859987Y-100937748D01*
X67632252Y-100710013D01*
X67364463Y-100531082D01*
X67066912Y-100407832D01*
X66751033Y-100345000D01*
X66428967Y-100345000D01*
X66113088Y-100407832D01*
X66098625Y-100413823D01*
X61749904Y-96065103D01*
X61726101Y-96036099D01*
X61610376Y-95941126D01*
X61478347Y-95870554D01*
X61335086Y-95827097D01*
X61223433Y-95816100D01*
X61223422Y-95816100D01*
X61186100Y-95812424D01*
X61148778Y-95816100D01*
X60783307Y-95816100D01*
X60882252Y-95749987D01*
X61109987Y-95522252D01*
X61288918Y-95254463D01*
X61412168Y-94956912D01*
X61475000Y-94641033D01*
X61475000Y-94318967D01*
X61412168Y-94003088D01*
X61288918Y-93705537D01*
X61109987Y-93437748D01*
X60882252Y-93210013D01*
X60614463Y-93031082D01*
X60600000Y-93025091D01*
X60600000Y-93005001D01*
X69347912Y-84257090D01*
X69497363Y-84480759D01*
X69697241Y-84680637D01*
X69873167Y-84798187D01*
X69862997Y-84831714D01*
X69857842Y-84884053D01*
X69697241Y-84991363D01*
X69497363Y-85191241D01*
X69340320Y-85426273D01*
X69232147Y-85687426D01*
X69177000Y-85964665D01*
X69177000Y-86247335D01*
X69232147Y-86524574D01*
X69340320Y-86785727D01*
X69497363Y-87020759D01*
X69697241Y-87220637D01*
X69932273Y-87377680D01*
X70193426Y-87485853D01*
X70470665Y-87541000D01*
X70753335Y-87541000D01*
X71030574Y-87485853D01*
X71291727Y-87377680D01*
X71526759Y-87220637D01*
X71726637Y-87020759D01*
X71883680Y-86785727D01*
X71991853Y-86524574D01*
X72047000Y-86247335D01*
X72047000Y-85964665D01*
X71991853Y-85687426D01*
X71883680Y-85426273D01*
X71739063Y-85209838D01*
X72248303Y-84700599D01*
X72277301Y-84676801D01*
X72372274Y-84561076D01*
X72442846Y-84429047D01*
X72486303Y-84285786D01*
X72497300Y-84174133D01*
X72497300Y-84174123D01*
X72500976Y-84136800D01*
X72497300Y-84099477D01*
X72497300Y-83174701D01*
X76727931Y-78944071D01*
X76850937Y-79128162D01*
X76341698Y-79637401D01*
X76312700Y-79661199D01*
X76288902Y-79690197D01*
X76288901Y-79690198D01*
X76217726Y-79776924D01*
X76147154Y-79908954D01*
X76135894Y-79946076D01*
X76103698Y-80052214D01*
X76096563Y-80124654D01*
X76089024Y-80201200D01*
X76092701Y-80238532D01*
X76092700Y-83902498D01*
X67081376Y-92913823D01*
X67066912Y-92907832D01*
X66751033Y-92845000D01*
X66428967Y-92845000D01*
X66113088Y-92907832D01*
X65815537Y-93031082D01*
X65547748Y-93210013D01*
X65320013Y-93437748D01*
X65141082Y-93705537D01*
X65017832Y-94003088D01*
X64955000Y-94318967D01*
X64955000Y-94641033D01*
X65017832Y-94956912D01*
X65141082Y-95254463D01*
X65320013Y-95522252D01*
X65547748Y-95749987D01*
X65815537Y-95928918D01*
X66113088Y-96052168D01*
X66428967Y-96115000D01*
X66751033Y-96115000D01*
X67066912Y-96052168D01*
X67364463Y-95928918D01*
X67632252Y-95749987D01*
X67859987Y-95522252D01*
X68038918Y-95254463D01*
X68162168Y-94956912D01*
X68225000Y-94641033D01*
X68225000Y-94318967D01*
X68162168Y-94003088D01*
X68156177Y-93988624D01*
X77363704Y-84781098D01*
X77392701Y-84757301D01*
X77480228Y-84650649D01*
X77628960Y-84703909D01*
X77851000Y-84582624D01*
X77851000Y-83439000D01*
X78105000Y-83439000D01*
X78105000Y-84582624D01*
X78327040Y-84703909D01*
X78591881Y-84609070D01*
X78833131Y-84464385D01*
X79041519Y-84275414D01*
X79209037Y-84049420D01*
X79329246Y-83795087D01*
X79369904Y-83661039D01*
X79247915Y-83439000D01*
X78105000Y-83439000D01*
X77851000Y-83439000D01*
X77831000Y-83439000D01*
X77831000Y-83185000D01*
X77851000Y-83185000D01*
X77851000Y-83165000D01*
X78105000Y-83165000D01*
X78105000Y-83185000D01*
X79247915Y-83185000D01*
X79369904Y-82962961D01*
X79329246Y-82828913D01*
X79209037Y-82574580D01*
X79041519Y-82348586D01*
X78833131Y-82159615D01*
X78647135Y-82048067D01*
X78657727Y-82043680D01*
X78892759Y-81886637D01*
X79092637Y-81686759D01*
X79249680Y-81451727D01*
X79357853Y-81190574D01*
X79413000Y-80913335D01*
X79413000Y-80630665D01*
X79376688Y-80448113D01*
X84163000Y-75661802D01*
X84163000Y-75833335D01*
G36*
X69497363Y-76860759D02*
G01*
X69697241Y-77060637D01*
X69929759Y-77216000D01*
X69697241Y-77371363D01*
X69497363Y-77571241D01*
X69340320Y-77806273D01*
X69232147Y-78067426D01*
X69177000Y-78344665D01*
X69177000Y-78627335D01*
X69232147Y-78904574D01*
X69340320Y-79165727D01*
X69497363Y-79400759D01*
X69697241Y-79600637D01*
X69873167Y-79718187D01*
X69862997Y-79751714D01*
X69857842Y-79804053D01*
X69697241Y-79911363D01*
X69497363Y-80111241D01*
X69340320Y-80346273D01*
X69232147Y-80607426D01*
X69177000Y-80884665D01*
X69177000Y-81167335D01*
X69232147Y-81444574D01*
X69340320Y-81705727D01*
X69497363Y-81940759D01*
X69506001Y-81949397D01*
X59329003Y-92126396D01*
X59299999Y-92150199D01*
X59252165Y-92208486D01*
X59205026Y-92265924D01*
X59138164Y-92391014D01*
X59134454Y-92397954D01*
X59090997Y-92541215D01*
X59080000Y-92652868D01*
X59080000Y-92652878D01*
X59076324Y-92690200D01*
X59080000Y-92727523D01*
X59080000Y-93025091D01*
X59065537Y-93031082D01*
X58797748Y-93210013D01*
X58570013Y-93437748D01*
X58391082Y-93705537D01*
X58267832Y-94003088D01*
X58205000Y-94318967D01*
X58205000Y-94641033D01*
X58267832Y-94956912D01*
X58391082Y-95254463D01*
X58570013Y-95522252D01*
X58797748Y-95749987D01*
X58896693Y-95816100D01*
X53533307Y-95816100D01*
X53632252Y-95749987D01*
X53859987Y-95522252D01*
X54038918Y-95254463D01*
X54162168Y-94956912D01*
X54225000Y-94641033D01*
X54225000Y-94318967D01*
X54162168Y-94003088D01*
X54038918Y-93705537D01*
X53859987Y-93437748D01*
X53632252Y-93210013D01*
X53364463Y-93031082D01*
X53350000Y-93025091D01*
X53350000Y-92668601D01*
X59563562Y-86455039D01*
X61600096Y-86455039D01*
X61640754Y-86589087D01*
X61760963Y-86843420D01*
X61928481Y-87069414D01*
X62136869Y-87258385D01*
X62378119Y-87403070D01*
X62642960Y-87497909D01*
X62865000Y-87376624D01*
X62865000Y-86233000D01*
X63119000Y-86233000D01*
X63119000Y-87376624D01*
X63341040Y-87497909D01*
X63605881Y-87403070D01*
X63847131Y-87258385D01*
X64055519Y-87069414D01*
X64223037Y-86843420D01*
X64343246Y-86589087D01*
X64383904Y-86455039D01*
X64261915Y-86233000D01*
X63119000Y-86233000D01*
X62865000Y-86233000D01*
X61722085Y-86233000D01*
X61600096Y-86455039D01*
X59563562Y-86455039D01*
X61741370Y-84277231D01*
X61877363Y-84480759D01*
X62077241Y-84680637D01*
X62312273Y-84837680D01*
X62322865Y-84842067D01*
X62136869Y-84953615D01*
X61928481Y-85142586D01*
X61760963Y-85368580D01*
X61640754Y-85622913D01*
X61600096Y-85756961D01*
X61722085Y-85979000D01*
X62865000Y-85979000D01*
X62865000Y-85959000D01*
X63119000Y-85959000D01*
X63119000Y-85979000D01*
X64261915Y-85979000D01*
X64383904Y-85756961D01*
X64343246Y-85622913D01*
X64223037Y-85368580D01*
X64055519Y-85142586D01*
X63847131Y-84953615D01*
X63661135Y-84842067D01*
X63671727Y-84837680D01*
X63906759Y-84680637D01*
X64106637Y-84480759D01*
X64263680Y-84245727D01*
X64371853Y-83984574D01*
X64427000Y-83707335D01*
X64427000Y-83424665D01*
X64371853Y-83147426D01*
X64263680Y-82886273D01*
X64106637Y-82651241D01*
X64072799Y-82617403D01*
X68854004Y-77836198D01*
X68883001Y-77812401D01*
X68977974Y-77696676D01*
X69048546Y-77564647D01*
X69092003Y-77421386D01*
X69103000Y-77309733D01*
X69103000Y-77309724D01*
X69106676Y-77272401D01*
X69103000Y-77235078D01*
X69103000Y-76902701D01*
X69356203Y-76649498D01*
X69497363Y-76860759D01*
G37*
X69497363Y-76860759D02*
X69697241Y-77060637D01*
X69929759Y-77216000D01*
X69697241Y-77371363D01*
X69497363Y-77571241D01*
X69340320Y-77806273D01*
X69232147Y-78067426D01*
X69177000Y-78344665D01*
X69177000Y-78627335D01*
X69232147Y-78904574D01*
X69340320Y-79165727D01*
X69497363Y-79400759D01*
X69697241Y-79600637D01*
X69873167Y-79718187D01*
X69862997Y-79751714D01*
X69857842Y-79804053D01*
X69697241Y-79911363D01*
X69497363Y-80111241D01*
X69340320Y-80346273D01*
X69232147Y-80607426D01*
X69177000Y-80884665D01*
X69177000Y-81167335D01*
X69232147Y-81444574D01*
X69340320Y-81705727D01*
X69497363Y-81940759D01*
X69506001Y-81949397D01*
X59329003Y-92126396D01*
X59299999Y-92150199D01*
X59252165Y-92208486D01*
X59205026Y-92265924D01*
X59138164Y-92391014D01*
X59134454Y-92397954D01*
X59090997Y-92541215D01*
X59080000Y-92652868D01*
X59080000Y-92652878D01*
X59076324Y-92690200D01*
X59080000Y-92727523D01*
X59080000Y-93025091D01*
X59065537Y-93031082D01*
X58797748Y-93210013D01*
X58570013Y-93437748D01*
X58391082Y-93705537D01*
X58267832Y-94003088D01*
X58205000Y-94318967D01*
X58205000Y-94641033D01*
X58267832Y-94956912D01*
X58391082Y-95254463D01*
X58570013Y-95522252D01*
X58797748Y-95749987D01*
X58896693Y-95816100D01*
X53533307Y-95816100D01*
X53632252Y-95749987D01*
X53859987Y-95522252D01*
X54038918Y-95254463D01*
X54162168Y-94956912D01*
X54225000Y-94641033D01*
X54225000Y-94318967D01*
X54162168Y-94003088D01*
X54038918Y-93705537D01*
X53859987Y-93437748D01*
X53632252Y-93210013D01*
X53364463Y-93031082D01*
X53350000Y-93025091D01*
X53350000Y-92668601D01*
X59563562Y-86455039D01*
X61600096Y-86455039D01*
X61640754Y-86589087D01*
X61760963Y-86843420D01*
X61928481Y-87069414D01*
X62136869Y-87258385D01*
X62378119Y-87403070D01*
X62642960Y-87497909D01*
X62865000Y-87376624D01*
X62865000Y-86233000D01*
X63119000Y-86233000D01*
X63119000Y-87376624D01*
X63341040Y-87497909D01*
X63605881Y-87403070D01*
X63847131Y-87258385D01*
X64055519Y-87069414D01*
X64223037Y-86843420D01*
X64343246Y-86589087D01*
X64383904Y-86455039D01*
X64261915Y-86233000D01*
X63119000Y-86233000D01*
X62865000Y-86233000D01*
X61722085Y-86233000D01*
X61600096Y-86455039D01*
X59563562Y-86455039D01*
X61741370Y-84277231D01*
X61877363Y-84480759D01*
X62077241Y-84680637D01*
X62312273Y-84837680D01*
X62322865Y-84842067D01*
X62136869Y-84953615D01*
X61928481Y-85142586D01*
X61760963Y-85368580D01*
X61640754Y-85622913D01*
X61600096Y-85756961D01*
X61722085Y-85979000D01*
X62865000Y-85979000D01*
X62865000Y-85959000D01*
X63119000Y-85959000D01*
X63119000Y-85979000D01*
X64261915Y-85979000D01*
X64383904Y-85756961D01*
X64343246Y-85622913D01*
X64223037Y-85368580D01*
X64055519Y-85142586D01*
X63847131Y-84953615D01*
X63661135Y-84842067D01*
X63671727Y-84837680D01*
X63906759Y-84680637D01*
X64106637Y-84480759D01*
X64263680Y-84245727D01*
X64371853Y-83984574D01*
X64427000Y-83707335D01*
X64427000Y-83424665D01*
X64371853Y-83147426D01*
X64263680Y-82886273D01*
X64106637Y-82651241D01*
X64072799Y-82617403D01*
X68854004Y-77836198D01*
X68883001Y-77812401D01*
X68977974Y-77696676D01*
X69048546Y-77564647D01*
X69092003Y-77421386D01*
X69103000Y-77309733D01*
X69103000Y-77309724D01*
X69106676Y-77272401D01*
X69103000Y-77235078D01*
X69103000Y-76902701D01*
X69356203Y-76649498D01*
X69497363Y-76860759D01*
G36*
X92307961Y-63439302D02*
G01*
X92516698Y-63648039D01*
X92682103Y-63758559D01*
X92583512Y-63817183D01*
X92365146Y-64013707D01*
X92189316Y-64249056D01*
X92062778Y-64514186D01*
X92017042Y-64664974D01*
X92138183Y-64897000D01*
X93345000Y-64897000D01*
X93345000Y-64877000D01*
X93599000Y-64877000D01*
X93599000Y-64897000D01*
X93619000Y-64897000D01*
X93619000Y-65151000D01*
X93599000Y-65151000D01*
X93599000Y-65171000D01*
X93345000Y-65171000D01*
X93345000Y-65151000D01*
X92707544Y-65151000D01*
X92684447Y-65138654D01*
X92541186Y-65095197D01*
X92429533Y-65084200D01*
X92429522Y-65084200D01*
X92392200Y-65080524D01*
X92354878Y-65084200D01*
X90870225Y-65084200D01*
X90832900Y-65080524D01*
X90795575Y-65084200D01*
X90795567Y-65084200D01*
X90683914Y-65095197D01*
X90540653Y-65138654D01*
X90408624Y-65209226D01*
X90292899Y-65304199D01*
X90269101Y-65333197D01*
X89056998Y-66545301D01*
X89028000Y-66569099D01*
X89004202Y-66598097D01*
X89004201Y-66598098D01*
X88933026Y-66684824D01*
X88862454Y-66816854D01*
X88840895Y-66887928D01*
X88818998Y-66960114D01*
X88818586Y-66964300D01*
X88804324Y-67109100D01*
X88808001Y-67146432D01*
X88808000Y-79027198D01*
X87033000Y-80802199D01*
X87033000Y-80630665D01*
X86977853Y-80353426D01*
X86869680Y-80092273D01*
X86712637Y-79857241D01*
X86512759Y-79657363D01*
X86280241Y-79502000D01*
X86512759Y-79346637D01*
X86712637Y-79146759D01*
X86869680Y-78911727D01*
X86977853Y-78650574D01*
X87033000Y-78373335D01*
X87033000Y-78090665D01*
X86977853Y-77813426D01*
X86869680Y-77552273D01*
X86712637Y-77317241D01*
X86512759Y-77117363D01*
X86336833Y-76999813D01*
X86347003Y-76966286D01*
X86352158Y-76913947D01*
X86512759Y-76806637D01*
X86712637Y-76606759D01*
X86869680Y-76371727D01*
X86977853Y-76110574D01*
X87033000Y-75833335D01*
X87033000Y-75550665D01*
X86977853Y-75273426D01*
X86869680Y-75012273D01*
X86712637Y-74777241D01*
X86512759Y-74577363D01*
X86280241Y-74422000D01*
X86512759Y-74266637D01*
X86712637Y-74066759D01*
X86869680Y-73831727D01*
X86977853Y-73570574D01*
X87033000Y-73293335D01*
X87033000Y-73010665D01*
X86977853Y-72733426D01*
X86869680Y-72472273D01*
X86712637Y-72237241D01*
X86512759Y-72037363D01*
X86280241Y-71882000D01*
X86512759Y-71726637D01*
X86712637Y-71526759D01*
X86869680Y-71291727D01*
X86977853Y-71030574D01*
X87033000Y-70753335D01*
X87033000Y-70470665D01*
X86977853Y-70193426D01*
X86869680Y-69932273D01*
X86712637Y-69697241D01*
X86686949Y-69671553D01*
X88324503Y-68033999D01*
X88353501Y-68010201D01*
X88417633Y-67932056D01*
X88448474Y-67894477D01*
X88519046Y-67762447D01*
X88521382Y-67754746D01*
X88562503Y-67619186D01*
X88573500Y-67507533D01*
X88573500Y-67507523D01*
X88577176Y-67470200D01*
X88573500Y-67432877D01*
X88573500Y-66770301D01*
X92146358Y-63197445D01*
X92307961Y-63439302D01*
G37*
X92307961Y-63439302D02*
X92516698Y-63648039D01*
X92682103Y-63758559D01*
X92583512Y-63817183D01*
X92365146Y-64013707D01*
X92189316Y-64249056D01*
X92062778Y-64514186D01*
X92017042Y-64664974D01*
X92138183Y-64897000D01*
X93345000Y-64897000D01*
X93345000Y-64877000D01*
X93599000Y-64877000D01*
X93599000Y-64897000D01*
X93619000Y-64897000D01*
X93619000Y-65151000D01*
X93599000Y-65151000D01*
X93599000Y-65171000D01*
X93345000Y-65171000D01*
X93345000Y-65151000D01*
X92707544Y-65151000D01*
X92684447Y-65138654D01*
X92541186Y-65095197D01*
X92429533Y-65084200D01*
X92429522Y-65084200D01*
X92392200Y-65080524D01*
X92354878Y-65084200D01*
X90870225Y-65084200D01*
X90832900Y-65080524D01*
X90795575Y-65084200D01*
X90795567Y-65084200D01*
X90683914Y-65095197D01*
X90540653Y-65138654D01*
X90408624Y-65209226D01*
X90292899Y-65304199D01*
X90269101Y-65333197D01*
X89056998Y-66545301D01*
X89028000Y-66569099D01*
X89004202Y-66598097D01*
X89004201Y-66598098D01*
X88933026Y-66684824D01*
X88862454Y-66816854D01*
X88840895Y-66887928D01*
X88818998Y-66960114D01*
X88818586Y-66964300D01*
X88804324Y-67109100D01*
X88808001Y-67146432D01*
X88808000Y-79027198D01*
X87033000Y-80802199D01*
X87033000Y-80630665D01*
X86977853Y-80353426D01*
X86869680Y-80092273D01*
X86712637Y-79857241D01*
X86512759Y-79657363D01*
X86280241Y-79502000D01*
X86512759Y-79346637D01*
X86712637Y-79146759D01*
X86869680Y-78911727D01*
X86977853Y-78650574D01*
X87033000Y-78373335D01*
X87033000Y-78090665D01*
X86977853Y-77813426D01*
X86869680Y-77552273D01*
X86712637Y-77317241D01*
X86512759Y-77117363D01*
X86336833Y-76999813D01*
X86347003Y-76966286D01*
X86352158Y-76913947D01*
X86512759Y-76806637D01*
X86712637Y-76606759D01*
X86869680Y-76371727D01*
X86977853Y-76110574D01*
X87033000Y-75833335D01*
X87033000Y-75550665D01*
X86977853Y-75273426D01*
X86869680Y-75012273D01*
X86712637Y-74777241D01*
X86512759Y-74577363D01*
X86280241Y-74422000D01*
X86512759Y-74266637D01*
X86712637Y-74066759D01*
X86869680Y-73831727D01*
X86977853Y-73570574D01*
X87033000Y-73293335D01*
X87033000Y-73010665D01*
X86977853Y-72733426D01*
X86869680Y-72472273D01*
X86712637Y-72237241D01*
X86512759Y-72037363D01*
X86280241Y-71882000D01*
X86512759Y-71726637D01*
X86712637Y-71526759D01*
X86869680Y-71291727D01*
X86977853Y-71030574D01*
X87033000Y-70753335D01*
X87033000Y-70470665D01*
X86977853Y-70193426D01*
X86869680Y-69932273D01*
X86712637Y-69697241D01*
X86686949Y-69671553D01*
X88324503Y-68033999D01*
X88353501Y-68010201D01*
X88417633Y-67932056D01*
X88448474Y-67894477D01*
X88519046Y-67762447D01*
X88521382Y-67754746D01*
X88562503Y-67619186D01*
X88573500Y-67507533D01*
X88573500Y-67507523D01*
X88577176Y-67470200D01*
X88573500Y-67432877D01*
X88573500Y-66770301D01*
X92146358Y-63197445D01*
X92307961Y-63439302D01*
G36*
X35477001Y-71239004D02*
G01*
X35441039Y-71228096D01*
X35219000Y-71350085D01*
X35219000Y-72493000D01*
X35239000Y-72493000D01*
X35239000Y-72747000D01*
X35219000Y-72747000D01*
X35219000Y-73889915D01*
X35441039Y-74011904D01*
X35477000Y-74000997D01*
X35477000Y-77353121D01*
X34496951Y-78333171D01*
X34463184Y-78360883D01*
X34435471Y-78394651D01*
X34435468Y-78394654D01*
X34352590Y-78495641D01*
X34270412Y-78649387D01*
X34219805Y-78816210D01*
X34202719Y-78989700D01*
X34207001Y-79033178D01*
X34207001Y-79105478D01*
X34177241Y-79125363D01*
X34079940Y-79222664D01*
X34070517Y-79211183D01*
X33935759Y-79100589D01*
X33782013Y-79018411D01*
X33615190Y-78967805D01*
X33485177Y-78955000D01*
X33485169Y-78955000D01*
X33441700Y-78950719D01*
X33398231Y-78955000D01*
X26751013Y-78955000D01*
X26704039Y-78884698D01*
X26495302Y-78675961D01*
X26425000Y-78628987D01*
X26425000Y-78511013D01*
X26495302Y-78464039D01*
X26704039Y-78255302D01*
X26868042Y-78009853D01*
X26981010Y-77737125D01*
X27038600Y-77447599D01*
X27038600Y-77152401D01*
X26981010Y-76862875D01*
X26868042Y-76590147D01*
X26704039Y-76344698D01*
X26495302Y-76135961D01*
X26336719Y-76030000D01*
X26495302Y-75924039D01*
X26704039Y-75715302D01*
X26834535Y-75520000D01*
X28822978Y-75520000D01*
X28860300Y-75523676D01*
X28897622Y-75520000D01*
X28897633Y-75520000D01*
X29009286Y-75509003D01*
X29152547Y-75465546D01*
X29284576Y-75394974D01*
X29400301Y-75300001D01*
X29424104Y-75270997D01*
X31726061Y-72969040D01*
X33700091Y-72969040D01*
X33794930Y-73233881D01*
X33939615Y-73475131D01*
X34128586Y-73683519D01*
X34354580Y-73851037D01*
X34608913Y-73971246D01*
X34742961Y-74011904D01*
X34965000Y-73889915D01*
X34965000Y-72747000D01*
X33821376Y-72747000D01*
X33700091Y-72969040D01*
X31726061Y-72969040D01*
X32424141Y-72270960D01*
X33700091Y-72270960D01*
X33821376Y-72493000D01*
X34965000Y-72493000D01*
X34965000Y-71350085D01*
X34742961Y-71228096D01*
X34608913Y-71268754D01*
X34354580Y-71388963D01*
X34128586Y-71556481D01*
X33939615Y-71764869D01*
X33794930Y-72006119D01*
X33700091Y-72270960D01*
X32424141Y-72270960D01*
X35477001Y-69218101D01*
X35477001Y-71239004D01*
G37*
X35477001Y-71239004D02*
X35441039Y-71228096D01*
X35219000Y-71350085D01*
X35219000Y-72493000D01*
X35239000Y-72493000D01*
X35239000Y-72747000D01*
X35219000Y-72747000D01*
X35219000Y-73889915D01*
X35441039Y-74011904D01*
X35477000Y-74000997D01*
X35477000Y-77353121D01*
X34496951Y-78333171D01*
X34463184Y-78360883D01*
X34435471Y-78394651D01*
X34435468Y-78394654D01*
X34352590Y-78495641D01*
X34270412Y-78649387D01*
X34219805Y-78816210D01*
X34202719Y-78989700D01*
X34207001Y-79033178D01*
X34207001Y-79105478D01*
X34177241Y-79125363D01*
X34079940Y-79222664D01*
X34070517Y-79211183D01*
X33935759Y-79100589D01*
X33782013Y-79018411D01*
X33615190Y-78967805D01*
X33485177Y-78955000D01*
X33485169Y-78955000D01*
X33441700Y-78950719D01*
X33398231Y-78955000D01*
X26751013Y-78955000D01*
X26704039Y-78884698D01*
X26495302Y-78675961D01*
X26425000Y-78628987D01*
X26425000Y-78511013D01*
X26495302Y-78464039D01*
X26704039Y-78255302D01*
X26868042Y-78009853D01*
X26981010Y-77737125D01*
X27038600Y-77447599D01*
X27038600Y-77152401D01*
X26981010Y-76862875D01*
X26868042Y-76590147D01*
X26704039Y-76344698D01*
X26495302Y-76135961D01*
X26336719Y-76030000D01*
X26495302Y-75924039D01*
X26704039Y-75715302D01*
X26834535Y-75520000D01*
X28822978Y-75520000D01*
X28860300Y-75523676D01*
X28897622Y-75520000D01*
X28897633Y-75520000D01*
X29009286Y-75509003D01*
X29152547Y-75465546D01*
X29284576Y-75394974D01*
X29400301Y-75300001D01*
X29424104Y-75270997D01*
X31726061Y-72969040D01*
X33700091Y-72969040D01*
X33794930Y-73233881D01*
X33939615Y-73475131D01*
X34128586Y-73683519D01*
X34354580Y-73851037D01*
X34608913Y-73971246D01*
X34742961Y-74011904D01*
X34965000Y-73889915D01*
X34965000Y-72747000D01*
X33821376Y-72747000D01*
X33700091Y-72969040D01*
X31726061Y-72969040D01*
X32424141Y-72270960D01*
X33700091Y-72270960D01*
X33821376Y-72493000D01*
X34965000Y-72493000D01*
X34965000Y-71350085D01*
X34742961Y-71228096D01*
X34608913Y-71268754D01*
X34354580Y-71388963D01*
X34128586Y-71556481D01*
X33939615Y-71764869D01*
X33794930Y-72006119D01*
X33700091Y-72270960D01*
X32424141Y-72270960D01*
X35477001Y-69218101D01*
X35477001Y-71239004D01*
G36*
X23127000Y-77173000D02*
G01*
X23147000Y-77173000D01*
X23147000Y-77427000D01*
X23127000Y-77427000D01*
X23127000Y-77447000D01*
X22873000Y-77447000D01*
X22873000Y-77427000D01*
X22853000Y-77427000D01*
X22853000Y-77173000D01*
X22873000Y-77173000D01*
X22873000Y-77153000D01*
X23127000Y-77153000D01*
X23127000Y-77173000D01*
G37*
X23127000Y-77173000D02*
X23147000Y-77173000D01*
X23147000Y-77427000D01*
X23127000Y-77427000D01*
X23127000Y-77447000D01*
X22873000Y-77447000D01*
X22873000Y-77427000D01*
X22853000Y-77427000D01*
X22853000Y-77173000D01*
X22873000Y-77173000D01*
X22873000Y-77153000D01*
X23127000Y-77153000D01*
X23127000Y-77173000D01*
G36*
X107882501Y-55328303D02*
G01*
X107882501Y-67280866D01*
X107801027Y-67252037D01*
X107569000Y-67372536D01*
X107569000Y-68580000D01*
X107589000Y-68580000D01*
X107589000Y-68834000D01*
X107569000Y-68834000D01*
X107569000Y-68854000D01*
X107315000Y-68854000D01*
X107315000Y-68834000D01*
X105029000Y-68834000D01*
X105029000Y-71120000D01*
X105049000Y-71120000D01*
X105049000Y-71374000D01*
X105029000Y-71374000D01*
X105029000Y-73660000D01*
X105049000Y-73660000D01*
X105049000Y-73914000D01*
X105029000Y-73914000D01*
X105029000Y-73934000D01*
X104775000Y-73934000D01*
X104775000Y-73914000D01*
X104755000Y-73914000D01*
X104755000Y-73660000D01*
X104775000Y-73660000D01*
X104775000Y-71374000D01*
X104755000Y-71374000D01*
X104755000Y-71120000D01*
X104775000Y-71120000D01*
X104775000Y-68834000D01*
X104755000Y-68834000D01*
X104755000Y-68580000D01*
X104775000Y-68580000D01*
X104775000Y-67367150D01*
X105029000Y-67367150D01*
X105029000Y-68580000D01*
X107315000Y-68580000D01*
X107315000Y-67372536D01*
X107082973Y-67252037D01*
X106806022Y-67350036D01*
X106553512Y-67500183D01*
X106374053Y-67661692D01*
X106355102Y-67599220D01*
X106296137Y-67488906D01*
X106216785Y-67392215D01*
X106120094Y-67312863D01*
X106009780Y-67253898D01*
X105890082Y-67217588D01*
X105765600Y-67205328D01*
X105187750Y-67208400D01*
X105029000Y-67367150D01*
X104775000Y-67367150D01*
X104616250Y-67208400D01*
X104473100Y-67207639D01*
X104473100Y-51918902D01*
X107882501Y-55328303D01*
G37*
X107882501Y-55328303D02*
X107882501Y-67280866D01*
X107801027Y-67252037D01*
X107569000Y-67372536D01*
X107569000Y-68580000D01*
X107589000Y-68580000D01*
X107589000Y-68834000D01*
X107569000Y-68834000D01*
X107569000Y-68854000D01*
X107315000Y-68854000D01*
X107315000Y-68834000D01*
X105029000Y-68834000D01*
X105029000Y-71120000D01*
X105049000Y-71120000D01*
X105049000Y-71374000D01*
X105029000Y-71374000D01*
X105029000Y-73660000D01*
X105049000Y-73660000D01*
X105049000Y-73914000D01*
X105029000Y-73914000D01*
X105029000Y-73934000D01*
X104775000Y-73934000D01*
X104775000Y-73914000D01*
X104755000Y-73914000D01*
X104755000Y-73660000D01*
X104775000Y-73660000D01*
X104775000Y-71374000D01*
X104755000Y-71374000D01*
X104755000Y-71120000D01*
X104775000Y-71120000D01*
X104775000Y-68834000D01*
X104755000Y-68834000D01*
X104755000Y-68580000D01*
X104775000Y-68580000D01*
X104775000Y-67367150D01*
X105029000Y-67367150D01*
X105029000Y-68580000D01*
X107315000Y-68580000D01*
X107315000Y-67372536D01*
X107082973Y-67252037D01*
X106806022Y-67350036D01*
X106553512Y-67500183D01*
X106374053Y-67661692D01*
X106355102Y-67599220D01*
X106296137Y-67488906D01*
X106216785Y-67392215D01*
X106120094Y-67312863D01*
X106009780Y-67253898D01*
X105890082Y-67217588D01*
X105765600Y-67205328D01*
X105187750Y-67208400D01*
X105029000Y-67367150D01*
X104775000Y-67367150D01*
X104616250Y-67208400D01*
X104473100Y-67207639D01*
X104473100Y-51918902D01*
X107882501Y-55328303D01*
G36*
X96139000Y-64897000D02*
G01*
X96159000Y-64897000D01*
X96159000Y-65151000D01*
X96139000Y-65151000D01*
X96139000Y-65171000D01*
X95885000Y-65171000D01*
X95885000Y-65151000D01*
X95865000Y-65151000D01*
X95865000Y-64897000D01*
X95885000Y-64897000D01*
X95885000Y-64877000D01*
X96139000Y-64877000D01*
X96139000Y-64897000D01*
G37*
X96139000Y-64897000D02*
X96159000Y-64897000D01*
X96159000Y-65151000D01*
X96139000Y-65151000D01*
X96139000Y-65171000D01*
X95885000Y-65171000D01*
X95885000Y-65151000D01*
X95865000Y-65151000D01*
X95865000Y-64897000D01*
X95885000Y-64897000D01*
X95885000Y-64877000D01*
X96139000Y-64877000D01*
X96139000Y-64897000D01*
G36*
X42128501Y-35794103D02*
G01*
X42097363Y-35825241D01*
X41942000Y-36057759D01*
X41786637Y-35825241D01*
X41586759Y-35625363D01*
X41351727Y-35468320D01*
X41090574Y-35360147D01*
X40813335Y-35305000D01*
X40530665Y-35305000D01*
X40253426Y-35360147D01*
X39992273Y-35468320D01*
X39757241Y-35625363D01*
X39557363Y-35825241D01*
X39402000Y-36057759D01*
X39246637Y-35825241D01*
X39046759Y-35625363D01*
X38811727Y-35468320D01*
X38550574Y-35360147D01*
X38273335Y-35305000D01*
X37990665Y-35305000D01*
X37713426Y-35360147D01*
X37452273Y-35468320D01*
X37217241Y-35625363D01*
X37017363Y-35825241D01*
X36860320Y-36060273D01*
X36855933Y-36070865D01*
X36744385Y-35884869D01*
X36555414Y-35676481D01*
X36329420Y-35508963D01*
X36075087Y-35388754D01*
X35941039Y-35348096D01*
X35719000Y-35470085D01*
X35719000Y-36613000D01*
X35739000Y-36613000D01*
X35739000Y-36867000D01*
X35719000Y-36867000D01*
X35719000Y-38009915D01*
X35941039Y-38131904D01*
X36075087Y-38091246D01*
X36329420Y-37971037D01*
X36555414Y-37803519D01*
X36744385Y-37595131D01*
X36855933Y-37409135D01*
X36860320Y-37419727D01*
X37017363Y-37654759D01*
X37217241Y-37854637D01*
X37452273Y-38011680D01*
X37713426Y-38119853D01*
X37990665Y-38175000D01*
X38273335Y-38175000D01*
X38550574Y-38119853D01*
X38811727Y-38011680D01*
X39046759Y-37854637D01*
X39246637Y-37654759D01*
X39402000Y-37422241D01*
X39557363Y-37654759D01*
X39757241Y-37854637D01*
X39992273Y-38011680D01*
X40253426Y-38119853D01*
X40530665Y-38175000D01*
X40813335Y-38175000D01*
X41090574Y-38119853D01*
X41351727Y-38011680D01*
X41586759Y-37854637D01*
X41786637Y-37654759D01*
X41942000Y-37422241D01*
X42097363Y-37654759D01*
X42297241Y-37854637D01*
X42532273Y-38011680D01*
X42793426Y-38119853D01*
X43070665Y-38175000D01*
X43353335Y-38175000D01*
X43630574Y-38119853D01*
X43891727Y-38011680D01*
X44126759Y-37854637D01*
X44326637Y-37654759D01*
X44482000Y-37422241D01*
X44637363Y-37654759D01*
X44837241Y-37854637D01*
X45072273Y-38011680D01*
X45092952Y-38020246D01*
X40506799Y-42606400D01*
X37090511Y-42606400D01*
X37046574Y-42562463D01*
X36877056Y-42449195D01*
X36688698Y-42371174D01*
X36488739Y-42331400D01*
X36284861Y-42331400D01*
X36084902Y-42371174D01*
X35896544Y-42449195D01*
X35727026Y-42562463D01*
X35582863Y-42706626D01*
X35469595Y-42876144D01*
X35391574Y-43064502D01*
X35351800Y-43264461D01*
X35351800Y-43468339D01*
X35391574Y-43668298D01*
X35469595Y-43856656D01*
X35582863Y-44026174D01*
X35727026Y-44170337D01*
X35896544Y-44283605D01*
X36084902Y-44361626D01*
X36284861Y-44401400D01*
X36488739Y-44401400D01*
X36688698Y-44361626D01*
X36877056Y-44283605D01*
X37046574Y-44170337D01*
X37090511Y-44126400D01*
X40784278Y-44126400D01*
X40821600Y-44130076D01*
X40858922Y-44126400D01*
X40858933Y-44126400D01*
X40970586Y-44115403D01*
X41113847Y-44071946D01*
X41245876Y-44001374D01*
X41361601Y-43906401D01*
X41385404Y-43877397D01*
X47395779Y-37867024D01*
X47612273Y-38011680D01*
X47873426Y-38119853D01*
X48150665Y-38175000D01*
X48433335Y-38175000D01*
X48710574Y-38119853D01*
X48971727Y-38011680D01*
X49206759Y-37854637D01*
X49406637Y-37654759D01*
X49562000Y-37422241D01*
X49717363Y-37654759D01*
X49842551Y-37779947D01*
X38641003Y-48981496D01*
X38611999Y-49005299D01*
X38560745Y-49067753D01*
X38517026Y-49121024D01*
X38462451Y-49223126D01*
X38446454Y-49253054D01*
X38402997Y-49396315D01*
X38392000Y-49507968D01*
X38392000Y-49507978D01*
X38388324Y-49545300D01*
X38392000Y-49582623D01*
X38392000Y-49778017D01*
X38300574Y-49740147D01*
X38023335Y-49685000D01*
X37740665Y-49685000D01*
X37463426Y-49740147D01*
X37202273Y-49848320D01*
X36967241Y-50005363D01*
X36767363Y-50205241D01*
X36610320Y-50440273D01*
X36605933Y-50450865D01*
X36494385Y-50264869D01*
X36305414Y-50056481D01*
X36079420Y-49888963D01*
X35825087Y-49768754D01*
X35691039Y-49728096D01*
X35469000Y-49850085D01*
X35469000Y-50993000D01*
X35489000Y-50993000D01*
X35489000Y-51247000D01*
X35469000Y-51247000D01*
X35469000Y-52389915D01*
X35691039Y-52511904D01*
X35825087Y-52471246D01*
X36079420Y-52351037D01*
X36305414Y-52183519D01*
X36494385Y-51975131D01*
X36605933Y-51789135D01*
X36610320Y-51799727D01*
X36767363Y-52034759D01*
X36967241Y-52234637D01*
X37202273Y-52391680D01*
X37463426Y-52499853D01*
X37698488Y-52546610D01*
X35956403Y-54288696D01*
X35927399Y-54312499D01*
X35873213Y-54378526D01*
X35832426Y-54428224D01*
X35792726Y-54502497D01*
X35761854Y-54560254D01*
X35718397Y-54703515D01*
X35707400Y-54815168D01*
X35707400Y-54815178D01*
X35703724Y-54852500D01*
X35707400Y-54889823D01*
X35707400Y-56603522D01*
X34932200Y-55828322D01*
X34932200Y-52493475D01*
X34992961Y-52511904D01*
X35215000Y-52389915D01*
X35215000Y-51247000D01*
X35195000Y-51247000D01*
X35195000Y-50993000D01*
X35215000Y-50993000D01*
X35215000Y-49850085D01*
X34992961Y-49728096D01*
X34932200Y-49746525D01*
X34932200Y-45879744D01*
X35005311Y-45790659D01*
X35087489Y-45636913D01*
X35138095Y-45470090D01*
X35150900Y-45340077D01*
X35150900Y-45340069D01*
X35155181Y-45296600D01*
X35150900Y-45253131D01*
X35150900Y-38103981D01*
X35242961Y-38131904D01*
X35465000Y-38009915D01*
X35465000Y-36867000D01*
X35445000Y-36867000D01*
X35445000Y-36613000D01*
X35465000Y-36613000D01*
X35465000Y-35470085D01*
X35242961Y-35348096D01*
X35150900Y-35376019D01*
X35150900Y-32062978D01*
X36187049Y-31026830D01*
X36220817Y-30999117D01*
X36331411Y-30864359D01*
X36407585Y-30721846D01*
X36413589Y-30710614D01*
X36464195Y-30543790D01*
X36470643Y-30478320D01*
X36477000Y-30413777D01*
X36477000Y-30413769D01*
X36481281Y-30370300D01*
X36477000Y-30326831D01*
X36477000Y-30254521D01*
X36506759Y-30234637D01*
X36537897Y-30203499D01*
X42128501Y-35794103D01*
G37*
X42128501Y-35794103D02*
X42097363Y-35825241D01*
X41942000Y-36057759D01*
X41786637Y-35825241D01*
X41586759Y-35625363D01*
X41351727Y-35468320D01*
X41090574Y-35360147D01*
X40813335Y-35305000D01*
X40530665Y-35305000D01*
X40253426Y-35360147D01*
X39992273Y-35468320D01*
X39757241Y-35625363D01*
X39557363Y-35825241D01*
X39402000Y-36057759D01*
X39246637Y-35825241D01*
X39046759Y-35625363D01*
X38811727Y-35468320D01*
X38550574Y-35360147D01*
X38273335Y-35305000D01*
X37990665Y-35305000D01*
X37713426Y-35360147D01*
X37452273Y-35468320D01*
X37217241Y-35625363D01*
X37017363Y-35825241D01*
X36860320Y-36060273D01*
X36855933Y-36070865D01*
X36744385Y-35884869D01*
X36555414Y-35676481D01*
X36329420Y-35508963D01*
X36075087Y-35388754D01*
X35941039Y-35348096D01*
X35719000Y-35470085D01*
X35719000Y-36613000D01*
X35739000Y-36613000D01*
X35739000Y-36867000D01*
X35719000Y-36867000D01*
X35719000Y-38009915D01*
X35941039Y-38131904D01*
X36075087Y-38091246D01*
X36329420Y-37971037D01*
X36555414Y-37803519D01*
X36744385Y-37595131D01*
X36855933Y-37409135D01*
X36860320Y-37419727D01*
X37017363Y-37654759D01*
X37217241Y-37854637D01*
X37452273Y-38011680D01*
X37713426Y-38119853D01*
X37990665Y-38175000D01*
X38273335Y-38175000D01*
X38550574Y-38119853D01*
X38811727Y-38011680D01*
X39046759Y-37854637D01*
X39246637Y-37654759D01*
X39402000Y-37422241D01*
X39557363Y-37654759D01*
X39757241Y-37854637D01*
X39992273Y-38011680D01*
X40253426Y-38119853D01*
X40530665Y-38175000D01*
X40813335Y-38175000D01*
X41090574Y-38119853D01*
X41351727Y-38011680D01*
X41586759Y-37854637D01*
X41786637Y-37654759D01*
X41942000Y-37422241D01*
X42097363Y-37654759D01*
X42297241Y-37854637D01*
X42532273Y-38011680D01*
X42793426Y-38119853D01*
X43070665Y-38175000D01*
X43353335Y-38175000D01*
X43630574Y-38119853D01*
X43891727Y-38011680D01*
X44126759Y-37854637D01*
X44326637Y-37654759D01*
X44482000Y-37422241D01*
X44637363Y-37654759D01*
X44837241Y-37854637D01*
X45072273Y-38011680D01*
X45092952Y-38020246D01*
X40506799Y-42606400D01*
X37090511Y-42606400D01*
X37046574Y-42562463D01*
X36877056Y-42449195D01*
X36688698Y-42371174D01*
X36488739Y-42331400D01*
X36284861Y-42331400D01*
X36084902Y-42371174D01*
X35896544Y-42449195D01*
X35727026Y-42562463D01*
X35582863Y-42706626D01*
X35469595Y-42876144D01*
X35391574Y-43064502D01*
X35351800Y-43264461D01*
X35351800Y-43468339D01*
X35391574Y-43668298D01*
X35469595Y-43856656D01*
X35582863Y-44026174D01*
X35727026Y-44170337D01*
X35896544Y-44283605D01*
X36084902Y-44361626D01*
X36284861Y-44401400D01*
X36488739Y-44401400D01*
X36688698Y-44361626D01*
X36877056Y-44283605D01*
X37046574Y-44170337D01*
X37090511Y-44126400D01*
X40784278Y-44126400D01*
X40821600Y-44130076D01*
X40858922Y-44126400D01*
X40858933Y-44126400D01*
X40970586Y-44115403D01*
X41113847Y-44071946D01*
X41245876Y-44001374D01*
X41361601Y-43906401D01*
X41385404Y-43877397D01*
X47395779Y-37867024D01*
X47612273Y-38011680D01*
X47873426Y-38119853D01*
X48150665Y-38175000D01*
X48433335Y-38175000D01*
X48710574Y-38119853D01*
X48971727Y-38011680D01*
X49206759Y-37854637D01*
X49406637Y-37654759D01*
X49562000Y-37422241D01*
X49717363Y-37654759D01*
X49842551Y-37779947D01*
X38641003Y-48981496D01*
X38611999Y-49005299D01*
X38560745Y-49067753D01*
X38517026Y-49121024D01*
X38462451Y-49223126D01*
X38446454Y-49253054D01*
X38402997Y-49396315D01*
X38392000Y-49507968D01*
X38392000Y-49507978D01*
X38388324Y-49545300D01*
X38392000Y-49582623D01*
X38392000Y-49778017D01*
X38300574Y-49740147D01*
X38023335Y-49685000D01*
X37740665Y-49685000D01*
X37463426Y-49740147D01*
X37202273Y-49848320D01*
X36967241Y-50005363D01*
X36767363Y-50205241D01*
X36610320Y-50440273D01*
X36605933Y-50450865D01*
X36494385Y-50264869D01*
X36305414Y-50056481D01*
X36079420Y-49888963D01*
X35825087Y-49768754D01*
X35691039Y-49728096D01*
X35469000Y-49850085D01*
X35469000Y-50993000D01*
X35489000Y-50993000D01*
X35489000Y-51247000D01*
X35469000Y-51247000D01*
X35469000Y-52389915D01*
X35691039Y-52511904D01*
X35825087Y-52471246D01*
X36079420Y-52351037D01*
X36305414Y-52183519D01*
X36494385Y-51975131D01*
X36605933Y-51789135D01*
X36610320Y-51799727D01*
X36767363Y-52034759D01*
X36967241Y-52234637D01*
X37202273Y-52391680D01*
X37463426Y-52499853D01*
X37698488Y-52546610D01*
X35956403Y-54288696D01*
X35927399Y-54312499D01*
X35873213Y-54378526D01*
X35832426Y-54428224D01*
X35792726Y-54502497D01*
X35761854Y-54560254D01*
X35718397Y-54703515D01*
X35707400Y-54815168D01*
X35707400Y-54815178D01*
X35703724Y-54852500D01*
X35707400Y-54889823D01*
X35707400Y-56603522D01*
X34932200Y-55828322D01*
X34932200Y-52493475D01*
X34992961Y-52511904D01*
X35215000Y-52389915D01*
X35215000Y-51247000D01*
X35195000Y-51247000D01*
X35195000Y-50993000D01*
X35215000Y-50993000D01*
X35215000Y-49850085D01*
X34992961Y-49728096D01*
X34932200Y-49746525D01*
X34932200Y-45879744D01*
X35005311Y-45790659D01*
X35087489Y-45636913D01*
X35138095Y-45470090D01*
X35150900Y-45340077D01*
X35150900Y-45340069D01*
X35155181Y-45296600D01*
X35150900Y-45253131D01*
X35150900Y-38103981D01*
X35242961Y-38131904D01*
X35465000Y-38009915D01*
X35465000Y-36867000D01*
X35445000Y-36867000D01*
X35445000Y-36613000D01*
X35465000Y-36613000D01*
X35465000Y-35470085D01*
X35242961Y-35348096D01*
X35150900Y-35376019D01*
X35150900Y-32062978D01*
X36187049Y-31026830D01*
X36220817Y-30999117D01*
X36331411Y-30864359D01*
X36407585Y-30721846D01*
X36413589Y-30710614D01*
X36464195Y-30543790D01*
X36470643Y-30478320D01*
X36477000Y-30413777D01*
X36477000Y-30413769D01*
X36481281Y-30370300D01*
X36477000Y-30326831D01*
X36477000Y-30254521D01*
X36506759Y-30234637D01*
X36537897Y-30203499D01*
X42128501Y-35794103D01*
G36*
X98190844Y-48781445D02*
G01*
X98136663Y-48835626D01*
X98023395Y-49005144D01*
X97945374Y-49193502D01*
X97905600Y-49393461D01*
X97905600Y-49597339D01*
X97945374Y-49797298D01*
X98023395Y-49985656D01*
X98136663Y-50155174D01*
X98280826Y-50299337D01*
X98450344Y-50412605D01*
X98525413Y-50443700D01*
X98476061Y-50443700D01*
X98276102Y-50483474D01*
X98087744Y-50561495D01*
X97918226Y-50674763D01*
X97774063Y-50818926D01*
X97660795Y-50988444D01*
X97582774Y-51176802D01*
X97543000Y-51376761D01*
X97543000Y-51580639D01*
X97582774Y-51780598D01*
X97660795Y-51968956D01*
X97774063Y-52138474D01*
X97818000Y-52182411D01*
X97818000Y-53872599D01*
X97195531Y-53250130D01*
X97340042Y-53033853D01*
X97453010Y-52761125D01*
X97510600Y-52471599D01*
X97510600Y-52176401D01*
X97453010Y-51886875D01*
X97340042Y-51614147D01*
X97176039Y-51368698D01*
X96967302Y-51159961D01*
X96808719Y-51054000D01*
X96967302Y-50948039D01*
X97176039Y-50739302D01*
X97340042Y-50493853D01*
X97453010Y-50221125D01*
X97510600Y-49931599D01*
X97510600Y-49636401D01*
X97453010Y-49346875D01*
X97340042Y-49074147D01*
X97176039Y-48828698D01*
X96967302Y-48619961D01*
X96801897Y-48509441D01*
X96900488Y-48450817D01*
X97118854Y-48254293D01*
X97294684Y-48018944D01*
X97337866Y-47928467D01*
X98190844Y-48781445D01*
G37*
X98190844Y-48781445D02*
X98136663Y-48835626D01*
X98023395Y-49005144D01*
X97945374Y-49193502D01*
X97905600Y-49393461D01*
X97905600Y-49597339D01*
X97945374Y-49797298D01*
X98023395Y-49985656D01*
X98136663Y-50155174D01*
X98280826Y-50299337D01*
X98450344Y-50412605D01*
X98525413Y-50443700D01*
X98476061Y-50443700D01*
X98276102Y-50483474D01*
X98087744Y-50561495D01*
X97918226Y-50674763D01*
X97774063Y-50818926D01*
X97660795Y-50988444D01*
X97582774Y-51176802D01*
X97543000Y-51376761D01*
X97543000Y-51580639D01*
X97582774Y-51780598D01*
X97660795Y-51968956D01*
X97774063Y-52138474D01*
X97818000Y-52182411D01*
X97818000Y-53872599D01*
X97195531Y-53250130D01*
X97340042Y-53033853D01*
X97453010Y-52761125D01*
X97510600Y-52471599D01*
X97510600Y-52176401D01*
X97453010Y-51886875D01*
X97340042Y-51614147D01*
X97176039Y-51368698D01*
X96967302Y-51159961D01*
X96808719Y-51054000D01*
X96967302Y-50948039D01*
X97176039Y-50739302D01*
X97340042Y-50493853D01*
X97453010Y-50221125D01*
X97510600Y-49931599D01*
X97510600Y-49636401D01*
X97453010Y-49346875D01*
X97340042Y-49074147D01*
X97176039Y-48828698D01*
X96967302Y-48619961D01*
X96801897Y-48509441D01*
X96900488Y-48450817D01*
X97118854Y-48254293D01*
X97294684Y-48018944D01*
X97337866Y-47928467D01*
X98190844Y-48781445D01*
G36*
X64688754Y-41426913D02*
G01*
X64648096Y-41560961D01*
X64770085Y-41783000D01*
X65913000Y-41783000D01*
X65913000Y-41763000D01*
X66167000Y-41763000D01*
X66167000Y-41783000D01*
X66187000Y-41783000D01*
X66187000Y-42037000D01*
X66167000Y-42037000D01*
X66167000Y-42057000D01*
X65913000Y-42057000D01*
X65913000Y-42037000D01*
X64770085Y-42037000D01*
X64648096Y-42259039D01*
X64688754Y-42393087D01*
X64700963Y-42418918D01*
X64689975Y-42420000D01*
X64689967Y-42420000D01*
X64578314Y-42430997D01*
X64435053Y-42474454D01*
X64303024Y-42545026D01*
X64187299Y-42639999D01*
X64163501Y-42668997D01*
X56935948Y-49896551D01*
X56913185Y-49868815D01*
X56816494Y-49789463D01*
X56706180Y-49730498D01*
X56586482Y-49694188D01*
X56462000Y-49681928D01*
X56056873Y-49681928D01*
X64338802Y-41400000D01*
X64701474Y-41400000D01*
X64688754Y-41426913D01*
G37*
X64688754Y-41426913D02*
X64648096Y-41560961D01*
X64770085Y-41783000D01*
X65913000Y-41783000D01*
X65913000Y-41763000D01*
X66167000Y-41763000D01*
X66167000Y-41783000D01*
X66187000Y-41783000D01*
X66187000Y-42037000D01*
X66167000Y-42037000D01*
X66167000Y-42057000D01*
X65913000Y-42057000D01*
X65913000Y-42037000D01*
X64770085Y-42037000D01*
X64648096Y-42259039D01*
X64688754Y-42393087D01*
X64700963Y-42418918D01*
X64689975Y-42420000D01*
X64689967Y-42420000D01*
X64578314Y-42430997D01*
X64435053Y-42474454D01*
X64303024Y-42545026D01*
X64187299Y-42639999D01*
X64163501Y-42668997D01*
X56935948Y-49896551D01*
X56913185Y-49868815D01*
X56816494Y-49789463D01*
X56706180Y-49730498D01*
X56586482Y-49694188D01*
X56462000Y-49681928D01*
X56056873Y-49681928D01*
X64338802Y-41400000D01*
X64701474Y-41400000D01*
X64688754Y-41426913D01*
G36*
X93599000Y-47117000D02*
G01*
X95885000Y-47117000D01*
X95885000Y-47097000D01*
X96139000Y-47097000D01*
X96139000Y-47117000D01*
X96159000Y-47117000D01*
X96159000Y-47371000D01*
X96139000Y-47371000D01*
X96139000Y-47391000D01*
X95885000Y-47391000D01*
X95885000Y-47371000D01*
X93599000Y-47371000D01*
X93599000Y-47391000D01*
X93345000Y-47391000D01*
X93345000Y-47371000D01*
X93325000Y-47371000D01*
X93325000Y-47117000D01*
X93345000Y-47117000D01*
X93345000Y-47097000D01*
X93599000Y-47097000D01*
X93599000Y-47117000D01*
G37*
X93599000Y-47117000D02*
X95885000Y-47117000D01*
X95885000Y-47097000D01*
X96139000Y-47097000D01*
X96139000Y-47117000D01*
X96159000Y-47117000D01*
X96159000Y-47371000D01*
X96139000Y-47371000D01*
X96139000Y-47391000D01*
X95885000Y-47391000D01*
X95885000Y-47371000D01*
X93599000Y-47371000D01*
X93599000Y-47391000D01*
X93345000Y-47391000D01*
X93345000Y-47371000D01*
X93325000Y-47371000D01*
X93325000Y-47117000D01*
X93345000Y-47117000D01*
X93345000Y-47097000D01*
X93599000Y-47097000D01*
X93599000Y-47117000D01*
M02*
