M48
; DRILL file {KiCad (5.1.5-0-10_14)} date 2020 June 15, Monday 10:56:32
; FORMAT={-:-/ absolute / inch / decimal}
; #@! TF.CreationDate,2020-06-15T10:56:32+02:00
; #@! TF.GenerationSoftware,Kicad,Pcbnew,(5.1.5-0-10_14)
FMAT,2
INCH
T1C0.0157
T2C0.0276
T3C0.0315
T4C0.0394
T5C0.0400
T6C0.1200
%
G90
G05
T1
X1.1445Y-2.38
X1.1805Y-3.3198
X1.192Y-3.875
X1.2473Y-2.482
X1.3281Y-2.4654
X1.3662Y-2.4361
X1.456Y-4.356
X1.464Y-3.916
X1.4962Y-3.5188
X1.5341Y-1.8891
X1.5661Y-1.8439
X1.6179Y-1.85
X1.635Y-4.354
X1.839Y-4.354
X1.853Y-3.972
X1.9167Y-2.0731
X2.1526Y-2.709
X2.1801Y-2.7857
X2.29Y-3.4803
X2.44Y-3.523
X2.443Y-2.014
X2.5313Y-3.7305
X2.715Y-4.059
X2.8203Y-2.3053
X2.936Y-3.527
X3.055Y-4.351
X3.0647Y-2.3293
X3.218Y-1.696
X3.3038Y-1.9025
X3.3335Y-1.9726
X3.3774Y-2.3552
X3.3935Y-3.7443
X3.445Y-2.3155
X3.4634Y-1.8898
X3.5599Y-1.7982
X3.8612Y-2.0536
X3.8969Y-1.5811
X3.9117Y-1.6766
X3.9149Y-1.6285
X3.9289Y-1.741
T2
X2.9071Y-4.202
X2.9071Y-4.302
X3.1925Y-4.202
X3.1925Y-4.302
X2.6217Y-4.202
X2.6217Y-4.302
X2.0705Y-4.202
X2.0705Y-4.302
X2.3559Y-4.202
X2.3559Y-4.302
T3
X1.4013Y-1.1465
X1.4013Y-1.4465
X1.5013Y-1.1465
X1.5013Y-1.4465
X1.6013Y-1.1465
X1.6013Y-1.4465
X1.7013Y-1.1465
X1.7013Y-1.4465
X1.8013Y-1.1465
X1.8013Y-1.4465
X1.9013Y-1.1465
X1.9013Y-1.4465
X2.0013Y-1.1465
X2.0013Y-1.4465
X2.1013Y-1.1465
X2.1013Y-1.4465
X2.2013Y-1.1465
X2.2013Y-1.4465
X1.3816Y-2.8591
X1.3816Y-3.1591
X1.4816Y-2.8591
X1.4816Y-3.1591
X1.5816Y-2.8591
X1.5816Y-3.1591
X1.6816Y-2.8591
X1.6816Y-3.1591
X1.7816Y-2.8591
X1.7816Y-3.1591
X1.8816Y-2.8591
X1.8816Y-3.1591
X1.9816Y-2.8591
X1.9816Y-3.1591
X2.0816Y-2.8591
X2.0816Y-3.1591
X2.1816Y-2.8591
X2.1816Y-3.1591
X2.48Y-2.69
X2.48Y-2.79
X2.48Y-2.89
X2.48Y-2.99
X2.48Y-3.09
X2.48Y-3.19
X2.48Y-3.29
X2.48Y-3.39
X2.78Y-2.69
X2.78Y-2.79
X2.78Y-2.89
X2.78Y-2.99
X2.78Y-3.09
X2.78Y-3.19
X2.78Y-3.29
X2.78Y-3.39
X1.3914Y-2.0126
X1.3914Y-2.3126
X1.4914Y-2.0126
X1.4914Y-2.3126
X1.5914Y-2.0126
X1.5914Y-2.3126
X1.6914Y-2.0126
X1.6914Y-2.3126
X1.7914Y-2.0126
X1.7914Y-2.3126
X1.8914Y-2.0126
X1.8914Y-2.3126
X1.9914Y-2.0126
X1.9914Y-2.3126
X2.0914Y-2.0126
X2.0914Y-2.3126
X2.1914Y-2.0126
X2.1914Y-2.3126
X3.07Y-2.58
X3.07Y-2.68
X3.07Y-2.78
X3.07Y-2.88
X3.07Y-2.98
X3.07Y-3.08
X3.07Y-3.18
X3.07Y-3.28
X3.37Y-2.58
X3.37Y-2.68
X3.37Y-2.78
X3.37Y-2.88
X3.37Y-2.98
X3.37Y-3.08
X3.37Y-3.18
X3.37Y-3.28
X2.6Y-0.75
X2.6Y-0.85
X2.6Y-0.95
X2.6Y-1.05
X2.6Y-1.15
X2.6Y-1.25
X2.6Y-1.35
X2.6Y-1.45
X2.6Y-1.55
X2.6Y-1.65
X2.6Y-1.75
X2.6Y-1.85
X2.6Y-1.95
X2.6Y-2.05
X2.9Y-0.75
X2.9Y-0.85
X2.9Y-0.95
X2.9Y-1.05
X2.9Y-1.15
X2.9Y-1.25
X2.9Y-1.35
X2.9Y-1.45
X2.9Y-1.55
X2.9Y-1.65
X2.9Y-1.75
X2.9Y-1.85
X2.9Y-1.95
X2.9Y-2.05
T4
X2.3559Y-3.7197
X2.3559Y-4.015
X2.9071Y-3.7197
X2.9071Y-4.015
X2.6217Y-3.7197
X2.6217Y-4.015
X1.361Y-3.8624
X1.361Y-3.9624
X1.361Y-4.0624
X3.1925Y-3.7197
X3.1925Y-4.015
X1.5441Y-3.8624
X1.5441Y-3.9624
X1.5441Y-4.0624
X1.7272Y-3.8624
X1.7272Y-3.9624
X1.7272Y-4.0624
X2.0705Y-3.7197
X2.0705Y-4.015
T5
X0.9055Y-1.0433
X0.9055Y-1.1433
X0.9055Y-1.2433
X0.9055Y-1.3433
X0.9055Y-1.4433
X0.9055Y-1.5433
X0.9055Y-1.6433
X0.9055Y-1.7433
X0.9055Y-1.8433
X0.9055Y-1.9433
X0.9055Y-2.0433
X0.9055Y-2.1433
X0.9055Y-2.2433
X0.9055Y-2.3433
X0.9055Y-2.4433
X0.9055Y-2.5433
X0.9055Y-2.6433
X0.9055Y-2.7433
X0.9055Y-2.8433
X0.9055Y-2.9433
X0.9055Y-3.0433
X0.9055Y-3.1433
X0.9055Y-3.2433
X0.9055Y-3.3433
X0.9055Y-3.4433
X0.9055Y-3.5433
X0.9055Y-3.6433
X0.9055Y-3.7433
X0.9055Y-3.8433
X0.9055Y-3.9433
X1.0055Y-1.0433
X1.0055Y-1.1433
X1.0055Y-1.2433
X1.0055Y-1.3433
X1.0055Y-1.4433
X1.0055Y-1.5433
X1.0055Y-1.6433
X1.0055Y-1.7433
X1.0055Y-1.8433
X1.0055Y-1.9433
X1.0055Y-2.0433
X1.0055Y-2.1433
X1.0055Y-2.2433
X1.0055Y-2.3433
X1.0055Y-2.4433
X1.0055Y-2.5433
X1.0055Y-2.6433
X1.0055Y-2.7433
X1.0055Y-2.8433
X1.0055Y-2.9433
X1.0055Y-3.0433
X1.0055Y-3.1433
X1.0055Y-3.2433
X1.0055Y-3.3433
X1.0055Y-3.4433
X1.0055Y-3.5433
X1.0055Y-3.6433
X1.0055Y-3.7433
X1.0055Y-3.8433
X1.0055Y-3.9433
X3.68Y-1.27
X3.68Y-1.37
X3.68Y-1.47
X3.68Y-1.57
X3.68Y-1.67
X3.68Y-1.77
X3.68Y-1.87
X3.68Y-1.97
X3.68Y-2.07
X3.68Y-2.17
X3.68Y-2.27
X3.68Y-2.37
X3.68Y-2.47
X3.68Y-2.57
X3.68Y-2.67
X3.68Y-2.77
X3.68Y-2.87
X3.68Y-2.97
X3.68Y-3.07
X3.68Y-3.17
X3.68Y-3.27
X3.68Y-3.37
X3.68Y-3.47
X3.68Y-3.57
X3.68Y-3.67
X3.78Y-1.27
X3.78Y-1.37
X3.78Y-1.47
X3.78Y-1.57
X3.78Y-1.67
X3.78Y-1.77
X3.78Y-1.87
X3.78Y-1.97
X3.78Y-2.07
X3.78Y-2.17
X3.78Y-2.27
X3.78Y-2.37
X3.78Y-2.47
X3.78Y-2.57
X3.78Y-2.67
X3.78Y-2.77
X3.78Y-2.87
X3.78Y-2.97
X3.78Y-3.07
X3.78Y-3.17
X3.78Y-3.27
X3.78Y-3.37
X3.78Y-3.47
X3.78Y-3.57
X3.78Y-3.67
X4.13Y-2.01
X4.13Y-2.11
X4.13Y-2.21
X4.13Y-2.31
X4.13Y-2.41
X4.13Y-2.51
X4.13Y-2.61
X4.13Y-2.71
X4.13Y-2.81
X4.13Y-2.91
X4.23Y-2.01
X4.23Y-2.11
X4.23Y-2.21
X4.23Y-2.31
X4.23Y-2.41
X4.23Y-2.51
X4.23Y-2.61
X4.23Y-2.71
X4.23Y-2.81
X4.23Y-2.91
T6
X0.7087Y-0.7087
X4.252Y-0.7087
X0.7087Y-4.252
X4.252Y-4.252
T0
M30
