G04 #@! TF.GenerationSoftware,KiCad,Pcbnew,(5.1.5-0-10_14)*
G04 #@! TF.CreationDate,2020-06-29T21:31:51+02:00*
G04 #@! TF.ProjectId,BROSE_LAWO_Adapter,42524f53-455f-44c4-9157-4f5f41646170,rev?*
G04 #@! TF.SameCoordinates,Original*
G04 #@! TF.FileFunction,Copper,L1,Top*
G04 #@! TF.FilePolarity,Positive*
%FSLAX46Y46*%
G04 Gerber Fmt 4.6, Leading zero omitted, Abs format (unit mm)*
G04 Created by KiCad (PCBNEW (5.1.5-0-10_14)) date 2020-06-29 21:31:51*
%MOMM*%
%LPD*%
G04 APERTURE LIST*
%ADD10C,4.064000*%
%ADD11O,1.727200X1.727200*%
%ADD12R,1.727200X1.727200*%
%ADD13O,1.600000X1.600000*%
%ADD14R,1.600000X1.600000*%
%ADD15C,0.100000*%
%ADD16O,1.400000X1.400000*%
%ADD17C,1.400000*%
%ADD18C,2.000000*%
%ADD19O,1.700000X1.700000*%
%ADD20R,1.700000X1.700000*%
%ADD21C,0.800000*%
%ADD22C,0.250000*%
%ADD23C,0.500000*%
%ADD24C,0.254000*%
G04 APERTURE END LIST*
D10*
X108000000Y-18000000D03*
X108000000Y-108000000D03*
X18000000Y-108000000D03*
X18000000Y-18000000D03*
D11*
X107442000Y-91567000D03*
X104902000Y-91567000D03*
X107442000Y-89027000D03*
X104902000Y-89027000D03*
X107442000Y-86487000D03*
X104902000Y-86487000D03*
X107442000Y-83947000D03*
X104902000Y-83947000D03*
X107442000Y-81407000D03*
X104902000Y-81407000D03*
X107442000Y-78867000D03*
X104902000Y-78867000D03*
X107442000Y-76327000D03*
X104902000Y-76327000D03*
X107442000Y-73787000D03*
X104902000Y-73787000D03*
X107442000Y-71247000D03*
X104902000Y-71247000D03*
X107442000Y-68707000D03*
D12*
X104902000Y-68707000D03*
D13*
X85598000Y-65532000D03*
X77978000Y-83312000D03*
X85598000Y-68072000D03*
X77978000Y-80772000D03*
X85598000Y-70612000D03*
X77978000Y-78232000D03*
X85598000Y-73152000D03*
X77978000Y-75692000D03*
X85598000Y-75692000D03*
X77978000Y-73152000D03*
X85598000Y-78232000D03*
X77978000Y-70612000D03*
X85598000Y-80772000D03*
X77978000Y-68072000D03*
X85598000Y-83312000D03*
D14*
X77978000Y-65532000D03*
D13*
X70612000Y-68326000D03*
X62992000Y-86106000D03*
X70612000Y-70866000D03*
X62992000Y-83566000D03*
X70612000Y-73406000D03*
X62992000Y-81026000D03*
X70612000Y-75946000D03*
X62992000Y-78486000D03*
X70612000Y-78486000D03*
X62992000Y-75946000D03*
X70612000Y-81026000D03*
X62992000Y-73406000D03*
X70612000Y-83566000D03*
X62992000Y-70866000D03*
X70612000Y-86106000D03*
D14*
X62992000Y-68326000D03*
D13*
X73660000Y-19050000D03*
X66040000Y-52070000D03*
X73660000Y-21590000D03*
X66040000Y-49530000D03*
X73660000Y-24130000D03*
X66040000Y-46990000D03*
X73660000Y-26670000D03*
X66040000Y-44450000D03*
X73660000Y-29210000D03*
X66040000Y-41910000D03*
X73660000Y-31750000D03*
X66040000Y-39370000D03*
X73660000Y-34290000D03*
X66040000Y-36830000D03*
X73660000Y-36830000D03*
X66040000Y-34290000D03*
X73660000Y-39370000D03*
X66040000Y-31750000D03*
X73660000Y-41910000D03*
X66040000Y-29210000D03*
X73660000Y-44450000D03*
X66040000Y-26670000D03*
X73660000Y-46990000D03*
X66040000Y-24130000D03*
X73660000Y-49530000D03*
X66040000Y-21590000D03*
X73660000Y-52070000D03*
D14*
X66040000Y-19050000D03*
G04 #@! TA.AperFunction,SMDPad,CuDef*
D15*
G36*
X108551505Y-59680204D02*
G01*
X108575773Y-59683804D01*
X108599572Y-59689765D01*
X108622671Y-59698030D01*
X108644850Y-59708520D01*
X108665893Y-59721132D01*
X108685599Y-59735747D01*
X108703777Y-59752223D01*
X108720253Y-59770401D01*
X108734868Y-59790107D01*
X108747480Y-59811150D01*
X108757970Y-59833329D01*
X108766235Y-59856428D01*
X108772196Y-59880227D01*
X108775796Y-59904495D01*
X108777000Y-59928999D01*
X108777000Y-60579001D01*
X108775796Y-60603505D01*
X108772196Y-60627773D01*
X108766235Y-60651572D01*
X108757970Y-60674671D01*
X108747480Y-60696850D01*
X108734868Y-60717893D01*
X108720253Y-60737599D01*
X108703777Y-60755777D01*
X108685599Y-60772253D01*
X108665893Y-60786868D01*
X108644850Y-60799480D01*
X108622671Y-60809970D01*
X108599572Y-60818235D01*
X108575773Y-60824196D01*
X108551505Y-60827796D01*
X108527001Y-60829000D01*
X107626999Y-60829000D01*
X107602495Y-60827796D01*
X107578227Y-60824196D01*
X107554428Y-60818235D01*
X107531329Y-60809970D01*
X107509150Y-60799480D01*
X107488107Y-60786868D01*
X107468401Y-60772253D01*
X107450223Y-60755777D01*
X107433747Y-60737599D01*
X107419132Y-60717893D01*
X107406520Y-60696850D01*
X107396030Y-60674671D01*
X107387765Y-60651572D01*
X107381804Y-60627773D01*
X107378204Y-60603505D01*
X107377000Y-60579001D01*
X107377000Y-59928999D01*
X107378204Y-59904495D01*
X107381804Y-59880227D01*
X107387765Y-59856428D01*
X107396030Y-59833329D01*
X107406520Y-59811150D01*
X107419132Y-59790107D01*
X107433747Y-59770401D01*
X107450223Y-59752223D01*
X107468401Y-59735747D01*
X107488107Y-59721132D01*
X107509150Y-59708520D01*
X107531329Y-59698030D01*
X107554428Y-59689765D01*
X107578227Y-59683804D01*
X107602495Y-59680204D01*
X107626999Y-59679000D01*
X108527001Y-59679000D01*
X108551505Y-59680204D01*
G37*
G04 #@! TD.AperFunction*
G04 #@! TA.AperFunction,SMDPad,CuDef*
G36*
X108551505Y-57630204D02*
G01*
X108575773Y-57633804D01*
X108599572Y-57639765D01*
X108622671Y-57648030D01*
X108644850Y-57658520D01*
X108665893Y-57671132D01*
X108685599Y-57685747D01*
X108703777Y-57702223D01*
X108720253Y-57720401D01*
X108734868Y-57740107D01*
X108747480Y-57761150D01*
X108757970Y-57783329D01*
X108766235Y-57806428D01*
X108772196Y-57830227D01*
X108775796Y-57854495D01*
X108777000Y-57878999D01*
X108777000Y-58529001D01*
X108775796Y-58553505D01*
X108772196Y-58577773D01*
X108766235Y-58601572D01*
X108757970Y-58624671D01*
X108747480Y-58646850D01*
X108734868Y-58667893D01*
X108720253Y-58687599D01*
X108703777Y-58705777D01*
X108685599Y-58722253D01*
X108665893Y-58736868D01*
X108644850Y-58749480D01*
X108622671Y-58759970D01*
X108599572Y-58768235D01*
X108575773Y-58774196D01*
X108551505Y-58777796D01*
X108527001Y-58779000D01*
X107626999Y-58779000D01*
X107602495Y-58777796D01*
X107578227Y-58774196D01*
X107554428Y-58768235D01*
X107531329Y-58759970D01*
X107509150Y-58749480D01*
X107488107Y-58736868D01*
X107468401Y-58722253D01*
X107450223Y-58705777D01*
X107433747Y-58687599D01*
X107419132Y-58667893D01*
X107406520Y-58646850D01*
X107396030Y-58624671D01*
X107387765Y-58601572D01*
X107381804Y-58577773D01*
X107378204Y-58553505D01*
X107377000Y-58529001D01*
X107377000Y-57878999D01*
X107378204Y-57854495D01*
X107381804Y-57830227D01*
X107387765Y-57806428D01*
X107396030Y-57783329D01*
X107406520Y-57761150D01*
X107419132Y-57740107D01*
X107433747Y-57720401D01*
X107450223Y-57702223D01*
X107468401Y-57685747D01*
X107488107Y-57671132D01*
X107509150Y-57658520D01*
X107531329Y-57648030D01*
X107554428Y-57639765D01*
X107578227Y-57633804D01*
X107602495Y-57630204D01*
X107626999Y-57629000D01*
X108527001Y-57629000D01*
X108551505Y-57630204D01*
G37*
G04 #@! TD.AperFunction*
G04 #@! TA.AperFunction,SMDPad,CuDef*
G36*
X104995505Y-57630204D02*
G01*
X105019773Y-57633804D01*
X105043572Y-57639765D01*
X105066671Y-57648030D01*
X105088850Y-57658520D01*
X105109893Y-57671132D01*
X105129599Y-57685747D01*
X105147777Y-57702223D01*
X105164253Y-57720401D01*
X105178868Y-57740107D01*
X105191480Y-57761150D01*
X105201970Y-57783329D01*
X105210235Y-57806428D01*
X105216196Y-57830227D01*
X105219796Y-57854495D01*
X105221000Y-57878999D01*
X105221000Y-58529001D01*
X105219796Y-58553505D01*
X105216196Y-58577773D01*
X105210235Y-58601572D01*
X105201970Y-58624671D01*
X105191480Y-58646850D01*
X105178868Y-58667893D01*
X105164253Y-58687599D01*
X105147777Y-58705777D01*
X105129599Y-58722253D01*
X105109893Y-58736868D01*
X105088850Y-58749480D01*
X105066671Y-58759970D01*
X105043572Y-58768235D01*
X105019773Y-58774196D01*
X104995505Y-58777796D01*
X104971001Y-58779000D01*
X104070999Y-58779000D01*
X104046495Y-58777796D01*
X104022227Y-58774196D01*
X103998428Y-58768235D01*
X103975329Y-58759970D01*
X103953150Y-58749480D01*
X103932107Y-58736868D01*
X103912401Y-58722253D01*
X103894223Y-58705777D01*
X103877747Y-58687599D01*
X103863132Y-58667893D01*
X103850520Y-58646850D01*
X103840030Y-58624671D01*
X103831765Y-58601572D01*
X103825804Y-58577773D01*
X103822204Y-58553505D01*
X103821000Y-58529001D01*
X103821000Y-57878999D01*
X103822204Y-57854495D01*
X103825804Y-57830227D01*
X103831765Y-57806428D01*
X103840030Y-57783329D01*
X103850520Y-57761150D01*
X103863132Y-57740107D01*
X103877747Y-57720401D01*
X103894223Y-57702223D01*
X103912401Y-57685747D01*
X103932107Y-57671132D01*
X103953150Y-57658520D01*
X103975329Y-57648030D01*
X103998428Y-57639765D01*
X104022227Y-57633804D01*
X104046495Y-57630204D01*
X104070999Y-57629000D01*
X104971001Y-57629000D01*
X104995505Y-57630204D01*
G37*
G04 #@! TD.AperFunction*
G04 #@! TA.AperFunction,SMDPad,CuDef*
G36*
X104995505Y-59680204D02*
G01*
X105019773Y-59683804D01*
X105043572Y-59689765D01*
X105066671Y-59698030D01*
X105088850Y-59708520D01*
X105109893Y-59721132D01*
X105129599Y-59735747D01*
X105147777Y-59752223D01*
X105164253Y-59770401D01*
X105178868Y-59790107D01*
X105191480Y-59811150D01*
X105201970Y-59833329D01*
X105210235Y-59856428D01*
X105216196Y-59880227D01*
X105219796Y-59904495D01*
X105221000Y-59928999D01*
X105221000Y-60579001D01*
X105219796Y-60603505D01*
X105216196Y-60627773D01*
X105210235Y-60651572D01*
X105201970Y-60674671D01*
X105191480Y-60696850D01*
X105178868Y-60717893D01*
X105164253Y-60737599D01*
X105147777Y-60755777D01*
X105129599Y-60772253D01*
X105109893Y-60786868D01*
X105088850Y-60799480D01*
X105066671Y-60809970D01*
X105043572Y-60818235D01*
X105019773Y-60824196D01*
X104995505Y-60827796D01*
X104971001Y-60829000D01*
X104070999Y-60829000D01*
X104046495Y-60827796D01*
X104022227Y-60824196D01*
X103998428Y-60818235D01*
X103975329Y-60809970D01*
X103953150Y-60799480D01*
X103932107Y-60786868D01*
X103912401Y-60772253D01*
X103894223Y-60755777D01*
X103877747Y-60737599D01*
X103863132Y-60717893D01*
X103850520Y-60696850D01*
X103840030Y-60674671D01*
X103831765Y-60651572D01*
X103825804Y-60627773D01*
X103822204Y-60603505D01*
X103821000Y-60579001D01*
X103821000Y-59928999D01*
X103822204Y-59904495D01*
X103825804Y-59880227D01*
X103831765Y-59856428D01*
X103840030Y-59833329D01*
X103850520Y-59811150D01*
X103863132Y-59790107D01*
X103877747Y-59770401D01*
X103894223Y-59752223D01*
X103912401Y-59735747D01*
X103932107Y-59721132D01*
X103953150Y-59708520D01*
X103975329Y-59698030D01*
X103998428Y-59689765D01*
X104022227Y-59683804D01*
X104046495Y-59680204D01*
X104070999Y-59679000D01*
X104971001Y-59679000D01*
X104995505Y-59680204D01*
G37*
G04 #@! TD.AperFunction*
D16*
X52590000Y-107619000D03*
D17*
X52590000Y-105079000D03*
D16*
X59840000Y-107619000D03*
D17*
X59840000Y-105079000D03*
D16*
X66590000Y-107619000D03*
D17*
X66590000Y-105079000D03*
D16*
X73840000Y-107619000D03*
D17*
X73840000Y-105079000D03*
D16*
X81090000Y-107619000D03*
D17*
X81090000Y-105079000D03*
G04 #@! TA.AperFunction,SMDPad,CuDef*
D15*
G36*
X83195805Y-46480504D02*
G01*
X83220073Y-46484104D01*
X83243872Y-46490065D01*
X83266971Y-46498330D01*
X83289150Y-46508820D01*
X83310193Y-46521432D01*
X83329899Y-46536047D01*
X83348077Y-46552523D01*
X83364553Y-46570701D01*
X83379168Y-46590407D01*
X83391780Y-46611450D01*
X83402270Y-46633629D01*
X83410535Y-46656728D01*
X83416496Y-46680527D01*
X83420096Y-46704795D01*
X83421300Y-46729299D01*
X83421300Y-47629301D01*
X83420096Y-47653805D01*
X83416496Y-47678073D01*
X83410535Y-47701872D01*
X83402270Y-47724971D01*
X83391780Y-47747150D01*
X83379168Y-47768193D01*
X83364553Y-47787899D01*
X83348077Y-47806077D01*
X83329899Y-47822553D01*
X83310193Y-47837168D01*
X83289150Y-47849780D01*
X83266971Y-47860270D01*
X83243872Y-47868535D01*
X83220073Y-47874496D01*
X83195805Y-47878096D01*
X83171301Y-47879300D01*
X82521299Y-47879300D01*
X82496795Y-47878096D01*
X82472527Y-47874496D01*
X82448728Y-47868535D01*
X82425629Y-47860270D01*
X82403450Y-47849780D01*
X82382407Y-47837168D01*
X82362701Y-47822553D01*
X82344523Y-47806077D01*
X82328047Y-47787899D01*
X82313432Y-47768193D01*
X82300820Y-47747150D01*
X82290330Y-47724971D01*
X82282065Y-47701872D01*
X82276104Y-47678073D01*
X82272504Y-47653805D01*
X82271300Y-47629301D01*
X82271300Y-46729299D01*
X82272504Y-46704795D01*
X82276104Y-46680527D01*
X82282065Y-46656728D01*
X82290330Y-46633629D01*
X82300820Y-46611450D01*
X82313432Y-46590407D01*
X82328047Y-46570701D01*
X82344523Y-46552523D01*
X82362701Y-46536047D01*
X82382407Y-46521432D01*
X82403450Y-46508820D01*
X82425629Y-46498330D01*
X82448728Y-46490065D01*
X82472527Y-46484104D01*
X82496795Y-46480504D01*
X82521299Y-46479300D01*
X83171301Y-46479300D01*
X83195805Y-46480504D01*
G37*
G04 #@! TD.AperFunction*
G04 #@! TA.AperFunction,SMDPad,CuDef*
G36*
X81145805Y-46480504D02*
G01*
X81170073Y-46484104D01*
X81193872Y-46490065D01*
X81216971Y-46498330D01*
X81239150Y-46508820D01*
X81260193Y-46521432D01*
X81279899Y-46536047D01*
X81298077Y-46552523D01*
X81314553Y-46570701D01*
X81329168Y-46590407D01*
X81341780Y-46611450D01*
X81352270Y-46633629D01*
X81360535Y-46656728D01*
X81366496Y-46680527D01*
X81370096Y-46704795D01*
X81371300Y-46729299D01*
X81371300Y-47629301D01*
X81370096Y-47653805D01*
X81366496Y-47678073D01*
X81360535Y-47701872D01*
X81352270Y-47724971D01*
X81341780Y-47747150D01*
X81329168Y-47768193D01*
X81314553Y-47787899D01*
X81298077Y-47806077D01*
X81279899Y-47822553D01*
X81260193Y-47837168D01*
X81239150Y-47849780D01*
X81216971Y-47860270D01*
X81193872Y-47868535D01*
X81170073Y-47874496D01*
X81145805Y-47878096D01*
X81121301Y-47879300D01*
X80471299Y-47879300D01*
X80446795Y-47878096D01*
X80422527Y-47874496D01*
X80398728Y-47868535D01*
X80375629Y-47860270D01*
X80353450Y-47849780D01*
X80332407Y-47837168D01*
X80312701Y-47822553D01*
X80294523Y-47806077D01*
X80278047Y-47787899D01*
X80263432Y-47768193D01*
X80250820Y-47747150D01*
X80240330Y-47724971D01*
X80232065Y-47701872D01*
X80226104Y-47678073D01*
X80222504Y-47653805D01*
X80221300Y-47629301D01*
X80221300Y-46729299D01*
X80222504Y-46704795D01*
X80226104Y-46680527D01*
X80232065Y-46656728D01*
X80240330Y-46633629D01*
X80250820Y-46611450D01*
X80263432Y-46590407D01*
X80278047Y-46570701D01*
X80294523Y-46552523D01*
X80312701Y-46536047D01*
X80332407Y-46521432D01*
X80353450Y-46508820D01*
X80375629Y-46498330D01*
X80398728Y-46490065D01*
X80422527Y-46484104D01*
X80446795Y-46480504D01*
X80471299Y-46479300D01*
X81121301Y-46479300D01*
X81145805Y-46480504D01*
G37*
G04 #@! TD.AperFunction*
G04 #@! TA.AperFunction,SMDPad,CuDef*
G36*
X83195805Y-48980504D02*
G01*
X83220073Y-48984104D01*
X83243872Y-48990065D01*
X83266971Y-48998330D01*
X83289150Y-49008820D01*
X83310193Y-49021432D01*
X83329899Y-49036047D01*
X83348077Y-49052523D01*
X83364553Y-49070701D01*
X83379168Y-49090407D01*
X83391780Y-49111450D01*
X83402270Y-49133629D01*
X83410535Y-49156728D01*
X83416496Y-49180527D01*
X83420096Y-49204795D01*
X83421300Y-49229299D01*
X83421300Y-50129301D01*
X83420096Y-50153805D01*
X83416496Y-50178073D01*
X83410535Y-50201872D01*
X83402270Y-50224971D01*
X83391780Y-50247150D01*
X83379168Y-50268193D01*
X83364553Y-50287899D01*
X83348077Y-50306077D01*
X83329899Y-50322553D01*
X83310193Y-50337168D01*
X83289150Y-50349780D01*
X83266971Y-50360270D01*
X83243872Y-50368535D01*
X83220073Y-50374496D01*
X83195805Y-50378096D01*
X83171301Y-50379300D01*
X82521299Y-50379300D01*
X82496795Y-50378096D01*
X82472527Y-50374496D01*
X82448728Y-50368535D01*
X82425629Y-50360270D01*
X82403450Y-50349780D01*
X82382407Y-50337168D01*
X82362701Y-50322553D01*
X82344523Y-50306077D01*
X82328047Y-50287899D01*
X82313432Y-50268193D01*
X82300820Y-50247150D01*
X82290330Y-50224971D01*
X82282065Y-50201872D01*
X82276104Y-50178073D01*
X82272504Y-50153805D01*
X82271300Y-50129301D01*
X82271300Y-49229299D01*
X82272504Y-49204795D01*
X82276104Y-49180527D01*
X82282065Y-49156728D01*
X82290330Y-49133629D01*
X82300820Y-49111450D01*
X82313432Y-49090407D01*
X82328047Y-49070701D01*
X82344523Y-49052523D01*
X82362701Y-49036047D01*
X82382407Y-49021432D01*
X82403450Y-49008820D01*
X82425629Y-48998330D01*
X82448728Y-48990065D01*
X82472527Y-48984104D01*
X82496795Y-48980504D01*
X82521299Y-48979300D01*
X83171301Y-48979300D01*
X83195805Y-48980504D01*
G37*
G04 #@! TD.AperFunction*
G04 #@! TA.AperFunction,SMDPad,CuDef*
G36*
X81145805Y-48980504D02*
G01*
X81170073Y-48984104D01*
X81193872Y-48990065D01*
X81216971Y-48998330D01*
X81239150Y-49008820D01*
X81260193Y-49021432D01*
X81279899Y-49036047D01*
X81298077Y-49052523D01*
X81314553Y-49070701D01*
X81329168Y-49090407D01*
X81341780Y-49111450D01*
X81352270Y-49133629D01*
X81360535Y-49156728D01*
X81366496Y-49180527D01*
X81370096Y-49204795D01*
X81371300Y-49229299D01*
X81371300Y-50129301D01*
X81370096Y-50153805D01*
X81366496Y-50178073D01*
X81360535Y-50201872D01*
X81352270Y-50224971D01*
X81341780Y-50247150D01*
X81329168Y-50268193D01*
X81314553Y-50287899D01*
X81298077Y-50306077D01*
X81279899Y-50322553D01*
X81260193Y-50337168D01*
X81239150Y-50349780D01*
X81216971Y-50360270D01*
X81193872Y-50368535D01*
X81170073Y-50374496D01*
X81145805Y-50378096D01*
X81121301Y-50379300D01*
X80471299Y-50379300D01*
X80446795Y-50378096D01*
X80422527Y-50374496D01*
X80398728Y-50368535D01*
X80375629Y-50360270D01*
X80353450Y-50349780D01*
X80332407Y-50337168D01*
X80312701Y-50322553D01*
X80294523Y-50306077D01*
X80278047Y-50287899D01*
X80263432Y-50268193D01*
X80250820Y-50247150D01*
X80240330Y-50224971D01*
X80232065Y-50201872D01*
X80226104Y-50178073D01*
X80222504Y-50153805D01*
X80221300Y-50129301D01*
X80221300Y-49229299D01*
X80222504Y-49204795D01*
X80226104Y-49180527D01*
X80232065Y-49156728D01*
X80240330Y-49133629D01*
X80250820Y-49111450D01*
X80263432Y-49090407D01*
X80278047Y-49070701D01*
X80294523Y-49052523D01*
X80312701Y-49036047D01*
X80332407Y-49021432D01*
X80353450Y-49008820D01*
X80375629Y-48998330D01*
X80398728Y-48990065D01*
X80422527Y-48984104D01*
X80446795Y-48980504D01*
X80471299Y-48979300D01*
X81121301Y-48979300D01*
X81145805Y-48980504D01*
G37*
G04 #@! TD.AperFunction*
G04 #@! TA.AperFunction,SMDPad,CuDef*
G36*
X83195805Y-51480504D02*
G01*
X83220073Y-51484104D01*
X83243872Y-51490065D01*
X83266971Y-51498330D01*
X83289150Y-51508820D01*
X83310193Y-51521432D01*
X83329899Y-51536047D01*
X83348077Y-51552523D01*
X83364553Y-51570701D01*
X83379168Y-51590407D01*
X83391780Y-51611450D01*
X83402270Y-51633629D01*
X83410535Y-51656728D01*
X83416496Y-51680527D01*
X83420096Y-51704795D01*
X83421300Y-51729299D01*
X83421300Y-52629301D01*
X83420096Y-52653805D01*
X83416496Y-52678073D01*
X83410535Y-52701872D01*
X83402270Y-52724971D01*
X83391780Y-52747150D01*
X83379168Y-52768193D01*
X83364553Y-52787899D01*
X83348077Y-52806077D01*
X83329899Y-52822553D01*
X83310193Y-52837168D01*
X83289150Y-52849780D01*
X83266971Y-52860270D01*
X83243872Y-52868535D01*
X83220073Y-52874496D01*
X83195805Y-52878096D01*
X83171301Y-52879300D01*
X82521299Y-52879300D01*
X82496795Y-52878096D01*
X82472527Y-52874496D01*
X82448728Y-52868535D01*
X82425629Y-52860270D01*
X82403450Y-52849780D01*
X82382407Y-52837168D01*
X82362701Y-52822553D01*
X82344523Y-52806077D01*
X82328047Y-52787899D01*
X82313432Y-52768193D01*
X82300820Y-52747150D01*
X82290330Y-52724971D01*
X82282065Y-52701872D01*
X82276104Y-52678073D01*
X82272504Y-52653805D01*
X82271300Y-52629301D01*
X82271300Y-51729299D01*
X82272504Y-51704795D01*
X82276104Y-51680527D01*
X82282065Y-51656728D01*
X82290330Y-51633629D01*
X82300820Y-51611450D01*
X82313432Y-51590407D01*
X82328047Y-51570701D01*
X82344523Y-51552523D01*
X82362701Y-51536047D01*
X82382407Y-51521432D01*
X82403450Y-51508820D01*
X82425629Y-51498330D01*
X82448728Y-51490065D01*
X82472527Y-51484104D01*
X82496795Y-51480504D01*
X82521299Y-51479300D01*
X83171301Y-51479300D01*
X83195805Y-51480504D01*
G37*
G04 #@! TD.AperFunction*
G04 #@! TA.AperFunction,SMDPad,CuDef*
G36*
X81145805Y-51480504D02*
G01*
X81170073Y-51484104D01*
X81193872Y-51490065D01*
X81216971Y-51498330D01*
X81239150Y-51508820D01*
X81260193Y-51521432D01*
X81279899Y-51536047D01*
X81298077Y-51552523D01*
X81314553Y-51570701D01*
X81329168Y-51590407D01*
X81341780Y-51611450D01*
X81352270Y-51633629D01*
X81360535Y-51656728D01*
X81366496Y-51680527D01*
X81370096Y-51704795D01*
X81371300Y-51729299D01*
X81371300Y-52629301D01*
X81370096Y-52653805D01*
X81366496Y-52678073D01*
X81360535Y-52701872D01*
X81352270Y-52724971D01*
X81341780Y-52747150D01*
X81329168Y-52768193D01*
X81314553Y-52787899D01*
X81298077Y-52806077D01*
X81279899Y-52822553D01*
X81260193Y-52837168D01*
X81239150Y-52849780D01*
X81216971Y-52860270D01*
X81193872Y-52868535D01*
X81170073Y-52874496D01*
X81145805Y-52878096D01*
X81121301Y-52879300D01*
X80471299Y-52879300D01*
X80446795Y-52878096D01*
X80422527Y-52874496D01*
X80398728Y-52868535D01*
X80375629Y-52860270D01*
X80353450Y-52849780D01*
X80332407Y-52837168D01*
X80312701Y-52822553D01*
X80294523Y-52806077D01*
X80278047Y-52787899D01*
X80263432Y-52768193D01*
X80250820Y-52747150D01*
X80240330Y-52724971D01*
X80232065Y-52701872D01*
X80226104Y-52678073D01*
X80222504Y-52653805D01*
X80221300Y-52629301D01*
X80221300Y-51729299D01*
X80222504Y-51704795D01*
X80226104Y-51680527D01*
X80232065Y-51656728D01*
X80240330Y-51633629D01*
X80250820Y-51611450D01*
X80263432Y-51590407D01*
X80278047Y-51570701D01*
X80294523Y-51552523D01*
X80312701Y-51536047D01*
X80332407Y-51521432D01*
X80353450Y-51508820D01*
X80375629Y-51498330D01*
X80398728Y-51490065D01*
X80422527Y-51484104D01*
X80446795Y-51480504D01*
X80471299Y-51479300D01*
X81121301Y-51479300D01*
X81145805Y-51480504D01*
G37*
G04 #@! TD.AperFunction*
D18*
X52590000Y-94480000D03*
X52590000Y-101980000D03*
X59840000Y-94480000D03*
X59840000Y-101980000D03*
X66590000Y-94480000D03*
X66590000Y-101980000D03*
X73840000Y-94480000D03*
X73840000Y-101980000D03*
X81090000Y-94480000D03*
X81090000Y-101980000D03*
D13*
X55412000Y-80240000D03*
X35092000Y-72620000D03*
X52872000Y-80240000D03*
X37632000Y-72620000D03*
X50332000Y-80240000D03*
X40172000Y-72620000D03*
X47792000Y-80240000D03*
X42712000Y-72620000D03*
X45252000Y-80240000D03*
X45252000Y-72620000D03*
X42712000Y-80240000D03*
X47792000Y-72620000D03*
X40172000Y-80240000D03*
X50332000Y-72620000D03*
X37632000Y-80240000D03*
X52872000Y-72620000D03*
X35092000Y-80240000D03*
D14*
X55412000Y-72620000D03*
D13*
X55662000Y-58740000D03*
X35342000Y-51120000D03*
X53122000Y-58740000D03*
X37882000Y-51120000D03*
X50582000Y-58740000D03*
X40422000Y-51120000D03*
X48042000Y-58740000D03*
X42962000Y-51120000D03*
X45502000Y-58740000D03*
X45502000Y-51120000D03*
X42962000Y-58740000D03*
X48042000Y-51120000D03*
X40422000Y-58740000D03*
X50582000Y-51120000D03*
X37882000Y-58740000D03*
X53122000Y-51120000D03*
X35342000Y-58740000D03*
D14*
X55662000Y-51120000D03*
D13*
X55912000Y-36740000D03*
X35592000Y-29120000D03*
X53372000Y-36740000D03*
X38132000Y-29120000D03*
X50832000Y-36740000D03*
X40672000Y-29120000D03*
X48292000Y-36740000D03*
X43212000Y-29120000D03*
X45752000Y-36740000D03*
X45752000Y-29120000D03*
X43212000Y-36740000D03*
X48292000Y-29120000D03*
X40672000Y-36740000D03*
X50832000Y-29120000D03*
X38132000Y-36740000D03*
X53372000Y-29120000D03*
X35592000Y-36740000D03*
D14*
X55912000Y-29120000D03*
G04 #@! TA.AperFunction,SMDPad,CuDef*
D15*
G36*
X67298398Y-58596000D02*
G01*
X67298398Y-58620534D01*
X67293588Y-58669365D01*
X67284016Y-58717490D01*
X67269772Y-58764445D01*
X67250995Y-58809778D01*
X67227864Y-58853051D01*
X67200604Y-58893850D01*
X67169476Y-58931779D01*
X67134779Y-58966476D01*
X67096850Y-58997604D01*
X67056051Y-59024864D01*
X67012778Y-59047995D01*
X66967445Y-59066772D01*
X66920490Y-59081016D01*
X66872365Y-59090588D01*
X66823534Y-59095398D01*
X66799000Y-59095398D01*
X66799000Y-59096000D01*
X66299000Y-59096000D01*
X66299000Y-59095398D01*
X66274466Y-59095398D01*
X66225635Y-59090588D01*
X66177510Y-59081016D01*
X66130555Y-59066772D01*
X66085222Y-59047995D01*
X66041949Y-59024864D01*
X66001150Y-58997604D01*
X65963221Y-58966476D01*
X65928524Y-58931779D01*
X65897396Y-58893850D01*
X65870136Y-58853051D01*
X65847005Y-58809778D01*
X65828228Y-58764445D01*
X65813984Y-58717490D01*
X65804412Y-58669365D01*
X65799602Y-58620534D01*
X65799602Y-58596000D01*
X65799000Y-58596000D01*
X65799000Y-58096000D01*
X67299000Y-58096000D01*
X67299000Y-58596000D01*
X67298398Y-58596000D01*
G37*
G04 #@! TD.AperFunction*
G04 #@! TA.AperFunction,SMDPad,CuDef*
G36*
X65799000Y-57796000D02*
G01*
X65799000Y-57296000D01*
X65799602Y-57296000D01*
X65799602Y-57271466D01*
X65804412Y-57222635D01*
X65813984Y-57174510D01*
X65828228Y-57127555D01*
X65847005Y-57082222D01*
X65870136Y-57038949D01*
X65897396Y-56998150D01*
X65928524Y-56960221D01*
X65963221Y-56925524D01*
X66001150Y-56894396D01*
X66041949Y-56867136D01*
X66085222Y-56844005D01*
X66130555Y-56825228D01*
X66177510Y-56810984D01*
X66225635Y-56801412D01*
X66274466Y-56796602D01*
X66299000Y-56796602D01*
X66299000Y-56796000D01*
X66799000Y-56796000D01*
X66799000Y-56796602D01*
X66823534Y-56796602D01*
X66872365Y-56801412D01*
X66920490Y-56810984D01*
X66967445Y-56825228D01*
X67012778Y-56844005D01*
X67056051Y-56867136D01*
X67096850Y-56894396D01*
X67134779Y-56925524D01*
X67169476Y-56960221D01*
X67200604Y-56998150D01*
X67227864Y-57038949D01*
X67250995Y-57082222D01*
X67269772Y-57127555D01*
X67284016Y-57174510D01*
X67293588Y-57222635D01*
X67298398Y-57271466D01*
X67298398Y-57296000D01*
X67299000Y-57296000D01*
X67299000Y-57796000D01*
X65799000Y-57796000D01*
G37*
G04 #@! TD.AperFunction*
G04 #@! TA.AperFunction,SMDPad,CuDef*
G36*
X70798398Y-58596000D02*
G01*
X70798398Y-58620534D01*
X70793588Y-58669365D01*
X70784016Y-58717490D01*
X70769772Y-58764445D01*
X70750995Y-58809778D01*
X70727864Y-58853051D01*
X70700604Y-58893850D01*
X70669476Y-58931779D01*
X70634779Y-58966476D01*
X70596850Y-58997604D01*
X70556051Y-59024864D01*
X70512778Y-59047995D01*
X70467445Y-59066772D01*
X70420490Y-59081016D01*
X70372365Y-59090588D01*
X70323534Y-59095398D01*
X70299000Y-59095398D01*
X70299000Y-59096000D01*
X69799000Y-59096000D01*
X69799000Y-59095398D01*
X69774466Y-59095398D01*
X69725635Y-59090588D01*
X69677510Y-59081016D01*
X69630555Y-59066772D01*
X69585222Y-59047995D01*
X69541949Y-59024864D01*
X69501150Y-58997604D01*
X69463221Y-58966476D01*
X69428524Y-58931779D01*
X69397396Y-58893850D01*
X69370136Y-58853051D01*
X69347005Y-58809778D01*
X69328228Y-58764445D01*
X69313984Y-58717490D01*
X69304412Y-58669365D01*
X69299602Y-58620534D01*
X69299602Y-58596000D01*
X69299000Y-58596000D01*
X69299000Y-58096000D01*
X70799000Y-58096000D01*
X70799000Y-58596000D01*
X70798398Y-58596000D01*
G37*
G04 #@! TD.AperFunction*
G04 #@! TA.AperFunction,SMDPad,CuDef*
G36*
X70349000Y-57796000D02*
G01*
X70349000Y-58196000D01*
X69749000Y-58196000D01*
X69749000Y-57796000D01*
X69299000Y-57796000D01*
X69299000Y-57296000D01*
X69299602Y-57296000D01*
X69299602Y-57271466D01*
X69304412Y-57222635D01*
X69313984Y-57174510D01*
X69328228Y-57127555D01*
X69347005Y-57082222D01*
X69370136Y-57038949D01*
X69397396Y-56998150D01*
X69428524Y-56960221D01*
X69463221Y-56925524D01*
X69501150Y-56894396D01*
X69541949Y-56867136D01*
X69585222Y-56844005D01*
X69630555Y-56825228D01*
X69677510Y-56810984D01*
X69725635Y-56801412D01*
X69774466Y-56796602D01*
X69799000Y-56796602D01*
X69799000Y-56796000D01*
X70299000Y-56796000D01*
X70299000Y-56796602D01*
X70323534Y-56796602D01*
X70372365Y-56801412D01*
X70420490Y-56810984D01*
X70467445Y-56825228D01*
X70512778Y-56844005D01*
X70556051Y-56867136D01*
X70596850Y-56894396D01*
X70634779Y-56925524D01*
X70669476Y-56960221D01*
X70700604Y-56998150D01*
X70727864Y-57038949D01*
X70750995Y-57082222D01*
X70769772Y-57127555D01*
X70784016Y-57174510D01*
X70793588Y-57222635D01*
X70798398Y-57271466D01*
X70798398Y-57296000D01*
X70799000Y-57296000D01*
X70799000Y-57796000D01*
X70349000Y-57796000D01*
G37*
G04 #@! TD.AperFunction*
G04 #@! TA.AperFunction,SMDPad,CuDef*
G36*
X74409398Y-58596000D02*
G01*
X74409398Y-58620534D01*
X74404588Y-58669365D01*
X74395016Y-58717490D01*
X74380772Y-58764445D01*
X74361995Y-58809778D01*
X74338864Y-58853051D01*
X74311604Y-58893850D01*
X74280476Y-58931779D01*
X74245779Y-58966476D01*
X74207850Y-58997604D01*
X74167051Y-59024864D01*
X74123778Y-59047995D01*
X74078445Y-59066772D01*
X74031490Y-59081016D01*
X73983365Y-59090588D01*
X73934534Y-59095398D01*
X73910000Y-59095398D01*
X73910000Y-59096000D01*
X73410000Y-59096000D01*
X73410000Y-59095398D01*
X73385466Y-59095398D01*
X73336635Y-59090588D01*
X73288510Y-59081016D01*
X73241555Y-59066772D01*
X73196222Y-59047995D01*
X73152949Y-59024864D01*
X73112150Y-58997604D01*
X73074221Y-58966476D01*
X73039524Y-58931779D01*
X73008396Y-58893850D01*
X72981136Y-58853051D01*
X72958005Y-58809778D01*
X72939228Y-58764445D01*
X72924984Y-58717490D01*
X72915412Y-58669365D01*
X72910602Y-58620534D01*
X72910602Y-58596000D01*
X72910000Y-58596000D01*
X72910000Y-58096000D01*
X74410000Y-58096000D01*
X74410000Y-58596000D01*
X74409398Y-58596000D01*
G37*
G04 #@! TD.AperFunction*
G04 #@! TA.AperFunction,SMDPad,CuDef*
G36*
X73960000Y-57796000D02*
G01*
X73960000Y-58196000D01*
X73360000Y-58196000D01*
X73360000Y-57796000D01*
X72910000Y-57796000D01*
X72910000Y-57296000D01*
X72910602Y-57296000D01*
X72910602Y-57271466D01*
X72915412Y-57222635D01*
X72924984Y-57174510D01*
X72939228Y-57127555D01*
X72958005Y-57082222D01*
X72981136Y-57038949D01*
X73008396Y-56998150D01*
X73039524Y-56960221D01*
X73074221Y-56925524D01*
X73112150Y-56894396D01*
X73152949Y-56867136D01*
X73196222Y-56844005D01*
X73241555Y-56825228D01*
X73288510Y-56810984D01*
X73336635Y-56801412D01*
X73385466Y-56796602D01*
X73410000Y-56796602D01*
X73410000Y-56796000D01*
X73910000Y-56796000D01*
X73910000Y-56796602D01*
X73934534Y-56796602D01*
X73983365Y-56801412D01*
X74031490Y-56810984D01*
X74078445Y-56825228D01*
X74123778Y-56844005D01*
X74167051Y-56867136D01*
X74207850Y-56894396D01*
X74245779Y-56925524D01*
X74280476Y-56960221D01*
X74311604Y-56998150D01*
X74338864Y-57038949D01*
X74361995Y-57082222D01*
X74380772Y-57127555D01*
X74395016Y-57174510D01*
X74404588Y-57222635D01*
X74409398Y-57271466D01*
X74409398Y-57296000D01*
X74410000Y-57296000D01*
X74410000Y-57796000D01*
X73960000Y-57796000D01*
G37*
G04 #@! TD.AperFunction*
D19*
X41910000Y-103184000D03*
X41910000Y-100644000D03*
D20*
X41910000Y-98104000D03*
D19*
X38227000Y-103184000D03*
X38227000Y-100644000D03*
D20*
X38227000Y-98104000D03*
D19*
X34570000Y-103184000D03*
X34570000Y-100644000D03*
D20*
X34570000Y-98104000D03*
D11*
X96012000Y-105664000D03*
X93472000Y-105664000D03*
X96012000Y-103124000D03*
X93472000Y-103124000D03*
X96012000Y-100584000D03*
X93472000Y-100584000D03*
X96012000Y-98044000D03*
X93472000Y-98044000D03*
X96012000Y-95504000D03*
X93472000Y-95504000D03*
X96012000Y-92964000D03*
X93472000Y-92964000D03*
X96012000Y-90424000D03*
X93472000Y-90424000D03*
X96012000Y-87884000D03*
X93472000Y-87884000D03*
X96012000Y-85344000D03*
X93472000Y-85344000D03*
X96012000Y-82804000D03*
X93472000Y-82804000D03*
X96012000Y-80264000D03*
X93472000Y-80264000D03*
X96012000Y-77724000D03*
X93472000Y-77724000D03*
X96012000Y-75184000D03*
X93472000Y-75184000D03*
X96012000Y-72644000D03*
X93472000Y-72644000D03*
X96012000Y-70104000D03*
X93472000Y-70104000D03*
X96012000Y-67564000D03*
X93472000Y-67564000D03*
X96012000Y-65024000D03*
X93472000Y-65024000D03*
X96012000Y-62484000D03*
X93472000Y-62484000D03*
X96012000Y-59944000D03*
X93472000Y-59944000D03*
X96012000Y-57404000D03*
X93472000Y-57404000D03*
X96012000Y-54864000D03*
X93472000Y-54864000D03*
X96012000Y-52324000D03*
X93472000Y-52324000D03*
X96012000Y-49784000D03*
X93472000Y-49784000D03*
X96012000Y-47244000D03*
X93472000Y-47244000D03*
X96012000Y-44704000D03*
D12*
X93472000Y-44704000D03*
D11*
X25540000Y-100160000D03*
X23000000Y-100160000D03*
X25540000Y-97620000D03*
X23000000Y-97620000D03*
X25540000Y-95080000D03*
X23000000Y-95080000D03*
X25540000Y-92540000D03*
X23000000Y-92540000D03*
X25540000Y-90000000D03*
X23000000Y-90000000D03*
X25540000Y-87460000D03*
X23000000Y-87460000D03*
X25540000Y-84920000D03*
X23000000Y-84920000D03*
X25540000Y-82380000D03*
X23000000Y-82380000D03*
X25540000Y-79840000D03*
X23000000Y-79840000D03*
X25540000Y-77300000D03*
X23000000Y-77300000D03*
X25540000Y-74760000D03*
X23000000Y-74760000D03*
X25540000Y-72220000D03*
X23000000Y-72220000D03*
X25540000Y-69680000D03*
X23000000Y-69680000D03*
X25540000Y-67140000D03*
X23000000Y-67140000D03*
X25540000Y-64600000D03*
X23000000Y-64600000D03*
X25540000Y-62060000D03*
X23000000Y-62060000D03*
X25540000Y-59520000D03*
X23000000Y-59520000D03*
X25540000Y-56980000D03*
X23000000Y-56980000D03*
X25540000Y-54440000D03*
X23000000Y-54440000D03*
X25540000Y-51900000D03*
X23000000Y-51900000D03*
X25540000Y-49360000D03*
X23000000Y-49360000D03*
X25540000Y-46820000D03*
X23000000Y-46820000D03*
X25540000Y-44280000D03*
X23000000Y-44280000D03*
X25540000Y-41740000D03*
X23000000Y-41740000D03*
X25540000Y-39200000D03*
X23000000Y-39200000D03*
X25540000Y-36660000D03*
X23000000Y-36660000D03*
X25540000Y-34120000D03*
X23000000Y-34120000D03*
X25540000Y-31580000D03*
X23000000Y-31580000D03*
X25540000Y-29040000D03*
X23000000Y-29040000D03*
X25540000Y-26500000D03*
D12*
X23000000Y-26500000D03*
D21*
X33258800Y-82937400D03*
X35722000Y-85371300D03*
X44174700Y-67842100D03*
X40860400Y-64208000D03*
X43180000Y-94361000D03*
X33147000Y-94234000D03*
X36957000Y-45847000D03*
X106553000Y-64516000D03*
X79248000Y-86487000D03*
X73914000Y-84201000D03*
X68072000Y-86741000D03*
X65242600Y-84980700D03*
X70612000Y-104902000D03*
X76454000Y-104902000D03*
X56134000Y-106553000D03*
X46277650Y-101296350D03*
X46355000Y-106426000D03*
X39497000Y-106426000D03*
X36386800Y-43366400D03*
X91109100Y-66599700D03*
X100827700Y-51394900D03*
X92139800Y-66784500D03*
X91843500Y-68219500D03*
X100301300Y-60962900D03*
X98940600Y-49495400D03*
X98578000Y-51478700D03*
X75418000Y-60184900D03*
X76223600Y-61054600D03*
X86751200Y-59551000D03*
X91620200Y-58017200D03*
X51151900Y-87176100D03*
X48314000Y-68935000D03*
X51702200Y-74754200D03*
D22*
X104902000Y-78867000D02*
X103713100Y-78867000D01*
X85598000Y-78232000D02*
X86723300Y-78232000D01*
X86723300Y-78232000D02*
X92496800Y-84005500D01*
X92496800Y-84005500D02*
X93988600Y-84005500D01*
X93988600Y-84005500D02*
X94742000Y-83252100D01*
X94742000Y-83252100D02*
X94742000Y-82323400D01*
X94742000Y-82323400D02*
X95450300Y-81615100D01*
X95450300Y-81615100D02*
X100965000Y-81615100D01*
X100965000Y-81615100D02*
X103713100Y-78867000D01*
X104902000Y-81407000D02*
X106090900Y-81407000D01*
X104521000Y-58204000D02*
X105430900Y-57294100D01*
X105430900Y-57294100D02*
X108767300Y-57294100D01*
X108767300Y-57294100D02*
X109589800Y-58116600D01*
X109589800Y-58116600D02*
X109589800Y-78409200D01*
X109589800Y-78409200D02*
X107780900Y-80218100D01*
X107780900Y-80218100D02*
X106908200Y-80218100D01*
X106908200Y-80218100D02*
X106090900Y-81035400D01*
X106090900Y-81035400D02*
X106090900Y-81407000D01*
X25540000Y-97620000D02*
X26728900Y-97620000D01*
X26728900Y-97620000D02*
X29752900Y-100644000D01*
X29752900Y-100644000D02*
X34570000Y-100644000D01*
X25540000Y-91351100D02*
X25168500Y-91351100D01*
X25168500Y-91351100D02*
X24351000Y-90533600D01*
X24351000Y-90533600D02*
X24351000Y-89485700D01*
X24351000Y-89485700D02*
X25106700Y-88730000D01*
X25106700Y-88730000D02*
X27466200Y-88730000D01*
X27466200Y-88730000D02*
X33258800Y-82937400D01*
X25540000Y-92540000D02*
X25540000Y-91351100D01*
X25540000Y-90000000D02*
X31093300Y-90000000D01*
X31093300Y-90000000D02*
X35722000Y-85371300D01*
X61866700Y-68326000D02*
X61382800Y-67842100D01*
X61382800Y-67842100D02*
X44174700Y-67842100D01*
X66040000Y-39370000D02*
X66040000Y-40495300D01*
X66549000Y-58596000D02*
X66127100Y-58596000D01*
X66127100Y-58596000D02*
X64914700Y-57383600D01*
X64914700Y-57383600D02*
X64914700Y-41339200D01*
X64914700Y-41339200D02*
X65758600Y-40495300D01*
X65758600Y-40495300D02*
X66040000Y-40495300D01*
X70049000Y-58596000D02*
X66549000Y-58596000D01*
X62992000Y-68326000D02*
X61866700Y-68326000D01*
X92283100Y-49784000D02*
X83471100Y-58596000D01*
X83471100Y-58596000D02*
X73660000Y-58596000D01*
X73660000Y-58596000D02*
X70049000Y-58596000D01*
X96012000Y-50972900D02*
X96383600Y-50972900D01*
X96383600Y-50972900D02*
X97200900Y-51790200D01*
X97200900Y-51790200D02*
X97200900Y-54546100D01*
X97200900Y-54546100D02*
X103830500Y-61175700D01*
X103830500Y-61175700D02*
X108631000Y-61175700D01*
X107442000Y-71247000D02*
X107442000Y-70058100D01*
X108631000Y-61175700D02*
X108631000Y-69240600D01*
X108631000Y-69240600D02*
X107813500Y-70058100D01*
X107813500Y-70058100D02*
X107442000Y-70058100D01*
X108631000Y-61175700D02*
X108745100Y-61175700D01*
X108745100Y-61175700D02*
X109106600Y-60814200D01*
X109106600Y-60814200D02*
X109106600Y-59233600D01*
X109106600Y-59233600D02*
X108077000Y-58204000D01*
X96012000Y-49784000D02*
X96012000Y-50972900D01*
X93472000Y-49784000D02*
X96012000Y-49784000D01*
X93472000Y-49784000D02*
X92283100Y-49784000D01*
D23*
X93472000Y-44704000D02*
X92158100Y-44704000D01*
X35592000Y-29120000D02*
X36842300Y-29120000D01*
X36842300Y-29120000D02*
X36842300Y-29667000D01*
X36842300Y-29667000D02*
X42527800Y-35352500D01*
X42527800Y-35352500D02*
X56292900Y-35352500D01*
X56292900Y-35352500D02*
X56500400Y-35560000D01*
X56500400Y-35560000D02*
X83014100Y-35560000D01*
X83014100Y-35560000D02*
X92158100Y-44704000D01*
X25540000Y-79840000D02*
X31402500Y-79840000D01*
X31402500Y-79840000D02*
X36596500Y-85034000D01*
X36596500Y-85034000D02*
X36596500Y-102457800D01*
X36596500Y-102457800D02*
X36398500Y-102655800D01*
X36398500Y-102655800D02*
X36926700Y-103184000D01*
X35870300Y-103184000D02*
X36398500Y-102655800D01*
X34570000Y-103184000D02*
X35870300Y-103184000D01*
X38227000Y-103184000D02*
X36926700Y-103184000D01*
X23000000Y-79840000D02*
X25540000Y-79840000D01*
X36592300Y-58740000D02*
X36592300Y-59939900D01*
X36592300Y-59939900D02*
X40860400Y-64208000D01*
X35342000Y-58740000D02*
X36592300Y-58740000D01*
X38227000Y-103184000D02*
X41910000Y-103184000D01*
X96012000Y-44704000D02*
X93472000Y-44704000D01*
D22*
X35592000Y-36740000D02*
X36717300Y-36740000D01*
X66602700Y-41910000D02*
X67209600Y-41303100D01*
X67209600Y-41303100D02*
X67209600Y-38907100D01*
X67209600Y-38907100D02*
X66547100Y-38244600D01*
X66547100Y-38244600D02*
X37940600Y-38244600D01*
X37940600Y-38244600D02*
X36717300Y-37021300D01*
X36717300Y-37021300D02*
X36717300Y-36740000D01*
X66602700Y-41910000D02*
X67165300Y-41910000D01*
X66040000Y-41910000D02*
X66602700Y-41910000D01*
X67165300Y-41910000D02*
X70975300Y-45720000D01*
X70975300Y-45720000D02*
X81074300Y-45720000D01*
X81074300Y-45720000D02*
X82533600Y-47179300D01*
X82533600Y-47179300D02*
X82846300Y-47179300D01*
X82911000Y-47244000D02*
X82846300Y-47179300D01*
X93472000Y-47244000D02*
X82911000Y-47244000D01*
X82911000Y-47244000D02*
X82911000Y-49614600D01*
X82911000Y-49614600D02*
X82846300Y-49679300D01*
X34570000Y-98104000D02*
X33394700Y-98104000D01*
X23000000Y-77300000D02*
X23000000Y-78488900D01*
X23000000Y-78488900D02*
X22628500Y-78488900D01*
X22628500Y-78488900D02*
X21809300Y-79308100D01*
X21809300Y-79308100D02*
X21809300Y-93050000D01*
X21809300Y-93050000D02*
X22569300Y-93810000D01*
X22569300Y-93810000D02*
X29100700Y-93810000D01*
X29100700Y-93810000D02*
X33394700Y-98104000D01*
X62992000Y-86106000D02*
X64117300Y-86106000D01*
X77978000Y-83312000D02*
X76852700Y-83312000D01*
X76852700Y-83312000D02*
X75184000Y-84980700D01*
X75184000Y-84980700D02*
X65242600Y-84980700D01*
X65242600Y-84980700D02*
X64117300Y-86106000D01*
X96012000Y-65024000D02*
X97200900Y-65024000D01*
X97200900Y-65024000D02*
X100883900Y-68707000D01*
X100883900Y-68707000D02*
X103713100Y-68707000D01*
X93472000Y-65024000D02*
X96012000Y-65024000D01*
X82846300Y-49679300D02*
X82846300Y-52179300D01*
X41910000Y-98104000D02*
X43085300Y-98104000D01*
X43085300Y-98104000D02*
X46277650Y-101296350D01*
X52087600Y-107106300D02*
X52590000Y-107106300D01*
X38227000Y-98104000D02*
X41910000Y-98104000D01*
X59840000Y-107619000D02*
X58814700Y-107619000D01*
X52590000Y-107106300D02*
X58302000Y-107106300D01*
X58302000Y-107106300D02*
X58814700Y-107619000D01*
X52590000Y-107619000D02*
X52590000Y-107106300D01*
X104902000Y-68707000D02*
X103713100Y-68707000D01*
X66590000Y-107619000D02*
X59840000Y-107619000D01*
X73840000Y-107619000D02*
X66590000Y-107619000D01*
X81090000Y-107619000D02*
X73840000Y-107619000D01*
X65242600Y-84980700D02*
X65242600Y-84980700D01*
X46277650Y-101296350D02*
X52087600Y-107106300D01*
X93472000Y-105664000D02*
X92283100Y-105664000D01*
X25540000Y-69680000D02*
X25540000Y-70868900D01*
X25540000Y-70868900D02*
X25911600Y-70868900D01*
X25911600Y-70868900D02*
X26728900Y-71686200D01*
X26728900Y-71686200D02*
X26728900Y-73476200D01*
X26728900Y-73476200D02*
X56558100Y-103305400D01*
X56558100Y-103305400D02*
X89924500Y-103305400D01*
X89924500Y-103305400D02*
X92283100Y-105664000D01*
X93472000Y-103124000D02*
X92283100Y-103124000D01*
X23000000Y-69680000D02*
X24188900Y-69680000D01*
X24188900Y-69680000D02*
X24188900Y-69308500D01*
X24188900Y-69308500D02*
X25009800Y-68487600D01*
X25009800Y-68487600D02*
X26036700Y-68487600D01*
X26036700Y-68487600D02*
X36428000Y-78878900D01*
X36428000Y-78878900D02*
X36428000Y-80640100D01*
X36428000Y-80640100D02*
X55633400Y-99845500D01*
X55633400Y-99845500D02*
X89004600Y-99845500D01*
X89004600Y-99845500D02*
X92283100Y-103124000D01*
X92283100Y-100584000D02*
X90644000Y-98944900D01*
X90644000Y-98944900D02*
X58929300Y-98944900D01*
X58929300Y-98944900D02*
X41349800Y-81365400D01*
X41349800Y-81365400D02*
X39627200Y-81365400D01*
X39627200Y-81365400D02*
X38902000Y-80640200D01*
X38902000Y-80640200D02*
X38902000Y-79313100D01*
X38902000Y-79313100D02*
X26728900Y-67140000D01*
X93472000Y-100584000D02*
X92283100Y-100584000D01*
X25540000Y-67140000D02*
X26728900Y-67140000D01*
X92283100Y-98044000D02*
X58847600Y-98044000D01*
X58847600Y-98044000D02*
X41442000Y-80638400D01*
X41442000Y-80638400D02*
X41442000Y-79884100D01*
X41442000Y-79884100D02*
X40624000Y-79066100D01*
X40624000Y-79066100D02*
X39752400Y-79066100D01*
X39752400Y-79066100D02*
X26637300Y-65951000D01*
X26637300Y-65951000D02*
X25006400Y-65951000D01*
X25006400Y-65951000D02*
X24188900Y-66768500D01*
X24188900Y-66768500D02*
X24188900Y-67140000D01*
X93472000Y-98044000D02*
X92283100Y-98044000D01*
X23000000Y-67140000D02*
X24188900Y-67140000D01*
X25540000Y-64600000D02*
X28735000Y-64600000D01*
X28735000Y-64600000D02*
X36362000Y-72227000D01*
X36362000Y-72227000D02*
X36362000Y-72947500D01*
X36362000Y-72947500D02*
X42482000Y-79067500D01*
X42482000Y-79067500D02*
X43164800Y-79067500D01*
X43164800Y-79067500D02*
X43871200Y-79773900D01*
X43871200Y-79773900D02*
X43871200Y-80921100D01*
X43871200Y-80921100D02*
X55968500Y-93018400D01*
X55968500Y-93018400D02*
X89797500Y-93018400D01*
X89797500Y-93018400D02*
X92283100Y-95504000D01*
X93472000Y-95504000D02*
X92283100Y-95504000D01*
X92283100Y-92964000D02*
X91832700Y-92513600D01*
X91832700Y-92513600D02*
X60978700Y-92513600D01*
X60978700Y-92513600D02*
X49062000Y-80596900D01*
X49062000Y-80596900D02*
X49062000Y-79855800D01*
X49062000Y-79855800D02*
X43003000Y-73796800D01*
X43003000Y-73796800D02*
X42261600Y-73796800D01*
X42261600Y-73796800D02*
X41396500Y-72931700D01*
X41396500Y-72931700D02*
X41396500Y-72210400D01*
X41396500Y-72210400D02*
X39414300Y-70228200D01*
X39414300Y-70228200D02*
X36831800Y-70228200D01*
X36831800Y-70228200D02*
X29992200Y-63388600D01*
X29992200Y-63388600D02*
X25028800Y-63388600D01*
X25028800Y-63388600D02*
X24188900Y-64228500D01*
X24188900Y-64228500D02*
X24188900Y-64600000D01*
X93472000Y-92964000D02*
X92283100Y-92964000D01*
X23000000Y-64600000D02*
X24188900Y-64600000D01*
X26728900Y-62060000D02*
X30739900Y-62060000D01*
X30739900Y-62060000D02*
X38232700Y-69552800D01*
X38232700Y-69552800D02*
X41236400Y-69552800D01*
X41236400Y-69552800D02*
X43837400Y-72153800D01*
X43837400Y-72153800D02*
X43837400Y-72804900D01*
X43837400Y-72804900D02*
X49070900Y-78038400D01*
X49070900Y-78038400D02*
X52262300Y-78038400D01*
X52262300Y-78038400D02*
X54142000Y-79918100D01*
X54142000Y-79918100D02*
X54142000Y-80606200D01*
X54142000Y-80606200D02*
X63959800Y-90424000D01*
X63959800Y-90424000D02*
X92283100Y-90424000D01*
X25540000Y-62060000D02*
X26728900Y-62060000D01*
X93472000Y-90424000D02*
X92283100Y-90424000D01*
X23000000Y-62060000D02*
X24188900Y-62060000D01*
X24188900Y-62060000D02*
X24188900Y-61688500D01*
X24188900Y-61688500D02*
X25022100Y-60855300D01*
X25022100Y-60855300D02*
X30248900Y-60855300D01*
X30248900Y-60855300D02*
X38304000Y-68910400D01*
X38304000Y-68910400D02*
X42916900Y-68910400D01*
X42916900Y-68910400D02*
X44978300Y-70971800D01*
X44978300Y-70971800D02*
X45195500Y-70971800D01*
X45195500Y-70971800D02*
X46522000Y-72298300D01*
X46522000Y-72298300D02*
X46522000Y-73021900D01*
X46522000Y-73021900D02*
X51088200Y-77588100D01*
X51088200Y-77588100D02*
X54373400Y-77588100D01*
X54373400Y-77588100D02*
X61739700Y-84954400D01*
X61739700Y-84954400D02*
X61739700Y-86448700D01*
X61739700Y-86448700D02*
X63175000Y-87884000D01*
X63175000Y-87884000D02*
X93472000Y-87884000D01*
X25540000Y-59520000D02*
X29962800Y-59520000D01*
X29962800Y-59520000D02*
X38902800Y-68460000D01*
X38902800Y-68460000D02*
X43103400Y-68460000D01*
X43103400Y-68460000D02*
X45121700Y-70478300D01*
X45121700Y-70478300D02*
X56623200Y-70478300D01*
X56623200Y-70478300D02*
X60820900Y-74676000D01*
X60820900Y-74676000D02*
X70951700Y-74676000D01*
X70951700Y-74676000D02*
X75777700Y-79502000D01*
X75777700Y-79502000D02*
X86441100Y-79502000D01*
X86441100Y-79502000D02*
X92283100Y-85344000D01*
X93472000Y-85344000D02*
X92283100Y-85344000D01*
X24188900Y-59520000D02*
X24188900Y-59161500D01*
X24188900Y-59161500D02*
X25028500Y-58321900D01*
X25028500Y-58321900D02*
X29775000Y-58321900D01*
X29775000Y-58321900D02*
X38637900Y-67184800D01*
X38637900Y-67184800D02*
X42465100Y-67184800D01*
X42465100Y-67184800D02*
X45308300Y-70028000D01*
X45308300Y-70028000D02*
X57733200Y-70028000D01*
X57733200Y-70028000D02*
X59969300Y-72264100D01*
X59969300Y-72264100D02*
X72936700Y-72264100D01*
X72936700Y-72264100D02*
X77634600Y-76962000D01*
X77634600Y-76962000D02*
X86441100Y-76962000D01*
X86441100Y-76962000D02*
X92283100Y-82804000D01*
X93472000Y-82804000D02*
X92283100Y-82804000D01*
X23000000Y-59520000D02*
X24188900Y-59520000D01*
X26728900Y-56980000D02*
X29110100Y-56980000D01*
X29110100Y-56980000D02*
X38864600Y-66734500D01*
X38864600Y-66734500D02*
X70676500Y-66734500D01*
X70676500Y-66734500D02*
X76468700Y-72526700D01*
X76468700Y-72526700D02*
X76468700Y-73237500D01*
X76468700Y-73237500D02*
X77653200Y-74422000D01*
X77653200Y-74422000D02*
X86441100Y-74422000D01*
X86441100Y-74422000D02*
X92283100Y-80264000D01*
X93472000Y-80264000D02*
X92283100Y-80264000D01*
X25540000Y-56980000D02*
X26728900Y-56980000D01*
X93472000Y-77724000D02*
X92283100Y-77724000D01*
X23000000Y-56980000D02*
X24188900Y-56980000D01*
X24188900Y-56980000D02*
X24188900Y-56608500D01*
X24188900Y-56608500D02*
X25022100Y-55775300D01*
X25022100Y-55775300D02*
X28937500Y-55775300D01*
X28937500Y-55775300D02*
X39221100Y-66058900D01*
X39221100Y-66058900D02*
X71010300Y-66058900D01*
X71010300Y-66058900D02*
X76833400Y-71882000D01*
X76833400Y-71882000D02*
X86441100Y-71882000D01*
X86441100Y-71882000D02*
X92283100Y-77724000D01*
X92283100Y-75184000D02*
X86441100Y-69342000D01*
X86441100Y-69342000D02*
X75354400Y-69342000D01*
X75354400Y-69342000D02*
X71495000Y-65482600D01*
X71495000Y-65482600D02*
X39600100Y-65482600D01*
X39600100Y-65482600D02*
X28557500Y-54440000D01*
X28557500Y-54440000D02*
X26728900Y-54440000D01*
X93472000Y-75184000D02*
X92283100Y-75184000D01*
X25540000Y-54440000D02*
X26728900Y-54440000D01*
X92283100Y-72644000D02*
X86441100Y-66802000D01*
X86441100Y-66802000D02*
X74088100Y-66802000D01*
X74088100Y-66802000D02*
X72230600Y-64944500D01*
X72230600Y-64944500D02*
X39699000Y-64944500D01*
X39699000Y-64944500D02*
X27989800Y-53235300D01*
X27989800Y-53235300D02*
X25022100Y-53235300D01*
X25022100Y-53235300D02*
X24188900Y-54068500D01*
X24188900Y-54068500D02*
X24188900Y-54440000D01*
X93472000Y-72644000D02*
X92283100Y-72644000D01*
X23000000Y-54440000D02*
X24188900Y-54440000D01*
X25540000Y-51900000D02*
X30566000Y-51900000D01*
X30566000Y-51900000D02*
X35861800Y-57195800D01*
X35861800Y-57195800D02*
X37930200Y-57195800D01*
X37930200Y-57195800D02*
X39152000Y-58417600D01*
X39152000Y-58417600D02*
X39152000Y-59118800D01*
X39152000Y-59118800D02*
X44239900Y-64206700D01*
X44239900Y-64206700D02*
X85868200Y-64206700D01*
X85868200Y-64206700D02*
X91765500Y-70104000D01*
X91765500Y-70104000D02*
X93472000Y-70104000D01*
X24188900Y-51900000D02*
X24188900Y-51528500D01*
X24188900Y-51528500D02*
X25008000Y-50709400D01*
X25008000Y-50709400D02*
X30435600Y-50709400D01*
X30435600Y-50709400D02*
X36137100Y-56410900D01*
X36137100Y-56410900D02*
X54924400Y-56410900D01*
X54924400Y-56410900D02*
X62269900Y-63756400D01*
X62269900Y-63756400D02*
X86054800Y-63756400D01*
X86054800Y-63756400D02*
X91243200Y-68944800D01*
X91243200Y-68944800D02*
X92144000Y-68944800D01*
X92144000Y-68944800D02*
X92335900Y-68752900D01*
X92335900Y-68752900D02*
X93472000Y-68752900D01*
X93472000Y-67564000D02*
X93472000Y-68752900D01*
X23000000Y-51900000D02*
X24188900Y-51900000D01*
X25540000Y-49360000D02*
X30393200Y-49360000D01*
X30393200Y-49360000D02*
X36386800Y-43366400D01*
X25540000Y-45468900D02*
X25168400Y-45468900D01*
X25168400Y-45468900D02*
X24351100Y-46286200D01*
X24351100Y-46286200D02*
X24351100Y-47172200D01*
X24351100Y-47172200D02*
X23514300Y-48009000D01*
X23514300Y-48009000D02*
X22646900Y-48009000D01*
X22646900Y-48009000D02*
X21809300Y-48846600D01*
X21809300Y-48846600D02*
X21809300Y-70238600D01*
X21809300Y-70238600D02*
X22520700Y-70950000D01*
X22520700Y-70950000D02*
X23433300Y-70950000D01*
X23433300Y-70950000D02*
X24189000Y-71705700D01*
X24189000Y-71705700D02*
X24189000Y-72572300D01*
X24189000Y-72572300D02*
X25025700Y-73409000D01*
X25025700Y-73409000D02*
X26024800Y-73409000D01*
X26024800Y-73409000D02*
X56453900Y-103838100D01*
X56453900Y-103838100D02*
X83221200Y-103838100D01*
X83221200Y-103838100D02*
X86276600Y-106893500D01*
X86276600Y-106893500D02*
X93965100Y-106893500D01*
X93965100Y-106893500D02*
X94823100Y-106035500D01*
X94823100Y-106035500D02*
X94823100Y-105664000D01*
X25540000Y-44280000D02*
X25540000Y-45468900D01*
X96012000Y-105664000D02*
X94823100Y-105664000D01*
X23000000Y-45468900D02*
X22667100Y-45468900D01*
X22667100Y-45468900D02*
X21277900Y-46858100D01*
X21277900Y-46858100D02*
X21277900Y-95039400D01*
X21277900Y-95039400D02*
X22669500Y-96431000D01*
X22669500Y-96431000D02*
X23514300Y-96431000D01*
X23514300Y-96431000D02*
X24351000Y-97267700D01*
X24351000Y-97267700D02*
X24351000Y-98134300D01*
X24351000Y-98134300D02*
X25106700Y-98890000D01*
X25106700Y-98890000D02*
X26697700Y-98890000D01*
X26697700Y-98890000D02*
X36496400Y-108688700D01*
X36496400Y-108688700D02*
X94728300Y-108688700D01*
X94728300Y-108688700D02*
X97200900Y-106216100D01*
X97200900Y-106216100D02*
X97200900Y-105130200D01*
X97200900Y-105130200D02*
X96383600Y-104312900D01*
X96383600Y-104312900D02*
X96012000Y-104312900D01*
X96012000Y-103124000D02*
X96012000Y-104312900D01*
X23000000Y-44280000D02*
X23000000Y-45468900D01*
X23000000Y-42928900D02*
X22628500Y-42928900D01*
X22628500Y-42928900D02*
X20776100Y-44781300D01*
X20776100Y-44781300D02*
X20776100Y-97081100D01*
X20776100Y-97081100D02*
X22504000Y-98809000D01*
X22504000Y-98809000D02*
X23331400Y-98809000D01*
X23331400Y-98809000D02*
X24211200Y-99688800D01*
X24211200Y-99688800D02*
X24211200Y-100623700D01*
X24211200Y-100623700D02*
X32750900Y-109163400D01*
X32750900Y-109163400D02*
X94891200Y-109163400D01*
X94891200Y-109163400D02*
X97682300Y-106372300D01*
X97682300Y-106372300D02*
X97682300Y-100531700D01*
X97682300Y-100531700D02*
X96383500Y-99232900D01*
X96383500Y-99232900D02*
X96012000Y-99232900D01*
X96012000Y-98044000D02*
X96012000Y-99232900D01*
X23000000Y-41740000D02*
X23000000Y-42928900D01*
X25540000Y-36660000D02*
X31678100Y-36660000D01*
X31678100Y-36660000D02*
X44627400Y-49609300D01*
X44627400Y-49609300D02*
X45582900Y-49609300D01*
X45582900Y-49609300D02*
X46772000Y-50798400D01*
X46772000Y-50798400D02*
X46772000Y-51521900D01*
X46772000Y-51521900D02*
X49547300Y-54297200D01*
X49547300Y-54297200D02*
X57673700Y-54297200D01*
X57673700Y-54297200D02*
X66232300Y-62855800D01*
X66232300Y-62855800D02*
X87365200Y-62855800D01*
X87365200Y-62855800D02*
X91109100Y-66599700D01*
X96012000Y-87884000D02*
X97200900Y-87884000D01*
X97200900Y-87884000D02*
X102407900Y-82677000D01*
X102407900Y-82677000D02*
X107897700Y-82677000D01*
X107897700Y-82677000D02*
X110043600Y-80531100D01*
X110043600Y-80531100D02*
X110043600Y-53829100D01*
X110043600Y-53829100D02*
X73667000Y-17452500D01*
X73667000Y-17452500D02*
X29207000Y-17452500D01*
X29207000Y-17452500D02*
X21306300Y-25353200D01*
X21306300Y-25353200D02*
X21306300Y-34148900D01*
X21306300Y-34148900D02*
X22628500Y-35471100D01*
X22628500Y-35471100D02*
X23000000Y-35471100D01*
X23000000Y-36660000D02*
X23000000Y-35471100D01*
X100827700Y-51394900D02*
X100827700Y-46382700D01*
X100827700Y-46382700D02*
X74765000Y-20320000D01*
X74765000Y-20320000D02*
X70587900Y-20320000D01*
X70587900Y-20320000D02*
X68173500Y-17905600D01*
X68173500Y-17905600D02*
X29396400Y-17905600D01*
X29396400Y-17905600D02*
X21789600Y-25512400D01*
X21789600Y-25512400D02*
X21789600Y-32909600D01*
X21789600Y-32909600D02*
X23000000Y-34120000D01*
X25540000Y-31580000D02*
X27235000Y-31580000D01*
X27235000Y-31580000D02*
X44814000Y-49159000D01*
X44814000Y-49159000D02*
X47718100Y-49159000D01*
X47718100Y-49159000D02*
X49312000Y-50752900D01*
X49312000Y-50752900D02*
X49312000Y-51499200D01*
X49312000Y-51499200D02*
X51409000Y-53596200D01*
X51409000Y-53596200D02*
X57834600Y-53596200D01*
X57834600Y-53596200D02*
X66643900Y-62405500D01*
X66643900Y-62405500D02*
X88001200Y-62405500D01*
X88001200Y-62405500D02*
X92139800Y-66544100D01*
X92139800Y-66544100D02*
X92139800Y-66784500D01*
X91843500Y-68219500D02*
X91678000Y-68219500D01*
X91678000Y-68219500D02*
X86764600Y-63306100D01*
X86764600Y-63306100D02*
X63477200Y-63306100D01*
X63477200Y-63306100D02*
X56070000Y-55898900D01*
X56070000Y-55898900D02*
X48611900Y-55898900D01*
X48611900Y-55898900D02*
X44232000Y-51519000D01*
X44232000Y-51519000D02*
X44232000Y-50185800D01*
X44232000Y-50185800D02*
X31976200Y-37930000D01*
X31976200Y-37930000D02*
X25106700Y-37930000D01*
X25106700Y-37930000D02*
X24188900Y-37012200D01*
X24188900Y-37012200D02*
X24188900Y-33586200D01*
X24188900Y-33586200D02*
X23371600Y-32768900D01*
X23371600Y-32768900D02*
X23000000Y-32768900D01*
X23000000Y-31580000D02*
X23000000Y-32768900D01*
X25540000Y-29040000D02*
X26728900Y-29040000D01*
X26728900Y-29040000D02*
X26728900Y-29485800D01*
X26728900Y-29485800D02*
X36606200Y-39363100D01*
X36606200Y-39363100D02*
X46004100Y-39363100D01*
X46004100Y-39363100D02*
X58512600Y-51871600D01*
X58512600Y-51871600D02*
X58512600Y-52300300D01*
X58512600Y-52300300D02*
X65671800Y-59459500D01*
X65671800Y-59459500D02*
X84305400Y-59459500D01*
X84305400Y-59459500D02*
X85009900Y-58755000D01*
X85009900Y-58755000D02*
X98093400Y-58755000D01*
X98093400Y-58755000D02*
X100301300Y-60962900D01*
X24188900Y-29040000D02*
X24188900Y-29411600D01*
X24188900Y-29411600D02*
X25006200Y-30228900D01*
X25006200Y-30228900D02*
X26835100Y-30228900D01*
X26835100Y-30228900D02*
X45217500Y-48611300D01*
X45217500Y-48611300D02*
X49670800Y-48611300D01*
X49670800Y-48611300D02*
X51852000Y-50792500D01*
X51852000Y-50792500D02*
X51852000Y-51519000D01*
X51852000Y-51519000D02*
X52899300Y-52566300D01*
X52899300Y-52566300D02*
X58062300Y-52566300D01*
X58062300Y-52566300D02*
X67282200Y-61786200D01*
X67282200Y-61786200D02*
X88423100Y-61786200D01*
X88423100Y-61786200D02*
X93011900Y-66375000D01*
X93011900Y-66375000D02*
X93985100Y-66375000D01*
X93985100Y-66375000D02*
X94823100Y-67213000D01*
X94823100Y-67213000D02*
X94823100Y-70637800D01*
X94823100Y-70637800D02*
X95640400Y-71455100D01*
X95640400Y-71455100D02*
X96012000Y-71455100D01*
X96012000Y-72644000D02*
X96012000Y-71455100D01*
X23000000Y-29040000D02*
X24188900Y-29040000D01*
X25540000Y-26500000D02*
X39672200Y-26500000D01*
X39672200Y-26500000D02*
X41844500Y-28672300D01*
X41844500Y-28672300D02*
X41844500Y-29350000D01*
X41844500Y-29350000D02*
X45514500Y-33020000D01*
X45514500Y-33020000D02*
X86062300Y-33020000D01*
X86062300Y-33020000D02*
X98940600Y-45898300D01*
X98940600Y-45898300D02*
X98940600Y-49495400D01*
X23000000Y-26500000D02*
X24188900Y-26500000D01*
X24188900Y-26500000D02*
X24188900Y-26128500D01*
X24188900Y-26128500D02*
X25056800Y-25260600D01*
X25056800Y-25260600D02*
X40978900Y-25260600D01*
X40978900Y-25260600D02*
X44482000Y-28763700D01*
X44482000Y-28763700D02*
X44482000Y-29504600D01*
X44482000Y-29504600D02*
X46169600Y-31192200D01*
X46169600Y-31192200D02*
X63198400Y-31192200D01*
X63198400Y-31192200D02*
X63821600Y-30569000D01*
X63821600Y-30569000D02*
X84248200Y-30569000D01*
X84248200Y-30569000D02*
X99678700Y-45999500D01*
X99678700Y-45999500D02*
X99678700Y-50378000D01*
X99678700Y-50378000D02*
X98578000Y-51478700D01*
X75418000Y-60184900D02*
X76418600Y-60184900D01*
X76418600Y-60184900D02*
X76838000Y-60604300D01*
X76838000Y-60604300D02*
X88846300Y-60604300D01*
X88846300Y-60604300D02*
X89537100Y-61295100D01*
X89537100Y-61295100D02*
X94005800Y-61295100D01*
X94005800Y-61295100D02*
X94823100Y-62112400D01*
X94823100Y-62112400D02*
X94823100Y-62484000D01*
X96012000Y-62484000D02*
X94823100Y-62484000D01*
X92283100Y-62484000D02*
X89894000Y-62484000D01*
X89894000Y-62484000D02*
X88464600Y-61054600D01*
X88464600Y-61054600D02*
X76223600Y-61054600D01*
X93472000Y-62484000D02*
X92283100Y-62484000D01*
X97200900Y-59944000D02*
X98256800Y-59944000D01*
X98256800Y-59944000D02*
X98256800Y-59944100D01*
X98256800Y-59944100D02*
X100000900Y-61688200D01*
X100000900Y-61688200D02*
X100130500Y-61688200D01*
X100130500Y-61688200D02*
X106139300Y-67697000D01*
X106139300Y-67697000D02*
X106139300Y-79316500D01*
X106139300Y-79316500D02*
X105318800Y-80137000D01*
X105318800Y-80137000D02*
X103831100Y-80137000D01*
X103831100Y-80137000D02*
X97388500Y-86579600D01*
X97388500Y-86579600D02*
X84575100Y-86579600D01*
X84575100Y-86579600D02*
X80146900Y-82151400D01*
X80146900Y-82151400D02*
X65531900Y-82151400D01*
X65531900Y-82151400D02*
X64117300Y-83566000D01*
X96012000Y-59944000D02*
X97200900Y-59944000D01*
X62992000Y-83566000D02*
X64117300Y-83566000D01*
X92283100Y-59944000D02*
X91890100Y-59551000D01*
X91890100Y-59551000D02*
X86751200Y-59551000D01*
X93472000Y-59944000D02*
X92283100Y-59944000D01*
X94823100Y-54864000D02*
X94823100Y-55235600D01*
X94823100Y-55235600D02*
X94005800Y-56052900D01*
X94005800Y-56052900D02*
X93091700Y-56052900D01*
X93091700Y-56052900D02*
X91620200Y-57524400D01*
X91620200Y-57524400D02*
X91620200Y-58017200D01*
X96012000Y-54864000D02*
X94823100Y-54864000D01*
X73660000Y-57296000D02*
X73660000Y-52070000D01*
X73660000Y-52070000D02*
X74785300Y-52070000D01*
X80796300Y-52179300D02*
X74894600Y-52179300D01*
X74894600Y-52179300D02*
X74785300Y-52070000D01*
X73660000Y-49530000D02*
X74785300Y-49530000D01*
X80796300Y-49679300D02*
X74934600Y-49679300D01*
X74934600Y-49679300D02*
X74785300Y-49530000D01*
X73660000Y-49530000D02*
X73660000Y-50655300D01*
X70049000Y-57296000D02*
X70049000Y-53985000D01*
X70049000Y-53985000D02*
X73378700Y-50655300D01*
X73378700Y-50655300D02*
X73660000Y-50655300D01*
X66549000Y-57296000D02*
X66549000Y-55049400D01*
X66549000Y-55049400D02*
X73483100Y-48115300D01*
X73483100Y-48115300D02*
X73660000Y-48115300D01*
X73660000Y-46990000D02*
X73660000Y-48115300D01*
X73660000Y-46990000D02*
X74785300Y-46990000D01*
X80796300Y-47179300D02*
X74974600Y-47179300D01*
X74974600Y-47179300D02*
X74785300Y-46990000D01*
X66040000Y-24130000D02*
X64914700Y-24130000D01*
X50832000Y-29120000D02*
X51957300Y-29120000D01*
X51957300Y-29120000D02*
X51957300Y-29401300D01*
X51957300Y-29401300D02*
X53252600Y-30696600D01*
X53252600Y-30696600D02*
X58348100Y-30696600D01*
X58348100Y-30696600D02*
X64914700Y-24130000D01*
X66040000Y-21590000D02*
X64914700Y-21590000D01*
X64914700Y-21590000D02*
X64914700Y-22226500D01*
X64914700Y-22226500D02*
X56895800Y-30245400D01*
X56895800Y-30245400D02*
X54919400Y-30245400D01*
X54919400Y-30245400D02*
X54497300Y-29823300D01*
X54497300Y-29823300D02*
X54497300Y-29120000D01*
X53372000Y-29120000D02*
X54497300Y-29120000D01*
X66040000Y-19050000D02*
X66040000Y-20175300D01*
X55912000Y-29120000D02*
X57037300Y-29120000D01*
X57037300Y-29120000D02*
X57037300Y-28819800D01*
X57037300Y-28819800D02*
X65681800Y-20175300D01*
X65681800Y-20175300D02*
X66040000Y-20175300D01*
X37632000Y-72620000D02*
X38757300Y-72620000D01*
X38757300Y-72620000D02*
X38757300Y-72901400D01*
X38757300Y-72901400D02*
X39601200Y-73745300D01*
X39601200Y-73745300D02*
X40348900Y-73745300D01*
X40348900Y-73745300D02*
X46522000Y-79918400D01*
X46522000Y-79918400D02*
X46522000Y-82546200D01*
X46522000Y-82546200D02*
X51151900Y-87176100D01*
X104521000Y-60254000D02*
X97852700Y-53585700D01*
X97852700Y-53585700D02*
X97852700Y-49896100D01*
X97852700Y-49896100D02*
X96389600Y-48433000D01*
X96389600Y-48433000D02*
X95497700Y-48433000D01*
X95497700Y-48433000D02*
X94742000Y-47677300D01*
X94742000Y-47677300D02*
X94742000Y-46776000D01*
X94742000Y-46776000D02*
X93859000Y-45893000D01*
X93859000Y-45893000D02*
X82109500Y-45893000D01*
X82109500Y-45893000D02*
X80666500Y-44450000D01*
X80666500Y-44450000D02*
X74785300Y-44450000D01*
X108077000Y-60254000D02*
X104521000Y-60254000D01*
X73660000Y-44450000D02*
X74785300Y-44450000D01*
X70612000Y-70866000D02*
X69486700Y-70866000D01*
X48314000Y-68935000D02*
X48830400Y-69451400D01*
X48830400Y-69451400D02*
X68072100Y-69451400D01*
X68072100Y-69451400D02*
X69486700Y-70866000D01*
X51702200Y-74754200D02*
X54176700Y-74754200D01*
X54176700Y-74754200D02*
X56783200Y-77360700D01*
X56783200Y-77360700D02*
X68361400Y-77360700D01*
X68361400Y-77360700D02*
X69486700Y-78486000D01*
X70612000Y-78486000D02*
X69486700Y-78486000D01*
X70612000Y-83566000D02*
X64754200Y-83566000D01*
X64754200Y-83566000D02*
X63621000Y-84699200D01*
X63621000Y-84699200D02*
X62194900Y-84699200D01*
X62194900Y-84699200D02*
X53425600Y-75929900D01*
X53425600Y-75929900D02*
X51215100Y-75929900D01*
X51215100Y-75929900D02*
X48917300Y-73632100D01*
X48917300Y-73632100D02*
X48917300Y-72620000D01*
X47792000Y-72620000D02*
X48917300Y-72620000D01*
X62992000Y-81026000D02*
X59431800Y-81026000D01*
X59431800Y-81026000D02*
X53885300Y-75479500D01*
X53885300Y-75479500D02*
X51401600Y-75479500D01*
X51401600Y-75479500D02*
X50332100Y-74410000D01*
X50332100Y-74410000D02*
X50332100Y-73745300D01*
X50332100Y-73745300D02*
X50332000Y-73745300D01*
X50332000Y-72620000D02*
X50332000Y-73745300D01*
X52872000Y-72620000D02*
X53997300Y-72620000D01*
X53997300Y-72620000D02*
X53997300Y-73323300D01*
X53997300Y-73323300D02*
X56620000Y-75946000D01*
X56620000Y-75946000D02*
X62992000Y-75946000D01*
D24*
G36*
X51996940Y-100455942D02*
G01*
X51815537Y-100531082D01*
X51547748Y-100710013D01*
X51320013Y-100937748D01*
X51141082Y-101205537D01*
X51017832Y-101503088D01*
X50955000Y-101818967D01*
X50955000Y-102141033D01*
X51017832Y-102456912D01*
X51141082Y-102754463D01*
X51320013Y-103022252D01*
X51547748Y-103249987D01*
X51815537Y-103428918D01*
X52113088Y-103552168D01*
X52428967Y-103615000D01*
X52751033Y-103615000D01*
X53066912Y-103552168D01*
X53364463Y-103428918D01*
X53632252Y-103249987D01*
X53859987Y-103022252D01*
X54038918Y-102754463D01*
X54114058Y-102573060D01*
X55890100Y-104349102D01*
X55913899Y-104378101D01*
X55942897Y-104401899D01*
X56029623Y-104473074D01*
X56161653Y-104543646D01*
X56304914Y-104587103D01*
X56416567Y-104598100D01*
X56416577Y-104598100D01*
X56453900Y-104601776D01*
X56491223Y-104598100D01*
X58594203Y-104598100D01*
X58556304Y-104689595D01*
X58505000Y-104947514D01*
X58505000Y-105210486D01*
X58556304Y-105468405D01*
X58656939Y-105711359D01*
X58803038Y-105930013D01*
X58988987Y-106115962D01*
X59207641Y-106262061D01*
X59423550Y-106351494D01*
X59398956Y-106358953D01*
X59161608Y-106469208D01*
X58950330Y-106623649D01*
X58773241Y-106816340D01*
X58637147Y-107039877D01*
X58547278Y-107285670D01*
X58669799Y-107492000D01*
X59713000Y-107492000D01*
X59713000Y-107472000D01*
X59967000Y-107472000D01*
X59967000Y-107492000D01*
X61010201Y-107492000D01*
X61132722Y-107285670D01*
X61042853Y-107039877D01*
X60906759Y-106816340D01*
X60729670Y-106623649D01*
X60518392Y-106469208D01*
X60281044Y-106358953D01*
X60256450Y-106351494D01*
X60472359Y-106262061D01*
X60691013Y-106115962D01*
X60876962Y-105930013D01*
X61023061Y-105711359D01*
X61123696Y-105468405D01*
X61175000Y-105210486D01*
X61175000Y-104947514D01*
X61123696Y-104689595D01*
X61085797Y-104598100D01*
X65344203Y-104598100D01*
X65306304Y-104689595D01*
X65255000Y-104947514D01*
X65255000Y-105210486D01*
X65306304Y-105468405D01*
X65406939Y-105711359D01*
X65553038Y-105930013D01*
X65738987Y-106115962D01*
X65957641Y-106262061D01*
X66173550Y-106351494D01*
X66148956Y-106358953D01*
X65911608Y-106469208D01*
X65700330Y-106623649D01*
X65523241Y-106816340D01*
X65387147Y-107039877D01*
X65297278Y-107285670D01*
X65419799Y-107492000D01*
X66463000Y-107492000D01*
X66463000Y-107472000D01*
X66717000Y-107472000D01*
X66717000Y-107492000D01*
X67760201Y-107492000D01*
X67882722Y-107285670D01*
X67792853Y-107039877D01*
X67656759Y-106816340D01*
X67479670Y-106623649D01*
X67268392Y-106469208D01*
X67031044Y-106358953D01*
X67006450Y-106351494D01*
X67222359Y-106262061D01*
X67441013Y-106115962D01*
X67626962Y-105930013D01*
X67773061Y-105711359D01*
X67873696Y-105468405D01*
X67925000Y-105210486D01*
X67925000Y-104947514D01*
X67873696Y-104689595D01*
X67835797Y-104598100D01*
X72594203Y-104598100D01*
X72556304Y-104689595D01*
X72505000Y-104947514D01*
X72505000Y-105210486D01*
X72556304Y-105468405D01*
X72656939Y-105711359D01*
X72803038Y-105930013D01*
X72988987Y-106115962D01*
X73207641Y-106262061D01*
X73423550Y-106351494D01*
X73398956Y-106358953D01*
X73161608Y-106469208D01*
X72950330Y-106623649D01*
X72773241Y-106816340D01*
X72637147Y-107039877D01*
X72547278Y-107285670D01*
X72669799Y-107492000D01*
X73713000Y-107492000D01*
X73713000Y-107472000D01*
X73967000Y-107472000D01*
X73967000Y-107492000D01*
X75010201Y-107492000D01*
X75132722Y-107285670D01*
X75042853Y-107039877D01*
X74906759Y-106816340D01*
X74729670Y-106623649D01*
X74518392Y-106469208D01*
X74281044Y-106358953D01*
X74256450Y-106351494D01*
X74472359Y-106262061D01*
X74691013Y-106115962D01*
X74876962Y-105930013D01*
X75023061Y-105711359D01*
X75123696Y-105468405D01*
X75175000Y-105210486D01*
X75175000Y-104947514D01*
X75123696Y-104689595D01*
X75085797Y-104598100D01*
X79844203Y-104598100D01*
X79806304Y-104689595D01*
X79755000Y-104947514D01*
X79755000Y-105210486D01*
X79806304Y-105468405D01*
X79906939Y-105711359D01*
X80053038Y-105930013D01*
X80238987Y-106115962D01*
X80457641Y-106262061D01*
X80673550Y-106351494D01*
X80648956Y-106358953D01*
X80411608Y-106469208D01*
X80200330Y-106623649D01*
X80023241Y-106816340D01*
X79887147Y-107039877D01*
X79797278Y-107285670D01*
X79919799Y-107492000D01*
X80963000Y-107492000D01*
X80963000Y-107472000D01*
X81217000Y-107472000D01*
X81217000Y-107492000D01*
X82260201Y-107492000D01*
X82382722Y-107285670D01*
X82292853Y-107039877D01*
X82156759Y-106816340D01*
X81979670Y-106623649D01*
X81768392Y-106469208D01*
X81531044Y-106358953D01*
X81506450Y-106351494D01*
X81722359Y-106262061D01*
X81941013Y-106115962D01*
X82126962Y-105930013D01*
X82273061Y-105711359D01*
X82373696Y-105468405D01*
X82425000Y-105210486D01*
X82425000Y-104947514D01*
X82373696Y-104689595D01*
X82335797Y-104598100D01*
X82906399Y-104598100D01*
X85712801Y-107404503D01*
X85736599Y-107433501D01*
X85765597Y-107457299D01*
X85852323Y-107528474D01*
X85984353Y-107599046D01*
X86127614Y-107642503D01*
X86239267Y-107653500D01*
X86239276Y-107653500D01*
X86276599Y-107657176D01*
X86313922Y-107653500D01*
X93927778Y-107653500D01*
X93965100Y-107657176D01*
X94002422Y-107653500D01*
X94002433Y-107653500D01*
X94114086Y-107642503D01*
X94257347Y-107599046D01*
X94389376Y-107528474D01*
X94505101Y-107433501D01*
X94528903Y-107404498D01*
X95085870Y-106847531D01*
X95302147Y-106992042D01*
X95336095Y-107006104D01*
X94413499Y-107928700D01*
X82368690Y-107928700D01*
X82260201Y-107746000D01*
X81217000Y-107746000D01*
X81217000Y-107766000D01*
X80963000Y-107766000D01*
X80963000Y-107746000D01*
X79919799Y-107746000D01*
X79811310Y-107928700D01*
X75118690Y-107928700D01*
X75010201Y-107746000D01*
X73967000Y-107746000D01*
X73967000Y-107766000D01*
X73713000Y-107766000D01*
X73713000Y-107746000D01*
X72669799Y-107746000D01*
X72561310Y-107928700D01*
X67868690Y-107928700D01*
X67760201Y-107746000D01*
X66717000Y-107746000D01*
X66717000Y-107766000D01*
X66463000Y-107766000D01*
X66463000Y-107746000D01*
X65419799Y-107746000D01*
X65311310Y-107928700D01*
X61118690Y-107928700D01*
X61010201Y-107746000D01*
X59967000Y-107746000D01*
X59967000Y-107766000D01*
X59713000Y-107766000D01*
X59713000Y-107746000D01*
X58669799Y-107746000D01*
X58561310Y-107928700D01*
X53868690Y-107928700D01*
X53760201Y-107746000D01*
X52717000Y-107746000D01*
X52717000Y-107766000D01*
X52463000Y-107766000D01*
X52463000Y-107746000D01*
X51419799Y-107746000D01*
X51311310Y-107928700D01*
X36811203Y-107928700D01*
X33830017Y-104947514D01*
X51255000Y-104947514D01*
X51255000Y-105210486D01*
X51306304Y-105468405D01*
X51406939Y-105711359D01*
X51553038Y-105930013D01*
X51738987Y-106115962D01*
X51957641Y-106262061D01*
X52173550Y-106351494D01*
X52148956Y-106358953D01*
X51911608Y-106469208D01*
X51700330Y-106623649D01*
X51523241Y-106816340D01*
X51387147Y-107039877D01*
X51297278Y-107285670D01*
X51419799Y-107492000D01*
X52463000Y-107492000D01*
X52463000Y-107472000D01*
X52717000Y-107472000D01*
X52717000Y-107492000D01*
X53760201Y-107492000D01*
X53882722Y-107285670D01*
X53792853Y-107039877D01*
X53656759Y-106816340D01*
X53479670Y-106623649D01*
X53268392Y-106469208D01*
X53031044Y-106358953D01*
X53006450Y-106351494D01*
X53222359Y-106262061D01*
X53441013Y-106115962D01*
X53626962Y-105930013D01*
X53773061Y-105711359D01*
X53873696Y-105468405D01*
X53925000Y-105210486D01*
X53925000Y-104947514D01*
X53873696Y-104689595D01*
X53773061Y-104446641D01*
X53626962Y-104227987D01*
X53441013Y-104042038D01*
X53222359Y-103895939D01*
X52979405Y-103795304D01*
X52721486Y-103744000D01*
X52458514Y-103744000D01*
X52200595Y-103795304D01*
X51957641Y-103895939D01*
X51738987Y-104042038D01*
X51553038Y-104227987D01*
X51406939Y-104446641D01*
X51306304Y-104689595D01*
X51255000Y-104947514D01*
X33830017Y-104947514D01*
X30286502Y-101404000D01*
X33291822Y-101404000D01*
X33416525Y-101590632D01*
X33623368Y-101797475D01*
X33797760Y-101914000D01*
X33623368Y-102030525D01*
X33416525Y-102237368D01*
X33254010Y-102480589D01*
X33142068Y-102750842D01*
X33085000Y-103037740D01*
X33085000Y-103330260D01*
X33142068Y-103617158D01*
X33254010Y-103887411D01*
X33416525Y-104130632D01*
X33623368Y-104337475D01*
X33866589Y-104499990D01*
X34136842Y-104611932D01*
X34423740Y-104669000D01*
X34716260Y-104669000D01*
X35003158Y-104611932D01*
X35273411Y-104499990D01*
X35516632Y-104337475D01*
X35723475Y-104130632D01*
X35764656Y-104069000D01*
X35826831Y-104069000D01*
X35870300Y-104073281D01*
X35913769Y-104069000D01*
X35913777Y-104069000D01*
X36043790Y-104056195D01*
X36210613Y-104005589D01*
X36364359Y-103923411D01*
X36398500Y-103895392D01*
X36432641Y-103923411D01*
X36586386Y-104005589D01*
X36706541Y-104042038D01*
X36753210Y-104056195D01*
X36883223Y-104069000D01*
X36883231Y-104069000D01*
X36926700Y-104073281D01*
X36970169Y-104069000D01*
X37032344Y-104069000D01*
X37073525Y-104130632D01*
X37280368Y-104337475D01*
X37523589Y-104499990D01*
X37793842Y-104611932D01*
X38080740Y-104669000D01*
X38373260Y-104669000D01*
X38660158Y-104611932D01*
X38930411Y-104499990D01*
X39173632Y-104337475D01*
X39380475Y-104130632D01*
X39421656Y-104069000D01*
X40715344Y-104069000D01*
X40756525Y-104130632D01*
X40963368Y-104337475D01*
X41206589Y-104499990D01*
X41476842Y-104611932D01*
X41763740Y-104669000D01*
X42056260Y-104669000D01*
X42343158Y-104611932D01*
X42613411Y-104499990D01*
X42856632Y-104337475D01*
X43063475Y-104130632D01*
X43225990Y-103887411D01*
X43337932Y-103617158D01*
X43395000Y-103330260D01*
X43395000Y-103037740D01*
X43337932Y-102750842D01*
X43225990Y-102480589D01*
X43063475Y-102237368D01*
X42856632Y-102030525D01*
X42682240Y-101914000D01*
X42856632Y-101797475D01*
X43063475Y-101590632D01*
X43225990Y-101347411D01*
X43337932Y-101077158D01*
X43395000Y-100790260D01*
X43395000Y-100497740D01*
X43337932Y-100210842D01*
X43225990Y-99940589D01*
X43063475Y-99697368D01*
X42931620Y-99565513D01*
X43004180Y-99543502D01*
X43114494Y-99484537D01*
X43211185Y-99405185D01*
X43290537Y-99308494D01*
X43349502Y-99198180D01*
X43385812Y-99078482D01*
X43398072Y-98954000D01*
X43395000Y-98389750D01*
X43236250Y-98231000D01*
X42037000Y-98231000D01*
X42037000Y-98251000D01*
X41783000Y-98251000D01*
X41783000Y-98231000D01*
X40583750Y-98231000D01*
X40425000Y-98389750D01*
X40421928Y-98954000D01*
X40434188Y-99078482D01*
X40470498Y-99198180D01*
X40529463Y-99308494D01*
X40608815Y-99405185D01*
X40705506Y-99484537D01*
X40815820Y-99543502D01*
X40888380Y-99565513D01*
X40756525Y-99697368D01*
X40594010Y-99940589D01*
X40482068Y-100210842D01*
X40425000Y-100497740D01*
X40425000Y-100790260D01*
X40482068Y-101077158D01*
X40594010Y-101347411D01*
X40756525Y-101590632D01*
X40963368Y-101797475D01*
X41137760Y-101914000D01*
X40963368Y-102030525D01*
X40756525Y-102237368D01*
X40715344Y-102299000D01*
X39421656Y-102299000D01*
X39380475Y-102237368D01*
X39173632Y-102030525D01*
X38999240Y-101914000D01*
X39173632Y-101797475D01*
X39380475Y-101590632D01*
X39542990Y-101347411D01*
X39654932Y-101077158D01*
X39712000Y-100790260D01*
X39712000Y-100497740D01*
X39654932Y-100210842D01*
X39542990Y-99940589D01*
X39380475Y-99697368D01*
X39248620Y-99565513D01*
X39321180Y-99543502D01*
X39431494Y-99484537D01*
X39528185Y-99405185D01*
X39607537Y-99308494D01*
X39666502Y-99198180D01*
X39702812Y-99078482D01*
X39715072Y-98954000D01*
X39712000Y-98389750D01*
X39553250Y-98231000D01*
X38354000Y-98231000D01*
X38354000Y-98251000D01*
X38100000Y-98251000D01*
X38100000Y-98231000D01*
X38080000Y-98231000D01*
X38080000Y-97977000D01*
X38100000Y-97977000D01*
X38100000Y-96777750D01*
X38354000Y-96777750D01*
X38354000Y-97977000D01*
X39553250Y-97977000D01*
X39712000Y-97818250D01*
X39715072Y-97254000D01*
X40421928Y-97254000D01*
X40425000Y-97818250D01*
X40583750Y-97977000D01*
X41783000Y-97977000D01*
X41783000Y-96777750D01*
X42037000Y-96777750D01*
X42037000Y-97977000D01*
X43236250Y-97977000D01*
X43395000Y-97818250D01*
X43398072Y-97254000D01*
X43385812Y-97129518D01*
X43349502Y-97009820D01*
X43290537Y-96899506D01*
X43211185Y-96802815D01*
X43114494Y-96723463D01*
X43004180Y-96664498D01*
X42884482Y-96628188D01*
X42760000Y-96615928D01*
X42195750Y-96619000D01*
X42037000Y-96777750D01*
X41783000Y-96777750D01*
X41624250Y-96619000D01*
X41060000Y-96615928D01*
X40935518Y-96628188D01*
X40815820Y-96664498D01*
X40705506Y-96723463D01*
X40608815Y-96802815D01*
X40529463Y-96899506D01*
X40470498Y-97009820D01*
X40434188Y-97129518D01*
X40421928Y-97254000D01*
X39715072Y-97254000D01*
X39702812Y-97129518D01*
X39666502Y-97009820D01*
X39607537Y-96899506D01*
X39528185Y-96802815D01*
X39431494Y-96723463D01*
X39321180Y-96664498D01*
X39201482Y-96628188D01*
X39077000Y-96615928D01*
X38512750Y-96619000D01*
X38354000Y-96777750D01*
X38100000Y-96777750D01*
X37941250Y-96619000D01*
X37481500Y-96616497D01*
X37481500Y-85940501D01*
X51996940Y-100455942D01*
G37*
X51996940Y-100455942D02*
X51815537Y-100531082D01*
X51547748Y-100710013D01*
X51320013Y-100937748D01*
X51141082Y-101205537D01*
X51017832Y-101503088D01*
X50955000Y-101818967D01*
X50955000Y-102141033D01*
X51017832Y-102456912D01*
X51141082Y-102754463D01*
X51320013Y-103022252D01*
X51547748Y-103249987D01*
X51815537Y-103428918D01*
X52113088Y-103552168D01*
X52428967Y-103615000D01*
X52751033Y-103615000D01*
X53066912Y-103552168D01*
X53364463Y-103428918D01*
X53632252Y-103249987D01*
X53859987Y-103022252D01*
X54038918Y-102754463D01*
X54114058Y-102573060D01*
X55890100Y-104349102D01*
X55913899Y-104378101D01*
X55942897Y-104401899D01*
X56029623Y-104473074D01*
X56161653Y-104543646D01*
X56304914Y-104587103D01*
X56416567Y-104598100D01*
X56416577Y-104598100D01*
X56453900Y-104601776D01*
X56491223Y-104598100D01*
X58594203Y-104598100D01*
X58556304Y-104689595D01*
X58505000Y-104947514D01*
X58505000Y-105210486D01*
X58556304Y-105468405D01*
X58656939Y-105711359D01*
X58803038Y-105930013D01*
X58988987Y-106115962D01*
X59207641Y-106262061D01*
X59423550Y-106351494D01*
X59398956Y-106358953D01*
X59161608Y-106469208D01*
X58950330Y-106623649D01*
X58773241Y-106816340D01*
X58637147Y-107039877D01*
X58547278Y-107285670D01*
X58669799Y-107492000D01*
X59713000Y-107492000D01*
X59713000Y-107472000D01*
X59967000Y-107472000D01*
X59967000Y-107492000D01*
X61010201Y-107492000D01*
X61132722Y-107285670D01*
X61042853Y-107039877D01*
X60906759Y-106816340D01*
X60729670Y-106623649D01*
X60518392Y-106469208D01*
X60281044Y-106358953D01*
X60256450Y-106351494D01*
X60472359Y-106262061D01*
X60691013Y-106115962D01*
X60876962Y-105930013D01*
X61023061Y-105711359D01*
X61123696Y-105468405D01*
X61175000Y-105210486D01*
X61175000Y-104947514D01*
X61123696Y-104689595D01*
X61085797Y-104598100D01*
X65344203Y-104598100D01*
X65306304Y-104689595D01*
X65255000Y-104947514D01*
X65255000Y-105210486D01*
X65306304Y-105468405D01*
X65406939Y-105711359D01*
X65553038Y-105930013D01*
X65738987Y-106115962D01*
X65957641Y-106262061D01*
X66173550Y-106351494D01*
X66148956Y-106358953D01*
X65911608Y-106469208D01*
X65700330Y-106623649D01*
X65523241Y-106816340D01*
X65387147Y-107039877D01*
X65297278Y-107285670D01*
X65419799Y-107492000D01*
X66463000Y-107492000D01*
X66463000Y-107472000D01*
X66717000Y-107472000D01*
X66717000Y-107492000D01*
X67760201Y-107492000D01*
X67882722Y-107285670D01*
X67792853Y-107039877D01*
X67656759Y-106816340D01*
X67479670Y-106623649D01*
X67268392Y-106469208D01*
X67031044Y-106358953D01*
X67006450Y-106351494D01*
X67222359Y-106262061D01*
X67441013Y-106115962D01*
X67626962Y-105930013D01*
X67773061Y-105711359D01*
X67873696Y-105468405D01*
X67925000Y-105210486D01*
X67925000Y-104947514D01*
X67873696Y-104689595D01*
X67835797Y-104598100D01*
X72594203Y-104598100D01*
X72556304Y-104689595D01*
X72505000Y-104947514D01*
X72505000Y-105210486D01*
X72556304Y-105468405D01*
X72656939Y-105711359D01*
X72803038Y-105930013D01*
X72988987Y-106115962D01*
X73207641Y-106262061D01*
X73423550Y-106351494D01*
X73398956Y-106358953D01*
X73161608Y-106469208D01*
X72950330Y-106623649D01*
X72773241Y-106816340D01*
X72637147Y-107039877D01*
X72547278Y-107285670D01*
X72669799Y-107492000D01*
X73713000Y-107492000D01*
X73713000Y-107472000D01*
X73967000Y-107472000D01*
X73967000Y-107492000D01*
X75010201Y-107492000D01*
X75132722Y-107285670D01*
X75042853Y-107039877D01*
X74906759Y-106816340D01*
X74729670Y-106623649D01*
X74518392Y-106469208D01*
X74281044Y-106358953D01*
X74256450Y-106351494D01*
X74472359Y-106262061D01*
X74691013Y-106115962D01*
X74876962Y-105930013D01*
X75023061Y-105711359D01*
X75123696Y-105468405D01*
X75175000Y-105210486D01*
X75175000Y-104947514D01*
X75123696Y-104689595D01*
X75085797Y-104598100D01*
X79844203Y-104598100D01*
X79806304Y-104689595D01*
X79755000Y-104947514D01*
X79755000Y-105210486D01*
X79806304Y-105468405D01*
X79906939Y-105711359D01*
X80053038Y-105930013D01*
X80238987Y-106115962D01*
X80457641Y-106262061D01*
X80673550Y-106351494D01*
X80648956Y-106358953D01*
X80411608Y-106469208D01*
X80200330Y-106623649D01*
X80023241Y-106816340D01*
X79887147Y-107039877D01*
X79797278Y-107285670D01*
X79919799Y-107492000D01*
X80963000Y-107492000D01*
X80963000Y-107472000D01*
X81217000Y-107472000D01*
X81217000Y-107492000D01*
X82260201Y-107492000D01*
X82382722Y-107285670D01*
X82292853Y-107039877D01*
X82156759Y-106816340D01*
X81979670Y-106623649D01*
X81768392Y-106469208D01*
X81531044Y-106358953D01*
X81506450Y-106351494D01*
X81722359Y-106262061D01*
X81941013Y-106115962D01*
X82126962Y-105930013D01*
X82273061Y-105711359D01*
X82373696Y-105468405D01*
X82425000Y-105210486D01*
X82425000Y-104947514D01*
X82373696Y-104689595D01*
X82335797Y-104598100D01*
X82906399Y-104598100D01*
X85712801Y-107404503D01*
X85736599Y-107433501D01*
X85765597Y-107457299D01*
X85852323Y-107528474D01*
X85984353Y-107599046D01*
X86127614Y-107642503D01*
X86239267Y-107653500D01*
X86239276Y-107653500D01*
X86276599Y-107657176D01*
X86313922Y-107653500D01*
X93927778Y-107653500D01*
X93965100Y-107657176D01*
X94002422Y-107653500D01*
X94002433Y-107653500D01*
X94114086Y-107642503D01*
X94257347Y-107599046D01*
X94389376Y-107528474D01*
X94505101Y-107433501D01*
X94528903Y-107404498D01*
X95085870Y-106847531D01*
X95302147Y-106992042D01*
X95336095Y-107006104D01*
X94413499Y-107928700D01*
X82368690Y-107928700D01*
X82260201Y-107746000D01*
X81217000Y-107746000D01*
X81217000Y-107766000D01*
X80963000Y-107766000D01*
X80963000Y-107746000D01*
X79919799Y-107746000D01*
X79811310Y-107928700D01*
X75118690Y-107928700D01*
X75010201Y-107746000D01*
X73967000Y-107746000D01*
X73967000Y-107766000D01*
X73713000Y-107766000D01*
X73713000Y-107746000D01*
X72669799Y-107746000D01*
X72561310Y-107928700D01*
X67868690Y-107928700D01*
X67760201Y-107746000D01*
X66717000Y-107746000D01*
X66717000Y-107766000D01*
X66463000Y-107766000D01*
X66463000Y-107746000D01*
X65419799Y-107746000D01*
X65311310Y-107928700D01*
X61118690Y-107928700D01*
X61010201Y-107746000D01*
X59967000Y-107746000D01*
X59967000Y-107766000D01*
X59713000Y-107766000D01*
X59713000Y-107746000D01*
X58669799Y-107746000D01*
X58561310Y-107928700D01*
X53868690Y-107928700D01*
X53760201Y-107746000D01*
X52717000Y-107746000D01*
X52717000Y-107766000D01*
X52463000Y-107766000D01*
X52463000Y-107746000D01*
X51419799Y-107746000D01*
X51311310Y-107928700D01*
X36811203Y-107928700D01*
X33830017Y-104947514D01*
X51255000Y-104947514D01*
X51255000Y-105210486D01*
X51306304Y-105468405D01*
X51406939Y-105711359D01*
X51553038Y-105930013D01*
X51738987Y-106115962D01*
X51957641Y-106262061D01*
X52173550Y-106351494D01*
X52148956Y-106358953D01*
X51911608Y-106469208D01*
X51700330Y-106623649D01*
X51523241Y-106816340D01*
X51387147Y-107039877D01*
X51297278Y-107285670D01*
X51419799Y-107492000D01*
X52463000Y-107492000D01*
X52463000Y-107472000D01*
X52717000Y-107472000D01*
X52717000Y-107492000D01*
X53760201Y-107492000D01*
X53882722Y-107285670D01*
X53792853Y-107039877D01*
X53656759Y-106816340D01*
X53479670Y-106623649D01*
X53268392Y-106469208D01*
X53031044Y-106358953D01*
X53006450Y-106351494D01*
X53222359Y-106262061D01*
X53441013Y-106115962D01*
X53626962Y-105930013D01*
X53773061Y-105711359D01*
X53873696Y-105468405D01*
X53925000Y-105210486D01*
X53925000Y-104947514D01*
X53873696Y-104689595D01*
X53773061Y-104446641D01*
X53626962Y-104227987D01*
X53441013Y-104042038D01*
X53222359Y-103895939D01*
X52979405Y-103795304D01*
X52721486Y-103744000D01*
X52458514Y-103744000D01*
X52200595Y-103795304D01*
X51957641Y-103895939D01*
X51738987Y-104042038D01*
X51553038Y-104227987D01*
X51406939Y-104446641D01*
X51306304Y-104689595D01*
X51255000Y-104947514D01*
X33830017Y-104947514D01*
X30286502Y-101404000D01*
X33291822Y-101404000D01*
X33416525Y-101590632D01*
X33623368Y-101797475D01*
X33797760Y-101914000D01*
X33623368Y-102030525D01*
X33416525Y-102237368D01*
X33254010Y-102480589D01*
X33142068Y-102750842D01*
X33085000Y-103037740D01*
X33085000Y-103330260D01*
X33142068Y-103617158D01*
X33254010Y-103887411D01*
X33416525Y-104130632D01*
X33623368Y-104337475D01*
X33866589Y-104499990D01*
X34136842Y-104611932D01*
X34423740Y-104669000D01*
X34716260Y-104669000D01*
X35003158Y-104611932D01*
X35273411Y-104499990D01*
X35516632Y-104337475D01*
X35723475Y-104130632D01*
X35764656Y-104069000D01*
X35826831Y-104069000D01*
X35870300Y-104073281D01*
X35913769Y-104069000D01*
X35913777Y-104069000D01*
X36043790Y-104056195D01*
X36210613Y-104005589D01*
X36364359Y-103923411D01*
X36398500Y-103895392D01*
X36432641Y-103923411D01*
X36586386Y-104005589D01*
X36706541Y-104042038D01*
X36753210Y-104056195D01*
X36883223Y-104069000D01*
X36883231Y-104069000D01*
X36926700Y-104073281D01*
X36970169Y-104069000D01*
X37032344Y-104069000D01*
X37073525Y-104130632D01*
X37280368Y-104337475D01*
X37523589Y-104499990D01*
X37793842Y-104611932D01*
X38080740Y-104669000D01*
X38373260Y-104669000D01*
X38660158Y-104611932D01*
X38930411Y-104499990D01*
X39173632Y-104337475D01*
X39380475Y-104130632D01*
X39421656Y-104069000D01*
X40715344Y-104069000D01*
X40756525Y-104130632D01*
X40963368Y-104337475D01*
X41206589Y-104499990D01*
X41476842Y-104611932D01*
X41763740Y-104669000D01*
X42056260Y-104669000D01*
X42343158Y-104611932D01*
X42613411Y-104499990D01*
X42856632Y-104337475D01*
X43063475Y-104130632D01*
X43225990Y-103887411D01*
X43337932Y-103617158D01*
X43395000Y-103330260D01*
X43395000Y-103037740D01*
X43337932Y-102750842D01*
X43225990Y-102480589D01*
X43063475Y-102237368D01*
X42856632Y-102030525D01*
X42682240Y-101914000D01*
X42856632Y-101797475D01*
X43063475Y-101590632D01*
X43225990Y-101347411D01*
X43337932Y-101077158D01*
X43395000Y-100790260D01*
X43395000Y-100497740D01*
X43337932Y-100210842D01*
X43225990Y-99940589D01*
X43063475Y-99697368D01*
X42931620Y-99565513D01*
X43004180Y-99543502D01*
X43114494Y-99484537D01*
X43211185Y-99405185D01*
X43290537Y-99308494D01*
X43349502Y-99198180D01*
X43385812Y-99078482D01*
X43398072Y-98954000D01*
X43395000Y-98389750D01*
X43236250Y-98231000D01*
X42037000Y-98231000D01*
X42037000Y-98251000D01*
X41783000Y-98251000D01*
X41783000Y-98231000D01*
X40583750Y-98231000D01*
X40425000Y-98389750D01*
X40421928Y-98954000D01*
X40434188Y-99078482D01*
X40470498Y-99198180D01*
X40529463Y-99308494D01*
X40608815Y-99405185D01*
X40705506Y-99484537D01*
X40815820Y-99543502D01*
X40888380Y-99565513D01*
X40756525Y-99697368D01*
X40594010Y-99940589D01*
X40482068Y-100210842D01*
X40425000Y-100497740D01*
X40425000Y-100790260D01*
X40482068Y-101077158D01*
X40594010Y-101347411D01*
X40756525Y-101590632D01*
X40963368Y-101797475D01*
X41137760Y-101914000D01*
X40963368Y-102030525D01*
X40756525Y-102237368D01*
X40715344Y-102299000D01*
X39421656Y-102299000D01*
X39380475Y-102237368D01*
X39173632Y-102030525D01*
X38999240Y-101914000D01*
X39173632Y-101797475D01*
X39380475Y-101590632D01*
X39542990Y-101347411D01*
X39654932Y-101077158D01*
X39712000Y-100790260D01*
X39712000Y-100497740D01*
X39654932Y-100210842D01*
X39542990Y-99940589D01*
X39380475Y-99697368D01*
X39248620Y-99565513D01*
X39321180Y-99543502D01*
X39431494Y-99484537D01*
X39528185Y-99405185D01*
X39607537Y-99308494D01*
X39666502Y-99198180D01*
X39702812Y-99078482D01*
X39715072Y-98954000D01*
X39712000Y-98389750D01*
X39553250Y-98231000D01*
X38354000Y-98231000D01*
X38354000Y-98251000D01*
X38100000Y-98251000D01*
X38100000Y-98231000D01*
X38080000Y-98231000D01*
X38080000Y-97977000D01*
X38100000Y-97977000D01*
X38100000Y-96777750D01*
X38354000Y-96777750D01*
X38354000Y-97977000D01*
X39553250Y-97977000D01*
X39712000Y-97818250D01*
X39715072Y-97254000D01*
X40421928Y-97254000D01*
X40425000Y-97818250D01*
X40583750Y-97977000D01*
X41783000Y-97977000D01*
X41783000Y-96777750D01*
X42037000Y-96777750D01*
X42037000Y-97977000D01*
X43236250Y-97977000D01*
X43395000Y-97818250D01*
X43398072Y-97254000D01*
X43385812Y-97129518D01*
X43349502Y-97009820D01*
X43290537Y-96899506D01*
X43211185Y-96802815D01*
X43114494Y-96723463D01*
X43004180Y-96664498D01*
X42884482Y-96628188D01*
X42760000Y-96615928D01*
X42195750Y-96619000D01*
X42037000Y-96777750D01*
X41783000Y-96777750D01*
X41624250Y-96619000D01*
X41060000Y-96615928D01*
X40935518Y-96628188D01*
X40815820Y-96664498D01*
X40705506Y-96723463D01*
X40608815Y-96802815D01*
X40529463Y-96899506D01*
X40470498Y-97009820D01*
X40434188Y-97129518D01*
X40421928Y-97254000D01*
X39715072Y-97254000D01*
X39702812Y-97129518D01*
X39666502Y-97009820D01*
X39607537Y-96899506D01*
X39528185Y-96802815D01*
X39431494Y-96723463D01*
X39321180Y-96664498D01*
X39201482Y-96628188D01*
X39077000Y-96615928D01*
X38512750Y-96619000D01*
X38354000Y-96777750D01*
X38100000Y-96777750D01*
X37941250Y-96619000D01*
X37481500Y-96616497D01*
X37481500Y-85940501D01*
X51996940Y-100455942D01*
G36*
X35711501Y-96689792D02*
G01*
X35664180Y-96664498D01*
X35544482Y-96628188D01*
X35420000Y-96615928D01*
X34855750Y-96619000D01*
X34697000Y-96777750D01*
X34697000Y-97977000D01*
X34717000Y-97977000D01*
X34717000Y-98231000D01*
X34697000Y-98231000D01*
X34697000Y-98251000D01*
X34443000Y-98251000D01*
X34443000Y-98231000D01*
X33243750Y-98231000D01*
X33085000Y-98389750D01*
X33081928Y-98954000D01*
X33094188Y-99078482D01*
X33130498Y-99198180D01*
X33189463Y-99308494D01*
X33268815Y-99405185D01*
X33365506Y-99484537D01*
X33475820Y-99543502D01*
X33548380Y-99565513D01*
X33416525Y-99697368D01*
X33291822Y-99884000D01*
X30067702Y-99884000D01*
X27437702Y-97254000D01*
X33081928Y-97254000D01*
X33085000Y-97818250D01*
X33243750Y-97977000D01*
X34443000Y-97977000D01*
X34443000Y-96777750D01*
X34284250Y-96619000D01*
X33720000Y-96615928D01*
X33595518Y-96628188D01*
X33475820Y-96664498D01*
X33365506Y-96723463D01*
X33268815Y-96802815D01*
X33189463Y-96899506D01*
X33130498Y-97009820D01*
X33094188Y-97129518D01*
X33081928Y-97254000D01*
X27437702Y-97254000D01*
X27292704Y-97109003D01*
X27268901Y-97079999D01*
X27153176Y-96985026D01*
X27021147Y-96914454D01*
X26877886Y-96870997D01*
X26839347Y-96867201D01*
X26704039Y-96664698D01*
X26495302Y-96455961D01*
X26336719Y-96350000D01*
X26495302Y-96244039D01*
X26704039Y-96035302D01*
X26868042Y-95789853D01*
X26981010Y-95517125D01*
X27038600Y-95227599D01*
X27038600Y-94932401D01*
X26981010Y-94642875D01*
X26868042Y-94370147D01*
X26704039Y-94124698D01*
X26495302Y-93915961D01*
X26336719Y-93810000D01*
X26495302Y-93704039D01*
X26704039Y-93495302D01*
X26868042Y-93249853D01*
X26981010Y-92977125D01*
X27038600Y-92687599D01*
X27038600Y-92392401D01*
X26981010Y-92102875D01*
X26868042Y-91830147D01*
X26704039Y-91584698D01*
X26495302Y-91375961D01*
X26336719Y-91270000D01*
X26495302Y-91164039D01*
X26704039Y-90955302D01*
X26834535Y-90760000D01*
X31055978Y-90760000D01*
X31093300Y-90763676D01*
X31130622Y-90760000D01*
X31130633Y-90760000D01*
X31242286Y-90749003D01*
X31385547Y-90705546D01*
X31517576Y-90634974D01*
X31633301Y-90540001D01*
X31657104Y-90510997D01*
X35711500Y-86456602D01*
X35711501Y-96689792D01*
G37*
X35711501Y-96689792D02*
X35664180Y-96664498D01*
X35544482Y-96628188D01*
X35420000Y-96615928D01*
X34855750Y-96619000D01*
X34697000Y-96777750D01*
X34697000Y-97977000D01*
X34717000Y-97977000D01*
X34717000Y-98231000D01*
X34697000Y-98231000D01*
X34697000Y-98251000D01*
X34443000Y-98251000D01*
X34443000Y-98231000D01*
X33243750Y-98231000D01*
X33085000Y-98389750D01*
X33081928Y-98954000D01*
X33094188Y-99078482D01*
X33130498Y-99198180D01*
X33189463Y-99308494D01*
X33268815Y-99405185D01*
X33365506Y-99484537D01*
X33475820Y-99543502D01*
X33548380Y-99565513D01*
X33416525Y-99697368D01*
X33291822Y-99884000D01*
X30067702Y-99884000D01*
X27437702Y-97254000D01*
X33081928Y-97254000D01*
X33085000Y-97818250D01*
X33243750Y-97977000D01*
X34443000Y-97977000D01*
X34443000Y-96777750D01*
X34284250Y-96619000D01*
X33720000Y-96615928D01*
X33595518Y-96628188D01*
X33475820Y-96664498D01*
X33365506Y-96723463D01*
X33268815Y-96802815D01*
X33189463Y-96899506D01*
X33130498Y-97009820D01*
X33094188Y-97129518D01*
X33081928Y-97254000D01*
X27437702Y-97254000D01*
X27292704Y-97109003D01*
X27268901Y-97079999D01*
X27153176Y-96985026D01*
X27021147Y-96914454D01*
X26877886Y-96870997D01*
X26839347Y-96867201D01*
X26704039Y-96664698D01*
X26495302Y-96455961D01*
X26336719Y-96350000D01*
X26495302Y-96244039D01*
X26704039Y-96035302D01*
X26868042Y-95789853D01*
X26981010Y-95517125D01*
X27038600Y-95227599D01*
X27038600Y-94932401D01*
X26981010Y-94642875D01*
X26868042Y-94370147D01*
X26704039Y-94124698D01*
X26495302Y-93915961D01*
X26336719Y-93810000D01*
X26495302Y-93704039D01*
X26704039Y-93495302D01*
X26868042Y-93249853D01*
X26981010Y-92977125D01*
X27038600Y-92687599D01*
X27038600Y-92392401D01*
X26981010Y-92102875D01*
X26868042Y-91830147D01*
X26704039Y-91584698D01*
X26495302Y-91375961D01*
X26336719Y-91270000D01*
X26495302Y-91164039D01*
X26704039Y-90955302D01*
X26834535Y-90760000D01*
X31055978Y-90760000D01*
X31093300Y-90763676D01*
X31130622Y-90760000D01*
X31130633Y-90760000D01*
X31242286Y-90749003D01*
X31385547Y-90705546D01*
X31517576Y-90634974D01*
X31633301Y-90540001D01*
X31657104Y-90510997D01*
X35711500Y-86456602D01*
X35711501Y-96689792D01*
G36*
X76586096Y-82962961D02*
G01*
X76708085Y-83185000D01*
X77851000Y-83185000D01*
X77851000Y-83165000D01*
X78105000Y-83165000D01*
X78105000Y-83185000D01*
X79247915Y-83185000D01*
X79369904Y-82962961D01*
X79354265Y-82911400D01*
X79832099Y-82911400D01*
X84011305Y-87090608D01*
X84035099Y-87119601D01*
X84040459Y-87124000D01*
X71623396Y-87124000D01*
X71726637Y-87020759D01*
X71883680Y-86785727D01*
X71991853Y-86524574D01*
X72047000Y-86247335D01*
X72047000Y-85964665D01*
X71991853Y-85687426D01*
X71883680Y-85426273D01*
X71726637Y-85191241D01*
X71526759Y-84991363D01*
X71294241Y-84836000D01*
X71526759Y-84680637D01*
X71726637Y-84480759D01*
X71883680Y-84245727D01*
X71991853Y-83984574D01*
X72047000Y-83707335D01*
X72047000Y-83661039D01*
X76586096Y-83661039D01*
X76626754Y-83795087D01*
X76746963Y-84049420D01*
X76914481Y-84275414D01*
X77122869Y-84464385D01*
X77364119Y-84609070D01*
X77628960Y-84703909D01*
X77851000Y-84582624D01*
X77851000Y-83439000D01*
X78105000Y-83439000D01*
X78105000Y-84582624D01*
X78327040Y-84703909D01*
X78591881Y-84609070D01*
X78833131Y-84464385D01*
X79041519Y-84275414D01*
X79209037Y-84049420D01*
X79329246Y-83795087D01*
X79369904Y-83661039D01*
X79247915Y-83439000D01*
X78105000Y-83439000D01*
X77851000Y-83439000D01*
X76708085Y-83439000D01*
X76586096Y-83661039D01*
X72047000Y-83661039D01*
X72047000Y-83424665D01*
X71991853Y-83147426D01*
X71894088Y-82911400D01*
X76601735Y-82911400D01*
X76586096Y-82962961D01*
G37*
X76586096Y-82962961D02*
X76708085Y-83185000D01*
X77851000Y-83185000D01*
X77851000Y-83165000D01*
X78105000Y-83165000D01*
X78105000Y-83185000D01*
X79247915Y-83185000D01*
X79369904Y-82962961D01*
X79354265Y-82911400D01*
X79832099Y-82911400D01*
X84011305Y-87090608D01*
X84035099Y-87119601D01*
X84040459Y-87124000D01*
X71623396Y-87124000D01*
X71726637Y-87020759D01*
X71883680Y-86785727D01*
X71991853Y-86524574D01*
X72047000Y-86247335D01*
X72047000Y-85964665D01*
X71991853Y-85687426D01*
X71883680Y-85426273D01*
X71726637Y-85191241D01*
X71526759Y-84991363D01*
X71294241Y-84836000D01*
X71526759Y-84680637D01*
X71726637Y-84480759D01*
X71883680Y-84245727D01*
X71991853Y-83984574D01*
X72047000Y-83707335D01*
X72047000Y-83661039D01*
X76586096Y-83661039D01*
X76626754Y-83795087D01*
X76746963Y-84049420D01*
X76914481Y-84275414D01*
X77122869Y-84464385D01*
X77364119Y-84609070D01*
X77628960Y-84703909D01*
X77851000Y-84582624D01*
X77851000Y-83439000D01*
X78105000Y-83439000D01*
X78105000Y-84582624D01*
X78327040Y-84703909D01*
X78591881Y-84609070D01*
X78833131Y-84464385D01*
X79041519Y-84275414D01*
X79209037Y-84049420D01*
X79329246Y-83795087D01*
X79369904Y-83661039D01*
X79247915Y-83439000D01*
X78105000Y-83439000D01*
X77851000Y-83439000D01*
X76708085Y-83439000D01*
X76586096Y-83661039D01*
X72047000Y-83661039D01*
X72047000Y-83424665D01*
X71991853Y-83147426D01*
X71894088Y-82911400D01*
X76601735Y-82911400D01*
X76586096Y-82962961D01*
G36*
X69497363Y-84480759D02*
G01*
X69697241Y-84680637D01*
X69929759Y-84836000D01*
X69697241Y-84991363D01*
X69497363Y-85191241D01*
X69340320Y-85426273D01*
X69232147Y-85687426D01*
X69177000Y-85964665D01*
X69177000Y-86247335D01*
X69232147Y-86524574D01*
X69340320Y-86785727D01*
X69497363Y-87020759D01*
X69600604Y-87124000D01*
X63995324Y-87124000D01*
X64055519Y-87069414D01*
X64223037Y-86843420D01*
X64343246Y-86589087D01*
X64383904Y-86455039D01*
X64261915Y-86233000D01*
X63119000Y-86233000D01*
X63119000Y-86253000D01*
X62865000Y-86253000D01*
X62865000Y-86233000D01*
X62845000Y-86233000D01*
X62845000Y-85979000D01*
X62865000Y-85979000D01*
X62865000Y-85959000D01*
X63119000Y-85959000D01*
X63119000Y-85979000D01*
X64261915Y-85979000D01*
X64383904Y-85756961D01*
X64343246Y-85622913D01*
X64223037Y-85368580D01*
X64139944Y-85256482D01*
X64161001Y-85239201D01*
X64184804Y-85210198D01*
X65069002Y-84326000D01*
X69393957Y-84326000D01*
X69497363Y-84480759D01*
G37*
X69497363Y-84480759D02*
X69697241Y-84680637D01*
X69929759Y-84836000D01*
X69697241Y-84991363D01*
X69497363Y-85191241D01*
X69340320Y-85426273D01*
X69232147Y-85687426D01*
X69177000Y-85964665D01*
X69177000Y-86247335D01*
X69232147Y-86524574D01*
X69340320Y-86785727D01*
X69497363Y-87020759D01*
X69600604Y-87124000D01*
X63995324Y-87124000D01*
X64055519Y-87069414D01*
X64223037Y-86843420D01*
X64343246Y-86589087D01*
X64383904Y-86455039D01*
X64261915Y-86233000D01*
X63119000Y-86233000D01*
X63119000Y-86253000D01*
X62865000Y-86253000D01*
X62865000Y-86233000D01*
X62845000Y-86233000D01*
X62845000Y-85979000D01*
X62865000Y-85979000D01*
X62865000Y-85959000D01*
X63119000Y-85959000D01*
X63119000Y-85979000D01*
X64261915Y-85979000D01*
X64383904Y-85756961D01*
X64343246Y-85622913D01*
X64223037Y-85368580D01*
X64139944Y-85256482D01*
X64161001Y-85239201D01*
X64184804Y-85210198D01*
X65069002Y-84326000D01*
X69393957Y-84326000D01*
X69497363Y-84480759D01*
G36*
X99437100Y-62199202D02*
G01*
X99460899Y-62228201D01*
X99489897Y-62251999D01*
X99576623Y-62323174D01*
X99708653Y-62393746D01*
X99784145Y-62416646D01*
X104575682Y-67208184D01*
X104038400Y-67205328D01*
X103913918Y-67217588D01*
X103794220Y-67253898D01*
X103683906Y-67312863D01*
X103587215Y-67392215D01*
X103507863Y-67488906D01*
X103448898Y-67599220D01*
X103412588Y-67718918D01*
X103400328Y-67843400D01*
X103403400Y-68421250D01*
X103562150Y-68580000D01*
X104775000Y-68580000D01*
X104775000Y-68560000D01*
X105029000Y-68560000D01*
X105029000Y-68580000D01*
X105049000Y-68580000D01*
X105049000Y-68834000D01*
X105029000Y-68834000D01*
X105029000Y-71120000D01*
X105049000Y-71120000D01*
X105049000Y-71374000D01*
X105029000Y-71374000D01*
X105029000Y-73660000D01*
X105049000Y-73660000D01*
X105049000Y-73914000D01*
X105029000Y-73914000D01*
X105029000Y-73934000D01*
X104775000Y-73934000D01*
X104775000Y-73914000D01*
X103568183Y-73914000D01*
X103447042Y-74146026D01*
X103492778Y-74296814D01*
X103619316Y-74561944D01*
X103795146Y-74797293D01*
X104013512Y-74993817D01*
X104112103Y-75052441D01*
X103946698Y-75162961D01*
X103737961Y-75371698D01*
X103573958Y-75617147D01*
X103460990Y-75889875D01*
X103403400Y-76179401D01*
X103403400Y-76474599D01*
X103460990Y-76764125D01*
X103573958Y-77036853D01*
X103737961Y-77282302D01*
X103946698Y-77491039D01*
X104105281Y-77597000D01*
X103946698Y-77702961D01*
X103737961Y-77911698D01*
X103602653Y-78114201D01*
X103564114Y-78117997D01*
X103420853Y-78161454D01*
X103288824Y-78232026D01*
X103173099Y-78326999D01*
X103149301Y-78355997D01*
X100650199Y-80855100D01*
X97389231Y-80855100D01*
X97453010Y-80701125D01*
X97510600Y-80411599D01*
X97510600Y-80116401D01*
X97453010Y-79826875D01*
X97340042Y-79554147D01*
X97176039Y-79308698D01*
X96967302Y-79099961D01*
X96808719Y-78994000D01*
X96967302Y-78888039D01*
X97176039Y-78679302D01*
X97340042Y-78433853D01*
X97453010Y-78161125D01*
X97510600Y-77871599D01*
X97510600Y-77576401D01*
X97453010Y-77286875D01*
X97340042Y-77014147D01*
X97176039Y-76768698D01*
X96967302Y-76559961D01*
X96808719Y-76454000D01*
X96967302Y-76348039D01*
X97176039Y-76139302D01*
X97340042Y-75893853D01*
X97453010Y-75621125D01*
X97510600Y-75331599D01*
X97510600Y-75036401D01*
X97453010Y-74746875D01*
X97340042Y-74474147D01*
X97176039Y-74228698D01*
X96967302Y-74019961D01*
X96808719Y-73914000D01*
X96967302Y-73808039D01*
X97176039Y-73599302D01*
X97340042Y-73353853D01*
X97453010Y-73081125D01*
X97510600Y-72791599D01*
X97510600Y-72496401D01*
X97453010Y-72206875D01*
X97340042Y-71934147D01*
X97176039Y-71688698D01*
X97093367Y-71606026D01*
X103447042Y-71606026D01*
X103492778Y-71756814D01*
X103619316Y-72021944D01*
X103795146Y-72257293D01*
X104013512Y-72453817D01*
X104119770Y-72517000D01*
X104013512Y-72580183D01*
X103795146Y-72776707D01*
X103619316Y-73012056D01*
X103492778Y-73277186D01*
X103447042Y-73427974D01*
X103568183Y-73660000D01*
X104775000Y-73660000D01*
X104775000Y-71374000D01*
X103568183Y-71374000D01*
X103447042Y-71606026D01*
X97093367Y-71606026D01*
X96967302Y-71479961D01*
X96808719Y-71374000D01*
X96967302Y-71268039D01*
X97176039Y-71059302D01*
X97340042Y-70813853D01*
X97453010Y-70541125D01*
X97510600Y-70251599D01*
X97510600Y-69956401D01*
X97453010Y-69666875D01*
X97413132Y-69570600D01*
X103400328Y-69570600D01*
X103412588Y-69695082D01*
X103448898Y-69814780D01*
X103507863Y-69925094D01*
X103587215Y-70021785D01*
X103683906Y-70101137D01*
X103794220Y-70160102D01*
X103858574Y-70179624D01*
X103795146Y-70236707D01*
X103619316Y-70472056D01*
X103492778Y-70737186D01*
X103447042Y-70887974D01*
X103568183Y-71120000D01*
X104775000Y-71120000D01*
X104775000Y-68834000D01*
X103562150Y-68834000D01*
X103403400Y-68992750D01*
X103400328Y-69570600D01*
X97413132Y-69570600D01*
X97340042Y-69394147D01*
X97176039Y-69148698D01*
X96967302Y-68939961D01*
X96808719Y-68834000D01*
X96967302Y-68728039D01*
X97176039Y-68519302D01*
X97340042Y-68273853D01*
X97453010Y-68001125D01*
X97510600Y-67711599D01*
X97510600Y-67416401D01*
X97453010Y-67126875D01*
X97340042Y-66854147D01*
X97176039Y-66608698D01*
X96967302Y-66399961D01*
X96801897Y-66289441D01*
X96900488Y-66230817D01*
X97118854Y-66034293D01*
X97294684Y-65798944D01*
X97421222Y-65533814D01*
X97466958Y-65383026D01*
X97345817Y-65151000D01*
X96139000Y-65151000D01*
X96139000Y-65171000D01*
X95885000Y-65171000D01*
X95885000Y-65151000D01*
X93599000Y-65151000D01*
X93599000Y-65171000D01*
X93345000Y-65171000D01*
X93345000Y-65151000D01*
X93325000Y-65151000D01*
X93325000Y-64897000D01*
X93345000Y-64897000D01*
X93345000Y-64877000D01*
X93599000Y-64877000D01*
X93599000Y-64897000D01*
X95885000Y-64897000D01*
X95885000Y-64877000D01*
X96139000Y-64877000D01*
X96139000Y-64897000D01*
X97345817Y-64897000D01*
X97466958Y-64664974D01*
X97421222Y-64514186D01*
X97294684Y-64249056D01*
X97118854Y-64013707D01*
X96900488Y-63817183D01*
X96801897Y-63758559D01*
X96967302Y-63648039D01*
X97176039Y-63439302D01*
X97340042Y-63193853D01*
X97453010Y-62921125D01*
X97510600Y-62631599D01*
X97510600Y-62336401D01*
X97453010Y-62046875D01*
X97340042Y-61774147D01*
X97176039Y-61528698D01*
X96967302Y-61319961D01*
X96808719Y-61214000D01*
X96967302Y-61108039D01*
X97176039Y-60899302D01*
X97306535Y-60704000D01*
X97941899Y-60704000D01*
X99437100Y-62199202D01*
G37*
X99437100Y-62199202D02*
X99460899Y-62228201D01*
X99489897Y-62251999D01*
X99576623Y-62323174D01*
X99708653Y-62393746D01*
X99784145Y-62416646D01*
X104575682Y-67208184D01*
X104038400Y-67205328D01*
X103913918Y-67217588D01*
X103794220Y-67253898D01*
X103683906Y-67312863D01*
X103587215Y-67392215D01*
X103507863Y-67488906D01*
X103448898Y-67599220D01*
X103412588Y-67718918D01*
X103400328Y-67843400D01*
X103403400Y-68421250D01*
X103562150Y-68580000D01*
X104775000Y-68580000D01*
X104775000Y-68560000D01*
X105029000Y-68560000D01*
X105029000Y-68580000D01*
X105049000Y-68580000D01*
X105049000Y-68834000D01*
X105029000Y-68834000D01*
X105029000Y-71120000D01*
X105049000Y-71120000D01*
X105049000Y-71374000D01*
X105029000Y-71374000D01*
X105029000Y-73660000D01*
X105049000Y-73660000D01*
X105049000Y-73914000D01*
X105029000Y-73914000D01*
X105029000Y-73934000D01*
X104775000Y-73934000D01*
X104775000Y-73914000D01*
X103568183Y-73914000D01*
X103447042Y-74146026D01*
X103492778Y-74296814D01*
X103619316Y-74561944D01*
X103795146Y-74797293D01*
X104013512Y-74993817D01*
X104112103Y-75052441D01*
X103946698Y-75162961D01*
X103737961Y-75371698D01*
X103573958Y-75617147D01*
X103460990Y-75889875D01*
X103403400Y-76179401D01*
X103403400Y-76474599D01*
X103460990Y-76764125D01*
X103573958Y-77036853D01*
X103737961Y-77282302D01*
X103946698Y-77491039D01*
X104105281Y-77597000D01*
X103946698Y-77702961D01*
X103737961Y-77911698D01*
X103602653Y-78114201D01*
X103564114Y-78117997D01*
X103420853Y-78161454D01*
X103288824Y-78232026D01*
X103173099Y-78326999D01*
X103149301Y-78355997D01*
X100650199Y-80855100D01*
X97389231Y-80855100D01*
X97453010Y-80701125D01*
X97510600Y-80411599D01*
X97510600Y-80116401D01*
X97453010Y-79826875D01*
X97340042Y-79554147D01*
X97176039Y-79308698D01*
X96967302Y-79099961D01*
X96808719Y-78994000D01*
X96967302Y-78888039D01*
X97176039Y-78679302D01*
X97340042Y-78433853D01*
X97453010Y-78161125D01*
X97510600Y-77871599D01*
X97510600Y-77576401D01*
X97453010Y-77286875D01*
X97340042Y-77014147D01*
X97176039Y-76768698D01*
X96967302Y-76559961D01*
X96808719Y-76454000D01*
X96967302Y-76348039D01*
X97176039Y-76139302D01*
X97340042Y-75893853D01*
X97453010Y-75621125D01*
X97510600Y-75331599D01*
X97510600Y-75036401D01*
X97453010Y-74746875D01*
X97340042Y-74474147D01*
X97176039Y-74228698D01*
X96967302Y-74019961D01*
X96808719Y-73914000D01*
X96967302Y-73808039D01*
X97176039Y-73599302D01*
X97340042Y-73353853D01*
X97453010Y-73081125D01*
X97510600Y-72791599D01*
X97510600Y-72496401D01*
X97453010Y-72206875D01*
X97340042Y-71934147D01*
X97176039Y-71688698D01*
X97093367Y-71606026D01*
X103447042Y-71606026D01*
X103492778Y-71756814D01*
X103619316Y-72021944D01*
X103795146Y-72257293D01*
X104013512Y-72453817D01*
X104119770Y-72517000D01*
X104013512Y-72580183D01*
X103795146Y-72776707D01*
X103619316Y-73012056D01*
X103492778Y-73277186D01*
X103447042Y-73427974D01*
X103568183Y-73660000D01*
X104775000Y-73660000D01*
X104775000Y-71374000D01*
X103568183Y-71374000D01*
X103447042Y-71606026D01*
X97093367Y-71606026D01*
X96967302Y-71479961D01*
X96808719Y-71374000D01*
X96967302Y-71268039D01*
X97176039Y-71059302D01*
X97340042Y-70813853D01*
X97453010Y-70541125D01*
X97510600Y-70251599D01*
X97510600Y-69956401D01*
X97453010Y-69666875D01*
X97413132Y-69570600D01*
X103400328Y-69570600D01*
X103412588Y-69695082D01*
X103448898Y-69814780D01*
X103507863Y-69925094D01*
X103587215Y-70021785D01*
X103683906Y-70101137D01*
X103794220Y-70160102D01*
X103858574Y-70179624D01*
X103795146Y-70236707D01*
X103619316Y-70472056D01*
X103492778Y-70737186D01*
X103447042Y-70887974D01*
X103568183Y-71120000D01*
X104775000Y-71120000D01*
X104775000Y-68834000D01*
X103562150Y-68834000D01*
X103403400Y-68992750D01*
X103400328Y-69570600D01*
X97413132Y-69570600D01*
X97340042Y-69394147D01*
X97176039Y-69148698D01*
X96967302Y-68939961D01*
X96808719Y-68834000D01*
X96967302Y-68728039D01*
X97176039Y-68519302D01*
X97340042Y-68273853D01*
X97453010Y-68001125D01*
X97510600Y-67711599D01*
X97510600Y-67416401D01*
X97453010Y-67126875D01*
X97340042Y-66854147D01*
X97176039Y-66608698D01*
X96967302Y-66399961D01*
X96801897Y-66289441D01*
X96900488Y-66230817D01*
X97118854Y-66034293D01*
X97294684Y-65798944D01*
X97421222Y-65533814D01*
X97466958Y-65383026D01*
X97345817Y-65151000D01*
X96139000Y-65151000D01*
X96139000Y-65171000D01*
X95885000Y-65171000D01*
X95885000Y-65151000D01*
X93599000Y-65151000D01*
X93599000Y-65171000D01*
X93345000Y-65171000D01*
X93345000Y-65151000D01*
X93325000Y-65151000D01*
X93325000Y-64897000D01*
X93345000Y-64897000D01*
X93345000Y-64877000D01*
X93599000Y-64877000D01*
X93599000Y-64897000D01*
X95885000Y-64897000D01*
X95885000Y-64877000D01*
X96139000Y-64877000D01*
X96139000Y-64897000D01*
X97345817Y-64897000D01*
X97466958Y-64664974D01*
X97421222Y-64514186D01*
X97294684Y-64249056D01*
X97118854Y-64013707D01*
X96900488Y-63817183D01*
X96801897Y-63758559D01*
X96967302Y-63648039D01*
X97176039Y-63439302D01*
X97340042Y-63193853D01*
X97453010Y-62921125D01*
X97510600Y-62631599D01*
X97510600Y-62336401D01*
X97453010Y-62046875D01*
X97340042Y-61774147D01*
X97176039Y-61528698D01*
X96967302Y-61319961D01*
X96808719Y-61214000D01*
X96967302Y-61108039D01*
X97176039Y-60899302D01*
X97306535Y-60704000D01*
X97941899Y-60704000D01*
X99437100Y-62199202D01*
G36*
X23127000Y-77173000D02*
G01*
X23147000Y-77173000D01*
X23147000Y-77427000D01*
X23127000Y-77427000D01*
X23127000Y-77447000D01*
X22873000Y-77447000D01*
X22873000Y-77427000D01*
X22853000Y-77427000D01*
X22853000Y-77173000D01*
X22873000Y-77173000D01*
X22873000Y-77153000D01*
X23127000Y-77153000D01*
X23127000Y-77173000D01*
G37*
X23127000Y-77173000D02*
X23147000Y-77173000D01*
X23147000Y-77427000D01*
X23127000Y-77427000D01*
X23127000Y-77447000D01*
X22873000Y-77447000D01*
X22873000Y-77427000D01*
X22853000Y-77427000D01*
X22853000Y-77173000D01*
X22873000Y-77173000D01*
X22873000Y-77153000D01*
X23127000Y-77153000D01*
X23127000Y-77173000D01*
G36*
X35219000Y-72493000D02*
G01*
X35239000Y-72493000D01*
X35239000Y-72747000D01*
X35219000Y-72747000D01*
X35219000Y-72767000D01*
X34965000Y-72767000D01*
X34965000Y-72747000D01*
X34945000Y-72747000D01*
X34945000Y-72493000D01*
X34965000Y-72493000D01*
X34965000Y-72473000D01*
X35219000Y-72473000D01*
X35219000Y-72493000D01*
G37*
X35219000Y-72493000D02*
X35239000Y-72493000D01*
X35239000Y-72747000D01*
X35219000Y-72747000D01*
X35219000Y-72767000D01*
X34965000Y-72767000D01*
X34965000Y-72747000D01*
X34945000Y-72747000D01*
X34945000Y-72493000D01*
X34965000Y-72493000D01*
X34965000Y-72473000D01*
X35219000Y-72473000D01*
X35219000Y-72493000D01*
G36*
X103266701Y-61686703D02*
G01*
X103290499Y-61715701D01*
X103406224Y-61810674D01*
X103538253Y-61881246D01*
X103681514Y-61924703D01*
X103793167Y-61935700D01*
X103793176Y-61935700D01*
X103830499Y-61939376D01*
X103867822Y-61935700D01*
X107871000Y-61935700D01*
X107871001Y-67276797D01*
X107801027Y-67252037D01*
X107569000Y-67372536D01*
X107569000Y-68580000D01*
X107589000Y-68580000D01*
X107589000Y-68834000D01*
X107569000Y-68834000D01*
X107569000Y-68854000D01*
X107315000Y-68854000D01*
X107315000Y-68834000D01*
X107295000Y-68834000D01*
X107295000Y-68580000D01*
X107315000Y-68580000D01*
X107315000Y-67372536D01*
X107082973Y-67252037D01*
X106814075Y-67347186D01*
X106774274Y-67272724D01*
X106755334Y-67249646D01*
X106703099Y-67185996D01*
X106703095Y-67185992D01*
X106679301Y-67156999D01*
X106650309Y-67133206D01*
X101119071Y-61601970D01*
X101218505Y-61453156D01*
X101296526Y-61264798D01*
X101336300Y-61064839D01*
X101336300Y-60860961D01*
X101296526Y-60661002D01*
X101218505Y-60472644D01*
X101105237Y-60303126D01*
X100961074Y-60158963D01*
X100791556Y-60045695D01*
X100603198Y-59967674D01*
X100403239Y-59927900D01*
X100341102Y-59927900D01*
X98657204Y-58244003D01*
X98633401Y-58214999D01*
X98517676Y-58120026D01*
X98385647Y-58049454D01*
X98242386Y-58005997D01*
X98130733Y-57995000D01*
X98130722Y-57995000D01*
X98093400Y-57991324D01*
X98056078Y-57995000D01*
X97389273Y-57995000D01*
X97453010Y-57841125D01*
X97510600Y-57551599D01*
X97510600Y-57256401D01*
X97453010Y-56966875D01*
X97340042Y-56694147D01*
X97176039Y-56448698D01*
X96967302Y-56239961D01*
X96808719Y-56134000D01*
X96967302Y-56028039D01*
X97176039Y-55819302D01*
X97265465Y-55685466D01*
X103266701Y-61686703D01*
G37*
X103266701Y-61686703D02*
X103290499Y-61715701D01*
X103406224Y-61810674D01*
X103538253Y-61881246D01*
X103681514Y-61924703D01*
X103793167Y-61935700D01*
X103793176Y-61935700D01*
X103830499Y-61939376D01*
X103867822Y-61935700D01*
X107871000Y-61935700D01*
X107871001Y-67276797D01*
X107801027Y-67252037D01*
X107569000Y-67372536D01*
X107569000Y-68580000D01*
X107589000Y-68580000D01*
X107589000Y-68834000D01*
X107569000Y-68834000D01*
X107569000Y-68854000D01*
X107315000Y-68854000D01*
X107315000Y-68834000D01*
X107295000Y-68834000D01*
X107295000Y-68580000D01*
X107315000Y-68580000D01*
X107315000Y-67372536D01*
X107082973Y-67252037D01*
X106814075Y-67347186D01*
X106774274Y-67272724D01*
X106755334Y-67249646D01*
X106703099Y-67185996D01*
X106703095Y-67185992D01*
X106679301Y-67156999D01*
X106650309Y-67133206D01*
X101119071Y-61601970D01*
X101218505Y-61453156D01*
X101296526Y-61264798D01*
X101336300Y-61064839D01*
X101336300Y-60860961D01*
X101296526Y-60661002D01*
X101218505Y-60472644D01*
X101105237Y-60303126D01*
X100961074Y-60158963D01*
X100791556Y-60045695D01*
X100603198Y-59967674D01*
X100403239Y-59927900D01*
X100341102Y-59927900D01*
X98657204Y-58244003D01*
X98633401Y-58214999D01*
X98517676Y-58120026D01*
X98385647Y-58049454D01*
X98242386Y-58005997D01*
X98130733Y-57995000D01*
X98130722Y-57995000D01*
X98093400Y-57991324D01*
X98056078Y-57995000D01*
X97389273Y-57995000D01*
X97453010Y-57841125D01*
X97510600Y-57551599D01*
X97510600Y-57256401D01*
X97453010Y-56966875D01*
X97340042Y-56694147D01*
X97176039Y-56448698D01*
X96967302Y-56239961D01*
X96808719Y-56134000D01*
X96967302Y-56028039D01*
X97176039Y-55819302D01*
X97265465Y-55685466D01*
X103266701Y-61686703D01*
G36*
X92062778Y-46734186D02*
G01*
X92017042Y-46884974D01*
X92138183Y-47117000D01*
X93345000Y-47117000D01*
X93345000Y-47097000D01*
X93599000Y-47097000D01*
X93599000Y-47117000D01*
X93619000Y-47117000D01*
X93619000Y-47371000D01*
X93599000Y-47371000D01*
X93599000Y-47391000D01*
X93345000Y-47391000D01*
X93345000Y-47371000D01*
X92138183Y-47371000D01*
X92017042Y-47603026D01*
X92062778Y-47753814D01*
X92189316Y-48018944D01*
X92365146Y-48254293D01*
X92583512Y-48450817D01*
X92682103Y-48509441D01*
X92516698Y-48619961D01*
X92307961Y-48828698D01*
X92172653Y-49031201D01*
X92134114Y-49034997D01*
X92025402Y-49067974D01*
X91990853Y-49078454D01*
X91858823Y-49149026D01*
X91800762Y-49196676D01*
X91743099Y-49243999D01*
X91719301Y-49272997D01*
X83156299Y-57836000D01*
X75044132Y-57836000D01*
X75048072Y-57796000D01*
X75048072Y-57296000D01*
X75045664Y-57271550D01*
X75045664Y-57246991D01*
X75033404Y-57122510D01*
X75014282Y-57026377D01*
X74977973Y-56906681D01*
X74940464Y-56816125D01*
X74881498Y-56705808D01*
X74827042Y-56624309D01*
X74747690Y-56527618D01*
X74678382Y-56458310D01*
X74581691Y-56378958D01*
X74500192Y-56324502D01*
X74420000Y-56281638D01*
X74420000Y-53288043D01*
X74574759Y-53184637D01*
X74774637Y-52984759D01*
X74808238Y-52934471D01*
X74857267Y-52939300D01*
X74894600Y-52942977D01*
X74931933Y-52939300D01*
X79641773Y-52939300D01*
X79650828Y-52969151D01*
X79732895Y-53122687D01*
X79843338Y-53257262D01*
X79977913Y-53367705D01*
X80131449Y-53449772D01*
X80298045Y-53500308D01*
X80471299Y-53517372D01*
X81121301Y-53517372D01*
X81294555Y-53500308D01*
X81461151Y-53449772D01*
X81614687Y-53367705D01*
X81749262Y-53257262D01*
X81754642Y-53250706D01*
X81820115Y-53330485D01*
X81916806Y-53409837D01*
X82027120Y-53468802D01*
X82146818Y-53505112D01*
X82271300Y-53517372D01*
X82560550Y-53514300D01*
X82719300Y-53355550D01*
X82719300Y-52306300D01*
X82973300Y-52306300D01*
X82973300Y-53355550D01*
X83132050Y-53514300D01*
X83421300Y-53517372D01*
X83545782Y-53505112D01*
X83665480Y-53468802D01*
X83775794Y-53409837D01*
X83872485Y-53330485D01*
X83951837Y-53233794D01*
X84010802Y-53123480D01*
X84047112Y-53003782D01*
X84059372Y-52879300D01*
X84056300Y-52465050D01*
X83897550Y-52306300D01*
X82973300Y-52306300D01*
X82719300Y-52306300D01*
X82699300Y-52306300D01*
X82699300Y-52052300D01*
X82719300Y-52052300D01*
X82719300Y-51003050D01*
X82645550Y-50929300D01*
X82719300Y-50855550D01*
X82719300Y-49806300D01*
X82973300Y-49806300D01*
X82973300Y-50855550D01*
X83047050Y-50929300D01*
X82973300Y-51003050D01*
X82973300Y-52052300D01*
X83897550Y-52052300D01*
X84056300Y-51893550D01*
X84059372Y-51479300D01*
X84047112Y-51354818D01*
X84010802Y-51235120D01*
X83951837Y-51124806D01*
X83872485Y-51028115D01*
X83775794Y-50948763D01*
X83739382Y-50929300D01*
X83775794Y-50909837D01*
X83872485Y-50830485D01*
X83951837Y-50733794D01*
X84010802Y-50623480D01*
X84047112Y-50503782D01*
X84059372Y-50379300D01*
X84056300Y-49965050D01*
X83897550Y-49806300D01*
X82973300Y-49806300D01*
X82719300Y-49806300D01*
X82699300Y-49806300D01*
X82699300Y-49552300D01*
X82719300Y-49552300D01*
X82719300Y-48503050D01*
X82645550Y-48429300D01*
X82719300Y-48355550D01*
X82719300Y-47306300D01*
X82973300Y-47306300D01*
X82973300Y-48355550D01*
X83047050Y-48429300D01*
X82973300Y-48503050D01*
X82973300Y-49552300D01*
X83897550Y-49552300D01*
X84056300Y-49393550D01*
X84059372Y-48979300D01*
X84047112Y-48854818D01*
X84010802Y-48735120D01*
X83951837Y-48624806D01*
X83872485Y-48528115D01*
X83775794Y-48448763D01*
X83739382Y-48429300D01*
X83775794Y-48409837D01*
X83872485Y-48330485D01*
X83951837Y-48233794D01*
X84010802Y-48123480D01*
X84047112Y-48003782D01*
X84059372Y-47879300D01*
X84056300Y-47465050D01*
X83897550Y-47306300D01*
X82973300Y-47306300D01*
X82719300Y-47306300D01*
X82699300Y-47306300D01*
X82699300Y-47052300D01*
X82719300Y-47052300D01*
X82719300Y-47032300D01*
X82973300Y-47032300D01*
X82973300Y-47052300D01*
X83897550Y-47052300D01*
X84056300Y-46893550D01*
X84058084Y-46653000D01*
X92101525Y-46653000D01*
X92062778Y-46734186D01*
G37*
X92062778Y-46734186D02*
X92017042Y-46884974D01*
X92138183Y-47117000D01*
X93345000Y-47117000D01*
X93345000Y-47097000D01*
X93599000Y-47097000D01*
X93599000Y-47117000D01*
X93619000Y-47117000D01*
X93619000Y-47371000D01*
X93599000Y-47371000D01*
X93599000Y-47391000D01*
X93345000Y-47391000D01*
X93345000Y-47371000D01*
X92138183Y-47371000D01*
X92017042Y-47603026D01*
X92062778Y-47753814D01*
X92189316Y-48018944D01*
X92365146Y-48254293D01*
X92583512Y-48450817D01*
X92682103Y-48509441D01*
X92516698Y-48619961D01*
X92307961Y-48828698D01*
X92172653Y-49031201D01*
X92134114Y-49034997D01*
X92025402Y-49067974D01*
X91990853Y-49078454D01*
X91858823Y-49149026D01*
X91800762Y-49196676D01*
X91743099Y-49243999D01*
X91719301Y-49272997D01*
X83156299Y-57836000D01*
X75044132Y-57836000D01*
X75048072Y-57796000D01*
X75048072Y-57296000D01*
X75045664Y-57271550D01*
X75045664Y-57246991D01*
X75033404Y-57122510D01*
X75014282Y-57026377D01*
X74977973Y-56906681D01*
X74940464Y-56816125D01*
X74881498Y-56705808D01*
X74827042Y-56624309D01*
X74747690Y-56527618D01*
X74678382Y-56458310D01*
X74581691Y-56378958D01*
X74500192Y-56324502D01*
X74420000Y-56281638D01*
X74420000Y-53288043D01*
X74574759Y-53184637D01*
X74774637Y-52984759D01*
X74808238Y-52934471D01*
X74857267Y-52939300D01*
X74894600Y-52942977D01*
X74931933Y-52939300D01*
X79641773Y-52939300D01*
X79650828Y-52969151D01*
X79732895Y-53122687D01*
X79843338Y-53257262D01*
X79977913Y-53367705D01*
X80131449Y-53449772D01*
X80298045Y-53500308D01*
X80471299Y-53517372D01*
X81121301Y-53517372D01*
X81294555Y-53500308D01*
X81461151Y-53449772D01*
X81614687Y-53367705D01*
X81749262Y-53257262D01*
X81754642Y-53250706D01*
X81820115Y-53330485D01*
X81916806Y-53409837D01*
X82027120Y-53468802D01*
X82146818Y-53505112D01*
X82271300Y-53517372D01*
X82560550Y-53514300D01*
X82719300Y-53355550D01*
X82719300Y-52306300D01*
X82973300Y-52306300D01*
X82973300Y-53355550D01*
X83132050Y-53514300D01*
X83421300Y-53517372D01*
X83545782Y-53505112D01*
X83665480Y-53468802D01*
X83775794Y-53409837D01*
X83872485Y-53330485D01*
X83951837Y-53233794D01*
X84010802Y-53123480D01*
X84047112Y-53003782D01*
X84059372Y-52879300D01*
X84056300Y-52465050D01*
X83897550Y-52306300D01*
X82973300Y-52306300D01*
X82719300Y-52306300D01*
X82699300Y-52306300D01*
X82699300Y-52052300D01*
X82719300Y-52052300D01*
X82719300Y-51003050D01*
X82645550Y-50929300D01*
X82719300Y-50855550D01*
X82719300Y-49806300D01*
X82973300Y-49806300D01*
X82973300Y-50855550D01*
X83047050Y-50929300D01*
X82973300Y-51003050D01*
X82973300Y-52052300D01*
X83897550Y-52052300D01*
X84056300Y-51893550D01*
X84059372Y-51479300D01*
X84047112Y-51354818D01*
X84010802Y-51235120D01*
X83951837Y-51124806D01*
X83872485Y-51028115D01*
X83775794Y-50948763D01*
X83739382Y-50929300D01*
X83775794Y-50909837D01*
X83872485Y-50830485D01*
X83951837Y-50733794D01*
X84010802Y-50623480D01*
X84047112Y-50503782D01*
X84059372Y-50379300D01*
X84056300Y-49965050D01*
X83897550Y-49806300D01*
X82973300Y-49806300D01*
X82719300Y-49806300D01*
X82699300Y-49806300D01*
X82699300Y-49552300D01*
X82719300Y-49552300D01*
X82719300Y-48503050D01*
X82645550Y-48429300D01*
X82719300Y-48355550D01*
X82719300Y-47306300D01*
X82973300Y-47306300D01*
X82973300Y-48355550D01*
X83047050Y-48429300D01*
X82973300Y-48503050D01*
X82973300Y-49552300D01*
X83897550Y-49552300D01*
X84056300Y-49393550D01*
X84059372Y-48979300D01*
X84047112Y-48854818D01*
X84010802Y-48735120D01*
X83951837Y-48624806D01*
X83872485Y-48528115D01*
X83775794Y-48448763D01*
X83739382Y-48429300D01*
X83775794Y-48409837D01*
X83872485Y-48330485D01*
X83951837Y-48233794D01*
X84010802Y-48123480D01*
X84047112Y-48003782D01*
X84059372Y-47879300D01*
X84056300Y-47465050D01*
X83897550Y-47306300D01*
X82973300Y-47306300D01*
X82719300Y-47306300D01*
X82699300Y-47306300D01*
X82699300Y-47052300D01*
X82719300Y-47052300D01*
X82719300Y-47032300D01*
X82973300Y-47032300D01*
X82973300Y-47052300D01*
X83897550Y-47052300D01*
X84056300Y-46893550D01*
X84058084Y-46653000D01*
X92101525Y-46653000D01*
X92062778Y-46734186D01*
G36*
X64605000Y-36688665D02*
G01*
X64605000Y-36971335D01*
X64660147Y-37248574D01*
X64768320Y-37509727D01*
X64925363Y-37744759D01*
X65125241Y-37944637D01*
X65357759Y-38100000D01*
X65125241Y-38255363D01*
X64925363Y-38455241D01*
X64768320Y-38690273D01*
X64660147Y-38951426D01*
X64605000Y-39228665D01*
X64605000Y-39511335D01*
X64660147Y-39788574D01*
X64768320Y-40049727D01*
X64912937Y-40266162D01*
X64403698Y-40775401D01*
X64374700Y-40799199D01*
X64350902Y-40828197D01*
X64350901Y-40828198D01*
X64279726Y-40914924D01*
X64209154Y-41046954D01*
X64191539Y-41105026D01*
X64165698Y-41190214D01*
X64160371Y-41244303D01*
X64151024Y-41339200D01*
X64154701Y-41376533D01*
X64154700Y-56867598D01*
X59272600Y-51985499D01*
X59272600Y-51908922D01*
X59276276Y-51871599D01*
X59272600Y-51834276D01*
X59272600Y-51834267D01*
X59261603Y-51722614D01*
X59218146Y-51579353D01*
X59147574Y-51447324D01*
X59052601Y-51331599D01*
X59023604Y-51307802D01*
X46567904Y-38852103D01*
X46544101Y-38823099D01*
X46428376Y-38728126D01*
X46296347Y-38657554D01*
X46153086Y-38614097D01*
X46041433Y-38603100D01*
X46041422Y-38603100D01*
X46004100Y-38599424D01*
X45966778Y-38603100D01*
X36921002Y-38603100D01*
X36301931Y-37984029D01*
X36329420Y-37971037D01*
X36555414Y-37803519D01*
X36744385Y-37595131D01*
X36855933Y-37409135D01*
X36860320Y-37419727D01*
X37017363Y-37654759D01*
X37217241Y-37854637D01*
X37452273Y-38011680D01*
X37713426Y-38119853D01*
X37990665Y-38175000D01*
X38273335Y-38175000D01*
X38550574Y-38119853D01*
X38811727Y-38011680D01*
X39046759Y-37854637D01*
X39246637Y-37654759D01*
X39402000Y-37422241D01*
X39557363Y-37654759D01*
X39757241Y-37854637D01*
X39992273Y-38011680D01*
X40253426Y-38119853D01*
X40530665Y-38175000D01*
X40813335Y-38175000D01*
X41090574Y-38119853D01*
X41351727Y-38011680D01*
X41586759Y-37854637D01*
X41786637Y-37654759D01*
X41942000Y-37422241D01*
X42097363Y-37654759D01*
X42297241Y-37854637D01*
X42532273Y-38011680D01*
X42793426Y-38119853D01*
X43070665Y-38175000D01*
X43353335Y-38175000D01*
X43630574Y-38119853D01*
X43891727Y-38011680D01*
X44126759Y-37854637D01*
X44326637Y-37654759D01*
X44482000Y-37422241D01*
X44637363Y-37654759D01*
X44837241Y-37854637D01*
X45072273Y-38011680D01*
X45333426Y-38119853D01*
X45610665Y-38175000D01*
X45893335Y-38175000D01*
X46170574Y-38119853D01*
X46431727Y-38011680D01*
X46666759Y-37854637D01*
X46866637Y-37654759D01*
X47022000Y-37422241D01*
X47177363Y-37654759D01*
X47377241Y-37854637D01*
X47612273Y-38011680D01*
X47873426Y-38119853D01*
X48150665Y-38175000D01*
X48433335Y-38175000D01*
X48710574Y-38119853D01*
X48971727Y-38011680D01*
X49206759Y-37854637D01*
X49406637Y-37654759D01*
X49562000Y-37422241D01*
X49717363Y-37654759D01*
X49917241Y-37854637D01*
X50152273Y-38011680D01*
X50413426Y-38119853D01*
X50690665Y-38175000D01*
X50973335Y-38175000D01*
X51250574Y-38119853D01*
X51511727Y-38011680D01*
X51746759Y-37854637D01*
X51946637Y-37654759D01*
X52102000Y-37422241D01*
X52257363Y-37654759D01*
X52457241Y-37854637D01*
X52692273Y-38011680D01*
X52953426Y-38119853D01*
X53230665Y-38175000D01*
X53513335Y-38175000D01*
X53790574Y-38119853D01*
X54051727Y-38011680D01*
X54286759Y-37854637D01*
X54486637Y-37654759D01*
X54642000Y-37422241D01*
X54797363Y-37654759D01*
X54997241Y-37854637D01*
X55232273Y-38011680D01*
X55493426Y-38119853D01*
X55770665Y-38175000D01*
X56053335Y-38175000D01*
X56330574Y-38119853D01*
X56591727Y-38011680D01*
X56826759Y-37854637D01*
X57026637Y-37654759D01*
X57183680Y-37419727D01*
X57291853Y-37158574D01*
X57347000Y-36881335D01*
X57347000Y-36598665D01*
X57316434Y-36445000D01*
X64653469Y-36445000D01*
X64605000Y-36688665D01*
G37*
X64605000Y-36688665D02*
X64605000Y-36971335D01*
X64660147Y-37248574D01*
X64768320Y-37509727D01*
X64925363Y-37744759D01*
X65125241Y-37944637D01*
X65357759Y-38100000D01*
X65125241Y-38255363D01*
X64925363Y-38455241D01*
X64768320Y-38690273D01*
X64660147Y-38951426D01*
X64605000Y-39228665D01*
X64605000Y-39511335D01*
X64660147Y-39788574D01*
X64768320Y-40049727D01*
X64912937Y-40266162D01*
X64403698Y-40775401D01*
X64374700Y-40799199D01*
X64350902Y-40828197D01*
X64350901Y-40828198D01*
X64279726Y-40914924D01*
X64209154Y-41046954D01*
X64191539Y-41105026D01*
X64165698Y-41190214D01*
X64160371Y-41244303D01*
X64151024Y-41339200D01*
X64154701Y-41376533D01*
X64154700Y-56867598D01*
X59272600Y-51985499D01*
X59272600Y-51908922D01*
X59276276Y-51871599D01*
X59272600Y-51834276D01*
X59272600Y-51834267D01*
X59261603Y-51722614D01*
X59218146Y-51579353D01*
X59147574Y-51447324D01*
X59052601Y-51331599D01*
X59023604Y-51307802D01*
X46567904Y-38852103D01*
X46544101Y-38823099D01*
X46428376Y-38728126D01*
X46296347Y-38657554D01*
X46153086Y-38614097D01*
X46041433Y-38603100D01*
X46041422Y-38603100D01*
X46004100Y-38599424D01*
X45966778Y-38603100D01*
X36921002Y-38603100D01*
X36301931Y-37984029D01*
X36329420Y-37971037D01*
X36555414Y-37803519D01*
X36744385Y-37595131D01*
X36855933Y-37409135D01*
X36860320Y-37419727D01*
X37017363Y-37654759D01*
X37217241Y-37854637D01*
X37452273Y-38011680D01*
X37713426Y-38119853D01*
X37990665Y-38175000D01*
X38273335Y-38175000D01*
X38550574Y-38119853D01*
X38811727Y-38011680D01*
X39046759Y-37854637D01*
X39246637Y-37654759D01*
X39402000Y-37422241D01*
X39557363Y-37654759D01*
X39757241Y-37854637D01*
X39992273Y-38011680D01*
X40253426Y-38119853D01*
X40530665Y-38175000D01*
X40813335Y-38175000D01*
X41090574Y-38119853D01*
X41351727Y-38011680D01*
X41586759Y-37854637D01*
X41786637Y-37654759D01*
X41942000Y-37422241D01*
X42097363Y-37654759D01*
X42297241Y-37854637D01*
X42532273Y-38011680D01*
X42793426Y-38119853D01*
X43070665Y-38175000D01*
X43353335Y-38175000D01*
X43630574Y-38119853D01*
X43891727Y-38011680D01*
X44126759Y-37854637D01*
X44326637Y-37654759D01*
X44482000Y-37422241D01*
X44637363Y-37654759D01*
X44837241Y-37854637D01*
X45072273Y-38011680D01*
X45333426Y-38119853D01*
X45610665Y-38175000D01*
X45893335Y-38175000D01*
X46170574Y-38119853D01*
X46431727Y-38011680D01*
X46666759Y-37854637D01*
X46866637Y-37654759D01*
X47022000Y-37422241D01*
X47177363Y-37654759D01*
X47377241Y-37854637D01*
X47612273Y-38011680D01*
X47873426Y-38119853D01*
X48150665Y-38175000D01*
X48433335Y-38175000D01*
X48710574Y-38119853D01*
X48971727Y-38011680D01*
X49206759Y-37854637D01*
X49406637Y-37654759D01*
X49562000Y-37422241D01*
X49717363Y-37654759D01*
X49917241Y-37854637D01*
X50152273Y-38011680D01*
X50413426Y-38119853D01*
X50690665Y-38175000D01*
X50973335Y-38175000D01*
X51250574Y-38119853D01*
X51511727Y-38011680D01*
X51746759Y-37854637D01*
X51946637Y-37654759D01*
X52102000Y-37422241D01*
X52257363Y-37654759D01*
X52457241Y-37854637D01*
X52692273Y-38011680D01*
X52953426Y-38119853D01*
X53230665Y-38175000D01*
X53513335Y-38175000D01*
X53790574Y-38119853D01*
X54051727Y-38011680D01*
X54286759Y-37854637D01*
X54486637Y-37654759D01*
X54642000Y-37422241D01*
X54797363Y-37654759D01*
X54997241Y-37854637D01*
X55232273Y-38011680D01*
X55493426Y-38119853D01*
X55770665Y-38175000D01*
X56053335Y-38175000D01*
X56330574Y-38119853D01*
X56591727Y-38011680D01*
X56826759Y-37854637D01*
X57026637Y-37654759D01*
X57183680Y-37419727D01*
X57291853Y-37158574D01*
X57347000Y-36881335D01*
X57347000Y-36598665D01*
X57316434Y-36445000D01*
X64653469Y-36445000D01*
X64605000Y-36688665D01*
G36*
X72225000Y-36688665D02*
G01*
X72225000Y-36971335D01*
X72280147Y-37248574D01*
X72388320Y-37509727D01*
X72545363Y-37744759D01*
X72745241Y-37944637D01*
X72977759Y-38100000D01*
X72745241Y-38255363D01*
X72545363Y-38455241D01*
X72388320Y-38690273D01*
X72280147Y-38951426D01*
X72225000Y-39228665D01*
X72225000Y-39511335D01*
X72280147Y-39788574D01*
X72388320Y-40049727D01*
X72545363Y-40284759D01*
X72745241Y-40484637D01*
X72977759Y-40640000D01*
X72745241Y-40795363D01*
X72545363Y-40995241D01*
X72388320Y-41230273D01*
X72280147Y-41491426D01*
X72225000Y-41768665D01*
X72225000Y-42051335D01*
X72280147Y-42328574D01*
X72388320Y-42589727D01*
X72545363Y-42824759D01*
X72745241Y-43024637D01*
X72977759Y-43180000D01*
X72745241Y-43335363D01*
X72545363Y-43535241D01*
X72388320Y-43770273D01*
X72280147Y-44031426D01*
X72225000Y-44308665D01*
X72225000Y-44591335D01*
X72280147Y-44868574D01*
X72388320Y-45129727D01*
X72545363Y-45364759D01*
X72745241Y-45564637D01*
X72977759Y-45720000D01*
X72745241Y-45875363D01*
X72545363Y-46075241D01*
X72388320Y-46310273D01*
X72280147Y-46571426D01*
X72225000Y-46848665D01*
X72225000Y-47131335D01*
X72280147Y-47408574D01*
X72388320Y-47669727D01*
X72545363Y-47904759D01*
X72582101Y-47941497D01*
X66037998Y-54485601D01*
X66009000Y-54509399D01*
X65985202Y-54538397D01*
X65985201Y-54538398D01*
X65914026Y-54625124D01*
X65843454Y-54757154D01*
X65822368Y-54826668D01*
X65799998Y-54900414D01*
X65793107Y-54970376D01*
X65785324Y-55049400D01*
X65789001Y-55086732D01*
X65789000Y-56281638D01*
X65708808Y-56324502D01*
X65674700Y-56347292D01*
X65674700Y-53460450D01*
X65898665Y-53505000D01*
X66181335Y-53505000D01*
X66458574Y-53449853D01*
X66719727Y-53341680D01*
X66954759Y-53184637D01*
X67154637Y-52984759D01*
X67311680Y-52749727D01*
X67419853Y-52488574D01*
X67475000Y-52211335D01*
X67475000Y-51928665D01*
X67419853Y-51651426D01*
X67311680Y-51390273D01*
X67154637Y-51155241D01*
X66954759Y-50955363D01*
X66722241Y-50800000D01*
X66954759Y-50644637D01*
X67154637Y-50444759D01*
X67311680Y-50209727D01*
X67419853Y-49948574D01*
X67475000Y-49671335D01*
X67475000Y-49388665D01*
X67419853Y-49111426D01*
X67311680Y-48850273D01*
X67154637Y-48615241D01*
X66954759Y-48415363D01*
X66722241Y-48260000D01*
X66954759Y-48104637D01*
X67154637Y-47904759D01*
X67311680Y-47669727D01*
X67419853Y-47408574D01*
X67475000Y-47131335D01*
X67475000Y-46848665D01*
X67419853Y-46571426D01*
X67311680Y-46310273D01*
X67154637Y-46075241D01*
X66954759Y-45875363D01*
X66722241Y-45720000D01*
X66954759Y-45564637D01*
X67154637Y-45364759D01*
X67311680Y-45129727D01*
X67419853Y-44868574D01*
X67475000Y-44591335D01*
X67475000Y-44308665D01*
X67419853Y-44031426D01*
X67311680Y-43770273D01*
X67154637Y-43535241D01*
X66954759Y-43335363D01*
X66719727Y-43178320D01*
X66709135Y-43173933D01*
X66895131Y-43062385D01*
X67103519Y-42873414D01*
X67271037Y-42647420D01*
X67391246Y-42393087D01*
X67431904Y-42259039D01*
X67309915Y-42037000D01*
X66167000Y-42037000D01*
X66167000Y-42057000D01*
X65913000Y-42057000D01*
X65913000Y-42037000D01*
X65893000Y-42037000D01*
X65893000Y-41783000D01*
X65913000Y-41783000D01*
X65913000Y-41763000D01*
X66167000Y-41763000D01*
X66167000Y-41783000D01*
X67309915Y-41783000D01*
X67431904Y-41560961D01*
X67391246Y-41426913D01*
X67271037Y-41172580D01*
X67103519Y-40946586D01*
X66895131Y-40757615D01*
X66776252Y-40686320D01*
X66789003Y-40644286D01*
X66794158Y-40591947D01*
X66954759Y-40484637D01*
X67154637Y-40284759D01*
X67311680Y-40049727D01*
X67419853Y-39788574D01*
X67475000Y-39511335D01*
X67475000Y-39228665D01*
X67419853Y-38951426D01*
X67311680Y-38690273D01*
X67154637Y-38455241D01*
X66954759Y-38255363D01*
X66722241Y-38100000D01*
X66954759Y-37944637D01*
X67154637Y-37744759D01*
X67311680Y-37509727D01*
X67419853Y-37248574D01*
X67475000Y-36971335D01*
X67475000Y-36688665D01*
X67426531Y-36445000D01*
X72273469Y-36445000D01*
X72225000Y-36688665D01*
G37*
X72225000Y-36688665D02*
X72225000Y-36971335D01*
X72280147Y-37248574D01*
X72388320Y-37509727D01*
X72545363Y-37744759D01*
X72745241Y-37944637D01*
X72977759Y-38100000D01*
X72745241Y-38255363D01*
X72545363Y-38455241D01*
X72388320Y-38690273D01*
X72280147Y-38951426D01*
X72225000Y-39228665D01*
X72225000Y-39511335D01*
X72280147Y-39788574D01*
X72388320Y-40049727D01*
X72545363Y-40284759D01*
X72745241Y-40484637D01*
X72977759Y-40640000D01*
X72745241Y-40795363D01*
X72545363Y-40995241D01*
X72388320Y-41230273D01*
X72280147Y-41491426D01*
X72225000Y-41768665D01*
X72225000Y-42051335D01*
X72280147Y-42328574D01*
X72388320Y-42589727D01*
X72545363Y-42824759D01*
X72745241Y-43024637D01*
X72977759Y-43180000D01*
X72745241Y-43335363D01*
X72545363Y-43535241D01*
X72388320Y-43770273D01*
X72280147Y-44031426D01*
X72225000Y-44308665D01*
X72225000Y-44591335D01*
X72280147Y-44868574D01*
X72388320Y-45129727D01*
X72545363Y-45364759D01*
X72745241Y-45564637D01*
X72977759Y-45720000D01*
X72745241Y-45875363D01*
X72545363Y-46075241D01*
X72388320Y-46310273D01*
X72280147Y-46571426D01*
X72225000Y-46848665D01*
X72225000Y-47131335D01*
X72280147Y-47408574D01*
X72388320Y-47669727D01*
X72545363Y-47904759D01*
X72582101Y-47941497D01*
X66037998Y-54485601D01*
X66009000Y-54509399D01*
X65985202Y-54538397D01*
X65985201Y-54538398D01*
X65914026Y-54625124D01*
X65843454Y-54757154D01*
X65822368Y-54826668D01*
X65799998Y-54900414D01*
X65793107Y-54970376D01*
X65785324Y-55049400D01*
X65789001Y-55086732D01*
X65789000Y-56281638D01*
X65708808Y-56324502D01*
X65674700Y-56347292D01*
X65674700Y-53460450D01*
X65898665Y-53505000D01*
X66181335Y-53505000D01*
X66458574Y-53449853D01*
X66719727Y-53341680D01*
X66954759Y-53184637D01*
X67154637Y-52984759D01*
X67311680Y-52749727D01*
X67419853Y-52488574D01*
X67475000Y-52211335D01*
X67475000Y-51928665D01*
X67419853Y-51651426D01*
X67311680Y-51390273D01*
X67154637Y-51155241D01*
X66954759Y-50955363D01*
X66722241Y-50800000D01*
X66954759Y-50644637D01*
X67154637Y-50444759D01*
X67311680Y-50209727D01*
X67419853Y-49948574D01*
X67475000Y-49671335D01*
X67475000Y-49388665D01*
X67419853Y-49111426D01*
X67311680Y-48850273D01*
X67154637Y-48615241D01*
X66954759Y-48415363D01*
X66722241Y-48260000D01*
X66954759Y-48104637D01*
X67154637Y-47904759D01*
X67311680Y-47669727D01*
X67419853Y-47408574D01*
X67475000Y-47131335D01*
X67475000Y-46848665D01*
X67419853Y-46571426D01*
X67311680Y-46310273D01*
X67154637Y-46075241D01*
X66954759Y-45875363D01*
X66722241Y-45720000D01*
X66954759Y-45564637D01*
X67154637Y-45364759D01*
X67311680Y-45129727D01*
X67419853Y-44868574D01*
X67475000Y-44591335D01*
X67475000Y-44308665D01*
X67419853Y-44031426D01*
X67311680Y-43770273D01*
X67154637Y-43535241D01*
X66954759Y-43335363D01*
X66719727Y-43178320D01*
X66709135Y-43173933D01*
X66895131Y-43062385D01*
X67103519Y-42873414D01*
X67271037Y-42647420D01*
X67391246Y-42393087D01*
X67431904Y-42259039D01*
X67309915Y-42037000D01*
X66167000Y-42037000D01*
X66167000Y-42057000D01*
X65913000Y-42057000D01*
X65913000Y-42037000D01*
X65893000Y-42037000D01*
X65893000Y-41783000D01*
X65913000Y-41783000D01*
X65913000Y-41763000D01*
X66167000Y-41763000D01*
X66167000Y-41783000D01*
X67309915Y-41783000D01*
X67431904Y-41560961D01*
X67391246Y-41426913D01*
X67271037Y-41172580D01*
X67103519Y-40946586D01*
X66895131Y-40757615D01*
X66776252Y-40686320D01*
X66789003Y-40644286D01*
X66794158Y-40591947D01*
X66954759Y-40484637D01*
X67154637Y-40284759D01*
X67311680Y-40049727D01*
X67419853Y-39788574D01*
X67475000Y-39511335D01*
X67475000Y-39228665D01*
X67419853Y-38951426D01*
X67311680Y-38690273D01*
X67154637Y-38455241D01*
X66954759Y-38255363D01*
X66722241Y-38100000D01*
X66954759Y-37944637D01*
X67154637Y-37744759D01*
X67311680Y-37509727D01*
X67419853Y-37248574D01*
X67475000Y-36971335D01*
X67475000Y-36688665D01*
X67426531Y-36445000D01*
X72273469Y-36445000D01*
X72225000Y-36688665D01*
G36*
X42683652Y-49712254D02*
G01*
X42543426Y-49740147D01*
X42282273Y-49848320D01*
X42047241Y-50005363D01*
X41847363Y-50205241D01*
X41692000Y-50437759D01*
X41536637Y-50205241D01*
X41336759Y-50005363D01*
X41101727Y-49848320D01*
X40840574Y-49740147D01*
X40563335Y-49685000D01*
X40280665Y-49685000D01*
X40003426Y-49740147D01*
X39742273Y-49848320D01*
X39507241Y-50005363D01*
X39307363Y-50205241D01*
X39152000Y-50437759D01*
X38996637Y-50205241D01*
X38796759Y-50005363D01*
X38561727Y-49848320D01*
X38300574Y-49740147D01*
X38023335Y-49685000D01*
X37740665Y-49685000D01*
X37463426Y-49740147D01*
X37202273Y-49848320D01*
X36967241Y-50005363D01*
X36767363Y-50205241D01*
X36610320Y-50440273D01*
X36605933Y-50450865D01*
X36494385Y-50264869D01*
X36305414Y-50056481D01*
X36079420Y-49888963D01*
X35825087Y-49768754D01*
X35691039Y-49728096D01*
X35469000Y-49850085D01*
X35469000Y-50993000D01*
X35489000Y-50993000D01*
X35489000Y-51247000D01*
X35469000Y-51247000D01*
X35469000Y-52389915D01*
X35691039Y-52511904D01*
X35825087Y-52471246D01*
X36079420Y-52351037D01*
X36305414Y-52183519D01*
X36494385Y-51975131D01*
X36605933Y-51789135D01*
X36610320Y-51799727D01*
X36767363Y-52034759D01*
X36967241Y-52234637D01*
X37202273Y-52391680D01*
X37463426Y-52499853D01*
X37740665Y-52555000D01*
X38023335Y-52555000D01*
X38300574Y-52499853D01*
X38561727Y-52391680D01*
X38796759Y-52234637D01*
X38996637Y-52034759D01*
X39152000Y-51802241D01*
X39307363Y-52034759D01*
X39507241Y-52234637D01*
X39742273Y-52391680D01*
X40003426Y-52499853D01*
X40280665Y-52555000D01*
X40563335Y-52555000D01*
X40840574Y-52499853D01*
X41101727Y-52391680D01*
X41336759Y-52234637D01*
X41536637Y-52034759D01*
X41692000Y-51802241D01*
X41847363Y-52034759D01*
X42047241Y-52234637D01*
X42282273Y-52391680D01*
X42543426Y-52499853D01*
X42820665Y-52555000D01*
X43103335Y-52555000D01*
X43380574Y-52499853D01*
X43641727Y-52391680D01*
X43874407Y-52236208D01*
X47289098Y-55650900D01*
X36451902Y-55650900D01*
X32270042Y-51469040D01*
X33950091Y-51469040D01*
X34044930Y-51733881D01*
X34189615Y-51975131D01*
X34378586Y-52183519D01*
X34604580Y-52351037D01*
X34858913Y-52471246D01*
X34992961Y-52511904D01*
X35215000Y-52389915D01*
X35215000Y-51247000D01*
X34071376Y-51247000D01*
X33950091Y-51469040D01*
X32270042Y-51469040D01*
X31571962Y-50770960D01*
X33950091Y-50770960D01*
X34071376Y-50993000D01*
X35215000Y-50993000D01*
X35215000Y-49850085D01*
X34992961Y-49728096D01*
X34858913Y-49768754D01*
X34604580Y-49888963D01*
X34378586Y-50056481D01*
X34189615Y-50264869D01*
X34044930Y-50506119D01*
X33950091Y-50770960D01*
X31571962Y-50770960D01*
X30999404Y-50198403D01*
X30975601Y-50169399D01*
X30859876Y-50074426D01*
X30764355Y-50023368D01*
X30817476Y-49994974D01*
X30933201Y-49900001D01*
X30957004Y-49870997D01*
X36426603Y-44401400D01*
X36488739Y-44401400D01*
X36688698Y-44361626D01*
X36877056Y-44283605D01*
X37046574Y-44170337D01*
X37094155Y-44122756D01*
X42683652Y-49712254D01*
G37*
X42683652Y-49712254D02*
X42543426Y-49740147D01*
X42282273Y-49848320D01*
X42047241Y-50005363D01*
X41847363Y-50205241D01*
X41692000Y-50437759D01*
X41536637Y-50205241D01*
X41336759Y-50005363D01*
X41101727Y-49848320D01*
X40840574Y-49740147D01*
X40563335Y-49685000D01*
X40280665Y-49685000D01*
X40003426Y-49740147D01*
X39742273Y-49848320D01*
X39507241Y-50005363D01*
X39307363Y-50205241D01*
X39152000Y-50437759D01*
X38996637Y-50205241D01*
X38796759Y-50005363D01*
X38561727Y-49848320D01*
X38300574Y-49740147D01*
X38023335Y-49685000D01*
X37740665Y-49685000D01*
X37463426Y-49740147D01*
X37202273Y-49848320D01*
X36967241Y-50005363D01*
X36767363Y-50205241D01*
X36610320Y-50440273D01*
X36605933Y-50450865D01*
X36494385Y-50264869D01*
X36305414Y-50056481D01*
X36079420Y-49888963D01*
X35825087Y-49768754D01*
X35691039Y-49728096D01*
X35469000Y-49850085D01*
X35469000Y-50993000D01*
X35489000Y-50993000D01*
X35489000Y-51247000D01*
X35469000Y-51247000D01*
X35469000Y-52389915D01*
X35691039Y-52511904D01*
X35825087Y-52471246D01*
X36079420Y-52351037D01*
X36305414Y-52183519D01*
X36494385Y-51975131D01*
X36605933Y-51789135D01*
X36610320Y-51799727D01*
X36767363Y-52034759D01*
X36967241Y-52234637D01*
X37202273Y-52391680D01*
X37463426Y-52499853D01*
X37740665Y-52555000D01*
X38023335Y-52555000D01*
X38300574Y-52499853D01*
X38561727Y-52391680D01*
X38796759Y-52234637D01*
X38996637Y-52034759D01*
X39152000Y-51802241D01*
X39307363Y-52034759D01*
X39507241Y-52234637D01*
X39742273Y-52391680D01*
X40003426Y-52499853D01*
X40280665Y-52555000D01*
X40563335Y-52555000D01*
X40840574Y-52499853D01*
X41101727Y-52391680D01*
X41336759Y-52234637D01*
X41536637Y-52034759D01*
X41692000Y-51802241D01*
X41847363Y-52034759D01*
X42047241Y-52234637D01*
X42282273Y-52391680D01*
X42543426Y-52499853D01*
X42820665Y-52555000D01*
X43103335Y-52555000D01*
X43380574Y-52499853D01*
X43641727Y-52391680D01*
X43874407Y-52236208D01*
X47289098Y-55650900D01*
X36451902Y-55650900D01*
X32270042Y-51469040D01*
X33950091Y-51469040D01*
X34044930Y-51733881D01*
X34189615Y-51975131D01*
X34378586Y-52183519D01*
X34604580Y-52351037D01*
X34858913Y-52471246D01*
X34992961Y-52511904D01*
X35215000Y-52389915D01*
X35215000Y-51247000D01*
X34071376Y-51247000D01*
X33950091Y-51469040D01*
X32270042Y-51469040D01*
X31571962Y-50770960D01*
X33950091Y-50770960D01*
X34071376Y-50993000D01*
X35215000Y-50993000D01*
X35215000Y-49850085D01*
X34992961Y-49728096D01*
X34858913Y-49768754D01*
X34604580Y-49888963D01*
X34378586Y-50056481D01*
X34189615Y-50264869D01*
X34044930Y-50506119D01*
X33950091Y-50770960D01*
X31571962Y-50770960D01*
X30999404Y-50198403D01*
X30975601Y-50169399D01*
X30859876Y-50074426D01*
X30764355Y-50023368D01*
X30817476Y-49994974D01*
X30933201Y-49900001D01*
X30957004Y-49870997D01*
X36426603Y-44401400D01*
X36488739Y-44401400D01*
X36688698Y-44361626D01*
X36877056Y-44283605D01*
X37046574Y-44170337D01*
X37094155Y-44122756D01*
X42683652Y-49712254D01*
G36*
X98180600Y-46213102D02*
G01*
X98180601Y-48791688D01*
X98136663Y-48835626D01*
X98028662Y-48997261D01*
X97190199Y-48158798D01*
X97294684Y-48018944D01*
X97421222Y-47753814D01*
X97466958Y-47603026D01*
X97345817Y-47371000D01*
X96139000Y-47371000D01*
X96139000Y-47391000D01*
X95885000Y-47391000D01*
X95885000Y-47371000D01*
X95865000Y-47371000D01*
X95865000Y-47117000D01*
X95885000Y-47117000D01*
X95885000Y-47097000D01*
X96139000Y-47097000D01*
X96139000Y-47117000D01*
X97345817Y-47117000D01*
X97466958Y-46884974D01*
X97421222Y-46734186D01*
X97294684Y-46469056D01*
X97118854Y-46233707D01*
X96900488Y-46037183D01*
X96801897Y-45978559D01*
X96967302Y-45868039D01*
X97176039Y-45659302D01*
X97340042Y-45413853D01*
X97352141Y-45384643D01*
X98180600Y-46213102D01*
G37*
X98180600Y-46213102D02*
X98180601Y-48791688D01*
X98136663Y-48835626D01*
X98028662Y-48997261D01*
X97190199Y-48158798D01*
X97294684Y-48018944D01*
X97421222Y-47753814D01*
X97466958Y-47603026D01*
X97345817Y-47371000D01*
X96139000Y-47371000D01*
X96139000Y-47391000D01*
X95885000Y-47391000D01*
X95885000Y-47371000D01*
X95865000Y-47371000D01*
X95865000Y-47117000D01*
X95885000Y-47117000D01*
X95885000Y-47097000D01*
X96139000Y-47097000D01*
X96139000Y-47117000D01*
X97345817Y-47117000D01*
X97466958Y-46884974D01*
X97421222Y-46734186D01*
X97294684Y-46469056D01*
X97118854Y-46233707D01*
X96900488Y-46037183D01*
X96801897Y-45978559D01*
X96967302Y-45868039D01*
X97176039Y-45659302D01*
X97340042Y-45413853D01*
X97352141Y-45384643D01*
X98180600Y-46213102D01*
G36*
X39964366Y-27866967D02*
G01*
X39757241Y-28005363D01*
X39557363Y-28205241D01*
X39402000Y-28437759D01*
X39246637Y-28205241D01*
X39046759Y-28005363D01*
X38811727Y-27848320D01*
X38550574Y-27740147D01*
X38273335Y-27685000D01*
X37990665Y-27685000D01*
X37713426Y-27740147D01*
X37452273Y-27848320D01*
X37217241Y-28005363D01*
X37017363Y-28205241D01*
X36990582Y-28245322D01*
X36885777Y-28235000D01*
X36885776Y-28235000D01*
X36842300Y-28230718D01*
X36798823Y-28235000D01*
X36726521Y-28235000D01*
X36706637Y-28205241D01*
X36506759Y-28005363D01*
X36271727Y-27848320D01*
X36010574Y-27740147D01*
X35733335Y-27685000D01*
X35450665Y-27685000D01*
X35173426Y-27740147D01*
X34912273Y-27848320D01*
X34677241Y-28005363D01*
X34477363Y-28205241D01*
X34320320Y-28440273D01*
X34212147Y-28701426D01*
X34157000Y-28978665D01*
X34157000Y-29261335D01*
X34212147Y-29538574D01*
X34320320Y-29799727D01*
X34477363Y-30034759D01*
X34677241Y-30234637D01*
X34912273Y-30391680D01*
X35173426Y-30499853D01*
X35450665Y-30555000D01*
X35733335Y-30555000D01*
X36010574Y-30499853D01*
X36271727Y-30391680D01*
X36297908Y-30374186D01*
X41473220Y-35549499D01*
X41351727Y-35468320D01*
X41090574Y-35360147D01*
X40813335Y-35305000D01*
X40530665Y-35305000D01*
X40253426Y-35360147D01*
X39992273Y-35468320D01*
X39757241Y-35625363D01*
X39557363Y-35825241D01*
X39402000Y-36057759D01*
X39246637Y-35825241D01*
X39046759Y-35625363D01*
X38811727Y-35468320D01*
X38550574Y-35360147D01*
X38273335Y-35305000D01*
X37990665Y-35305000D01*
X37713426Y-35360147D01*
X37452273Y-35468320D01*
X37217241Y-35625363D01*
X37017363Y-35825241D01*
X36860320Y-36060273D01*
X36855933Y-36070865D01*
X36744385Y-35884869D01*
X36555414Y-35676481D01*
X36329420Y-35508963D01*
X36075087Y-35388754D01*
X35941039Y-35348096D01*
X35719000Y-35470085D01*
X35719000Y-36613000D01*
X35739000Y-36613000D01*
X35739000Y-36867000D01*
X35719000Y-36867000D01*
X35719000Y-36887000D01*
X35465000Y-36887000D01*
X35465000Y-36867000D01*
X35445000Y-36867000D01*
X35445000Y-36613000D01*
X35465000Y-36613000D01*
X35465000Y-35470085D01*
X35242961Y-35348096D01*
X35108913Y-35388754D01*
X34854580Y-35508963D01*
X34628586Y-35676481D01*
X34439615Y-35884869D01*
X34350823Y-36032922D01*
X27488900Y-29170999D01*
X27488900Y-29077333D01*
X27492577Y-29040000D01*
X27485783Y-28971015D01*
X27477903Y-28891014D01*
X27434446Y-28747753D01*
X27363874Y-28615724D01*
X27268901Y-28499999D01*
X27250656Y-28485026D01*
X27153176Y-28405026D01*
X27021147Y-28334454D01*
X26877886Y-28290997D01*
X26839347Y-28287201D01*
X26704039Y-28084698D01*
X26495302Y-27875961D01*
X26336719Y-27770000D01*
X26495302Y-27664039D01*
X26704039Y-27455302D01*
X26834535Y-27260000D01*
X39357399Y-27260000D01*
X39964366Y-27866967D01*
G37*
X39964366Y-27866967D02*
X39757241Y-28005363D01*
X39557363Y-28205241D01*
X39402000Y-28437759D01*
X39246637Y-28205241D01*
X39046759Y-28005363D01*
X38811727Y-27848320D01*
X38550574Y-27740147D01*
X38273335Y-27685000D01*
X37990665Y-27685000D01*
X37713426Y-27740147D01*
X37452273Y-27848320D01*
X37217241Y-28005363D01*
X37017363Y-28205241D01*
X36990582Y-28245322D01*
X36885777Y-28235000D01*
X36885776Y-28235000D01*
X36842300Y-28230718D01*
X36798823Y-28235000D01*
X36726521Y-28235000D01*
X36706637Y-28205241D01*
X36506759Y-28005363D01*
X36271727Y-27848320D01*
X36010574Y-27740147D01*
X35733335Y-27685000D01*
X35450665Y-27685000D01*
X35173426Y-27740147D01*
X34912273Y-27848320D01*
X34677241Y-28005363D01*
X34477363Y-28205241D01*
X34320320Y-28440273D01*
X34212147Y-28701426D01*
X34157000Y-28978665D01*
X34157000Y-29261335D01*
X34212147Y-29538574D01*
X34320320Y-29799727D01*
X34477363Y-30034759D01*
X34677241Y-30234637D01*
X34912273Y-30391680D01*
X35173426Y-30499853D01*
X35450665Y-30555000D01*
X35733335Y-30555000D01*
X36010574Y-30499853D01*
X36271727Y-30391680D01*
X36297908Y-30374186D01*
X41473220Y-35549499D01*
X41351727Y-35468320D01*
X41090574Y-35360147D01*
X40813335Y-35305000D01*
X40530665Y-35305000D01*
X40253426Y-35360147D01*
X39992273Y-35468320D01*
X39757241Y-35625363D01*
X39557363Y-35825241D01*
X39402000Y-36057759D01*
X39246637Y-35825241D01*
X39046759Y-35625363D01*
X38811727Y-35468320D01*
X38550574Y-35360147D01*
X38273335Y-35305000D01*
X37990665Y-35305000D01*
X37713426Y-35360147D01*
X37452273Y-35468320D01*
X37217241Y-35625363D01*
X37017363Y-35825241D01*
X36860320Y-36060273D01*
X36855933Y-36070865D01*
X36744385Y-35884869D01*
X36555414Y-35676481D01*
X36329420Y-35508963D01*
X36075087Y-35388754D01*
X35941039Y-35348096D01*
X35719000Y-35470085D01*
X35719000Y-36613000D01*
X35739000Y-36613000D01*
X35739000Y-36867000D01*
X35719000Y-36867000D01*
X35719000Y-36887000D01*
X35465000Y-36887000D01*
X35465000Y-36867000D01*
X35445000Y-36867000D01*
X35445000Y-36613000D01*
X35465000Y-36613000D01*
X35465000Y-35470085D01*
X35242961Y-35348096D01*
X35108913Y-35388754D01*
X34854580Y-35508963D01*
X34628586Y-35676481D01*
X34439615Y-35884869D01*
X34350823Y-36032922D01*
X27488900Y-29170999D01*
X27488900Y-29077333D01*
X27492577Y-29040000D01*
X27485783Y-28971015D01*
X27477903Y-28891014D01*
X27434446Y-28747753D01*
X27363874Y-28615724D01*
X27268901Y-28499999D01*
X27250656Y-28485026D01*
X27153176Y-28405026D01*
X27021147Y-28334454D01*
X26877886Y-28290997D01*
X26839347Y-28287201D01*
X26704039Y-28084698D01*
X26495302Y-27875961D01*
X26336719Y-27770000D01*
X26495302Y-27664039D01*
X26704039Y-27455302D01*
X26834535Y-27260000D01*
X39357399Y-27260000D01*
X39964366Y-27866967D01*
M02*
