G04 #@! TF.GenerationSoftware,KiCad,Pcbnew,(5.1.5-0-10_14)*
G04 #@! TF.CreationDate,2020-06-17T20:54:46+02:00*
G04 #@! TF.ProjectId,BROSE_LAWO_Adapter,42524f53-455f-44c4-9157-4f5f41646170,rev?*
G04 #@! TF.SameCoordinates,Original*
G04 #@! TF.FileFunction,Copper,L1,Top*
G04 #@! TF.FilePolarity,Positive*
%FSLAX46Y46*%
G04 Gerber Fmt 4.6, Leading zero omitted, Abs format (unit mm)*
G04 Created by KiCad (PCBNEW (5.1.5-0-10_14)) date 2020-06-17 20:54:46*
%MOMM*%
%LPD*%
G04 APERTURE LIST*
%ADD10C,4.064000*%
%ADD11O,1.727200X1.727200*%
%ADD12R,1.727200X1.727200*%
%ADD13O,1.600000X1.600000*%
%ADD14R,1.600000X1.600000*%
%ADD15C,0.100000*%
%ADD16O,1.400000X1.400000*%
%ADD17C,1.400000*%
%ADD18C,2.000000*%
%ADD19O,1.700000X1.700000*%
%ADD20R,1.700000X1.700000*%
%ADD21C,0.800000*%
%ADD22C,0.250000*%
%ADD23C,0.500000*%
%ADD24C,0.254000*%
G04 APERTURE END LIST*
D10*
X108000000Y-18000000D03*
X108000000Y-108000000D03*
X18000000Y-108000000D03*
X18000000Y-18000000D03*
D11*
X107442000Y-78914000D03*
X104902000Y-78914000D03*
X107442000Y-76374000D03*
X104902000Y-76374000D03*
X107442000Y-73834000D03*
X104902000Y-73834000D03*
X107442000Y-71294000D03*
X104902000Y-71294000D03*
X107442000Y-68754000D03*
X104902000Y-68754000D03*
X107442000Y-66214000D03*
X104902000Y-66214000D03*
X107442000Y-63674000D03*
X104902000Y-63674000D03*
X107442000Y-61134000D03*
X104902000Y-61134000D03*
X107442000Y-58594000D03*
X104902000Y-58594000D03*
X107442000Y-56054000D03*
D12*
X104902000Y-56054000D03*
D13*
X85598000Y-65532000D03*
X77978000Y-83312000D03*
X85598000Y-68072000D03*
X77978000Y-80772000D03*
X85598000Y-70612000D03*
X77978000Y-78232000D03*
X85598000Y-73152000D03*
X77978000Y-75692000D03*
X85598000Y-75692000D03*
X77978000Y-73152000D03*
X85598000Y-78232000D03*
X77978000Y-70612000D03*
X85598000Y-80772000D03*
X77978000Y-68072000D03*
X85598000Y-83312000D03*
D14*
X77978000Y-65532000D03*
D13*
X70612000Y-68326000D03*
X62992000Y-86106000D03*
X70612000Y-70866000D03*
X62992000Y-83566000D03*
X70612000Y-73406000D03*
X62992000Y-81026000D03*
X70612000Y-75946000D03*
X62992000Y-78486000D03*
X70612000Y-78486000D03*
X62992000Y-75946000D03*
X70612000Y-81026000D03*
X62992000Y-73406000D03*
X70612000Y-83566000D03*
X62992000Y-70866000D03*
X70612000Y-86106000D03*
D14*
X62992000Y-68326000D03*
D13*
X73660000Y-19050000D03*
X66040000Y-52070000D03*
X73660000Y-21590000D03*
X66040000Y-49530000D03*
X73660000Y-24130000D03*
X66040000Y-46990000D03*
X73660000Y-26670000D03*
X66040000Y-44450000D03*
X73660000Y-29210000D03*
X66040000Y-41910000D03*
X73660000Y-31750000D03*
X66040000Y-39370000D03*
X73660000Y-34290000D03*
X66040000Y-36830000D03*
X73660000Y-36830000D03*
X66040000Y-34290000D03*
X73660000Y-39370000D03*
X66040000Y-31750000D03*
X73660000Y-41910000D03*
X66040000Y-29210000D03*
X73660000Y-44450000D03*
X66040000Y-26670000D03*
X73660000Y-46990000D03*
X66040000Y-24130000D03*
X73660000Y-49530000D03*
X66040000Y-21590000D03*
X73660000Y-52070000D03*
D14*
X66040000Y-19050000D03*
G04 #@! TA.AperFunction,SMDPad,CuDef*
D15*
G36*
X108678505Y-91049204D02*
G01*
X108702773Y-91052804D01*
X108726572Y-91058765D01*
X108749671Y-91067030D01*
X108771850Y-91077520D01*
X108792893Y-91090132D01*
X108812599Y-91104747D01*
X108830777Y-91121223D01*
X108847253Y-91139401D01*
X108861868Y-91159107D01*
X108874480Y-91180150D01*
X108884970Y-91202329D01*
X108893235Y-91225428D01*
X108899196Y-91249227D01*
X108902796Y-91273495D01*
X108904000Y-91297999D01*
X108904000Y-91948001D01*
X108902796Y-91972505D01*
X108899196Y-91996773D01*
X108893235Y-92020572D01*
X108884970Y-92043671D01*
X108874480Y-92065850D01*
X108861868Y-92086893D01*
X108847253Y-92106599D01*
X108830777Y-92124777D01*
X108812599Y-92141253D01*
X108792893Y-92155868D01*
X108771850Y-92168480D01*
X108749671Y-92178970D01*
X108726572Y-92187235D01*
X108702773Y-92193196D01*
X108678505Y-92196796D01*
X108654001Y-92198000D01*
X107753999Y-92198000D01*
X107729495Y-92196796D01*
X107705227Y-92193196D01*
X107681428Y-92187235D01*
X107658329Y-92178970D01*
X107636150Y-92168480D01*
X107615107Y-92155868D01*
X107595401Y-92141253D01*
X107577223Y-92124777D01*
X107560747Y-92106599D01*
X107546132Y-92086893D01*
X107533520Y-92065850D01*
X107523030Y-92043671D01*
X107514765Y-92020572D01*
X107508804Y-91996773D01*
X107505204Y-91972505D01*
X107504000Y-91948001D01*
X107504000Y-91297999D01*
X107505204Y-91273495D01*
X107508804Y-91249227D01*
X107514765Y-91225428D01*
X107523030Y-91202329D01*
X107533520Y-91180150D01*
X107546132Y-91159107D01*
X107560747Y-91139401D01*
X107577223Y-91121223D01*
X107595401Y-91104747D01*
X107615107Y-91090132D01*
X107636150Y-91077520D01*
X107658329Y-91067030D01*
X107681428Y-91058765D01*
X107705227Y-91052804D01*
X107729495Y-91049204D01*
X107753999Y-91048000D01*
X108654001Y-91048000D01*
X108678505Y-91049204D01*
G37*
G04 #@! TD.AperFunction*
G04 #@! TA.AperFunction,SMDPad,CuDef*
G36*
X108678505Y-88999204D02*
G01*
X108702773Y-89002804D01*
X108726572Y-89008765D01*
X108749671Y-89017030D01*
X108771850Y-89027520D01*
X108792893Y-89040132D01*
X108812599Y-89054747D01*
X108830777Y-89071223D01*
X108847253Y-89089401D01*
X108861868Y-89109107D01*
X108874480Y-89130150D01*
X108884970Y-89152329D01*
X108893235Y-89175428D01*
X108899196Y-89199227D01*
X108902796Y-89223495D01*
X108904000Y-89247999D01*
X108904000Y-89898001D01*
X108902796Y-89922505D01*
X108899196Y-89946773D01*
X108893235Y-89970572D01*
X108884970Y-89993671D01*
X108874480Y-90015850D01*
X108861868Y-90036893D01*
X108847253Y-90056599D01*
X108830777Y-90074777D01*
X108812599Y-90091253D01*
X108792893Y-90105868D01*
X108771850Y-90118480D01*
X108749671Y-90128970D01*
X108726572Y-90137235D01*
X108702773Y-90143196D01*
X108678505Y-90146796D01*
X108654001Y-90148000D01*
X107753999Y-90148000D01*
X107729495Y-90146796D01*
X107705227Y-90143196D01*
X107681428Y-90137235D01*
X107658329Y-90128970D01*
X107636150Y-90118480D01*
X107615107Y-90105868D01*
X107595401Y-90091253D01*
X107577223Y-90074777D01*
X107560747Y-90056599D01*
X107546132Y-90036893D01*
X107533520Y-90015850D01*
X107523030Y-89993671D01*
X107514765Y-89970572D01*
X107508804Y-89946773D01*
X107505204Y-89922505D01*
X107504000Y-89898001D01*
X107504000Y-89247999D01*
X107505204Y-89223495D01*
X107508804Y-89199227D01*
X107514765Y-89175428D01*
X107523030Y-89152329D01*
X107533520Y-89130150D01*
X107546132Y-89109107D01*
X107560747Y-89089401D01*
X107577223Y-89071223D01*
X107595401Y-89054747D01*
X107615107Y-89040132D01*
X107636150Y-89027520D01*
X107658329Y-89017030D01*
X107681428Y-89008765D01*
X107705227Y-89002804D01*
X107729495Y-88999204D01*
X107753999Y-88998000D01*
X108654001Y-88998000D01*
X108678505Y-88999204D01*
G37*
G04 #@! TD.AperFunction*
G04 #@! TA.AperFunction,SMDPad,CuDef*
G36*
X105122505Y-88999204D02*
G01*
X105146773Y-89002804D01*
X105170572Y-89008765D01*
X105193671Y-89017030D01*
X105215850Y-89027520D01*
X105236893Y-89040132D01*
X105256599Y-89054747D01*
X105274777Y-89071223D01*
X105291253Y-89089401D01*
X105305868Y-89109107D01*
X105318480Y-89130150D01*
X105328970Y-89152329D01*
X105337235Y-89175428D01*
X105343196Y-89199227D01*
X105346796Y-89223495D01*
X105348000Y-89247999D01*
X105348000Y-89898001D01*
X105346796Y-89922505D01*
X105343196Y-89946773D01*
X105337235Y-89970572D01*
X105328970Y-89993671D01*
X105318480Y-90015850D01*
X105305868Y-90036893D01*
X105291253Y-90056599D01*
X105274777Y-90074777D01*
X105256599Y-90091253D01*
X105236893Y-90105868D01*
X105215850Y-90118480D01*
X105193671Y-90128970D01*
X105170572Y-90137235D01*
X105146773Y-90143196D01*
X105122505Y-90146796D01*
X105098001Y-90148000D01*
X104197999Y-90148000D01*
X104173495Y-90146796D01*
X104149227Y-90143196D01*
X104125428Y-90137235D01*
X104102329Y-90128970D01*
X104080150Y-90118480D01*
X104059107Y-90105868D01*
X104039401Y-90091253D01*
X104021223Y-90074777D01*
X104004747Y-90056599D01*
X103990132Y-90036893D01*
X103977520Y-90015850D01*
X103967030Y-89993671D01*
X103958765Y-89970572D01*
X103952804Y-89946773D01*
X103949204Y-89922505D01*
X103948000Y-89898001D01*
X103948000Y-89247999D01*
X103949204Y-89223495D01*
X103952804Y-89199227D01*
X103958765Y-89175428D01*
X103967030Y-89152329D01*
X103977520Y-89130150D01*
X103990132Y-89109107D01*
X104004747Y-89089401D01*
X104021223Y-89071223D01*
X104039401Y-89054747D01*
X104059107Y-89040132D01*
X104080150Y-89027520D01*
X104102329Y-89017030D01*
X104125428Y-89008765D01*
X104149227Y-89002804D01*
X104173495Y-88999204D01*
X104197999Y-88998000D01*
X105098001Y-88998000D01*
X105122505Y-88999204D01*
G37*
G04 #@! TD.AperFunction*
G04 #@! TA.AperFunction,SMDPad,CuDef*
G36*
X105122505Y-91049204D02*
G01*
X105146773Y-91052804D01*
X105170572Y-91058765D01*
X105193671Y-91067030D01*
X105215850Y-91077520D01*
X105236893Y-91090132D01*
X105256599Y-91104747D01*
X105274777Y-91121223D01*
X105291253Y-91139401D01*
X105305868Y-91159107D01*
X105318480Y-91180150D01*
X105328970Y-91202329D01*
X105337235Y-91225428D01*
X105343196Y-91249227D01*
X105346796Y-91273495D01*
X105348000Y-91297999D01*
X105348000Y-91948001D01*
X105346796Y-91972505D01*
X105343196Y-91996773D01*
X105337235Y-92020572D01*
X105328970Y-92043671D01*
X105318480Y-92065850D01*
X105305868Y-92086893D01*
X105291253Y-92106599D01*
X105274777Y-92124777D01*
X105256599Y-92141253D01*
X105236893Y-92155868D01*
X105215850Y-92168480D01*
X105193671Y-92178970D01*
X105170572Y-92187235D01*
X105146773Y-92193196D01*
X105122505Y-92196796D01*
X105098001Y-92198000D01*
X104197999Y-92198000D01*
X104173495Y-92196796D01*
X104149227Y-92193196D01*
X104125428Y-92187235D01*
X104102329Y-92178970D01*
X104080150Y-92168480D01*
X104059107Y-92155868D01*
X104039401Y-92141253D01*
X104021223Y-92124777D01*
X104004747Y-92106599D01*
X103990132Y-92086893D01*
X103977520Y-92065850D01*
X103967030Y-92043671D01*
X103958765Y-92020572D01*
X103952804Y-91996773D01*
X103949204Y-91972505D01*
X103948000Y-91948001D01*
X103948000Y-91297999D01*
X103949204Y-91273495D01*
X103952804Y-91249227D01*
X103958765Y-91225428D01*
X103967030Y-91202329D01*
X103977520Y-91180150D01*
X103990132Y-91159107D01*
X104004747Y-91139401D01*
X104021223Y-91121223D01*
X104039401Y-91104747D01*
X104059107Y-91090132D01*
X104080150Y-91077520D01*
X104102329Y-91067030D01*
X104125428Y-91058765D01*
X104149227Y-91052804D01*
X104173495Y-91049204D01*
X104197999Y-91048000D01*
X105098001Y-91048000D01*
X105122505Y-91049204D01*
G37*
G04 #@! TD.AperFunction*
D16*
X52590000Y-109270000D03*
D17*
X52590000Y-106730000D03*
D16*
X59840000Y-109270000D03*
D17*
X59840000Y-106730000D03*
D16*
X66590000Y-109270000D03*
D17*
X66590000Y-106730000D03*
D16*
X73840000Y-109270000D03*
D17*
X73840000Y-106730000D03*
D16*
X81090000Y-109270000D03*
D17*
X81090000Y-106730000D03*
G04 #@! TA.AperFunction,SMDPad,CuDef*
D15*
G36*
X83195805Y-46480504D02*
G01*
X83220073Y-46484104D01*
X83243872Y-46490065D01*
X83266971Y-46498330D01*
X83289150Y-46508820D01*
X83310193Y-46521432D01*
X83329899Y-46536047D01*
X83348077Y-46552523D01*
X83364553Y-46570701D01*
X83379168Y-46590407D01*
X83391780Y-46611450D01*
X83402270Y-46633629D01*
X83410535Y-46656728D01*
X83416496Y-46680527D01*
X83420096Y-46704795D01*
X83421300Y-46729299D01*
X83421300Y-47629301D01*
X83420096Y-47653805D01*
X83416496Y-47678073D01*
X83410535Y-47701872D01*
X83402270Y-47724971D01*
X83391780Y-47747150D01*
X83379168Y-47768193D01*
X83364553Y-47787899D01*
X83348077Y-47806077D01*
X83329899Y-47822553D01*
X83310193Y-47837168D01*
X83289150Y-47849780D01*
X83266971Y-47860270D01*
X83243872Y-47868535D01*
X83220073Y-47874496D01*
X83195805Y-47878096D01*
X83171301Y-47879300D01*
X82521299Y-47879300D01*
X82496795Y-47878096D01*
X82472527Y-47874496D01*
X82448728Y-47868535D01*
X82425629Y-47860270D01*
X82403450Y-47849780D01*
X82382407Y-47837168D01*
X82362701Y-47822553D01*
X82344523Y-47806077D01*
X82328047Y-47787899D01*
X82313432Y-47768193D01*
X82300820Y-47747150D01*
X82290330Y-47724971D01*
X82282065Y-47701872D01*
X82276104Y-47678073D01*
X82272504Y-47653805D01*
X82271300Y-47629301D01*
X82271300Y-46729299D01*
X82272504Y-46704795D01*
X82276104Y-46680527D01*
X82282065Y-46656728D01*
X82290330Y-46633629D01*
X82300820Y-46611450D01*
X82313432Y-46590407D01*
X82328047Y-46570701D01*
X82344523Y-46552523D01*
X82362701Y-46536047D01*
X82382407Y-46521432D01*
X82403450Y-46508820D01*
X82425629Y-46498330D01*
X82448728Y-46490065D01*
X82472527Y-46484104D01*
X82496795Y-46480504D01*
X82521299Y-46479300D01*
X83171301Y-46479300D01*
X83195805Y-46480504D01*
G37*
G04 #@! TD.AperFunction*
G04 #@! TA.AperFunction,SMDPad,CuDef*
G36*
X81145805Y-46480504D02*
G01*
X81170073Y-46484104D01*
X81193872Y-46490065D01*
X81216971Y-46498330D01*
X81239150Y-46508820D01*
X81260193Y-46521432D01*
X81279899Y-46536047D01*
X81298077Y-46552523D01*
X81314553Y-46570701D01*
X81329168Y-46590407D01*
X81341780Y-46611450D01*
X81352270Y-46633629D01*
X81360535Y-46656728D01*
X81366496Y-46680527D01*
X81370096Y-46704795D01*
X81371300Y-46729299D01*
X81371300Y-47629301D01*
X81370096Y-47653805D01*
X81366496Y-47678073D01*
X81360535Y-47701872D01*
X81352270Y-47724971D01*
X81341780Y-47747150D01*
X81329168Y-47768193D01*
X81314553Y-47787899D01*
X81298077Y-47806077D01*
X81279899Y-47822553D01*
X81260193Y-47837168D01*
X81239150Y-47849780D01*
X81216971Y-47860270D01*
X81193872Y-47868535D01*
X81170073Y-47874496D01*
X81145805Y-47878096D01*
X81121301Y-47879300D01*
X80471299Y-47879300D01*
X80446795Y-47878096D01*
X80422527Y-47874496D01*
X80398728Y-47868535D01*
X80375629Y-47860270D01*
X80353450Y-47849780D01*
X80332407Y-47837168D01*
X80312701Y-47822553D01*
X80294523Y-47806077D01*
X80278047Y-47787899D01*
X80263432Y-47768193D01*
X80250820Y-47747150D01*
X80240330Y-47724971D01*
X80232065Y-47701872D01*
X80226104Y-47678073D01*
X80222504Y-47653805D01*
X80221300Y-47629301D01*
X80221300Y-46729299D01*
X80222504Y-46704795D01*
X80226104Y-46680527D01*
X80232065Y-46656728D01*
X80240330Y-46633629D01*
X80250820Y-46611450D01*
X80263432Y-46590407D01*
X80278047Y-46570701D01*
X80294523Y-46552523D01*
X80312701Y-46536047D01*
X80332407Y-46521432D01*
X80353450Y-46508820D01*
X80375629Y-46498330D01*
X80398728Y-46490065D01*
X80422527Y-46484104D01*
X80446795Y-46480504D01*
X80471299Y-46479300D01*
X81121301Y-46479300D01*
X81145805Y-46480504D01*
G37*
G04 #@! TD.AperFunction*
G04 #@! TA.AperFunction,SMDPad,CuDef*
G36*
X83195805Y-48980504D02*
G01*
X83220073Y-48984104D01*
X83243872Y-48990065D01*
X83266971Y-48998330D01*
X83289150Y-49008820D01*
X83310193Y-49021432D01*
X83329899Y-49036047D01*
X83348077Y-49052523D01*
X83364553Y-49070701D01*
X83379168Y-49090407D01*
X83391780Y-49111450D01*
X83402270Y-49133629D01*
X83410535Y-49156728D01*
X83416496Y-49180527D01*
X83420096Y-49204795D01*
X83421300Y-49229299D01*
X83421300Y-50129301D01*
X83420096Y-50153805D01*
X83416496Y-50178073D01*
X83410535Y-50201872D01*
X83402270Y-50224971D01*
X83391780Y-50247150D01*
X83379168Y-50268193D01*
X83364553Y-50287899D01*
X83348077Y-50306077D01*
X83329899Y-50322553D01*
X83310193Y-50337168D01*
X83289150Y-50349780D01*
X83266971Y-50360270D01*
X83243872Y-50368535D01*
X83220073Y-50374496D01*
X83195805Y-50378096D01*
X83171301Y-50379300D01*
X82521299Y-50379300D01*
X82496795Y-50378096D01*
X82472527Y-50374496D01*
X82448728Y-50368535D01*
X82425629Y-50360270D01*
X82403450Y-50349780D01*
X82382407Y-50337168D01*
X82362701Y-50322553D01*
X82344523Y-50306077D01*
X82328047Y-50287899D01*
X82313432Y-50268193D01*
X82300820Y-50247150D01*
X82290330Y-50224971D01*
X82282065Y-50201872D01*
X82276104Y-50178073D01*
X82272504Y-50153805D01*
X82271300Y-50129301D01*
X82271300Y-49229299D01*
X82272504Y-49204795D01*
X82276104Y-49180527D01*
X82282065Y-49156728D01*
X82290330Y-49133629D01*
X82300820Y-49111450D01*
X82313432Y-49090407D01*
X82328047Y-49070701D01*
X82344523Y-49052523D01*
X82362701Y-49036047D01*
X82382407Y-49021432D01*
X82403450Y-49008820D01*
X82425629Y-48998330D01*
X82448728Y-48990065D01*
X82472527Y-48984104D01*
X82496795Y-48980504D01*
X82521299Y-48979300D01*
X83171301Y-48979300D01*
X83195805Y-48980504D01*
G37*
G04 #@! TD.AperFunction*
G04 #@! TA.AperFunction,SMDPad,CuDef*
G36*
X81145805Y-48980504D02*
G01*
X81170073Y-48984104D01*
X81193872Y-48990065D01*
X81216971Y-48998330D01*
X81239150Y-49008820D01*
X81260193Y-49021432D01*
X81279899Y-49036047D01*
X81298077Y-49052523D01*
X81314553Y-49070701D01*
X81329168Y-49090407D01*
X81341780Y-49111450D01*
X81352270Y-49133629D01*
X81360535Y-49156728D01*
X81366496Y-49180527D01*
X81370096Y-49204795D01*
X81371300Y-49229299D01*
X81371300Y-50129301D01*
X81370096Y-50153805D01*
X81366496Y-50178073D01*
X81360535Y-50201872D01*
X81352270Y-50224971D01*
X81341780Y-50247150D01*
X81329168Y-50268193D01*
X81314553Y-50287899D01*
X81298077Y-50306077D01*
X81279899Y-50322553D01*
X81260193Y-50337168D01*
X81239150Y-50349780D01*
X81216971Y-50360270D01*
X81193872Y-50368535D01*
X81170073Y-50374496D01*
X81145805Y-50378096D01*
X81121301Y-50379300D01*
X80471299Y-50379300D01*
X80446795Y-50378096D01*
X80422527Y-50374496D01*
X80398728Y-50368535D01*
X80375629Y-50360270D01*
X80353450Y-50349780D01*
X80332407Y-50337168D01*
X80312701Y-50322553D01*
X80294523Y-50306077D01*
X80278047Y-50287899D01*
X80263432Y-50268193D01*
X80250820Y-50247150D01*
X80240330Y-50224971D01*
X80232065Y-50201872D01*
X80226104Y-50178073D01*
X80222504Y-50153805D01*
X80221300Y-50129301D01*
X80221300Y-49229299D01*
X80222504Y-49204795D01*
X80226104Y-49180527D01*
X80232065Y-49156728D01*
X80240330Y-49133629D01*
X80250820Y-49111450D01*
X80263432Y-49090407D01*
X80278047Y-49070701D01*
X80294523Y-49052523D01*
X80312701Y-49036047D01*
X80332407Y-49021432D01*
X80353450Y-49008820D01*
X80375629Y-48998330D01*
X80398728Y-48990065D01*
X80422527Y-48984104D01*
X80446795Y-48980504D01*
X80471299Y-48979300D01*
X81121301Y-48979300D01*
X81145805Y-48980504D01*
G37*
G04 #@! TD.AperFunction*
G04 #@! TA.AperFunction,SMDPad,CuDef*
G36*
X83195805Y-51480504D02*
G01*
X83220073Y-51484104D01*
X83243872Y-51490065D01*
X83266971Y-51498330D01*
X83289150Y-51508820D01*
X83310193Y-51521432D01*
X83329899Y-51536047D01*
X83348077Y-51552523D01*
X83364553Y-51570701D01*
X83379168Y-51590407D01*
X83391780Y-51611450D01*
X83402270Y-51633629D01*
X83410535Y-51656728D01*
X83416496Y-51680527D01*
X83420096Y-51704795D01*
X83421300Y-51729299D01*
X83421300Y-52629301D01*
X83420096Y-52653805D01*
X83416496Y-52678073D01*
X83410535Y-52701872D01*
X83402270Y-52724971D01*
X83391780Y-52747150D01*
X83379168Y-52768193D01*
X83364553Y-52787899D01*
X83348077Y-52806077D01*
X83329899Y-52822553D01*
X83310193Y-52837168D01*
X83289150Y-52849780D01*
X83266971Y-52860270D01*
X83243872Y-52868535D01*
X83220073Y-52874496D01*
X83195805Y-52878096D01*
X83171301Y-52879300D01*
X82521299Y-52879300D01*
X82496795Y-52878096D01*
X82472527Y-52874496D01*
X82448728Y-52868535D01*
X82425629Y-52860270D01*
X82403450Y-52849780D01*
X82382407Y-52837168D01*
X82362701Y-52822553D01*
X82344523Y-52806077D01*
X82328047Y-52787899D01*
X82313432Y-52768193D01*
X82300820Y-52747150D01*
X82290330Y-52724971D01*
X82282065Y-52701872D01*
X82276104Y-52678073D01*
X82272504Y-52653805D01*
X82271300Y-52629301D01*
X82271300Y-51729299D01*
X82272504Y-51704795D01*
X82276104Y-51680527D01*
X82282065Y-51656728D01*
X82290330Y-51633629D01*
X82300820Y-51611450D01*
X82313432Y-51590407D01*
X82328047Y-51570701D01*
X82344523Y-51552523D01*
X82362701Y-51536047D01*
X82382407Y-51521432D01*
X82403450Y-51508820D01*
X82425629Y-51498330D01*
X82448728Y-51490065D01*
X82472527Y-51484104D01*
X82496795Y-51480504D01*
X82521299Y-51479300D01*
X83171301Y-51479300D01*
X83195805Y-51480504D01*
G37*
G04 #@! TD.AperFunction*
G04 #@! TA.AperFunction,SMDPad,CuDef*
G36*
X81145805Y-51480504D02*
G01*
X81170073Y-51484104D01*
X81193872Y-51490065D01*
X81216971Y-51498330D01*
X81239150Y-51508820D01*
X81260193Y-51521432D01*
X81279899Y-51536047D01*
X81298077Y-51552523D01*
X81314553Y-51570701D01*
X81329168Y-51590407D01*
X81341780Y-51611450D01*
X81352270Y-51633629D01*
X81360535Y-51656728D01*
X81366496Y-51680527D01*
X81370096Y-51704795D01*
X81371300Y-51729299D01*
X81371300Y-52629301D01*
X81370096Y-52653805D01*
X81366496Y-52678073D01*
X81360535Y-52701872D01*
X81352270Y-52724971D01*
X81341780Y-52747150D01*
X81329168Y-52768193D01*
X81314553Y-52787899D01*
X81298077Y-52806077D01*
X81279899Y-52822553D01*
X81260193Y-52837168D01*
X81239150Y-52849780D01*
X81216971Y-52860270D01*
X81193872Y-52868535D01*
X81170073Y-52874496D01*
X81145805Y-52878096D01*
X81121301Y-52879300D01*
X80471299Y-52879300D01*
X80446795Y-52878096D01*
X80422527Y-52874496D01*
X80398728Y-52868535D01*
X80375629Y-52860270D01*
X80353450Y-52849780D01*
X80332407Y-52837168D01*
X80312701Y-52822553D01*
X80294523Y-52806077D01*
X80278047Y-52787899D01*
X80263432Y-52768193D01*
X80250820Y-52747150D01*
X80240330Y-52724971D01*
X80232065Y-52701872D01*
X80226104Y-52678073D01*
X80222504Y-52653805D01*
X80221300Y-52629301D01*
X80221300Y-51729299D01*
X80222504Y-51704795D01*
X80226104Y-51680527D01*
X80232065Y-51656728D01*
X80240330Y-51633629D01*
X80250820Y-51611450D01*
X80263432Y-51590407D01*
X80278047Y-51570701D01*
X80294523Y-51552523D01*
X80312701Y-51536047D01*
X80332407Y-51521432D01*
X80353450Y-51508820D01*
X80375629Y-51498330D01*
X80398728Y-51490065D01*
X80422527Y-51484104D01*
X80446795Y-51480504D01*
X80471299Y-51479300D01*
X81121301Y-51479300D01*
X81145805Y-51480504D01*
G37*
G04 #@! TD.AperFunction*
D18*
X52590000Y-94480000D03*
X52590000Y-101980000D03*
X59840000Y-94480000D03*
X59840000Y-101980000D03*
X66590000Y-94480000D03*
X66590000Y-101980000D03*
X73840000Y-94480000D03*
X73840000Y-101980000D03*
X81090000Y-94480000D03*
X81090000Y-101980000D03*
D13*
X55412000Y-80240000D03*
X35092000Y-72620000D03*
X52872000Y-80240000D03*
X37632000Y-72620000D03*
X50332000Y-80240000D03*
X40172000Y-72620000D03*
X47792000Y-80240000D03*
X42712000Y-72620000D03*
X45252000Y-80240000D03*
X45252000Y-72620000D03*
X42712000Y-80240000D03*
X47792000Y-72620000D03*
X40172000Y-80240000D03*
X50332000Y-72620000D03*
X37632000Y-80240000D03*
X52872000Y-72620000D03*
X35092000Y-80240000D03*
D14*
X55412000Y-72620000D03*
D13*
X55662000Y-58740000D03*
X35342000Y-51120000D03*
X53122000Y-58740000D03*
X37882000Y-51120000D03*
X50582000Y-58740000D03*
X40422000Y-51120000D03*
X48042000Y-58740000D03*
X42962000Y-51120000D03*
X45502000Y-58740000D03*
X45502000Y-51120000D03*
X42962000Y-58740000D03*
X48042000Y-51120000D03*
X40422000Y-58740000D03*
X50582000Y-51120000D03*
X37882000Y-58740000D03*
X53122000Y-51120000D03*
X35342000Y-58740000D03*
D14*
X55662000Y-51120000D03*
D13*
X55912000Y-36740000D03*
X35592000Y-29120000D03*
X53372000Y-36740000D03*
X38132000Y-29120000D03*
X50832000Y-36740000D03*
X40672000Y-29120000D03*
X48292000Y-36740000D03*
X43212000Y-29120000D03*
X45752000Y-36740000D03*
X45752000Y-29120000D03*
X43212000Y-36740000D03*
X48292000Y-29120000D03*
X40672000Y-36740000D03*
X50832000Y-29120000D03*
X38132000Y-36740000D03*
X53372000Y-29120000D03*
X35592000Y-36740000D03*
D14*
X55912000Y-29120000D03*
G04 #@! TA.AperFunction,SMDPad,CuDef*
D15*
G36*
X67298398Y-58596000D02*
G01*
X67298398Y-58620534D01*
X67293588Y-58669365D01*
X67284016Y-58717490D01*
X67269772Y-58764445D01*
X67250995Y-58809778D01*
X67227864Y-58853051D01*
X67200604Y-58893850D01*
X67169476Y-58931779D01*
X67134779Y-58966476D01*
X67096850Y-58997604D01*
X67056051Y-59024864D01*
X67012778Y-59047995D01*
X66967445Y-59066772D01*
X66920490Y-59081016D01*
X66872365Y-59090588D01*
X66823534Y-59095398D01*
X66799000Y-59095398D01*
X66799000Y-59096000D01*
X66299000Y-59096000D01*
X66299000Y-59095398D01*
X66274466Y-59095398D01*
X66225635Y-59090588D01*
X66177510Y-59081016D01*
X66130555Y-59066772D01*
X66085222Y-59047995D01*
X66041949Y-59024864D01*
X66001150Y-58997604D01*
X65963221Y-58966476D01*
X65928524Y-58931779D01*
X65897396Y-58893850D01*
X65870136Y-58853051D01*
X65847005Y-58809778D01*
X65828228Y-58764445D01*
X65813984Y-58717490D01*
X65804412Y-58669365D01*
X65799602Y-58620534D01*
X65799602Y-58596000D01*
X65799000Y-58596000D01*
X65799000Y-58096000D01*
X67299000Y-58096000D01*
X67299000Y-58596000D01*
X67298398Y-58596000D01*
G37*
G04 #@! TD.AperFunction*
G04 #@! TA.AperFunction,SMDPad,CuDef*
G36*
X65799000Y-57796000D02*
G01*
X65799000Y-57296000D01*
X65799602Y-57296000D01*
X65799602Y-57271466D01*
X65804412Y-57222635D01*
X65813984Y-57174510D01*
X65828228Y-57127555D01*
X65847005Y-57082222D01*
X65870136Y-57038949D01*
X65897396Y-56998150D01*
X65928524Y-56960221D01*
X65963221Y-56925524D01*
X66001150Y-56894396D01*
X66041949Y-56867136D01*
X66085222Y-56844005D01*
X66130555Y-56825228D01*
X66177510Y-56810984D01*
X66225635Y-56801412D01*
X66274466Y-56796602D01*
X66299000Y-56796602D01*
X66299000Y-56796000D01*
X66799000Y-56796000D01*
X66799000Y-56796602D01*
X66823534Y-56796602D01*
X66872365Y-56801412D01*
X66920490Y-56810984D01*
X66967445Y-56825228D01*
X67012778Y-56844005D01*
X67056051Y-56867136D01*
X67096850Y-56894396D01*
X67134779Y-56925524D01*
X67169476Y-56960221D01*
X67200604Y-56998150D01*
X67227864Y-57038949D01*
X67250995Y-57082222D01*
X67269772Y-57127555D01*
X67284016Y-57174510D01*
X67293588Y-57222635D01*
X67298398Y-57271466D01*
X67298398Y-57296000D01*
X67299000Y-57296000D01*
X67299000Y-57796000D01*
X65799000Y-57796000D01*
G37*
G04 #@! TD.AperFunction*
G04 #@! TA.AperFunction,SMDPad,CuDef*
G36*
X70798398Y-58596000D02*
G01*
X70798398Y-58620534D01*
X70793588Y-58669365D01*
X70784016Y-58717490D01*
X70769772Y-58764445D01*
X70750995Y-58809778D01*
X70727864Y-58853051D01*
X70700604Y-58893850D01*
X70669476Y-58931779D01*
X70634779Y-58966476D01*
X70596850Y-58997604D01*
X70556051Y-59024864D01*
X70512778Y-59047995D01*
X70467445Y-59066772D01*
X70420490Y-59081016D01*
X70372365Y-59090588D01*
X70323534Y-59095398D01*
X70299000Y-59095398D01*
X70299000Y-59096000D01*
X69799000Y-59096000D01*
X69799000Y-59095398D01*
X69774466Y-59095398D01*
X69725635Y-59090588D01*
X69677510Y-59081016D01*
X69630555Y-59066772D01*
X69585222Y-59047995D01*
X69541949Y-59024864D01*
X69501150Y-58997604D01*
X69463221Y-58966476D01*
X69428524Y-58931779D01*
X69397396Y-58893850D01*
X69370136Y-58853051D01*
X69347005Y-58809778D01*
X69328228Y-58764445D01*
X69313984Y-58717490D01*
X69304412Y-58669365D01*
X69299602Y-58620534D01*
X69299602Y-58596000D01*
X69299000Y-58596000D01*
X69299000Y-58096000D01*
X70799000Y-58096000D01*
X70799000Y-58596000D01*
X70798398Y-58596000D01*
G37*
G04 #@! TD.AperFunction*
G04 #@! TA.AperFunction,SMDPad,CuDef*
G36*
X70349000Y-57796000D02*
G01*
X70349000Y-58196000D01*
X69749000Y-58196000D01*
X69749000Y-57796000D01*
X69299000Y-57796000D01*
X69299000Y-57296000D01*
X69299602Y-57296000D01*
X69299602Y-57271466D01*
X69304412Y-57222635D01*
X69313984Y-57174510D01*
X69328228Y-57127555D01*
X69347005Y-57082222D01*
X69370136Y-57038949D01*
X69397396Y-56998150D01*
X69428524Y-56960221D01*
X69463221Y-56925524D01*
X69501150Y-56894396D01*
X69541949Y-56867136D01*
X69585222Y-56844005D01*
X69630555Y-56825228D01*
X69677510Y-56810984D01*
X69725635Y-56801412D01*
X69774466Y-56796602D01*
X69799000Y-56796602D01*
X69799000Y-56796000D01*
X70299000Y-56796000D01*
X70299000Y-56796602D01*
X70323534Y-56796602D01*
X70372365Y-56801412D01*
X70420490Y-56810984D01*
X70467445Y-56825228D01*
X70512778Y-56844005D01*
X70556051Y-56867136D01*
X70596850Y-56894396D01*
X70634779Y-56925524D01*
X70669476Y-56960221D01*
X70700604Y-56998150D01*
X70727864Y-57038949D01*
X70750995Y-57082222D01*
X70769772Y-57127555D01*
X70784016Y-57174510D01*
X70793588Y-57222635D01*
X70798398Y-57271466D01*
X70798398Y-57296000D01*
X70799000Y-57296000D01*
X70799000Y-57796000D01*
X70349000Y-57796000D01*
G37*
G04 #@! TD.AperFunction*
G04 #@! TA.AperFunction,SMDPad,CuDef*
G36*
X74409398Y-58596000D02*
G01*
X74409398Y-58620534D01*
X74404588Y-58669365D01*
X74395016Y-58717490D01*
X74380772Y-58764445D01*
X74361995Y-58809778D01*
X74338864Y-58853051D01*
X74311604Y-58893850D01*
X74280476Y-58931779D01*
X74245779Y-58966476D01*
X74207850Y-58997604D01*
X74167051Y-59024864D01*
X74123778Y-59047995D01*
X74078445Y-59066772D01*
X74031490Y-59081016D01*
X73983365Y-59090588D01*
X73934534Y-59095398D01*
X73910000Y-59095398D01*
X73910000Y-59096000D01*
X73410000Y-59096000D01*
X73410000Y-59095398D01*
X73385466Y-59095398D01*
X73336635Y-59090588D01*
X73288510Y-59081016D01*
X73241555Y-59066772D01*
X73196222Y-59047995D01*
X73152949Y-59024864D01*
X73112150Y-58997604D01*
X73074221Y-58966476D01*
X73039524Y-58931779D01*
X73008396Y-58893850D01*
X72981136Y-58853051D01*
X72958005Y-58809778D01*
X72939228Y-58764445D01*
X72924984Y-58717490D01*
X72915412Y-58669365D01*
X72910602Y-58620534D01*
X72910602Y-58596000D01*
X72910000Y-58596000D01*
X72910000Y-58096000D01*
X74410000Y-58096000D01*
X74410000Y-58596000D01*
X74409398Y-58596000D01*
G37*
G04 #@! TD.AperFunction*
G04 #@! TA.AperFunction,SMDPad,CuDef*
G36*
X73960000Y-57796000D02*
G01*
X73960000Y-58196000D01*
X73360000Y-58196000D01*
X73360000Y-57796000D01*
X72910000Y-57796000D01*
X72910000Y-57296000D01*
X72910602Y-57296000D01*
X72910602Y-57271466D01*
X72915412Y-57222635D01*
X72924984Y-57174510D01*
X72939228Y-57127555D01*
X72958005Y-57082222D01*
X72981136Y-57038949D01*
X73008396Y-56998150D01*
X73039524Y-56960221D01*
X73074221Y-56925524D01*
X73112150Y-56894396D01*
X73152949Y-56867136D01*
X73196222Y-56844005D01*
X73241555Y-56825228D01*
X73288510Y-56810984D01*
X73336635Y-56801412D01*
X73385466Y-56796602D01*
X73410000Y-56796602D01*
X73410000Y-56796000D01*
X73910000Y-56796000D01*
X73910000Y-56796602D01*
X73934534Y-56796602D01*
X73983365Y-56801412D01*
X74031490Y-56810984D01*
X74078445Y-56825228D01*
X74123778Y-56844005D01*
X74167051Y-56867136D01*
X74207850Y-56894396D01*
X74245779Y-56925524D01*
X74280476Y-56960221D01*
X74311604Y-56998150D01*
X74338864Y-57038949D01*
X74361995Y-57082222D01*
X74380772Y-57127555D01*
X74395016Y-57174510D01*
X74404588Y-57222635D01*
X74409398Y-57271466D01*
X74409398Y-57296000D01*
X74410000Y-57296000D01*
X74410000Y-57796000D01*
X73960000Y-57796000D01*
G37*
G04 #@! TD.AperFunction*
D19*
X43870000Y-103184000D03*
X43870000Y-100644000D03*
D20*
X43870000Y-98104000D03*
D19*
X39220000Y-103184000D03*
X39220000Y-100644000D03*
D20*
X39220000Y-98104000D03*
D19*
X34570000Y-103184000D03*
X34570000Y-100644000D03*
D20*
X34570000Y-98104000D03*
D11*
X96012000Y-93218000D03*
X93472000Y-93218000D03*
X96012000Y-90678000D03*
X93472000Y-90678000D03*
X96012000Y-88138000D03*
X93472000Y-88138000D03*
X96012000Y-85598000D03*
X93472000Y-85598000D03*
X96012000Y-83058000D03*
X93472000Y-83058000D03*
X96012000Y-80518000D03*
X93472000Y-80518000D03*
X96012000Y-77978000D03*
X93472000Y-77978000D03*
X96012000Y-75438000D03*
X93472000Y-75438000D03*
X96012000Y-72898000D03*
X93472000Y-72898000D03*
X96012000Y-70358000D03*
X93472000Y-70358000D03*
X96012000Y-67818000D03*
X93472000Y-67818000D03*
X96012000Y-65278000D03*
X93472000Y-65278000D03*
X96012000Y-62738000D03*
X93472000Y-62738000D03*
X96012000Y-60198000D03*
X93472000Y-60198000D03*
X96012000Y-57658000D03*
X93472000Y-57658000D03*
X96012000Y-55118000D03*
X93472000Y-55118000D03*
X96012000Y-52578000D03*
X93472000Y-52578000D03*
X96012000Y-50038000D03*
X93472000Y-50038000D03*
X96012000Y-47498000D03*
X93472000Y-47498000D03*
X96012000Y-44958000D03*
X93472000Y-44958000D03*
X96012000Y-42418000D03*
X93472000Y-42418000D03*
X96012000Y-39878000D03*
X93472000Y-39878000D03*
X96012000Y-37338000D03*
X93472000Y-37338000D03*
X96012000Y-34798000D03*
X93472000Y-34798000D03*
X96012000Y-32258000D03*
D12*
X93472000Y-32258000D03*
D11*
X25540000Y-100160000D03*
X23000000Y-100160000D03*
X25540000Y-97620000D03*
X23000000Y-97620000D03*
X25540000Y-95080000D03*
X23000000Y-95080000D03*
X25540000Y-92540000D03*
X23000000Y-92540000D03*
X25540000Y-90000000D03*
X23000000Y-90000000D03*
X25540000Y-87460000D03*
X23000000Y-87460000D03*
X25540000Y-84920000D03*
X23000000Y-84920000D03*
X25540000Y-82380000D03*
X23000000Y-82380000D03*
X25540000Y-79840000D03*
X23000000Y-79840000D03*
X25540000Y-77300000D03*
X23000000Y-77300000D03*
X25540000Y-74760000D03*
X23000000Y-74760000D03*
X25540000Y-72220000D03*
X23000000Y-72220000D03*
X25540000Y-69680000D03*
X23000000Y-69680000D03*
X25540000Y-67140000D03*
X23000000Y-67140000D03*
X25540000Y-64600000D03*
X23000000Y-64600000D03*
X25540000Y-62060000D03*
X23000000Y-62060000D03*
X25540000Y-59520000D03*
X23000000Y-59520000D03*
X25540000Y-56980000D03*
X23000000Y-56980000D03*
X25540000Y-54440000D03*
X23000000Y-54440000D03*
X25540000Y-51900000D03*
X23000000Y-51900000D03*
X25540000Y-49360000D03*
X23000000Y-49360000D03*
X25540000Y-46820000D03*
X23000000Y-46820000D03*
X25540000Y-44280000D03*
X23000000Y-44280000D03*
X25540000Y-41740000D03*
X23000000Y-41740000D03*
X25540000Y-39200000D03*
X23000000Y-39200000D03*
X25540000Y-36660000D03*
X23000000Y-36660000D03*
X25540000Y-34120000D03*
X23000000Y-34120000D03*
X25540000Y-31580000D03*
X23000000Y-31580000D03*
X25540000Y-29040000D03*
X23000000Y-29040000D03*
X25540000Y-26500000D03*
D12*
X23000000Y-26500000D03*
D21*
X89311000Y-58478300D03*
X88517000Y-59494200D03*
X71427200Y-58596000D03*
X34539200Y-67810600D03*
X36946700Y-63978300D03*
X37331700Y-75691700D03*
X80772000Y-42799000D03*
X101600000Y-47498000D03*
X105791000Y-27051000D03*
X81407000Y-17018000D03*
X35592000Y-38830000D03*
X30607000Y-96774000D03*
X41021000Y-95504000D03*
X70485000Y-102870000D03*
X48895000Y-106680000D03*
X66040000Y-83947000D03*
X77978000Y-86741000D03*
X40110400Y-61385800D03*
X37429400Y-61769500D03*
X36745200Y-62527600D03*
X29174000Y-60917500D03*
X87573500Y-60219500D03*
X32206800Y-61857100D03*
X33711900Y-56385500D03*
X84150600Y-51395700D03*
X84853700Y-52384500D03*
X85879500Y-51126700D03*
X92057000Y-45633300D03*
X107241900Y-45062600D03*
X57919600Y-72401000D03*
X58706400Y-75013400D03*
D22*
X85598000Y-78232000D02*
X86723300Y-78232000D01*
X104902000Y-66214000D02*
X104902000Y-67402900D01*
X86723300Y-78232000D02*
X87658300Y-79167000D01*
X87658300Y-79167000D02*
X93986300Y-79167000D01*
X93986300Y-79167000D02*
X94823000Y-78330300D01*
X94823000Y-78330300D02*
X94823000Y-77463700D01*
X94823000Y-77463700D02*
X95640000Y-76646700D01*
X95640000Y-76646700D02*
X96518100Y-76646700D01*
X96518100Y-76646700D02*
X103713100Y-69451700D01*
X103713100Y-69451700D02*
X103713100Y-68220200D01*
X103713100Y-68220200D02*
X104530400Y-67402900D01*
X104530400Y-67402900D02*
X104902000Y-67402900D01*
X89311000Y-58478300D02*
X75549600Y-58478300D01*
X75549600Y-58478300D02*
X74587000Y-59440900D01*
X74587000Y-59440900D02*
X65679800Y-59440900D01*
X65679800Y-59440900D02*
X65451700Y-59212800D01*
X65451700Y-59212800D02*
X65451700Y-54395400D01*
X65451700Y-54395400D02*
X67180200Y-52666900D01*
X67180200Y-52666900D02*
X67180200Y-48974200D01*
X67180200Y-48974200D02*
X66321300Y-48115300D01*
X66321300Y-48115300D02*
X66040000Y-48115300D01*
X66040000Y-46990000D02*
X66040000Y-48115300D01*
X66040000Y-49530000D02*
X66040000Y-50655300D01*
X66040000Y-50655300D02*
X65758700Y-50655300D01*
X65758700Y-50655300D02*
X64862900Y-51551100D01*
X64862900Y-51551100D02*
X64862900Y-59318500D01*
X64862900Y-59318500D02*
X65463400Y-59919000D01*
X65463400Y-59919000D02*
X86648500Y-59919000D01*
X86648500Y-59919000D02*
X87073300Y-59494200D01*
X87073300Y-59494200D02*
X88517000Y-59494200D01*
X104902000Y-68754000D02*
X104902000Y-69942900D01*
X104648000Y-89573000D02*
X103686800Y-88611800D01*
X103686800Y-88611800D02*
X103686800Y-70797800D01*
X103686800Y-70797800D02*
X104541700Y-69942900D01*
X104541700Y-69942900D02*
X104902000Y-69942900D01*
X39220000Y-100644000D02*
X38044700Y-100644000D01*
X23000000Y-100160000D02*
X24188900Y-100160000D01*
X24188900Y-100160000D02*
X24188900Y-100531500D01*
X24188900Y-100531500D02*
X25476700Y-101819300D01*
X25476700Y-101819300D02*
X36869400Y-101819300D01*
X36869400Y-101819300D02*
X38044700Y-100644000D01*
X25540000Y-97620000D02*
X26728900Y-97620000D01*
X26728900Y-97620000D02*
X29752900Y-100644000D01*
X29752900Y-100644000D02*
X34570000Y-100644000D01*
X39046700Y-80240000D02*
X39046700Y-80521400D01*
X39046700Y-80521400D02*
X38202800Y-81365300D01*
X38202800Y-81365300D02*
X26728900Y-81365300D01*
X26728900Y-81365300D02*
X26537400Y-81173800D01*
X26537400Y-81173800D02*
X25042900Y-81173800D01*
X25042900Y-81173800D02*
X24351000Y-81865700D01*
X24351000Y-81865700D02*
X24351000Y-82711400D01*
X24351000Y-82711400D02*
X23331300Y-83731100D01*
X23331300Y-83731100D02*
X22504200Y-83731100D01*
X22504200Y-83731100D02*
X21317100Y-84918200D01*
X21317100Y-84918200D02*
X21317100Y-90039700D01*
X21317100Y-90039700D02*
X22628500Y-91351100D01*
X22628500Y-91351100D02*
X23000000Y-91351100D01*
X23000000Y-92540000D02*
X23000000Y-91351100D01*
X40172000Y-80240000D02*
X39046700Y-80240000D01*
X47792000Y-80240000D02*
X46666700Y-80240000D01*
X23000000Y-90000000D02*
X23000000Y-88811100D01*
X23000000Y-88811100D02*
X22628500Y-88811100D01*
X22628500Y-88811100D02*
X21767500Y-87950100D01*
X21767500Y-87950100D02*
X21767500Y-86973100D01*
X21767500Y-86973100D02*
X22550600Y-86190000D01*
X22550600Y-86190000D02*
X40998000Y-86190000D01*
X40998000Y-86190000D02*
X46666700Y-80521300D01*
X46666700Y-80521300D02*
X46666700Y-80240000D01*
X49206700Y-80240000D02*
X49206700Y-80444500D01*
X49206700Y-80444500D02*
X42191200Y-87460000D01*
X42191200Y-87460000D02*
X25540000Y-87460000D01*
X50332000Y-80240000D02*
X49206700Y-80240000D01*
X52872000Y-80240000D02*
X51746700Y-80240000D01*
X23000000Y-87460000D02*
X24188900Y-87460000D01*
X24188900Y-87460000D02*
X24188900Y-87831500D01*
X24188900Y-87831500D02*
X25022100Y-88664700D01*
X25022100Y-88664700D02*
X43603300Y-88664700D01*
X43603300Y-88664700D02*
X51746700Y-80521300D01*
X51746700Y-80521300D02*
X51746700Y-80240000D01*
X55412000Y-80240000D02*
X54286700Y-80240000D01*
X25540000Y-84920000D02*
X39626600Y-84920000D01*
X39626600Y-84920000D02*
X43982000Y-80564600D01*
X43982000Y-80564600D02*
X43982000Y-79839500D01*
X43982000Y-79839500D02*
X44706800Y-79114700D01*
X44706800Y-79114700D02*
X53442800Y-79114700D01*
X53442800Y-79114700D02*
X54286700Y-79958600D01*
X54286700Y-79958600D02*
X54286700Y-80240000D01*
X42712000Y-80240000D02*
X41586700Y-80240000D01*
X23000000Y-84920000D02*
X24188900Y-84920000D01*
X24188900Y-84920000D02*
X24188900Y-84548400D01*
X24188900Y-84548400D02*
X25006200Y-83731100D01*
X25006200Y-83731100D02*
X38376900Y-83731100D01*
X38376900Y-83731100D02*
X41586700Y-80521300D01*
X41586700Y-80521300D02*
X41586700Y-80240000D01*
X73660000Y-58596000D02*
X71427200Y-58596000D01*
X70049000Y-58596000D02*
X71427200Y-58596000D01*
X66040000Y-39370000D02*
X67165300Y-39370000D01*
X93472000Y-37338000D02*
X92283100Y-37338000D01*
X92283100Y-37338000D02*
X91376400Y-38244700D01*
X91376400Y-38244700D02*
X68290600Y-38244700D01*
X68290600Y-38244700D02*
X67165300Y-39370000D01*
X96012000Y-37338000D02*
X93472000Y-37338000D01*
X62992000Y-68326000D02*
X61866700Y-68326000D01*
X34539200Y-67810600D02*
X61351300Y-67810600D01*
X61351300Y-67810600D02*
X61866700Y-68326000D01*
X70049000Y-58596000D02*
X66549000Y-58596000D01*
X107442000Y-80102900D02*
X107442000Y-88811000D01*
X107442000Y-88811000D02*
X108204000Y-89573000D01*
X107442000Y-58594000D02*
X107442000Y-61134000D01*
X104902000Y-78914000D02*
X106090900Y-78914000D01*
X107442000Y-79508400D02*
X106685300Y-79508400D01*
X106685300Y-79508400D02*
X106090900Y-78914000D01*
X107442000Y-79508400D02*
X107442000Y-80102900D01*
X107442000Y-78914000D02*
X107442000Y-79508400D01*
D23*
X35342000Y-59990300D02*
X35342000Y-62373600D01*
X35342000Y-62373600D02*
X36946700Y-63978300D01*
X92158100Y-32258000D02*
X90380000Y-30479900D01*
X90380000Y-30479900D02*
X37655200Y-30479900D01*
X37655200Y-30479900D02*
X36842300Y-29667000D01*
X36842300Y-29667000D02*
X36842300Y-29120000D01*
X25540000Y-79840000D02*
X23000000Y-79840000D01*
X33841700Y-80240000D02*
X33441700Y-79840000D01*
X33441700Y-79840000D02*
X25540000Y-79840000D01*
X35342000Y-58740000D02*
X35342000Y-59990300D01*
X93472000Y-32258000D02*
X92158100Y-32258000D01*
X35592000Y-29120000D02*
X36842300Y-29120000D01*
X35092000Y-80240000D02*
X33841700Y-80240000D01*
X39220000Y-103184000D02*
X43870000Y-103184000D01*
X96012000Y-32258000D02*
X93472000Y-32258000D01*
D22*
X66040000Y-41910000D02*
X67165300Y-41910000D01*
X82846300Y-47179300D02*
X82846300Y-46984200D01*
X82846300Y-46984200D02*
X78897400Y-43035300D01*
X78897400Y-43035300D02*
X68290600Y-43035300D01*
X68290600Y-43035300D02*
X67165300Y-41910000D01*
X82846300Y-49679300D02*
X82846300Y-47179300D01*
X92283100Y-52578000D02*
X91720400Y-53140700D01*
X91720400Y-53140700D02*
X83807700Y-53140700D01*
X83807700Y-53140700D02*
X82846300Y-52179300D01*
X82846300Y-52179300D02*
X82846300Y-49679300D01*
X35092000Y-72620000D02*
X35092000Y-73745300D01*
X35092000Y-73745300D02*
X35385300Y-73745300D01*
X35385300Y-73745300D02*
X37331700Y-75691700D01*
X93472000Y-52578000D02*
X92283100Y-52578000D01*
X93472000Y-52578000D02*
X96012000Y-52578000D01*
X62992000Y-86106000D02*
X64117300Y-86106000D01*
X77978000Y-83312000D02*
X76852700Y-83312000D01*
X76852700Y-83312000D02*
X75184000Y-84980700D01*
X75184000Y-84980700D02*
X65242600Y-84980700D01*
X65242600Y-84980700D02*
X64117300Y-86106000D01*
X59840000Y-109270000D02*
X66590000Y-109270000D01*
X34570000Y-98104000D02*
X39220000Y-98104000D01*
X104902000Y-56054000D02*
X107442000Y-56054000D01*
X73840000Y-109270000D02*
X66590000Y-109270000D01*
X81090000Y-109270000D02*
X73840000Y-109270000D01*
X48042000Y-58740000D02*
X46916700Y-58740000D01*
X40110400Y-61385800D02*
X44552200Y-61385800D01*
X44552200Y-61385800D02*
X46916700Y-59021300D01*
X46916700Y-59021300D02*
X46916700Y-58740000D01*
X49456700Y-58740000D02*
X49456700Y-58944500D01*
X49456700Y-58944500D02*
X46269100Y-62132100D01*
X46269100Y-62132100D02*
X37792000Y-62132100D01*
X37792000Y-62132100D02*
X37429400Y-61769500D01*
X50582000Y-58740000D02*
X49456700Y-58740000D01*
X36745200Y-62527600D02*
X36825500Y-62607900D01*
X36825500Y-62607900D02*
X48410100Y-62607900D01*
X48410100Y-62607900D02*
X51996700Y-59021300D01*
X51996700Y-59021300D02*
X51996700Y-58740000D01*
X53122000Y-58740000D02*
X51996700Y-58740000D01*
X23000000Y-71031100D02*
X22628500Y-71031100D01*
X22628500Y-71031100D02*
X21771100Y-70173700D01*
X21771100Y-70173700D02*
X21771100Y-59063300D01*
X21771100Y-59063300D02*
X22506400Y-58328000D01*
X22506400Y-58328000D02*
X33955400Y-58328000D01*
X33955400Y-58328000D02*
X34668700Y-57614700D01*
X34668700Y-57614700D02*
X53692800Y-57614700D01*
X53692800Y-57614700D02*
X54536700Y-58458600D01*
X54536700Y-58458600D02*
X54536700Y-58740000D01*
X55662000Y-58740000D02*
X54536700Y-58740000D01*
X23000000Y-72220000D02*
X23000000Y-71031100D01*
X93472000Y-93218000D02*
X92283100Y-93218000D01*
X25540000Y-69680000D02*
X26728900Y-69680000D01*
X26728900Y-69680000D02*
X34493500Y-77444600D01*
X34493500Y-77444600D02*
X55502700Y-77444600D01*
X55502700Y-77444600D02*
X58408400Y-80350300D01*
X58408400Y-80350300D02*
X58408400Y-84412900D01*
X58408400Y-84412900D02*
X63034300Y-89038800D01*
X63034300Y-89038800D02*
X88103900Y-89038800D01*
X88103900Y-89038800D02*
X92283100Y-93218000D01*
X92283100Y-90678000D02*
X90193500Y-88588400D01*
X90193500Y-88588400D02*
X63220800Y-88588400D01*
X63220800Y-88588400D02*
X60370500Y-85738100D01*
X60370500Y-85738100D02*
X60370500Y-81675400D01*
X60370500Y-81675400D02*
X55689300Y-76994200D01*
X55689300Y-76994200D02*
X34680000Y-76994200D01*
X34680000Y-76994200D02*
X26155100Y-68469300D01*
X26155100Y-68469300D02*
X25028100Y-68469300D01*
X25028100Y-68469300D02*
X24188900Y-69308500D01*
X24188900Y-69308500D02*
X24188900Y-69680000D01*
X93472000Y-90678000D02*
X92283100Y-90678000D01*
X23000000Y-69680000D02*
X24188900Y-69680000D01*
X93472000Y-88138000D02*
X63410000Y-88138000D01*
X63410000Y-88138000D02*
X61603500Y-86331500D01*
X61603500Y-86331500D02*
X61603500Y-82223000D01*
X61603500Y-82223000D02*
X55924300Y-76543800D01*
X55924300Y-76543800D02*
X36132700Y-76543800D01*
X36132700Y-76543800D02*
X26728900Y-67140000D01*
X25540000Y-67140000D02*
X26728900Y-67140000D01*
X92283100Y-83058000D02*
X91267100Y-82042000D01*
X91267100Y-82042000D02*
X83538500Y-82042000D01*
X83538500Y-82042000D02*
X80998500Y-79502000D01*
X80998500Y-79502000D02*
X76479700Y-79502000D01*
X76479700Y-79502000D02*
X71587800Y-74610100D01*
X71587800Y-74610100D02*
X61307800Y-74610100D01*
X61307800Y-74610100D02*
X57251500Y-70553800D01*
X57251500Y-70553800D02*
X32682700Y-70553800D01*
X32682700Y-70553800D02*
X26728900Y-64600000D01*
X93472000Y-83058000D02*
X92283100Y-83058000D01*
X25540000Y-64600000D02*
X26728900Y-64600000D01*
X93472000Y-80518000D02*
X92283100Y-80518000D01*
X23000000Y-64600000D02*
X24188900Y-64600000D01*
X24188900Y-64600000D02*
X24188900Y-64228500D01*
X24188900Y-64228500D02*
X25028100Y-63389300D01*
X25028100Y-63389300D02*
X26155100Y-63389300D01*
X26155100Y-63389300D02*
X32812200Y-70046400D01*
X32812200Y-70046400D02*
X59586100Y-70046400D01*
X59586100Y-70046400D02*
X61675700Y-72136000D01*
X61675700Y-72136000D02*
X71653700Y-72136000D01*
X71653700Y-72136000D02*
X76479700Y-76962000D01*
X76479700Y-76962000D02*
X80998500Y-76962000D01*
X80998500Y-76962000D02*
X83653900Y-79617400D01*
X83653900Y-79617400D02*
X91382500Y-79617400D01*
X91382500Y-79617400D02*
X92283100Y-80518000D01*
X26728900Y-62060000D02*
X34264900Y-69596000D01*
X34264900Y-69596000D02*
X70941600Y-69596000D01*
X70941600Y-69596000D02*
X75882900Y-74537300D01*
X75882900Y-74537300D02*
X88842400Y-74537300D01*
X88842400Y-74537300D02*
X92283100Y-77978000D01*
X93472000Y-77978000D02*
X92283100Y-77978000D01*
X25540000Y-62060000D02*
X26728900Y-62060000D01*
X24188900Y-62060000D02*
X24188900Y-61688500D01*
X24188900Y-61688500D02*
X25021500Y-60855900D01*
X25021500Y-60855900D02*
X26161700Y-60855900D01*
X26161700Y-60855900D02*
X31983900Y-66678100D01*
X31983900Y-66678100D02*
X70556500Y-66678100D01*
X70556500Y-66678100D02*
X75760400Y-71882000D01*
X75760400Y-71882000D02*
X88727100Y-71882000D01*
X88727100Y-71882000D02*
X92283100Y-75438000D01*
X93472000Y-75438000D02*
X92283100Y-75438000D01*
X23000000Y-62060000D02*
X24188900Y-62060000D01*
X26728900Y-59520000D02*
X33395400Y-66186500D01*
X33395400Y-66186500D02*
X73094900Y-66186500D01*
X73094900Y-66186500D02*
X76184500Y-69276100D01*
X76184500Y-69276100D02*
X86786600Y-69276100D01*
X86786600Y-69276100D02*
X90408500Y-72898000D01*
X90408500Y-72898000D02*
X93472000Y-72898000D01*
X25540000Y-59520000D02*
X26728900Y-59520000D01*
X29174000Y-60917500D02*
X32860200Y-60917500D01*
X32860200Y-60917500D02*
X36646300Y-64703600D01*
X36646300Y-64703600D02*
X76725000Y-64703600D01*
X76725000Y-64703600D02*
X77031200Y-64397400D01*
X77031200Y-64397400D02*
X86322500Y-64397400D01*
X86322500Y-64397400D02*
X92283100Y-70358000D01*
X93472000Y-70358000D02*
X92283100Y-70358000D01*
X26728900Y-56980000D02*
X26859700Y-57110800D01*
X26859700Y-57110800D02*
X55973800Y-57110800D01*
X55973800Y-57110800D02*
X62810100Y-63947100D01*
X62810100Y-63947100D02*
X88412200Y-63947100D01*
X88412200Y-63947100D02*
X92283100Y-67818000D01*
X25540000Y-56980000D02*
X26728900Y-56980000D01*
X93472000Y-67818000D02*
X92283100Y-67818000D01*
X24188900Y-56980000D02*
X24188900Y-56608400D01*
X24188900Y-56608400D02*
X25137100Y-55660200D01*
X25137100Y-55660200D02*
X56433500Y-55660200D01*
X56433500Y-55660200D02*
X63520000Y-62746700D01*
X63520000Y-62746700D02*
X89751800Y-62746700D01*
X89751800Y-62746700D02*
X92283100Y-65278000D01*
X23000000Y-56980000D02*
X24188900Y-56980000D01*
X93472000Y-65278000D02*
X92283100Y-65278000D01*
X26728900Y-54440000D02*
X56547300Y-54440000D01*
X56547300Y-54440000D02*
X64403700Y-62296400D01*
X64403700Y-62296400D02*
X91841500Y-62296400D01*
X91841500Y-62296400D02*
X92283100Y-62738000D01*
X93472000Y-62738000D02*
X92283100Y-62738000D01*
X25540000Y-54440000D02*
X26728900Y-54440000D01*
X24188900Y-54440000D02*
X24188900Y-54068400D01*
X24188900Y-54068400D02*
X25006200Y-53251100D01*
X25006200Y-53251100D02*
X33756700Y-53251100D01*
X33756700Y-53251100D02*
X33799000Y-53293400D01*
X33799000Y-53293400D02*
X56037600Y-53293400D01*
X56037600Y-53293400D02*
X64590300Y-61846100D01*
X64590300Y-61846100D02*
X90635000Y-61846100D01*
X90635000Y-61846100D02*
X92283100Y-60198000D01*
X23000000Y-54440000D02*
X24188900Y-54440000D01*
X93472000Y-60198000D02*
X92283100Y-60198000D01*
X26728900Y-51900000D02*
X33042500Y-51900000D01*
X33042500Y-51900000D02*
X33985600Y-52843100D01*
X33985600Y-52843100D02*
X56224200Y-52843100D01*
X56224200Y-52843100D02*
X64776900Y-61395800D01*
X64776900Y-61395800D02*
X88545300Y-61395800D01*
X88545300Y-61395800D02*
X92283100Y-57658000D01*
X93472000Y-57658000D02*
X92283100Y-57658000D01*
X25540000Y-51900000D02*
X26728900Y-51900000D01*
X93472000Y-55118000D02*
X93472000Y-56306900D01*
X23000000Y-51900000D02*
X24188900Y-51900000D01*
X24188900Y-51900000D02*
X24188900Y-51528500D01*
X24188900Y-51528500D02*
X25028100Y-50689300D01*
X25028100Y-50689300D02*
X32581100Y-50689300D01*
X32581100Y-50689300D02*
X34284600Y-52392800D01*
X34284600Y-52392800D02*
X56410800Y-52392800D01*
X56410800Y-52392800D02*
X64963500Y-60945500D01*
X64963500Y-60945500D02*
X88162100Y-60945500D01*
X88162100Y-60945500D02*
X92800700Y-56306900D01*
X92800700Y-56306900D02*
X93472000Y-56306900D01*
X25540000Y-49360000D02*
X26728900Y-49360000D01*
X48292000Y-36740000D02*
X47166700Y-36740000D01*
X47166700Y-36740000D02*
X47166700Y-37021300D01*
X47166700Y-37021300D02*
X34828100Y-49359900D01*
X34828100Y-49359900D02*
X26728900Y-49359900D01*
X26728900Y-49359900D02*
X26728900Y-49360000D01*
X50832000Y-36740000D02*
X49706700Y-36740000D01*
X23000000Y-49360000D02*
X24188900Y-49360000D01*
X24188900Y-49360000D02*
X24188900Y-48988400D01*
X24188900Y-48988400D02*
X25006200Y-48171100D01*
X25006200Y-48171100D02*
X33437500Y-48171100D01*
X33437500Y-48171100D02*
X44482000Y-37126600D01*
X44482000Y-37126600D02*
X44482000Y-36370500D01*
X44482000Y-36370500D02*
X45237800Y-35614700D01*
X45237800Y-35614700D02*
X48862800Y-35614700D01*
X48862800Y-35614700D02*
X49706700Y-36458600D01*
X49706700Y-36458600D02*
X49706700Y-36740000D01*
X52246700Y-36740000D02*
X52246700Y-36458700D01*
X52246700Y-36458700D02*
X50895100Y-35107100D01*
X50895100Y-35107100D02*
X43220600Y-35107100D01*
X43220600Y-35107100D02*
X41960000Y-36367700D01*
X41960000Y-36367700D02*
X41960000Y-37044000D01*
X41960000Y-37044000D02*
X32184000Y-46820000D01*
X32184000Y-46820000D02*
X25540000Y-46820000D01*
X53372000Y-36740000D02*
X52246700Y-36740000D01*
X55912000Y-36740000D02*
X54786700Y-36740000D01*
X23000000Y-46820000D02*
X24188900Y-46820000D01*
X24188900Y-46820000D02*
X24188900Y-46448400D01*
X24188900Y-46448400D02*
X25006200Y-45631100D01*
X25006200Y-45631100D02*
X30912000Y-45631100D01*
X30912000Y-45631100D02*
X39402000Y-37141100D01*
X39402000Y-37141100D02*
X39402000Y-36377800D01*
X39402000Y-36377800D02*
X41123100Y-34656700D01*
X41123100Y-34656700D02*
X52984700Y-34656700D01*
X52984700Y-34656700D02*
X54786700Y-36458700D01*
X54786700Y-36458700D02*
X54786700Y-36740000D01*
X24351100Y-44280000D02*
X24351100Y-43908500D01*
X24351100Y-43908500D02*
X23512600Y-43070000D01*
X23512600Y-43070000D02*
X22411200Y-43070000D01*
X22411200Y-43070000D02*
X20859800Y-44621400D01*
X20859800Y-44621400D02*
X20859800Y-76861500D01*
X20859800Y-76861500D02*
X22568300Y-78570000D01*
X22568300Y-78570000D02*
X55354300Y-78570000D01*
X55354300Y-78570000D02*
X56582800Y-79798500D01*
X56582800Y-79798500D02*
X56582800Y-86420900D01*
X56582800Y-86420900D02*
X66025800Y-95863900D01*
X66025800Y-95863900D02*
X93366100Y-95863900D01*
X93366100Y-95863900D02*
X96012000Y-93218000D01*
X25540000Y-44280000D02*
X24351100Y-44280000D01*
X23000000Y-45468900D02*
X22628500Y-45468900D01*
X22628500Y-45468900D02*
X21315500Y-46781900D01*
X21315500Y-46781900D02*
X21315500Y-72228100D01*
X21315500Y-72228100D02*
X22577400Y-73490000D01*
X22577400Y-73490000D02*
X26729000Y-73490000D01*
X26729000Y-73490000D02*
X31277900Y-78038900D01*
X31277900Y-78038900D02*
X55460100Y-78038900D01*
X55460100Y-78038900D02*
X57075000Y-79653800D01*
X57075000Y-79653800D02*
X57075000Y-83716400D01*
X57075000Y-83716400D02*
X64077100Y-90718500D01*
X64077100Y-90718500D02*
X81426000Y-90718500D01*
X81426000Y-90718500D02*
X85133000Y-94425500D01*
X85133000Y-94425500D02*
X94048100Y-94425500D01*
X94048100Y-94425500D02*
X94823100Y-93650500D01*
X94823100Y-93650500D02*
X94823100Y-92684200D01*
X94823100Y-92684200D02*
X95640400Y-91866900D01*
X95640400Y-91866900D02*
X96012000Y-91866900D01*
X96012000Y-90678000D02*
X96012000Y-91866900D01*
X23000000Y-44280000D02*
X23000000Y-45468900D01*
X25540000Y-40551100D02*
X25168400Y-40551100D01*
X25168400Y-40551100D02*
X24351100Y-39733800D01*
X24351100Y-39733800D02*
X24351100Y-38847800D01*
X24351100Y-38847800D02*
X23506800Y-38003500D01*
X23506800Y-38003500D02*
X22472000Y-38003500D01*
X22472000Y-38003500D02*
X19879300Y-40596200D01*
X19879300Y-40596200D02*
X19879300Y-98739300D01*
X19879300Y-98739300D02*
X25520800Y-104380800D01*
X25520800Y-104380800D02*
X87281500Y-104380800D01*
X87281500Y-104380800D02*
X97698400Y-93963900D01*
X97698400Y-93963900D02*
X97698400Y-89824400D01*
X97698400Y-89824400D02*
X96012000Y-88138000D01*
X25540000Y-41740000D02*
X25540000Y-40551100D01*
X23000000Y-40388900D02*
X22628500Y-40388900D01*
X22628500Y-40388900D02*
X20384100Y-42633300D01*
X20384100Y-42633300D02*
X20384100Y-91672500D01*
X20384100Y-91672500D02*
X22521600Y-93810000D01*
X22521600Y-93810000D02*
X45310800Y-93810000D01*
X45310800Y-93810000D02*
X47817100Y-96316300D01*
X47817100Y-96316300D02*
X94680500Y-96316300D01*
X94680500Y-96316300D02*
X97201000Y-93795800D01*
X97201000Y-93795800D02*
X97201000Y-90184600D01*
X97201000Y-90184600D02*
X96424400Y-89408000D01*
X96424400Y-89408000D02*
X95523600Y-89408000D01*
X95523600Y-89408000D02*
X94823100Y-88707500D01*
X94823100Y-88707500D02*
X94823100Y-82524200D01*
X94823100Y-82524200D02*
X95640400Y-81706900D01*
X95640400Y-81706900D02*
X96012000Y-81706900D01*
X96012000Y-80518000D02*
X96012000Y-81706900D01*
X23000000Y-39200000D02*
X23000000Y-40388900D01*
X25540000Y-36660000D02*
X26728900Y-36660000D01*
X26728900Y-36660000D02*
X29211200Y-34177700D01*
X29211200Y-34177700D02*
X55000600Y-34177700D01*
X55000600Y-34177700D02*
X62937300Y-42114400D01*
X62937300Y-42114400D02*
X62937300Y-58029800D01*
X62937300Y-58029800D02*
X65276900Y-60369400D01*
X65276900Y-60369400D02*
X87423600Y-60369400D01*
X87423600Y-60369400D02*
X87573500Y-60219500D01*
X96012000Y-75438000D02*
X96012000Y-74249100D01*
X23000000Y-36660000D02*
X23000000Y-35471100D01*
X23000000Y-35471100D02*
X22628500Y-35471100D01*
X22628500Y-35471100D02*
X20873100Y-33715700D01*
X20873100Y-33715700D02*
X20873100Y-25091000D01*
X20873100Y-25091000D02*
X25567600Y-20396500D01*
X25567600Y-20396500D02*
X86488300Y-20396500D01*
X86488300Y-20396500D02*
X99104000Y-33012200D01*
X99104000Y-33012200D02*
X99104000Y-71528600D01*
X99104000Y-71528600D02*
X96383500Y-74249100D01*
X96383500Y-74249100D02*
X96012000Y-74249100D01*
X32206800Y-61857100D02*
X35503600Y-65153900D01*
X35503600Y-65153900D02*
X73069100Y-65153900D01*
X73069100Y-65153900D02*
X74717200Y-66802000D01*
X74717200Y-66802000D02*
X86610700Y-66802000D01*
X86610700Y-66802000D02*
X91517800Y-71709100D01*
X91517800Y-71709100D02*
X94005800Y-71709100D01*
X94005800Y-71709100D02*
X94823100Y-72526400D01*
X94823100Y-72526400D02*
X94823100Y-72898000D01*
X96012000Y-72898000D02*
X94823100Y-72898000D01*
X96012000Y-70358000D02*
X96012000Y-69169100D01*
X23000000Y-34120000D02*
X23000000Y-32931100D01*
X23000000Y-32931100D02*
X22628500Y-32931100D01*
X22628500Y-32931100D02*
X21323500Y-31626100D01*
X21323500Y-31626100D02*
X21323500Y-25277500D01*
X21323500Y-25277500D02*
X23607400Y-22993600D01*
X23607400Y-22993600D02*
X88448500Y-22993600D01*
X88448500Y-22993600D02*
X98653600Y-33198700D01*
X98653600Y-33198700D02*
X98653600Y-66899000D01*
X98653600Y-66899000D02*
X96383500Y-69169100D01*
X96383500Y-69169100D02*
X96012000Y-69169100D01*
X33711900Y-56385500D02*
X56521900Y-56385500D01*
X56521900Y-56385500D02*
X63333400Y-63197000D01*
X63333400Y-63197000D02*
X89357800Y-63197000D01*
X89357800Y-63197000D02*
X92789900Y-66629100D01*
X92789900Y-66629100D02*
X94005800Y-66629100D01*
X94005800Y-66629100D02*
X94823100Y-67446400D01*
X94823100Y-67446400D02*
X94823100Y-67818000D01*
X96012000Y-67818000D02*
X94823100Y-67818000D01*
X23000000Y-30391100D02*
X22628400Y-30391100D01*
X22628400Y-30391100D02*
X21811100Y-29573800D01*
X21811100Y-29573800D02*
X21811100Y-25459200D01*
X21811100Y-25459200D02*
X21968300Y-25302000D01*
X21968300Y-25302000D02*
X29142600Y-25302000D01*
X29142600Y-25302000D02*
X35098400Y-31257800D01*
X35098400Y-31257800D02*
X63152400Y-31257800D01*
X63152400Y-31257800D02*
X64914600Y-33020000D01*
X64914600Y-33020000D02*
X83147100Y-33020000D01*
X83147100Y-33020000D02*
X83574100Y-33447000D01*
X83574100Y-33447000D02*
X96344500Y-33447000D01*
X96344500Y-33447000D02*
X98148500Y-35251000D01*
X98148500Y-35251000D02*
X98148500Y-62282900D01*
X98148500Y-62282900D02*
X96342300Y-64089100D01*
X96342300Y-64089100D02*
X96012000Y-64089100D01*
X23000000Y-31580000D02*
X23000000Y-30391100D01*
X96012000Y-65278000D02*
X96012000Y-64089100D01*
X24188900Y-29040000D02*
X24188900Y-29411600D01*
X24188900Y-29411600D02*
X25006200Y-30228900D01*
X25006200Y-30228900D02*
X27973800Y-30228900D01*
X27973800Y-30228900D02*
X30353900Y-32609000D01*
X30353900Y-32609000D02*
X54680100Y-32609000D01*
X54680100Y-32609000D02*
X65385300Y-43314200D01*
X65385300Y-43314200D02*
X66704400Y-43314200D01*
X66704400Y-43314200D02*
X68965500Y-45575300D01*
X68965500Y-45575300D02*
X80800500Y-45575300D01*
X80800500Y-45575300D02*
X81821300Y-46596100D01*
X81821300Y-46596100D02*
X81821300Y-52776000D01*
X81821300Y-52776000D02*
X82974300Y-53929000D01*
X82974300Y-53929000D02*
X93982400Y-53929000D01*
X93982400Y-53929000D02*
X94823100Y-54769700D01*
X94823100Y-54769700D02*
X94823100Y-58191800D01*
X94823100Y-58191800D02*
X95640400Y-59009100D01*
X95640400Y-59009100D02*
X96012000Y-59009100D01*
X96012000Y-60198000D02*
X96012000Y-59009100D01*
X23000000Y-29040000D02*
X24188900Y-29040000D01*
X96012000Y-56469100D02*
X96383500Y-56469100D01*
X96383500Y-56469100D02*
X97698100Y-55154500D01*
X97698100Y-55154500D02*
X97698100Y-37285800D01*
X97698100Y-37285800D02*
X96480300Y-36068000D01*
X96480300Y-36068000D02*
X92814600Y-36068000D01*
X92814600Y-36068000D02*
X92306600Y-35560000D01*
X92306600Y-35560000D02*
X65509800Y-35560000D01*
X65509800Y-35560000D02*
X61658000Y-31708200D01*
X61658000Y-31708200D02*
X31937100Y-31708200D01*
X31937100Y-31708200D02*
X26728900Y-26500000D01*
X96012000Y-57658000D02*
X96012000Y-56469100D01*
X25540000Y-26500000D02*
X26728900Y-26500000D01*
X96012000Y-53929100D02*
X96383600Y-53929100D01*
X96383600Y-53929100D02*
X97200900Y-53111800D01*
X97200900Y-53111800D02*
X97200900Y-46979800D01*
X97200900Y-46979800D02*
X96514400Y-46293300D01*
X96514400Y-46293300D02*
X92422800Y-46293300D01*
X92422800Y-46293300D02*
X92357500Y-46358600D01*
X92357500Y-46358600D02*
X91756600Y-46358600D01*
X91756600Y-46358600D02*
X86038000Y-40640000D01*
X86038000Y-40640000D02*
X64425100Y-40640000D01*
X64425100Y-40640000D02*
X55943700Y-32158600D01*
X55943700Y-32158600D02*
X31644800Y-32158600D01*
X31644800Y-32158600D02*
X27175100Y-27688900D01*
X27175100Y-27688900D02*
X25006200Y-27688900D01*
X25006200Y-27688900D02*
X24188900Y-26871600D01*
X24188900Y-26871600D02*
X24188900Y-26500000D01*
X96012000Y-55118000D02*
X96012000Y-53929100D01*
X23000000Y-26500000D02*
X24188900Y-26500000D01*
X94823100Y-50038000D02*
X94823100Y-49666500D01*
X94823100Y-49666500D02*
X94004000Y-48847400D01*
X94004000Y-48847400D02*
X92133400Y-48847400D01*
X92133400Y-48847400D02*
X89128700Y-51852100D01*
X89128700Y-51852100D02*
X85579000Y-51852100D01*
X85579000Y-51852100D02*
X85122600Y-51395700D01*
X85122600Y-51395700D02*
X84150600Y-51395700D01*
X96012000Y-50038000D02*
X94823100Y-50038000D01*
X92283100Y-50038000D02*
X89936600Y-52384500D01*
X89936600Y-52384500D02*
X84853700Y-52384500D01*
X93472000Y-50038000D02*
X92283100Y-50038000D01*
X92283100Y-47498000D02*
X88654400Y-51126700D01*
X88654400Y-51126700D02*
X85879500Y-51126700D01*
X93472000Y-47498000D02*
X92283100Y-47498000D01*
X96012000Y-42418000D02*
X94823100Y-42418000D01*
X94823100Y-42418000D02*
X94823100Y-42789600D01*
X94823100Y-42789600D02*
X94005800Y-43606900D01*
X94005800Y-43606900D02*
X93070700Y-43606900D01*
X93070700Y-43606900D02*
X92057000Y-44620600D01*
X92057000Y-44620600D02*
X92057000Y-45633300D01*
X73660000Y-53195300D02*
X73660000Y-57296000D01*
X80796300Y-52179300D02*
X80687000Y-52070000D01*
X80687000Y-52070000D02*
X74785300Y-52070000D01*
X73660000Y-52070000D02*
X73660000Y-53195300D01*
X73660000Y-52070000D02*
X74785300Y-52070000D01*
X73660000Y-49530000D02*
X74785300Y-49530000D01*
X80796300Y-49679300D02*
X74934600Y-49679300D01*
X74934600Y-49679300D02*
X74785300Y-49530000D01*
X73660000Y-49530000D02*
X73660000Y-50655300D01*
X70049000Y-57296000D02*
X70049000Y-53985000D01*
X70049000Y-53985000D02*
X73378700Y-50655300D01*
X73378700Y-50655300D02*
X73660000Y-50655300D01*
X73660000Y-46990000D02*
X73660000Y-48115300D01*
X66549000Y-57296000D02*
X66549000Y-55049400D01*
X66549000Y-55049400D02*
X73483100Y-48115300D01*
X73483100Y-48115300D02*
X73660000Y-48115300D01*
X73660000Y-46990000D02*
X74785300Y-46990000D01*
X80796300Y-47179300D02*
X74974600Y-47179300D01*
X74974600Y-47179300D02*
X74785300Y-46990000D01*
X50832000Y-29120000D02*
X51957300Y-29120000D01*
X51957300Y-29120000D02*
X51957300Y-28838700D01*
X51957300Y-28838700D02*
X56666000Y-24130000D01*
X56666000Y-24130000D02*
X66040000Y-24130000D01*
X108204000Y-91623000D02*
X109250400Y-90576600D01*
X109250400Y-90576600D02*
X109250400Y-47071100D01*
X109250400Y-47071100D02*
X107241900Y-45062600D01*
X104648000Y-91623000D02*
X108204000Y-91623000D01*
X57919600Y-72401000D02*
X56522700Y-71004100D01*
X56522700Y-71004100D02*
X45189500Y-71004100D01*
X45189500Y-71004100D02*
X43837300Y-72356300D01*
X43837300Y-72356300D02*
X43837300Y-72620000D01*
X42712000Y-72620000D02*
X43837300Y-72620000D01*
X70612000Y-78486000D02*
X69486700Y-78486000D01*
X45252000Y-72620000D02*
X46377300Y-72620000D01*
X46377300Y-72620000D02*
X46377300Y-72338700D01*
X46377300Y-72338700D02*
X47241500Y-71474500D01*
X47241500Y-71474500D02*
X56338600Y-71474500D01*
X56338600Y-71474500D02*
X56680100Y-71816000D01*
X56680100Y-71816000D02*
X56680100Y-72266600D01*
X56680100Y-72266600D02*
X57934900Y-73521400D01*
X57934900Y-73521400D02*
X58266700Y-73521400D01*
X58266700Y-73521400D02*
X62106000Y-77360700D01*
X62106000Y-77360700D02*
X68361400Y-77360700D01*
X68361400Y-77360700D02*
X69486700Y-78486000D01*
X48917300Y-72620000D02*
X48917300Y-72901300D01*
X48917300Y-72901300D02*
X51884400Y-75868400D01*
X51884400Y-75868400D02*
X55995200Y-75868400D01*
X55995200Y-75868400D02*
X62567500Y-82440700D01*
X62567500Y-82440700D02*
X68361400Y-82440700D01*
X68361400Y-82440700D02*
X69486700Y-83566000D01*
X70612000Y-83566000D02*
X69486700Y-83566000D01*
X47792000Y-72620000D02*
X48917300Y-72620000D01*
X51457300Y-72620000D02*
X51457300Y-72901300D01*
X51457300Y-72901300D02*
X53925800Y-75369800D01*
X53925800Y-75369800D02*
X56210500Y-75369800D01*
X56210500Y-75369800D02*
X61866700Y-81026000D01*
X62992000Y-81026000D02*
X61866700Y-81026000D01*
X50332000Y-72620000D02*
X51457300Y-72620000D01*
X58706400Y-75013400D02*
X58435600Y-74742600D01*
X58435600Y-74742600D02*
X55423900Y-74742600D01*
X55423900Y-74742600D02*
X53997300Y-73316000D01*
X53997300Y-73316000D02*
X53997300Y-72620000D01*
X52872000Y-72620000D02*
X53997300Y-72620000D01*
D24*
G36*
X112340001Y-112340000D02*
G01*
X13660000Y-112340000D01*
X13660000Y-107737323D01*
X15333000Y-107737323D01*
X15333000Y-108262677D01*
X15435492Y-108777935D01*
X15636536Y-109263298D01*
X15928406Y-109700113D01*
X16299887Y-110071594D01*
X16736702Y-110363464D01*
X17222065Y-110564508D01*
X17737323Y-110667000D01*
X18262677Y-110667000D01*
X18777935Y-110564508D01*
X19263298Y-110363464D01*
X19700113Y-110071594D01*
X20071594Y-109700113D01*
X20136262Y-109603330D01*
X51297278Y-109603330D01*
X51387147Y-109849123D01*
X51523241Y-110072660D01*
X51700330Y-110265351D01*
X51911608Y-110419792D01*
X52148956Y-110530047D01*
X52256671Y-110562716D01*
X52463000Y-110439374D01*
X52463000Y-109397000D01*
X52717000Y-109397000D01*
X52717000Y-110439374D01*
X52923329Y-110562716D01*
X53031044Y-110530047D01*
X53268392Y-110419792D01*
X53479670Y-110265351D01*
X53656759Y-110072660D01*
X53792853Y-109849123D01*
X53882722Y-109603330D01*
X58547278Y-109603330D01*
X58637147Y-109849123D01*
X58773241Y-110072660D01*
X58950330Y-110265351D01*
X59161608Y-110419792D01*
X59398956Y-110530047D01*
X59506671Y-110562716D01*
X59713000Y-110439374D01*
X59713000Y-109397000D01*
X59967000Y-109397000D01*
X59967000Y-110439374D01*
X60173329Y-110562716D01*
X60281044Y-110530047D01*
X60518392Y-110419792D01*
X60729670Y-110265351D01*
X60906759Y-110072660D01*
X61042853Y-109849123D01*
X61132722Y-109603330D01*
X65297278Y-109603330D01*
X65387147Y-109849123D01*
X65523241Y-110072660D01*
X65700330Y-110265351D01*
X65911608Y-110419792D01*
X66148956Y-110530047D01*
X66256671Y-110562716D01*
X66463000Y-110439374D01*
X66463000Y-109397000D01*
X66717000Y-109397000D01*
X66717000Y-110439374D01*
X66923329Y-110562716D01*
X67031044Y-110530047D01*
X67268392Y-110419792D01*
X67479670Y-110265351D01*
X67656759Y-110072660D01*
X67792853Y-109849123D01*
X67882722Y-109603330D01*
X72547278Y-109603330D01*
X72637147Y-109849123D01*
X72773241Y-110072660D01*
X72950330Y-110265351D01*
X73161608Y-110419792D01*
X73398956Y-110530047D01*
X73506671Y-110562716D01*
X73713000Y-110439374D01*
X73713000Y-109397000D01*
X73967000Y-109397000D01*
X73967000Y-110439374D01*
X74173329Y-110562716D01*
X74281044Y-110530047D01*
X74518392Y-110419792D01*
X74729670Y-110265351D01*
X74906759Y-110072660D01*
X75042853Y-109849123D01*
X75132722Y-109603330D01*
X79797278Y-109603330D01*
X79887147Y-109849123D01*
X80023241Y-110072660D01*
X80200330Y-110265351D01*
X80411608Y-110419792D01*
X80648956Y-110530047D01*
X80756671Y-110562716D01*
X80963000Y-110439374D01*
X80963000Y-109397000D01*
X81217000Y-109397000D01*
X81217000Y-110439374D01*
X81423329Y-110562716D01*
X81531044Y-110530047D01*
X81768392Y-110419792D01*
X81979670Y-110265351D01*
X82156759Y-110072660D01*
X82292853Y-109849123D01*
X82382722Y-109603330D01*
X82260201Y-109397000D01*
X81217000Y-109397000D01*
X80963000Y-109397000D01*
X79919799Y-109397000D01*
X79797278Y-109603330D01*
X75132722Y-109603330D01*
X75010201Y-109397000D01*
X73967000Y-109397000D01*
X73713000Y-109397000D01*
X72669799Y-109397000D01*
X72547278Y-109603330D01*
X67882722Y-109603330D01*
X67760201Y-109397000D01*
X66717000Y-109397000D01*
X66463000Y-109397000D01*
X65419799Y-109397000D01*
X65297278Y-109603330D01*
X61132722Y-109603330D01*
X61010201Y-109397000D01*
X59967000Y-109397000D01*
X59713000Y-109397000D01*
X58669799Y-109397000D01*
X58547278Y-109603330D01*
X53882722Y-109603330D01*
X53760201Y-109397000D01*
X52717000Y-109397000D01*
X52463000Y-109397000D01*
X51419799Y-109397000D01*
X51297278Y-109603330D01*
X20136262Y-109603330D01*
X20363464Y-109263298D01*
X20564508Y-108777935D01*
X20667000Y-108262677D01*
X20667000Y-107737323D01*
X20564508Y-107222065D01*
X20363464Y-106736702D01*
X20271130Y-106598514D01*
X51255000Y-106598514D01*
X51255000Y-106861486D01*
X51306304Y-107119405D01*
X51406939Y-107362359D01*
X51553038Y-107581013D01*
X51738987Y-107766962D01*
X51957641Y-107913061D01*
X52173550Y-108002494D01*
X52148956Y-108009953D01*
X51911608Y-108120208D01*
X51700330Y-108274649D01*
X51523241Y-108467340D01*
X51387147Y-108690877D01*
X51297278Y-108936670D01*
X51419799Y-109143000D01*
X52463000Y-109143000D01*
X52463000Y-109123000D01*
X52717000Y-109123000D01*
X52717000Y-109143000D01*
X53760201Y-109143000D01*
X53882722Y-108936670D01*
X53792853Y-108690877D01*
X53656759Y-108467340D01*
X53479670Y-108274649D01*
X53268392Y-108120208D01*
X53031044Y-108009953D01*
X53006450Y-108002494D01*
X53222359Y-107913061D01*
X53441013Y-107766962D01*
X53626962Y-107581013D01*
X53773061Y-107362359D01*
X53873696Y-107119405D01*
X53925000Y-106861486D01*
X53925000Y-106598514D01*
X58505000Y-106598514D01*
X58505000Y-106861486D01*
X58556304Y-107119405D01*
X58656939Y-107362359D01*
X58803038Y-107581013D01*
X58988987Y-107766962D01*
X59207641Y-107913061D01*
X59423550Y-108002494D01*
X59398956Y-108009953D01*
X59161608Y-108120208D01*
X58950330Y-108274649D01*
X58773241Y-108467340D01*
X58637147Y-108690877D01*
X58547278Y-108936670D01*
X58669799Y-109143000D01*
X59713000Y-109143000D01*
X59713000Y-109123000D01*
X59967000Y-109123000D01*
X59967000Y-109143000D01*
X61010201Y-109143000D01*
X61132722Y-108936670D01*
X61042853Y-108690877D01*
X60906759Y-108467340D01*
X60729670Y-108274649D01*
X60518392Y-108120208D01*
X60281044Y-108009953D01*
X60256450Y-108002494D01*
X60472359Y-107913061D01*
X60691013Y-107766962D01*
X60876962Y-107581013D01*
X61023061Y-107362359D01*
X61123696Y-107119405D01*
X61175000Y-106861486D01*
X61175000Y-106598514D01*
X65255000Y-106598514D01*
X65255000Y-106861486D01*
X65306304Y-107119405D01*
X65406939Y-107362359D01*
X65553038Y-107581013D01*
X65738987Y-107766962D01*
X65957641Y-107913061D01*
X66173550Y-108002494D01*
X66148956Y-108009953D01*
X65911608Y-108120208D01*
X65700330Y-108274649D01*
X65523241Y-108467340D01*
X65387147Y-108690877D01*
X65297278Y-108936670D01*
X65419799Y-109143000D01*
X66463000Y-109143000D01*
X66463000Y-109123000D01*
X66717000Y-109123000D01*
X66717000Y-109143000D01*
X67760201Y-109143000D01*
X67882722Y-108936670D01*
X67792853Y-108690877D01*
X67656759Y-108467340D01*
X67479670Y-108274649D01*
X67268392Y-108120208D01*
X67031044Y-108009953D01*
X67006450Y-108002494D01*
X67222359Y-107913061D01*
X67441013Y-107766962D01*
X67626962Y-107581013D01*
X67773061Y-107362359D01*
X67873696Y-107119405D01*
X67925000Y-106861486D01*
X67925000Y-106598514D01*
X72505000Y-106598514D01*
X72505000Y-106861486D01*
X72556304Y-107119405D01*
X72656939Y-107362359D01*
X72803038Y-107581013D01*
X72988987Y-107766962D01*
X73207641Y-107913061D01*
X73423550Y-108002494D01*
X73398956Y-108009953D01*
X73161608Y-108120208D01*
X72950330Y-108274649D01*
X72773241Y-108467340D01*
X72637147Y-108690877D01*
X72547278Y-108936670D01*
X72669799Y-109143000D01*
X73713000Y-109143000D01*
X73713000Y-109123000D01*
X73967000Y-109123000D01*
X73967000Y-109143000D01*
X75010201Y-109143000D01*
X75132722Y-108936670D01*
X75042853Y-108690877D01*
X74906759Y-108467340D01*
X74729670Y-108274649D01*
X74518392Y-108120208D01*
X74281044Y-108009953D01*
X74256450Y-108002494D01*
X74472359Y-107913061D01*
X74691013Y-107766962D01*
X74876962Y-107581013D01*
X75023061Y-107362359D01*
X75123696Y-107119405D01*
X75175000Y-106861486D01*
X75175000Y-106598514D01*
X79755000Y-106598514D01*
X79755000Y-106861486D01*
X79806304Y-107119405D01*
X79906939Y-107362359D01*
X80053038Y-107581013D01*
X80238987Y-107766962D01*
X80457641Y-107913061D01*
X80673550Y-108002494D01*
X80648956Y-108009953D01*
X80411608Y-108120208D01*
X80200330Y-108274649D01*
X80023241Y-108467340D01*
X79887147Y-108690877D01*
X79797278Y-108936670D01*
X79919799Y-109143000D01*
X80963000Y-109143000D01*
X80963000Y-109123000D01*
X81217000Y-109123000D01*
X81217000Y-109143000D01*
X82260201Y-109143000D01*
X82382722Y-108936670D01*
X82292853Y-108690877D01*
X82156759Y-108467340D01*
X81979670Y-108274649D01*
X81768392Y-108120208D01*
X81531044Y-108009953D01*
X81506450Y-108002494D01*
X81722359Y-107913061D01*
X81941013Y-107766962D01*
X81970652Y-107737323D01*
X105333000Y-107737323D01*
X105333000Y-108262677D01*
X105435492Y-108777935D01*
X105636536Y-109263298D01*
X105928406Y-109700113D01*
X106299887Y-110071594D01*
X106736702Y-110363464D01*
X107222065Y-110564508D01*
X107737323Y-110667000D01*
X108262677Y-110667000D01*
X108777935Y-110564508D01*
X109263298Y-110363464D01*
X109700113Y-110071594D01*
X110071594Y-109700113D01*
X110363464Y-109263298D01*
X110564508Y-108777935D01*
X110667000Y-108262677D01*
X110667000Y-107737323D01*
X110564508Y-107222065D01*
X110363464Y-106736702D01*
X110071594Y-106299887D01*
X109700113Y-105928406D01*
X109263298Y-105636536D01*
X108777935Y-105435492D01*
X108262677Y-105333000D01*
X107737323Y-105333000D01*
X107222065Y-105435492D01*
X106736702Y-105636536D01*
X106299887Y-105928406D01*
X105928406Y-106299887D01*
X105636536Y-106736702D01*
X105435492Y-107222065D01*
X105333000Y-107737323D01*
X81970652Y-107737323D01*
X82126962Y-107581013D01*
X82273061Y-107362359D01*
X82373696Y-107119405D01*
X82425000Y-106861486D01*
X82425000Y-106598514D01*
X82373696Y-106340595D01*
X82273061Y-106097641D01*
X82126962Y-105878987D01*
X81941013Y-105693038D01*
X81722359Y-105546939D01*
X81479405Y-105446304D01*
X81221486Y-105395000D01*
X80958514Y-105395000D01*
X80700595Y-105446304D01*
X80457641Y-105546939D01*
X80238987Y-105693038D01*
X80053038Y-105878987D01*
X79906939Y-106097641D01*
X79806304Y-106340595D01*
X79755000Y-106598514D01*
X75175000Y-106598514D01*
X75123696Y-106340595D01*
X75023061Y-106097641D01*
X74876962Y-105878987D01*
X74691013Y-105693038D01*
X74472359Y-105546939D01*
X74229405Y-105446304D01*
X73971486Y-105395000D01*
X73708514Y-105395000D01*
X73450595Y-105446304D01*
X73207641Y-105546939D01*
X72988987Y-105693038D01*
X72803038Y-105878987D01*
X72656939Y-106097641D01*
X72556304Y-106340595D01*
X72505000Y-106598514D01*
X67925000Y-106598514D01*
X67873696Y-106340595D01*
X67773061Y-106097641D01*
X67626962Y-105878987D01*
X67441013Y-105693038D01*
X67222359Y-105546939D01*
X66979405Y-105446304D01*
X66721486Y-105395000D01*
X66458514Y-105395000D01*
X66200595Y-105446304D01*
X65957641Y-105546939D01*
X65738987Y-105693038D01*
X65553038Y-105878987D01*
X65406939Y-106097641D01*
X65306304Y-106340595D01*
X65255000Y-106598514D01*
X61175000Y-106598514D01*
X61123696Y-106340595D01*
X61023061Y-106097641D01*
X60876962Y-105878987D01*
X60691013Y-105693038D01*
X60472359Y-105546939D01*
X60229405Y-105446304D01*
X59971486Y-105395000D01*
X59708514Y-105395000D01*
X59450595Y-105446304D01*
X59207641Y-105546939D01*
X58988987Y-105693038D01*
X58803038Y-105878987D01*
X58656939Y-106097641D01*
X58556304Y-106340595D01*
X58505000Y-106598514D01*
X53925000Y-106598514D01*
X53873696Y-106340595D01*
X53773061Y-106097641D01*
X53626962Y-105878987D01*
X53441013Y-105693038D01*
X53222359Y-105546939D01*
X52979405Y-105446304D01*
X52721486Y-105395000D01*
X52458514Y-105395000D01*
X52200595Y-105446304D01*
X51957641Y-105546939D01*
X51738987Y-105693038D01*
X51553038Y-105878987D01*
X51406939Y-106097641D01*
X51306304Y-106340595D01*
X51255000Y-106598514D01*
X20271130Y-106598514D01*
X20071594Y-106299887D01*
X19700113Y-105928406D01*
X19263298Y-105636536D01*
X18777935Y-105435492D01*
X18262677Y-105333000D01*
X17737323Y-105333000D01*
X17222065Y-105435492D01*
X16736702Y-105636536D01*
X16299887Y-105928406D01*
X15928406Y-106299887D01*
X15636536Y-106736702D01*
X15435492Y-107222065D01*
X15333000Y-107737323D01*
X13660000Y-107737323D01*
X13660000Y-40596200D01*
X19115624Y-40596200D01*
X19119300Y-40633522D01*
X19119301Y-98701967D01*
X19115624Y-98739300D01*
X19130298Y-98888285D01*
X19173754Y-99031546D01*
X19244326Y-99163576D01*
X19287406Y-99216068D01*
X19339300Y-99279301D01*
X19368298Y-99303099D01*
X24957001Y-104891803D01*
X24980799Y-104920801D01*
X25096524Y-105015774D01*
X25228553Y-105086346D01*
X25371814Y-105129803D01*
X25483467Y-105140800D01*
X25483477Y-105140800D01*
X25520800Y-105144476D01*
X25558123Y-105140800D01*
X87244178Y-105140800D01*
X87281500Y-105144476D01*
X87318822Y-105140800D01*
X87318833Y-105140800D01*
X87430486Y-105129803D01*
X87573747Y-105086346D01*
X87705776Y-105015774D01*
X87821501Y-104920801D01*
X87845304Y-104891797D01*
X98209404Y-94527698D01*
X98238401Y-94503901D01*
X98333374Y-94388176D01*
X98403946Y-94256147D01*
X98447403Y-94112886D01*
X98458400Y-94001233D01*
X98458400Y-94001224D01*
X98462076Y-93963901D01*
X98458400Y-93926578D01*
X98458400Y-89861725D01*
X98462076Y-89824400D01*
X98458400Y-89787075D01*
X98458400Y-89787067D01*
X98447403Y-89675414D01*
X98403946Y-89532153D01*
X98333374Y-89400124D01*
X98238401Y-89284399D01*
X98209403Y-89260601D01*
X97464776Y-88515974D01*
X97510600Y-88285599D01*
X97510600Y-87990401D01*
X97453010Y-87700875D01*
X97340042Y-87428147D01*
X97176039Y-87182698D01*
X96967302Y-86973961D01*
X96808719Y-86868000D01*
X96967302Y-86762039D01*
X97176039Y-86553302D01*
X97340042Y-86307853D01*
X97453010Y-86035125D01*
X97510600Y-85745599D01*
X97510600Y-85450401D01*
X97453010Y-85160875D01*
X97340042Y-84888147D01*
X97176039Y-84642698D01*
X96967302Y-84433961D01*
X96808719Y-84328000D01*
X96967302Y-84222039D01*
X97176039Y-84013302D01*
X97340042Y-83767853D01*
X97453010Y-83495125D01*
X97510600Y-83205599D01*
X97510600Y-82910401D01*
X97453010Y-82620875D01*
X97340042Y-82348147D01*
X97176039Y-82102698D01*
X96967302Y-81893961D01*
X96808719Y-81788000D01*
X96967302Y-81682039D01*
X97176039Y-81473302D01*
X97340042Y-81227853D01*
X97453010Y-80955125D01*
X97510600Y-80665599D01*
X97510600Y-80370401D01*
X97453010Y-80080875D01*
X97340042Y-79808147D01*
X97176039Y-79562698D01*
X96967302Y-79353961D01*
X96808719Y-79248000D01*
X96967302Y-79142039D01*
X97176039Y-78933302D01*
X97340042Y-78687853D01*
X97453010Y-78415125D01*
X97510600Y-78125599D01*
X97510600Y-77830401D01*
X97453010Y-77540875D01*
X97340042Y-77268147D01*
X97192407Y-77047194D01*
X102926801Y-71312801D01*
X102926800Y-88574478D01*
X102923124Y-88611800D01*
X102926800Y-88649122D01*
X102926800Y-88649132D01*
X102937797Y-88760785D01*
X102974156Y-88880646D01*
X102981254Y-88904046D01*
X103051826Y-89036076D01*
X103072054Y-89060723D01*
X103146799Y-89151801D01*
X103175802Y-89175604D01*
X103309928Y-89309729D01*
X103309928Y-89898001D01*
X103326992Y-90071255D01*
X103377528Y-90237851D01*
X103459595Y-90391387D01*
X103570038Y-90525962D01*
X103657816Y-90598000D01*
X103570038Y-90670038D01*
X103459595Y-90804613D01*
X103377528Y-90958149D01*
X103326992Y-91124745D01*
X103309928Y-91297999D01*
X103309928Y-91948001D01*
X103326992Y-92121255D01*
X103377528Y-92287851D01*
X103459595Y-92441387D01*
X103570038Y-92575962D01*
X103704613Y-92686405D01*
X103858149Y-92768472D01*
X104024745Y-92819008D01*
X104197999Y-92836072D01*
X105098001Y-92836072D01*
X105271255Y-92819008D01*
X105437851Y-92768472D01*
X105591387Y-92686405D01*
X105725962Y-92575962D01*
X105836405Y-92441387D01*
X105867614Y-92383000D01*
X106984386Y-92383000D01*
X107015595Y-92441387D01*
X107126038Y-92575962D01*
X107260613Y-92686405D01*
X107414149Y-92768472D01*
X107580745Y-92819008D01*
X107753999Y-92836072D01*
X108654001Y-92836072D01*
X108827255Y-92819008D01*
X108993851Y-92768472D01*
X109147387Y-92686405D01*
X109281962Y-92575962D01*
X109392405Y-92441387D01*
X109474472Y-92287851D01*
X109525008Y-92121255D01*
X109542072Y-91948001D01*
X109542072Y-91359730D01*
X109761404Y-91140398D01*
X109790401Y-91116601D01*
X109852117Y-91041400D01*
X109885374Y-91000877D01*
X109955946Y-90868847D01*
X109975431Y-90804613D01*
X109999403Y-90725586D01*
X110010400Y-90613933D01*
X110010400Y-90613924D01*
X110014076Y-90576601D01*
X110010400Y-90539278D01*
X110010400Y-47108423D01*
X110014076Y-47071100D01*
X110010400Y-47033777D01*
X110010400Y-47033767D01*
X109999403Y-46922114D01*
X109955946Y-46778853D01*
X109885374Y-46646823D01*
X109814199Y-46560097D01*
X109790401Y-46531099D01*
X109761403Y-46507301D01*
X108276900Y-45022799D01*
X108276900Y-44960661D01*
X108237126Y-44760702D01*
X108159105Y-44572344D01*
X108045837Y-44402826D01*
X107901674Y-44258663D01*
X107732156Y-44145395D01*
X107543798Y-44067374D01*
X107343839Y-44027600D01*
X107139961Y-44027600D01*
X106940002Y-44067374D01*
X106751644Y-44145395D01*
X106582126Y-44258663D01*
X106437963Y-44402826D01*
X106324695Y-44572344D01*
X106246674Y-44760702D01*
X106206900Y-44960661D01*
X106206900Y-45164539D01*
X106246674Y-45364498D01*
X106324695Y-45552856D01*
X106437963Y-45722374D01*
X106582126Y-45866537D01*
X106751644Y-45979805D01*
X106940002Y-46057826D01*
X107139961Y-46097600D01*
X107202099Y-46097600D01*
X108490401Y-47385903D01*
X108490401Y-54991101D01*
X108330488Y-54847183D01*
X108077978Y-54697036D01*
X107801027Y-54599037D01*
X107569000Y-54719536D01*
X107569000Y-55927000D01*
X107589000Y-55927000D01*
X107589000Y-56181000D01*
X107569000Y-56181000D01*
X107569000Y-56201000D01*
X107315000Y-56201000D01*
X107315000Y-56181000D01*
X105029000Y-56181000D01*
X105029000Y-58467000D01*
X105049000Y-58467000D01*
X105049000Y-58721000D01*
X105029000Y-58721000D01*
X105029000Y-61007000D01*
X105049000Y-61007000D01*
X105049000Y-61261000D01*
X105029000Y-61261000D01*
X105029000Y-61281000D01*
X104775000Y-61281000D01*
X104775000Y-61261000D01*
X103568183Y-61261000D01*
X103447042Y-61493026D01*
X103492778Y-61643814D01*
X103619316Y-61908944D01*
X103795146Y-62144293D01*
X104013512Y-62340817D01*
X104112103Y-62399441D01*
X103946698Y-62509961D01*
X103737961Y-62718698D01*
X103573958Y-62964147D01*
X103460990Y-63236875D01*
X103403400Y-63526401D01*
X103403400Y-63821599D01*
X103460990Y-64111125D01*
X103573958Y-64383853D01*
X103737961Y-64629302D01*
X103946698Y-64838039D01*
X104105281Y-64944000D01*
X103946698Y-65049961D01*
X103737961Y-65258698D01*
X103573958Y-65504147D01*
X103460990Y-65776875D01*
X103403400Y-66066401D01*
X103403400Y-66361599D01*
X103460990Y-66651125D01*
X103573958Y-66923853D01*
X103718429Y-67140070D01*
X103202098Y-67656401D01*
X103173100Y-67680199D01*
X103149302Y-67709197D01*
X103149301Y-67709198D01*
X103078126Y-67795924D01*
X103007554Y-67927954D01*
X102984184Y-68004997D01*
X102964098Y-68071214D01*
X102953101Y-68182867D01*
X102949424Y-68220200D01*
X102953101Y-68257532D01*
X102953100Y-69136898D01*
X97346430Y-74743569D01*
X97340042Y-74728147D01*
X97195531Y-74511870D01*
X99615003Y-72092399D01*
X99644001Y-72068601D01*
X99678842Y-72026147D01*
X99738974Y-71952877D01*
X99809546Y-71820847D01*
X99821905Y-71780103D01*
X99853003Y-71677586D01*
X99864000Y-71565933D01*
X99864000Y-71565923D01*
X99867676Y-71528600D01*
X99864000Y-71491278D01*
X99864000Y-58953026D01*
X103447042Y-58953026D01*
X103492778Y-59103814D01*
X103619316Y-59368944D01*
X103795146Y-59604293D01*
X104013512Y-59800817D01*
X104119770Y-59864000D01*
X104013512Y-59927183D01*
X103795146Y-60123707D01*
X103619316Y-60359056D01*
X103492778Y-60624186D01*
X103447042Y-60774974D01*
X103568183Y-61007000D01*
X104775000Y-61007000D01*
X104775000Y-58721000D01*
X103568183Y-58721000D01*
X103447042Y-58953026D01*
X99864000Y-58953026D01*
X99864000Y-56917600D01*
X103400328Y-56917600D01*
X103412588Y-57042082D01*
X103448898Y-57161780D01*
X103507863Y-57272094D01*
X103587215Y-57368785D01*
X103683906Y-57448137D01*
X103794220Y-57507102D01*
X103858574Y-57526624D01*
X103795146Y-57583707D01*
X103619316Y-57819056D01*
X103492778Y-58084186D01*
X103447042Y-58234974D01*
X103568183Y-58467000D01*
X104775000Y-58467000D01*
X104775000Y-56181000D01*
X103562150Y-56181000D01*
X103403400Y-56339750D01*
X103400328Y-56917600D01*
X99864000Y-56917600D01*
X99864000Y-55190400D01*
X103400328Y-55190400D01*
X103403400Y-55768250D01*
X103562150Y-55927000D01*
X104775000Y-55927000D01*
X104775000Y-54714150D01*
X105029000Y-54714150D01*
X105029000Y-55927000D01*
X107315000Y-55927000D01*
X107315000Y-54719536D01*
X107082973Y-54599037D01*
X106806022Y-54697036D01*
X106553512Y-54847183D01*
X106374053Y-55008692D01*
X106355102Y-54946220D01*
X106296137Y-54835906D01*
X106216785Y-54739215D01*
X106120094Y-54659863D01*
X106009780Y-54600898D01*
X105890082Y-54564588D01*
X105765600Y-54552328D01*
X105187750Y-54555400D01*
X105029000Y-54714150D01*
X104775000Y-54714150D01*
X104616250Y-54555400D01*
X104038400Y-54552328D01*
X103913918Y-54564588D01*
X103794220Y-54600898D01*
X103683906Y-54659863D01*
X103587215Y-54739215D01*
X103507863Y-54835906D01*
X103448898Y-54946220D01*
X103412588Y-55065918D01*
X103400328Y-55190400D01*
X99864000Y-55190400D01*
X99864000Y-33049522D01*
X99867676Y-33012199D01*
X99864000Y-32974876D01*
X99864000Y-32974867D01*
X99853003Y-32863214D01*
X99809546Y-32719953D01*
X99798133Y-32698601D01*
X99738974Y-32587923D01*
X99667799Y-32501197D01*
X99644001Y-32472199D01*
X99615004Y-32448402D01*
X87052104Y-19885503D01*
X87028301Y-19856499D01*
X86912576Y-19761526D01*
X86780547Y-19690954D01*
X86637286Y-19647497D01*
X86525633Y-19636500D01*
X86525622Y-19636500D01*
X86488300Y-19632824D01*
X86450978Y-19636500D01*
X74970296Y-19636500D01*
X75039853Y-19468574D01*
X75095000Y-19191335D01*
X75095000Y-18908665D01*
X75039853Y-18631426D01*
X74931680Y-18370273D01*
X74774637Y-18135241D01*
X74574759Y-17935363D01*
X74339727Y-17778320D01*
X74240752Y-17737323D01*
X105333000Y-17737323D01*
X105333000Y-18262677D01*
X105435492Y-18777935D01*
X105636536Y-19263298D01*
X105928406Y-19700113D01*
X106299887Y-20071594D01*
X106736702Y-20363464D01*
X107222065Y-20564508D01*
X107737323Y-20667000D01*
X108262677Y-20667000D01*
X108777935Y-20564508D01*
X109263298Y-20363464D01*
X109700113Y-20071594D01*
X110071594Y-19700113D01*
X110363464Y-19263298D01*
X110564508Y-18777935D01*
X110667000Y-18262677D01*
X110667000Y-17737323D01*
X110564508Y-17222065D01*
X110363464Y-16736702D01*
X110071594Y-16299887D01*
X109700113Y-15928406D01*
X109263298Y-15636536D01*
X108777935Y-15435492D01*
X108262677Y-15333000D01*
X107737323Y-15333000D01*
X107222065Y-15435492D01*
X106736702Y-15636536D01*
X106299887Y-15928406D01*
X105928406Y-16299887D01*
X105636536Y-16736702D01*
X105435492Y-17222065D01*
X105333000Y-17737323D01*
X74240752Y-17737323D01*
X74078574Y-17670147D01*
X73801335Y-17615000D01*
X73518665Y-17615000D01*
X73241426Y-17670147D01*
X72980273Y-17778320D01*
X72745241Y-17935363D01*
X72545363Y-18135241D01*
X72388320Y-18370273D01*
X72280147Y-18631426D01*
X72225000Y-18908665D01*
X72225000Y-19191335D01*
X72280147Y-19468574D01*
X72349704Y-19636500D01*
X67478072Y-19636500D01*
X67478072Y-18250000D01*
X67465812Y-18125518D01*
X67429502Y-18005820D01*
X67370537Y-17895506D01*
X67291185Y-17798815D01*
X67194494Y-17719463D01*
X67084180Y-17660498D01*
X66964482Y-17624188D01*
X66840000Y-17611928D01*
X65240000Y-17611928D01*
X65115518Y-17624188D01*
X64995820Y-17660498D01*
X64885506Y-17719463D01*
X64788815Y-17798815D01*
X64709463Y-17895506D01*
X64650498Y-18005820D01*
X64614188Y-18125518D01*
X64601928Y-18250000D01*
X64601928Y-19636500D01*
X25604933Y-19636500D01*
X25567600Y-19632823D01*
X25530267Y-19636500D01*
X25418614Y-19647497D01*
X25275353Y-19690954D01*
X25143324Y-19761526D01*
X25027599Y-19856499D01*
X25003801Y-19885497D01*
X20362098Y-24527201D01*
X20333100Y-24550999D01*
X20309302Y-24579997D01*
X20309301Y-24579998D01*
X20238126Y-24666724D01*
X20167554Y-24798754D01*
X20143212Y-24879003D01*
X20124098Y-24942014D01*
X20118249Y-25001400D01*
X20109424Y-25091000D01*
X20113101Y-25128332D01*
X20113100Y-33678378D01*
X20109424Y-33715700D01*
X20113100Y-33753022D01*
X20113100Y-33753032D01*
X20124097Y-33864685D01*
X20150327Y-33951154D01*
X20167554Y-34007946D01*
X20238126Y-34139976D01*
X20277971Y-34188526D01*
X20333099Y-34255701D01*
X20362102Y-34279503D01*
X21816468Y-35733871D01*
X21671958Y-35950147D01*
X21558990Y-36222875D01*
X21501400Y-36512401D01*
X21501400Y-36807599D01*
X21558990Y-37097125D01*
X21671958Y-37369853D01*
X21815708Y-37584990D01*
X19368303Y-40032396D01*
X19339299Y-40056199D01*
X19306100Y-40096653D01*
X19244326Y-40171924D01*
X19207190Y-40241400D01*
X19173754Y-40303954D01*
X19130297Y-40447215D01*
X19119300Y-40558868D01*
X19119300Y-40558878D01*
X19115624Y-40596200D01*
X13660000Y-40596200D01*
X13660000Y-17737323D01*
X15333000Y-17737323D01*
X15333000Y-18262677D01*
X15435492Y-18777935D01*
X15636536Y-19263298D01*
X15928406Y-19700113D01*
X16299887Y-20071594D01*
X16736702Y-20363464D01*
X17222065Y-20564508D01*
X17737323Y-20667000D01*
X18262677Y-20667000D01*
X18777935Y-20564508D01*
X19263298Y-20363464D01*
X19700113Y-20071594D01*
X20071594Y-19700113D01*
X20363464Y-19263298D01*
X20564508Y-18777935D01*
X20667000Y-18262677D01*
X20667000Y-17737323D01*
X20564508Y-17222065D01*
X20363464Y-16736702D01*
X20071594Y-16299887D01*
X19700113Y-15928406D01*
X19263298Y-15636536D01*
X18777935Y-15435492D01*
X18262677Y-15333000D01*
X17737323Y-15333000D01*
X17222065Y-15435492D01*
X16736702Y-15636536D01*
X16299887Y-15928406D01*
X15928406Y-16299887D01*
X15636536Y-16736702D01*
X15435492Y-17222065D01*
X15333000Y-17737323D01*
X13660000Y-17737323D01*
X13660000Y-13660000D01*
X112340000Y-13660000D01*
X112340001Y-112340000D01*
G37*
X112340001Y-112340000D02*
X13660000Y-112340000D01*
X13660000Y-107737323D01*
X15333000Y-107737323D01*
X15333000Y-108262677D01*
X15435492Y-108777935D01*
X15636536Y-109263298D01*
X15928406Y-109700113D01*
X16299887Y-110071594D01*
X16736702Y-110363464D01*
X17222065Y-110564508D01*
X17737323Y-110667000D01*
X18262677Y-110667000D01*
X18777935Y-110564508D01*
X19263298Y-110363464D01*
X19700113Y-110071594D01*
X20071594Y-109700113D01*
X20136262Y-109603330D01*
X51297278Y-109603330D01*
X51387147Y-109849123D01*
X51523241Y-110072660D01*
X51700330Y-110265351D01*
X51911608Y-110419792D01*
X52148956Y-110530047D01*
X52256671Y-110562716D01*
X52463000Y-110439374D01*
X52463000Y-109397000D01*
X52717000Y-109397000D01*
X52717000Y-110439374D01*
X52923329Y-110562716D01*
X53031044Y-110530047D01*
X53268392Y-110419792D01*
X53479670Y-110265351D01*
X53656759Y-110072660D01*
X53792853Y-109849123D01*
X53882722Y-109603330D01*
X58547278Y-109603330D01*
X58637147Y-109849123D01*
X58773241Y-110072660D01*
X58950330Y-110265351D01*
X59161608Y-110419792D01*
X59398956Y-110530047D01*
X59506671Y-110562716D01*
X59713000Y-110439374D01*
X59713000Y-109397000D01*
X59967000Y-109397000D01*
X59967000Y-110439374D01*
X60173329Y-110562716D01*
X60281044Y-110530047D01*
X60518392Y-110419792D01*
X60729670Y-110265351D01*
X60906759Y-110072660D01*
X61042853Y-109849123D01*
X61132722Y-109603330D01*
X65297278Y-109603330D01*
X65387147Y-109849123D01*
X65523241Y-110072660D01*
X65700330Y-110265351D01*
X65911608Y-110419792D01*
X66148956Y-110530047D01*
X66256671Y-110562716D01*
X66463000Y-110439374D01*
X66463000Y-109397000D01*
X66717000Y-109397000D01*
X66717000Y-110439374D01*
X66923329Y-110562716D01*
X67031044Y-110530047D01*
X67268392Y-110419792D01*
X67479670Y-110265351D01*
X67656759Y-110072660D01*
X67792853Y-109849123D01*
X67882722Y-109603330D01*
X72547278Y-109603330D01*
X72637147Y-109849123D01*
X72773241Y-110072660D01*
X72950330Y-110265351D01*
X73161608Y-110419792D01*
X73398956Y-110530047D01*
X73506671Y-110562716D01*
X73713000Y-110439374D01*
X73713000Y-109397000D01*
X73967000Y-109397000D01*
X73967000Y-110439374D01*
X74173329Y-110562716D01*
X74281044Y-110530047D01*
X74518392Y-110419792D01*
X74729670Y-110265351D01*
X74906759Y-110072660D01*
X75042853Y-109849123D01*
X75132722Y-109603330D01*
X79797278Y-109603330D01*
X79887147Y-109849123D01*
X80023241Y-110072660D01*
X80200330Y-110265351D01*
X80411608Y-110419792D01*
X80648956Y-110530047D01*
X80756671Y-110562716D01*
X80963000Y-110439374D01*
X80963000Y-109397000D01*
X81217000Y-109397000D01*
X81217000Y-110439374D01*
X81423329Y-110562716D01*
X81531044Y-110530047D01*
X81768392Y-110419792D01*
X81979670Y-110265351D01*
X82156759Y-110072660D01*
X82292853Y-109849123D01*
X82382722Y-109603330D01*
X82260201Y-109397000D01*
X81217000Y-109397000D01*
X80963000Y-109397000D01*
X79919799Y-109397000D01*
X79797278Y-109603330D01*
X75132722Y-109603330D01*
X75010201Y-109397000D01*
X73967000Y-109397000D01*
X73713000Y-109397000D01*
X72669799Y-109397000D01*
X72547278Y-109603330D01*
X67882722Y-109603330D01*
X67760201Y-109397000D01*
X66717000Y-109397000D01*
X66463000Y-109397000D01*
X65419799Y-109397000D01*
X65297278Y-109603330D01*
X61132722Y-109603330D01*
X61010201Y-109397000D01*
X59967000Y-109397000D01*
X59713000Y-109397000D01*
X58669799Y-109397000D01*
X58547278Y-109603330D01*
X53882722Y-109603330D01*
X53760201Y-109397000D01*
X52717000Y-109397000D01*
X52463000Y-109397000D01*
X51419799Y-109397000D01*
X51297278Y-109603330D01*
X20136262Y-109603330D01*
X20363464Y-109263298D01*
X20564508Y-108777935D01*
X20667000Y-108262677D01*
X20667000Y-107737323D01*
X20564508Y-107222065D01*
X20363464Y-106736702D01*
X20271130Y-106598514D01*
X51255000Y-106598514D01*
X51255000Y-106861486D01*
X51306304Y-107119405D01*
X51406939Y-107362359D01*
X51553038Y-107581013D01*
X51738987Y-107766962D01*
X51957641Y-107913061D01*
X52173550Y-108002494D01*
X52148956Y-108009953D01*
X51911608Y-108120208D01*
X51700330Y-108274649D01*
X51523241Y-108467340D01*
X51387147Y-108690877D01*
X51297278Y-108936670D01*
X51419799Y-109143000D01*
X52463000Y-109143000D01*
X52463000Y-109123000D01*
X52717000Y-109123000D01*
X52717000Y-109143000D01*
X53760201Y-109143000D01*
X53882722Y-108936670D01*
X53792853Y-108690877D01*
X53656759Y-108467340D01*
X53479670Y-108274649D01*
X53268392Y-108120208D01*
X53031044Y-108009953D01*
X53006450Y-108002494D01*
X53222359Y-107913061D01*
X53441013Y-107766962D01*
X53626962Y-107581013D01*
X53773061Y-107362359D01*
X53873696Y-107119405D01*
X53925000Y-106861486D01*
X53925000Y-106598514D01*
X58505000Y-106598514D01*
X58505000Y-106861486D01*
X58556304Y-107119405D01*
X58656939Y-107362359D01*
X58803038Y-107581013D01*
X58988987Y-107766962D01*
X59207641Y-107913061D01*
X59423550Y-108002494D01*
X59398956Y-108009953D01*
X59161608Y-108120208D01*
X58950330Y-108274649D01*
X58773241Y-108467340D01*
X58637147Y-108690877D01*
X58547278Y-108936670D01*
X58669799Y-109143000D01*
X59713000Y-109143000D01*
X59713000Y-109123000D01*
X59967000Y-109123000D01*
X59967000Y-109143000D01*
X61010201Y-109143000D01*
X61132722Y-108936670D01*
X61042853Y-108690877D01*
X60906759Y-108467340D01*
X60729670Y-108274649D01*
X60518392Y-108120208D01*
X60281044Y-108009953D01*
X60256450Y-108002494D01*
X60472359Y-107913061D01*
X60691013Y-107766962D01*
X60876962Y-107581013D01*
X61023061Y-107362359D01*
X61123696Y-107119405D01*
X61175000Y-106861486D01*
X61175000Y-106598514D01*
X65255000Y-106598514D01*
X65255000Y-106861486D01*
X65306304Y-107119405D01*
X65406939Y-107362359D01*
X65553038Y-107581013D01*
X65738987Y-107766962D01*
X65957641Y-107913061D01*
X66173550Y-108002494D01*
X66148956Y-108009953D01*
X65911608Y-108120208D01*
X65700330Y-108274649D01*
X65523241Y-108467340D01*
X65387147Y-108690877D01*
X65297278Y-108936670D01*
X65419799Y-109143000D01*
X66463000Y-109143000D01*
X66463000Y-109123000D01*
X66717000Y-109123000D01*
X66717000Y-109143000D01*
X67760201Y-109143000D01*
X67882722Y-108936670D01*
X67792853Y-108690877D01*
X67656759Y-108467340D01*
X67479670Y-108274649D01*
X67268392Y-108120208D01*
X67031044Y-108009953D01*
X67006450Y-108002494D01*
X67222359Y-107913061D01*
X67441013Y-107766962D01*
X67626962Y-107581013D01*
X67773061Y-107362359D01*
X67873696Y-107119405D01*
X67925000Y-106861486D01*
X67925000Y-106598514D01*
X72505000Y-106598514D01*
X72505000Y-106861486D01*
X72556304Y-107119405D01*
X72656939Y-107362359D01*
X72803038Y-107581013D01*
X72988987Y-107766962D01*
X73207641Y-107913061D01*
X73423550Y-108002494D01*
X73398956Y-108009953D01*
X73161608Y-108120208D01*
X72950330Y-108274649D01*
X72773241Y-108467340D01*
X72637147Y-108690877D01*
X72547278Y-108936670D01*
X72669799Y-109143000D01*
X73713000Y-109143000D01*
X73713000Y-109123000D01*
X73967000Y-109123000D01*
X73967000Y-109143000D01*
X75010201Y-109143000D01*
X75132722Y-108936670D01*
X75042853Y-108690877D01*
X74906759Y-108467340D01*
X74729670Y-108274649D01*
X74518392Y-108120208D01*
X74281044Y-108009953D01*
X74256450Y-108002494D01*
X74472359Y-107913061D01*
X74691013Y-107766962D01*
X74876962Y-107581013D01*
X75023061Y-107362359D01*
X75123696Y-107119405D01*
X75175000Y-106861486D01*
X75175000Y-106598514D01*
X79755000Y-106598514D01*
X79755000Y-106861486D01*
X79806304Y-107119405D01*
X79906939Y-107362359D01*
X80053038Y-107581013D01*
X80238987Y-107766962D01*
X80457641Y-107913061D01*
X80673550Y-108002494D01*
X80648956Y-108009953D01*
X80411608Y-108120208D01*
X80200330Y-108274649D01*
X80023241Y-108467340D01*
X79887147Y-108690877D01*
X79797278Y-108936670D01*
X79919799Y-109143000D01*
X80963000Y-109143000D01*
X80963000Y-109123000D01*
X81217000Y-109123000D01*
X81217000Y-109143000D01*
X82260201Y-109143000D01*
X82382722Y-108936670D01*
X82292853Y-108690877D01*
X82156759Y-108467340D01*
X81979670Y-108274649D01*
X81768392Y-108120208D01*
X81531044Y-108009953D01*
X81506450Y-108002494D01*
X81722359Y-107913061D01*
X81941013Y-107766962D01*
X81970652Y-107737323D01*
X105333000Y-107737323D01*
X105333000Y-108262677D01*
X105435492Y-108777935D01*
X105636536Y-109263298D01*
X105928406Y-109700113D01*
X106299887Y-110071594D01*
X106736702Y-110363464D01*
X107222065Y-110564508D01*
X107737323Y-110667000D01*
X108262677Y-110667000D01*
X108777935Y-110564508D01*
X109263298Y-110363464D01*
X109700113Y-110071594D01*
X110071594Y-109700113D01*
X110363464Y-109263298D01*
X110564508Y-108777935D01*
X110667000Y-108262677D01*
X110667000Y-107737323D01*
X110564508Y-107222065D01*
X110363464Y-106736702D01*
X110071594Y-106299887D01*
X109700113Y-105928406D01*
X109263298Y-105636536D01*
X108777935Y-105435492D01*
X108262677Y-105333000D01*
X107737323Y-105333000D01*
X107222065Y-105435492D01*
X106736702Y-105636536D01*
X106299887Y-105928406D01*
X105928406Y-106299887D01*
X105636536Y-106736702D01*
X105435492Y-107222065D01*
X105333000Y-107737323D01*
X81970652Y-107737323D01*
X82126962Y-107581013D01*
X82273061Y-107362359D01*
X82373696Y-107119405D01*
X82425000Y-106861486D01*
X82425000Y-106598514D01*
X82373696Y-106340595D01*
X82273061Y-106097641D01*
X82126962Y-105878987D01*
X81941013Y-105693038D01*
X81722359Y-105546939D01*
X81479405Y-105446304D01*
X81221486Y-105395000D01*
X80958514Y-105395000D01*
X80700595Y-105446304D01*
X80457641Y-105546939D01*
X80238987Y-105693038D01*
X80053038Y-105878987D01*
X79906939Y-106097641D01*
X79806304Y-106340595D01*
X79755000Y-106598514D01*
X75175000Y-106598514D01*
X75123696Y-106340595D01*
X75023061Y-106097641D01*
X74876962Y-105878987D01*
X74691013Y-105693038D01*
X74472359Y-105546939D01*
X74229405Y-105446304D01*
X73971486Y-105395000D01*
X73708514Y-105395000D01*
X73450595Y-105446304D01*
X73207641Y-105546939D01*
X72988987Y-105693038D01*
X72803038Y-105878987D01*
X72656939Y-106097641D01*
X72556304Y-106340595D01*
X72505000Y-106598514D01*
X67925000Y-106598514D01*
X67873696Y-106340595D01*
X67773061Y-106097641D01*
X67626962Y-105878987D01*
X67441013Y-105693038D01*
X67222359Y-105546939D01*
X66979405Y-105446304D01*
X66721486Y-105395000D01*
X66458514Y-105395000D01*
X66200595Y-105446304D01*
X65957641Y-105546939D01*
X65738987Y-105693038D01*
X65553038Y-105878987D01*
X65406939Y-106097641D01*
X65306304Y-106340595D01*
X65255000Y-106598514D01*
X61175000Y-106598514D01*
X61123696Y-106340595D01*
X61023061Y-106097641D01*
X60876962Y-105878987D01*
X60691013Y-105693038D01*
X60472359Y-105546939D01*
X60229405Y-105446304D01*
X59971486Y-105395000D01*
X59708514Y-105395000D01*
X59450595Y-105446304D01*
X59207641Y-105546939D01*
X58988987Y-105693038D01*
X58803038Y-105878987D01*
X58656939Y-106097641D01*
X58556304Y-106340595D01*
X58505000Y-106598514D01*
X53925000Y-106598514D01*
X53873696Y-106340595D01*
X53773061Y-106097641D01*
X53626962Y-105878987D01*
X53441013Y-105693038D01*
X53222359Y-105546939D01*
X52979405Y-105446304D01*
X52721486Y-105395000D01*
X52458514Y-105395000D01*
X52200595Y-105446304D01*
X51957641Y-105546939D01*
X51738987Y-105693038D01*
X51553038Y-105878987D01*
X51406939Y-106097641D01*
X51306304Y-106340595D01*
X51255000Y-106598514D01*
X20271130Y-106598514D01*
X20071594Y-106299887D01*
X19700113Y-105928406D01*
X19263298Y-105636536D01*
X18777935Y-105435492D01*
X18262677Y-105333000D01*
X17737323Y-105333000D01*
X17222065Y-105435492D01*
X16736702Y-105636536D01*
X16299887Y-105928406D01*
X15928406Y-106299887D01*
X15636536Y-106736702D01*
X15435492Y-107222065D01*
X15333000Y-107737323D01*
X13660000Y-107737323D01*
X13660000Y-40596200D01*
X19115624Y-40596200D01*
X19119300Y-40633522D01*
X19119301Y-98701967D01*
X19115624Y-98739300D01*
X19130298Y-98888285D01*
X19173754Y-99031546D01*
X19244326Y-99163576D01*
X19287406Y-99216068D01*
X19339300Y-99279301D01*
X19368298Y-99303099D01*
X24957001Y-104891803D01*
X24980799Y-104920801D01*
X25096524Y-105015774D01*
X25228553Y-105086346D01*
X25371814Y-105129803D01*
X25483467Y-105140800D01*
X25483477Y-105140800D01*
X25520800Y-105144476D01*
X25558123Y-105140800D01*
X87244178Y-105140800D01*
X87281500Y-105144476D01*
X87318822Y-105140800D01*
X87318833Y-105140800D01*
X87430486Y-105129803D01*
X87573747Y-105086346D01*
X87705776Y-105015774D01*
X87821501Y-104920801D01*
X87845304Y-104891797D01*
X98209404Y-94527698D01*
X98238401Y-94503901D01*
X98333374Y-94388176D01*
X98403946Y-94256147D01*
X98447403Y-94112886D01*
X98458400Y-94001233D01*
X98458400Y-94001224D01*
X98462076Y-93963901D01*
X98458400Y-93926578D01*
X98458400Y-89861725D01*
X98462076Y-89824400D01*
X98458400Y-89787075D01*
X98458400Y-89787067D01*
X98447403Y-89675414D01*
X98403946Y-89532153D01*
X98333374Y-89400124D01*
X98238401Y-89284399D01*
X98209403Y-89260601D01*
X97464776Y-88515974D01*
X97510600Y-88285599D01*
X97510600Y-87990401D01*
X97453010Y-87700875D01*
X97340042Y-87428147D01*
X97176039Y-87182698D01*
X96967302Y-86973961D01*
X96808719Y-86868000D01*
X96967302Y-86762039D01*
X97176039Y-86553302D01*
X97340042Y-86307853D01*
X97453010Y-86035125D01*
X97510600Y-85745599D01*
X97510600Y-85450401D01*
X97453010Y-85160875D01*
X97340042Y-84888147D01*
X97176039Y-84642698D01*
X96967302Y-84433961D01*
X96808719Y-84328000D01*
X96967302Y-84222039D01*
X97176039Y-84013302D01*
X97340042Y-83767853D01*
X97453010Y-83495125D01*
X97510600Y-83205599D01*
X97510600Y-82910401D01*
X97453010Y-82620875D01*
X97340042Y-82348147D01*
X97176039Y-82102698D01*
X96967302Y-81893961D01*
X96808719Y-81788000D01*
X96967302Y-81682039D01*
X97176039Y-81473302D01*
X97340042Y-81227853D01*
X97453010Y-80955125D01*
X97510600Y-80665599D01*
X97510600Y-80370401D01*
X97453010Y-80080875D01*
X97340042Y-79808147D01*
X97176039Y-79562698D01*
X96967302Y-79353961D01*
X96808719Y-79248000D01*
X96967302Y-79142039D01*
X97176039Y-78933302D01*
X97340042Y-78687853D01*
X97453010Y-78415125D01*
X97510600Y-78125599D01*
X97510600Y-77830401D01*
X97453010Y-77540875D01*
X97340042Y-77268147D01*
X97192407Y-77047194D01*
X102926801Y-71312801D01*
X102926800Y-88574478D01*
X102923124Y-88611800D01*
X102926800Y-88649122D01*
X102926800Y-88649132D01*
X102937797Y-88760785D01*
X102974156Y-88880646D01*
X102981254Y-88904046D01*
X103051826Y-89036076D01*
X103072054Y-89060723D01*
X103146799Y-89151801D01*
X103175802Y-89175604D01*
X103309928Y-89309729D01*
X103309928Y-89898001D01*
X103326992Y-90071255D01*
X103377528Y-90237851D01*
X103459595Y-90391387D01*
X103570038Y-90525962D01*
X103657816Y-90598000D01*
X103570038Y-90670038D01*
X103459595Y-90804613D01*
X103377528Y-90958149D01*
X103326992Y-91124745D01*
X103309928Y-91297999D01*
X103309928Y-91948001D01*
X103326992Y-92121255D01*
X103377528Y-92287851D01*
X103459595Y-92441387D01*
X103570038Y-92575962D01*
X103704613Y-92686405D01*
X103858149Y-92768472D01*
X104024745Y-92819008D01*
X104197999Y-92836072D01*
X105098001Y-92836072D01*
X105271255Y-92819008D01*
X105437851Y-92768472D01*
X105591387Y-92686405D01*
X105725962Y-92575962D01*
X105836405Y-92441387D01*
X105867614Y-92383000D01*
X106984386Y-92383000D01*
X107015595Y-92441387D01*
X107126038Y-92575962D01*
X107260613Y-92686405D01*
X107414149Y-92768472D01*
X107580745Y-92819008D01*
X107753999Y-92836072D01*
X108654001Y-92836072D01*
X108827255Y-92819008D01*
X108993851Y-92768472D01*
X109147387Y-92686405D01*
X109281962Y-92575962D01*
X109392405Y-92441387D01*
X109474472Y-92287851D01*
X109525008Y-92121255D01*
X109542072Y-91948001D01*
X109542072Y-91359730D01*
X109761404Y-91140398D01*
X109790401Y-91116601D01*
X109852117Y-91041400D01*
X109885374Y-91000877D01*
X109955946Y-90868847D01*
X109975431Y-90804613D01*
X109999403Y-90725586D01*
X110010400Y-90613933D01*
X110010400Y-90613924D01*
X110014076Y-90576601D01*
X110010400Y-90539278D01*
X110010400Y-47108423D01*
X110014076Y-47071100D01*
X110010400Y-47033777D01*
X110010400Y-47033767D01*
X109999403Y-46922114D01*
X109955946Y-46778853D01*
X109885374Y-46646823D01*
X109814199Y-46560097D01*
X109790401Y-46531099D01*
X109761403Y-46507301D01*
X108276900Y-45022799D01*
X108276900Y-44960661D01*
X108237126Y-44760702D01*
X108159105Y-44572344D01*
X108045837Y-44402826D01*
X107901674Y-44258663D01*
X107732156Y-44145395D01*
X107543798Y-44067374D01*
X107343839Y-44027600D01*
X107139961Y-44027600D01*
X106940002Y-44067374D01*
X106751644Y-44145395D01*
X106582126Y-44258663D01*
X106437963Y-44402826D01*
X106324695Y-44572344D01*
X106246674Y-44760702D01*
X106206900Y-44960661D01*
X106206900Y-45164539D01*
X106246674Y-45364498D01*
X106324695Y-45552856D01*
X106437963Y-45722374D01*
X106582126Y-45866537D01*
X106751644Y-45979805D01*
X106940002Y-46057826D01*
X107139961Y-46097600D01*
X107202099Y-46097600D01*
X108490401Y-47385903D01*
X108490401Y-54991101D01*
X108330488Y-54847183D01*
X108077978Y-54697036D01*
X107801027Y-54599037D01*
X107569000Y-54719536D01*
X107569000Y-55927000D01*
X107589000Y-55927000D01*
X107589000Y-56181000D01*
X107569000Y-56181000D01*
X107569000Y-56201000D01*
X107315000Y-56201000D01*
X107315000Y-56181000D01*
X105029000Y-56181000D01*
X105029000Y-58467000D01*
X105049000Y-58467000D01*
X105049000Y-58721000D01*
X105029000Y-58721000D01*
X105029000Y-61007000D01*
X105049000Y-61007000D01*
X105049000Y-61261000D01*
X105029000Y-61261000D01*
X105029000Y-61281000D01*
X104775000Y-61281000D01*
X104775000Y-61261000D01*
X103568183Y-61261000D01*
X103447042Y-61493026D01*
X103492778Y-61643814D01*
X103619316Y-61908944D01*
X103795146Y-62144293D01*
X104013512Y-62340817D01*
X104112103Y-62399441D01*
X103946698Y-62509961D01*
X103737961Y-62718698D01*
X103573958Y-62964147D01*
X103460990Y-63236875D01*
X103403400Y-63526401D01*
X103403400Y-63821599D01*
X103460990Y-64111125D01*
X103573958Y-64383853D01*
X103737961Y-64629302D01*
X103946698Y-64838039D01*
X104105281Y-64944000D01*
X103946698Y-65049961D01*
X103737961Y-65258698D01*
X103573958Y-65504147D01*
X103460990Y-65776875D01*
X103403400Y-66066401D01*
X103403400Y-66361599D01*
X103460990Y-66651125D01*
X103573958Y-66923853D01*
X103718429Y-67140070D01*
X103202098Y-67656401D01*
X103173100Y-67680199D01*
X103149302Y-67709197D01*
X103149301Y-67709198D01*
X103078126Y-67795924D01*
X103007554Y-67927954D01*
X102984184Y-68004997D01*
X102964098Y-68071214D01*
X102953101Y-68182867D01*
X102949424Y-68220200D01*
X102953101Y-68257532D01*
X102953100Y-69136898D01*
X97346430Y-74743569D01*
X97340042Y-74728147D01*
X97195531Y-74511870D01*
X99615003Y-72092399D01*
X99644001Y-72068601D01*
X99678842Y-72026147D01*
X99738974Y-71952877D01*
X99809546Y-71820847D01*
X99821905Y-71780103D01*
X99853003Y-71677586D01*
X99864000Y-71565933D01*
X99864000Y-71565923D01*
X99867676Y-71528600D01*
X99864000Y-71491278D01*
X99864000Y-58953026D01*
X103447042Y-58953026D01*
X103492778Y-59103814D01*
X103619316Y-59368944D01*
X103795146Y-59604293D01*
X104013512Y-59800817D01*
X104119770Y-59864000D01*
X104013512Y-59927183D01*
X103795146Y-60123707D01*
X103619316Y-60359056D01*
X103492778Y-60624186D01*
X103447042Y-60774974D01*
X103568183Y-61007000D01*
X104775000Y-61007000D01*
X104775000Y-58721000D01*
X103568183Y-58721000D01*
X103447042Y-58953026D01*
X99864000Y-58953026D01*
X99864000Y-56917600D01*
X103400328Y-56917600D01*
X103412588Y-57042082D01*
X103448898Y-57161780D01*
X103507863Y-57272094D01*
X103587215Y-57368785D01*
X103683906Y-57448137D01*
X103794220Y-57507102D01*
X103858574Y-57526624D01*
X103795146Y-57583707D01*
X103619316Y-57819056D01*
X103492778Y-58084186D01*
X103447042Y-58234974D01*
X103568183Y-58467000D01*
X104775000Y-58467000D01*
X104775000Y-56181000D01*
X103562150Y-56181000D01*
X103403400Y-56339750D01*
X103400328Y-56917600D01*
X99864000Y-56917600D01*
X99864000Y-55190400D01*
X103400328Y-55190400D01*
X103403400Y-55768250D01*
X103562150Y-55927000D01*
X104775000Y-55927000D01*
X104775000Y-54714150D01*
X105029000Y-54714150D01*
X105029000Y-55927000D01*
X107315000Y-55927000D01*
X107315000Y-54719536D01*
X107082973Y-54599037D01*
X106806022Y-54697036D01*
X106553512Y-54847183D01*
X106374053Y-55008692D01*
X106355102Y-54946220D01*
X106296137Y-54835906D01*
X106216785Y-54739215D01*
X106120094Y-54659863D01*
X106009780Y-54600898D01*
X105890082Y-54564588D01*
X105765600Y-54552328D01*
X105187750Y-54555400D01*
X105029000Y-54714150D01*
X104775000Y-54714150D01*
X104616250Y-54555400D01*
X104038400Y-54552328D01*
X103913918Y-54564588D01*
X103794220Y-54600898D01*
X103683906Y-54659863D01*
X103587215Y-54739215D01*
X103507863Y-54835906D01*
X103448898Y-54946220D01*
X103412588Y-55065918D01*
X103400328Y-55190400D01*
X99864000Y-55190400D01*
X99864000Y-33049522D01*
X99867676Y-33012199D01*
X99864000Y-32974876D01*
X99864000Y-32974867D01*
X99853003Y-32863214D01*
X99809546Y-32719953D01*
X99798133Y-32698601D01*
X99738974Y-32587923D01*
X99667799Y-32501197D01*
X99644001Y-32472199D01*
X99615004Y-32448402D01*
X87052104Y-19885503D01*
X87028301Y-19856499D01*
X86912576Y-19761526D01*
X86780547Y-19690954D01*
X86637286Y-19647497D01*
X86525633Y-19636500D01*
X86525622Y-19636500D01*
X86488300Y-19632824D01*
X86450978Y-19636500D01*
X74970296Y-19636500D01*
X75039853Y-19468574D01*
X75095000Y-19191335D01*
X75095000Y-18908665D01*
X75039853Y-18631426D01*
X74931680Y-18370273D01*
X74774637Y-18135241D01*
X74574759Y-17935363D01*
X74339727Y-17778320D01*
X74240752Y-17737323D01*
X105333000Y-17737323D01*
X105333000Y-18262677D01*
X105435492Y-18777935D01*
X105636536Y-19263298D01*
X105928406Y-19700113D01*
X106299887Y-20071594D01*
X106736702Y-20363464D01*
X107222065Y-20564508D01*
X107737323Y-20667000D01*
X108262677Y-20667000D01*
X108777935Y-20564508D01*
X109263298Y-20363464D01*
X109700113Y-20071594D01*
X110071594Y-19700113D01*
X110363464Y-19263298D01*
X110564508Y-18777935D01*
X110667000Y-18262677D01*
X110667000Y-17737323D01*
X110564508Y-17222065D01*
X110363464Y-16736702D01*
X110071594Y-16299887D01*
X109700113Y-15928406D01*
X109263298Y-15636536D01*
X108777935Y-15435492D01*
X108262677Y-15333000D01*
X107737323Y-15333000D01*
X107222065Y-15435492D01*
X106736702Y-15636536D01*
X106299887Y-15928406D01*
X105928406Y-16299887D01*
X105636536Y-16736702D01*
X105435492Y-17222065D01*
X105333000Y-17737323D01*
X74240752Y-17737323D01*
X74078574Y-17670147D01*
X73801335Y-17615000D01*
X73518665Y-17615000D01*
X73241426Y-17670147D01*
X72980273Y-17778320D01*
X72745241Y-17935363D01*
X72545363Y-18135241D01*
X72388320Y-18370273D01*
X72280147Y-18631426D01*
X72225000Y-18908665D01*
X72225000Y-19191335D01*
X72280147Y-19468574D01*
X72349704Y-19636500D01*
X67478072Y-19636500D01*
X67478072Y-18250000D01*
X67465812Y-18125518D01*
X67429502Y-18005820D01*
X67370537Y-17895506D01*
X67291185Y-17798815D01*
X67194494Y-17719463D01*
X67084180Y-17660498D01*
X66964482Y-17624188D01*
X66840000Y-17611928D01*
X65240000Y-17611928D01*
X65115518Y-17624188D01*
X64995820Y-17660498D01*
X64885506Y-17719463D01*
X64788815Y-17798815D01*
X64709463Y-17895506D01*
X64650498Y-18005820D01*
X64614188Y-18125518D01*
X64601928Y-18250000D01*
X64601928Y-19636500D01*
X25604933Y-19636500D01*
X25567600Y-19632823D01*
X25530267Y-19636500D01*
X25418614Y-19647497D01*
X25275353Y-19690954D01*
X25143324Y-19761526D01*
X25027599Y-19856499D01*
X25003801Y-19885497D01*
X20362098Y-24527201D01*
X20333100Y-24550999D01*
X20309302Y-24579997D01*
X20309301Y-24579998D01*
X20238126Y-24666724D01*
X20167554Y-24798754D01*
X20143212Y-24879003D01*
X20124098Y-24942014D01*
X20118249Y-25001400D01*
X20109424Y-25091000D01*
X20113101Y-25128332D01*
X20113100Y-33678378D01*
X20109424Y-33715700D01*
X20113100Y-33753022D01*
X20113100Y-33753032D01*
X20124097Y-33864685D01*
X20150327Y-33951154D01*
X20167554Y-34007946D01*
X20238126Y-34139976D01*
X20277971Y-34188526D01*
X20333099Y-34255701D01*
X20362102Y-34279503D01*
X21816468Y-35733871D01*
X21671958Y-35950147D01*
X21558990Y-36222875D01*
X21501400Y-36512401D01*
X21501400Y-36807599D01*
X21558990Y-37097125D01*
X21671958Y-37369853D01*
X21815708Y-37584990D01*
X19368303Y-40032396D01*
X19339299Y-40056199D01*
X19306100Y-40096653D01*
X19244326Y-40171924D01*
X19207190Y-40241400D01*
X19173754Y-40303954D01*
X19130297Y-40447215D01*
X19119300Y-40558868D01*
X19119300Y-40558878D01*
X19115624Y-40596200D01*
X13660000Y-40596200D01*
X13660000Y-17737323D01*
X15333000Y-17737323D01*
X15333000Y-18262677D01*
X15435492Y-18777935D01*
X15636536Y-19263298D01*
X15928406Y-19700113D01*
X16299887Y-20071594D01*
X16736702Y-20363464D01*
X17222065Y-20564508D01*
X17737323Y-20667000D01*
X18262677Y-20667000D01*
X18777935Y-20564508D01*
X19263298Y-20363464D01*
X19700113Y-20071594D01*
X20071594Y-19700113D01*
X20363464Y-19263298D01*
X20564508Y-18777935D01*
X20667000Y-18262677D01*
X20667000Y-17737323D01*
X20564508Y-17222065D01*
X20363464Y-16736702D01*
X20071594Y-16299887D01*
X19700113Y-15928406D01*
X19263298Y-15636536D01*
X18777935Y-15435492D01*
X18262677Y-15333000D01*
X17737323Y-15333000D01*
X17222065Y-15435492D01*
X16736702Y-15636536D01*
X16299887Y-15928406D01*
X15928406Y-16299887D01*
X15636536Y-16736702D01*
X15435492Y-17222065D01*
X15333000Y-17737323D01*
X13660000Y-17737323D01*
X13660000Y-13660000D01*
X112340000Y-13660000D01*
X112340001Y-112340000D01*
G36*
X47253305Y-96827308D02*
G01*
X47277099Y-96856301D01*
X47306092Y-96880095D01*
X47306096Y-96880099D01*
X47376785Y-96938111D01*
X47392824Y-96951274D01*
X47524853Y-97021846D01*
X47668114Y-97065303D01*
X47779767Y-97076300D01*
X47779776Y-97076300D01*
X47817099Y-97079976D01*
X47854422Y-97076300D01*
X93511198Y-97076300D01*
X86966699Y-103620800D01*
X45296423Y-103620800D01*
X45297932Y-103617158D01*
X45355000Y-103330260D01*
X45355000Y-103037740D01*
X45297932Y-102750842D01*
X45185990Y-102480589D01*
X45023475Y-102237368D01*
X44816632Y-102030525D01*
X44642240Y-101914000D01*
X44784466Y-101818967D01*
X50955000Y-101818967D01*
X50955000Y-102141033D01*
X51017832Y-102456912D01*
X51141082Y-102754463D01*
X51320013Y-103022252D01*
X51547748Y-103249987D01*
X51815537Y-103428918D01*
X52113088Y-103552168D01*
X52428967Y-103615000D01*
X52751033Y-103615000D01*
X53066912Y-103552168D01*
X53364463Y-103428918D01*
X53632252Y-103249987D01*
X53859987Y-103022252D01*
X54038918Y-102754463D01*
X54162168Y-102456912D01*
X54225000Y-102141033D01*
X54225000Y-101818967D01*
X58205000Y-101818967D01*
X58205000Y-102141033D01*
X58267832Y-102456912D01*
X58391082Y-102754463D01*
X58570013Y-103022252D01*
X58797748Y-103249987D01*
X59065537Y-103428918D01*
X59363088Y-103552168D01*
X59678967Y-103615000D01*
X60001033Y-103615000D01*
X60316912Y-103552168D01*
X60614463Y-103428918D01*
X60882252Y-103249987D01*
X61109987Y-103022252D01*
X61288918Y-102754463D01*
X61412168Y-102456912D01*
X61475000Y-102141033D01*
X61475000Y-101818967D01*
X64955000Y-101818967D01*
X64955000Y-102141033D01*
X65017832Y-102456912D01*
X65141082Y-102754463D01*
X65320013Y-103022252D01*
X65547748Y-103249987D01*
X65815537Y-103428918D01*
X66113088Y-103552168D01*
X66428967Y-103615000D01*
X66751033Y-103615000D01*
X67066912Y-103552168D01*
X67364463Y-103428918D01*
X67632252Y-103249987D01*
X67859987Y-103022252D01*
X68038918Y-102754463D01*
X68162168Y-102456912D01*
X68225000Y-102141033D01*
X68225000Y-101818967D01*
X72205000Y-101818967D01*
X72205000Y-102141033D01*
X72267832Y-102456912D01*
X72391082Y-102754463D01*
X72570013Y-103022252D01*
X72797748Y-103249987D01*
X73065537Y-103428918D01*
X73363088Y-103552168D01*
X73678967Y-103615000D01*
X74001033Y-103615000D01*
X74316912Y-103552168D01*
X74614463Y-103428918D01*
X74882252Y-103249987D01*
X75109987Y-103022252D01*
X75288918Y-102754463D01*
X75412168Y-102456912D01*
X75475000Y-102141033D01*
X75475000Y-101818967D01*
X79455000Y-101818967D01*
X79455000Y-102141033D01*
X79517832Y-102456912D01*
X79641082Y-102754463D01*
X79820013Y-103022252D01*
X80047748Y-103249987D01*
X80315537Y-103428918D01*
X80613088Y-103552168D01*
X80928967Y-103615000D01*
X81251033Y-103615000D01*
X81566912Y-103552168D01*
X81864463Y-103428918D01*
X82132252Y-103249987D01*
X82359987Y-103022252D01*
X82538918Y-102754463D01*
X82662168Y-102456912D01*
X82725000Y-102141033D01*
X82725000Y-101818967D01*
X82662168Y-101503088D01*
X82538918Y-101205537D01*
X82359987Y-100937748D01*
X82132252Y-100710013D01*
X81864463Y-100531082D01*
X81566912Y-100407832D01*
X81251033Y-100345000D01*
X80928967Y-100345000D01*
X80613088Y-100407832D01*
X80315537Y-100531082D01*
X80047748Y-100710013D01*
X79820013Y-100937748D01*
X79641082Y-101205537D01*
X79517832Y-101503088D01*
X79455000Y-101818967D01*
X75475000Y-101818967D01*
X75412168Y-101503088D01*
X75288918Y-101205537D01*
X75109987Y-100937748D01*
X74882252Y-100710013D01*
X74614463Y-100531082D01*
X74316912Y-100407832D01*
X74001033Y-100345000D01*
X73678967Y-100345000D01*
X73363088Y-100407832D01*
X73065537Y-100531082D01*
X72797748Y-100710013D01*
X72570013Y-100937748D01*
X72391082Y-101205537D01*
X72267832Y-101503088D01*
X72205000Y-101818967D01*
X68225000Y-101818967D01*
X68162168Y-101503088D01*
X68038918Y-101205537D01*
X67859987Y-100937748D01*
X67632252Y-100710013D01*
X67364463Y-100531082D01*
X67066912Y-100407832D01*
X66751033Y-100345000D01*
X66428967Y-100345000D01*
X66113088Y-100407832D01*
X65815537Y-100531082D01*
X65547748Y-100710013D01*
X65320013Y-100937748D01*
X65141082Y-101205537D01*
X65017832Y-101503088D01*
X64955000Y-101818967D01*
X61475000Y-101818967D01*
X61412168Y-101503088D01*
X61288918Y-101205537D01*
X61109987Y-100937748D01*
X60882252Y-100710013D01*
X60614463Y-100531082D01*
X60316912Y-100407832D01*
X60001033Y-100345000D01*
X59678967Y-100345000D01*
X59363088Y-100407832D01*
X59065537Y-100531082D01*
X58797748Y-100710013D01*
X58570013Y-100937748D01*
X58391082Y-101205537D01*
X58267832Y-101503088D01*
X58205000Y-101818967D01*
X54225000Y-101818967D01*
X54162168Y-101503088D01*
X54038918Y-101205537D01*
X53859987Y-100937748D01*
X53632252Y-100710013D01*
X53364463Y-100531082D01*
X53066912Y-100407832D01*
X52751033Y-100345000D01*
X52428967Y-100345000D01*
X52113088Y-100407832D01*
X51815537Y-100531082D01*
X51547748Y-100710013D01*
X51320013Y-100937748D01*
X51141082Y-101205537D01*
X51017832Y-101503088D01*
X50955000Y-101818967D01*
X44784466Y-101818967D01*
X44816632Y-101797475D01*
X45023475Y-101590632D01*
X45185990Y-101347411D01*
X45297932Y-101077158D01*
X45355000Y-100790260D01*
X45355000Y-100497740D01*
X45297932Y-100210842D01*
X45185990Y-99940589D01*
X45023475Y-99697368D01*
X44891620Y-99565513D01*
X44964180Y-99543502D01*
X45074494Y-99484537D01*
X45171185Y-99405185D01*
X45250537Y-99308494D01*
X45309502Y-99198180D01*
X45345812Y-99078482D01*
X45358072Y-98954000D01*
X45355000Y-98389750D01*
X45196250Y-98231000D01*
X43997000Y-98231000D01*
X43997000Y-98251000D01*
X43743000Y-98251000D01*
X43743000Y-98231000D01*
X42543750Y-98231000D01*
X42385000Y-98389750D01*
X42381928Y-98954000D01*
X42394188Y-99078482D01*
X42430498Y-99198180D01*
X42489463Y-99308494D01*
X42568815Y-99405185D01*
X42665506Y-99484537D01*
X42775820Y-99543502D01*
X42848380Y-99565513D01*
X42716525Y-99697368D01*
X42554010Y-99940589D01*
X42442068Y-100210842D01*
X42385000Y-100497740D01*
X42385000Y-100790260D01*
X42442068Y-101077158D01*
X42554010Y-101347411D01*
X42716525Y-101590632D01*
X42923368Y-101797475D01*
X43097760Y-101914000D01*
X42923368Y-102030525D01*
X42716525Y-102237368D01*
X42675344Y-102299000D01*
X40414656Y-102299000D01*
X40373475Y-102237368D01*
X40166632Y-102030525D01*
X39992240Y-101914000D01*
X40166632Y-101797475D01*
X40373475Y-101590632D01*
X40535990Y-101347411D01*
X40647932Y-101077158D01*
X40705000Y-100790260D01*
X40705000Y-100497740D01*
X40647932Y-100210842D01*
X40535990Y-99940589D01*
X40373475Y-99697368D01*
X40241620Y-99565513D01*
X40314180Y-99543502D01*
X40424494Y-99484537D01*
X40521185Y-99405185D01*
X40600537Y-99308494D01*
X40659502Y-99198180D01*
X40695812Y-99078482D01*
X40708072Y-98954000D01*
X40705000Y-98389750D01*
X40546250Y-98231000D01*
X39347000Y-98231000D01*
X39347000Y-98251000D01*
X39093000Y-98251000D01*
X39093000Y-98231000D01*
X37893750Y-98231000D01*
X37735000Y-98389750D01*
X37731928Y-98954000D01*
X37744188Y-99078482D01*
X37780498Y-99198180D01*
X37839463Y-99308494D01*
X37918815Y-99405185D01*
X38015506Y-99484537D01*
X38125820Y-99543502D01*
X38198380Y-99565513D01*
X38066525Y-99697368D01*
X37937204Y-99890911D01*
X37895714Y-99894997D01*
X37752453Y-99938454D01*
X37620424Y-100009026D01*
X37504699Y-100103999D01*
X37480901Y-100132997D01*
X36554599Y-101059300D01*
X36001484Y-101059300D01*
X36055000Y-100790260D01*
X36055000Y-100497740D01*
X35997932Y-100210842D01*
X35885990Y-99940589D01*
X35723475Y-99697368D01*
X35591620Y-99565513D01*
X35664180Y-99543502D01*
X35774494Y-99484537D01*
X35871185Y-99405185D01*
X35950537Y-99308494D01*
X36009502Y-99198180D01*
X36045812Y-99078482D01*
X36058072Y-98954000D01*
X36055000Y-98389750D01*
X35896250Y-98231000D01*
X34697000Y-98231000D01*
X34697000Y-98251000D01*
X34443000Y-98251000D01*
X34443000Y-98231000D01*
X33243750Y-98231000D01*
X33085000Y-98389750D01*
X33081928Y-98954000D01*
X33094188Y-99078482D01*
X33130498Y-99198180D01*
X33189463Y-99308494D01*
X33268815Y-99405185D01*
X33365506Y-99484537D01*
X33475820Y-99543502D01*
X33548380Y-99565513D01*
X33416525Y-99697368D01*
X33291822Y-99884000D01*
X30067702Y-99884000D01*
X27437702Y-97254000D01*
X33081928Y-97254000D01*
X33085000Y-97818250D01*
X33243750Y-97977000D01*
X34443000Y-97977000D01*
X34443000Y-96777750D01*
X34697000Y-96777750D01*
X34697000Y-97977000D01*
X35896250Y-97977000D01*
X36055000Y-97818250D01*
X36058072Y-97254000D01*
X37731928Y-97254000D01*
X37735000Y-97818250D01*
X37893750Y-97977000D01*
X39093000Y-97977000D01*
X39093000Y-96777750D01*
X39347000Y-96777750D01*
X39347000Y-97977000D01*
X40546250Y-97977000D01*
X40705000Y-97818250D01*
X40708072Y-97254000D01*
X42381928Y-97254000D01*
X42385000Y-97818250D01*
X42543750Y-97977000D01*
X43743000Y-97977000D01*
X43743000Y-96777750D01*
X43997000Y-96777750D01*
X43997000Y-97977000D01*
X45196250Y-97977000D01*
X45355000Y-97818250D01*
X45358072Y-97254000D01*
X45345812Y-97129518D01*
X45309502Y-97009820D01*
X45250537Y-96899506D01*
X45171185Y-96802815D01*
X45074494Y-96723463D01*
X44964180Y-96664498D01*
X44844482Y-96628188D01*
X44720000Y-96615928D01*
X44155750Y-96619000D01*
X43997000Y-96777750D01*
X43743000Y-96777750D01*
X43584250Y-96619000D01*
X43020000Y-96615928D01*
X42895518Y-96628188D01*
X42775820Y-96664498D01*
X42665506Y-96723463D01*
X42568815Y-96802815D01*
X42489463Y-96899506D01*
X42430498Y-97009820D01*
X42394188Y-97129518D01*
X42381928Y-97254000D01*
X40708072Y-97254000D01*
X40695812Y-97129518D01*
X40659502Y-97009820D01*
X40600537Y-96899506D01*
X40521185Y-96802815D01*
X40424494Y-96723463D01*
X40314180Y-96664498D01*
X40194482Y-96628188D01*
X40070000Y-96615928D01*
X39505750Y-96619000D01*
X39347000Y-96777750D01*
X39093000Y-96777750D01*
X38934250Y-96619000D01*
X38370000Y-96615928D01*
X38245518Y-96628188D01*
X38125820Y-96664498D01*
X38015506Y-96723463D01*
X37918815Y-96802815D01*
X37839463Y-96899506D01*
X37780498Y-97009820D01*
X37744188Y-97129518D01*
X37731928Y-97254000D01*
X36058072Y-97254000D01*
X36045812Y-97129518D01*
X36009502Y-97009820D01*
X35950537Y-96899506D01*
X35871185Y-96802815D01*
X35774494Y-96723463D01*
X35664180Y-96664498D01*
X35544482Y-96628188D01*
X35420000Y-96615928D01*
X34855750Y-96619000D01*
X34697000Y-96777750D01*
X34443000Y-96777750D01*
X34284250Y-96619000D01*
X33720000Y-96615928D01*
X33595518Y-96628188D01*
X33475820Y-96664498D01*
X33365506Y-96723463D01*
X33268815Y-96802815D01*
X33189463Y-96899506D01*
X33130498Y-97009820D01*
X33094188Y-97129518D01*
X33081928Y-97254000D01*
X27437702Y-97254000D01*
X27292704Y-97109003D01*
X27268901Y-97079999D01*
X27153176Y-96985026D01*
X27021147Y-96914454D01*
X26877886Y-96870997D01*
X26839347Y-96867201D01*
X26704039Y-96664698D01*
X26495302Y-96455961D01*
X26336719Y-96350000D01*
X26495302Y-96244039D01*
X26704039Y-96035302D01*
X26868042Y-95789853D01*
X26981010Y-95517125D01*
X27038600Y-95227599D01*
X27038600Y-94932401D01*
X26981010Y-94642875D01*
X26950824Y-94570000D01*
X44995999Y-94570000D01*
X47253305Y-96827308D01*
G37*
X47253305Y-96827308D02*
X47277099Y-96856301D01*
X47306092Y-96880095D01*
X47306096Y-96880099D01*
X47376785Y-96938111D01*
X47392824Y-96951274D01*
X47524853Y-97021846D01*
X47668114Y-97065303D01*
X47779767Y-97076300D01*
X47779776Y-97076300D01*
X47817099Y-97079976D01*
X47854422Y-97076300D01*
X93511198Y-97076300D01*
X86966699Y-103620800D01*
X45296423Y-103620800D01*
X45297932Y-103617158D01*
X45355000Y-103330260D01*
X45355000Y-103037740D01*
X45297932Y-102750842D01*
X45185990Y-102480589D01*
X45023475Y-102237368D01*
X44816632Y-102030525D01*
X44642240Y-101914000D01*
X44784466Y-101818967D01*
X50955000Y-101818967D01*
X50955000Y-102141033D01*
X51017832Y-102456912D01*
X51141082Y-102754463D01*
X51320013Y-103022252D01*
X51547748Y-103249987D01*
X51815537Y-103428918D01*
X52113088Y-103552168D01*
X52428967Y-103615000D01*
X52751033Y-103615000D01*
X53066912Y-103552168D01*
X53364463Y-103428918D01*
X53632252Y-103249987D01*
X53859987Y-103022252D01*
X54038918Y-102754463D01*
X54162168Y-102456912D01*
X54225000Y-102141033D01*
X54225000Y-101818967D01*
X58205000Y-101818967D01*
X58205000Y-102141033D01*
X58267832Y-102456912D01*
X58391082Y-102754463D01*
X58570013Y-103022252D01*
X58797748Y-103249987D01*
X59065537Y-103428918D01*
X59363088Y-103552168D01*
X59678967Y-103615000D01*
X60001033Y-103615000D01*
X60316912Y-103552168D01*
X60614463Y-103428918D01*
X60882252Y-103249987D01*
X61109987Y-103022252D01*
X61288918Y-102754463D01*
X61412168Y-102456912D01*
X61475000Y-102141033D01*
X61475000Y-101818967D01*
X64955000Y-101818967D01*
X64955000Y-102141033D01*
X65017832Y-102456912D01*
X65141082Y-102754463D01*
X65320013Y-103022252D01*
X65547748Y-103249987D01*
X65815537Y-103428918D01*
X66113088Y-103552168D01*
X66428967Y-103615000D01*
X66751033Y-103615000D01*
X67066912Y-103552168D01*
X67364463Y-103428918D01*
X67632252Y-103249987D01*
X67859987Y-103022252D01*
X68038918Y-102754463D01*
X68162168Y-102456912D01*
X68225000Y-102141033D01*
X68225000Y-101818967D01*
X72205000Y-101818967D01*
X72205000Y-102141033D01*
X72267832Y-102456912D01*
X72391082Y-102754463D01*
X72570013Y-103022252D01*
X72797748Y-103249987D01*
X73065537Y-103428918D01*
X73363088Y-103552168D01*
X73678967Y-103615000D01*
X74001033Y-103615000D01*
X74316912Y-103552168D01*
X74614463Y-103428918D01*
X74882252Y-103249987D01*
X75109987Y-103022252D01*
X75288918Y-102754463D01*
X75412168Y-102456912D01*
X75475000Y-102141033D01*
X75475000Y-101818967D01*
X79455000Y-101818967D01*
X79455000Y-102141033D01*
X79517832Y-102456912D01*
X79641082Y-102754463D01*
X79820013Y-103022252D01*
X80047748Y-103249987D01*
X80315537Y-103428918D01*
X80613088Y-103552168D01*
X80928967Y-103615000D01*
X81251033Y-103615000D01*
X81566912Y-103552168D01*
X81864463Y-103428918D01*
X82132252Y-103249987D01*
X82359987Y-103022252D01*
X82538918Y-102754463D01*
X82662168Y-102456912D01*
X82725000Y-102141033D01*
X82725000Y-101818967D01*
X82662168Y-101503088D01*
X82538918Y-101205537D01*
X82359987Y-100937748D01*
X82132252Y-100710013D01*
X81864463Y-100531082D01*
X81566912Y-100407832D01*
X81251033Y-100345000D01*
X80928967Y-100345000D01*
X80613088Y-100407832D01*
X80315537Y-100531082D01*
X80047748Y-100710013D01*
X79820013Y-100937748D01*
X79641082Y-101205537D01*
X79517832Y-101503088D01*
X79455000Y-101818967D01*
X75475000Y-101818967D01*
X75412168Y-101503088D01*
X75288918Y-101205537D01*
X75109987Y-100937748D01*
X74882252Y-100710013D01*
X74614463Y-100531082D01*
X74316912Y-100407832D01*
X74001033Y-100345000D01*
X73678967Y-100345000D01*
X73363088Y-100407832D01*
X73065537Y-100531082D01*
X72797748Y-100710013D01*
X72570013Y-100937748D01*
X72391082Y-101205537D01*
X72267832Y-101503088D01*
X72205000Y-101818967D01*
X68225000Y-101818967D01*
X68162168Y-101503088D01*
X68038918Y-101205537D01*
X67859987Y-100937748D01*
X67632252Y-100710013D01*
X67364463Y-100531082D01*
X67066912Y-100407832D01*
X66751033Y-100345000D01*
X66428967Y-100345000D01*
X66113088Y-100407832D01*
X65815537Y-100531082D01*
X65547748Y-100710013D01*
X65320013Y-100937748D01*
X65141082Y-101205537D01*
X65017832Y-101503088D01*
X64955000Y-101818967D01*
X61475000Y-101818967D01*
X61412168Y-101503088D01*
X61288918Y-101205537D01*
X61109987Y-100937748D01*
X60882252Y-100710013D01*
X60614463Y-100531082D01*
X60316912Y-100407832D01*
X60001033Y-100345000D01*
X59678967Y-100345000D01*
X59363088Y-100407832D01*
X59065537Y-100531082D01*
X58797748Y-100710013D01*
X58570013Y-100937748D01*
X58391082Y-101205537D01*
X58267832Y-101503088D01*
X58205000Y-101818967D01*
X54225000Y-101818967D01*
X54162168Y-101503088D01*
X54038918Y-101205537D01*
X53859987Y-100937748D01*
X53632252Y-100710013D01*
X53364463Y-100531082D01*
X53066912Y-100407832D01*
X52751033Y-100345000D01*
X52428967Y-100345000D01*
X52113088Y-100407832D01*
X51815537Y-100531082D01*
X51547748Y-100710013D01*
X51320013Y-100937748D01*
X51141082Y-101205537D01*
X51017832Y-101503088D01*
X50955000Y-101818967D01*
X44784466Y-101818967D01*
X44816632Y-101797475D01*
X45023475Y-101590632D01*
X45185990Y-101347411D01*
X45297932Y-101077158D01*
X45355000Y-100790260D01*
X45355000Y-100497740D01*
X45297932Y-100210842D01*
X45185990Y-99940589D01*
X45023475Y-99697368D01*
X44891620Y-99565513D01*
X44964180Y-99543502D01*
X45074494Y-99484537D01*
X45171185Y-99405185D01*
X45250537Y-99308494D01*
X45309502Y-99198180D01*
X45345812Y-99078482D01*
X45358072Y-98954000D01*
X45355000Y-98389750D01*
X45196250Y-98231000D01*
X43997000Y-98231000D01*
X43997000Y-98251000D01*
X43743000Y-98251000D01*
X43743000Y-98231000D01*
X42543750Y-98231000D01*
X42385000Y-98389750D01*
X42381928Y-98954000D01*
X42394188Y-99078482D01*
X42430498Y-99198180D01*
X42489463Y-99308494D01*
X42568815Y-99405185D01*
X42665506Y-99484537D01*
X42775820Y-99543502D01*
X42848380Y-99565513D01*
X42716525Y-99697368D01*
X42554010Y-99940589D01*
X42442068Y-100210842D01*
X42385000Y-100497740D01*
X42385000Y-100790260D01*
X42442068Y-101077158D01*
X42554010Y-101347411D01*
X42716525Y-101590632D01*
X42923368Y-101797475D01*
X43097760Y-101914000D01*
X42923368Y-102030525D01*
X42716525Y-102237368D01*
X42675344Y-102299000D01*
X40414656Y-102299000D01*
X40373475Y-102237368D01*
X40166632Y-102030525D01*
X39992240Y-101914000D01*
X40166632Y-101797475D01*
X40373475Y-101590632D01*
X40535990Y-101347411D01*
X40647932Y-101077158D01*
X40705000Y-100790260D01*
X40705000Y-100497740D01*
X40647932Y-100210842D01*
X40535990Y-99940589D01*
X40373475Y-99697368D01*
X40241620Y-99565513D01*
X40314180Y-99543502D01*
X40424494Y-99484537D01*
X40521185Y-99405185D01*
X40600537Y-99308494D01*
X40659502Y-99198180D01*
X40695812Y-99078482D01*
X40708072Y-98954000D01*
X40705000Y-98389750D01*
X40546250Y-98231000D01*
X39347000Y-98231000D01*
X39347000Y-98251000D01*
X39093000Y-98251000D01*
X39093000Y-98231000D01*
X37893750Y-98231000D01*
X37735000Y-98389750D01*
X37731928Y-98954000D01*
X37744188Y-99078482D01*
X37780498Y-99198180D01*
X37839463Y-99308494D01*
X37918815Y-99405185D01*
X38015506Y-99484537D01*
X38125820Y-99543502D01*
X38198380Y-99565513D01*
X38066525Y-99697368D01*
X37937204Y-99890911D01*
X37895714Y-99894997D01*
X37752453Y-99938454D01*
X37620424Y-100009026D01*
X37504699Y-100103999D01*
X37480901Y-100132997D01*
X36554599Y-101059300D01*
X36001484Y-101059300D01*
X36055000Y-100790260D01*
X36055000Y-100497740D01*
X35997932Y-100210842D01*
X35885990Y-99940589D01*
X35723475Y-99697368D01*
X35591620Y-99565513D01*
X35664180Y-99543502D01*
X35774494Y-99484537D01*
X35871185Y-99405185D01*
X35950537Y-99308494D01*
X36009502Y-99198180D01*
X36045812Y-99078482D01*
X36058072Y-98954000D01*
X36055000Y-98389750D01*
X35896250Y-98231000D01*
X34697000Y-98231000D01*
X34697000Y-98251000D01*
X34443000Y-98251000D01*
X34443000Y-98231000D01*
X33243750Y-98231000D01*
X33085000Y-98389750D01*
X33081928Y-98954000D01*
X33094188Y-99078482D01*
X33130498Y-99198180D01*
X33189463Y-99308494D01*
X33268815Y-99405185D01*
X33365506Y-99484537D01*
X33475820Y-99543502D01*
X33548380Y-99565513D01*
X33416525Y-99697368D01*
X33291822Y-99884000D01*
X30067702Y-99884000D01*
X27437702Y-97254000D01*
X33081928Y-97254000D01*
X33085000Y-97818250D01*
X33243750Y-97977000D01*
X34443000Y-97977000D01*
X34443000Y-96777750D01*
X34697000Y-96777750D01*
X34697000Y-97977000D01*
X35896250Y-97977000D01*
X36055000Y-97818250D01*
X36058072Y-97254000D01*
X37731928Y-97254000D01*
X37735000Y-97818250D01*
X37893750Y-97977000D01*
X39093000Y-97977000D01*
X39093000Y-96777750D01*
X39347000Y-96777750D01*
X39347000Y-97977000D01*
X40546250Y-97977000D01*
X40705000Y-97818250D01*
X40708072Y-97254000D01*
X42381928Y-97254000D01*
X42385000Y-97818250D01*
X42543750Y-97977000D01*
X43743000Y-97977000D01*
X43743000Y-96777750D01*
X43997000Y-96777750D01*
X43997000Y-97977000D01*
X45196250Y-97977000D01*
X45355000Y-97818250D01*
X45358072Y-97254000D01*
X45345812Y-97129518D01*
X45309502Y-97009820D01*
X45250537Y-96899506D01*
X45171185Y-96802815D01*
X45074494Y-96723463D01*
X44964180Y-96664498D01*
X44844482Y-96628188D01*
X44720000Y-96615928D01*
X44155750Y-96619000D01*
X43997000Y-96777750D01*
X43743000Y-96777750D01*
X43584250Y-96619000D01*
X43020000Y-96615928D01*
X42895518Y-96628188D01*
X42775820Y-96664498D01*
X42665506Y-96723463D01*
X42568815Y-96802815D01*
X42489463Y-96899506D01*
X42430498Y-97009820D01*
X42394188Y-97129518D01*
X42381928Y-97254000D01*
X40708072Y-97254000D01*
X40695812Y-97129518D01*
X40659502Y-97009820D01*
X40600537Y-96899506D01*
X40521185Y-96802815D01*
X40424494Y-96723463D01*
X40314180Y-96664498D01*
X40194482Y-96628188D01*
X40070000Y-96615928D01*
X39505750Y-96619000D01*
X39347000Y-96777750D01*
X39093000Y-96777750D01*
X38934250Y-96619000D01*
X38370000Y-96615928D01*
X38245518Y-96628188D01*
X38125820Y-96664498D01*
X38015506Y-96723463D01*
X37918815Y-96802815D01*
X37839463Y-96899506D01*
X37780498Y-97009820D01*
X37744188Y-97129518D01*
X37731928Y-97254000D01*
X36058072Y-97254000D01*
X36045812Y-97129518D01*
X36009502Y-97009820D01*
X35950537Y-96899506D01*
X35871185Y-96802815D01*
X35774494Y-96723463D01*
X35664180Y-96664498D01*
X35544482Y-96628188D01*
X35420000Y-96615928D01*
X34855750Y-96619000D01*
X34697000Y-96777750D01*
X34443000Y-96777750D01*
X34284250Y-96619000D01*
X33720000Y-96615928D01*
X33595518Y-96628188D01*
X33475820Y-96664498D01*
X33365506Y-96723463D01*
X33268815Y-96802815D01*
X33189463Y-96899506D01*
X33130498Y-97009820D01*
X33094188Y-97129518D01*
X33081928Y-97254000D01*
X27437702Y-97254000D01*
X27292704Y-97109003D01*
X27268901Y-97079999D01*
X27153176Y-96985026D01*
X27021147Y-96914454D01*
X26877886Y-96870997D01*
X26839347Y-96867201D01*
X26704039Y-96664698D01*
X26495302Y-96455961D01*
X26336719Y-96350000D01*
X26495302Y-96244039D01*
X26704039Y-96035302D01*
X26868042Y-95789853D01*
X26981010Y-95517125D01*
X27038600Y-95227599D01*
X27038600Y-94932401D01*
X26981010Y-94642875D01*
X26950824Y-94570000D01*
X44995999Y-94570000D01*
X47253305Y-96827308D01*
G36*
X75915900Y-80013002D02*
G01*
X75939699Y-80042001D01*
X76055424Y-80136974D01*
X76187453Y-80207546D01*
X76330714Y-80251003D01*
X76442367Y-80262000D01*
X76442376Y-80262000D01*
X76479699Y-80265676D01*
X76517022Y-80262000D01*
X76636017Y-80262000D01*
X76598147Y-80353426D01*
X76543000Y-80630665D01*
X76543000Y-80913335D01*
X76598147Y-81190574D01*
X76706320Y-81451727D01*
X76863363Y-81686759D01*
X77063241Y-81886637D01*
X77298273Y-82043680D01*
X77308865Y-82048067D01*
X77122869Y-82159615D01*
X76914481Y-82348586D01*
X76746963Y-82574580D01*
X76626754Y-82828913D01*
X76586096Y-82962961D01*
X76708085Y-83185000D01*
X77851000Y-83185000D01*
X77851000Y-83165000D01*
X78105000Y-83165000D01*
X78105000Y-83185000D01*
X79247915Y-83185000D01*
X79369904Y-82962961D01*
X79329246Y-82828913D01*
X79209037Y-82574580D01*
X79041519Y-82348586D01*
X78833131Y-82159615D01*
X78647135Y-82048067D01*
X78657727Y-82043680D01*
X78892759Y-81886637D01*
X79092637Y-81686759D01*
X79249680Y-81451727D01*
X79357853Y-81190574D01*
X79413000Y-80913335D01*
X79413000Y-80630665D01*
X79357853Y-80353426D01*
X79319983Y-80262000D01*
X80683699Y-80262000D01*
X82974705Y-82553008D01*
X82998499Y-82582001D01*
X83027492Y-82605795D01*
X83027496Y-82605799D01*
X83078037Y-82647276D01*
X83114224Y-82676974D01*
X83246253Y-82747546D01*
X83389514Y-82791003D01*
X83501167Y-82802000D01*
X83501176Y-82802000D01*
X83538499Y-82805676D01*
X83575822Y-82802000D01*
X84256017Y-82802000D01*
X84218147Y-82893426D01*
X84163000Y-83170665D01*
X84163000Y-83453335D01*
X84218147Y-83730574D01*
X84326320Y-83991727D01*
X84483363Y-84226759D01*
X84683241Y-84426637D01*
X84918273Y-84583680D01*
X85179426Y-84691853D01*
X85456665Y-84747000D01*
X85739335Y-84747000D01*
X86016574Y-84691853D01*
X86277727Y-84583680D01*
X86512759Y-84426637D01*
X86712637Y-84226759D01*
X86869680Y-83991727D01*
X86977853Y-83730574D01*
X87033000Y-83453335D01*
X87033000Y-83170665D01*
X86977853Y-82893426D01*
X86939983Y-82802000D01*
X90952299Y-82802000D01*
X91719301Y-83569003D01*
X91743099Y-83598001D01*
X91772097Y-83621799D01*
X91858823Y-83692974D01*
X91972494Y-83753733D01*
X91990853Y-83763546D01*
X92134114Y-83807003D01*
X92172653Y-83810799D01*
X92307961Y-84013302D01*
X92516698Y-84222039D01*
X92675281Y-84328000D01*
X92516698Y-84433961D01*
X92307961Y-84642698D01*
X92143958Y-84888147D01*
X92030990Y-85160875D01*
X91973400Y-85450401D01*
X91973400Y-85745599D01*
X92030990Y-86035125D01*
X92143958Y-86307853D01*
X92307961Y-86553302D01*
X92516698Y-86762039D01*
X92675281Y-86868000D01*
X92516698Y-86973961D01*
X92307961Y-87182698D01*
X92177465Y-87378000D01*
X71290954Y-87378000D01*
X71291727Y-87377680D01*
X71526759Y-87220637D01*
X71726637Y-87020759D01*
X71883680Y-86785727D01*
X71991853Y-86524574D01*
X72047000Y-86247335D01*
X72047000Y-85964665D01*
X71991853Y-85687426D01*
X71883680Y-85426273D01*
X71726637Y-85191241D01*
X71526759Y-84991363D01*
X71294241Y-84836000D01*
X71526759Y-84680637D01*
X71726637Y-84480759D01*
X71883680Y-84245727D01*
X71991853Y-83984574D01*
X72047000Y-83707335D01*
X72047000Y-83661039D01*
X76586096Y-83661039D01*
X76626754Y-83795087D01*
X76746963Y-84049420D01*
X76914481Y-84275414D01*
X77122869Y-84464385D01*
X77364119Y-84609070D01*
X77628960Y-84703909D01*
X77851000Y-84582624D01*
X77851000Y-83439000D01*
X78105000Y-83439000D01*
X78105000Y-84582624D01*
X78327040Y-84703909D01*
X78591881Y-84609070D01*
X78833131Y-84464385D01*
X79041519Y-84275414D01*
X79209037Y-84049420D01*
X79329246Y-83795087D01*
X79369904Y-83661039D01*
X79247915Y-83439000D01*
X78105000Y-83439000D01*
X77851000Y-83439000D01*
X76708085Y-83439000D01*
X76586096Y-83661039D01*
X72047000Y-83661039D01*
X72047000Y-83424665D01*
X71991853Y-83147426D01*
X71883680Y-82886273D01*
X71726637Y-82651241D01*
X71526759Y-82451363D01*
X71294241Y-82296000D01*
X71526759Y-82140637D01*
X71726637Y-81940759D01*
X71883680Y-81705727D01*
X71991853Y-81444574D01*
X72047000Y-81167335D01*
X72047000Y-80884665D01*
X71991853Y-80607426D01*
X71883680Y-80346273D01*
X71726637Y-80111241D01*
X71526759Y-79911363D01*
X71294241Y-79756000D01*
X71526759Y-79600637D01*
X71726637Y-79400759D01*
X71883680Y-79165727D01*
X71991853Y-78904574D01*
X72047000Y-78627335D01*
X72047000Y-78344665D01*
X71991853Y-78067426D01*
X71883680Y-77806273D01*
X71726637Y-77571241D01*
X71526759Y-77371363D01*
X71294241Y-77216000D01*
X71526759Y-77060637D01*
X71726637Y-76860759D01*
X71883680Y-76625727D01*
X71991853Y-76364574D01*
X72037582Y-76134683D01*
X75915900Y-80013002D01*
G37*
X75915900Y-80013002D02*
X75939699Y-80042001D01*
X76055424Y-80136974D01*
X76187453Y-80207546D01*
X76330714Y-80251003D01*
X76442367Y-80262000D01*
X76442376Y-80262000D01*
X76479699Y-80265676D01*
X76517022Y-80262000D01*
X76636017Y-80262000D01*
X76598147Y-80353426D01*
X76543000Y-80630665D01*
X76543000Y-80913335D01*
X76598147Y-81190574D01*
X76706320Y-81451727D01*
X76863363Y-81686759D01*
X77063241Y-81886637D01*
X77298273Y-82043680D01*
X77308865Y-82048067D01*
X77122869Y-82159615D01*
X76914481Y-82348586D01*
X76746963Y-82574580D01*
X76626754Y-82828913D01*
X76586096Y-82962961D01*
X76708085Y-83185000D01*
X77851000Y-83185000D01*
X77851000Y-83165000D01*
X78105000Y-83165000D01*
X78105000Y-83185000D01*
X79247915Y-83185000D01*
X79369904Y-82962961D01*
X79329246Y-82828913D01*
X79209037Y-82574580D01*
X79041519Y-82348586D01*
X78833131Y-82159615D01*
X78647135Y-82048067D01*
X78657727Y-82043680D01*
X78892759Y-81886637D01*
X79092637Y-81686759D01*
X79249680Y-81451727D01*
X79357853Y-81190574D01*
X79413000Y-80913335D01*
X79413000Y-80630665D01*
X79357853Y-80353426D01*
X79319983Y-80262000D01*
X80683699Y-80262000D01*
X82974705Y-82553008D01*
X82998499Y-82582001D01*
X83027492Y-82605795D01*
X83027496Y-82605799D01*
X83078037Y-82647276D01*
X83114224Y-82676974D01*
X83246253Y-82747546D01*
X83389514Y-82791003D01*
X83501167Y-82802000D01*
X83501176Y-82802000D01*
X83538499Y-82805676D01*
X83575822Y-82802000D01*
X84256017Y-82802000D01*
X84218147Y-82893426D01*
X84163000Y-83170665D01*
X84163000Y-83453335D01*
X84218147Y-83730574D01*
X84326320Y-83991727D01*
X84483363Y-84226759D01*
X84683241Y-84426637D01*
X84918273Y-84583680D01*
X85179426Y-84691853D01*
X85456665Y-84747000D01*
X85739335Y-84747000D01*
X86016574Y-84691853D01*
X86277727Y-84583680D01*
X86512759Y-84426637D01*
X86712637Y-84226759D01*
X86869680Y-83991727D01*
X86977853Y-83730574D01*
X87033000Y-83453335D01*
X87033000Y-83170665D01*
X86977853Y-82893426D01*
X86939983Y-82802000D01*
X90952299Y-82802000D01*
X91719301Y-83569003D01*
X91743099Y-83598001D01*
X91772097Y-83621799D01*
X91858823Y-83692974D01*
X91972494Y-83753733D01*
X91990853Y-83763546D01*
X92134114Y-83807003D01*
X92172653Y-83810799D01*
X92307961Y-84013302D01*
X92516698Y-84222039D01*
X92675281Y-84328000D01*
X92516698Y-84433961D01*
X92307961Y-84642698D01*
X92143958Y-84888147D01*
X92030990Y-85160875D01*
X91973400Y-85450401D01*
X91973400Y-85745599D01*
X92030990Y-86035125D01*
X92143958Y-86307853D01*
X92307961Y-86553302D01*
X92516698Y-86762039D01*
X92675281Y-86868000D01*
X92516698Y-86973961D01*
X92307961Y-87182698D01*
X92177465Y-87378000D01*
X71290954Y-87378000D01*
X71291727Y-87377680D01*
X71526759Y-87220637D01*
X71726637Y-87020759D01*
X71883680Y-86785727D01*
X71991853Y-86524574D01*
X72047000Y-86247335D01*
X72047000Y-85964665D01*
X71991853Y-85687426D01*
X71883680Y-85426273D01*
X71726637Y-85191241D01*
X71526759Y-84991363D01*
X71294241Y-84836000D01*
X71526759Y-84680637D01*
X71726637Y-84480759D01*
X71883680Y-84245727D01*
X71991853Y-83984574D01*
X72047000Y-83707335D01*
X72047000Y-83661039D01*
X76586096Y-83661039D01*
X76626754Y-83795087D01*
X76746963Y-84049420D01*
X76914481Y-84275414D01*
X77122869Y-84464385D01*
X77364119Y-84609070D01*
X77628960Y-84703909D01*
X77851000Y-84582624D01*
X77851000Y-83439000D01*
X78105000Y-83439000D01*
X78105000Y-84582624D01*
X78327040Y-84703909D01*
X78591881Y-84609070D01*
X78833131Y-84464385D01*
X79041519Y-84275414D01*
X79209037Y-84049420D01*
X79329246Y-83795087D01*
X79369904Y-83661039D01*
X79247915Y-83439000D01*
X78105000Y-83439000D01*
X77851000Y-83439000D01*
X76708085Y-83439000D01*
X76586096Y-83661039D01*
X72047000Y-83661039D01*
X72047000Y-83424665D01*
X71991853Y-83147426D01*
X71883680Y-82886273D01*
X71726637Y-82651241D01*
X71526759Y-82451363D01*
X71294241Y-82296000D01*
X71526759Y-82140637D01*
X71726637Y-81940759D01*
X71883680Y-81705727D01*
X71991853Y-81444574D01*
X72047000Y-81167335D01*
X72047000Y-80884665D01*
X71991853Y-80607426D01*
X71883680Y-80346273D01*
X71726637Y-80111241D01*
X71526759Y-79911363D01*
X71294241Y-79756000D01*
X71526759Y-79600637D01*
X71726637Y-79400759D01*
X71883680Y-79165727D01*
X71991853Y-78904574D01*
X72047000Y-78627335D01*
X72047000Y-78344665D01*
X71991853Y-78067426D01*
X71883680Y-77806273D01*
X71726637Y-77571241D01*
X71526759Y-77371363D01*
X71294241Y-77216000D01*
X71526759Y-77060637D01*
X71726637Y-76860759D01*
X71883680Y-76625727D01*
X71991853Y-76364574D01*
X72037582Y-76134683D01*
X75915900Y-80013002D01*
G36*
X68922901Y-84077003D02*
G01*
X68946699Y-84106001D01*
X68975697Y-84129799D01*
X69062424Y-84200974D01*
X69194453Y-84271546D01*
X69337714Y-84315003D01*
X69390053Y-84320158D01*
X69497363Y-84480759D01*
X69697241Y-84680637D01*
X69929759Y-84836000D01*
X69697241Y-84991363D01*
X69497363Y-85191241D01*
X69340320Y-85426273D01*
X69232147Y-85687426D01*
X69177000Y-85964665D01*
X69177000Y-86247335D01*
X69232147Y-86524574D01*
X69340320Y-86785727D01*
X69497363Y-87020759D01*
X69697241Y-87220637D01*
X69932273Y-87377680D01*
X69933046Y-87378000D01*
X63724802Y-87378000D01*
X63695890Y-87349089D01*
X63847131Y-87258385D01*
X64055519Y-87069414D01*
X64223037Y-86843420D01*
X64343246Y-86589087D01*
X64383904Y-86455039D01*
X64261915Y-86233000D01*
X63119000Y-86233000D01*
X63119000Y-86253000D01*
X62865000Y-86253000D01*
X62865000Y-86233000D01*
X62845000Y-86233000D01*
X62845000Y-85979000D01*
X62865000Y-85979000D01*
X62865000Y-85959000D01*
X63119000Y-85959000D01*
X63119000Y-85979000D01*
X64261915Y-85979000D01*
X64383904Y-85756961D01*
X64343246Y-85622913D01*
X64223037Y-85368580D01*
X64055519Y-85142586D01*
X63847131Y-84953615D01*
X63661135Y-84842067D01*
X63671727Y-84837680D01*
X63906759Y-84680637D01*
X64106637Y-84480759D01*
X64263680Y-84245727D01*
X64371853Y-83984574D01*
X64427000Y-83707335D01*
X64427000Y-83424665D01*
X64382450Y-83200700D01*
X68046599Y-83200700D01*
X68922901Y-84077003D01*
G37*
X68922901Y-84077003D02*
X68946699Y-84106001D01*
X68975697Y-84129799D01*
X69062424Y-84200974D01*
X69194453Y-84271546D01*
X69337714Y-84315003D01*
X69390053Y-84320158D01*
X69497363Y-84480759D01*
X69697241Y-84680637D01*
X69929759Y-84836000D01*
X69697241Y-84991363D01*
X69497363Y-85191241D01*
X69340320Y-85426273D01*
X69232147Y-85687426D01*
X69177000Y-85964665D01*
X69177000Y-86247335D01*
X69232147Y-86524574D01*
X69340320Y-86785727D01*
X69497363Y-87020759D01*
X69697241Y-87220637D01*
X69932273Y-87377680D01*
X69933046Y-87378000D01*
X63724802Y-87378000D01*
X63695890Y-87349089D01*
X63847131Y-87258385D01*
X64055519Y-87069414D01*
X64223037Y-86843420D01*
X64343246Y-86589087D01*
X64383904Y-86455039D01*
X64261915Y-86233000D01*
X63119000Y-86233000D01*
X63119000Y-86253000D01*
X62865000Y-86253000D01*
X62865000Y-86233000D01*
X62845000Y-86233000D01*
X62845000Y-85979000D01*
X62865000Y-85979000D01*
X62865000Y-85959000D01*
X63119000Y-85959000D01*
X63119000Y-85979000D01*
X64261915Y-85979000D01*
X64383904Y-85756961D01*
X64343246Y-85622913D01*
X64223037Y-85368580D01*
X64055519Y-85142586D01*
X63847131Y-84953615D01*
X63661135Y-84842067D01*
X63671727Y-84837680D01*
X63906759Y-84680637D01*
X64106637Y-84480759D01*
X64263680Y-84245727D01*
X64371853Y-83984574D01*
X64427000Y-83707335D01*
X64427000Y-83424665D01*
X64382450Y-83200700D01*
X68046599Y-83200700D01*
X68922901Y-84077003D01*
G36*
X23127000Y-77173000D02*
G01*
X23147000Y-77173000D01*
X23147000Y-77427000D01*
X23127000Y-77427000D01*
X23127000Y-77447000D01*
X22873000Y-77447000D01*
X22873000Y-77427000D01*
X22853000Y-77427000D01*
X22853000Y-77173000D01*
X22873000Y-77173000D01*
X22873000Y-77153000D01*
X23127000Y-77153000D01*
X23127000Y-77173000D01*
G37*
X23127000Y-77173000D02*
X23147000Y-77173000D01*
X23147000Y-77427000D01*
X23127000Y-77427000D01*
X23127000Y-77447000D01*
X22873000Y-77447000D01*
X22873000Y-77427000D01*
X22853000Y-77427000D01*
X22853000Y-77173000D01*
X22873000Y-77173000D01*
X22873000Y-77153000D01*
X23127000Y-77153000D01*
X23127000Y-77173000D01*
G36*
X32118900Y-71064802D02*
G01*
X32142699Y-71093801D01*
X32258424Y-71188774D01*
X32390453Y-71259346D01*
X32533714Y-71302803D01*
X32645367Y-71313800D01*
X32645375Y-71313800D01*
X32682700Y-71317476D01*
X32720025Y-71313800D01*
X34513607Y-71313800D01*
X34354580Y-71388963D01*
X34128586Y-71556481D01*
X33939615Y-71764869D01*
X33794930Y-72006119D01*
X33700091Y-72270960D01*
X33821376Y-72493000D01*
X34965000Y-72493000D01*
X34965000Y-72473000D01*
X35219000Y-72473000D01*
X35219000Y-72493000D01*
X35239000Y-72493000D01*
X35239000Y-72747000D01*
X35219000Y-72747000D01*
X35219000Y-73889915D01*
X35441039Y-74011904D01*
X35575087Y-73971246D01*
X35829420Y-73851037D01*
X36055414Y-73683519D01*
X36244385Y-73475131D01*
X36355933Y-73289135D01*
X36360320Y-73299727D01*
X36517363Y-73534759D01*
X36717241Y-73734637D01*
X36952273Y-73891680D01*
X37213426Y-73999853D01*
X37490665Y-74055000D01*
X37773335Y-74055000D01*
X38050574Y-73999853D01*
X38311727Y-73891680D01*
X38546759Y-73734637D01*
X38746637Y-73534759D01*
X38902000Y-73302241D01*
X39057363Y-73534759D01*
X39257241Y-73734637D01*
X39492273Y-73891680D01*
X39753426Y-73999853D01*
X40030665Y-74055000D01*
X40313335Y-74055000D01*
X40590574Y-73999853D01*
X40851727Y-73891680D01*
X41086759Y-73734637D01*
X41286637Y-73534759D01*
X41442000Y-73302241D01*
X41597363Y-73534759D01*
X41797241Y-73734637D01*
X42032273Y-73891680D01*
X42293426Y-73999853D01*
X42570665Y-74055000D01*
X42853335Y-74055000D01*
X43130574Y-73999853D01*
X43391727Y-73891680D01*
X43626759Y-73734637D01*
X43826637Y-73534759D01*
X43933947Y-73374158D01*
X43986286Y-73369003D01*
X44019813Y-73358833D01*
X44137363Y-73534759D01*
X44337241Y-73734637D01*
X44572273Y-73891680D01*
X44833426Y-73999853D01*
X45110665Y-74055000D01*
X45393335Y-74055000D01*
X45670574Y-73999853D01*
X45931727Y-73891680D01*
X46166759Y-73734637D01*
X46366637Y-73534759D01*
X46473947Y-73374158D01*
X46526286Y-73369003D01*
X46559813Y-73358833D01*
X46677363Y-73534759D01*
X46877241Y-73734637D01*
X47112273Y-73891680D01*
X47373426Y-73999853D01*
X47650665Y-74055000D01*
X47933335Y-74055000D01*
X48210574Y-73999853D01*
X48471727Y-73891680D01*
X48688222Y-73747023D01*
X50724998Y-75783800D01*
X36447503Y-75783800D01*
X34646283Y-73982581D01*
X34742961Y-74011904D01*
X34965000Y-73889915D01*
X34965000Y-72747000D01*
X33821376Y-72747000D01*
X33700091Y-72969040D01*
X33737663Y-73073960D01*
X27292704Y-66629003D01*
X27268901Y-66599999D01*
X27153176Y-66505026D01*
X27021147Y-66434454D01*
X26877886Y-66390997D01*
X26839347Y-66387201D01*
X26704039Y-66184698D01*
X26495302Y-65975961D01*
X26336719Y-65870000D01*
X26495302Y-65764039D01*
X26656720Y-65602621D01*
X32118900Y-71064802D01*
G37*
X32118900Y-71064802D02*
X32142699Y-71093801D01*
X32258424Y-71188774D01*
X32390453Y-71259346D01*
X32533714Y-71302803D01*
X32645367Y-71313800D01*
X32645375Y-71313800D01*
X32682700Y-71317476D01*
X32720025Y-71313800D01*
X34513607Y-71313800D01*
X34354580Y-71388963D01*
X34128586Y-71556481D01*
X33939615Y-71764869D01*
X33794930Y-72006119D01*
X33700091Y-72270960D01*
X33821376Y-72493000D01*
X34965000Y-72493000D01*
X34965000Y-72473000D01*
X35219000Y-72473000D01*
X35219000Y-72493000D01*
X35239000Y-72493000D01*
X35239000Y-72747000D01*
X35219000Y-72747000D01*
X35219000Y-73889915D01*
X35441039Y-74011904D01*
X35575087Y-73971246D01*
X35829420Y-73851037D01*
X36055414Y-73683519D01*
X36244385Y-73475131D01*
X36355933Y-73289135D01*
X36360320Y-73299727D01*
X36517363Y-73534759D01*
X36717241Y-73734637D01*
X36952273Y-73891680D01*
X37213426Y-73999853D01*
X37490665Y-74055000D01*
X37773335Y-74055000D01*
X38050574Y-73999853D01*
X38311727Y-73891680D01*
X38546759Y-73734637D01*
X38746637Y-73534759D01*
X38902000Y-73302241D01*
X39057363Y-73534759D01*
X39257241Y-73734637D01*
X39492273Y-73891680D01*
X39753426Y-73999853D01*
X40030665Y-74055000D01*
X40313335Y-74055000D01*
X40590574Y-73999853D01*
X40851727Y-73891680D01*
X41086759Y-73734637D01*
X41286637Y-73534759D01*
X41442000Y-73302241D01*
X41597363Y-73534759D01*
X41797241Y-73734637D01*
X42032273Y-73891680D01*
X42293426Y-73999853D01*
X42570665Y-74055000D01*
X42853335Y-74055000D01*
X43130574Y-73999853D01*
X43391727Y-73891680D01*
X43626759Y-73734637D01*
X43826637Y-73534759D01*
X43933947Y-73374158D01*
X43986286Y-73369003D01*
X44019813Y-73358833D01*
X44137363Y-73534759D01*
X44337241Y-73734637D01*
X44572273Y-73891680D01*
X44833426Y-73999853D01*
X45110665Y-74055000D01*
X45393335Y-74055000D01*
X45670574Y-73999853D01*
X45931727Y-73891680D01*
X46166759Y-73734637D01*
X46366637Y-73534759D01*
X46473947Y-73374158D01*
X46526286Y-73369003D01*
X46559813Y-73358833D01*
X46677363Y-73534759D01*
X46877241Y-73734637D01*
X47112273Y-73891680D01*
X47373426Y-73999853D01*
X47650665Y-74055000D01*
X47933335Y-74055000D01*
X48210574Y-73999853D01*
X48471727Y-73891680D01*
X48688222Y-73747023D01*
X50724998Y-75783800D01*
X36447503Y-75783800D01*
X34646283Y-73982581D01*
X34742961Y-74011904D01*
X34965000Y-73889915D01*
X34965000Y-72747000D01*
X33821376Y-72747000D01*
X33700091Y-72969040D01*
X33737663Y-73073960D01*
X27292704Y-66629003D01*
X27268901Y-66599999D01*
X27153176Y-66505026D01*
X27021147Y-66434454D01*
X26877886Y-66390997D01*
X26839347Y-66387201D01*
X26704039Y-66184698D01*
X26495302Y-65975961D01*
X26336719Y-65870000D01*
X26495302Y-65764039D01*
X26656720Y-65602621D01*
X32118900Y-71064802D01*
G36*
X92516698Y-51202039D02*
G01*
X92682103Y-51312559D01*
X92583512Y-51371183D01*
X92365146Y-51567707D01*
X92189316Y-51803056D01*
X92062778Y-52068186D01*
X92017042Y-52218974D01*
X92138183Y-52451000D01*
X93345000Y-52451000D01*
X93345000Y-52431000D01*
X93599000Y-52431000D01*
X93599000Y-52451000D01*
X95885000Y-52451000D01*
X95885000Y-52431000D01*
X96139000Y-52431000D01*
X96139000Y-52451000D01*
X96159000Y-52451000D01*
X96159000Y-52705000D01*
X96139000Y-52705000D01*
X96139000Y-52725000D01*
X95885000Y-52725000D01*
X95885000Y-52705000D01*
X93599000Y-52705000D01*
X93599000Y-52725000D01*
X93345000Y-52725000D01*
X93345000Y-52705000D01*
X92138183Y-52705000D01*
X92017042Y-52937026D01*
X92062778Y-53087814D01*
X92101525Y-53169000D01*
X85532911Y-53169000D01*
X85557411Y-53144500D01*
X89899278Y-53144500D01*
X89936600Y-53148176D01*
X89973922Y-53144500D01*
X89973933Y-53144500D01*
X90085586Y-53133503D01*
X90228847Y-53090046D01*
X90360876Y-53019474D01*
X90476601Y-52924501D01*
X90500404Y-52895497D01*
X92355280Y-51040621D01*
X92516698Y-51202039D01*
G37*
X92516698Y-51202039D02*
X92682103Y-51312559D01*
X92583512Y-51371183D01*
X92365146Y-51567707D01*
X92189316Y-51803056D01*
X92062778Y-52068186D01*
X92017042Y-52218974D01*
X92138183Y-52451000D01*
X93345000Y-52451000D01*
X93345000Y-52431000D01*
X93599000Y-52431000D01*
X93599000Y-52451000D01*
X95885000Y-52451000D01*
X95885000Y-52431000D01*
X96139000Y-52431000D01*
X96139000Y-52451000D01*
X96159000Y-52451000D01*
X96159000Y-52705000D01*
X96139000Y-52705000D01*
X96139000Y-52725000D01*
X95885000Y-52725000D01*
X95885000Y-52705000D01*
X93599000Y-52705000D01*
X93599000Y-52725000D01*
X93345000Y-52725000D01*
X93345000Y-52705000D01*
X92138183Y-52705000D01*
X92017042Y-52937026D01*
X92062778Y-53087814D01*
X92101525Y-53169000D01*
X85532911Y-53169000D01*
X85557411Y-53144500D01*
X89899278Y-53144500D01*
X89936600Y-53148176D01*
X89973922Y-53144500D01*
X89973933Y-53144500D01*
X90085586Y-53133503D01*
X90228847Y-53090046D01*
X90360876Y-53019474D01*
X90476601Y-52924501D01*
X90500404Y-52895497D01*
X92355280Y-51040621D01*
X92516698Y-51202039D01*
G36*
X91192801Y-46869603D02*
G01*
X91216599Y-46898601D01*
X91332324Y-46993574D01*
X91464353Y-47064146D01*
X91600771Y-47105527D01*
X88339599Y-50366700D01*
X86583211Y-50366700D01*
X86539274Y-50322763D01*
X86369756Y-50209495D01*
X86181398Y-50131474D01*
X85981439Y-50091700D01*
X85777561Y-50091700D01*
X85577602Y-50131474D01*
X85389244Y-50209495D01*
X85219726Y-50322763D01*
X85075563Y-50466926D01*
X84962792Y-50635700D01*
X84854311Y-50635700D01*
X84810374Y-50591763D01*
X84640856Y-50478495D01*
X84452498Y-50400474D01*
X84252539Y-50360700D01*
X84059234Y-50360700D01*
X84056300Y-49965050D01*
X83897550Y-49806300D01*
X82973300Y-49806300D01*
X82973300Y-50855550D01*
X83047050Y-50929300D01*
X82973300Y-51003050D01*
X82973300Y-52052300D01*
X82993300Y-52052300D01*
X82993300Y-52306300D01*
X82973300Y-52306300D01*
X82973300Y-52326300D01*
X82719300Y-52326300D01*
X82719300Y-52306300D01*
X82699300Y-52306300D01*
X82699300Y-52052300D01*
X82719300Y-52052300D01*
X82719300Y-51003050D01*
X82645550Y-50929300D01*
X82719300Y-50855550D01*
X82719300Y-49806300D01*
X82699300Y-49806300D01*
X82699300Y-49552300D01*
X82719300Y-49552300D01*
X82719300Y-48503050D01*
X82645550Y-48429300D01*
X82719300Y-48355550D01*
X82719300Y-47306300D01*
X82973300Y-47306300D01*
X82973300Y-48355550D01*
X83047050Y-48429300D01*
X82973300Y-48503050D01*
X82973300Y-49552300D01*
X83897550Y-49552300D01*
X84056300Y-49393550D01*
X84059372Y-48979300D01*
X84047112Y-48854818D01*
X84010802Y-48735120D01*
X83951837Y-48624806D01*
X83872485Y-48528115D01*
X83775794Y-48448763D01*
X83739382Y-48429300D01*
X83775794Y-48409837D01*
X83872485Y-48330485D01*
X83951837Y-48233794D01*
X84010802Y-48123480D01*
X84047112Y-48003782D01*
X84059372Y-47879300D01*
X84056300Y-47465050D01*
X83897550Y-47306300D01*
X82973300Y-47306300D01*
X82719300Y-47306300D01*
X82699300Y-47306300D01*
X82699300Y-47052300D01*
X82719300Y-47052300D01*
X82719300Y-46003050D01*
X82973300Y-46003050D01*
X82973300Y-47052300D01*
X83897550Y-47052300D01*
X84056300Y-46893550D01*
X84059372Y-46479300D01*
X84047112Y-46354818D01*
X84010802Y-46235120D01*
X83951837Y-46124806D01*
X83872485Y-46028115D01*
X83775794Y-45948763D01*
X83665480Y-45889798D01*
X83545782Y-45853488D01*
X83421300Y-45841228D01*
X83132050Y-45844300D01*
X82973300Y-46003050D01*
X82719300Y-46003050D01*
X82560550Y-45844300D01*
X82271300Y-45841228D01*
X82152892Y-45852890D01*
X81364304Y-45064302D01*
X81340501Y-45035299D01*
X81224776Y-44940326D01*
X81092747Y-44869754D01*
X80949486Y-44826297D01*
X80837833Y-44815300D01*
X80837822Y-44815300D01*
X80800500Y-44811624D01*
X80763178Y-44815300D01*
X75050450Y-44815300D01*
X75095000Y-44591335D01*
X75095000Y-44308665D01*
X75039853Y-44031426D01*
X74931680Y-43770273D01*
X74774637Y-43535241D01*
X74574759Y-43335363D01*
X74342241Y-43180000D01*
X74574759Y-43024637D01*
X74774637Y-42824759D01*
X74931680Y-42589727D01*
X75039853Y-42328574D01*
X75095000Y-42051335D01*
X75095000Y-41768665D01*
X75039853Y-41491426D01*
X75001983Y-41400000D01*
X85723199Y-41400000D01*
X91192801Y-46869603D01*
G37*
X91192801Y-46869603D02*
X91216599Y-46898601D01*
X91332324Y-46993574D01*
X91464353Y-47064146D01*
X91600771Y-47105527D01*
X88339599Y-50366700D01*
X86583211Y-50366700D01*
X86539274Y-50322763D01*
X86369756Y-50209495D01*
X86181398Y-50131474D01*
X85981439Y-50091700D01*
X85777561Y-50091700D01*
X85577602Y-50131474D01*
X85389244Y-50209495D01*
X85219726Y-50322763D01*
X85075563Y-50466926D01*
X84962792Y-50635700D01*
X84854311Y-50635700D01*
X84810374Y-50591763D01*
X84640856Y-50478495D01*
X84452498Y-50400474D01*
X84252539Y-50360700D01*
X84059234Y-50360700D01*
X84056300Y-49965050D01*
X83897550Y-49806300D01*
X82973300Y-49806300D01*
X82973300Y-50855550D01*
X83047050Y-50929300D01*
X82973300Y-51003050D01*
X82973300Y-52052300D01*
X82993300Y-52052300D01*
X82993300Y-52306300D01*
X82973300Y-52306300D01*
X82973300Y-52326300D01*
X82719300Y-52326300D01*
X82719300Y-52306300D01*
X82699300Y-52306300D01*
X82699300Y-52052300D01*
X82719300Y-52052300D01*
X82719300Y-51003050D01*
X82645550Y-50929300D01*
X82719300Y-50855550D01*
X82719300Y-49806300D01*
X82699300Y-49806300D01*
X82699300Y-49552300D01*
X82719300Y-49552300D01*
X82719300Y-48503050D01*
X82645550Y-48429300D01*
X82719300Y-48355550D01*
X82719300Y-47306300D01*
X82973300Y-47306300D01*
X82973300Y-48355550D01*
X83047050Y-48429300D01*
X82973300Y-48503050D01*
X82973300Y-49552300D01*
X83897550Y-49552300D01*
X84056300Y-49393550D01*
X84059372Y-48979300D01*
X84047112Y-48854818D01*
X84010802Y-48735120D01*
X83951837Y-48624806D01*
X83872485Y-48528115D01*
X83775794Y-48448763D01*
X83739382Y-48429300D01*
X83775794Y-48409837D01*
X83872485Y-48330485D01*
X83951837Y-48233794D01*
X84010802Y-48123480D01*
X84047112Y-48003782D01*
X84059372Y-47879300D01*
X84056300Y-47465050D01*
X83897550Y-47306300D01*
X82973300Y-47306300D01*
X82719300Y-47306300D01*
X82699300Y-47306300D01*
X82699300Y-47052300D01*
X82719300Y-47052300D01*
X82719300Y-46003050D01*
X82973300Y-46003050D01*
X82973300Y-47052300D01*
X83897550Y-47052300D01*
X84056300Y-46893550D01*
X84059372Y-46479300D01*
X84047112Y-46354818D01*
X84010802Y-46235120D01*
X83951837Y-46124806D01*
X83872485Y-46028115D01*
X83775794Y-45948763D01*
X83665480Y-45889798D01*
X83545782Y-45853488D01*
X83421300Y-45841228D01*
X83132050Y-45844300D01*
X82973300Y-46003050D01*
X82719300Y-46003050D01*
X82560550Y-45844300D01*
X82271300Y-45841228D01*
X82152892Y-45852890D01*
X81364304Y-45064302D01*
X81340501Y-45035299D01*
X81224776Y-44940326D01*
X81092747Y-44869754D01*
X80949486Y-44826297D01*
X80837833Y-44815300D01*
X80837822Y-44815300D01*
X80800500Y-44811624D01*
X80763178Y-44815300D01*
X75050450Y-44815300D01*
X75095000Y-44591335D01*
X75095000Y-44308665D01*
X75039853Y-44031426D01*
X74931680Y-43770273D01*
X74774637Y-43535241D01*
X74574759Y-43335363D01*
X74342241Y-43180000D01*
X74574759Y-43024637D01*
X74774637Y-42824759D01*
X74931680Y-42589727D01*
X75039853Y-42328574D01*
X75095000Y-42051335D01*
X75095000Y-41768665D01*
X75039853Y-41491426D01*
X75001983Y-41400000D01*
X85723199Y-41400000D01*
X91192801Y-46869603D01*
G36*
X35469000Y-50993000D02*
G01*
X35489000Y-50993000D01*
X35489000Y-51247000D01*
X35469000Y-51247000D01*
X35469000Y-51267000D01*
X35215000Y-51267000D01*
X35215000Y-51247000D01*
X35195000Y-51247000D01*
X35195000Y-50993000D01*
X35215000Y-50993000D01*
X35215000Y-50973000D01*
X35469000Y-50973000D01*
X35469000Y-50993000D01*
G37*
X35469000Y-50993000D02*
X35489000Y-50993000D01*
X35489000Y-51247000D01*
X35469000Y-51247000D01*
X35469000Y-51267000D01*
X35215000Y-51267000D01*
X35215000Y-51247000D01*
X35195000Y-51247000D01*
X35195000Y-50993000D01*
X35215000Y-50993000D01*
X35215000Y-50973000D01*
X35469000Y-50973000D01*
X35469000Y-50993000D01*
G36*
X39063197Y-35641801D02*
G01*
X39046759Y-35625363D01*
X38811727Y-35468320D01*
X38550574Y-35360147D01*
X38273335Y-35305000D01*
X37990665Y-35305000D01*
X37713426Y-35360147D01*
X37452273Y-35468320D01*
X37217241Y-35625363D01*
X37017363Y-35825241D01*
X36860320Y-36060273D01*
X36855933Y-36070865D01*
X36744385Y-35884869D01*
X36555414Y-35676481D01*
X36329420Y-35508963D01*
X36075087Y-35388754D01*
X35941039Y-35348096D01*
X35719000Y-35470085D01*
X35719000Y-36613000D01*
X35739000Y-36613000D01*
X35739000Y-36867000D01*
X35719000Y-36867000D01*
X35719000Y-38009915D01*
X35941039Y-38131904D01*
X36075087Y-38091246D01*
X36329420Y-37971037D01*
X36555414Y-37803519D01*
X36744385Y-37595131D01*
X36855933Y-37409135D01*
X36860320Y-37419727D01*
X37017363Y-37654759D01*
X37217241Y-37854637D01*
X37452273Y-38011680D01*
X37455345Y-38012953D01*
X30597199Y-44871100D01*
X26917231Y-44871100D01*
X26981010Y-44717125D01*
X27038600Y-44427599D01*
X27038600Y-44132401D01*
X26981010Y-43842875D01*
X26868042Y-43570147D01*
X26704039Y-43324698D01*
X26495302Y-43115961D01*
X26336719Y-43010000D01*
X26495302Y-42904039D01*
X26704039Y-42695302D01*
X26868042Y-42449853D01*
X26981010Y-42177125D01*
X27038600Y-41887599D01*
X27038600Y-41592401D01*
X26981010Y-41302875D01*
X26868042Y-41030147D01*
X26704039Y-40784698D01*
X26495302Y-40575961D01*
X26336719Y-40470000D01*
X26495302Y-40364039D01*
X26704039Y-40155302D01*
X26868042Y-39909853D01*
X26981010Y-39637125D01*
X27038600Y-39347599D01*
X27038600Y-39052401D01*
X26981010Y-38762875D01*
X26868042Y-38490147D01*
X26704039Y-38244698D01*
X26495302Y-38035961D01*
X26336719Y-37930000D01*
X26495302Y-37824039D01*
X26704039Y-37615302D01*
X26839347Y-37412799D01*
X26877886Y-37409003D01*
X27021147Y-37365546D01*
X27153176Y-37294974D01*
X27268901Y-37200001D01*
X27292704Y-37170997D01*
X27374661Y-37089040D01*
X34200091Y-37089040D01*
X34294930Y-37353881D01*
X34439615Y-37595131D01*
X34628586Y-37803519D01*
X34854580Y-37971037D01*
X35108913Y-38091246D01*
X35242961Y-38131904D01*
X35465000Y-38009915D01*
X35465000Y-36867000D01*
X34321376Y-36867000D01*
X34200091Y-37089040D01*
X27374661Y-37089040D01*
X28072741Y-36390960D01*
X34200091Y-36390960D01*
X34321376Y-36613000D01*
X35465000Y-36613000D01*
X35465000Y-35470085D01*
X35242961Y-35348096D01*
X35108913Y-35388754D01*
X34854580Y-35508963D01*
X34628586Y-35676481D01*
X34439615Y-35884869D01*
X34294930Y-36126119D01*
X34200091Y-36390960D01*
X28072741Y-36390960D01*
X29526002Y-34937700D01*
X39767298Y-34937700D01*
X39063197Y-35641801D01*
G37*
X39063197Y-35641801D02*
X39046759Y-35625363D01*
X38811727Y-35468320D01*
X38550574Y-35360147D01*
X38273335Y-35305000D01*
X37990665Y-35305000D01*
X37713426Y-35360147D01*
X37452273Y-35468320D01*
X37217241Y-35625363D01*
X37017363Y-35825241D01*
X36860320Y-36060273D01*
X36855933Y-36070865D01*
X36744385Y-35884869D01*
X36555414Y-35676481D01*
X36329420Y-35508963D01*
X36075087Y-35388754D01*
X35941039Y-35348096D01*
X35719000Y-35470085D01*
X35719000Y-36613000D01*
X35739000Y-36613000D01*
X35739000Y-36867000D01*
X35719000Y-36867000D01*
X35719000Y-38009915D01*
X35941039Y-38131904D01*
X36075087Y-38091246D01*
X36329420Y-37971037D01*
X36555414Y-37803519D01*
X36744385Y-37595131D01*
X36855933Y-37409135D01*
X36860320Y-37419727D01*
X37017363Y-37654759D01*
X37217241Y-37854637D01*
X37452273Y-38011680D01*
X37455345Y-38012953D01*
X30597199Y-44871100D01*
X26917231Y-44871100D01*
X26981010Y-44717125D01*
X27038600Y-44427599D01*
X27038600Y-44132401D01*
X26981010Y-43842875D01*
X26868042Y-43570147D01*
X26704039Y-43324698D01*
X26495302Y-43115961D01*
X26336719Y-43010000D01*
X26495302Y-42904039D01*
X26704039Y-42695302D01*
X26868042Y-42449853D01*
X26981010Y-42177125D01*
X27038600Y-41887599D01*
X27038600Y-41592401D01*
X26981010Y-41302875D01*
X26868042Y-41030147D01*
X26704039Y-40784698D01*
X26495302Y-40575961D01*
X26336719Y-40470000D01*
X26495302Y-40364039D01*
X26704039Y-40155302D01*
X26868042Y-39909853D01*
X26981010Y-39637125D01*
X27038600Y-39347599D01*
X27038600Y-39052401D01*
X26981010Y-38762875D01*
X26868042Y-38490147D01*
X26704039Y-38244698D01*
X26495302Y-38035961D01*
X26336719Y-37930000D01*
X26495302Y-37824039D01*
X26704039Y-37615302D01*
X26839347Y-37412799D01*
X26877886Y-37409003D01*
X27021147Y-37365546D01*
X27153176Y-37294974D01*
X27268901Y-37200001D01*
X27292704Y-37170997D01*
X27374661Y-37089040D01*
X34200091Y-37089040D01*
X34294930Y-37353881D01*
X34439615Y-37595131D01*
X34628586Y-37803519D01*
X34854580Y-37971037D01*
X35108913Y-38091246D01*
X35242961Y-38131904D01*
X35465000Y-38009915D01*
X35465000Y-36867000D01*
X34321376Y-36867000D01*
X34200091Y-37089040D01*
X27374661Y-37089040D01*
X28072741Y-36390960D01*
X34200091Y-36390960D01*
X34321376Y-36613000D01*
X35465000Y-36613000D01*
X35465000Y-35470085D01*
X35242961Y-35348096D01*
X35108913Y-35388754D01*
X34854580Y-35508963D01*
X34628586Y-35676481D01*
X34439615Y-35884869D01*
X34294930Y-36126119D01*
X34200091Y-36390960D01*
X28072741Y-36390960D01*
X29526002Y-34937700D01*
X39767298Y-34937700D01*
X39063197Y-35641801D01*
G36*
X72280147Y-41491426D02*
G01*
X72225000Y-41768665D01*
X72225000Y-42051335D01*
X72280147Y-42328574D01*
X72388320Y-42589727D01*
X72545363Y-42824759D01*
X72745241Y-43024637D01*
X72977759Y-43180000D01*
X72745241Y-43335363D01*
X72545363Y-43535241D01*
X72388320Y-43770273D01*
X72280147Y-44031426D01*
X72225000Y-44308665D01*
X72225000Y-44591335D01*
X72269550Y-44815300D01*
X69280302Y-44815300D01*
X67268204Y-42803203D01*
X67244401Y-42774199D01*
X67202532Y-42739838D01*
X67271037Y-42647420D01*
X67391246Y-42393087D01*
X67431904Y-42259039D01*
X67309915Y-42037000D01*
X66167000Y-42037000D01*
X66167000Y-42057000D01*
X65913000Y-42057000D01*
X65913000Y-42037000D01*
X65893000Y-42037000D01*
X65893000Y-41783000D01*
X65913000Y-41783000D01*
X65913000Y-41763000D01*
X66167000Y-41763000D01*
X66167000Y-41783000D01*
X67309915Y-41783000D01*
X67431904Y-41560961D01*
X67391246Y-41426913D01*
X67378526Y-41400000D01*
X72318017Y-41400000D01*
X72280147Y-41491426D01*
G37*
X72280147Y-41491426D02*
X72225000Y-41768665D01*
X72225000Y-42051335D01*
X72280147Y-42328574D01*
X72388320Y-42589727D01*
X72545363Y-42824759D01*
X72745241Y-43024637D01*
X72977759Y-43180000D01*
X72745241Y-43335363D01*
X72545363Y-43535241D01*
X72388320Y-43770273D01*
X72280147Y-44031426D01*
X72225000Y-44308665D01*
X72225000Y-44591335D01*
X72269550Y-44815300D01*
X69280302Y-44815300D01*
X67268204Y-42803203D01*
X67244401Y-42774199D01*
X67202532Y-42739838D01*
X67271037Y-42647420D01*
X67391246Y-42393087D01*
X67431904Y-42259039D01*
X67309915Y-42037000D01*
X66167000Y-42037000D01*
X66167000Y-42057000D01*
X65913000Y-42057000D01*
X65913000Y-42037000D01*
X65893000Y-42037000D01*
X65893000Y-41783000D01*
X65913000Y-41783000D01*
X65913000Y-41763000D01*
X66167000Y-41763000D01*
X66167000Y-41783000D01*
X67309915Y-41783000D01*
X67431904Y-41560961D01*
X67391246Y-41426913D01*
X67378526Y-41400000D01*
X72318017Y-41400000D01*
X72280147Y-41491426D01*
G36*
X83010296Y-33957997D02*
G01*
X83034099Y-33987001D01*
X83149824Y-34081974D01*
X83281853Y-34152546D01*
X83425114Y-34196003D01*
X83536767Y-34207000D01*
X83536776Y-34207000D01*
X83574099Y-34210676D01*
X83611422Y-34207000D01*
X92101525Y-34207000D01*
X92062778Y-34288186D01*
X92017042Y-34438974D01*
X92138183Y-34671000D01*
X93345000Y-34671000D01*
X93345000Y-34651000D01*
X93599000Y-34651000D01*
X93599000Y-34671000D01*
X95885000Y-34671000D01*
X95885000Y-34651000D01*
X96139000Y-34651000D01*
X96139000Y-34671000D01*
X96159000Y-34671000D01*
X96159000Y-34925000D01*
X96139000Y-34925000D01*
X96139000Y-34945000D01*
X95885000Y-34945000D01*
X95885000Y-34925000D01*
X93599000Y-34925000D01*
X93599000Y-34945000D01*
X93345000Y-34945000D01*
X93345000Y-34925000D01*
X92730827Y-34925000D01*
X92598847Y-34854454D01*
X92455586Y-34810997D01*
X92343933Y-34800000D01*
X92343922Y-34800000D01*
X92306600Y-34796324D01*
X92269278Y-34800000D01*
X75001983Y-34800000D01*
X75039853Y-34708574D01*
X75095000Y-34431335D01*
X75095000Y-34148665D01*
X75039853Y-33871426D01*
X75001983Y-33780000D01*
X82832299Y-33780000D01*
X83010296Y-33957997D01*
G37*
X83010296Y-33957997D02*
X83034099Y-33987001D01*
X83149824Y-34081974D01*
X83281853Y-34152546D01*
X83425114Y-34196003D01*
X83536767Y-34207000D01*
X83536776Y-34207000D01*
X83574099Y-34210676D01*
X83611422Y-34207000D01*
X92101525Y-34207000D01*
X92062778Y-34288186D01*
X92017042Y-34438974D01*
X92138183Y-34671000D01*
X93345000Y-34671000D01*
X93345000Y-34651000D01*
X93599000Y-34651000D01*
X93599000Y-34671000D01*
X95885000Y-34671000D01*
X95885000Y-34651000D01*
X96139000Y-34651000D01*
X96139000Y-34671000D01*
X96159000Y-34671000D01*
X96159000Y-34925000D01*
X96139000Y-34925000D01*
X96139000Y-34945000D01*
X95885000Y-34945000D01*
X95885000Y-34925000D01*
X93599000Y-34925000D01*
X93599000Y-34945000D01*
X93345000Y-34945000D01*
X93345000Y-34925000D01*
X92730827Y-34925000D01*
X92598847Y-34854454D01*
X92455586Y-34810997D01*
X92343933Y-34800000D01*
X92343922Y-34800000D01*
X92306600Y-34796324D01*
X92269278Y-34800000D01*
X75001983Y-34800000D01*
X75039853Y-34708574D01*
X75095000Y-34431335D01*
X75095000Y-34148665D01*
X75039853Y-33871426D01*
X75001983Y-33780000D01*
X82832299Y-33780000D01*
X83010296Y-33957997D01*
M02*
