M48
; DRILL file {KiCad (5.1.5)-3} date 15.06.2020 09:38:18
; FORMAT={-:-/ absolute / metric / decimal}
; #@! TF.CreationDate,2020-06-15T09:38:18+02:00
; #@! TF.GenerationSoftware,Kicad,Pcbnew,(5.1.5)-3
FMAT,2
METRIC
T1C0.400
T2C0.700
T3C0.750
T4C0.800
T5C0.900
T6C1.000
T7C1.016
T8C1.040
T9C1.100
T10C1.200
T11C1.300
T12C1.520
T13C3.048
T14C2.700
%
G90
G05
T1
X35.255Y-88.494
X35.302Y-42.352
X39.061Y-58.627
X49.848Y-30.115
X55.009Y-28.03
X56.126Y-75.015
X57.697Y-28.05
X58.987Y-73.38
X60.516Y-56.28
X62.254Y-55.474
X67.967Y-79.098
X69.444Y-85.649
X72.125Y-106.922
X74.612Y-30.658
X74.612Y-32.563
X78.181Y-102.286
X79.553Y-85.903
X79.642Y-37.96
X81.105Y-102.288
X83.012Y-96.951
X83.678Y-50.959
X83.691Y-57.84
X83.883Y-30.34
X87.577Y-46.221
X88.737Y-96.745
X92.736Y-57.218
X100.44Y-52.9
T2
X17.5Y-29.5
X17.5Y-32.04
X17.5Y-34.58
T3
X83.336Y-107.696
X84.606Y-106.426
X84.606Y-108.966
T4
X66.268Y-62.588
X66.268Y-65.128
X66.268Y-67.668
X66.268Y-70.208
X66.268Y-72.748
X66.268Y-75.288
X66.268Y-77.828
X66.268Y-80.368
X66.268Y-82.908
X66.268Y-85.448
X66.268Y-87.988
X66.268Y-90.528
X66.268Y-93.068
X66.268Y-95.608
X73.888Y-62.588
X73.888Y-65.128
X73.888Y-67.668
X73.888Y-70.208
X73.888Y-72.748
X73.888Y-75.288
X73.888Y-77.828
X73.888Y-80.368
X73.888Y-82.908
X73.888Y-85.448
X73.888Y-87.988
X73.888Y-90.528
X73.888Y-93.068
X73.888Y-95.608
X32.004Y-33.528
X32.004Y-35.528
X108.5Y-59.42
X108.5Y-61.96
X108.5Y-64.5
X38.448Y-46.588
X38.448Y-54.208
X40.988Y-46.588
X40.988Y-54.208
X43.528Y-46.588
X43.528Y-54.208
X46.068Y-46.588
X46.068Y-54.208
X48.608Y-46.588
X48.608Y-54.208
X51.148Y-46.588
X51.148Y-54.208
X53.688Y-46.588
X53.688Y-54.208
X56.228Y-46.588
X56.228Y-54.208
X58.768Y-46.588
X58.768Y-54.208
X81.168Y-48.988
X81.168Y-51.528
X81.168Y-54.068
X81.168Y-56.608
X81.168Y-59.148
X81.168Y-61.688
X81.168Y-64.228
X81.168Y-66.768
X81.168Y-69.308
X81.168Y-71.848
X81.168Y-74.388
X81.168Y-76.928
X81.168Y-79.468
X81.168Y-82.008
X88.788Y-48.988
X88.788Y-51.528
X88.788Y-54.068
X88.788Y-56.608
X88.788Y-59.148
X88.788Y-61.688
X88.788Y-64.228
X88.788Y-66.768
X88.788Y-69.308
X88.788Y-71.848
X88.788Y-74.388
X88.788Y-76.928
X88.788Y-79.468
X88.788Y-82.008
X38.848Y-97.988
X38.848Y-105.608
X41.388Y-97.988
X41.388Y-105.608
X43.928Y-97.988
X43.928Y-105.608
X46.468Y-97.988
X46.468Y-105.608
X49.008Y-97.988
X49.008Y-105.608
X51.548Y-97.988
X51.548Y-105.608
X54.088Y-97.988
X54.088Y-105.608
X56.628Y-97.988
X56.628Y-105.608
X59.168Y-97.988
X59.168Y-105.608
X38.448Y-63.721
X38.448Y-71.341
X40.988Y-63.721
X40.988Y-71.341
X43.528Y-63.721
X43.528Y-71.341
X46.068Y-63.721
X46.068Y-71.341
X48.608Y-63.721
X48.608Y-71.341
X51.148Y-63.721
X51.148Y-71.341
X53.688Y-63.721
X53.688Y-71.341
X56.228Y-63.721
X56.228Y-71.341
X58.768Y-63.721
X58.768Y-71.341
X38.648Y-80.855
X38.648Y-88.475
X41.188Y-80.855
X41.188Y-88.475
X43.728Y-80.855
X43.728Y-88.475
X46.268Y-80.855
X46.268Y-88.475
X48.808Y-80.855
X48.808Y-88.475
X51.348Y-80.855
X51.348Y-88.475
X53.888Y-80.855
X53.888Y-88.475
X56.428Y-80.855
X56.428Y-88.475
X58.968Y-80.855
X58.968Y-88.475
T5
X30.0Y-27.0
X32.54Y-27.0
X43.0Y-27.0
X45.54Y-27.0
T6
X100.5Y-59.42
X100.5Y-61.96
X100.5Y-64.5
T7
X17.2Y-69.8
X17.2Y-72.34
X17.2Y-74.88
X17.2Y-77.42
X17.2Y-79.96
X17.2Y-82.5
X17.2Y-85.04
X17.2Y-87.58
X17.2Y-90.12
X17.2Y-92.66
X19.74Y-69.8
X19.74Y-72.34
X19.74Y-74.88
X19.74Y-77.42
X19.74Y-79.96
X19.74Y-82.5
X19.74Y-85.04
X19.74Y-87.58
X19.74Y-90.12
X19.74Y-92.66
X28.0Y-45.466
X28.0Y-48.006
X28.0Y-50.546
X28.0Y-53.086
X28.0Y-55.626
X28.0Y-58.166
X28.0Y-60.706
X28.0Y-63.246
X28.0Y-65.786
X28.0Y-68.326
X28.0Y-70.866
X28.0Y-73.406
X28.0Y-75.946
X28.0Y-78.486
X28.0Y-81.026
X28.0Y-83.566
X28.0Y-86.106
X28.0Y-88.646
X28.0Y-91.186
X28.0Y-93.726
X28.0Y-96.266
X28.0Y-98.806
X28.0Y-101.346
X28.0Y-103.886
X28.0Y-106.426
X30.54Y-45.466
X30.54Y-48.006
X30.54Y-50.546
X30.54Y-53.086
X30.54Y-55.626
X30.54Y-58.166
X30.54Y-60.706
X30.54Y-63.246
X30.54Y-65.786
X30.54Y-68.326
X30.54Y-70.866
X30.54Y-73.406
X30.54Y-75.946
X30.54Y-78.486
X30.54Y-81.026
X30.54Y-83.566
X30.54Y-86.106
X30.54Y-88.646
X30.54Y-91.186
X30.54Y-93.726
X30.54Y-96.266
X30.54Y-98.806
X30.54Y-101.346
X30.54Y-103.886
X30.54Y-106.426
T8
X57.34Y-15.3
X57.34Y-40.7
X59.88Y-15.3
X59.88Y-40.7
X62.42Y-15.3
X62.42Y-40.7
X64.96Y-15.3
X64.96Y-40.7
X67.5Y-15.3
X67.5Y-40.7
X70.04Y-15.3
X70.04Y-40.7
X72.58Y-15.3
X72.58Y-40.7
X75.12Y-15.3
X75.12Y-40.7
X77.66Y-15.3
X77.66Y-40.7
X80.2Y-15.3
X80.2Y-40.7
X82.74Y-15.3
X82.74Y-40.7
X85.28Y-15.3
X85.28Y-40.7
X87.82Y-15.3
X87.82Y-40.7
X90.36Y-15.3
X90.36Y-40.7
X92.9Y-15.3
X92.9Y-40.7
X95.44Y-15.3
X95.44Y-40.7
X97.98Y-15.3
X97.98Y-40.7
X100.52Y-15.3
X100.52Y-40.7
X103.06Y-15.3
X103.06Y-40.7
T9
X40.744Y-17.09
X40.744Y-21.59
X47.244Y-17.09
X47.244Y-21.59
X91.42Y-107.4
X93.96Y-107.4
X96.5Y-107.4
X102.0Y-97.84
X102.0Y-108.0
X28.0Y-17.09
X28.0Y-21.59
X34.5Y-17.09
X34.5Y-21.59
T10
X19.2Y-44.4
X19.2Y-59.64
T11
X98.0Y-71.12
X98.0Y-93.62
T12
X109.0Y-73.6
X109.0Y-78.68
X109.0Y-83.76
X109.0Y-88.84
X109.0Y-93.92
X109.0Y-99.0
T13
X18.0Y-108.0
X108.0Y-108.0
X108.0Y-18.0
X18.0Y-18.0
T14
X98.0Y-82.37
T6
G00X98.806Y-50.784
M15
G01X98.806Y-48.784
M16
G05
G00X102.806Y-45.084
M15
G01X100.806Y-45.084
M16
G05
G00X104.806Y-50.784
M15
G01X104.806Y-48.784
M16
G05
T0
M30
