M48
; DRILL file {KiCad (5.1.5-0-10_14)} date 2020 June 17, Wednesday 20:56:14
; FORMAT={-:-/ absolute / inch / decimal}
; #@! TF.CreationDate,2020-06-17T20:56:14+02:00
; #@! TF.GenerationSoftware,Kicad,Pcbnew,(5.1.5-0-10_14)
FMAT,2
INCH
T1C0.0157
T2C0.0276
T3C0.0295
T4C0.0315
T5C0.0354
T6C0.0394
T7C0.0400
T8C0.0409
T9C0.0433
T10C0.0472
T11C0.0512
T12C0.0598
T13C0.1200
T14C0.1063
%
G90
G05
T1
X0.595Y-4.015
X0.595Y-4.375
X1.05Y-1.22
X1.388Y-3.484
X1.3898Y-1.6674
X1.5378Y-2.3081
X1.9625Y-1.1856
X2.1657Y-1.1035
X2.2097Y-2.9533
X2.2715Y-1.1043
X2.3223Y-2.889
X2.3825Y-2.2157
X2.451Y-2.184
X2.6759Y-3.1141
X2.734Y-3.372
X2.8396Y-4.2095
X2.8926Y-1.0374
X2.9375Y-1.207
X2.9375Y-1.282
X3.078Y-4.027
X3.132Y-3.382
X3.1931Y-4.0271
X3.24Y-0.83
X3.2682Y-3.817
X3.2944Y-2.0062
X3.2949Y-2.2772
X3.3025Y-1.1945
X3.355Y-3.355
X3.37Y-2.81
X3.4479Y-1.8197
X3.4936Y-3.8088
X3.651Y-2.2527
X3.675Y-3.885
X3.68Y-1.07
X3.695Y-2.745
X3.9543Y-2.0827
X4.08Y-2.73
X4.23Y-1.305
T2
X0.689Y-1.1614
X0.689Y-1.2614
X0.689Y-1.3614
T3
X3.2809Y-4.24
X3.3309Y-4.19
X3.3309Y-4.29
T4
X1.26Y-1.32
X1.26Y-1.3987
X3.1956Y-1.9287
X3.1956Y-2.0287
X3.1956Y-2.1287
X3.1956Y-2.2287
X3.1956Y-2.3287
X3.1956Y-2.4287
X3.1956Y-2.5287
X3.1956Y-2.6287
X3.1956Y-2.7287
X3.1956Y-2.8287
X3.1956Y-2.9287
X3.1956Y-3.0287
X3.1956Y-3.1287
X3.1956Y-3.2287
X3.4956Y-1.9287
X3.4956Y-2.0287
X3.4956Y-2.1287
X3.4956Y-2.2287
X3.4956Y-2.3287
X3.4956Y-2.4287
X3.4956Y-2.5287
X3.4956Y-2.6287
X3.4956Y-2.7287
X3.4956Y-2.8287
X3.4956Y-2.9287
X3.4956Y-3.0287
X3.4956Y-3.1287
X3.4956Y-3.2287
X1.5216Y-3.1833
X1.5216Y-3.4833
X1.6216Y-3.1833
X1.6216Y-3.4833
X1.7216Y-3.1833
X1.7216Y-3.4833
X1.8216Y-3.1833
X1.8216Y-3.4833
X1.9216Y-3.1833
X1.9216Y-3.4833
X2.0216Y-3.1833
X2.0216Y-3.4833
X2.1216Y-3.1833
X2.1216Y-3.4833
X2.2216Y-3.1833
X2.2216Y-3.4833
X2.3216Y-3.1833
X2.3216Y-3.4833
X1.5294Y-3.8578
X1.5294Y-4.1578
X1.6294Y-3.8578
X1.6294Y-4.1578
X1.7294Y-3.8578
X1.7294Y-4.1578
X1.8294Y-3.8578
X1.8294Y-4.1578
X1.9294Y-3.8578
X1.9294Y-4.1578
X2.0294Y-3.8578
X2.0294Y-4.1578
X2.1294Y-3.8578
X2.1294Y-4.1578
X2.2294Y-3.8578
X2.2294Y-4.1578
X2.3294Y-3.8578
X2.3294Y-4.1578
X2.609Y-2.4641
X2.609Y-2.5641
X2.609Y-2.6641
X2.609Y-2.7641
X2.609Y-2.8641
X2.609Y-2.9641
X2.609Y-3.0641
X2.609Y-3.1641
X2.609Y-3.2641
X2.609Y-3.3641
X2.609Y-3.4641
X2.609Y-3.5641
X2.609Y-3.6641
X2.609Y-3.7641
X2.909Y-2.4641
X2.909Y-2.5641
X2.909Y-2.6641
X2.909Y-2.7641
X2.909Y-2.8641
X2.909Y-2.9641
X2.909Y-3.0641
X2.909Y-3.1641
X2.909Y-3.2641
X2.909Y-3.3641
X2.909Y-3.4641
X2.909Y-3.5641
X2.909Y-3.6641
X2.909Y-3.7641
X1.5137Y-1.8342
X1.5137Y-2.1342
X1.6137Y-1.8342
X1.6137Y-2.1342
X1.7137Y-1.8342
X1.7137Y-2.1342
X1.8137Y-1.8342
X1.8137Y-2.1342
X1.9137Y-1.8342
X1.9137Y-2.1342
X2.0137Y-1.8342
X2.0137Y-2.1342
X2.1137Y-1.8342
X2.1137Y-2.1342
X2.2137Y-1.8342
X2.2137Y-2.1342
X2.3137Y-1.8342
X2.3137Y-2.1342
X1.5137Y-2.5087
X1.5137Y-2.8087
X1.6137Y-2.5087
X1.6137Y-2.8087
X1.7137Y-2.5087
X1.7137Y-2.8087
X1.8137Y-2.5087
X1.8137Y-2.8087
X1.9137Y-2.5087
X1.9137Y-2.8087
X2.0137Y-2.5087
X2.0137Y-2.8087
X2.1137Y-2.5087
X2.1137Y-2.8087
X2.2137Y-2.5087
X2.2137Y-2.8087
X2.3137Y-2.5087
X2.3137Y-2.8087
X4.2717Y-2.3394
X4.2717Y-2.4394
X4.2717Y-2.5394
T5
X1.6929Y-1.063
X1.7929Y-1.063
X1.1811Y-1.063
X1.2811Y-1.063
T6
X3.9567Y-2.3394
X3.9567Y-2.4394
X3.9567Y-2.5394
T7
X0.6772Y-2.748
X0.6772Y-2.848
X0.6772Y-2.948
X0.6772Y-3.048
X0.6772Y-3.148
X0.6772Y-3.248
X0.6772Y-3.348
X0.6772Y-3.448
X0.6772Y-3.548
X0.6772Y-3.648
X0.7772Y-2.748
X0.7772Y-2.848
X0.7772Y-2.948
X0.7772Y-3.048
X0.7772Y-3.148
X0.7772Y-3.248
X0.7772Y-3.348
X0.7772Y-3.448
X0.7772Y-3.548
X0.7772Y-3.648
X1.1024Y-1.79
X1.1024Y-1.89
X1.1024Y-1.99
X1.1024Y-2.09
X1.1024Y-2.19
X1.1024Y-2.29
X1.1024Y-2.39
X1.1024Y-2.49
X1.1024Y-2.59
X1.1024Y-2.69
X1.1024Y-2.79
X1.1024Y-2.89
X1.1024Y-2.99
X1.1024Y-3.09
X1.1024Y-3.19
X1.1024Y-3.29
X1.1024Y-3.39
X1.1024Y-3.49
X1.1024Y-3.59
X1.1024Y-3.69
X1.1024Y-3.79
X1.1024Y-3.89
X1.1024Y-3.99
X1.1024Y-4.09
X1.1024Y-4.19
X1.2024Y-1.79
X1.2024Y-1.89
X1.2024Y-1.99
X1.2024Y-2.09
X1.2024Y-2.19
X1.2024Y-2.29
X1.2024Y-2.39
X1.2024Y-2.49
X1.2024Y-2.59
X1.2024Y-2.69
X1.2024Y-2.79
X1.2024Y-2.89
X1.2024Y-2.99
X1.2024Y-3.09
X1.2024Y-3.19
X1.2024Y-3.29
X1.2024Y-3.39
X1.2024Y-3.49
X1.2024Y-3.59
X1.2024Y-3.69
X1.2024Y-3.79
X1.2024Y-3.89
X1.2024Y-3.99
X1.2024Y-4.09
X1.2024Y-4.19
T8
X2.2575Y-0.6024
X2.2575Y-1.6024
X2.3575Y-0.6024
X2.3575Y-1.6024
X2.4575Y-0.6024
X2.4575Y-1.6024
X2.5575Y-0.6024
X2.5575Y-1.6024
X2.6575Y-0.6024
X2.6575Y-1.6024
X2.7575Y-0.6024
X2.7575Y-1.6024
X2.8575Y-0.6024
X2.8575Y-1.6024
X2.9575Y-0.6024
X2.9575Y-1.6024
X3.0575Y-0.6024
X3.0575Y-1.6024
X3.1575Y-0.6024
X3.1575Y-1.6024
X3.2575Y-0.6024
X3.2575Y-1.6024
X3.3575Y-0.6024
X3.3575Y-1.6024
X3.4575Y-0.6024
X3.4575Y-1.6024
X3.5575Y-0.6024
X3.5575Y-1.6024
X3.6575Y-0.6024
X3.6575Y-1.6024
X3.7575Y-0.6024
X3.7575Y-1.6024
X3.8575Y-0.6024
X3.8575Y-1.6024
X3.9575Y-0.6024
X3.9575Y-1.6024
X4.0575Y-0.6024
X4.0575Y-1.6024
T9
X3.5992Y-4.2283
X3.6992Y-4.2283
X3.7992Y-4.2283
X4.0157Y-3.852
X4.0157Y-4.252
X1.1024Y-0.6728
X1.1024Y-0.85
X1.3583Y-0.6728
X1.3583Y-0.85
X1.6041Y-0.6728
X1.6041Y-0.85
X1.86Y-0.6728
X1.86Y-0.85
T10
X0.7559Y-1.748
X0.7559Y-2.348
T11
X3.8583Y-2.8
X3.8583Y-3.6858
T12
X4.2913Y-2.8976
X4.2913Y-3.0976
X4.2913Y-3.2976
X4.2913Y-3.4976
X4.2913Y-3.6976
X4.2913Y-3.8976
T13
X4.252Y-0.7087
X4.252Y-4.252
X0.7087Y-4.252
X0.7087Y-0.7087
T14
X3.8583Y-3.2429
T6
G00X3.89Y-1.9994
M15
G01X3.89Y-1.9206
M16
G05
G00X4.0475Y-1.775
M15
G01X3.9687Y-1.775
M16
G05
G00X4.1262Y-1.9994
M15
G01X4.1262Y-1.9206
M16
G05
T0
M30
