G04 #@! TF.GenerationSoftware,KiCad,Pcbnew,(5.1.5-0-10_14)*
G04 #@! TF.CreationDate,2020-06-17T20:56:16+02:00*
G04 #@! TF.ProjectId,LAWO_ESP32,4c41574f-5f45-4535-9033-322e6b696361,rev?*
G04 #@! TF.SameCoordinates,Original*
G04 #@! TF.FileFunction,Soldermask,Bot*
G04 #@! TF.FilePolarity,Negative*
%FSLAX46Y46*%
G04 Gerber Fmt 4.6, Leading zero omitted, Abs format (unit mm)*
G04 Created by KiCad (PCBNEW (5.1.5-0-10_14)) date 2020-06-17 20:56:16*
%MOMM*%
%LPD*%
G04 APERTURE LIST*
%ADD10O,1.600000X1.600000*%
%ADD11R,1.600000X1.600000*%
%ADD12R,1.800000X1.100000*%
%ADD13C,0.100000*%
%ADD14C,1.800000*%
%ADD15R,1.800000X1.800000*%
%ADD16C,2.000000*%
%ADD17C,1.600000*%
%ADD18O,2.200000X2.200000*%
%ADD19R,2.200000X2.200000*%
%ADD20C,1.300000*%
%ADD21R,1.300000X1.300000*%
%ADD22O,1.905000X2.000000*%
%ADD23R,1.905000X2.000000*%
%ADD24O,1.800000X1.800000*%
%ADD25C,1.440000*%
%ADD26C,1.560000*%
%ADD27R,1.560000X1.560000*%
%ADD28C,3.000000*%
%ADD29R,3.000000X3.000000*%
%ADD30O,2.400000X2.400000*%
%ADD31C,2.400000*%
%ADD32O,1.727200X1.727200*%
%ADD33R,1.727200X1.727200*%
%ADD34C,4.064000*%
%ADD35R,3.500000X3.500000*%
%ADD36C,2.700000*%
G04 APERTURE END LIST*
D10*
X73888000Y-62588000D03*
X66268000Y-95608000D03*
X73888000Y-65128000D03*
X66268000Y-93068000D03*
X73888000Y-67668000D03*
X66268000Y-90528000D03*
X73888000Y-70208000D03*
X66268000Y-87988000D03*
X73888000Y-72748000D03*
X66268000Y-85448000D03*
X73888000Y-75288000D03*
X66268000Y-82908000D03*
X73888000Y-77828000D03*
X66268000Y-80368000D03*
X73888000Y-80368000D03*
X66268000Y-77828000D03*
X73888000Y-82908000D03*
X66268000Y-75288000D03*
X73888000Y-85448000D03*
X66268000Y-72748000D03*
X73888000Y-87988000D03*
X66268000Y-70208000D03*
X73888000Y-90528000D03*
X66268000Y-67668000D03*
X73888000Y-93068000D03*
X66268000Y-65128000D03*
X73888000Y-95608000D03*
D11*
X66268000Y-62588000D03*
D12*
X85006000Y-108966000D03*
D13*
G36*
X85657955Y-105877324D02*
G01*
X85684650Y-105881284D01*
X85710828Y-105887841D01*
X85736238Y-105896933D01*
X85760634Y-105908472D01*
X85783782Y-105922346D01*
X85805458Y-105938422D01*
X85825454Y-105956546D01*
X85843578Y-105976542D01*
X85859654Y-105998218D01*
X85873528Y-106021366D01*
X85885067Y-106045762D01*
X85894159Y-106071172D01*
X85900716Y-106097350D01*
X85904676Y-106124045D01*
X85906000Y-106151000D01*
X85906000Y-106701000D01*
X85904676Y-106727955D01*
X85900716Y-106754650D01*
X85894159Y-106780828D01*
X85885067Y-106806238D01*
X85873528Y-106830634D01*
X85859654Y-106853782D01*
X85843578Y-106875458D01*
X85825454Y-106895454D01*
X85805458Y-106913578D01*
X85783782Y-106929654D01*
X85760634Y-106943528D01*
X85736238Y-106955067D01*
X85710828Y-106964159D01*
X85684650Y-106970716D01*
X85657955Y-106974676D01*
X85631000Y-106976000D01*
X84381000Y-106976000D01*
X84354045Y-106974676D01*
X84327350Y-106970716D01*
X84301172Y-106964159D01*
X84275762Y-106955067D01*
X84251366Y-106943528D01*
X84228218Y-106929654D01*
X84206542Y-106913578D01*
X84186546Y-106895454D01*
X84168422Y-106875458D01*
X84152346Y-106853782D01*
X84138472Y-106830634D01*
X84126933Y-106806238D01*
X84117841Y-106780828D01*
X84111284Y-106754650D01*
X84107324Y-106727955D01*
X84106000Y-106701000D01*
X84106000Y-106151000D01*
X84107324Y-106124045D01*
X84111284Y-106097350D01*
X84117841Y-106071172D01*
X84126933Y-106045762D01*
X84138472Y-106021366D01*
X84152346Y-105998218D01*
X84168422Y-105976542D01*
X84186546Y-105956546D01*
X84206542Y-105938422D01*
X84228218Y-105922346D01*
X84251366Y-105908472D01*
X84275762Y-105896933D01*
X84301172Y-105887841D01*
X84327350Y-105881284D01*
X84354045Y-105877324D01*
X84381000Y-105876000D01*
X85631000Y-105876000D01*
X85657955Y-105877324D01*
G37*
G36*
X83587955Y-107147324D02*
G01*
X83614650Y-107151284D01*
X83640828Y-107157841D01*
X83666238Y-107166933D01*
X83690634Y-107178472D01*
X83713782Y-107192346D01*
X83735458Y-107208422D01*
X83755454Y-107226546D01*
X83773578Y-107246542D01*
X83789654Y-107268218D01*
X83803528Y-107291366D01*
X83815067Y-107315762D01*
X83824159Y-107341172D01*
X83830716Y-107367350D01*
X83834676Y-107394045D01*
X83836000Y-107421000D01*
X83836000Y-107971000D01*
X83834676Y-107997955D01*
X83830716Y-108024650D01*
X83824159Y-108050828D01*
X83815067Y-108076238D01*
X83803528Y-108100634D01*
X83789654Y-108123782D01*
X83773578Y-108145458D01*
X83755454Y-108165454D01*
X83735458Y-108183578D01*
X83713782Y-108199654D01*
X83690634Y-108213528D01*
X83666238Y-108225067D01*
X83640828Y-108234159D01*
X83614650Y-108240716D01*
X83587955Y-108244676D01*
X83561000Y-108246000D01*
X82311000Y-108246000D01*
X82284045Y-108244676D01*
X82257350Y-108240716D01*
X82231172Y-108234159D01*
X82205762Y-108225067D01*
X82181366Y-108213528D01*
X82158218Y-108199654D01*
X82136542Y-108183578D01*
X82116546Y-108165454D01*
X82098422Y-108145458D01*
X82082346Y-108123782D01*
X82068472Y-108100634D01*
X82056933Y-108076238D01*
X82047841Y-108050828D01*
X82041284Y-108024650D01*
X82037324Y-107997955D01*
X82036000Y-107971000D01*
X82036000Y-107421000D01*
X82037324Y-107394045D01*
X82041284Y-107367350D01*
X82047841Y-107341172D01*
X82056933Y-107315762D01*
X82068472Y-107291366D01*
X82082346Y-107268218D01*
X82098422Y-107246542D01*
X82116546Y-107226546D01*
X82136542Y-107208422D01*
X82158218Y-107192346D01*
X82181366Y-107178472D01*
X82205762Y-107166933D01*
X82231172Y-107157841D01*
X82257350Y-107151284D01*
X82284045Y-107147324D01*
X82311000Y-107146000D01*
X83561000Y-107146000D01*
X83587955Y-107147324D01*
G37*
D14*
X45540000Y-27000000D03*
D15*
X43000000Y-27000000D03*
D14*
X32540000Y-27000000D03*
D15*
X30000000Y-27000000D03*
D16*
X47244000Y-17090000D03*
X47244000Y-21590000D03*
X40744000Y-17090000D03*
X40744000Y-21590000D03*
X34500000Y-17090000D03*
X34500000Y-21590000D03*
X28000000Y-17090000D03*
X28000000Y-21590000D03*
D10*
X88788000Y-48988000D03*
X81168000Y-82008000D03*
X88788000Y-51528000D03*
X81168000Y-79468000D03*
X88788000Y-54068000D03*
X81168000Y-76928000D03*
X88788000Y-56608000D03*
X81168000Y-74388000D03*
X88788000Y-59148000D03*
X81168000Y-71848000D03*
X88788000Y-61688000D03*
X81168000Y-69308000D03*
X88788000Y-64228000D03*
X81168000Y-66768000D03*
X88788000Y-66768000D03*
X81168000Y-64228000D03*
X88788000Y-69308000D03*
X81168000Y-61688000D03*
X88788000Y-71848000D03*
X81168000Y-59148000D03*
X88788000Y-74388000D03*
X81168000Y-56608000D03*
X88788000Y-76928000D03*
X81168000Y-54068000D03*
X88788000Y-79468000D03*
X81168000Y-51528000D03*
X88788000Y-82008000D03*
D11*
X81168000Y-48988000D03*
X32004000Y-33528000D03*
D17*
X32004000Y-35528000D03*
D18*
X102000000Y-97840000D03*
D19*
X102000000Y-108000000D03*
D20*
X17500000Y-32040000D03*
D21*
X17500000Y-29500000D03*
D20*
X17500000Y-34580000D03*
D22*
X91420000Y-107400000D03*
X93960000Y-107400000D03*
D23*
X96500000Y-107400000D03*
D10*
X58968000Y-88474700D03*
X38648000Y-80854700D03*
X56428000Y-88474700D03*
X41188000Y-80854700D03*
X53888000Y-88474700D03*
X43728000Y-80854700D03*
X51348000Y-88474700D03*
X46268000Y-80854700D03*
X48808000Y-88474700D03*
X48808000Y-80854700D03*
X46268000Y-88474700D03*
X51348000Y-80854700D03*
X43728000Y-88474700D03*
X53888000Y-80854700D03*
X41188000Y-88474700D03*
X56428000Y-80854700D03*
X38648000Y-88474700D03*
D11*
X58968000Y-80854700D03*
D10*
X58768000Y-54208000D03*
X38448000Y-46588000D03*
X56228000Y-54208000D03*
X40988000Y-46588000D03*
X53688000Y-54208000D03*
X43528000Y-46588000D03*
X51148000Y-54208000D03*
X46068000Y-46588000D03*
X48608000Y-54208000D03*
X48608000Y-46588000D03*
X46068000Y-54208000D03*
X51148000Y-46588000D03*
X43528000Y-54208000D03*
X53688000Y-46588000D03*
X40988000Y-54208000D03*
X56228000Y-46588000D03*
X38448000Y-54208000D03*
D11*
X58768000Y-46588000D03*
D10*
X59168000Y-105608000D03*
X38848000Y-97988000D03*
X56628000Y-105608000D03*
X41388000Y-97988000D03*
X54088000Y-105608000D03*
X43928000Y-97988000D03*
X51548000Y-105608000D03*
X46468000Y-97988000D03*
X49008000Y-105608000D03*
X49008000Y-97988000D03*
X46468000Y-105608000D03*
X51548000Y-97988000D03*
X43928000Y-105608000D03*
X54088000Y-97988000D03*
X41388000Y-105608000D03*
X56628000Y-97988000D03*
X38848000Y-105608000D03*
D11*
X59168000Y-97988000D03*
D10*
X58768000Y-71341300D03*
X38448000Y-63721300D03*
X56228000Y-71341300D03*
X40988000Y-63721300D03*
X53688000Y-71341300D03*
X43528000Y-63721300D03*
X51148000Y-71341300D03*
X46068000Y-63721300D03*
X48608000Y-71341300D03*
X48608000Y-63721300D03*
X46068000Y-71341300D03*
X51148000Y-63721300D03*
X43528000Y-71341300D03*
X53688000Y-63721300D03*
X40988000Y-71341300D03*
X56228000Y-63721300D03*
X38448000Y-71341300D03*
D11*
X58768000Y-63721300D03*
D15*
X100500000Y-64500000D03*
D24*
X100500000Y-61960000D03*
X100500000Y-59420000D03*
D25*
X108500000Y-64500000D03*
X108500000Y-61960000D03*
X108500000Y-59420000D03*
D26*
X103060000Y-15300000D03*
X100520000Y-15300000D03*
X97980000Y-15300000D03*
X95440000Y-15300000D03*
X92900000Y-15300000D03*
X90360000Y-15300000D03*
X87820000Y-15300000D03*
X85280000Y-15300000D03*
X82740000Y-15300000D03*
X80200000Y-15300000D03*
X77660000Y-15300000D03*
X75120000Y-15300000D03*
X72580000Y-15300000D03*
X70040000Y-15300000D03*
X67500000Y-15300000D03*
X64960000Y-15300000D03*
X62420000Y-15300000D03*
X59880000Y-15300000D03*
X57340000Y-15300000D03*
X100520000Y-40700000D03*
X97980000Y-40700000D03*
X95440000Y-40700000D03*
X92900000Y-40700000D03*
X90360000Y-40700000D03*
X87820000Y-40700000D03*
X85280000Y-40700000D03*
X82740000Y-40700000D03*
X80200000Y-40700000D03*
X77660000Y-40700000D03*
X75120000Y-40700000D03*
X72580000Y-40700000D03*
X70040000Y-40700000D03*
X67500000Y-40700000D03*
X64960000Y-40700000D03*
X62420000Y-40700000D03*
X103060000Y-40700000D03*
X59880000Y-40700000D03*
D27*
X57340000Y-40700000D03*
D28*
X109000000Y-93920000D03*
X109000000Y-88840000D03*
D29*
X109000000Y-99000000D03*
D28*
X109000000Y-83760000D03*
X109000000Y-78680000D03*
X109000000Y-73600000D03*
D30*
X19200000Y-59640000D03*
D31*
X19200000Y-44400000D03*
D32*
X19740000Y-92660000D03*
X17200000Y-92660000D03*
X19740000Y-90120000D03*
X17200000Y-90120000D03*
X19740000Y-87580000D03*
X17200000Y-87580000D03*
X19740000Y-85040000D03*
X17200000Y-85040000D03*
X19740000Y-82500000D03*
X17200000Y-82500000D03*
X19740000Y-79960000D03*
X17200000Y-79960000D03*
X19740000Y-77420000D03*
X17200000Y-77420000D03*
X19740000Y-74880000D03*
X17200000Y-74880000D03*
X19740000Y-72340000D03*
X17200000Y-72340000D03*
X19740000Y-69800000D03*
D33*
X17200000Y-69800000D03*
D32*
X30540000Y-106426000D03*
X28000000Y-106426000D03*
X30540000Y-103886000D03*
X28000000Y-103886000D03*
X30540000Y-101346000D03*
X28000000Y-101346000D03*
X30540000Y-98806000D03*
X28000000Y-98806000D03*
X30540000Y-96266000D03*
X28000000Y-96266000D03*
X30540000Y-93726000D03*
X28000000Y-93726000D03*
X30540000Y-91186000D03*
X28000000Y-91186000D03*
X30540000Y-88646000D03*
X28000000Y-88646000D03*
X30540000Y-86106000D03*
X28000000Y-86106000D03*
X30540000Y-83566000D03*
X28000000Y-83566000D03*
X30540000Y-81026000D03*
X28000000Y-81026000D03*
X30540000Y-78486000D03*
X28000000Y-78486000D03*
X30540000Y-75946000D03*
X28000000Y-75946000D03*
X30540000Y-73406000D03*
X28000000Y-73406000D03*
X30540000Y-70866000D03*
X28000000Y-70866000D03*
X30540000Y-68326000D03*
X28000000Y-68326000D03*
X30540000Y-65786000D03*
X28000000Y-65786000D03*
X30540000Y-63246000D03*
X28000000Y-63246000D03*
X30540000Y-60706000D03*
X28000000Y-60706000D03*
X30540000Y-58166000D03*
X28000000Y-58166000D03*
X30540000Y-55626000D03*
X28000000Y-55626000D03*
X30540000Y-53086000D03*
X28000000Y-53086000D03*
X30540000Y-50546000D03*
X28000000Y-50546000D03*
X30540000Y-48006000D03*
X28000000Y-48006000D03*
X30540000Y-45466000D03*
D33*
X28000000Y-45466000D03*
D34*
X108000000Y-18000000D03*
X108000000Y-108000000D03*
X18000000Y-108000000D03*
X18000000Y-18000000D03*
D35*
X98806000Y-49784000D03*
X104806000Y-49784000D03*
X101806000Y-45084000D03*
D28*
X98000000Y-71120000D03*
X98000000Y-93620000D03*
D36*
X98000000Y-82370000D03*
M02*
