G04 #@! TF.GenerationSoftware,KiCad,Pcbnew,(5.1.5-0-10_14)*
G04 #@! TF.CreationDate,2020-04-30T20:24:14+02:00*
G04 #@! TF.ProjectId,GORBA_LAWO_Adapter,474f5242-415f-44c4-9157-4f5f41646170,rev?*
G04 #@! TF.SameCoordinates,Original*
G04 #@! TF.FileFunction,Legend,Top*
G04 #@! TF.FilePolarity,Positive*
%FSLAX46Y46*%
G04 Gerber Fmt 4.6, Leading zero omitted, Abs format (unit mm)*
G04 Created by KiCad (PCBNEW (5.1.5-0-10_14)) date 2020-04-30 20:24:14*
%MOMM*%
%LPD*%
G04 APERTURE LIST*
%ADD10C,0.120000*%
%ADD11C,0.150000*%
G04 APERTURE END LIST*
D10*
X50480000Y-51600000D02*
X50810000Y-51600000D01*
X50810000Y-51600000D02*
X50810000Y-58020000D01*
X50810000Y-58020000D02*
X50480000Y-58020000D01*
X48520000Y-51600000D02*
X48190000Y-51600000D01*
X48190000Y-51600000D02*
X48190000Y-58020000D01*
X48190000Y-58020000D02*
X48520000Y-58020000D01*
X53980000Y-51600000D02*
X54310000Y-51600000D01*
X54310000Y-51600000D02*
X54310000Y-58020000D01*
X54310000Y-58020000D02*
X53980000Y-58020000D01*
X52020000Y-51600000D02*
X51690000Y-51600000D01*
X51690000Y-51600000D02*
X51690000Y-58020000D01*
X51690000Y-58020000D02*
X52020000Y-58020000D01*
X57480000Y-51600000D02*
X57810000Y-51600000D01*
X57810000Y-51600000D02*
X57810000Y-58020000D01*
X57810000Y-58020000D02*
X57480000Y-58020000D01*
X55520000Y-51600000D02*
X55190000Y-51600000D01*
X55190000Y-51600000D02*
X55190000Y-58020000D01*
X55190000Y-58020000D02*
X55520000Y-58020000D01*
X60980000Y-51600000D02*
X61310000Y-51600000D01*
X61310000Y-51600000D02*
X61310000Y-58020000D01*
X61310000Y-58020000D02*
X60980000Y-58020000D01*
X59020000Y-51600000D02*
X58690000Y-51600000D01*
X58690000Y-51600000D02*
X58690000Y-58020000D01*
X58690000Y-58020000D02*
X59020000Y-58020000D01*
X64480000Y-51600000D02*
X64810000Y-51600000D01*
X64810000Y-51600000D02*
X64810000Y-58020000D01*
X64810000Y-58020000D02*
X64480000Y-58020000D01*
X62520000Y-51600000D02*
X62190000Y-51600000D01*
X62190000Y-51600000D02*
X62190000Y-58020000D01*
X62190000Y-58020000D02*
X62520000Y-58020000D01*
X36805000Y-54315000D02*
X37500000Y-54315000D01*
X36805000Y-55000000D02*
X36805000Y-54315000D01*
X38108276Y-55685000D02*
X38195000Y-55685000D01*
X36805000Y-55685000D02*
X36891724Y-55685000D01*
X38195000Y-55685000D02*
X38195000Y-55560000D01*
X36805000Y-55685000D02*
X36805000Y-55560000D01*
X36805000Y-55685000D02*
X38195000Y-55685000D01*
X41380000Y-50130000D02*
X45620000Y-50130000D01*
X41380000Y-60370000D02*
X45620000Y-60370000D01*
X45620000Y-60370000D02*
X45620000Y-50130000D01*
X41380000Y-60370000D02*
X41380000Y-50130000D01*
X73630000Y-41120000D02*
X73630000Y-36880000D01*
X83870000Y-41120000D02*
X83870000Y-36880000D01*
X83870000Y-36880000D02*
X73630000Y-36880000D01*
X83870000Y-41120000D02*
X73630000Y-41120000D01*
X73630000Y-53620000D02*
X73630000Y-49380000D01*
X83870000Y-53620000D02*
X83870000Y-49380000D01*
X83870000Y-49380000D02*
X73630000Y-49380000D01*
X83870000Y-53620000D02*
X73630000Y-53620000D01*
X73630000Y-60120000D02*
X73630000Y-55880000D01*
X83870000Y-60120000D02*
X83870000Y-55880000D01*
X83870000Y-55880000D02*
X73630000Y-55880000D01*
X83870000Y-60120000D02*
X73630000Y-60120000D01*
X73630000Y-47120000D02*
X73630000Y-42880000D01*
X83870000Y-47120000D02*
X83870000Y-42880000D01*
X83870000Y-42880000D02*
X73630000Y-42880000D01*
X83870000Y-47120000D02*
X73630000Y-47120000D01*
D11*
X38640000Y-38720000D02*
X39200000Y-39270000D01*
X66580000Y-38720000D02*
X66040000Y-39270000D01*
X38640000Y-47820000D02*
X39200000Y-47270000D01*
X66580000Y-47820000D02*
X66040000Y-47270000D01*
X39200000Y-47270000D02*
X39200000Y-39270000D01*
X38640000Y-47820000D02*
X38640000Y-38720000D01*
X66040000Y-47270000D02*
X66040000Y-39270000D01*
X66580000Y-47820000D02*
X66580000Y-38720000D01*
X50360000Y-39270000D02*
X50360000Y-38720000D01*
X54860000Y-39270000D02*
X54860000Y-38720000D01*
X50360000Y-39270000D02*
X39200000Y-39270000D01*
X66040000Y-39270000D02*
X54860000Y-39270000D01*
X66580000Y-38720000D02*
X38640000Y-38720000D01*
X66040000Y-47270000D02*
X39200000Y-47270000D01*
X66580000Y-47820000D02*
X38640000Y-47820000D01*
X40940000Y-92720000D02*
X41500000Y-93270000D01*
X81580000Y-92720000D02*
X81040000Y-93270000D01*
X40940000Y-101820000D02*
X41500000Y-101270000D01*
X81580000Y-101820000D02*
X81040000Y-101270000D01*
X41500000Y-101270000D02*
X41500000Y-93270000D01*
X40940000Y-101820000D02*
X40940000Y-92720000D01*
X81040000Y-101270000D02*
X81040000Y-93270000D01*
X81580000Y-101820000D02*
X81580000Y-92720000D01*
X59010000Y-93270000D02*
X59010000Y-92720000D01*
X63510000Y-93270000D02*
X63510000Y-92720000D01*
X59010000Y-93270000D02*
X41500000Y-93270000D01*
X81040000Y-93270000D02*
X63510000Y-93270000D01*
X81580000Y-92720000D02*
X40940000Y-92720000D01*
X81040000Y-101270000D02*
X41500000Y-101270000D01*
X81580000Y-101820000D02*
X40940000Y-101820000D01*
X33440000Y-63720000D02*
X34000000Y-64270000D01*
X74080000Y-63720000D02*
X73540000Y-64270000D01*
X33440000Y-72820000D02*
X34000000Y-72270000D01*
X74080000Y-72820000D02*
X73540000Y-72270000D01*
X34000000Y-72270000D02*
X34000000Y-64270000D01*
X33440000Y-72820000D02*
X33440000Y-63720000D01*
X73540000Y-72270000D02*
X73540000Y-64270000D01*
X74080000Y-72820000D02*
X74080000Y-63720000D01*
X51510000Y-64270000D02*
X51510000Y-63720000D01*
X56010000Y-64270000D02*
X56010000Y-63720000D01*
X51510000Y-64270000D02*
X34000000Y-64270000D01*
X73540000Y-64270000D02*
X56010000Y-64270000D01*
X74080000Y-63720000D02*
X33440000Y-63720000D01*
X73540000Y-72270000D02*
X34000000Y-72270000D01*
X74080000Y-72820000D02*
X33440000Y-72820000D01*
X87220000Y-105040000D02*
X87770000Y-104480000D01*
X87220000Y-33920000D02*
X87770000Y-34460000D01*
X96320000Y-105040000D02*
X95770000Y-104480000D01*
X96320000Y-33920000D02*
X95770000Y-34460000D01*
X95770000Y-104480000D02*
X87770000Y-104480000D01*
X96320000Y-105040000D02*
X87220000Y-105040000D01*
X95770000Y-34460000D02*
X87770000Y-34460000D01*
X96320000Y-33920000D02*
X87220000Y-33920000D01*
X87770000Y-71730000D02*
X87220000Y-71730000D01*
X87770000Y-67230000D02*
X87220000Y-67230000D01*
X87770000Y-71730000D02*
X87770000Y-104480000D01*
X87770000Y-34460000D02*
X87770000Y-67230000D01*
X87220000Y-33920000D02*
X87220000Y-105040000D01*
X95770000Y-34460000D02*
X95770000Y-104480000D01*
X96320000Y-33920000D02*
X96320000Y-105040000D01*
X49333333Y-60952380D02*
X49000000Y-60476190D01*
X48761904Y-60952380D02*
X48761904Y-59952380D01*
X49142857Y-59952380D01*
X49238095Y-60000000D01*
X49285714Y-60047619D01*
X49333333Y-60142857D01*
X49333333Y-60285714D01*
X49285714Y-60380952D01*
X49238095Y-60428571D01*
X49142857Y-60476190D01*
X48761904Y-60476190D01*
X50238095Y-59952380D02*
X49761904Y-59952380D01*
X49714285Y-60428571D01*
X49761904Y-60380952D01*
X49857142Y-60333333D01*
X50095238Y-60333333D01*
X50190476Y-60380952D01*
X50238095Y-60428571D01*
X50285714Y-60523809D01*
X50285714Y-60761904D01*
X50238095Y-60857142D01*
X50190476Y-60904761D01*
X50095238Y-60952380D01*
X49857142Y-60952380D01*
X49761904Y-60904761D01*
X49714285Y-60857142D01*
X52833333Y-60952380D02*
X52500000Y-60476190D01*
X52261904Y-60952380D02*
X52261904Y-59952380D01*
X52642857Y-59952380D01*
X52738095Y-60000000D01*
X52785714Y-60047619D01*
X52833333Y-60142857D01*
X52833333Y-60285714D01*
X52785714Y-60380952D01*
X52738095Y-60428571D01*
X52642857Y-60476190D01*
X52261904Y-60476190D01*
X53690476Y-60285714D02*
X53690476Y-60952380D01*
X53452380Y-59904761D02*
X53214285Y-60619047D01*
X53833333Y-60619047D01*
X56333333Y-60952380D02*
X56000000Y-60476190D01*
X55761904Y-60952380D02*
X55761904Y-59952380D01*
X56142857Y-59952380D01*
X56238095Y-60000000D01*
X56285714Y-60047619D01*
X56333333Y-60142857D01*
X56333333Y-60285714D01*
X56285714Y-60380952D01*
X56238095Y-60428571D01*
X56142857Y-60476190D01*
X55761904Y-60476190D01*
X56666666Y-59952380D02*
X57285714Y-59952380D01*
X56952380Y-60333333D01*
X57095238Y-60333333D01*
X57190476Y-60380952D01*
X57238095Y-60428571D01*
X57285714Y-60523809D01*
X57285714Y-60761904D01*
X57238095Y-60857142D01*
X57190476Y-60904761D01*
X57095238Y-60952380D01*
X56809523Y-60952380D01*
X56714285Y-60904761D01*
X56666666Y-60857142D01*
X59833333Y-60952380D02*
X59500000Y-60476190D01*
X59261904Y-60952380D02*
X59261904Y-59952380D01*
X59642857Y-59952380D01*
X59738095Y-60000000D01*
X59785714Y-60047619D01*
X59833333Y-60142857D01*
X59833333Y-60285714D01*
X59785714Y-60380952D01*
X59738095Y-60428571D01*
X59642857Y-60476190D01*
X59261904Y-60476190D01*
X60214285Y-60047619D02*
X60261904Y-60000000D01*
X60357142Y-59952380D01*
X60595238Y-59952380D01*
X60690476Y-60000000D01*
X60738095Y-60047619D01*
X60785714Y-60142857D01*
X60785714Y-60238095D01*
X60738095Y-60380952D01*
X60166666Y-60952380D01*
X60785714Y-60952380D01*
X63333333Y-60952380D02*
X63000000Y-60476190D01*
X62761904Y-60952380D02*
X62761904Y-59952380D01*
X63142857Y-59952380D01*
X63238095Y-60000000D01*
X63285714Y-60047619D01*
X63333333Y-60142857D01*
X63333333Y-60285714D01*
X63285714Y-60380952D01*
X63238095Y-60428571D01*
X63142857Y-60476190D01*
X62761904Y-60476190D01*
X64285714Y-60952380D02*
X63714285Y-60952380D01*
X64000000Y-60952380D02*
X64000000Y-59952380D01*
X63904761Y-60095238D01*
X63809523Y-60190476D01*
X63714285Y-60238095D01*
X37166666Y-56452380D02*
X37166666Y-57166666D01*
X37119047Y-57309523D01*
X37023809Y-57404761D01*
X36880952Y-57452380D01*
X36785714Y-57452380D01*
X38119047Y-56452380D02*
X37642857Y-56452380D01*
X37595238Y-56928571D01*
X37642857Y-56880952D01*
X37738095Y-56833333D01*
X37976190Y-56833333D01*
X38071428Y-56880952D01*
X38119047Y-56928571D01*
X38166666Y-57023809D01*
X38166666Y-57261904D01*
X38119047Y-57357142D01*
X38071428Y-57404761D01*
X37976190Y-57452380D01*
X37738095Y-57452380D01*
X37642857Y-57404761D01*
X37595238Y-57357142D01*
X43333333Y-61857142D02*
X43285714Y-61904761D01*
X43142857Y-61952380D01*
X43047619Y-61952380D01*
X42904761Y-61904761D01*
X42809523Y-61809523D01*
X42761904Y-61714285D01*
X42714285Y-61523809D01*
X42714285Y-61380952D01*
X42761904Y-61190476D01*
X42809523Y-61095238D01*
X42904761Y-61000000D01*
X43047619Y-60952380D01*
X43142857Y-60952380D01*
X43285714Y-61000000D01*
X43333333Y-61047619D01*
X44238095Y-60952380D02*
X43761904Y-60952380D01*
X43714285Y-61428571D01*
X43761904Y-61380952D01*
X43857142Y-61333333D01*
X44095238Y-61333333D01*
X44190476Y-61380952D01*
X44238095Y-61428571D01*
X44285714Y-61523809D01*
X44285714Y-61761904D01*
X44238095Y-61857142D01*
X44190476Y-61904761D01*
X44095238Y-61952380D01*
X43857142Y-61952380D01*
X43761904Y-61904761D01*
X43714285Y-61857142D01*
X78583333Y-42607142D02*
X78535714Y-42654761D01*
X78392857Y-42702380D01*
X78297619Y-42702380D01*
X78154761Y-42654761D01*
X78059523Y-42559523D01*
X78011904Y-42464285D01*
X77964285Y-42273809D01*
X77964285Y-42130952D01*
X78011904Y-41940476D01*
X78059523Y-41845238D01*
X78154761Y-41750000D01*
X78297619Y-41702380D01*
X78392857Y-41702380D01*
X78535714Y-41750000D01*
X78583333Y-41797619D01*
X79440476Y-42035714D02*
X79440476Y-42702380D01*
X79202380Y-41654761D02*
X78964285Y-42369047D01*
X79583333Y-42369047D01*
X78583333Y-55107142D02*
X78535714Y-55154761D01*
X78392857Y-55202380D01*
X78297619Y-55202380D01*
X78154761Y-55154761D01*
X78059523Y-55059523D01*
X78011904Y-54964285D01*
X77964285Y-54773809D01*
X77964285Y-54630952D01*
X78011904Y-54440476D01*
X78059523Y-54345238D01*
X78154761Y-54250000D01*
X78297619Y-54202380D01*
X78392857Y-54202380D01*
X78535714Y-54250000D01*
X78583333Y-54297619D01*
X78916666Y-54202380D02*
X79535714Y-54202380D01*
X79202380Y-54583333D01*
X79345238Y-54583333D01*
X79440476Y-54630952D01*
X79488095Y-54678571D01*
X79535714Y-54773809D01*
X79535714Y-55011904D01*
X79488095Y-55107142D01*
X79440476Y-55154761D01*
X79345238Y-55202380D01*
X79059523Y-55202380D01*
X78964285Y-55154761D01*
X78916666Y-55107142D01*
X78583333Y-61607142D02*
X78535714Y-61654761D01*
X78392857Y-61702380D01*
X78297619Y-61702380D01*
X78154761Y-61654761D01*
X78059523Y-61559523D01*
X78011904Y-61464285D01*
X77964285Y-61273809D01*
X77964285Y-61130952D01*
X78011904Y-60940476D01*
X78059523Y-60845238D01*
X78154761Y-60750000D01*
X78297619Y-60702380D01*
X78392857Y-60702380D01*
X78535714Y-60750000D01*
X78583333Y-60797619D01*
X78964285Y-60797619D02*
X79011904Y-60750000D01*
X79107142Y-60702380D01*
X79345238Y-60702380D01*
X79440476Y-60750000D01*
X79488095Y-60797619D01*
X79535714Y-60892857D01*
X79535714Y-60988095D01*
X79488095Y-61130952D01*
X78916666Y-61702380D01*
X79535714Y-61702380D01*
X78583333Y-48607142D02*
X78535714Y-48654761D01*
X78392857Y-48702380D01*
X78297619Y-48702380D01*
X78154761Y-48654761D01*
X78059523Y-48559523D01*
X78011904Y-48464285D01*
X77964285Y-48273809D01*
X77964285Y-48130952D01*
X78011904Y-47940476D01*
X78059523Y-47845238D01*
X78154761Y-47750000D01*
X78297619Y-47702380D01*
X78392857Y-47702380D01*
X78535714Y-47750000D01*
X78583333Y-47797619D01*
X79535714Y-48702380D02*
X78964285Y-48702380D01*
X79250000Y-48702380D02*
X79250000Y-47702380D01*
X79154761Y-47845238D01*
X79059523Y-47940476D01*
X78964285Y-47988095D01*
X46666666Y-36452380D02*
X46666666Y-37166666D01*
X46619047Y-37309523D01*
X46523809Y-37404761D01*
X46380952Y-37452380D01*
X46285714Y-37452380D01*
X47571428Y-36785714D02*
X47571428Y-37452380D01*
X47333333Y-36404761D02*
X47095238Y-37119047D01*
X47714285Y-37119047D01*
X50357142Y-37404761D02*
X50500000Y-37452380D01*
X50738095Y-37452380D01*
X50833333Y-37404761D01*
X50880952Y-37357142D01*
X50928571Y-37261904D01*
X50928571Y-37166666D01*
X50880952Y-37071428D01*
X50833333Y-37023809D01*
X50738095Y-36976190D01*
X50547619Y-36928571D01*
X50452380Y-36880952D01*
X50404761Y-36833333D01*
X50357142Y-36738095D01*
X50357142Y-36642857D01*
X50404761Y-36547619D01*
X50452380Y-36500000D01*
X50547619Y-36452380D01*
X50785714Y-36452380D01*
X50928571Y-36500000D01*
X51214285Y-36785714D02*
X51595238Y-36785714D01*
X51357142Y-36452380D02*
X51357142Y-37309523D01*
X51404761Y-37404761D01*
X51500000Y-37452380D01*
X51595238Y-37452380D01*
X52309523Y-37404761D02*
X52214285Y-37452380D01*
X52023809Y-37452380D01*
X51928571Y-37404761D01*
X51880952Y-37309523D01*
X51880952Y-36928571D01*
X51928571Y-36833333D01*
X52023809Y-36785714D01*
X52214285Y-36785714D01*
X52309523Y-36833333D01*
X52357142Y-36928571D01*
X52357142Y-37023809D01*
X51880952Y-37119047D01*
X53214285Y-36785714D02*
X53214285Y-37452380D01*
X52785714Y-36785714D02*
X52785714Y-37309523D01*
X52833333Y-37404761D01*
X52928571Y-37452380D01*
X53071428Y-37452380D01*
X53166666Y-37404761D01*
X53214285Y-37357142D01*
X54071428Y-37404761D02*
X53976190Y-37452380D01*
X53785714Y-37452380D01*
X53690476Y-37404761D01*
X53642857Y-37309523D01*
X53642857Y-36928571D01*
X53690476Y-36833333D01*
X53785714Y-36785714D01*
X53976190Y-36785714D01*
X54071428Y-36833333D01*
X54119047Y-36928571D01*
X54119047Y-37023809D01*
X53642857Y-37119047D01*
X54547619Y-37452380D02*
X54547619Y-36785714D01*
X54547619Y-36976190D02*
X54595238Y-36880952D01*
X54642857Y-36833333D01*
X54738095Y-36785714D01*
X54833333Y-36785714D01*
X55166666Y-36785714D02*
X55166666Y-37452380D01*
X55166666Y-36880952D02*
X55214285Y-36833333D01*
X55309523Y-36785714D01*
X55452380Y-36785714D01*
X55547619Y-36833333D01*
X55595238Y-36928571D01*
X55595238Y-37452380D01*
X60666666Y-102952380D02*
X60666666Y-103666666D01*
X60619047Y-103809523D01*
X60523809Y-103904761D01*
X60380952Y-103952380D01*
X60285714Y-103952380D01*
X61047619Y-102952380D02*
X61666666Y-102952380D01*
X61333333Y-103333333D01*
X61476190Y-103333333D01*
X61571428Y-103380952D01*
X61619047Y-103428571D01*
X61666666Y-103523809D01*
X61666666Y-103761904D01*
X61619047Y-103857142D01*
X61571428Y-103904761D01*
X61476190Y-103952380D01*
X61190476Y-103952380D01*
X61095238Y-103904761D01*
X61047619Y-103857142D01*
X65214285Y-103904761D02*
X65357142Y-103952380D01*
X65595238Y-103952380D01*
X65690476Y-103904761D01*
X65738095Y-103857142D01*
X65785714Y-103761904D01*
X65785714Y-103666666D01*
X65738095Y-103571428D01*
X65690476Y-103523809D01*
X65595238Y-103476190D01*
X65404761Y-103428571D01*
X65309523Y-103380952D01*
X65261904Y-103333333D01*
X65214285Y-103238095D01*
X65214285Y-103142857D01*
X65261904Y-103047619D01*
X65309523Y-103000000D01*
X65404761Y-102952380D01*
X65642857Y-102952380D01*
X65785714Y-103000000D01*
X66595238Y-103904761D02*
X66500000Y-103952380D01*
X66309523Y-103952380D01*
X66214285Y-103904761D01*
X66166666Y-103809523D01*
X66166666Y-103428571D01*
X66214285Y-103333333D01*
X66309523Y-103285714D01*
X66500000Y-103285714D01*
X66595238Y-103333333D01*
X66642857Y-103428571D01*
X66642857Y-103523809D01*
X66166666Y-103619047D01*
X66928571Y-103285714D02*
X67309523Y-103285714D01*
X67071428Y-102952380D02*
X67071428Y-103809523D01*
X67119047Y-103904761D01*
X67214285Y-103952380D01*
X67309523Y-103952380D01*
X67547619Y-103285714D02*
X68071428Y-103285714D01*
X67547619Y-103952380D01*
X68071428Y-103952380D01*
X68833333Y-103904761D02*
X68738095Y-103952380D01*
X68547619Y-103952380D01*
X68452380Y-103904761D01*
X68404761Y-103809523D01*
X68404761Y-103428571D01*
X68452380Y-103333333D01*
X68547619Y-103285714D01*
X68738095Y-103285714D01*
X68833333Y-103333333D01*
X68880952Y-103428571D01*
X68880952Y-103523809D01*
X68404761Y-103619047D01*
X69309523Y-103285714D02*
X69309523Y-103952380D01*
X69309523Y-103380952D02*
X69357142Y-103333333D01*
X69452380Y-103285714D01*
X69595238Y-103285714D01*
X69690476Y-103333333D01*
X69738095Y-103428571D01*
X69738095Y-103952380D01*
X54166666Y-73952380D02*
X54166666Y-74666666D01*
X54119047Y-74809523D01*
X54023809Y-74904761D01*
X53880952Y-74952380D01*
X53785714Y-74952380D01*
X54595238Y-74047619D02*
X54642857Y-74000000D01*
X54738095Y-73952380D01*
X54976190Y-73952380D01*
X55071428Y-74000000D01*
X55119047Y-74047619D01*
X55166666Y-74142857D01*
X55166666Y-74238095D01*
X55119047Y-74380952D01*
X54547619Y-74952380D01*
X55166666Y-74952380D01*
X61119047Y-74952380D02*
X60785714Y-74476190D01*
X60547619Y-74952380D02*
X60547619Y-73952380D01*
X60928571Y-73952380D01*
X61023809Y-74000000D01*
X61071428Y-74047619D01*
X61119047Y-74142857D01*
X61119047Y-74285714D01*
X61071428Y-74380952D01*
X61023809Y-74428571D01*
X60928571Y-74476190D01*
X60547619Y-74476190D01*
X61976190Y-74285714D02*
X61976190Y-74952380D01*
X61547619Y-74285714D02*
X61547619Y-74809523D01*
X61595238Y-74904761D01*
X61690476Y-74952380D01*
X61833333Y-74952380D01*
X61928571Y-74904761D01*
X61976190Y-74857142D01*
X61595238Y-73952380D02*
X61642857Y-74000000D01*
X61595238Y-74047619D01*
X61547619Y-74000000D01*
X61595238Y-73952380D01*
X61595238Y-74047619D01*
X61976190Y-73952380D02*
X62023809Y-74000000D01*
X61976190Y-74047619D01*
X61928571Y-74000000D01*
X61976190Y-73952380D01*
X61976190Y-74047619D01*
X62880952Y-74904761D02*
X62785714Y-74952380D01*
X62595238Y-74952380D01*
X62500000Y-74904761D01*
X62452380Y-74857142D01*
X62404761Y-74761904D01*
X62404761Y-74476190D01*
X62452380Y-74380952D01*
X62500000Y-74333333D01*
X62595238Y-74285714D01*
X62785714Y-74285714D01*
X62880952Y-74333333D01*
X63309523Y-74952380D02*
X63309523Y-73952380D01*
X63404761Y-74571428D02*
X63690476Y-74952380D01*
X63690476Y-74285714D02*
X63309523Y-74666666D01*
X64071428Y-74904761D02*
X64166666Y-74952380D01*
X64357142Y-74952380D01*
X64452380Y-74904761D01*
X64499999Y-74809523D01*
X64499999Y-74761904D01*
X64452380Y-74666666D01*
X64357142Y-74619047D01*
X64214285Y-74619047D01*
X64119047Y-74571428D01*
X64071428Y-74476190D01*
X64071428Y-74428571D01*
X64119047Y-74333333D01*
X64214285Y-74285714D01*
X64357142Y-74285714D01*
X64452380Y-74333333D01*
X65309523Y-74904761D02*
X65214285Y-74952380D01*
X65023809Y-74952380D01*
X64928571Y-74904761D01*
X64880952Y-74809523D01*
X64880952Y-74428571D01*
X64928571Y-74333333D01*
X65023809Y-74285714D01*
X65214285Y-74285714D01*
X65309523Y-74333333D01*
X65357142Y-74428571D01*
X65357142Y-74523809D01*
X64880952Y-74619047D01*
X65642857Y-74285714D02*
X66023809Y-74285714D01*
X65785714Y-73952380D02*
X65785714Y-74809523D01*
X65833333Y-74904761D01*
X65928571Y-74952380D01*
X66023809Y-74952380D01*
X66261904Y-74285714D02*
X66785714Y-74285714D01*
X66261904Y-74952380D01*
X66785714Y-74952380D01*
X67547619Y-74904761D02*
X67452380Y-74952380D01*
X67261904Y-74952380D01*
X67166666Y-74904761D01*
X67119047Y-74809523D01*
X67119047Y-74428571D01*
X67166666Y-74333333D01*
X67261904Y-74285714D01*
X67452380Y-74285714D01*
X67547619Y-74333333D01*
X67595238Y-74428571D01*
X67595238Y-74523809D01*
X67119047Y-74619047D01*
X68023809Y-74285714D02*
X68023809Y-74952380D01*
X68023809Y-74380952D02*
X68071428Y-74333333D01*
X68166666Y-74285714D01*
X68309523Y-74285714D01*
X68404761Y-74333333D01*
X68452380Y-74428571D01*
X68452380Y-74952380D01*
X97572380Y-69813333D02*
X98286666Y-69813333D01*
X98429523Y-69860952D01*
X98524761Y-69956190D01*
X98572380Y-70099047D01*
X98572380Y-70194285D01*
X98572380Y-68813333D02*
X98572380Y-69384761D01*
X98572380Y-69099047D02*
X97572380Y-69099047D01*
X97715238Y-69194285D01*
X97810476Y-69289523D01*
X97858095Y-69384761D01*
M02*
