M48
; DRILL file {KiCad (5.1.5-0-10_14)} date 2020 April 30, Thursday 20:24:16
; FORMAT={-:-/ absolute / inch / decimal}
; #@! TF.CreationDate,2020-04-30T20:24:16+02:00
; #@! TF.GenerationSoftware,Kicad,Pcbnew,(5.1.5-0-10_14)
FMAT,2
INCH
T1C0.0157
T2C0.0197
T3C0.0315
T4C0.0394
T5C0.0400
T6C0.1063
%
G90
G05
T1
X1.828Y-2.9424
T2
X1.4764Y-2.1654
T3
X1.9488Y-2.0079
X1.9488Y-2.3079
X2.0866Y-2.0079
X2.0866Y-2.3079
X2.2244Y-2.0079
X2.2244Y-2.3079
X2.3622Y-2.0079
X2.3622Y-2.3079
X2.5Y-2.0079
X2.5Y-2.3079
T4
X2.9528Y-2.0276
X3.248Y-2.0276
X2.9528Y-2.2835
X3.248Y-2.2835
X2.9528Y-1.7717
X3.248Y-1.7717
X1.7126Y-2.0276
X1.7126Y-2.3228
X2.9528Y-1.5354
X3.248Y-1.5354
T5
X1.8118Y-3.7795
X1.8118Y-3.8795
X1.9118Y-3.7795
X1.9118Y-3.8795
X2.0118Y-3.7795
X2.0118Y-3.8795
X2.1118Y-3.7795
X2.1118Y-3.8795
X2.2118Y-3.7795
X2.2118Y-3.8795
X2.3118Y-3.7795
X2.3118Y-3.8795
X2.4118Y-3.7795
X2.4118Y-3.8795
X2.5118Y-3.7795
X2.5118Y-3.8795
X2.6118Y-3.7795
X2.6118Y-3.8795
X2.7118Y-3.7795
X2.7118Y-3.8795
X2.8118Y-3.7795
X2.8118Y-3.8795
X2.9118Y-3.7795
X2.9118Y-3.8795
X3.0118Y-3.7795
X3.0118Y-3.8795
X3.563Y-1.5354
X3.563Y-1.6354
X3.563Y-1.7354
X3.563Y-1.8354
X3.563Y-1.9354
X3.563Y-2.0354
X3.563Y-2.1354
X3.563Y-2.2354
X3.563Y-2.3354
X3.563Y-2.4354
X3.563Y-2.5354
X3.563Y-2.6354
X3.563Y-2.7354
X3.563Y-2.8354
X3.563Y-2.9354
X3.563Y-3.0354
X3.563Y-3.1354
X3.563Y-3.2354
X3.563Y-3.3354
X3.563Y-3.4354
X3.563Y-3.5354
X3.563Y-3.6354
X3.563Y-3.7354
X3.563Y-3.8354
X3.563Y-3.9354
X3.663Y-1.5354
X3.663Y-1.6354
X3.663Y-1.7354
X3.663Y-1.8354
X3.663Y-1.9354
X3.663Y-2.0354
X3.663Y-2.1354
X3.663Y-2.2354
X3.663Y-2.3354
X3.663Y-2.4354
X3.663Y-2.5354
X3.663Y-2.6354
X3.663Y-2.7354
X3.663Y-2.8354
X3.663Y-2.9354
X3.663Y-3.0354
X3.663Y-3.1354
X3.663Y-3.2354
X3.663Y-3.3354
X3.663Y-3.4354
X3.663Y-3.5354
X3.663Y-3.6354
X3.663Y-3.7354
X3.663Y-3.8354
X3.663Y-3.9354
X1.7213Y-1.6535
X1.7213Y-1.7535
X1.8213Y-1.6535
X1.8213Y-1.7535
X1.9213Y-1.6535
X1.9213Y-1.7535
X2.0213Y-1.6535
X2.0213Y-1.7535
X2.1213Y-1.6535
X2.1213Y-1.7535
X2.2213Y-1.6535
X2.2213Y-1.7535
X2.3213Y-1.6535
X2.3213Y-1.7535
X2.4213Y-1.6535
X2.4213Y-1.7535
X1.5165Y-2.6378
X1.5165Y-2.7378
X1.6165Y-2.6378
X1.6165Y-2.7378
X1.7165Y-2.6378
X1.7165Y-2.7378
X1.8165Y-2.6378
X1.8165Y-2.7378
X1.9165Y-2.6378
X1.9165Y-2.7378
X2.0165Y-2.6378
X2.0165Y-2.7378
X2.1165Y-2.6378
X2.1165Y-2.7378
X2.2165Y-2.6378
X2.2165Y-2.7378
X2.3165Y-2.6378
X2.3165Y-2.7378
X2.4165Y-2.6378
X2.4165Y-2.7378
X2.5165Y-2.6378
X2.5165Y-2.7378
X2.6165Y-2.6378
X2.6165Y-2.7378
X2.7165Y-2.6378
X2.7165Y-2.7378
T6
X3.9764Y-4.0551
X3.9764Y-1.4173
X1.3386Y-4.0551
X1.3386Y-1.4173
T0
M30
