G04 #@! TF.GenerationSoftware,KiCad,Pcbnew,(5.1.5-0-10_14)*
G04 #@! TF.CreationDate,2020-06-17T20:55:43+02:00*
G04 #@! TF.ProjectId,WEMOS_Adapter,57454d4f-535f-4416-9461-707465722e6b,rev?*
G04 #@! TF.SameCoordinates,Original*
G04 #@! TF.FileFunction,Copper,L1,Top*
G04 #@! TF.FilePolarity,Positive*
%FSLAX46Y46*%
G04 Gerber Fmt 4.6, Leading zero omitted, Abs format (unit mm)*
G04 Created by KiCad (PCBNEW (5.1.5-0-10_14)) date 2020-06-17 20:55:43*
%MOMM*%
%LPD*%
G04 APERTURE LIST*
%ADD10C,1.800000*%
%ADD11O,1.700000X1.700000*%
%ADD12R,1.700000X1.700000*%
%ADD13C,0.250000*%
%ADD14C,0.254000*%
G04 APERTURE END LIST*
D10*
X66573400Y-36830000D03*
X43713400Y-36830000D03*
X66573400Y-39370000D03*
X43713400Y-39370000D03*
X66573400Y-41910000D03*
X43713400Y-41910000D03*
X66573400Y-44450000D03*
X43713400Y-44450000D03*
X66573400Y-46990000D03*
X43713400Y-46990000D03*
X66573400Y-49530000D03*
X43713400Y-49530000D03*
X66573400Y-52070000D03*
X43713400Y-52070000D03*
X66573400Y-54610000D03*
X43713400Y-54610000D03*
D11*
X71120000Y-76200000D03*
X71120000Y-73660000D03*
X71120000Y-71120000D03*
X71120000Y-68580000D03*
X71120000Y-66040000D03*
X71120000Y-63500000D03*
X71120000Y-60960000D03*
X71120000Y-58420000D03*
X71120000Y-55880000D03*
X71120000Y-53340000D03*
X71120000Y-50800000D03*
X71120000Y-48260000D03*
X71120000Y-45720000D03*
X71120000Y-43180000D03*
X71120000Y-40640000D03*
X71120000Y-38100000D03*
X71120000Y-35560000D03*
X71120000Y-33020000D03*
D12*
X71120000Y-30480000D03*
D11*
X45720000Y-76200000D03*
X45720000Y-73660000D03*
X45720000Y-71120000D03*
X45720000Y-68580000D03*
X45720000Y-66040000D03*
X45720000Y-63500000D03*
X45720000Y-60960000D03*
X45720000Y-58420000D03*
X45720000Y-55880000D03*
X45720000Y-53340000D03*
X45720000Y-50800000D03*
X45720000Y-48260000D03*
X45720000Y-45720000D03*
X45720000Y-43180000D03*
X45720000Y-40640000D03*
X45720000Y-38100000D03*
X45720000Y-35560000D03*
X45720000Y-33020000D03*
D12*
X45720000Y-30480000D03*
D13*
X71120000Y-66040000D02*
X71120000Y-64864700D01*
X71120000Y-64864700D02*
X71487300Y-64864700D01*
X71487300Y-64864700D02*
X72312300Y-64039700D01*
X72312300Y-64039700D02*
X72312300Y-57946200D01*
X72312300Y-57946200D02*
X71516100Y-57150000D01*
X71516100Y-57150000D02*
X70714500Y-57150000D01*
X70714500Y-57150000D02*
X68534200Y-54969700D01*
X68534200Y-54969700D02*
X68534200Y-54765900D01*
X68534200Y-54765900D02*
X67108300Y-53340000D01*
X67108300Y-53340000D02*
X66100300Y-53340000D01*
X66100300Y-53340000D02*
X65311400Y-52551100D01*
X65311400Y-52551100D02*
X65311400Y-48252000D01*
X65311400Y-48252000D02*
X66573400Y-46990000D01*
X71120000Y-58420000D02*
X62326400Y-58420000D01*
X62326400Y-58420000D02*
X48356400Y-44450000D01*
X48356400Y-44450000D02*
X43713400Y-44450000D01*
X71120000Y-30480000D02*
X71120000Y-31655300D01*
X71120000Y-31655300D02*
X70752600Y-31655300D01*
X70752600Y-31655300D02*
X69944700Y-32463200D01*
X69944700Y-32463200D02*
X69944700Y-48698700D01*
X69944700Y-48698700D02*
X66573400Y-52070000D01*
D14*
G36*
X69915506Y-29099463D02*
G01*
X69818815Y-29178815D01*
X69739463Y-29275506D01*
X69680498Y-29385820D01*
X69644188Y-29505518D01*
X69631928Y-29630000D01*
X69635000Y-30194250D01*
X69793750Y-30353000D01*
X70993000Y-30353000D01*
X70993000Y-30333000D01*
X71247000Y-30333000D01*
X71247000Y-30353000D01*
X71267000Y-30353000D01*
X71267000Y-30607000D01*
X71247000Y-30607000D01*
X71247000Y-30627000D01*
X70993000Y-30627000D01*
X70993000Y-30607000D01*
X69793750Y-30607000D01*
X69635000Y-30765750D01*
X69631928Y-31330000D01*
X69644188Y-31454482D01*
X69680498Y-31574180D01*
X69739463Y-31684494D01*
X69818815Y-31781185D01*
X69915506Y-31860537D01*
X70025820Y-31919502D01*
X70098380Y-31941513D01*
X69966525Y-32073368D01*
X69804010Y-32316589D01*
X69692068Y-32586842D01*
X69635000Y-32873740D01*
X69635000Y-33166260D01*
X69692068Y-33453158D01*
X69804010Y-33723411D01*
X69966525Y-33966632D01*
X70173368Y-34173475D01*
X70347760Y-34290000D01*
X70173368Y-34406525D01*
X69966525Y-34613368D01*
X69804010Y-34856589D01*
X69692068Y-35126842D01*
X69635000Y-35413740D01*
X69635000Y-35706260D01*
X69692068Y-35993158D01*
X69804010Y-36263411D01*
X69966525Y-36506632D01*
X70173368Y-36713475D01*
X70347760Y-36830000D01*
X70173368Y-36946525D01*
X69966525Y-37153368D01*
X69804010Y-37396589D01*
X69692068Y-37666842D01*
X69635000Y-37953740D01*
X69635000Y-38246260D01*
X69692068Y-38533158D01*
X69804010Y-38803411D01*
X69966525Y-39046632D01*
X70173368Y-39253475D01*
X70347760Y-39370000D01*
X70173368Y-39486525D01*
X69966525Y-39693368D01*
X69804010Y-39936589D01*
X69692068Y-40206842D01*
X69635000Y-40493740D01*
X69635000Y-40786260D01*
X69692068Y-41073158D01*
X69804010Y-41343411D01*
X69966525Y-41586632D01*
X70173368Y-41793475D01*
X70347760Y-41910000D01*
X70173368Y-42026525D01*
X69966525Y-42233368D01*
X69804010Y-42476589D01*
X69692068Y-42746842D01*
X69635000Y-43033740D01*
X69635000Y-43326260D01*
X69692068Y-43613158D01*
X69804010Y-43883411D01*
X69966525Y-44126632D01*
X70173368Y-44333475D01*
X70347760Y-44450000D01*
X70173368Y-44566525D01*
X69966525Y-44773368D01*
X69804010Y-45016589D01*
X69692068Y-45286842D01*
X69635000Y-45573740D01*
X69635000Y-45866260D01*
X69692068Y-46153158D01*
X69804010Y-46423411D01*
X69966525Y-46666632D01*
X70173368Y-46873475D01*
X70347760Y-46990000D01*
X70173368Y-47106525D01*
X69966525Y-47313368D01*
X69804010Y-47556589D01*
X69692068Y-47826842D01*
X69635000Y-48113740D01*
X69635000Y-48406260D01*
X69692068Y-48693158D01*
X69804010Y-48963411D01*
X69966525Y-49206632D01*
X70173368Y-49413475D01*
X70347760Y-49530000D01*
X70173368Y-49646525D01*
X69966525Y-49853368D01*
X69804010Y-50096589D01*
X69692068Y-50366842D01*
X69635000Y-50653740D01*
X69635000Y-50946260D01*
X69692068Y-51233158D01*
X69804010Y-51503411D01*
X69966525Y-51746632D01*
X70173368Y-51953475D01*
X70347760Y-52070000D01*
X70173368Y-52186525D01*
X69966525Y-52393368D01*
X69804010Y-52636589D01*
X69692068Y-52906842D01*
X69635000Y-53193740D01*
X69635000Y-53486260D01*
X69692068Y-53773158D01*
X69804010Y-54043411D01*
X69966525Y-54286632D01*
X70173368Y-54493475D01*
X70347760Y-54610000D01*
X70173368Y-54726525D01*
X69966525Y-54933368D01*
X69808769Y-55169467D01*
X69286151Y-54646850D01*
X69283203Y-54616915D01*
X69239746Y-54473654D01*
X69239746Y-54473653D01*
X69169174Y-54341623D01*
X69097999Y-54254897D01*
X69074201Y-54225899D01*
X69045203Y-54202101D01*
X67757923Y-52914822D01*
X67891661Y-52870792D01*
X68022558Y-52598225D01*
X68097765Y-52305358D01*
X68114391Y-52003447D01*
X68071797Y-51704093D01*
X67971622Y-51418801D01*
X67891661Y-51269208D01*
X67637480Y-51185525D01*
X66753005Y-52070000D01*
X66767148Y-52084143D01*
X66587543Y-52263748D01*
X66573400Y-52249605D01*
X66559258Y-52263748D01*
X66379653Y-52084143D01*
X66393795Y-52070000D01*
X66379653Y-52055858D01*
X66559258Y-51876253D01*
X66573400Y-51890395D01*
X67457875Y-51005920D01*
X67398295Y-50824951D01*
X67551905Y-50722312D01*
X67765712Y-50508505D01*
X67933699Y-50257095D01*
X68049411Y-49977743D01*
X68108400Y-49681184D01*
X68108400Y-49378816D01*
X68049411Y-49082257D01*
X67933699Y-48802905D01*
X67765712Y-48551495D01*
X67551905Y-48337688D01*
X67435637Y-48260000D01*
X67551905Y-48182312D01*
X67765712Y-47968505D01*
X67933699Y-47717095D01*
X68049411Y-47437743D01*
X68108400Y-47141184D01*
X68108400Y-46838816D01*
X68049411Y-46542257D01*
X67933699Y-46262905D01*
X67765712Y-46011495D01*
X67551905Y-45797688D01*
X67435637Y-45720000D01*
X67551905Y-45642312D01*
X67765712Y-45428505D01*
X67933699Y-45177095D01*
X68049411Y-44897743D01*
X68108400Y-44601184D01*
X68108400Y-44298816D01*
X68049411Y-44002257D01*
X67933699Y-43722905D01*
X67765712Y-43471495D01*
X67551905Y-43257688D01*
X67435637Y-43180000D01*
X67551905Y-43102312D01*
X67765712Y-42888505D01*
X67933699Y-42637095D01*
X68049411Y-42357743D01*
X68108400Y-42061184D01*
X68108400Y-41758816D01*
X68049411Y-41462257D01*
X67933699Y-41182905D01*
X67765712Y-40931495D01*
X67551905Y-40717688D01*
X67435637Y-40640000D01*
X67551905Y-40562312D01*
X67765712Y-40348505D01*
X67933699Y-40097095D01*
X68049411Y-39817743D01*
X68108400Y-39521184D01*
X68108400Y-39218816D01*
X68049411Y-38922257D01*
X67933699Y-38642905D01*
X67765712Y-38391495D01*
X67551905Y-38177688D01*
X67435637Y-38100000D01*
X67551905Y-38022312D01*
X67765712Y-37808505D01*
X67933699Y-37557095D01*
X68049411Y-37277743D01*
X68108400Y-36981184D01*
X68108400Y-36678816D01*
X68049411Y-36382257D01*
X67933699Y-36102905D01*
X67765712Y-35851495D01*
X67551905Y-35637688D01*
X67300495Y-35469701D01*
X67021143Y-35353989D01*
X66724584Y-35295000D01*
X66422216Y-35295000D01*
X66125657Y-35353989D01*
X65846305Y-35469701D01*
X65594895Y-35637688D01*
X65381088Y-35851495D01*
X65213101Y-36102905D01*
X65097389Y-36382257D01*
X65038400Y-36678816D01*
X65038400Y-36981184D01*
X65097389Y-37277743D01*
X65213101Y-37557095D01*
X65381088Y-37808505D01*
X65594895Y-38022312D01*
X65711163Y-38100000D01*
X65594895Y-38177688D01*
X65381088Y-38391495D01*
X65213101Y-38642905D01*
X65097389Y-38922257D01*
X65038400Y-39218816D01*
X65038400Y-39521184D01*
X65097389Y-39817743D01*
X65213101Y-40097095D01*
X65381088Y-40348505D01*
X65594895Y-40562312D01*
X65711163Y-40640000D01*
X65594895Y-40717688D01*
X65381088Y-40931495D01*
X65213101Y-41182905D01*
X65097389Y-41462257D01*
X65038400Y-41758816D01*
X65038400Y-42061184D01*
X65097389Y-42357743D01*
X65213101Y-42637095D01*
X65381088Y-42888505D01*
X65594895Y-43102312D01*
X65711163Y-43180000D01*
X65594895Y-43257688D01*
X65381088Y-43471495D01*
X65213101Y-43722905D01*
X65097389Y-44002257D01*
X65038400Y-44298816D01*
X65038400Y-44601184D01*
X65097389Y-44897743D01*
X65213101Y-45177095D01*
X65381088Y-45428505D01*
X65594895Y-45642312D01*
X65711163Y-45720000D01*
X65594895Y-45797688D01*
X65381088Y-46011495D01*
X65213101Y-46262905D01*
X65097389Y-46542257D01*
X65038400Y-46838816D01*
X65038400Y-47141184D01*
X65089669Y-47398930D01*
X64800398Y-47688201D01*
X64771400Y-47711999D01*
X64747602Y-47740997D01*
X64747601Y-47740998D01*
X64676426Y-47827724D01*
X64605854Y-47959754D01*
X64562398Y-48103015D01*
X64547724Y-48252000D01*
X64551401Y-48289332D01*
X64551400Y-52513777D01*
X64547724Y-52551100D01*
X64551400Y-52588422D01*
X64551400Y-52588432D01*
X64562397Y-52700085D01*
X64591824Y-52797095D01*
X64605854Y-52843346D01*
X64676426Y-52975376D01*
X64716271Y-53023926D01*
X64771399Y-53091101D01*
X64800402Y-53114903D01*
X65355415Y-53669917D01*
X65213101Y-53882905D01*
X65097389Y-54162257D01*
X65038400Y-54458816D01*
X65038400Y-54761184D01*
X65097389Y-55057743D01*
X65213101Y-55337095D01*
X65381088Y-55588505D01*
X65594895Y-55802312D01*
X65846305Y-55970299D01*
X66125657Y-56086011D01*
X66422216Y-56145000D01*
X66724584Y-56145000D01*
X67021143Y-56086011D01*
X67300495Y-55970299D01*
X67551905Y-55802312D01*
X67765712Y-55588505D01*
X67897656Y-55391038D01*
X67899226Y-55393976D01*
X67939071Y-55442526D01*
X67994199Y-55509701D01*
X68023203Y-55533504D01*
X69965140Y-57475441D01*
X69841822Y-57660000D01*
X62641203Y-57660000D01*
X48920204Y-43939003D01*
X48896401Y-43909999D01*
X48780676Y-43815026D01*
X48648647Y-43744454D01*
X48505386Y-43700997D01*
X48393733Y-43690000D01*
X48393722Y-43690000D01*
X48356400Y-43686324D01*
X48319078Y-43690000D01*
X47116103Y-43690000D01*
X47147932Y-43613158D01*
X47205000Y-43326260D01*
X47205000Y-43033740D01*
X47147932Y-42746842D01*
X47035990Y-42476589D01*
X46873475Y-42233368D01*
X46666632Y-42026525D01*
X46492240Y-41910000D01*
X46666632Y-41793475D01*
X46873475Y-41586632D01*
X47035990Y-41343411D01*
X47147932Y-41073158D01*
X47205000Y-40786260D01*
X47205000Y-40493740D01*
X47147932Y-40206842D01*
X47035990Y-39936589D01*
X46873475Y-39693368D01*
X46666632Y-39486525D01*
X46492240Y-39370000D01*
X46666632Y-39253475D01*
X46873475Y-39046632D01*
X47035990Y-38803411D01*
X47147932Y-38533158D01*
X47205000Y-38246260D01*
X47205000Y-37953740D01*
X47147932Y-37666842D01*
X47035990Y-37396589D01*
X46873475Y-37153368D01*
X46666632Y-36946525D01*
X46492240Y-36830000D01*
X46666632Y-36713475D01*
X46873475Y-36506632D01*
X47035990Y-36263411D01*
X47147932Y-35993158D01*
X47205000Y-35706260D01*
X47205000Y-35413740D01*
X47147932Y-35126842D01*
X47035990Y-34856589D01*
X46873475Y-34613368D01*
X46666632Y-34406525D01*
X46492240Y-34290000D01*
X46666632Y-34173475D01*
X46873475Y-33966632D01*
X47035990Y-33723411D01*
X47147932Y-33453158D01*
X47205000Y-33166260D01*
X47205000Y-32873740D01*
X47147932Y-32586842D01*
X47035990Y-32316589D01*
X46873475Y-32073368D01*
X46741620Y-31941513D01*
X46814180Y-31919502D01*
X46924494Y-31860537D01*
X47021185Y-31781185D01*
X47100537Y-31684494D01*
X47159502Y-31574180D01*
X47195812Y-31454482D01*
X47208072Y-31330000D01*
X47208072Y-29630000D01*
X47195812Y-29505518D01*
X47159502Y-29385820D01*
X47100537Y-29275506D01*
X47021185Y-29178815D01*
X46924494Y-29099463D01*
X46885770Y-29078764D01*
X69990341Y-29059462D01*
X69915506Y-29099463D01*
G37*
X69915506Y-29099463D02*
X69818815Y-29178815D01*
X69739463Y-29275506D01*
X69680498Y-29385820D01*
X69644188Y-29505518D01*
X69631928Y-29630000D01*
X69635000Y-30194250D01*
X69793750Y-30353000D01*
X70993000Y-30353000D01*
X70993000Y-30333000D01*
X71247000Y-30333000D01*
X71247000Y-30353000D01*
X71267000Y-30353000D01*
X71267000Y-30607000D01*
X71247000Y-30607000D01*
X71247000Y-30627000D01*
X70993000Y-30627000D01*
X70993000Y-30607000D01*
X69793750Y-30607000D01*
X69635000Y-30765750D01*
X69631928Y-31330000D01*
X69644188Y-31454482D01*
X69680498Y-31574180D01*
X69739463Y-31684494D01*
X69818815Y-31781185D01*
X69915506Y-31860537D01*
X70025820Y-31919502D01*
X70098380Y-31941513D01*
X69966525Y-32073368D01*
X69804010Y-32316589D01*
X69692068Y-32586842D01*
X69635000Y-32873740D01*
X69635000Y-33166260D01*
X69692068Y-33453158D01*
X69804010Y-33723411D01*
X69966525Y-33966632D01*
X70173368Y-34173475D01*
X70347760Y-34290000D01*
X70173368Y-34406525D01*
X69966525Y-34613368D01*
X69804010Y-34856589D01*
X69692068Y-35126842D01*
X69635000Y-35413740D01*
X69635000Y-35706260D01*
X69692068Y-35993158D01*
X69804010Y-36263411D01*
X69966525Y-36506632D01*
X70173368Y-36713475D01*
X70347760Y-36830000D01*
X70173368Y-36946525D01*
X69966525Y-37153368D01*
X69804010Y-37396589D01*
X69692068Y-37666842D01*
X69635000Y-37953740D01*
X69635000Y-38246260D01*
X69692068Y-38533158D01*
X69804010Y-38803411D01*
X69966525Y-39046632D01*
X70173368Y-39253475D01*
X70347760Y-39370000D01*
X70173368Y-39486525D01*
X69966525Y-39693368D01*
X69804010Y-39936589D01*
X69692068Y-40206842D01*
X69635000Y-40493740D01*
X69635000Y-40786260D01*
X69692068Y-41073158D01*
X69804010Y-41343411D01*
X69966525Y-41586632D01*
X70173368Y-41793475D01*
X70347760Y-41910000D01*
X70173368Y-42026525D01*
X69966525Y-42233368D01*
X69804010Y-42476589D01*
X69692068Y-42746842D01*
X69635000Y-43033740D01*
X69635000Y-43326260D01*
X69692068Y-43613158D01*
X69804010Y-43883411D01*
X69966525Y-44126632D01*
X70173368Y-44333475D01*
X70347760Y-44450000D01*
X70173368Y-44566525D01*
X69966525Y-44773368D01*
X69804010Y-45016589D01*
X69692068Y-45286842D01*
X69635000Y-45573740D01*
X69635000Y-45866260D01*
X69692068Y-46153158D01*
X69804010Y-46423411D01*
X69966525Y-46666632D01*
X70173368Y-46873475D01*
X70347760Y-46990000D01*
X70173368Y-47106525D01*
X69966525Y-47313368D01*
X69804010Y-47556589D01*
X69692068Y-47826842D01*
X69635000Y-48113740D01*
X69635000Y-48406260D01*
X69692068Y-48693158D01*
X69804010Y-48963411D01*
X69966525Y-49206632D01*
X70173368Y-49413475D01*
X70347760Y-49530000D01*
X70173368Y-49646525D01*
X69966525Y-49853368D01*
X69804010Y-50096589D01*
X69692068Y-50366842D01*
X69635000Y-50653740D01*
X69635000Y-50946260D01*
X69692068Y-51233158D01*
X69804010Y-51503411D01*
X69966525Y-51746632D01*
X70173368Y-51953475D01*
X70347760Y-52070000D01*
X70173368Y-52186525D01*
X69966525Y-52393368D01*
X69804010Y-52636589D01*
X69692068Y-52906842D01*
X69635000Y-53193740D01*
X69635000Y-53486260D01*
X69692068Y-53773158D01*
X69804010Y-54043411D01*
X69966525Y-54286632D01*
X70173368Y-54493475D01*
X70347760Y-54610000D01*
X70173368Y-54726525D01*
X69966525Y-54933368D01*
X69808769Y-55169467D01*
X69286151Y-54646850D01*
X69283203Y-54616915D01*
X69239746Y-54473654D01*
X69239746Y-54473653D01*
X69169174Y-54341623D01*
X69097999Y-54254897D01*
X69074201Y-54225899D01*
X69045203Y-54202101D01*
X67757923Y-52914822D01*
X67891661Y-52870792D01*
X68022558Y-52598225D01*
X68097765Y-52305358D01*
X68114391Y-52003447D01*
X68071797Y-51704093D01*
X67971622Y-51418801D01*
X67891661Y-51269208D01*
X67637480Y-51185525D01*
X66753005Y-52070000D01*
X66767148Y-52084143D01*
X66587543Y-52263748D01*
X66573400Y-52249605D01*
X66559258Y-52263748D01*
X66379653Y-52084143D01*
X66393795Y-52070000D01*
X66379653Y-52055858D01*
X66559258Y-51876253D01*
X66573400Y-51890395D01*
X67457875Y-51005920D01*
X67398295Y-50824951D01*
X67551905Y-50722312D01*
X67765712Y-50508505D01*
X67933699Y-50257095D01*
X68049411Y-49977743D01*
X68108400Y-49681184D01*
X68108400Y-49378816D01*
X68049411Y-49082257D01*
X67933699Y-48802905D01*
X67765712Y-48551495D01*
X67551905Y-48337688D01*
X67435637Y-48260000D01*
X67551905Y-48182312D01*
X67765712Y-47968505D01*
X67933699Y-47717095D01*
X68049411Y-47437743D01*
X68108400Y-47141184D01*
X68108400Y-46838816D01*
X68049411Y-46542257D01*
X67933699Y-46262905D01*
X67765712Y-46011495D01*
X67551905Y-45797688D01*
X67435637Y-45720000D01*
X67551905Y-45642312D01*
X67765712Y-45428505D01*
X67933699Y-45177095D01*
X68049411Y-44897743D01*
X68108400Y-44601184D01*
X68108400Y-44298816D01*
X68049411Y-44002257D01*
X67933699Y-43722905D01*
X67765712Y-43471495D01*
X67551905Y-43257688D01*
X67435637Y-43180000D01*
X67551905Y-43102312D01*
X67765712Y-42888505D01*
X67933699Y-42637095D01*
X68049411Y-42357743D01*
X68108400Y-42061184D01*
X68108400Y-41758816D01*
X68049411Y-41462257D01*
X67933699Y-41182905D01*
X67765712Y-40931495D01*
X67551905Y-40717688D01*
X67435637Y-40640000D01*
X67551905Y-40562312D01*
X67765712Y-40348505D01*
X67933699Y-40097095D01*
X68049411Y-39817743D01*
X68108400Y-39521184D01*
X68108400Y-39218816D01*
X68049411Y-38922257D01*
X67933699Y-38642905D01*
X67765712Y-38391495D01*
X67551905Y-38177688D01*
X67435637Y-38100000D01*
X67551905Y-38022312D01*
X67765712Y-37808505D01*
X67933699Y-37557095D01*
X68049411Y-37277743D01*
X68108400Y-36981184D01*
X68108400Y-36678816D01*
X68049411Y-36382257D01*
X67933699Y-36102905D01*
X67765712Y-35851495D01*
X67551905Y-35637688D01*
X67300495Y-35469701D01*
X67021143Y-35353989D01*
X66724584Y-35295000D01*
X66422216Y-35295000D01*
X66125657Y-35353989D01*
X65846305Y-35469701D01*
X65594895Y-35637688D01*
X65381088Y-35851495D01*
X65213101Y-36102905D01*
X65097389Y-36382257D01*
X65038400Y-36678816D01*
X65038400Y-36981184D01*
X65097389Y-37277743D01*
X65213101Y-37557095D01*
X65381088Y-37808505D01*
X65594895Y-38022312D01*
X65711163Y-38100000D01*
X65594895Y-38177688D01*
X65381088Y-38391495D01*
X65213101Y-38642905D01*
X65097389Y-38922257D01*
X65038400Y-39218816D01*
X65038400Y-39521184D01*
X65097389Y-39817743D01*
X65213101Y-40097095D01*
X65381088Y-40348505D01*
X65594895Y-40562312D01*
X65711163Y-40640000D01*
X65594895Y-40717688D01*
X65381088Y-40931495D01*
X65213101Y-41182905D01*
X65097389Y-41462257D01*
X65038400Y-41758816D01*
X65038400Y-42061184D01*
X65097389Y-42357743D01*
X65213101Y-42637095D01*
X65381088Y-42888505D01*
X65594895Y-43102312D01*
X65711163Y-43180000D01*
X65594895Y-43257688D01*
X65381088Y-43471495D01*
X65213101Y-43722905D01*
X65097389Y-44002257D01*
X65038400Y-44298816D01*
X65038400Y-44601184D01*
X65097389Y-44897743D01*
X65213101Y-45177095D01*
X65381088Y-45428505D01*
X65594895Y-45642312D01*
X65711163Y-45720000D01*
X65594895Y-45797688D01*
X65381088Y-46011495D01*
X65213101Y-46262905D01*
X65097389Y-46542257D01*
X65038400Y-46838816D01*
X65038400Y-47141184D01*
X65089669Y-47398930D01*
X64800398Y-47688201D01*
X64771400Y-47711999D01*
X64747602Y-47740997D01*
X64747601Y-47740998D01*
X64676426Y-47827724D01*
X64605854Y-47959754D01*
X64562398Y-48103015D01*
X64547724Y-48252000D01*
X64551401Y-48289332D01*
X64551400Y-52513777D01*
X64547724Y-52551100D01*
X64551400Y-52588422D01*
X64551400Y-52588432D01*
X64562397Y-52700085D01*
X64591824Y-52797095D01*
X64605854Y-52843346D01*
X64676426Y-52975376D01*
X64716271Y-53023926D01*
X64771399Y-53091101D01*
X64800402Y-53114903D01*
X65355415Y-53669917D01*
X65213101Y-53882905D01*
X65097389Y-54162257D01*
X65038400Y-54458816D01*
X65038400Y-54761184D01*
X65097389Y-55057743D01*
X65213101Y-55337095D01*
X65381088Y-55588505D01*
X65594895Y-55802312D01*
X65846305Y-55970299D01*
X66125657Y-56086011D01*
X66422216Y-56145000D01*
X66724584Y-56145000D01*
X67021143Y-56086011D01*
X67300495Y-55970299D01*
X67551905Y-55802312D01*
X67765712Y-55588505D01*
X67897656Y-55391038D01*
X67899226Y-55393976D01*
X67939071Y-55442526D01*
X67994199Y-55509701D01*
X68023203Y-55533504D01*
X69965140Y-57475441D01*
X69841822Y-57660000D01*
X62641203Y-57660000D01*
X48920204Y-43939003D01*
X48896401Y-43909999D01*
X48780676Y-43815026D01*
X48648647Y-43744454D01*
X48505386Y-43700997D01*
X48393733Y-43690000D01*
X48393722Y-43690000D01*
X48356400Y-43686324D01*
X48319078Y-43690000D01*
X47116103Y-43690000D01*
X47147932Y-43613158D01*
X47205000Y-43326260D01*
X47205000Y-43033740D01*
X47147932Y-42746842D01*
X47035990Y-42476589D01*
X46873475Y-42233368D01*
X46666632Y-42026525D01*
X46492240Y-41910000D01*
X46666632Y-41793475D01*
X46873475Y-41586632D01*
X47035990Y-41343411D01*
X47147932Y-41073158D01*
X47205000Y-40786260D01*
X47205000Y-40493740D01*
X47147932Y-40206842D01*
X47035990Y-39936589D01*
X46873475Y-39693368D01*
X46666632Y-39486525D01*
X46492240Y-39370000D01*
X46666632Y-39253475D01*
X46873475Y-39046632D01*
X47035990Y-38803411D01*
X47147932Y-38533158D01*
X47205000Y-38246260D01*
X47205000Y-37953740D01*
X47147932Y-37666842D01*
X47035990Y-37396589D01*
X46873475Y-37153368D01*
X46666632Y-36946525D01*
X46492240Y-36830000D01*
X46666632Y-36713475D01*
X46873475Y-36506632D01*
X47035990Y-36263411D01*
X47147932Y-35993158D01*
X47205000Y-35706260D01*
X47205000Y-35413740D01*
X47147932Y-35126842D01*
X47035990Y-34856589D01*
X46873475Y-34613368D01*
X46666632Y-34406525D01*
X46492240Y-34290000D01*
X46666632Y-34173475D01*
X46873475Y-33966632D01*
X47035990Y-33723411D01*
X47147932Y-33453158D01*
X47205000Y-33166260D01*
X47205000Y-32873740D01*
X47147932Y-32586842D01*
X47035990Y-32316589D01*
X46873475Y-32073368D01*
X46741620Y-31941513D01*
X46814180Y-31919502D01*
X46924494Y-31860537D01*
X47021185Y-31781185D01*
X47100537Y-31684494D01*
X47159502Y-31574180D01*
X47195812Y-31454482D01*
X47208072Y-31330000D01*
X47208072Y-29630000D01*
X47195812Y-29505518D01*
X47159502Y-29385820D01*
X47100537Y-29275506D01*
X47021185Y-29178815D01*
X46924494Y-29099463D01*
X46885770Y-29078764D01*
X69990341Y-29059462D01*
X69915506Y-29099463D01*
M02*
