G04 #@! TF.GenerationSoftware,KiCad,Pcbnew,(5.1.5-0-10_14)*
G04 #@! TF.CreationDate,2020-06-15T10:40:47+02:00*
G04 #@! TF.ProjectId,WEMOS_Adapter,57454d4f-535f-4416-9461-707465722e6b,rev?*
G04 #@! TF.SameCoordinates,Original*
G04 #@! TF.FileFunction,Copper,L2,Bot*
G04 #@! TF.FilePolarity,Positive*
%FSLAX46Y46*%
G04 Gerber Fmt 4.6, Leading zero omitted, Abs format (unit mm)*
G04 Created by KiCad (PCBNEW (5.1.5-0-10_14)) date 2020-06-15 10:40:47*
%MOMM*%
%LPD*%
G04 APERTURE LIST*
%ADD10C,1.800000*%
%ADD11O,1.700000X1.700000*%
%ADD12R,1.700000X1.700000*%
%ADD13C,0.250000*%
%ADD14C,0.254000*%
G04 APERTURE END LIST*
D10*
X66573400Y-36830000D03*
X43713400Y-36830000D03*
X66573400Y-39370000D03*
X43713400Y-39370000D03*
X66573400Y-41910000D03*
X43713400Y-41910000D03*
X66573400Y-44450000D03*
X43713400Y-44450000D03*
X66573400Y-46990000D03*
X43713400Y-46990000D03*
X66573400Y-49530000D03*
X43713400Y-49530000D03*
X66573400Y-52070000D03*
X43713400Y-52070000D03*
X66573400Y-54610000D03*
X43713400Y-54610000D03*
D11*
X71120000Y-76200000D03*
X71120000Y-73660000D03*
X71120000Y-71120000D03*
X71120000Y-68580000D03*
X71120000Y-66040000D03*
X71120000Y-63500000D03*
X71120000Y-60960000D03*
X71120000Y-58420000D03*
X71120000Y-55880000D03*
X71120000Y-53340000D03*
X71120000Y-50800000D03*
X71120000Y-48260000D03*
X71120000Y-45720000D03*
X71120000Y-43180000D03*
X71120000Y-40640000D03*
X71120000Y-38100000D03*
X71120000Y-35560000D03*
X71120000Y-33020000D03*
D12*
X71120000Y-30480000D03*
D11*
X45720000Y-76200000D03*
X45720000Y-73660000D03*
X45720000Y-71120000D03*
X45720000Y-68580000D03*
X45720000Y-66040000D03*
X45720000Y-63500000D03*
X45720000Y-60960000D03*
X45720000Y-58420000D03*
X45720000Y-55880000D03*
X45720000Y-53340000D03*
X45720000Y-50800000D03*
X45720000Y-48260000D03*
X45720000Y-45720000D03*
X45720000Y-43180000D03*
X45720000Y-40640000D03*
X45720000Y-38100000D03*
X45720000Y-35560000D03*
X45720000Y-33020000D03*
D12*
X45720000Y-30480000D03*
D13*
X45720000Y-76200000D02*
X45720000Y-75024700D01*
X45720000Y-75024700D02*
X46158700Y-75024700D01*
X46158700Y-75024700D02*
X66573400Y-54610000D01*
X45720000Y-50800000D02*
X44544700Y-50800000D01*
X44544700Y-50800000D02*
X44544700Y-51238700D01*
X44544700Y-51238700D02*
X43713400Y-52070000D01*
X45720000Y-48260000D02*
X44544700Y-48260000D01*
X44544700Y-48260000D02*
X44544700Y-48698700D01*
X44544700Y-48698700D02*
X43713400Y-49530000D01*
X45720000Y-45720000D02*
X45720000Y-44544700D01*
X45720000Y-44544700D02*
X46087400Y-44544700D01*
X46087400Y-44544700D02*
X46895300Y-43736800D01*
X46895300Y-43736800D02*
X46895300Y-42693100D01*
X46895300Y-42693100D02*
X46112300Y-41910100D01*
X46112300Y-41910100D02*
X43713400Y-41910100D01*
X43713400Y-41910100D02*
X43713400Y-41910000D01*
X45720000Y-40640000D02*
X44544700Y-40640000D01*
X44544700Y-40640000D02*
X44544700Y-40201300D01*
X44544700Y-40201300D02*
X43713400Y-39370000D01*
X71120000Y-53340000D02*
X71120000Y-52164700D01*
X71120000Y-52164700D02*
X71487300Y-52164700D01*
X71487300Y-52164700D02*
X72312300Y-51339700D01*
X72312300Y-51339700D02*
X72312300Y-47786200D01*
X72312300Y-47786200D02*
X71516100Y-46990000D01*
X71516100Y-46990000D02*
X69804200Y-46990000D01*
X69804200Y-46990000D02*
X68534200Y-45720000D01*
X68534200Y-45720000D02*
X66104600Y-45720000D01*
X66104600Y-45720000D02*
X65311700Y-44927100D01*
X65311700Y-44927100D02*
X65311700Y-40631700D01*
X65311700Y-40631700D02*
X66573400Y-39370000D01*
X71120000Y-50800000D02*
X52166400Y-50800000D01*
X52166400Y-50800000D02*
X48356400Y-46990000D01*
X48356400Y-46990000D02*
X43713400Y-46990000D01*
X71120000Y-48260000D02*
X67843400Y-48260000D01*
X67843400Y-48260000D02*
X66573400Y-49530000D01*
X71120000Y-43180000D02*
X67843400Y-43180000D01*
X67843400Y-43180000D02*
X66573400Y-44450000D01*
X71120000Y-35560000D02*
X71120000Y-36735300D01*
X71120000Y-36735300D02*
X70752600Y-36735300D01*
X70752600Y-36735300D02*
X69944700Y-37543200D01*
X69944700Y-37543200D02*
X69944700Y-38538700D01*
X69944700Y-38538700D02*
X66573400Y-41910000D01*
D14*
G36*
X51602601Y-51311003D02*
G01*
X51626399Y-51340001D01*
X51742124Y-51434974D01*
X51874153Y-51505546D01*
X52017414Y-51549003D01*
X52129067Y-51560000D01*
X52129075Y-51560000D01*
X52166400Y-51563676D01*
X52203725Y-51560000D01*
X65119562Y-51560000D01*
X65049035Y-51834642D01*
X65032409Y-52136553D01*
X65075003Y-52435907D01*
X65175178Y-52721199D01*
X65255139Y-52870792D01*
X65509320Y-52954475D01*
X66393795Y-52070000D01*
X66379653Y-52055858D01*
X66559258Y-51876253D01*
X66573400Y-51890395D01*
X66587543Y-51876253D01*
X66767148Y-52055858D01*
X66753005Y-52070000D01*
X67637480Y-52954475D01*
X67891661Y-52870792D01*
X68022558Y-52598225D01*
X68097765Y-52305358D01*
X68114391Y-52003447D01*
X68071797Y-51704093D01*
X68021201Y-51560000D01*
X69841822Y-51560000D01*
X69966525Y-51746632D01*
X70173368Y-51953475D01*
X70347760Y-52070000D01*
X70173368Y-52186525D01*
X69966525Y-52393368D01*
X69804010Y-52636589D01*
X69692068Y-52906842D01*
X69635000Y-53193740D01*
X69635000Y-53486260D01*
X69692068Y-53773158D01*
X69804010Y-54043411D01*
X69966525Y-54286632D01*
X70173368Y-54493475D01*
X70347760Y-54610000D01*
X70173368Y-54726525D01*
X69966525Y-54933368D01*
X69804010Y-55176589D01*
X69692068Y-55446842D01*
X69635000Y-55733740D01*
X69635000Y-56026260D01*
X69692068Y-56313158D01*
X69804010Y-56583411D01*
X69966525Y-56826632D01*
X70173368Y-57033475D01*
X70347760Y-57150000D01*
X70173368Y-57266525D01*
X69966525Y-57473368D01*
X69804010Y-57716589D01*
X69692068Y-57986842D01*
X69635000Y-58273740D01*
X69635000Y-58566260D01*
X69692068Y-58853158D01*
X69804010Y-59123411D01*
X69966525Y-59366632D01*
X70173368Y-59573475D01*
X70347760Y-59690000D01*
X70173368Y-59806525D01*
X69966525Y-60013368D01*
X69804010Y-60256589D01*
X69692068Y-60526842D01*
X69635000Y-60813740D01*
X69635000Y-61106260D01*
X69692068Y-61393158D01*
X69804010Y-61663411D01*
X69966525Y-61906632D01*
X70173368Y-62113475D01*
X70347760Y-62230000D01*
X70173368Y-62346525D01*
X69966525Y-62553368D01*
X69804010Y-62796589D01*
X69692068Y-63066842D01*
X69635000Y-63353740D01*
X69635000Y-63646260D01*
X69692068Y-63933158D01*
X69804010Y-64203411D01*
X69966525Y-64446632D01*
X70173368Y-64653475D01*
X70347760Y-64770000D01*
X70173368Y-64886525D01*
X69966525Y-65093368D01*
X69804010Y-65336589D01*
X69692068Y-65606842D01*
X69635000Y-65893740D01*
X69635000Y-66186260D01*
X69692068Y-66473158D01*
X69804010Y-66743411D01*
X69966525Y-66986632D01*
X70173368Y-67193475D01*
X70347760Y-67310000D01*
X70173368Y-67426525D01*
X69966525Y-67633368D01*
X69804010Y-67876589D01*
X69692068Y-68146842D01*
X69635000Y-68433740D01*
X69635000Y-68726260D01*
X69692068Y-69013158D01*
X69804010Y-69283411D01*
X69966525Y-69526632D01*
X70173368Y-69733475D01*
X70347760Y-69850000D01*
X70173368Y-69966525D01*
X69966525Y-70173368D01*
X69804010Y-70416589D01*
X69692068Y-70686842D01*
X69635000Y-70973740D01*
X69635000Y-71266260D01*
X69692068Y-71553158D01*
X69804010Y-71823411D01*
X69966525Y-72066632D01*
X70173368Y-72273475D01*
X70347760Y-72390000D01*
X70173368Y-72506525D01*
X69966525Y-72713368D01*
X69804010Y-72956589D01*
X69692068Y-73226842D01*
X69635000Y-73513740D01*
X69635000Y-73806260D01*
X69692068Y-74093158D01*
X69804010Y-74363411D01*
X69966525Y-74606632D01*
X70173368Y-74813475D01*
X70347760Y-74930000D01*
X70173368Y-75046525D01*
X69966525Y-75253368D01*
X69804010Y-75496589D01*
X69692068Y-75766842D01*
X69635000Y-76053740D01*
X69635000Y-76346260D01*
X69692068Y-76633158D01*
X69804010Y-76903411D01*
X69966525Y-77146632D01*
X70173368Y-77353475D01*
X70416589Y-77515990D01*
X70675418Y-77623200D01*
X46164582Y-77623200D01*
X46423411Y-77515990D01*
X46666632Y-77353475D01*
X46873475Y-77146632D01*
X47035990Y-76903411D01*
X47147932Y-76633158D01*
X47205000Y-76346260D01*
X47205000Y-76053740D01*
X47147932Y-75766842D01*
X47035990Y-75496589D01*
X46926090Y-75332111D01*
X66164471Y-56093731D01*
X66422216Y-56145000D01*
X66724584Y-56145000D01*
X67021143Y-56086011D01*
X67300495Y-55970299D01*
X67551905Y-55802312D01*
X67765712Y-55588505D01*
X67933699Y-55337095D01*
X68049411Y-55057743D01*
X68108400Y-54761184D01*
X68108400Y-54458816D01*
X68049411Y-54162257D01*
X67933699Y-53882905D01*
X67765712Y-53631495D01*
X67551905Y-53417688D01*
X67398295Y-53315049D01*
X67457875Y-53134080D01*
X66573400Y-52249605D01*
X65688925Y-53134080D01*
X65748505Y-53315049D01*
X65594895Y-53417688D01*
X65381088Y-53631495D01*
X65213101Y-53882905D01*
X65097389Y-54162257D01*
X65038400Y-54458816D01*
X65038400Y-54761184D01*
X65089669Y-55018929D01*
X47069971Y-73038628D01*
X47035990Y-72956589D01*
X46873475Y-72713368D01*
X46666632Y-72506525D01*
X46492240Y-72390000D01*
X46666632Y-72273475D01*
X46873475Y-72066632D01*
X47035990Y-71823411D01*
X47147932Y-71553158D01*
X47205000Y-71266260D01*
X47205000Y-70973740D01*
X47147932Y-70686842D01*
X47035990Y-70416589D01*
X46873475Y-70173368D01*
X46666632Y-69966525D01*
X46492240Y-69850000D01*
X46666632Y-69733475D01*
X46873475Y-69526632D01*
X47035990Y-69283411D01*
X47147932Y-69013158D01*
X47205000Y-68726260D01*
X47205000Y-68433740D01*
X47147932Y-68146842D01*
X47035990Y-67876589D01*
X46873475Y-67633368D01*
X46666632Y-67426525D01*
X46492240Y-67310000D01*
X46666632Y-67193475D01*
X46873475Y-66986632D01*
X47035990Y-66743411D01*
X47147932Y-66473158D01*
X47205000Y-66186260D01*
X47205000Y-65893740D01*
X47147932Y-65606842D01*
X47035990Y-65336589D01*
X46873475Y-65093368D01*
X46666632Y-64886525D01*
X46492240Y-64770000D01*
X46666632Y-64653475D01*
X46873475Y-64446632D01*
X47035990Y-64203411D01*
X47147932Y-63933158D01*
X47205000Y-63646260D01*
X47205000Y-63353740D01*
X47147932Y-63066842D01*
X47035990Y-62796589D01*
X46873475Y-62553368D01*
X46666632Y-62346525D01*
X46492240Y-62230000D01*
X46666632Y-62113475D01*
X46873475Y-61906632D01*
X47035990Y-61663411D01*
X47147932Y-61393158D01*
X47205000Y-61106260D01*
X47205000Y-60813740D01*
X47147932Y-60526842D01*
X47035990Y-60256589D01*
X46873475Y-60013368D01*
X46666632Y-59806525D01*
X46492240Y-59690000D01*
X46666632Y-59573475D01*
X46873475Y-59366632D01*
X47035990Y-59123411D01*
X47147932Y-58853158D01*
X47205000Y-58566260D01*
X47205000Y-58273740D01*
X47147932Y-57986842D01*
X47035990Y-57716589D01*
X46873475Y-57473368D01*
X46666632Y-57266525D01*
X46492240Y-57150000D01*
X46666632Y-57033475D01*
X46873475Y-56826632D01*
X47035990Y-56583411D01*
X47147932Y-56313158D01*
X47205000Y-56026260D01*
X47205000Y-55733740D01*
X47147932Y-55446842D01*
X47035990Y-55176589D01*
X46873475Y-54933368D01*
X46666632Y-54726525D01*
X46492240Y-54610000D01*
X46666632Y-54493475D01*
X46873475Y-54286632D01*
X47035990Y-54043411D01*
X47147932Y-53773158D01*
X47205000Y-53486260D01*
X47205000Y-53193740D01*
X47147932Y-52906842D01*
X47035990Y-52636589D01*
X46873475Y-52393368D01*
X46666632Y-52186525D01*
X46492240Y-52070000D01*
X46666632Y-51953475D01*
X46873475Y-51746632D01*
X47035990Y-51503411D01*
X47147932Y-51233158D01*
X47205000Y-50946260D01*
X47205000Y-50653740D01*
X47147932Y-50366842D01*
X47035990Y-50096589D01*
X46873475Y-49853368D01*
X46666632Y-49646525D01*
X46492240Y-49530000D01*
X46666632Y-49413475D01*
X46873475Y-49206632D01*
X47035990Y-48963411D01*
X47147932Y-48693158D01*
X47205000Y-48406260D01*
X47205000Y-48113740D01*
X47147932Y-47826842D01*
X47116103Y-47750000D01*
X48041599Y-47750000D01*
X51602601Y-51311003D01*
G37*
X51602601Y-51311003D02*
X51626399Y-51340001D01*
X51742124Y-51434974D01*
X51874153Y-51505546D01*
X52017414Y-51549003D01*
X52129067Y-51560000D01*
X52129075Y-51560000D01*
X52166400Y-51563676D01*
X52203725Y-51560000D01*
X65119562Y-51560000D01*
X65049035Y-51834642D01*
X65032409Y-52136553D01*
X65075003Y-52435907D01*
X65175178Y-52721199D01*
X65255139Y-52870792D01*
X65509320Y-52954475D01*
X66393795Y-52070000D01*
X66379653Y-52055858D01*
X66559258Y-51876253D01*
X66573400Y-51890395D01*
X66587543Y-51876253D01*
X66767148Y-52055858D01*
X66753005Y-52070000D01*
X67637480Y-52954475D01*
X67891661Y-52870792D01*
X68022558Y-52598225D01*
X68097765Y-52305358D01*
X68114391Y-52003447D01*
X68071797Y-51704093D01*
X68021201Y-51560000D01*
X69841822Y-51560000D01*
X69966525Y-51746632D01*
X70173368Y-51953475D01*
X70347760Y-52070000D01*
X70173368Y-52186525D01*
X69966525Y-52393368D01*
X69804010Y-52636589D01*
X69692068Y-52906842D01*
X69635000Y-53193740D01*
X69635000Y-53486260D01*
X69692068Y-53773158D01*
X69804010Y-54043411D01*
X69966525Y-54286632D01*
X70173368Y-54493475D01*
X70347760Y-54610000D01*
X70173368Y-54726525D01*
X69966525Y-54933368D01*
X69804010Y-55176589D01*
X69692068Y-55446842D01*
X69635000Y-55733740D01*
X69635000Y-56026260D01*
X69692068Y-56313158D01*
X69804010Y-56583411D01*
X69966525Y-56826632D01*
X70173368Y-57033475D01*
X70347760Y-57150000D01*
X70173368Y-57266525D01*
X69966525Y-57473368D01*
X69804010Y-57716589D01*
X69692068Y-57986842D01*
X69635000Y-58273740D01*
X69635000Y-58566260D01*
X69692068Y-58853158D01*
X69804010Y-59123411D01*
X69966525Y-59366632D01*
X70173368Y-59573475D01*
X70347760Y-59690000D01*
X70173368Y-59806525D01*
X69966525Y-60013368D01*
X69804010Y-60256589D01*
X69692068Y-60526842D01*
X69635000Y-60813740D01*
X69635000Y-61106260D01*
X69692068Y-61393158D01*
X69804010Y-61663411D01*
X69966525Y-61906632D01*
X70173368Y-62113475D01*
X70347760Y-62230000D01*
X70173368Y-62346525D01*
X69966525Y-62553368D01*
X69804010Y-62796589D01*
X69692068Y-63066842D01*
X69635000Y-63353740D01*
X69635000Y-63646260D01*
X69692068Y-63933158D01*
X69804010Y-64203411D01*
X69966525Y-64446632D01*
X70173368Y-64653475D01*
X70347760Y-64770000D01*
X70173368Y-64886525D01*
X69966525Y-65093368D01*
X69804010Y-65336589D01*
X69692068Y-65606842D01*
X69635000Y-65893740D01*
X69635000Y-66186260D01*
X69692068Y-66473158D01*
X69804010Y-66743411D01*
X69966525Y-66986632D01*
X70173368Y-67193475D01*
X70347760Y-67310000D01*
X70173368Y-67426525D01*
X69966525Y-67633368D01*
X69804010Y-67876589D01*
X69692068Y-68146842D01*
X69635000Y-68433740D01*
X69635000Y-68726260D01*
X69692068Y-69013158D01*
X69804010Y-69283411D01*
X69966525Y-69526632D01*
X70173368Y-69733475D01*
X70347760Y-69850000D01*
X70173368Y-69966525D01*
X69966525Y-70173368D01*
X69804010Y-70416589D01*
X69692068Y-70686842D01*
X69635000Y-70973740D01*
X69635000Y-71266260D01*
X69692068Y-71553158D01*
X69804010Y-71823411D01*
X69966525Y-72066632D01*
X70173368Y-72273475D01*
X70347760Y-72390000D01*
X70173368Y-72506525D01*
X69966525Y-72713368D01*
X69804010Y-72956589D01*
X69692068Y-73226842D01*
X69635000Y-73513740D01*
X69635000Y-73806260D01*
X69692068Y-74093158D01*
X69804010Y-74363411D01*
X69966525Y-74606632D01*
X70173368Y-74813475D01*
X70347760Y-74930000D01*
X70173368Y-75046525D01*
X69966525Y-75253368D01*
X69804010Y-75496589D01*
X69692068Y-75766842D01*
X69635000Y-76053740D01*
X69635000Y-76346260D01*
X69692068Y-76633158D01*
X69804010Y-76903411D01*
X69966525Y-77146632D01*
X70173368Y-77353475D01*
X70416589Y-77515990D01*
X70675418Y-77623200D01*
X46164582Y-77623200D01*
X46423411Y-77515990D01*
X46666632Y-77353475D01*
X46873475Y-77146632D01*
X47035990Y-76903411D01*
X47147932Y-76633158D01*
X47205000Y-76346260D01*
X47205000Y-76053740D01*
X47147932Y-75766842D01*
X47035990Y-75496589D01*
X46926090Y-75332111D01*
X66164471Y-56093731D01*
X66422216Y-56145000D01*
X66724584Y-56145000D01*
X67021143Y-56086011D01*
X67300495Y-55970299D01*
X67551905Y-55802312D01*
X67765712Y-55588505D01*
X67933699Y-55337095D01*
X68049411Y-55057743D01*
X68108400Y-54761184D01*
X68108400Y-54458816D01*
X68049411Y-54162257D01*
X67933699Y-53882905D01*
X67765712Y-53631495D01*
X67551905Y-53417688D01*
X67398295Y-53315049D01*
X67457875Y-53134080D01*
X66573400Y-52249605D01*
X65688925Y-53134080D01*
X65748505Y-53315049D01*
X65594895Y-53417688D01*
X65381088Y-53631495D01*
X65213101Y-53882905D01*
X65097389Y-54162257D01*
X65038400Y-54458816D01*
X65038400Y-54761184D01*
X65089669Y-55018929D01*
X47069971Y-73038628D01*
X47035990Y-72956589D01*
X46873475Y-72713368D01*
X46666632Y-72506525D01*
X46492240Y-72390000D01*
X46666632Y-72273475D01*
X46873475Y-72066632D01*
X47035990Y-71823411D01*
X47147932Y-71553158D01*
X47205000Y-71266260D01*
X47205000Y-70973740D01*
X47147932Y-70686842D01*
X47035990Y-70416589D01*
X46873475Y-70173368D01*
X46666632Y-69966525D01*
X46492240Y-69850000D01*
X46666632Y-69733475D01*
X46873475Y-69526632D01*
X47035990Y-69283411D01*
X47147932Y-69013158D01*
X47205000Y-68726260D01*
X47205000Y-68433740D01*
X47147932Y-68146842D01*
X47035990Y-67876589D01*
X46873475Y-67633368D01*
X46666632Y-67426525D01*
X46492240Y-67310000D01*
X46666632Y-67193475D01*
X46873475Y-66986632D01*
X47035990Y-66743411D01*
X47147932Y-66473158D01*
X47205000Y-66186260D01*
X47205000Y-65893740D01*
X47147932Y-65606842D01*
X47035990Y-65336589D01*
X46873475Y-65093368D01*
X46666632Y-64886525D01*
X46492240Y-64770000D01*
X46666632Y-64653475D01*
X46873475Y-64446632D01*
X47035990Y-64203411D01*
X47147932Y-63933158D01*
X47205000Y-63646260D01*
X47205000Y-63353740D01*
X47147932Y-63066842D01*
X47035990Y-62796589D01*
X46873475Y-62553368D01*
X46666632Y-62346525D01*
X46492240Y-62230000D01*
X46666632Y-62113475D01*
X46873475Y-61906632D01*
X47035990Y-61663411D01*
X47147932Y-61393158D01*
X47205000Y-61106260D01*
X47205000Y-60813740D01*
X47147932Y-60526842D01*
X47035990Y-60256589D01*
X46873475Y-60013368D01*
X46666632Y-59806525D01*
X46492240Y-59690000D01*
X46666632Y-59573475D01*
X46873475Y-59366632D01*
X47035990Y-59123411D01*
X47147932Y-58853158D01*
X47205000Y-58566260D01*
X47205000Y-58273740D01*
X47147932Y-57986842D01*
X47035990Y-57716589D01*
X46873475Y-57473368D01*
X46666632Y-57266525D01*
X46492240Y-57150000D01*
X46666632Y-57033475D01*
X46873475Y-56826632D01*
X47035990Y-56583411D01*
X47147932Y-56313158D01*
X47205000Y-56026260D01*
X47205000Y-55733740D01*
X47147932Y-55446842D01*
X47035990Y-55176589D01*
X46873475Y-54933368D01*
X46666632Y-54726525D01*
X46492240Y-54610000D01*
X46666632Y-54493475D01*
X46873475Y-54286632D01*
X47035990Y-54043411D01*
X47147932Y-53773158D01*
X47205000Y-53486260D01*
X47205000Y-53193740D01*
X47147932Y-52906842D01*
X47035990Y-52636589D01*
X46873475Y-52393368D01*
X46666632Y-52186525D01*
X46492240Y-52070000D01*
X46666632Y-51953475D01*
X46873475Y-51746632D01*
X47035990Y-51503411D01*
X47147932Y-51233158D01*
X47205000Y-50946260D01*
X47205000Y-50653740D01*
X47147932Y-50366842D01*
X47035990Y-50096589D01*
X46873475Y-49853368D01*
X46666632Y-49646525D01*
X46492240Y-49530000D01*
X46666632Y-49413475D01*
X46873475Y-49206632D01*
X47035990Y-48963411D01*
X47147932Y-48693158D01*
X47205000Y-48406260D01*
X47205000Y-48113740D01*
X47147932Y-47826842D01*
X47116103Y-47750000D01*
X48041599Y-47750000D01*
X51602601Y-51311003D01*
G36*
X69915506Y-29099463D02*
G01*
X69818815Y-29178815D01*
X69739463Y-29275506D01*
X69680498Y-29385820D01*
X69644188Y-29505518D01*
X69631928Y-29630000D01*
X69635000Y-30194250D01*
X69793750Y-30353000D01*
X70993000Y-30353000D01*
X70993000Y-30333000D01*
X71247000Y-30333000D01*
X71247000Y-30353000D01*
X71267000Y-30353000D01*
X71267000Y-30607000D01*
X71247000Y-30607000D01*
X71247000Y-30627000D01*
X70993000Y-30627000D01*
X70993000Y-30607000D01*
X69793750Y-30607000D01*
X69635000Y-30765750D01*
X69631928Y-31330000D01*
X69644188Y-31454482D01*
X69680498Y-31574180D01*
X69739463Y-31684494D01*
X69818815Y-31781185D01*
X69915506Y-31860537D01*
X70025820Y-31919502D01*
X70098380Y-31941513D01*
X69966525Y-32073368D01*
X69804010Y-32316589D01*
X69692068Y-32586842D01*
X69635000Y-32873740D01*
X69635000Y-33166260D01*
X69692068Y-33453158D01*
X69804010Y-33723411D01*
X69966525Y-33966632D01*
X70173368Y-34173475D01*
X70347760Y-34290000D01*
X70173368Y-34406525D01*
X69966525Y-34613368D01*
X69804010Y-34856589D01*
X69692068Y-35126842D01*
X69635000Y-35413740D01*
X69635000Y-35706260D01*
X69692068Y-35993158D01*
X69804010Y-36263411D01*
X69942469Y-36470629D01*
X69433702Y-36979397D01*
X69404699Y-37003199D01*
X69349571Y-37070374D01*
X69309726Y-37118924D01*
X69241640Y-37246303D01*
X69239154Y-37250954D01*
X69195697Y-37394215D01*
X69184700Y-37505868D01*
X69184700Y-37505878D01*
X69181024Y-37543200D01*
X69184700Y-37580523D01*
X69184701Y-38223897D01*
X68108400Y-39300198D01*
X68108400Y-39218816D01*
X68049411Y-38922257D01*
X67933699Y-38642905D01*
X67765712Y-38391495D01*
X67551905Y-38177688D01*
X67435637Y-38100000D01*
X67551905Y-38022312D01*
X67765712Y-37808505D01*
X67933699Y-37557095D01*
X68049411Y-37277743D01*
X68108400Y-36981184D01*
X68108400Y-36678816D01*
X68049411Y-36382257D01*
X67933699Y-36102905D01*
X67765712Y-35851495D01*
X67551905Y-35637688D01*
X67300495Y-35469701D01*
X67021143Y-35353989D01*
X66724584Y-35295000D01*
X66422216Y-35295000D01*
X66125657Y-35353989D01*
X65846305Y-35469701D01*
X65594895Y-35637688D01*
X65381088Y-35851495D01*
X65213101Y-36102905D01*
X65097389Y-36382257D01*
X65038400Y-36678816D01*
X65038400Y-36981184D01*
X65097389Y-37277743D01*
X65213101Y-37557095D01*
X65381088Y-37808505D01*
X65594895Y-38022312D01*
X65711163Y-38100000D01*
X65594895Y-38177688D01*
X65381088Y-38391495D01*
X65213101Y-38642905D01*
X65097389Y-38922257D01*
X65038400Y-39218816D01*
X65038400Y-39521184D01*
X65089669Y-39778930D01*
X64800698Y-40067901D01*
X64771700Y-40091699D01*
X64747902Y-40120697D01*
X64747901Y-40120698D01*
X64676726Y-40207424D01*
X64606154Y-40339454D01*
X64562698Y-40482715D01*
X64548024Y-40631700D01*
X64551701Y-40669032D01*
X64551700Y-44889777D01*
X64548024Y-44927100D01*
X64551700Y-44964422D01*
X64551700Y-44964432D01*
X64562697Y-45076085D01*
X64599983Y-45199002D01*
X64606154Y-45219346D01*
X64676726Y-45351376D01*
X64716571Y-45399926D01*
X64771699Y-45467101D01*
X64800702Y-45490903D01*
X65357138Y-46047339D01*
X65213101Y-46262905D01*
X65097389Y-46542257D01*
X65038400Y-46838816D01*
X65038400Y-47141184D01*
X65097389Y-47437743D01*
X65213101Y-47717095D01*
X65381088Y-47968505D01*
X65594895Y-48182312D01*
X65711163Y-48260000D01*
X65594895Y-48337688D01*
X65381088Y-48551495D01*
X65213101Y-48802905D01*
X65097389Y-49082257D01*
X65038400Y-49378816D01*
X65038400Y-49681184D01*
X65097389Y-49977743D01*
X65123177Y-50040000D01*
X52481202Y-50040000D01*
X48920204Y-46479003D01*
X48896401Y-46449999D01*
X48780676Y-46355026D01*
X48648647Y-46284454D01*
X48505386Y-46240997D01*
X48393733Y-46230000D01*
X48393722Y-46230000D01*
X48356400Y-46226324D01*
X48319078Y-46230000D01*
X47116103Y-46230000D01*
X47147932Y-46153158D01*
X47205000Y-45866260D01*
X47205000Y-45573740D01*
X47147932Y-45286842D01*
X47035990Y-45016589D01*
X46897531Y-44809370D01*
X47406304Y-44300598D01*
X47435301Y-44276801D01*
X47480641Y-44221554D01*
X47530274Y-44161077D01*
X47600846Y-44029047D01*
X47608232Y-44004699D01*
X47644303Y-43885786D01*
X47655300Y-43774133D01*
X47655300Y-43774124D01*
X47658976Y-43736801D01*
X47655300Y-43699478D01*
X47655300Y-42730422D01*
X47658976Y-42693099D01*
X47655300Y-42655776D01*
X47655300Y-42655767D01*
X47644303Y-42544114D01*
X47600846Y-42400853D01*
X47530274Y-42268824D01*
X47435301Y-42153099D01*
X47406302Y-42129301D01*
X46868554Y-41591553D01*
X46873475Y-41586632D01*
X47035990Y-41343411D01*
X47147932Y-41073158D01*
X47205000Y-40786260D01*
X47205000Y-40493740D01*
X47147932Y-40206842D01*
X47035990Y-39936589D01*
X46873475Y-39693368D01*
X46666632Y-39486525D01*
X46492240Y-39370000D01*
X46666632Y-39253475D01*
X46873475Y-39046632D01*
X47035990Y-38803411D01*
X47147932Y-38533158D01*
X47205000Y-38246260D01*
X47205000Y-37953740D01*
X47147932Y-37666842D01*
X47035990Y-37396589D01*
X46873475Y-37153368D01*
X46666632Y-36946525D01*
X46492240Y-36830000D01*
X46666632Y-36713475D01*
X46873475Y-36506632D01*
X47035990Y-36263411D01*
X47147932Y-35993158D01*
X47205000Y-35706260D01*
X47205000Y-35413740D01*
X47147932Y-35126842D01*
X47035990Y-34856589D01*
X46873475Y-34613368D01*
X46666632Y-34406525D01*
X46492240Y-34290000D01*
X46666632Y-34173475D01*
X46873475Y-33966632D01*
X47035990Y-33723411D01*
X47147932Y-33453158D01*
X47205000Y-33166260D01*
X47205000Y-32873740D01*
X47147932Y-32586842D01*
X47035990Y-32316589D01*
X46873475Y-32073368D01*
X46741620Y-31941513D01*
X46814180Y-31919502D01*
X46924494Y-31860537D01*
X47021185Y-31781185D01*
X47100537Y-31684494D01*
X47159502Y-31574180D01*
X47195812Y-31454482D01*
X47208072Y-31330000D01*
X47208072Y-29630000D01*
X47195812Y-29505518D01*
X47159502Y-29385820D01*
X47100537Y-29275506D01*
X47021185Y-29178815D01*
X46924494Y-29099463D01*
X46885770Y-29078764D01*
X69990341Y-29059462D01*
X69915506Y-29099463D01*
G37*
X69915506Y-29099463D02*
X69818815Y-29178815D01*
X69739463Y-29275506D01*
X69680498Y-29385820D01*
X69644188Y-29505518D01*
X69631928Y-29630000D01*
X69635000Y-30194250D01*
X69793750Y-30353000D01*
X70993000Y-30353000D01*
X70993000Y-30333000D01*
X71247000Y-30333000D01*
X71247000Y-30353000D01*
X71267000Y-30353000D01*
X71267000Y-30607000D01*
X71247000Y-30607000D01*
X71247000Y-30627000D01*
X70993000Y-30627000D01*
X70993000Y-30607000D01*
X69793750Y-30607000D01*
X69635000Y-30765750D01*
X69631928Y-31330000D01*
X69644188Y-31454482D01*
X69680498Y-31574180D01*
X69739463Y-31684494D01*
X69818815Y-31781185D01*
X69915506Y-31860537D01*
X70025820Y-31919502D01*
X70098380Y-31941513D01*
X69966525Y-32073368D01*
X69804010Y-32316589D01*
X69692068Y-32586842D01*
X69635000Y-32873740D01*
X69635000Y-33166260D01*
X69692068Y-33453158D01*
X69804010Y-33723411D01*
X69966525Y-33966632D01*
X70173368Y-34173475D01*
X70347760Y-34290000D01*
X70173368Y-34406525D01*
X69966525Y-34613368D01*
X69804010Y-34856589D01*
X69692068Y-35126842D01*
X69635000Y-35413740D01*
X69635000Y-35706260D01*
X69692068Y-35993158D01*
X69804010Y-36263411D01*
X69942469Y-36470629D01*
X69433702Y-36979397D01*
X69404699Y-37003199D01*
X69349571Y-37070374D01*
X69309726Y-37118924D01*
X69241640Y-37246303D01*
X69239154Y-37250954D01*
X69195697Y-37394215D01*
X69184700Y-37505868D01*
X69184700Y-37505878D01*
X69181024Y-37543200D01*
X69184700Y-37580523D01*
X69184701Y-38223897D01*
X68108400Y-39300198D01*
X68108400Y-39218816D01*
X68049411Y-38922257D01*
X67933699Y-38642905D01*
X67765712Y-38391495D01*
X67551905Y-38177688D01*
X67435637Y-38100000D01*
X67551905Y-38022312D01*
X67765712Y-37808505D01*
X67933699Y-37557095D01*
X68049411Y-37277743D01*
X68108400Y-36981184D01*
X68108400Y-36678816D01*
X68049411Y-36382257D01*
X67933699Y-36102905D01*
X67765712Y-35851495D01*
X67551905Y-35637688D01*
X67300495Y-35469701D01*
X67021143Y-35353989D01*
X66724584Y-35295000D01*
X66422216Y-35295000D01*
X66125657Y-35353989D01*
X65846305Y-35469701D01*
X65594895Y-35637688D01*
X65381088Y-35851495D01*
X65213101Y-36102905D01*
X65097389Y-36382257D01*
X65038400Y-36678816D01*
X65038400Y-36981184D01*
X65097389Y-37277743D01*
X65213101Y-37557095D01*
X65381088Y-37808505D01*
X65594895Y-38022312D01*
X65711163Y-38100000D01*
X65594895Y-38177688D01*
X65381088Y-38391495D01*
X65213101Y-38642905D01*
X65097389Y-38922257D01*
X65038400Y-39218816D01*
X65038400Y-39521184D01*
X65089669Y-39778930D01*
X64800698Y-40067901D01*
X64771700Y-40091699D01*
X64747902Y-40120697D01*
X64747901Y-40120698D01*
X64676726Y-40207424D01*
X64606154Y-40339454D01*
X64562698Y-40482715D01*
X64548024Y-40631700D01*
X64551701Y-40669032D01*
X64551700Y-44889777D01*
X64548024Y-44927100D01*
X64551700Y-44964422D01*
X64551700Y-44964432D01*
X64562697Y-45076085D01*
X64599983Y-45199002D01*
X64606154Y-45219346D01*
X64676726Y-45351376D01*
X64716571Y-45399926D01*
X64771699Y-45467101D01*
X64800702Y-45490903D01*
X65357138Y-46047339D01*
X65213101Y-46262905D01*
X65097389Y-46542257D01*
X65038400Y-46838816D01*
X65038400Y-47141184D01*
X65097389Y-47437743D01*
X65213101Y-47717095D01*
X65381088Y-47968505D01*
X65594895Y-48182312D01*
X65711163Y-48260000D01*
X65594895Y-48337688D01*
X65381088Y-48551495D01*
X65213101Y-48802905D01*
X65097389Y-49082257D01*
X65038400Y-49378816D01*
X65038400Y-49681184D01*
X65097389Y-49977743D01*
X65123177Y-50040000D01*
X52481202Y-50040000D01*
X48920204Y-46479003D01*
X48896401Y-46449999D01*
X48780676Y-46355026D01*
X48648647Y-46284454D01*
X48505386Y-46240997D01*
X48393733Y-46230000D01*
X48393722Y-46230000D01*
X48356400Y-46226324D01*
X48319078Y-46230000D01*
X47116103Y-46230000D01*
X47147932Y-46153158D01*
X47205000Y-45866260D01*
X47205000Y-45573740D01*
X47147932Y-45286842D01*
X47035990Y-45016589D01*
X46897531Y-44809370D01*
X47406304Y-44300598D01*
X47435301Y-44276801D01*
X47480641Y-44221554D01*
X47530274Y-44161077D01*
X47600846Y-44029047D01*
X47608232Y-44004699D01*
X47644303Y-43885786D01*
X47655300Y-43774133D01*
X47655300Y-43774124D01*
X47658976Y-43736801D01*
X47655300Y-43699478D01*
X47655300Y-42730422D01*
X47658976Y-42693099D01*
X47655300Y-42655776D01*
X47655300Y-42655767D01*
X47644303Y-42544114D01*
X47600846Y-42400853D01*
X47530274Y-42268824D01*
X47435301Y-42153099D01*
X47406302Y-42129301D01*
X46868554Y-41591553D01*
X46873475Y-41586632D01*
X47035990Y-41343411D01*
X47147932Y-41073158D01*
X47205000Y-40786260D01*
X47205000Y-40493740D01*
X47147932Y-40206842D01*
X47035990Y-39936589D01*
X46873475Y-39693368D01*
X46666632Y-39486525D01*
X46492240Y-39370000D01*
X46666632Y-39253475D01*
X46873475Y-39046632D01*
X47035990Y-38803411D01*
X47147932Y-38533158D01*
X47205000Y-38246260D01*
X47205000Y-37953740D01*
X47147932Y-37666842D01*
X47035990Y-37396589D01*
X46873475Y-37153368D01*
X46666632Y-36946525D01*
X46492240Y-36830000D01*
X46666632Y-36713475D01*
X46873475Y-36506632D01*
X47035990Y-36263411D01*
X47147932Y-35993158D01*
X47205000Y-35706260D01*
X47205000Y-35413740D01*
X47147932Y-35126842D01*
X47035990Y-34856589D01*
X46873475Y-34613368D01*
X46666632Y-34406525D01*
X46492240Y-34290000D01*
X46666632Y-34173475D01*
X46873475Y-33966632D01*
X47035990Y-33723411D01*
X47147932Y-33453158D01*
X47205000Y-33166260D01*
X47205000Y-32873740D01*
X47147932Y-32586842D01*
X47035990Y-32316589D01*
X46873475Y-32073368D01*
X46741620Y-31941513D01*
X46814180Y-31919502D01*
X46924494Y-31860537D01*
X47021185Y-31781185D01*
X47100537Y-31684494D01*
X47159502Y-31574180D01*
X47195812Y-31454482D01*
X47208072Y-31330000D01*
X47208072Y-29630000D01*
X47195812Y-29505518D01*
X47159502Y-29385820D01*
X47100537Y-29275506D01*
X47021185Y-29178815D01*
X46924494Y-29099463D01*
X46885770Y-29078764D01*
X69990341Y-29059462D01*
X69915506Y-29099463D01*
M02*
