M48
; DRILL file {KiCad (5.1.5-0-10_14)} date 2020 June 17, Wednesday 20:55:42
; FORMAT={-:-/ absolute / inch / decimal}
; #@! TF.CreationDate,2020-06-17T20:55:42+02:00
; #@! TF.GenerationSoftware,Kicad,Pcbnew,(5.1.5-0-10_14)
FMAT,2
INCH
T1C0.0394
T2C0.0400
%
G90
G05
T1
X2.8Y-1.2
X2.8Y-1.3
X2.8Y-1.4
X2.8Y-1.5
X2.8Y-1.6
X2.8Y-1.7
X2.8Y-1.8
X2.8Y-1.9
X2.8Y-2.0
X2.8Y-2.1
X2.8Y-2.2
X2.8Y-2.3
X2.8Y-2.4
X2.8Y-2.5
X2.8Y-2.6
X2.8Y-2.7
X2.8Y-2.8
X2.8Y-2.9
X2.8Y-3.0
X1.8Y-1.2
X1.8Y-1.3
X1.8Y-1.4
X1.8Y-1.5
X1.8Y-1.6
X1.8Y-1.7
X1.8Y-1.8
X1.8Y-1.9
X1.8Y-2.0
X1.8Y-2.1
X1.8Y-2.2
X1.8Y-2.3
X1.8Y-2.4
X1.8Y-2.5
X1.8Y-2.6
X1.8Y-2.7
X1.8Y-2.8
X1.8Y-2.9
X1.8Y-3.0
T2
X1.721Y-1.45
X1.721Y-1.55
X1.721Y-1.65
X1.721Y-1.75
X1.721Y-1.85
X1.721Y-1.95
X1.721Y-2.05
X1.721Y-2.15
X2.621Y-1.45
X2.621Y-1.55
X2.621Y-1.65
X2.621Y-1.75
X2.621Y-1.85
X2.621Y-1.95
X2.621Y-2.05
X2.621Y-2.15
T0
M30
