G04 #@! TF.GenerationSoftware,KiCad,Pcbnew,(5.1.5-0-10_14)*
G04 #@! TF.CreationDate,2020-06-17T20:55:43+02:00*
G04 #@! TF.ProjectId,WEMOS_Adapter,57454d4f-535f-4416-9461-707465722e6b,rev?*
G04 #@! TF.SameCoordinates,Original*
G04 #@! TF.FileFunction,Legend,Top*
G04 #@! TF.FilePolarity,Positive*
%FSLAX46Y46*%
G04 Gerber Fmt 4.6, Leading zero omitted, Abs format (unit mm)*
G04 Created by KiCad (PCBNEW (5.1.5-0-10_14)) date 2020-06-17 20:55:43*
%MOMM*%
%LPD*%
G04 APERTURE LIST*
%ADD10C,0.150000*%
G04 APERTURE END LIST*
D10*
X41813400Y-57020000D02*
X41813400Y-57020000D01*
X42973400Y-57020000D02*
X41813400Y-57020000D01*
X43963400Y-58020000D02*
G75*
G03X42963400Y-57020000I-1000000J0D01*
G01*
X43963400Y-64020000D02*
X43963400Y-58020000D01*
X68473400Y-30940000D02*
G75*
G03X66473400Y-28940000I-2000000J0D01*
G01*
X43813400Y-28940000D02*
G75*
G03X41813400Y-30940000I0J-2000000D01*
G01*
X60043400Y-64020000D02*
X68473399Y-64020000D01*
X60043400Y-63020000D02*
X60043400Y-64020000D01*
X51823400Y-63020000D02*
X60043400Y-63020000D01*
X51823400Y-64020000D02*
X51823400Y-63020000D01*
X43963400Y-64020000D02*
X51823400Y-64020000D01*
X41813400Y-30940000D02*
X41813400Y-57020000D01*
X66473400Y-28940000D02*
X43813400Y-28940000D01*
X68473400Y-64020000D02*
X68473400Y-30940000D01*
X54381495Y-64472380D02*
X54381495Y-65281904D01*
X54429114Y-65377142D01*
X54476733Y-65424761D01*
X54571971Y-65472380D01*
X54762447Y-65472380D01*
X54857685Y-65424761D01*
X54905304Y-65377142D01*
X54952923Y-65281904D01*
X54952923Y-64472380D01*
X55952923Y-65472380D02*
X55381495Y-65472380D01*
X55667209Y-65472380D02*
X55667209Y-64472380D01*
X55571971Y-64615238D01*
X55476733Y-64710476D01*
X55381495Y-64758095D01*
M02*
