G04 #@! TF.GenerationSoftware,KiCad,Pcbnew,(5.1.5-0-10_14)*
G04 #@! TF.CreationDate,2020-06-17T20:55:43+02:00*
G04 #@! TF.ProjectId,WEMOS_Adapter,57454d4f-535f-4416-9461-707465722e6b,rev?*
G04 #@! TF.SameCoordinates,Original*
G04 #@! TF.FileFunction,Soldermask,Bot*
G04 #@! TF.FilePolarity,Negative*
%FSLAX46Y46*%
G04 Gerber Fmt 4.6, Leading zero omitted, Abs format (unit mm)*
G04 Created by KiCad (PCBNEW (5.1.5-0-10_14)) date 2020-06-17 20:55:43*
%MOMM*%
%LPD*%
G04 APERTURE LIST*
%ADD10C,0.100000*%
G04 APERTURE END LIST*
D10*
G36*
X71233512Y-75303927D02*
G01*
X71382812Y-75333624D01*
X71546784Y-75401544D01*
X71694354Y-75500147D01*
X71819853Y-75625646D01*
X71918456Y-75773216D01*
X71986376Y-75937188D01*
X72021000Y-76111259D01*
X72021000Y-76288741D01*
X71986376Y-76462812D01*
X71918456Y-76626784D01*
X71819853Y-76774354D01*
X71694354Y-76899853D01*
X71546784Y-76998456D01*
X71382812Y-77066376D01*
X71233512Y-77096073D01*
X71208742Y-77101000D01*
X71031258Y-77101000D01*
X71006488Y-77096073D01*
X70857188Y-77066376D01*
X70693216Y-76998456D01*
X70545646Y-76899853D01*
X70420147Y-76774354D01*
X70321544Y-76626784D01*
X70253624Y-76462812D01*
X70219000Y-76288741D01*
X70219000Y-76111259D01*
X70253624Y-75937188D01*
X70321544Y-75773216D01*
X70420147Y-75625646D01*
X70545646Y-75500147D01*
X70693216Y-75401544D01*
X70857188Y-75333624D01*
X71006488Y-75303927D01*
X71031258Y-75299000D01*
X71208742Y-75299000D01*
X71233512Y-75303927D01*
G37*
G36*
X45833512Y-75303927D02*
G01*
X45982812Y-75333624D01*
X46146784Y-75401544D01*
X46294354Y-75500147D01*
X46419853Y-75625646D01*
X46518456Y-75773216D01*
X46586376Y-75937188D01*
X46621000Y-76111259D01*
X46621000Y-76288741D01*
X46586376Y-76462812D01*
X46518456Y-76626784D01*
X46419853Y-76774354D01*
X46294354Y-76899853D01*
X46146784Y-76998456D01*
X45982812Y-77066376D01*
X45833512Y-77096073D01*
X45808742Y-77101000D01*
X45631258Y-77101000D01*
X45606488Y-77096073D01*
X45457188Y-77066376D01*
X45293216Y-76998456D01*
X45145646Y-76899853D01*
X45020147Y-76774354D01*
X44921544Y-76626784D01*
X44853624Y-76462812D01*
X44819000Y-76288741D01*
X44819000Y-76111259D01*
X44853624Y-75937188D01*
X44921544Y-75773216D01*
X45020147Y-75625646D01*
X45145646Y-75500147D01*
X45293216Y-75401544D01*
X45457188Y-75333624D01*
X45606488Y-75303927D01*
X45631258Y-75299000D01*
X45808742Y-75299000D01*
X45833512Y-75303927D01*
G37*
G36*
X71233512Y-72763927D02*
G01*
X71382812Y-72793624D01*
X71546784Y-72861544D01*
X71694354Y-72960147D01*
X71819853Y-73085646D01*
X71918456Y-73233216D01*
X71986376Y-73397188D01*
X72021000Y-73571259D01*
X72021000Y-73748741D01*
X71986376Y-73922812D01*
X71918456Y-74086784D01*
X71819853Y-74234354D01*
X71694354Y-74359853D01*
X71546784Y-74458456D01*
X71382812Y-74526376D01*
X71233512Y-74556073D01*
X71208742Y-74561000D01*
X71031258Y-74561000D01*
X71006488Y-74556073D01*
X70857188Y-74526376D01*
X70693216Y-74458456D01*
X70545646Y-74359853D01*
X70420147Y-74234354D01*
X70321544Y-74086784D01*
X70253624Y-73922812D01*
X70219000Y-73748741D01*
X70219000Y-73571259D01*
X70253624Y-73397188D01*
X70321544Y-73233216D01*
X70420147Y-73085646D01*
X70545646Y-72960147D01*
X70693216Y-72861544D01*
X70857188Y-72793624D01*
X71006488Y-72763927D01*
X71031258Y-72759000D01*
X71208742Y-72759000D01*
X71233512Y-72763927D01*
G37*
G36*
X45833512Y-72763927D02*
G01*
X45982812Y-72793624D01*
X46146784Y-72861544D01*
X46294354Y-72960147D01*
X46419853Y-73085646D01*
X46518456Y-73233216D01*
X46586376Y-73397188D01*
X46621000Y-73571259D01*
X46621000Y-73748741D01*
X46586376Y-73922812D01*
X46518456Y-74086784D01*
X46419853Y-74234354D01*
X46294354Y-74359853D01*
X46146784Y-74458456D01*
X45982812Y-74526376D01*
X45833512Y-74556073D01*
X45808742Y-74561000D01*
X45631258Y-74561000D01*
X45606488Y-74556073D01*
X45457188Y-74526376D01*
X45293216Y-74458456D01*
X45145646Y-74359853D01*
X45020147Y-74234354D01*
X44921544Y-74086784D01*
X44853624Y-73922812D01*
X44819000Y-73748741D01*
X44819000Y-73571259D01*
X44853624Y-73397188D01*
X44921544Y-73233216D01*
X45020147Y-73085646D01*
X45145646Y-72960147D01*
X45293216Y-72861544D01*
X45457188Y-72793624D01*
X45606488Y-72763927D01*
X45631258Y-72759000D01*
X45808742Y-72759000D01*
X45833512Y-72763927D01*
G37*
G36*
X45833512Y-70223927D02*
G01*
X45982812Y-70253624D01*
X46146784Y-70321544D01*
X46294354Y-70420147D01*
X46419853Y-70545646D01*
X46518456Y-70693216D01*
X46586376Y-70857188D01*
X46621000Y-71031259D01*
X46621000Y-71208741D01*
X46586376Y-71382812D01*
X46518456Y-71546784D01*
X46419853Y-71694354D01*
X46294354Y-71819853D01*
X46146784Y-71918456D01*
X45982812Y-71986376D01*
X45833512Y-72016073D01*
X45808742Y-72021000D01*
X45631258Y-72021000D01*
X45606488Y-72016073D01*
X45457188Y-71986376D01*
X45293216Y-71918456D01*
X45145646Y-71819853D01*
X45020147Y-71694354D01*
X44921544Y-71546784D01*
X44853624Y-71382812D01*
X44819000Y-71208741D01*
X44819000Y-71031259D01*
X44853624Y-70857188D01*
X44921544Y-70693216D01*
X45020147Y-70545646D01*
X45145646Y-70420147D01*
X45293216Y-70321544D01*
X45457188Y-70253624D01*
X45606488Y-70223927D01*
X45631258Y-70219000D01*
X45808742Y-70219000D01*
X45833512Y-70223927D01*
G37*
G36*
X71233512Y-70223927D02*
G01*
X71382812Y-70253624D01*
X71546784Y-70321544D01*
X71694354Y-70420147D01*
X71819853Y-70545646D01*
X71918456Y-70693216D01*
X71986376Y-70857188D01*
X72021000Y-71031259D01*
X72021000Y-71208741D01*
X71986376Y-71382812D01*
X71918456Y-71546784D01*
X71819853Y-71694354D01*
X71694354Y-71819853D01*
X71546784Y-71918456D01*
X71382812Y-71986376D01*
X71233512Y-72016073D01*
X71208742Y-72021000D01*
X71031258Y-72021000D01*
X71006488Y-72016073D01*
X70857188Y-71986376D01*
X70693216Y-71918456D01*
X70545646Y-71819853D01*
X70420147Y-71694354D01*
X70321544Y-71546784D01*
X70253624Y-71382812D01*
X70219000Y-71208741D01*
X70219000Y-71031259D01*
X70253624Y-70857188D01*
X70321544Y-70693216D01*
X70420147Y-70545646D01*
X70545646Y-70420147D01*
X70693216Y-70321544D01*
X70857188Y-70253624D01*
X71006488Y-70223927D01*
X71031258Y-70219000D01*
X71208742Y-70219000D01*
X71233512Y-70223927D01*
G37*
G36*
X45833512Y-67683927D02*
G01*
X45982812Y-67713624D01*
X46146784Y-67781544D01*
X46294354Y-67880147D01*
X46419853Y-68005646D01*
X46518456Y-68153216D01*
X46586376Y-68317188D01*
X46621000Y-68491259D01*
X46621000Y-68668741D01*
X46586376Y-68842812D01*
X46518456Y-69006784D01*
X46419853Y-69154354D01*
X46294354Y-69279853D01*
X46146784Y-69378456D01*
X45982812Y-69446376D01*
X45833512Y-69476073D01*
X45808742Y-69481000D01*
X45631258Y-69481000D01*
X45606488Y-69476073D01*
X45457188Y-69446376D01*
X45293216Y-69378456D01*
X45145646Y-69279853D01*
X45020147Y-69154354D01*
X44921544Y-69006784D01*
X44853624Y-68842812D01*
X44819000Y-68668741D01*
X44819000Y-68491259D01*
X44853624Y-68317188D01*
X44921544Y-68153216D01*
X45020147Y-68005646D01*
X45145646Y-67880147D01*
X45293216Y-67781544D01*
X45457188Y-67713624D01*
X45606488Y-67683927D01*
X45631258Y-67679000D01*
X45808742Y-67679000D01*
X45833512Y-67683927D01*
G37*
G36*
X71233512Y-67683927D02*
G01*
X71382812Y-67713624D01*
X71546784Y-67781544D01*
X71694354Y-67880147D01*
X71819853Y-68005646D01*
X71918456Y-68153216D01*
X71986376Y-68317188D01*
X72021000Y-68491259D01*
X72021000Y-68668741D01*
X71986376Y-68842812D01*
X71918456Y-69006784D01*
X71819853Y-69154354D01*
X71694354Y-69279853D01*
X71546784Y-69378456D01*
X71382812Y-69446376D01*
X71233512Y-69476073D01*
X71208742Y-69481000D01*
X71031258Y-69481000D01*
X71006488Y-69476073D01*
X70857188Y-69446376D01*
X70693216Y-69378456D01*
X70545646Y-69279853D01*
X70420147Y-69154354D01*
X70321544Y-69006784D01*
X70253624Y-68842812D01*
X70219000Y-68668741D01*
X70219000Y-68491259D01*
X70253624Y-68317188D01*
X70321544Y-68153216D01*
X70420147Y-68005646D01*
X70545646Y-67880147D01*
X70693216Y-67781544D01*
X70857188Y-67713624D01*
X71006488Y-67683927D01*
X71031258Y-67679000D01*
X71208742Y-67679000D01*
X71233512Y-67683927D01*
G37*
G36*
X45833512Y-65143927D02*
G01*
X45982812Y-65173624D01*
X46146784Y-65241544D01*
X46294354Y-65340147D01*
X46419853Y-65465646D01*
X46518456Y-65613216D01*
X46586376Y-65777188D01*
X46621000Y-65951259D01*
X46621000Y-66128741D01*
X46586376Y-66302812D01*
X46518456Y-66466784D01*
X46419853Y-66614354D01*
X46294354Y-66739853D01*
X46146784Y-66838456D01*
X45982812Y-66906376D01*
X45833512Y-66936073D01*
X45808742Y-66941000D01*
X45631258Y-66941000D01*
X45606488Y-66936073D01*
X45457188Y-66906376D01*
X45293216Y-66838456D01*
X45145646Y-66739853D01*
X45020147Y-66614354D01*
X44921544Y-66466784D01*
X44853624Y-66302812D01*
X44819000Y-66128741D01*
X44819000Y-65951259D01*
X44853624Y-65777188D01*
X44921544Y-65613216D01*
X45020147Y-65465646D01*
X45145646Y-65340147D01*
X45293216Y-65241544D01*
X45457188Y-65173624D01*
X45606488Y-65143927D01*
X45631258Y-65139000D01*
X45808742Y-65139000D01*
X45833512Y-65143927D01*
G37*
G36*
X71233512Y-65143927D02*
G01*
X71382812Y-65173624D01*
X71546784Y-65241544D01*
X71694354Y-65340147D01*
X71819853Y-65465646D01*
X71918456Y-65613216D01*
X71986376Y-65777188D01*
X72021000Y-65951259D01*
X72021000Y-66128741D01*
X71986376Y-66302812D01*
X71918456Y-66466784D01*
X71819853Y-66614354D01*
X71694354Y-66739853D01*
X71546784Y-66838456D01*
X71382812Y-66906376D01*
X71233512Y-66936073D01*
X71208742Y-66941000D01*
X71031258Y-66941000D01*
X71006488Y-66936073D01*
X70857188Y-66906376D01*
X70693216Y-66838456D01*
X70545646Y-66739853D01*
X70420147Y-66614354D01*
X70321544Y-66466784D01*
X70253624Y-66302812D01*
X70219000Y-66128741D01*
X70219000Y-65951259D01*
X70253624Y-65777188D01*
X70321544Y-65613216D01*
X70420147Y-65465646D01*
X70545646Y-65340147D01*
X70693216Y-65241544D01*
X70857188Y-65173624D01*
X71006488Y-65143927D01*
X71031258Y-65139000D01*
X71208742Y-65139000D01*
X71233512Y-65143927D01*
G37*
G36*
X45833512Y-62603927D02*
G01*
X45982812Y-62633624D01*
X46146784Y-62701544D01*
X46294354Y-62800147D01*
X46419853Y-62925646D01*
X46518456Y-63073216D01*
X46586376Y-63237188D01*
X46621000Y-63411259D01*
X46621000Y-63588741D01*
X46586376Y-63762812D01*
X46518456Y-63926784D01*
X46419853Y-64074354D01*
X46294354Y-64199853D01*
X46146784Y-64298456D01*
X45982812Y-64366376D01*
X45833512Y-64396073D01*
X45808742Y-64401000D01*
X45631258Y-64401000D01*
X45606488Y-64396073D01*
X45457188Y-64366376D01*
X45293216Y-64298456D01*
X45145646Y-64199853D01*
X45020147Y-64074354D01*
X44921544Y-63926784D01*
X44853624Y-63762812D01*
X44819000Y-63588741D01*
X44819000Y-63411259D01*
X44853624Y-63237188D01*
X44921544Y-63073216D01*
X45020147Y-62925646D01*
X45145646Y-62800147D01*
X45293216Y-62701544D01*
X45457188Y-62633624D01*
X45606488Y-62603927D01*
X45631258Y-62599000D01*
X45808742Y-62599000D01*
X45833512Y-62603927D01*
G37*
G36*
X71233512Y-62603927D02*
G01*
X71382812Y-62633624D01*
X71546784Y-62701544D01*
X71694354Y-62800147D01*
X71819853Y-62925646D01*
X71918456Y-63073216D01*
X71986376Y-63237188D01*
X72021000Y-63411259D01*
X72021000Y-63588741D01*
X71986376Y-63762812D01*
X71918456Y-63926784D01*
X71819853Y-64074354D01*
X71694354Y-64199853D01*
X71546784Y-64298456D01*
X71382812Y-64366376D01*
X71233512Y-64396073D01*
X71208742Y-64401000D01*
X71031258Y-64401000D01*
X71006488Y-64396073D01*
X70857188Y-64366376D01*
X70693216Y-64298456D01*
X70545646Y-64199853D01*
X70420147Y-64074354D01*
X70321544Y-63926784D01*
X70253624Y-63762812D01*
X70219000Y-63588741D01*
X70219000Y-63411259D01*
X70253624Y-63237188D01*
X70321544Y-63073216D01*
X70420147Y-62925646D01*
X70545646Y-62800147D01*
X70693216Y-62701544D01*
X70857188Y-62633624D01*
X71006488Y-62603927D01*
X71031258Y-62599000D01*
X71208742Y-62599000D01*
X71233512Y-62603927D01*
G37*
G36*
X45833512Y-60063927D02*
G01*
X45982812Y-60093624D01*
X46146784Y-60161544D01*
X46294354Y-60260147D01*
X46419853Y-60385646D01*
X46518456Y-60533216D01*
X46586376Y-60697188D01*
X46621000Y-60871259D01*
X46621000Y-61048741D01*
X46586376Y-61222812D01*
X46518456Y-61386784D01*
X46419853Y-61534354D01*
X46294354Y-61659853D01*
X46146784Y-61758456D01*
X45982812Y-61826376D01*
X45833512Y-61856073D01*
X45808742Y-61861000D01*
X45631258Y-61861000D01*
X45606488Y-61856073D01*
X45457188Y-61826376D01*
X45293216Y-61758456D01*
X45145646Y-61659853D01*
X45020147Y-61534354D01*
X44921544Y-61386784D01*
X44853624Y-61222812D01*
X44819000Y-61048741D01*
X44819000Y-60871259D01*
X44853624Y-60697188D01*
X44921544Y-60533216D01*
X45020147Y-60385646D01*
X45145646Y-60260147D01*
X45293216Y-60161544D01*
X45457188Y-60093624D01*
X45606488Y-60063927D01*
X45631258Y-60059000D01*
X45808742Y-60059000D01*
X45833512Y-60063927D01*
G37*
G36*
X71233512Y-60063927D02*
G01*
X71382812Y-60093624D01*
X71546784Y-60161544D01*
X71694354Y-60260147D01*
X71819853Y-60385646D01*
X71918456Y-60533216D01*
X71986376Y-60697188D01*
X72021000Y-60871259D01*
X72021000Y-61048741D01*
X71986376Y-61222812D01*
X71918456Y-61386784D01*
X71819853Y-61534354D01*
X71694354Y-61659853D01*
X71546784Y-61758456D01*
X71382812Y-61826376D01*
X71233512Y-61856073D01*
X71208742Y-61861000D01*
X71031258Y-61861000D01*
X71006488Y-61856073D01*
X70857188Y-61826376D01*
X70693216Y-61758456D01*
X70545646Y-61659853D01*
X70420147Y-61534354D01*
X70321544Y-61386784D01*
X70253624Y-61222812D01*
X70219000Y-61048741D01*
X70219000Y-60871259D01*
X70253624Y-60697188D01*
X70321544Y-60533216D01*
X70420147Y-60385646D01*
X70545646Y-60260147D01*
X70693216Y-60161544D01*
X70857188Y-60093624D01*
X71006488Y-60063927D01*
X71031258Y-60059000D01*
X71208742Y-60059000D01*
X71233512Y-60063927D01*
G37*
G36*
X71233512Y-57523927D02*
G01*
X71382812Y-57553624D01*
X71546784Y-57621544D01*
X71694354Y-57720147D01*
X71819853Y-57845646D01*
X71918456Y-57993216D01*
X71986376Y-58157188D01*
X72021000Y-58331259D01*
X72021000Y-58508741D01*
X71986376Y-58682812D01*
X71918456Y-58846784D01*
X71819853Y-58994354D01*
X71694354Y-59119853D01*
X71546784Y-59218456D01*
X71382812Y-59286376D01*
X71233512Y-59316073D01*
X71208742Y-59321000D01*
X71031258Y-59321000D01*
X71006488Y-59316073D01*
X70857188Y-59286376D01*
X70693216Y-59218456D01*
X70545646Y-59119853D01*
X70420147Y-58994354D01*
X70321544Y-58846784D01*
X70253624Y-58682812D01*
X70219000Y-58508741D01*
X70219000Y-58331259D01*
X70253624Y-58157188D01*
X70321544Y-57993216D01*
X70420147Y-57845646D01*
X70545646Y-57720147D01*
X70693216Y-57621544D01*
X70857188Y-57553624D01*
X71006488Y-57523927D01*
X71031258Y-57519000D01*
X71208742Y-57519000D01*
X71233512Y-57523927D01*
G37*
G36*
X45833512Y-57523927D02*
G01*
X45982812Y-57553624D01*
X46146784Y-57621544D01*
X46294354Y-57720147D01*
X46419853Y-57845646D01*
X46518456Y-57993216D01*
X46586376Y-58157188D01*
X46621000Y-58331259D01*
X46621000Y-58508741D01*
X46586376Y-58682812D01*
X46518456Y-58846784D01*
X46419853Y-58994354D01*
X46294354Y-59119853D01*
X46146784Y-59218456D01*
X45982812Y-59286376D01*
X45833512Y-59316073D01*
X45808742Y-59321000D01*
X45631258Y-59321000D01*
X45606488Y-59316073D01*
X45457188Y-59286376D01*
X45293216Y-59218456D01*
X45145646Y-59119853D01*
X45020147Y-58994354D01*
X44921544Y-58846784D01*
X44853624Y-58682812D01*
X44819000Y-58508741D01*
X44819000Y-58331259D01*
X44853624Y-58157188D01*
X44921544Y-57993216D01*
X45020147Y-57845646D01*
X45145646Y-57720147D01*
X45293216Y-57621544D01*
X45457188Y-57553624D01*
X45606488Y-57523927D01*
X45631258Y-57519000D01*
X45808742Y-57519000D01*
X45833512Y-57523927D01*
G37*
G36*
X45833512Y-54983927D02*
G01*
X45982812Y-55013624D01*
X46146784Y-55081544D01*
X46294354Y-55180147D01*
X46419853Y-55305646D01*
X46518456Y-55453216D01*
X46586376Y-55617188D01*
X46621000Y-55791259D01*
X46621000Y-55968741D01*
X46586376Y-56142812D01*
X46518456Y-56306784D01*
X46419853Y-56454354D01*
X46294354Y-56579853D01*
X46146784Y-56678456D01*
X45982812Y-56746376D01*
X45833512Y-56776073D01*
X45808742Y-56781000D01*
X45631258Y-56781000D01*
X45606488Y-56776073D01*
X45457188Y-56746376D01*
X45293216Y-56678456D01*
X45145646Y-56579853D01*
X45020147Y-56454354D01*
X44921544Y-56306784D01*
X44853624Y-56142812D01*
X44819000Y-55968741D01*
X44819000Y-55791259D01*
X44853624Y-55617188D01*
X44921544Y-55453216D01*
X45020147Y-55305646D01*
X45145646Y-55180147D01*
X45293216Y-55081544D01*
X45457188Y-55013624D01*
X45606488Y-54983927D01*
X45631258Y-54979000D01*
X45808742Y-54979000D01*
X45833512Y-54983927D01*
G37*
G36*
X71233512Y-54983927D02*
G01*
X71382812Y-55013624D01*
X71546784Y-55081544D01*
X71694354Y-55180147D01*
X71819853Y-55305646D01*
X71918456Y-55453216D01*
X71986376Y-55617188D01*
X72021000Y-55791259D01*
X72021000Y-55968741D01*
X71986376Y-56142812D01*
X71918456Y-56306784D01*
X71819853Y-56454354D01*
X71694354Y-56579853D01*
X71546784Y-56678456D01*
X71382812Y-56746376D01*
X71233512Y-56776073D01*
X71208742Y-56781000D01*
X71031258Y-56781000D01*
X71006488Y-56776073D01*
X70857188Y-56746376D01*
X70693216Y-56678456D01*
X70545646Y-56579853D01*
X70420147Y-56454354D01*
X70321544Y-56306784D01*
X70253624Y-56142812D01*
X70219000Y-55968741D01*
X70219000Y-55791259D01*
X70253624Y-55617188D01*
X70321544Y-55453216D01*
X70420147Y-55305646D01*
X70545646Y-55180147D01*
X70693216Y-55081544D01*
X70857188Y-55013624D01*
X71006488Y-54983927D01*
X71031258Y-54979000D01*
X71208742Y-54979000D01*
X71233512Y-54983927D01*
G37*
G36*
X43990795Y-53695546D02*
G01*
X44163866Y-53767234D01*
X44163867Y-53767235D01*
X44319627Y-53871310D01*
X44452090Y-54003773D01*
X44452091Y-54003775D01*
X44556166Y-54159534D01*
X44627854Y-54332605D01*
X44664400Y-54516333D01*
X44664400Y-54703667D01*
X44627854Y-54887395D01*
X44556166Y-55060466D01*
X44556165Y-55060467D01*
X44452090Y-55216227D01*
X44319627Y-55348690D01*
X44241218Y-55401081D01*
X44163866Y-55452766D01*
X43990795Y-55524454D01*
X43807067Y-55561000D01*
X43619733Y-55561000D01*
X43436005Y-55524454D01*
X43262934Y-55452766D01*
X43185582Y-55401081D01*
X43107173Y-55348690D01*
X42974710Y-55216227D01*
X42870635Y-55060467D01*
X42870634Y-55060466D01*
X42798946Y-54887395D01*
X42762400Y-54703667D01*
X42762400Y-54516333D01*
X42798946Y-54332605D01*
X42870634Y-54159534D01*
X42974709Y-54003775D01*
X42974710Y-54003773D01*
X43107173Y-53871310D01*
X43262933Y-53767235D01*
X43262934Y-53767234D01*
X43436005Y-53695546D01*
X43619733Y-53659000D01*
X43807067Y-53659000D01*
X43990795Y-53695546D01*
G37*
G36*
X66850795Y-53695546D02*
G01*
X67023866Y-53767234D01*
X67023867Y-53767235D01*
X67179627Y-53871310D01*
X67312090Y-54003773D01*
X67312091Y-54003775D01*
X67416166Y-54159534D01*
X67487854Y-54332605D01*
X67524400Y-54516333D01*
X67524400Y-54703667D01*
X67487854Y-54887395D01*
X67416166Y-55060466D01*
X67416165Y-55060467D01*
X67312090Y-55216227D01*
X67179627Y-55348690D01*
X67101218Y-55401081D01*
X67023866Y-55452766D01*
X66850795Y-55524454D01*
X66667067Y-55561000D01*
X66479733Y-55561000D01*
X66296005Y-55524454D01*
X66122934Y-55452766D01*
X66045582Y-55401081D01*
X65967173Y-55348690D01*
X65834710Y-55216227D01*
X65730635Y-55060467D01*
X65730634Y-55060466D01*
X65658946Y-54887395D01*
X65622400Y-54703667D01*
X65622400Y-54516333D01*
X65658946Y-54332605D01*
X65730634Y-54159534D01*
X65834709Y-54003775D01*
X65834710Y-54003773D01*
X65967173Y-53871310D01*
X66122933Y-53767235D01*
X66122934Y-53767234D01*
X66296005Y-53695546D01*
X66479733Y-53659000D01*
X66667067Y-53659000D01*
X66850795Y-53695546D01*
G37*
G36*
X45833512Y-52443927D02*
G01*
X45982812Y-52473624D01*
X46146784Y-52541544D01*
X46294354Y-52640147D01*
X46419853Y-52765646D01*
X46518456Y-52913216D01*
X46586376Y-53077188D01*
X46621000Y-53251259D01*
X46621000Y-53428741D01*
X46586376Y-53602812D01*
X46518456Y-53766784D01*
X46419853Y-53914354D01*
X46294354Y-54039853D01*
X46146784Y-54138456D01*
X45982812Y-54206376D01*
X45833512Y-54236073D01*
X45808742Y-54241000D01*
X45631258Y-54241000D01*
X45606488Y-54236073D01*
X45457188Y-54206376D01*
X45293216Y-54138456D01*
X45145646Y-54039853D01*
X45020147Y-53914354D01*
X44921544Y-53766784D01*
X44853624Y-53602812D01*
X44819000Y-53428741D01*
X44819000Y-53251259D01*
X44853624Y-53077188D01*
X44921544Y-52913216D01*
X45020147Y-52765646D01*
X45145646Y-52640147D01*
X45293216Y-52541544D01*
X45457188Y-52473624D01*
X45606488Y-52443927D01*
X45631258Y-52439000D01*
X45808742Y-52439000D01*
X45833512Y-52443927D01*
G37*
G36*
X71233512Y-52443927D02*
G01*
X71382812Y-52473624D01*
X71546784Y-52541544D01*
X71694354Y-52640147D01*
X71819853Y-52765646D01*
X71918456Y-52913216D01*
X71986376Y-53077188D01*
X72021000Y-53251259D01*
X72021000Y-53428741D01*
X71986376Y-53602812D01*
X71918456Y-53766784D01*
X71819853Y-53914354D01*
X71694354Y-54039853D01*
X71546784Y-54138456D01*
X71382812Y-54206376D01*
X71233512Y-54236073D01*
X71208742Y-54241000D01*
X71031258Y-54241000D01*
X71006488Y-54236073D01*
X70857188Y-54206376D01*
X70693216Y-54138456D01*
X70545646Y-54039853D01*
X70420147Y-53914354D01*
X70321544Y-53766784D01*
X70253624Y-53602812D01*
X70219000Y-53428741D01*
X70219000Y-53251259D01*
X70253624Y-53077188D01*
X70321544Y-52913216D01*
X70420147Y-52765646D01*
X70545646Y-52640147D01*
X70693216Y-52541544D01*
X70857188Y-52473624D01*
X71006488Y-52443927D01*
X71031258Y-52439000D01*
X71208742Y-52439000D01*
X71233512Y-52443927D01*
G37*
G36*
X43990795Y-51155546D02*
G01*
X44163866Y-51227234D01*
X44163867Y-51227235D01*
X44319627Y-51331310D01*
X44452090Y-51463773D01*
X44452091Y-51463775D01*
X44556166Y-51619534D01*
X44627854Y-51792605D01*
X44664400Y-51976333D01*
X44664400Y-52163667D01*
X44627854Y-52347395D01*
X44556166Y-52520466D01*
X44556165Y-52520467D01*
X44452090Y-52676227D01*
X44319627Y-52808690D01*
X44241218Y-52861081D01*
X44163866Y-52912766D01*
X43990795Y-52984454D01*
X43807067Y-53021000D01*
X43619733Y-53021000D01*
X43436005Y-52984454D01*
X43262934Y-52912766D01*
X43185582Y-52861081D01*
X43107173Y-52808690D01*
X42974710Y-52676227D01*
X42870635Y-52520467D01*
X42870634Y-52520466D01*
X42798946Y-52347395D01*
X42762400Y-52163667D01*
X42762400Y-51976333D01*
X42798946Y-51792605D01*
X42870634Y-51619534D01*
X42974709Y-51463775D01*
X42974710Y-51463773D01*
X43107173Y-51331310D01*
X43262933Y-51227235D01*
X43262934Y-51227234D01*
X43436005Y-51155546D01*
X43619733Y-51119000D01*
X43807067Y-51119000D01*
X43990795Y-51155546D01*
G37*
G36*
X66850795Y-51155546D02*
G01*
X67023866Y-51227234D01*
X67023867Y-51227235D01*
X67179627Y-51331310D01*
X67312090Y-51463773D01*
X67312091Y-51463775D01*
X67416166Y-51619534D01*
X67487854Y-51792605D01*
X67524400Y-51976333D01*
X67524400Y-52163667D01*
X67487854Y-52347395D01*
X67416166Y-52520466D01*
X67416165Y-52520467D01*
X67312090Y-52676227D01*
X67179627Y-52808690D01*
X67101218Y-52861081D01*
X67023866Y-52912766D01*
X66850795Y-52984454D01*
X66667067Y-53021000D01*
X66479733Y-53021000D01*
X66296005Y-52984454D01*
X66122934Y-52912766D01*
X66045582Y-52861081D01*
X65967173Y-52808690D01*
X65834710Y-52676227D01*
X65730635Y-52520467D01*
X65730634Y-52520466D01*
X65658946Y-52347395D01*
X65622400Y-52163667D01*
X65622400Y-51976333D01*
X65658946Y-51792605D01*
X65730634Y-51619534D01*
X65834709Y-51463775D01*
X65834710Y-51463773D01*
X65967173Y-51331310D01*
X66122933Y-51227235D01*
X66122934Y-51227234D01*
X66296005Y-51155546D01*
X66479733Y-51119000D01*
X66667067Y-51119000D01*
X66850795Y-51155546D01*
G37*
G36*
X71233512Y-49903927D02*
G01*
X71382812Y-49933624D01*
X71546784Y-50001544D01*
X71694354Y-50100147D01*
X71819853Y-50225646D01*
X71918456Y-50373216D01*
X71986376Y-50537188D01*
X72021000Y-50711259D01*
X72021000Y-50888741D01*
X71986376Y-51062812D01*
X71918456Y-51226784D01*
X71819853Y-51374354D01*
X71694354Y-51499853D01*
X71546784Y-51598456D01*
X71382812Y-51666376D01*
X71233512Y-51696073D01*
X71208742Y-51701000D01*
X71031258Y-51701000D01*
X71006488Y-51696073D01*
X70857188Y-51666376D01*
X70693216Y-51598456D01*
X70545646Y-51499853D01*
X70420147Y-51374354D01*
X70321544Y-51226784D01*
X70253624Y-51062812D01*
X70219000Y-50888741D01*
X70219000Y-50711259D01*
X70253624Y-50537188D01*
X70321544Y-50373216D01*
X70420147Y-50225646D01*
X70545646Y-50100147D01*
X70693216Y-50001544D01*
X70857188Y-49933624D01*
X71006488Y-49903927D01*
X71031258Y-49899000D01*
X71208742Y-49899000D01*
X71233512Y-49903927D01*
G37*
G36*
X45833512Y-49903927D02*
G01*
X45982812Y-49933624D01*
X46146784Y-50001544D01*
X46294354Y-50100147D01*
X46419853Y-50225646D01*
X46518456Y-50373216D01*
X46586376Y-50537188D01*
X46621000Y-50711259D01*
X46621000Y-50888741D01*
X46586376Y-51062812D01*
X46518456Y-51226784D01*
X46419853Y-51374354D01*
X46294354Y-51499853D01*
X46146784Y-51598456D01*
X45982812Y-51666376D01*
X45833512Y-51696073D01*
X45808742Y-51701000D01*
X45631258Y-51701000D01*
X45606488Y-51696073D01*
X45457188Y-51666376D01*
X45293216Y-51598456D01*
X45145646Y-51499853D01*
X45020147Y-51374354D01*
X44921544Y-51226784D01*
X44853624Y-51062812D01*
X44819000Y-50888741D01*
X44819000Y-50711259D01*
X44853624Y-50537188D01*
X44921544Y-50373216D01*
X45020147Y-50225646D01*
X45145646Y-50100147D01*
X45293216Y-50001544D01*
X45457188Y-49933624D01*
X45606488Y-49903927D01*
X45631258Y-49899000D01*
X45808742Y-49899000D01*
X45833512Y-49903927D01*
G37*
G36*
X43990795Y-48615546D02*
G01*
X44163866Y-48687234D01*
X44163867Y-48687235D01*
X44319627Y-48791310D01*
X44452090Y-48923773D01*
X44452091Y-48923775D01*
X44556166Y-49079534D01*
X44627854Y-49252605D01*
X44664400Y-49436333D01*
X44664400Y-49623667D01*
X44627854Y-49807395D01*
X44556166Y-49980466D01*
X44556165Y-49980467D01*
X44452090Y-50136227D01*
X44319627Y-50268690D01*
X44241218Y-50321081D01*
X44163866Y-50372766D01*
X43990795Y-50444454D01*
X43807067Y-50481000D01*
X43619733Y-50481000D01*
X43436005Y-50444454D01*
X43262934Y-50372766D01*
X43185582Y-50321081D01*
X43107173Y-50268690D01*
X42974710Y-50136227D01*
X42870635Y-49980467D01*
X42870634Y-49980466D01*
X42798946Y-49807395D01*
X42762400Y-49623667D01*
X42762400Y-49436333D01*
X42798946Y-49252605D01*
X42870634Y-49079534D01*
X42974709Y-48923775D01*
X42974710Y-48923773D01*
X43107173Y-48791310D01*
X43262933Y-48687235D01*
X43262934Y-48687234D01*
X43436005Y-48615546D01*
X43619733Y-48579000D01*
X43807067Y-48579000D01*
X43990795Y-48615546D01*
G37*
G36*
X66850795Y-48615546D02*
G01*
X67023866Y-48687234D01*
X67023867Y-48687235D01*
X67179627Y-48791310D01*
X67312090Y-48923773D01*
X67312091Y-48923775D01*
X67416166Y-49079534D01*
X67487854Y-49252605D01*
X67524400Y-49436333D01*
X67524400Y-49623667D01*
X67487854Y-49807395D01*
X67416166Y-49980466D01*
X67416165Y-49980467D01*
X67312090Y-50136227D01*
X67179627Y-50268690D01*
X67101218Y-50321081D01*
X67023866Y-50372766D01*
X66850795Y-50444454D01*
X66667067Y-50481000D01*
X66479733Y-50481000D01*
X66296005Y-50444454D01*
X66122934Y-50372766D01*
X66045582Y-50321081D01*
X65967173Y-50268690D01*
X65834710Y-50136227D01*
X65730635Y-49980467D01*
X65730634Y-49980466D01*
X65658946Y-49807395D01*
X65622400Y-49623667D01*
X65622400Y-49436333D01*
X65658946Y-49252605D01*
X65730634Y-49079534D01*
X65834709Y-48923775D01*
X65834710Y-48923773D01*
X65967173Y-48791310D01*
X66122933Y-48687235D01*
X66122934Y-48687234D01*
X66296005Y-48615546D01*
X66479733Y-48579000D01*
X66667067Y-48579000D01*
X66850795Y-48615546D01*
G37*
G36*
X45833512Y-47363927D02*
G01*
X45982812Y-47393624D01*
X46146784Y-47461544D01*
X46294354Y-47560147D01*
X46419853Y-47685646D01*
X46518456Y-47833216D01*
X46586376Y-47997188D01*
X46621000Y-48171259D01*
X46621000Y-48348741D01*
X46586376Y-48522812D01*
X46518456Y-48686784D01*
X46419853Y-48834354D01*
X46294354Y-48959853D01*
X46146784Y-49058456D01*
X45982812Y-49126376D01*
X45833512Y-49156073D01*
X45808742Y-49161000D01*
X45631258Y-49161000D01*
X45606488Y-49156073D01*
X45457188Y-49126376D01*
X45293216Y-49058456D01*
X45145646Y-48959853D01*
X45020147Y-48834354D01*
X44921544Y-48686784D01*
X44853624Y-48522812D01*
X44819000Y-48348741D01*
X44819000Y-48171259D01*
X44853624Y-47997188D01*
X44921544Y-47833216D01*
X45020147Y-47685646D01*
X45145646Y-47560147D01*
X45293216Y-47461544D01*
X45457188Y-47393624D01*
X45606488Y-47363927D01*
X45631258Y-47359000D01*
X45808742Y-47359000D01*
X45833512Y-47363927D01*
G37*
G36*
X71233512Y-47363927D02*
G01*
X71382812Y-47393624D01*
X71546784Y-47461544D01*
X71694354Y-47560147D01*
X71819853Y-47685646D01*
X71918456Y-47833216D01*
X71986376Y-47997188D01*
X72021000Y-48171259D01*
X72021000Y-48348741D01*
X71986376Y-48522812D01*
X71918456Y-48686784D01*
X71819853Y-48834354D01*
X71694354Y-48959853D01*
X71546784Y-49058456D01*
X71382812Y-49126376D01*
X71233512Y-49156073D01*
X71208742Y-49161000D01*
X71031258Y-49161000D01*
X71006488Y-49156073D01*
X70857188Y-49126376D01*
X70693216Y-49058456D01*
X70545646Y-48959853D01*
X70420147Y-48834354D01*
X70321544Y-48686784D01*
X70253624Y-48522812D01*
X70219000Y-48348741D01*
X70219000Y-48171259D01*
X70253624Y-47997188D01*
X70321544Y-47833216D01*
X70420147Y-47685646D01*
X70545646Y-47560147D01*
X70693216Y-47461544D01*
X70857188Y-47393624D01*
X71006488Y-47363927D01*
X71031258Y-47359000D01*
X71208742Y-47359000D01*
X71233512Y-47363927D01*
G37*
G36*
X66850795Y-46075546D02*
G01*
X67023866Y-46147234D01*
X67023867Y-46147235D01*
X67179627Y-46251310D01*
X67312090Y-46383773D01*
X67312091Y-46383775D01*
X67416166Y-46539534D01*
X67487854Y-46712605D01*
X67524400Y-46896333D01*
X67524400Y-47083667D01*
X67487854Y-47267395D01*
X67416166Y-47440466D01*
X67416165Y-47440467D01*
X67312090Y-47596227D01*
X67179627Y-47728690D01*
X67101218Y-47781081D01*
X67023866Y-47832766D01*
X66850795Y-47904454D01*
X66667067Y-47941000D01*
X66479733Y-47941000D01*
X66296005Y-47904454D01*
X66122934Y-47832766D01*
X66045582Y-47781081D01*
X65967173Y-47728690D01*
X65834710Y-47596227D01*
X65730635Y-47440467D01*
X65730634Y-47440466D01*
X65658946Y-47267395D01*
X65622400Y-47083667D01*
X65622400Y-46896333D01*
X65658946Y-46712605D01*
X65730634Y-46539534D01*
X65834709Y-46383775D01*
X65834710Y-46383773D01*
X65967173Y-46251310D01*
X66122933Y-46147235D01*
X66122934Y-46147234D01*
X66296005Y-46075546D01*
X66479733Y-46039000D01*
X66667067Y-46039000D01*
X66850795Y-46075546D01*
G37*
G36*
X43990795Y-46075546D02*
G01*
X44163866Y-46147234D01*
X44163867Y-46147235D01*
X44319627Y-46251310D01*
X44452090Y-46383773D01*
X44452091Y-46383775D01*
X44556166Y-46539534D01*
X44627854Y-46712605D01*
X44664400Y-46896333D01*
X44664400Y-47083667D01*
X44627854Y-47267395D01*
X44556166Y-47440466D01*
X44556165Y-47440467D01*
X44452090Y-47596227D01*
X44319627Y-47728690D01*
X44241218Y-47781081D01*
X44163866Y-47832766D01*
X43990795Y-47904454D01*
X43807067Y-47941000D01*
X43619733Y-47941000D01*
X43436005Y-47904454D01*
X43262934Y-47832766D01*
X43185582Y-47781081D01*
X43107173Y-47728690D01*
X42974710Y-47596227D01*
X42870635Y-47440467D01*
X42870634Y-47440466D01*
X42798946Y-47267395D01*
X42762400Y-47083667D01*
X42762400Y-46896333D01*
X42798946Y-46712605D01*
X42870634Y-46539534D01*
X42974709Y-46383775D01*
X42974710Y-46383773D01*
X43107173Y-46251310D01*
X43262933Y-46147235D01*
X43262934Y-46147234D01*
X43436005Y-46075546D01*
X43619733Y-46039000D01*
X43807067Y-46039000D01*
X43990795Y-46075546D01*
G37*
G36*
X45833512Y-44823927D02*
G01*
X45982812Y-44853624D01*
X46146784Y-44921544D01*
X46294354Y-45020147D01*
X46419853Y-45145646D01*
X46518456Y-45293216D01*
X46586376Y-45457188D01*
X46621000Y-45631259D01*
X46621000Y-45808741D01*
X46586376Y-45982812D01*
X46518456Y-46146784D01*
X46419853Y-46294354D01*
X46294354Y-46419853D01*
X46146784Y-46518456D01*
X45982812Y-46586376D01*
X45833512Y-46616073D01*
X45808742Y-46621000D01*
X45631258Y-46621000D01*
X45606488Y-46616073D01*
X45457188Y-46586376D01*
X45293216Y-46518456D01*
X45145646Y-46419853D01*
X45020147Y-46294354D01*
X44921544Y-46146784D01*
X44853624Y-45982812D01*
X44819000Y-45808741D01*
X44819000Y-45631259D01*
X44853624Y-45457188D01*
X44921544Y-45293216D01*
X45020147Y-45145646D01*
X45145646Y-45020147D01*
X45293216Y-44921544D01*
X45457188Y-44853624D01*
X45606488Y-44823927D01*
X45631258Y-44819000D01*
X45808742Y-44819000D01*
X45833512Y-44823927D01*
G37*
G36*
X71233512Y-44823927D02*
G01*
X71382812Y-44853624D01*
X71546784Y-44921544D01*
X71694354Y-45020147D01*
X71819853Y-45145646D01*
X71918456Y-45293216D01*
X71986376Y-45457188D01*
X72021000Y-45631259D01*
X72021000Y-45808741D01*
X71986376Y-45982812D01*
X71918456Y-46146784D01*
X71819853Y-46294354D01*
X71694354Y-46419853D01*
X71546784Y-46518456D01*
X71382812Y-46586376D01*
X71233512Y-46616073D01*
X71208742Y-46621000D01*
X71031258Y-46621000D01*
X71006488Y-46616073D01*
X70857188Y-46586376D01*
X70693216Y-46518456D01*
X70545646Y-46419853D01*
X70420147Y-46294354D01*
X70321544Y-46146784D01*
X70253624Y-45982812D01*
X70219000Y-45808741D01*
X70219000Y-45631259D01*
X70253624Y-45457188D01*
X70321544Y-45293216D01*
X70420147Y-45145646D01*
X70545646Y-45020147D01*
X70693216Y-44921544D01*
X70857188Y-44853624D01*
X71006488Y-44823927D01*
X71031258Y-44819000D01*
X71208742Y-44819000D01*
X71233512Y-44823927D01*
G37*
G36*
X66850795Y-43535546D02*
G01*
X67023866Y-43607234D01*
X67023867Y-43607235D01*
X67179627Y-43711310D01*
X67312090Y-43843773D01*
X67312091Y-43843775D01*
X67416166Y-43999534D01*
X67487854Y-44172605D01*
X67524400Y-44356333D01*
X67524400Y-44543667D01*
X67487854Y-44727395D01*
X67416166Y-44900466D01*
X67416165Y-44900467D01*
X67312090Y-45056227D01*
X67179627Y-45188690D01*
X67101218Y-45241081D01*
X67023866Y-45292766D01*
X66850795Y-45364454D01*
X66667067Y-45401000D01*
X66479733Y-45401000D01*
X66296005Y-45364454D01*
X66122934Y-45292766D01*
X66045582Y-45241081D01*
X65967173Y-45188690D01*
X65834710Y-45056227D01*
X65730635Y-44900467D01*
X65730634Y-44900466D01*
X65658946Y-44727395D01*
X65622400Y-44543667D01*
X65622400Y-44356333D01*
X65658946Y-44172605D01*
X65730634Y-43999534D01*
X65834709Y-43843775D01*
X65834710Y-43843773D01*
X65967173Y-43711310D01*
X66122933Y-43607235D01*
X66122934Y-43607234D01*
X66296005Y-43535546D01*
X66479733Y-43499000D01*
X66667067Y-43499000D01*
X66850795Y-43535546D01*
G37*
G36*
X43990795Y-43535546D02*
G01*
X44163866Y-43607234D01*
X44163867Y-43607235D01*
X44319627Y-43711310D01*
X44452090Y-43843773D01*
X44452091Y-43843775D01*
X44556166Y-43999534D01*
X44627854Y-44172605D01*
X44664400Y-44356333D01*
X44664400Y-44543667D01*
X44627854Y-44727395D01*
X44556166Y-44900466D01*
X44556165Y-44900467D01*
X44452090Y-45056227D01*
X44319627Y-45188690D01*
X44241218Y-45241081D01*
X44163866Y-45292766D01*
X43990795Y-45364454D01*
X43807067Y-45401000D01*
X43619733Y-45401000D01*
X43436005Y-45364454D01*
X43262934Y-45292766D01*
X43185582Y-45241081D01*
X43107173Y-45188690D01*
X42974710Y-45056227D01*
X42870635Y-44900467D01*
X42870634Y-44900466D01*
X42798946Y-44727395D01*
X42762400Y-44543667D01*
X42762400Y-44356333D01*
X42798946Y-44172605D01*
X42870634Y-43999534D01*
X42974709Y-43843775D01*
X42974710Y-43843773D01*
X43107173Y-43711310D01*
X43262933Y-43607235D01*
X43262934Y-43607234D01*
X43436005Y-43535546D01*
X43619733Y-43499000D01*
X43807067Y-43499000D01*
X43990795Y-43535546D01*
G37*
G36*
X45833512Y-42283927D02*
G01*
X45982812Y-42313624D01*
X46146784Y-42381544D01*
X46294354Y-42480147D01*
X46419853Y-42605646D01*
X46518456Y-42753216D01*
X46586376Y-42917188D01*
X46621000Y-43091259D01*
X46621000Y-43268741D01*
X46586376Y-43442812D01*
X46518456Y-43606784D01*
X46419853Y-43754354D01*
X46294354Y-43879853D01*
X46146784Y-43978456D01*
X45982812Y-44046376D01*
X45833512Y-44076073D01*
X45808742Y-44081000D01*
X45631258Y-44081000D01*
X45606488Y-44076073D01*
X45457188Y-44046376D01*
X45293216Y-43978456D01*
X45145646Y-43879853D01*
X45020147Y-43754354D01*
X44921544Y-43606784D01*
X44853624Y-43442812D01*
X44819000Y-43268741D01*
X44819000Y-43091259D01*
X44853624Y-42917188D01*
X44921544Y-42753216D01*
X45020147Y-42605646D01*
X45145646Y-42480147D01*
X45293216Y-42381544D01*
X45457188Y-42313624D01*
X45606488Y-42283927D01*
X45631258Y-42279000D01*
X45808742Y-42279000D01*
X45833512Y-42283927D01*
G37*
G36*
X71233512Y-42283927D02*
G01*
X71382812Y-42313624D01*
X71546784Y-42381544D01*
X71694354Y-42480147D01*
X71819853Y-42605646D01*
X71918456Y-42753216D01*
X71986376Y-42917188D01*
X72021000Y-43091259D01*
X72021000Y-43268741D01*
X71986376Y-43442812D01*
X71918456Y-43606784D01*
X71819853Y-43754354D01*
X71694354Y-43879853D01*
X71546784Y-43978456D01*
X71382812Y-44046376D01*
X71233512Y-44076073D01*
X71208742Y-44081000D01*
X71031258Y-44081000D01*
X71006488Y-44076073D01*
X70857188Y-44046376D01*
X70693216Y-43978456D01*
X70545646Y-43879853D01*
X70420147Y-43754354D01*
X70321544Y-43606784D01*
X70253624Y-43442812D01*
X70219000Y-43268741D01*
X70219000Y-43091259D01*
X70253624Y-42917188D01*
X70321544Y-42753216D01*
X70420147Y-42605646D01*
X70545646Y-42480147D01*
X70693216Y-42381544D01*
X70857188Y-42313624D01*
X71006488Y-42283927D01*
X71031258Y-42279000D01*
X71208742Y-42279000D01*
X71233512Y-42283927D01*
G37*
G36*
X43990795Y-40995546D02*
G01*
X44163866Y-41067234D01*
X44163867Y-41067235D01*
X44319627Y-41171310D01*
X44452090Y-41303773D01*
X44452091Y-41303775D01*
X44556166Y-41459534D01*
X44627854Y-41632605D01*
X44664400Y-41816333D01*
X44664400Y-42003667D01*
X44627854Y-42187395D01*
X44556166Y-42360466D01*
X44556165Y-42360467D01*
X44452090Y-42516227D01*
X44319627Y-42648690D01*
X44241218Y-42701081D01*
X44163866Y-42752766D01*
X43990795Y-42824454D01*
X43807067Y-42861000D01*
X43619733Y-42861000D01*
X43436005Y-42824454D01*
X43262934Y-42752766D01*
X43185582Y-42701081D01*
X43107173Y-42648690D01*
X42974710Y-42516227D01*
X42870635Y-42360467D01*
X42870634Y-42360466D01*
X42798946Y-42187395D01*
X42762400Y-42003667D01*
X42762400Y-41816333D01*
X42798946Y-41632605D01*
X42870634Y-41459534D01*
X42974709Y-41303775D01*
X42974710Y-41303773D01*
X43107173Y-41171310D01*
X43262933Y-41067235D01*
X43262934Y-41067234D01*
X43436005Y-40995546D01*
X43619733Y-40959000D01*
X43807067Y-40959000D01*
X43990795Y-40995546D01*
G37*
G36*
X66850795Y-40995546D02*
G01*
X67023866Y-41067234D01*
X67023867Y-41067235D01*
X67179627Y-41171310D01*
X67312090Y-41303773D01*
X67312091Y-41303775D01*
X67416166Y-41459534D01*
X67487854Y-41632605D01*
X67524400Y-41816333D01*
X67524400Y-42003667D01*
X67487854Y-42187395D01*
X67416166Y-42360466D01*
X67416165Y-42360467D01*
X67312090Y-42516227D01*
X67179627Y-42648690D01*
X67101218Y-42701081D01*
X67023866Y-42752766D01*
X66850795Y-42824454D01*
X66667067Y-42861000D01*
X66479733Y-42861000D01*
X66296005Y-42824454D01*
X66122934Y-42752766D01*
X66045582Y-42701081D01*
X65967173Y-42648690D01*
X65834710Y-42516227D01*
X65730635Y-42360467D01*
X65730634Y-42360466D01*
X65658946Y-42187395D01*
X65622400Y-42003667D01*
X65622400Y-41816333D01*
X65658946Y-41632605D01*
X65730634Y-41459534D01*
X65834709Y-41303775D01*
X65834710Y-41303773D01*
X65967173Y-41171310D01*
X66122933Y-41067235D01*
X66122934Y-41067234D01*
X66296005Y-40995546D01*
X66479733Y-40959000D01*
X66667067Y-40959000D01*
X66850795Y-40995546D01*
G37*
G36*
X45833512Y-39743927D02*
G01*
X45982812Y-39773624D01*
X46146784Y-39841544D01*
X46294354Y-39940147D01*
X46419853Y-40065646D01*
X46518456Y-40213216D01*
X46586376Y-40377188D01*
X46621000Y-40551259D01*
X46621000Y-40728741D01*
X46586376Y-40902812D01*
X46518456Y-41066784D01*
X46419853Y-41214354D01*
X46294354Y-41339853D01*
X46146784Y-41438456D01*
X45982812Y-41506376D01*
X45833512Y-41536073D01*
X45808742Y-41541000D01*
X45631258Y-41541000D01*
X45606488Y-41536073D01*
X45457188Y-41506376D01*
X45293216Y-41438456D01*
X45145646Y-41339853D01*
X45020147Y-41214354D01*
X44921544Y-41066784D01*
X44853624Y-40902812D01*
X44819000Y-40728741D01*
X44819000Y-40551259D01*
X44853624Y-40377188D01*
X44921544Y-40213216D01*
X45020147Y-40065646D01*
X45145646Y-39940147D01*
X45293216Y-39841544D01*
X45457188Y-39773624D01*
X45606488Y-39743927D01*
X45631258Y-39739000D01*
X45808742Y-39739000D01*
X45833512Y-39743927D01*
G37*
G36*
X71233512Y-39743927D02*
G01*
X71382812Y-39773624D01*
X71546784Y-39841544D01*
X71694354Y-39940147D01*
X71819853Y-40065646D01*
X71918456Y-40213216D01*
X71986376Y-40377188D01*
X72021000Y-40551259D01*
X72021000Y-40728741D01*
X71986376Y-40902812D01*
X71918456Y-41066784D01*
X71819853Y-41214354D01*
X71694354Y-41339853D01*
X71546784Y-41438456D01*
X71382812Y-41506376D01*
X71233512Y-41536073D01*
X71208742Y-41541000D01*
X71031258Y-41541000D01*
X71006488Y-41536073D01*
X70857188Y-41506376D01*
X70693216Y-41438456D01*
X70545646Y-41339853D01*
X70420147Y-41214354D01*
X70321544Y-41066784D01*
X70253624Y-40902812D01*
X70219000Y-40728741D01*
X70219000Y-40551259D01*
X70253624Y-40377188D01*
X70321544Y-40213216D01*
X70420147Y-40065646D01*
X70545646Y-39940147D01*
X70693216Y-39841544D01*
X70857188Y-39773624D01*
X71006488Y-39743927D01*
X71031258Y-39739000D01*
X71208742Y-39739000D01*
X71233512Y-39743927D01*
G37*
G36*
X43990795Y-38455546D02*
G01*
X44163866Y-38527234D01*
X44163867Y-38527235D01*
X44319627Y-38631310D01*
X44452090Y-38763773D01*
X44452091Y-38763775D01*
X44556166Y-38919534D01*
X44627854Y-39092605D01*
X44664400Y-39276333D01*
X44664400Y-39463667D01*
X44627854Y-39647395D01*
X44556166Y-39820466D01*
X44556165Y-39820467D01*
X44452090Y-39976227D01*
X44319627Y-40108690D01*
X44241218Y-40161081D01*
X44163866Y-40212766D01*
X43990795Y-40284454D01*
X43807067Y-40321000D01*
X43619733Y-40321000D01*
X43436005Y-40284454D01*
X43262934Y-40212766D01*
X43185582Y-40161081D01*
X43107173Y-40108690D01*
X42974710Y-39976227D01*
X42870635Y-39820467D01*
X42870634Y-39820466D01*
X42798946Y-39647395D01*
X42762400Y-39463667D01*
X42762400Y-39276333D01*
X42798946Y-39092605D01*
X42870634Y-38919534D01*
X42974709Y-38763775D01*
X42974710Y-38763773D01*
X43107173Y-38631310D01*
X43262933Y-38527235D01*
X43262934Y-38527234D01*
X43436005Y-38455546D01*
X43619733Y-38419000D01*
X43807067Y-38419000D01*
X43990795Y-38455546D01*
G37*
G36*
X66850795Y-38455546D02*
G01*
X67023866Y-38527234D01*
X67023867Y-38527235D01*
X67179627Y-38631310D01*
X67312090Y-38763773D01*
X67312091Y-38763775D01*
X67416166Y-38919534D01*
X67487854Y-39092605D01*
X67524400Y-39276333D01*
X67524400Y-39463667D01*
X67487854Y-39647395D01*
X67416166Y-39820466D01*
X67416165Y-39820467D01*
X67312090Y-39976227D01*
X67179627Y-40108690D01*
X67101218Y-40161081D01*
X67023866Y-40212766D01*
X66850795Y-40284454D01*
X66667067Y-40321000D01*
X66479733Y-40321000D01*
X66296005Y-40284454D01*
X66122934Y-40212766D01*
X66045582Y-40161081D01*
X65967173Y-40108690D01*
X65834710Y-39976227D01*
X65730635Y-39820467D01*
X65730634Y-39820466D01*
X65658946Y-39647395D01*
X65622400Y-39463667D01*
X65622400Y-39276333D01*
X65658946Y-39092605D01*
X65730634Y-38919534D01*
X65834709Y-38763775D01*
X65834710Y-38763773D01*
X65967173Y-38631310D01*
X66122933Y-38527235D01*
X66122934Y-38527234D01*
X66296005Y-38455546D01*
X66479733Y-38419000D01*
X66667067Y-38419000D01*
X66850795Y-38455546D01*
G37*
G36*
X71233512Y-37203927D02*
G01*
X71382812Y-37233624D01*
X71546784Y-37301544D01*
X71694354Y-37400147D01*
X71819853Y-37525646D01*
X71918456Y-37673216D01*
X71986376Y-37837188D01*
X72021000Y-38011259D01*
X72021000Y-38188741D01*
X71986376Y-38362812D01*
X71918456Y-38526784D01*
X71819853Y-38674354D01*
X71694354Y-38799853D01*
X71546784Y-38898456D01*
X71382812Y-38966376D01*
X71233512Y-38996073D01*
X71208742Y-39001000D01*
X71031258Y-39001000D01*
X71006488Y-38996073D01*
X70857188Y-38966376D01*
X70693216Y-38898456D01*
X70545646Y-38799853D01*
X70420147Y-38674354D01*
X70321544Y-38526784D01*
X70253624Y-38362812D01*
X70219000Y-38188741D01*
X70219000Y-38011259D01*
X70253624Y-37837188D01*
X70321544Y-37673216D01*
X70420147Y-37525646D01*
X70545646Y-37400147D01*
X70693216Y-37301544D01*
X70857188Y-37233624D01*
X71006488Y-37203927D01*
X71031258Y-37199000D01*
X71208742Y-37199000D01*
X71233512Y-37203927D01*
G37*
G36*
X45833512Y-37203927D02*
G01*
X45982812Y-37233624D01*
X46146784Y-37301544D01*
X46294354Y-37400147D01*
X46419853Y-37525646D01*
X46518456Y-37673216D01*
X46586376Y-37837188D01*
X46621000Y-38011259D01*
X46621000Y-38188741D01*
X46586376Y-38362812D01*
X46518456Y-38526784D01*
X46419853Y-38674354D01*
X46294354Y-38799853D01*
X46146784Y-38898456D01*
X45982812Y-38966376D01*
X45833512Y-38996073D01*
X45808742Y-39001000D01*
X45631258Y-39001000D01*
X45606488Y-38996073D01*
X45457188Y-38966376D01*
X45293216Y-38898456D01*
X45145646Y-38799853D01*
X45020147Y-38674354D01*
X44921544Y-38526784D01*
X44853624Y-38362812D01*
X44819000Y-38188741D01*
X44819000Y-38011259D01*
X44853624Y-37837188D01*
X44921544Y-37673216D01*
X45020147Y-37525646D01*
X45145646Y-37400147D01*
X45293216Y-37301544D01*
X45457188Y-37233624D01*
X45606488Y-37203927D01*
X45631258Y-37199000D01*
X45808742Y-37199000D01*
X45833512Y-37203927D01*
G37*
G36*
X66850795Y-35915546D02*
G01*
X67023866Y-35987234D01*
X67023867Y-35987235D01*
X67179627Y-36091310D01*
X67312090Y-36223773D01*
X67312091Y-36223775D01*
X67416166Y-36379534D01*
X67487854Y-36552605D01*
X67524400Y-36736333D01*
X67524400Y-36923667D01*
X67487854Y-37107395D01*
X67416166Y-37280466D01*
X67416165Y-37280467D01*
X67312090Y-37436227D01*
X67179627Y-37568690D01*
X67101218Y-37621081D01*
X67023866Y-37672766D01*
X66850795Y-37744454D01*
X66667067Y-37781000D01*
X66479733Y-37781000D01*
X66296005Y-37744454D01*
X66122934Y-37672766D01*
X66045582Y-37621081D01*
X65967173Y-37568690D01*
X65834710Y-37436227D01*
X65730635Y-37280467D01*
X65730634Y-37280466D01*
X65658946Y-37107395D01*
X65622400Y-36923667D01*
X65622400Y-36736333D01*
X65658946Y-36552605D01*
X65730634Y-36379534D01*
X65834709Y-36223775D01*
X65834710Y-36223773D01*
X65967173Y-36091310D01*
X66122933Y-35987235D01*
X66122934Y-35987234D01*
X66296005Y-35915546D01*
X66479733Y-35879000D01*
X66667067Y-35879000D01*
X66850795Y-35915546D01*
G37*
G36*
X43990795Y-35915546D02*
G01*
X44163866Y-35987234D01*
X44163867Y-35987235D01*
X44319627Y-36091310D01*
X44452090Y-36223773D01*
X44452091Y-36223775D01*
X44556166Y-36379534D01*
X44627854Y-36552605D01*
X44664400Y-36736333D01*
X44664400Y-36923667D01*
X44627854Y-37107395D01*
X44556166Y-37280466D01*
X44556165Y-37280467D01*
X44452090Y-37436227D01*
X44319627Y-37568690D01*
X44241218Y-37621081D01*
X44163866Y-37672766D01*
X43990795Y-37744454D01*
X43807067Y-37781000D01*
X43619733Y-37781000D01*
X43436005Y-37744454D01*
X43262934Y-37672766D01*
X43185582Y-37621081D01*
X43107173Y-37568690D01*
X42974710Y-37436227D01*
X42870635Y-37280467D01*
X42870634Y-37280466D01*
X42798946Y-37107395D01*
X42762400Y-36923667D01*
X42762400Y-36736333D01*
X42798946Y-36552605D01*
X42870634Y-36379534D01*
X42974709Y-36223775D01*
X42974710Y-36223773D01*
X43107173Y-36091310D01*
X43262933Y-35987235D01*
X43262934Y-35987234D01*
X43436005Y-35915546D01*
X43619733Y-35879000D01*
X43807067Y-35879000D01*
X43990795Y-35915546D01*
G37*
G36*
X71233512Y-34663927D02*
G01*
X71382812Y-34693624D01*
X71546784Y-34761544D01*
X71694354Y-34860147D01*
X71819853Y-34985646D01*
X71918456Y-35133216D01*
X71986376Y-35297188D01*
X72021000Y-35471259D01*
X72021000Y-35648741D01*
X71986376Y-35822812D01*
X71918456Y-35986784D01*
X71819853Y-36134354D01*
X71694354Y-36259853D01*
X71546784Y-36358456D01*
X71382812Y-36426376D01*
X71233512Y-36456073D01*
X71208742Y-36461000D01*
X71031258Y-36461000D01*
X71006488Y-36456073D01*
X70857188Y-36426376D01*
X70693216Y-36358456D01*
X70545646Y-36259853D01*
X70420147Y-36134354D01*
X70321544Y-35986784D01*
X70253624Y-35822812D01*
X70219000Y-35648741D01*
X70219000Y-35471259D01*
X70253624Y-35297188D01*
X70321544Y-35133216D01*
X70420147Y-34985646D01*
X70545646Y-34860147D01*
X70693216Y-34761544D01*
X70857188Y-34693624D01*
X71006488Y-34663927D01*
X71031258Y-34659000D01*
X71208742Y-34659000D01*
X71233512Y-34663927D01*
G37*
G36*
X45833512Y-34663927D02*
G01*
X45982812Y-34693624D01*
X46146784Y-34761544D01*
X46294354Y-34860147D01*
X46419853Y-34985646D01*
X46518456Y-35133216D01*
X46586376Y-35297188D01*
X46621000Y-35471259D01*
X46621000Y-35648741D01*
X46586376Y-35822812D01*
X46518456Y-35986784D01*
X46419853Y-36134354D01*
X46294354Y-36259853D01*
X46146784Y-36358456D01*
X45982812Y-36426376D01*
X45833512Y-36456073D01*
X45808742Y-36461000D01*
X45631258Y-36461000D01*
X45606488Y-36456073D01*
X45457188Y-36426376D01*
X45293216Y-36358456D01*
X45145646Y-36259853D01*
X45020147Y-36134354D01*
X44921544Y-35986784D01*
X44853624Y-35822812D01*
X44819000Y-35648741D01*
X44819000Y-35471259D01*
X44853624Y-35297188D01*
X44921544Y-35133216D01*
X45020147Y-34985646D01*
X45145646Y-34860147D01*
X45293216Y-34761544D01*
X45457188Y-34693624D01*
X45606488Y-34663927D01*
X45631258Y-34659000D01*
X45808742Y-34659000D01*
X45833512Y-34663927D01*
G37*
G36*
X71233512Y-32123927D02*
G01*
X71382812Y-32153624D01*
X71546784Y-32221544D01*
X71694354Y-32320147D01*
X71819853Y-32445646D01*
X71918456Y-32593216D01*
X71986376Y-32757188D01*
X72021000Y-32931259D01*
X72021000Y-33108741D01*
X71986376Y-33282812D01*
X71918456Y-33446784D01*
X71819853Y-33594354D01*
X71694354Y-33719853D01*
X71546784Y-33818456D01*
X71382812Y-33886376D01*
X71233512Y-33916073D01*
X71208742Y-33921000D01*
X71031258Y-33921000D01*
X71006488Y-33916073D01*
X70857188Y-33886376D01*
X70693216Y-33818456D01*
X70545646Y-33719853D01*
X70420147Y-33594354D01*
X70321544Y-33446784D01*
X70253624Y-33282812D01*
X70219000Y-33108741D01*
X70219000Y-32931259D01*
X70253624Y-32757188D01*
X70321544Y-32593216D01*
X70420147Y-32445646D01*
X70545646Y-32320147D01*
X70693216Y-32221544D01*
X70857188Y-32153624D01*
X71006488Y-32123927D01*
X71031258Y-32119000D01*
X71208742Y-32119000D01*
X71233512Y-32123927D01*
G37*
G36*
X45833512Y-32123927D02*
G01*
X45982812Y-32153624D01*
X46146784Y-32221544D01*
X46294354Y-32320147D01*
X46419853Y-32445646D01*
X46518456Y-32593216D01*
X46586376Y-32757188D01*
X46621000Y-32931259D01*
X46621000Y-33108741D01*
X46586376Y-33282812D01*
X46518456Y-33446784D01*
X46419853Y-33594354D01*
X46294354Y-33719853D01*
X46146784Y-33818456D01*
X45982812Y-33886376D01*
X45833512Y-33916073D01*
X45808742Y-33921000D01*
X45631258Y-33921000D01*
X45606488Y-33916073D01*
X45457188Y-33886376D01*
X45293216Y-33818456D01*
X45145646Y-33719853D01*
X45020147Y-33594354D01*
X44921544Y-33446784D01*
X44853624Y-33282812D01*
X44819000Y-33108741D01*
X44819000Y-32931259D01*
X44853624Y-32757188D01*
X44921544Y-32593216D01*
X45020147Y-32445646D01*
X45145646Y-32320147D01*
X45293216Y-32221544D01*
X45457188Y-32153624D01*
X45606488Y-32123927D01*
X45631258Y-32119000D01*
X45808742Y-32119000D01*
X45833512Y-32123927D01*
G37*
G36*
X72021000Y-31381000D02*
G01*
X70219000Y-31381000D01*
X70219000Y-29579000D01*
X72021000Y-29579000D01*
X72021000Y-31381000D01*
G37*
G36*
X46621000Y-31381000D02*
G01*
X44819000Y-31381000D01*
X44819000Y-29579000D01*
X46621000Y-29579000D01*
X46621000Y-31381000D01*
G37*
M02*
